<?xml version="1.0"?>
<!DOCTYPE svg PUBLIC "-//W3C//DTD SVG 1.1//EN" "http://www.w3.org/Graphics/SVG/1.1/DTD/svg11.dtd">
<svg width="166.0mm" height="41.0mm" viewBox="17.500000 -35.000000 166.000000 41.000000" xmlns="http://www.w3.org/2000/svg" version="1.1">
<g id="Sketch006" transform="scale(1,-1)">
<path id="Sketch006_w0000"  d="M 17.5 -3.0 L 17.5 5.75 L 20.5 5.75 L 20.5 23.25 L 17.5 23.25 L 17.5 32.0 L 53.0 32.0 L 53.0 35.0 L 138.0 35.0 L 138.0 32.0 L 183.5 32.0 L 183.5 23.25 L 180.5 23.25 L 180.5 5.75 L 183.5 5.75 L 183.5 -3.0 L 138.0 -3.0 L 138.0 -6.0 L 53.0 -6.0 L 53.0 -3.0 L 17.5 -3.0 " stroke="#000000" stroke-width="0.35 px" style="stroke-width:0.35;stroke-miterlimit:4;stroke-dasharray:none;fill:none;fill-rule: evenodd "/>
<path id="Sketch006_w0001"  d="M 27.0 5.0 L 35.5 5.0 L 35.5 9.0 L 27.0 9.0 L 27.0 5.0 " stroke="#000000" stroke-width="0.35 px" style="stroke-width:0.35;stroke-miterlimit:4;stroke-dasharray:none;fill:none;fill-rule: evenodd "/>
<path id="Sketch006_w0002"  d="M 39.0 5.0 L 47.5 5.0 L 47.5 9.0 L 39.0 9.0 L 39.0 5.0 " stroke="#000000" stroke-width="0.35 px" style="stroke-width:0.35;stroke-miterlimit:4;stroke-dasharray:none;fill:none;fill-rule: evenodd "/>
<path id="Sketch006_w0003"  d="M 51.0 5.0 L 57.5 5.0 L 57.5 18.5 L 51.0 18.5 L 51.0 5.0 " stroke="#000000" stroke-width="0.35 px" style="stroke-width:0.35;stroke-miterlimit:4;stroke-dasharray:none;fill:none;fill-rule: evenodd "/>
<path id="Sketch006_w0004"  d="M 60.5 5.0 L 76.5 5.0 L 76.5 11.5 L 60.5 11.5 L 60.5 5.0 " stroke="#000000" stroke-width="0.35 px" style="stroke-width:0.35;stroke-miterlimit:4;stroke-dasharray:none;fill:none;fill-rule: evenodd "/>
<path id="Sketch006_w0005"  d="M 78.5 5.0 L 95.0 5.0 L 95.0 19.0 L 78.5 19.0 L 78.5 5.0 " stroke="#000000" stroke-width="0.35 px" style="stroke-width:0.35;stroke-miterlimit:4;stroke-dasharray:none;fill:none;fill-rule: evenodd "/>
<path id="Sketch006_w0006"  d="M 95.5 5.0 L 155.5 5.0 L 155.5 19.0 L 95.5 19.0 L 95.5 5.0 " stroke="#000000" stroke-width="0.35 px" style="stroke-width:0.35;stroke-miterlimit:4;stroke-dasharray:none;fill:none;fill-rule: evenodd "/>
<circle cx="163.5" cy="8.0" r="3.25" stroke="#000000" stroke-width="0.35 px" style="stroke-width:0.35;stroke-miterlimit:4;stroke-dasharray:none;fill:none"/>
<path id="Sketch006_w0008"  d="M 28.0 31.0 L 44.5 31.0 L 44.5 18.0 L 28.0 18.0 L 28.0 31.0 " stroke="#000000" stroke-width="0.35 px" style="stroke-width:0.35;stroke-miterlimit:4;stroke-dasharray:none;fill:none;fill-rule: evenodd "/>
<title>Sketch006</title>
</g>
</svg>