<?xml version="1.0"?>
<!DOCTYPE svg PUBLIC "-//W3C//DTD SVG 1.1//EN" "http://www.w3.org/Graphics/SVG/1.1/DTD/svg11.dtd">
<svg width="166.0mm" height="41.0mm" viewBox="17.500000 -35.000000 166.000000 41.000000" xmlns="http://www.w3.org/2000/svg" version="1.1">
<g id="Sketch006" transform="scale(1,-1)">
<path id="Sketch006_w0000"  d="M 17.5 -3.0 L 17.5 5.75 L 20.5 5.75 L 20.5 23.25 L 17.5 23.25 L 17.5 32.0 L 53.0 32.0 L 53.0 35.0 L 138.0 35.0 L 138.0 32.0 L 183.5 32.0 L 183.5 23.25 L 180.5 23.25 L 180.5 5.75 L 183.5 5.75 L 183.5 -3.0 L 138.0 -3.0 L 138.0 -6.0 L 53.0 -6.0 L 53.0 -3.0 L 17.5 -3.0 " stroke="#000000" stroke-width="0.35 px" style="stroke-width:0.35;stroke-miterlimit:4;stroke-dasharray:none;fill:none;fill-rule: evenodd "/>
<path id="Sketch006_w0001"  d="M 66.5 -2.0 L 76.5 -2.0 L 76.5 2.0 L 66.5 2.0 L 66.5 -2.0 " stroke="#000000" stroke-width="0.35 px" style="stroke-width:0.35;stroke-miterlimit:4;stroke-dasharray:none;fill:none;fill-rule: evenodd "/>
<path id="Sketch006_w0002"  d="M 88.5 -2.0 L 98.5 -2.0 L 98.5 2.0 L 88.5 2.0 L 88.5 -2.0 " stroke="#000000" stroke-width="0.35 px" style="stroke-width:0.35;stroke-miterlimit:4;stroke-dasharray:none;fill:none;fill-rule: evenodd "/>
<path id="Sketch006_w0003"  d="M 30.0 28.0 L 39.5 28.0 L 39.5 18.0 L 30.0 18.0 L 30.0 28.0 " stroke="#000000" stroke-width="0.35 px" style="stroke-width:0.35;stroke-miterlimit:4;stroke-dasharray:none;fill:none;fill-rule: evenodd "/>
<path id="Sketch006_w0004"  d="M 59.5 28.0 L 71.5 28.0 L 71.5 18.0 L 59.5 18.0 L 59.5 28.0 " stroke="#000000" stroke-width="0.35 px" style="stroke-width:0.35;stroke-miterlimit:4;stroke-dasharray:none;fill:none;fill-rule: evenodd "/>
<title>Sketch006</title>
</g>
</svg>