<?xml version="1.0"?>
<!DOCTYPE svg PUBLIC "-//W3C//DTD SVG 1.1//EN" "http://www.w3.org/Graphics/SVG/1.1/DTD/svg11.dtd">
<svg width="192.091092957mm" height="123.091090197mm" viewBox="-0.545548 -84.545545 192.091093 123.091090" xmlns="http://www.w3.org/2000/svg" version="1.1">
<g id="Sketch006" transform="scale(1,-1)">
<path id="Sketch006_w0000"  d="M 6.6213205614 -38.0000001635 L 184.378679455 -38.0000001362 A 6.62132034106 6.62132034106 0 0 1 190.999999565 -31.3786797243 L 190.99999955 77.3786794659 A 6.62132023655 6.62132023655 0 0 1 184.378679492 83.9999996429 L 6.62132218599 83.999999657 " stroke="#000000" stroke-width="0.35 px" style="stroke-width:0.35;stroke-miterlimit:4;stroke-dasharray:none;fill:none;fill-rule: evenodd "/>
<path id="Sketch006_w0001"  d="M 17.4000000728 48.25 L 20.6000001859 48.25 L 20.6000001859 -2.25 L 17.4000000728 -2.25 L 17.4000000728 48.25 " stroke="#000000" stroke-width="0.35 px" style="stroke-width:0.35;stroke-miterlimit:4;stroke-dasharray:none;fill:none;fill-rule: evenodd "/>
<path id="Sketch006_w0002"  d="M 180.500000238 48.25 L 183.700000431 48.25 L 183.700000431 -2.25 L 180.500000238 -2.25 L 180.500000238 48.25 " stroke="#000000" stroke-width="0.35 px" style="stroke-width:0.35;stroke-miterlimit:4;stroke-dasharray:none;fill:none;fill-rule: evenodd "/>
<path id="Sketch006_w0003"  d="M 53.0 73.5000006971 L 138.0 73.5000006971 L 138.0 76.7000008951 L 53.0 76.7000008951 L 53.0 73.5000006971 " stroke="#000000" stroke-width="0.35 px" style="stroke-width:0.35;stroke-miterlimit:4;stroke-dasharray:none;fill:none;fill-rule: evenodd "/>
<path id="Sketch006_w0004"  d="M 53.0 -30.5999998656 L 138.0 -30.5999998656 L 138.0 -27.3999993947 L 53.0 -27.3999993947 L 53.0 -30.5999998656 " stroke="#000000" stroke-width="0.35 px" style="stroke-width:0.35;stroke-miterlimit:4;stroke-dasharray:none;fill:none;fill-rule: evenodd "/>
<circle cx="4.49999996572" cy="-33.5000000403" r="1.5" stroke="#000000" stroke-width="0.35 px" style="stroke-width:0.35;stroke-miterlimit:4;stroke-dasharray:none;fill:none"/>
<circle cx="186.499999667" cy="-33.5000000403" r="1.5" stroke="#000000" stroke-width="0.35 px" style="stroke-width:0.35;stroke-miterlimit:4;stroke-dasharray:none;fill:none"/>
<circle cx="4.49999996572" cy="79.4999997072" r="1.5" stroke="#000000" stroke-width="0.35 px" style="stroke-width:0.35;stroke-miterlimit:4;stroke-dasharray:none;fill:none"/>
<circle cx="186.499999667" cy="79.4999997072" r="1.5" stroke="#000000" stroke-width="0.35 px" style="stroke-width:0.35;stroke-miterlimit:4;stroke-dasharray:none;fill:none"/>
<path id="Sketch006_w0009"  d="M 39.5 -20.0 L 30.0 -20.0 L 30.0 -26.0 L 39.5 -26.0 L 39.5 -20.0 " stroke="#000000" stroke-width="0.35 px" style="stroke-width:0.35;stroke-miterlimit:4;stroke-dasharray:none;fill:none;fill-rule: evenodd "/>
<path id="Sketch006_w0010"  d="M 59.5 -20.0 L 71.5 -20.0 L 71.5 -26.0 L 59.5 -26.0 L 59.5 -20.0 " stroke="#000000" stroke-width="0.35 px" style="stroke-width:0.35;stroke-miterlimit:4;stroke-dasharray:none;fill:none;fill-rule: evenodd "/>
<path id="Sketch006_w0011"  d="M 55.9999999859 30.9999999771 L 75.9999999771 30.9999999771 L 75.9999999771 -10.0000000141 L 55.9999999859 -10.0000000141 L 55.9999999859 30.9999999771 " stroke="#000000" stroke-width="0.35 px" style="stroke-width:0.35;stroke-miterlimit:4;stroke-dasharray:none;fill:none;fill-rule: evenodd "/>
<path id="Sketch006_w0012"  d="M 6.62132175435 83.9999994982 A 6.62132063185 6.62132063185 0 0 1 -9.18604982303e-07 77.3786649922 " stroke="#000000" stroke-width="0.35 px" style="stroke-width:0.35;stroke-miterlimit:4;stroke-dasharray:none;fill:none;fill-rule: evenodd "/>
<path id="Sketch006_w0013"  d="M -6.31226982684e-07 -31.3786797658 A 6.6213206865 6.6213206865 0 0 1 6.62132037596 -38.0000002452 " stroke="#000000" stroke-width="0.35 px" style="stroke-width:0.35;stroke-miterlimit:4;stroke-dasharray:none;fill:none;fill-rule: evenodd "/>
<path id="Sketch006_w0014"  d="M -9.94587303945e-07 77.3786651014 L -9.94587303945e-07 62.3786647403 " stroke="#000000" stroke-width="0.35 px" style="stroke-width:0.35;stroke-miterlimit:4;stroke-dasharray:none;fill:none;fill-rule: evenodd "/>
<path id="Sketch006_w0015"  d="M -9.94587303945e-07 -16.3786793774 L -9.94587303945e-07 -31.3786797972 " stroke="#000000" stroke-width="0.35 px" style="stroke-width:0.35;stroke-miterlimit:4;stroke-dasharray:none;fill:none;fill-rule: evenodd "/>
<path id="Sketch006_w0016"  d="M 6.62120679484 55.7573257182 L 6.62146708801 55.7573257137 " stroke="#000000" stroke-width="0.35 px" style="stroke-width:0.35;stroke-miterlimit:4;stroke-dasharray:none;fill:none;fill-rule: evenodd "/>
<path id="Sketch006_w0017"  d="M -2.85698813585e-06 62.3786646694 A 6.62132257023 6.62132257023 0 0 1 6.62120635676 55.7573277729 " stroke="#000000" stroke-width="0.35 px" style="stroke-width:0.35;stroke-miterlimit:4;stroke-dasharray:none;fill:none;fill-rule: evenodd "/>
<path id="Sketch006_w0018"  d="M 14.9999978435 47.3584903279 A 8.37870231511 8.37870231511 0 0 1 6.62146674864 55.7573240725 " stroke="#000000" stroke-width="0.35 px" style="stroke-width:0.35;stroke-miterlimit:4;stroke-dasharray:none;fill:none;fill-rule: evenodd "/>
<path id="Sketch006_w0019"  d="M 6.60676431094 -9.75737941646 L 6.63974311635 -9.75730691154 " stroke="#000000" stroke-width="0.35 px" style="stroke-width:0.35;stroke-miterlimit:4;stroke-dasharray:none;fill:none;fill-rule: evenodd "/>
<path id="Sketch006_w0020"  d="M 6.63974290455 -9.75730832086 A 8.37868075015 8.37868075015 0 0 1 14.999990591 -1.39150997658 " stroke="#000000" stroke-width="0.35 px" style="stroke-width:0.35;stroke-miterlimit:4;stroke-dasharray:none;fill:none;fill-rule: evenodd "/>
<path id="Sketch006_w0021"  d="M 6.60676401272 -9.75737738971 A 6.62131843644 6.62131843644 0 0 1 1.27679324802e-06 -16.3786796626 " stroke="#000000" stroke-width="0.35 px" style="stroke-width:0.35;stroke-miterlimit:4;stroke-dasharray:none;fill:none;fill-rule: evenodd "/>
<path id="Sketch006_w0022"  d="M 14.9999964712 47.3584903648 L 14.9999964712 -1.39150966649 " stroke="#000000" stroke-width="0.35 px" style="stroke-width:0.35;stroke-miterlimit:4;stroke-dasharray:none;fill:none;fill-rule: evenodd "/>
<title>Sketch006</title>
</g>
</svg>