M48
;DRILL file {KiCad 5.0.0+dfsg1-1} date Tue Aug 14 17:59:20 2018
;FORMAT={-:-/ absolute / metric / decimal}
FMAT,2
METRIC,TZ
T1C0.400
T2C0.760
T3C0.800
T4C1.000
T5C1.100
T6C1.400
T7C1.500
T8C1.501
T9C2.499
T10C2.700
T11C3.200
%
G90
G05
M71
T1
X70.Y-96.5
X72.8Y-74.2
X76.2Y-118.11
X76.5Y-68.5
X79.5Y-67.5
X82.5Y-140.
X82.8Y-143.
X83.Y-70.
X84.Y-141.6
X89.Y-137.
X90.Y-136.
X93.5Y-137.435
X97.Y-113.
X98.5Y-129.75
X105.Y-129.6
X131.701Y-102.425
T2
X70.11Y-64.54
X71.38Y-62.
X72.65Y-64.54
X73.92Y-62.
X75.19Y-64.54
X76.46Y-62.
X77.73Y-64.54
X79.Y-62.
T3
X99.92Y-132.
X99.92Y-139.62
X102.46Y-132.
X102.46Y-139.62
X105.Y-132.
X105.Y-139.62
X107.54Y-132.
X107.54Y-139.62
X119.78Y-88.5
X119.78Y-91.04
X119.78Y-101.2
X119.78Y-103.74
X127.4Y-88.5
X127.4Y-91.04
X127.4Y-101.2
X127.4Y-103.74
X116.6Y-101.2
X116.6Y-108.82
X139.8Y-100.18
X139.8Y-107.8
T4
X116.Y-146.
X118.54Y-146.
X249.61Y-49.1
X252.15Y-49.1
X199.19Y-109.48
X199.2Y-104.4
X72.16Y-98.66
X72.16Y-101.2
X74.7Y-98.66
X74.7Y-101.2
X64.479Y-71.243
X64.479Y-73.783
X64.479Y-76.323
X64.479Y-78.863
X64.479Y-81.403
X64.479Y-83.943
X64.479Y-86.483
X64.479Y-89.023
X64.479Y-91.563
X64.479Y-94.103
X64.479Y-96.643
X64.479Y-99.183
X64.479Y-101.723
X67.019Y-71.243
X67.019Y-73.783
X67.019Y-76.323
X67.019Y-78.863
X67.019Y-81.403
X67.019Y-83.943
X67.019Y-86.483
X67.019Y-89.023
X67.019Y-91.563
X67.019Y-94.103
X67.019Y-96.643
X67.019Y-99.183
X67.019Y-101.723
X71.Y-71.21
X71.Y-73.75
X71.Y-76.29
X243.475Y-34.425
X243.475Y-36.965
X243.475Y-39.505
X243.475Y-42.045
X243.475Y-44.585
X243.475Y-47.125
X243.475Y-49.665
X243.475Y-52.205
X243.475Y-54.745
X243.475Y-57.285
X243.475Y-59.825
X243.475Y-62.365
X243.475Y-64.905
X246.015Y-34.425
X246.015Y-36.965
X246.015Y-39.505
X246.015Y-42.045
X246.015Y-44.585
X246.015Y-47.125
X246.015Y-49.665
X246.015Y-52.205
X246.015Y-54.745
X246.015Y-57.285
X246.015Y-59.825
X246.015Y-62.365
X246.015Y-64.905
X102.6Y-107.11
X102.6Y-109.88
X102.6Y-112.65
X102.6Y-115.42
X102.6Y-118.19
X105.44Y-108.495
X105.44Y-111.265
X105.44Y-114.035
X105.44Y-116.805
X91.924Y-145.2
X94.464Y-145.2
X255.985Y-37.175
X261.065Y-37.175
X81.32Y-145.5
X81.32Y-148.04
X83.86Y-145.5
X83.86Y-148.04
X86.4Y-145.5
X86.4Y-148.04
X88.94Y-145.5
X88.94Y-148.04
X75.5Y-80.
X75.5Y-82.54
X75.5Y-85.08
X78.04Y-80.
X78.04Y-82.54
X78.04Y-85.08
X80.01Y-120.65
X80.01Y-123.19
X82.55Y-120.65
X82.55Y-123.19
X71.46Y-120.635
X71.46Y-123.405
X71.46Y-126.175
X71.46Y-128.945
X74.3Y-119.25
X74.3Y-122.02
X74.3Y-124.79
X74.3Y-127.56
X74.3Y-130.33
X136.Y-106.81
X136.Y-109.35
X249.625Y-34.425
X249.625Y-36.965
X249.625Y-39.505
X249.625Y-42.045
X252.165Y-34.425
X252.165Y-36.965
X252.165Y-39.505
X252.165Y-42.045
T5
X70.46Y-146.
X73.Y-146.
X75.54Y-146.
X99.92Y-146.
X102.46Y-146.
X105.Y-146.
X107.54Y-146.
T6
X199.2Y-82.
X199.2Y-87.
X199.2Y-92.
X99.92Y-54.5
X102.46Y-64.66
X105.Y-54.5
X107.54Y-64.66
X110.08Y-54.5
X112.62Y-64.66
X198.392Y-123.868
X198.392Y-128.948
X198.392Y-134.028
X203.472Y-123.868
X203.472Y-128.948
X203.472Y-134.028
T7
X147.01Y-104.
X152.09Y-104.
X164.79Y-104.
X174.95Y-104.
X140.7Y-73.7
X140.7Y-81.7
X185.7Y-73.7
X185.7Y-94.5
T8
X184.2Y-104.
X190.2Y-104.
T9
X172.Y-145.2
T10
X62.8Y-147.
X62.8Y-63.
X204.8Y-147.
X205.2Y-68.4
T11
X104.02Y-100.15
X104.02Y-125.15
X74.Y-112.29
X74.Y-137.29
T0
M30
