M48
;DRILL file {KiCad 4.0.6} date 07/31/17 19:14:04
;FORMAT={3:3/ absolute / metric / suppress leading zeros}
FMAT,2
METRIC,TZ
T1C0.400
T2C0.800
T3C0.900
T4C1.000
T5C1.020
T6C1.097
T7C3.050
%
G90
G05
M71
T1
X70000Y-96500
X76500Y-68000
X79500Y-67500
X82500Y-140000
X82800Y-143000
X83000Y-70000
X84000Y-141600
X89000Y-137000
X90000Y-136000
X97000Y-113000
X98500Y-129750
X105000Y-129600
T2
X99920Y-132000
X99920Y-139620
X102460Y-132000
X102460Y-139620
X105000Y-132000
X105000Y-139620
X107540Y-132000
X107540Y-139620
T3
X70110Y-64540
X71380Y-62000
X72650Y-64540
X73920Y-62000
X75190Y-64540
X76460Y-62000
X77730Y-64540
X79000Y-62000
T4
X64479Y-71243
X64479Y-73783
X64479Y-76323
X64479Y-78863
X64479Y-81403
X64479Y-83943
X64479Y-86483
X64479Y-89023
X64479Y-91563
X64479Y-94103
X64479Y-96643
X64479Y-99183
X64479Y-101723
X67019Y-71243
X67019Y-73783
X67019Y-76323
X67019Y-78863
X67019Y-81403
X67019Y-83943
X67019Y-86483
X67019Y-89023
X67019Y-91563
X67019Y-94103
X67019Y-96643
X67019Y-99183
X67019Y-101723
X71000Y-71210
X71000Y-73750
X71000Y-76290
X72160Y-98660
X72160Y-101200
X74700Y-98660
X74700Y-101200
X75250Y-77710
X75250Y-80250
X75250Y-82790
X77790Y-77710
X77790Y-80250
X77790Y-82790
X81320Y-145500
X81320Y-148040
X83860Y-145500
X83860Y-148040
X86400Y-145500
X86400Y-148040
X88940Y-145500
X88940Y-148040
X91924Y-145200
X94464Y-145200
T5
X74000Y-121000
X74000Y-123790
X74000Y-126460
X74000Y-129250
X76540Y-119600
X76540Y-122390
X76540Y-125190
X76540Y-127860
X76540Y-130650
X102600Y-107110
X102600Y-109780
X102600Y-112570
X102600Y-115240
X102600Y-118030
X105390Y-108380
X105390Y-111170
X105390Y-113840
X105390Y-116640
T6
X70460Y-146000
X73000Y-146000
X75540Y-146000
X99920Y-146000
X102460Y-146000
X105000Y-146000
X107540Y-146000
T7
X74000Y-112360
X74000Y-137760
X104000Y-100000
X104000Y-125020
T0
M30
