<?xml version="1.0" standalone="no"?>
 <!DOCTYPE svg PUBLIC "-//W3C//DTD SVG 1.1//EN" 
 "http://www.w3.org/Graphics/SVG/1.1/DTD/svg11.dtd"> 
<svg xmlns="http://www.w3.org/2000/svg" version="1.1" 
    width="29.7002cm" height="21.0007cm" viewBox="0 0 116930 82680 ">
<title>SVG Picture created as bpi-r1-can-ser-F.SilkS.svg date 2018/03/09 06:20:50 </title>
  <desc>Picture generated by PCBNEW </desc>
<g style="fill:#000000; fill-opacity:1;stroke:#000000; stroke-opacity:1;
stroke-linecap:round; stroke-linejoin:round; "
 transform="translate(0 0) scale(1 1)">
</g>
<g style="fill:#000000; fill-opacity:0.0; 
stroke:#000000; stroke-width:-0.000393701; stroke-opacity:1; 
stroke-linecap:round; stroke-linejoin:round;">
</g>
<g style="fill:#000000; fill-opacity:0.0; 
stroke:#000000; stroke-width:39.3701; stroke-opacity:1; 
stroke-linecap:round; stroke-linejoin:round;">
</g>
<g style="fill:#000000; fill-opacity:0.0; 
stroke:#000000; stroke-width:59.0551; stroke-opacity:1; 
stroke-linecap:round; stroke-linejoin:round;">
<rect x="69685.9" y="65357.2" width="42519.7" height="12598.4" rx="0" />
</g>
<g style="fill:#000000; fill-opacity:0.0; 
stroke:#000000; stroke-width:39.3701; stroke-opacity:1; 
stroke-linecap:round; stroke-linejoin:round;">
</g>
<g style="fill:#000000; fill-opacity:0.0; 
stroke:#000000; stroke-width:59.0551; stroke-opacity:1; 
stroke-linecap:round; stroke-linejoin:round;">
<rect x="3937.01" y="3937.01" width="109056" height="74806" rx="0" />
</g>
<g style="fill:#000000; fill-opacity:0.0; 
stroke:#000000; stroke-width:39.3701; stroke-opacity:1; 
stroke-linecap:round; stroke-linejoin:round;">
</g>
<g style="fill:#000000; fill-opacity:0.0; 
stroke:#000000; stroke-width:59.0551; stroke-opacity:1; 
stroke-linecap:round; stroke-linejoin:round;">
<rect x="4724.41" y="4724.41" width="107481" height="73231.2" rx="0" />
</g>
<g style="fill:#000000; fill-opacity:0.0; 
stroke:#000000; stroke-width:39.3701; stroke-opacity:1; 
stroke-linecap:round; stroke-linejoin:round;">
</g>
<g style="fill:#000000; fill-opacity:0.0; 
stroke:#000000; stroke-width:59.0551; stroke-opacity:1; 
stroke-linecap:round; stroke-linejoin:round;">
<path d="M23622 4724
L23622 3937
" />
</g>
<g style="fill:#000000; fill-opacity:0.0; 
stroke:#000000; stroke-width:39.3701; stroke-opacity:1; 
stroke-linecap:round; stroke-linejoin:round;">
</g>
<g style="fill:#000000; fill-opacity:0.0; 
stroke:#000000; stroke-width:59.0551; stroke-opacity:1; 
stroke-linecap:round; stroke-linejoin:round;">
<path d="M43307 4724
L43307 3937
" />
</g>
<g style="fill:#000000; fill-opacity:0.0; 
stroke:#000000; stroke-width:39.3701; stroke-opacity:1; 
stroke-linecap:round; stroke-linejoin:round;">
</g>
<g style="fill:#000000; fill-opacity:0.0; 
stroke:#000000; stroke-width:59.0551; stroke-opacity:1; 
stroke-linecap:round; stroke-linejoin:round;">
<path d="M62992 4724
L62992 3937
" />
</g>
<g style="fill:#000000; fill-opacity:0.0; 
stroke:#000000; stroke-width:39.3701; stroke-opacity:1; 
stroke-linecap:round; stroke-linejoin:round;">
</g>
<g style="fill:#000000; fill-opacity:0.0; 
stroke:#000000; stroke-width:59.0551; stroke-opacity:1; 
stroke-linecap:round; stroke-linejoin:round;">
<path d="M82677 4724
L82677 3937
" />
</g>
<g style="fill:#000000; fill-opacity:0.0; 
stroke:#000000; stroke-width:39.3701; stroke-opacity:1; 
stroke-linecap:round; stroke-linejoin:round;">
</g>
<g style="fill:#000000; fill-opacity:0.0; 
stroke:#000000; stroke-width:59.0551; stroke-opacity:1; 
stroke-linecap:round; stroke-linejoin:round;">
<path d="M102362 4724
L102362 3937
" />
</g>
<g style="fill:#000000; fill-opacity:0.0; 
stroke:#000000; stroke-width:39.3701; stroke-opacity:1; 
stroke-linecap:round; stroke-linejoin:round;">
</g>
<g style="fill:#000000; fill-opacity:0.0; 
stroke:#000000; stroke-width:59.0551; stroke-opacity:1; 
stroke-linecap:round; stroke-linejoin:round;">
<path d="M14169 4562
L13877 4562
" />
<path d="M14023 4562
L14023 4050
L13974 4123
L13925 4172
L13877 4196
" />
</g>
<g style="fill:#000000; fill-opacity:0.0; 
stroke:#000000; stroke-width:39.3701; stroke-opacity:1; 
stroke-linecap:round; stroke-linejoin:round;">
</g>
<g style="fill:#000000; fill-opacity:0.0; 
stroke:#000000; stroke-width:59.0551; stroke-opacity:1; 
stroke-linecap:round; stroke-linejoin:round;">
<path d="M33562 4099
L33586 4074
L33635 4050
L33757 4050
L33805 4074
L33830 4099
L33854 4147
L33854 4196
L33830 4269
L33537 4562
L33854 4562
" />
</g>
<g style="fill:#000000; fill-opacity:0.0; 
stroke:#000000; stroke-width:39.3701; stroke-opacity:1; 
stroke-linecap:round; stroke-linejoin:round;">
</g>
<g style="fill:#000000; fill-opacity:0.0; 
stroke:#000000; stroke-width:59.0551; stroke-opacity:1; 
stroke-linecap:round; stroke-linejoin:round;">
<path d="M53222 4050
L53539 4050
L53368 4245
L53442 4245
L53490 4269
L53515 4294
L53539 4342
L53539 4464
L53515 4513
L53490 4537
L53442 4562
L53295 4562
L53247 4537
L53222 4513
" />
</g>
<g style="fill:#000000; fill-opacity:0.0; 
stroke:#000000; stroke-width:39.3701; stroke-opacity:1; 
stroke-linecap:round; stroke-linejoin:round;">
</g>
<g style="fill:#000000; fill-opacity:0.0; 
stroke:#000000; stroke-width:59.0551; stroke-opacity:1; 
stroke-linecap:round; stroke-linejoin:round;">
<path d="M73175 4221
L73175 4562
" />
<path d="M73053 4026
L72932 4391
L73248 4391
" />
</g>
<g style="fill:#000000; fill-opacity:0.0; 
stroke:#000000; stroke-width:39.3701; stroke-opacity:1; 
stroke-linecap:round; stroke-linejoin:round;">
</g>
<g style="fill:#000000; fill-opacity:0.0; 
stroke:#000000; stroke-width:59.0551; stroke-opacity:1; 
stroke-linecap:round; stroke-linejoin:round;">
<path d="M92885 4050
L92641 4050
L92617 4294
L92641 4269
L92690 4245
L92812 4245
L92860 4269
L92885 4294
L92909 4342
L92909 4464
L92885 4513
L92860 4537
L92812 4562
L92690 4562
L92641 4537
L92617 4513
" />
</g>
<g style="fill:#000000; fill-opacity:0.0; 
stroke:#000000; stroke-width:39.3701; stroke-opacity:1; 
stroke-linecap:round; stroke-linejoin:round;">
</g>
<g style="fill:#000000; fill-opacity:0.0; 
stroke:#000000; stroke-width:59.0551; stroke-opacity:1; 
stroke-linecap:round; stroke-linejoin:round;">
<path d="M112545 4050
L112448 4050
L112399 4074
L112375 4099
L112326 4172
L112302 4269
L112302 4464
L112326 4513
L112350 4537
L112399 4562
L112497 4562
L112545 4537
L112570 4513
L112594 4464
L112594 4342
L112570 4294
L112545 4269
L112497 4245
L112399 4245
L112350 4269
L112326 4294
L112302 4342
" />
</g>
<g style="fill:#000000; fill-opacity:0.0; 
stroke:#000000; stroke-width:39.3701; stroke-opacity:1; 
stroke-linecap:round; stroke-linejoin:round;">
</g>
<g style="fill:#000000; fill-opacity:0.0; 
stroke:#000000; stroke-width:59.0551; stroke-opacity:1; 
stroke-linecap:round; stroke-linejoin:round;">
<path d="M23622 77955
L23622 78742
" />
</g>
<g style="fill:#000000; fill-opacity:0.0; 
stroke:#000000; stroke-width:39.3701; stroke-opacity:1; 
stroke-linecap:round; stroke-linejoin:round;">
</g>
<g style="fill:#000000; fill-opacity:0.0; 
stroke:#000000; stroke-width:59.0551; stroke-opacity:1; 
stroke-linecap:round; stroke-linejoin:round;">
<path d="M43307 77955
L43307 78742
" />
</g>
<g style="fill:#000000; fill-opacity:0.0; 
stroke:#000000; stroke-width:39.3701; stroke-opacity:1; 
stroke-linecap:round; stroke-linejoin:round;">
</g>
<g style="fill:#000000; fill-opacity:0.0; 
stroke:#000000; stroke-width:59.0551; stroke-opacity:1; 
stroke-linecap:round; stroke-linejoin:round;">
<path d="M62992 77955
L62992 78742
" />
</g>
<g style="fill:#000000; fill-opacity:0.0; 
stroke:#000000; stroke-width:39.3701; stroke-opacity:1; 
stroke-linecap:round; stroke-linejoin:round;">
</g>
<g style="fill:#000000; fill-opacity:0.0; 
stroke:#000000; stroke-width:59.0551; stroke-opacity:1; 
stroke-linecap:round; stroke-linejoin:round;">
<path d="M82677 77955
L82677 78742
" />
</g>
<g style="fill:#000000; fill-opacity:0.0; 
stroke:#000000; stroke-width:39.3701; stroke-opacity:1; 
stroke-linecap:round; stroke-linejoin:round;">
</g>
<g style="fill:#000000; fill-opacity:0.0; 
stroke:#000000; stroke-width:59.0551; stroke-opacity:1; 
stroke-linecap:round; stroke-linejoin:round;">
<path d="M102362 77955
L102362 78742
" />
</g>
<g style="fill:#000000; fill-opacity:0.0; 
stroke:#000000; stroke-width:39.3701; stroke-opacity:1; 
stroke-linecap:round; stroke-linejoin:round;">
</g>
<g style="fill:#000000; fill-opacity:0.0; 
stroke:#000000; stroke-width:59.0551; stroke-opacity:1; 
stroke-linecap:round; stroke-linejoin:round;">
<path d="M14169 78580
L13877 78580
" />
<path d="M14023 78580
L14023 78069
L13974 78142
L13925 78190
L13877 78215
" />
</g>
<g style="fill:#000000; fill-opacity:0.0; 
stroke:#000000; stroke-width:39.3701; stroke-opacity:1; 
stroke-linecap:round; stroke-linejoin:round;">
</g>
<g style="fill:#000000; fill-opacity:0.0; 
stroke:#000000; stroke-width:59.0551; stroke-opacity:1; 
stroke-linecap:round; stroke-linejoin:round;">
<path d="M33562 78117
L33586 78093
L33635 78069
L33757 78069
L33805 78093
L33830 78117
L33854 78166
L33854 78215
L33830 78288
L33537 78580
L33854 78580
" />
</g>
<g style="fill:#000000; fill-opacity:0.0; 
stroke:#000000; stroke-width:39.3701; stroke-opacity:1; 
stroke-linecap:round; stroke-linejoin:round;">
</g>
<g style="fill:#000000; fill-opacity:0.0; 
stroke:#000000; stroke-width:59.0551; stroke-opacity:1; 
stroke-linecap:round; stroke-linejoin:round;">
<path d="M53222 78069
L53539 78069
L53368 78263
L53442 78263
L53490 78288
L53515 78312
L53539 78361
L53539 78483
L53515 78532
L53490 78556
L53442 78580
L53295 78580
L53247 78556
L53222 78532
" />
</g>
<g style="fill:#000000; fill-opacity:0.0; 
stroke:#000000; stroke-width:39.3701; stroke-opacity:1; 
stroke-linecap:round; stroke-linejoin:round;">
</g>
<g style="fill:#000000; fill-opacity:0.0; 
stroke:#000000; stroke-width:59.0551; stroke-opacity:1; 
stroke-linecap:round; stroke-linejoin:round;">
<path d="M73175 78239
L73175 78580
" />
<path d="M73053 78044
L72932 78410
L73248 78410
" />
</g>
<g style="fill:#000000; fill-opacity:0.0; 
stroke:#000000; stroke-width:39.3701; stroke-opacity:1; 
stroke-linecap:round; stroke-linejoin:round;">
</g>
<g style="fill:#000000; fill-opacity:0.0; 
stroke:#000000; stroke-width:59.0551; stroke-opacity:1; 
stroke-linecap:round; stroke-linejoin:round;">
<path d="M92885 78069
L92641 78069
L92617 78312
L92641 78288
L92690 78263
L92812 78263
L92860 78288
L92885 78312
L92909 78361
L92909 78483
L92885 78532
L92860 78556
L92812 78580
L92690 78580
L92641 78556
L92617 78532
" />
</g>
<g style="fill:#000000; fill-opacity:0.0; 
stroke:#000000; stroke-width:39.3701; stroke-opacity:1; 
stroke-linecap:round; stroke-linejoin:round;">
</g>
<g style="fill:#000000; fill-opacity:0.0; 
stroke:#000000; stroke-width:59.0551; stroke-opacity:1; 
stroke-linecap:round; stroke-linejoin:round;">
<path d="M112545 78069
L112448 78069
L112399 78093
L112375 78117
L112326 78190
L112302 78288
L112302 78483
L112326 78532
L112350 78556
L112399 78580
L112497 78580
L112545 78556
L112570 78532
L112594 78483
L112594 78361
L112570 78312
L112545 78288
L112497 78263
L112399 78263
L112350 78288
L112326 78312
L112302 78361
" />
</g>
<g style="fill:#000000; fill-opacity:0.0; 
stroke:#000000; stroke-width:39.3701; stroke-opacity:1; 
stroke-linecap:round; stroke-linejoin:round;">
</g>
<g style="fill:#000000; fill-opacity:0.0; 
stroke:#000000; stroke-width:59.0551; stroke-opacity:1; 
stroke-linecap:round; stroke-linejoin:round;">
<path d="M3937 23622
L4724 23622
" />
</g>
<g style="fill:#000000; fill-opacity:0.0; 
stroke:#000000; stroke-width:39.3701; stroke-opacity:1; 
stroke-linecap:round; stroke-linejoin:round;">
</g>
<g style="fill:#000000; fill-opacity:0.0; 
stroke:#000000; stroke-width:59.0551; stroke-opacity:1; 
stroke-linecap:round; stroke-linejoin:round;">
<path d="M3937 43307
L4724 43307
" />
</g>
<g style="fill:#000000; fill-opacity:0.0; 
stroke:#000000; stroke-width:39.3701; stroke-opacity:1; 
stroke-linecap:round; stroke-linejoin:round;">
</g>
<g style="fill:#000000; fill-opacity:0.0; 
stroke:#000000; stroke-width:59.0551; stroke-opacity:1; 
stroke-linecap:round; stroke-linejoin:round;">
<path d="M3937 62992
L4724 62992
" />
</g>
<g style="fill:#000000; fill-opacity:0.0; 
stroke:#000000; stroke-width:39.3701; stroke-opacity:1; 
stroke-linecap:round; stroke-linejoin:round;">
</g>
<g style="fill:#000000; fill-opacity:0.0; 
stroke:#000000; stroke-width:59.0551; stroke-opacity:1; 
stroke-linecap:round; stroke-linejoin:round;">
<path d="M4208 13864
L4452 13864
" />
<path d="M4160 14011
L4330 13499
L4501 14011
" />
</g>
<g style="fill:#000000; fill-opacity:0.0; 
stroke:#000000; stroke-width:39.3701; stroke-opacity:1; 
stroke-linecap:round; stroke-linejoin:round;">
</g>
<g style="fill:#000000; fill-opacity:0.0; 
stroke:#000000; stroke-width:59.0551; stroke-opacity:1; 
stroke-linecap:round; stroke-linejoin:round;">
<path d="M4367 33428
L4440 33452
L4464 33476
L4489 33525
L4489 33598
L4464 33647
L4440 33671
L4391 33696
L4196 33696
L4196 33184
L4367 33184
L4416 33208
L4440 33233
L4464 33281
L4464 33330
L4440 33379
L4416 33403
L4367 33428
L4196 33428
" />
</g>
<g style="fill:#000000; fill-opacity:0.0; 
stroke:#000000; stroke-width:39.3701; stroke-opacity:1; 
stroke-linecap:round; stroke-linejoin:round;">
</g>
<g style="fill:#000000; fill-opacity:0.0; 
stroke:#000000; stroke-width:59.0551; stroke-opacity:1; 
stroke-linecap:round; stroke-linejoin:round;">
<path d="M4489 53332
L4464 53356
L4391 53381
L4342 53381
L4269 53356
L4221 53308
L4196 53259
L4172 53161
L4172 53088
L4196 52991
L4221 52942
L4269 52893
L4342 52869
L4391 52869
L4464 52893
L4489 52918
" />
</g>
<g style="fill:#000000; fill-opacity:0.0; 
stroke:#000000; stroke-width:39.3701; stroke-opacity:1; 
stroke-linecap:round; stroke-linejoin:round;">
</g>
<g style="fill:#000000; fill-opacity:0.0; 
stroke:#000000; stroke-width:59.0551; stroke-opacity:1; 
stroke-linecap:round; stroke-linejoin:round;">
<path d="M4196 73066
L4196 72554
L4318 72554
L4391 72578
L4440 72627
L4464 72676
L4489 72773
L4489 72846
L4464 72944
L4440 72993
L4391 73041
L4318 73066
L4196 73066
" />
</g>
<g style="fill:#000000; fill-opacity:0.0; 
stroke:#000000; stroke-width:39.3701; stroke-opacity:1; 
stroke-linecap:round; stroke-linejoin:round;">
</g>
<g style="fill:#000000; fill-opacity:0.0; 
stroke:#000000; stroke-width:59.0551; stroke-opacity:1; 
stroke-linecap:round; stroke-linejoin:round;">
<path d="M112992 23622
L112205 23622
" />
</g>
<g style="fill:#000000; fill-opacity:0.0; 
stroke:#000000; stroke-width:39.3701; stroke-opacity:1; 
stroke-linecap:round; stroke-linejoin:round;">
</g>
<g style="fill:#000000; fill-opacity:0.0; 
stroke:#000000; stroke-width:59.0551; stroke-opacity:1; 
stroke-linecap:round; stroke-linejoin:round;">
<path d="M112992 43307
L112205 43307
" />
</g>
<g style="fill:#000000; fill-opacity:0.0; 
stroke:#000000; stroke-width:39.3701; stroke-opacity:1; 
stroke-linecap:round; stroke-linejoin:round;">
</g>
<g style="fill:#000000; fill-opacity:0.0; 
stroke:#000000; stroke-width:59.0551; stroke-opacity:1; 
stroke-linecap:round; stroke-linejoin:round;">
<path d="M112992 62992
L112205 62992
" />
</g>
<g style="fill:#000000; fill-opacity:0.0; 
stroke:#000000; stroke-width:39.3701; stroke-opacity:1; 
stroke-linecap:round; stroke-linejoin:round;">
</g>
<g style="fill:#000000; fill-opacity:0.0; 
stroke:#000000; stroke-width:59.0551; stroke-opacity:1; 
stroke-linecap:round; stroke-linejoin:round;">
<path d="M112477 13864
L112721 13864
" />
<path d="M112428 14011
L112599 13499
L112769 14011
" />
</g>
<g style="fill:#000000; fill-opacity:0.0; 
stroke:#000000; stroke-width:39.3701; stroke-opacity:1; 
stroke-linecap:round; stroke-linejoin:round;">
</g>
<g style="fill:#000000; fill-opacity:0.0; 
stroke:#000000; stroke-width:59.0551; stroke-opacity:1; 
stroke-linecap:round; stroke-linejoin:round;">
<path d="M112635 33428
L112708 33452
L112733 33476
L112757 33525
L112757 33598
L112733 33647
L112708 33671
L112660 33696
L112465 33696
L112465 33184
L112635 33184
L112684 33208
L112708 33233
L112733 33281
L112733 33330
L112708 33379
L112684 33403
L112635 33428
L112465 33428
" />
</g>
<g style="fill:#000000; fill-opacity:0.0; 
stroke:#000000; stroke-width:39.3701; stroke-opacity:1; 
stroke-linecap:round; stroke-linejoin:round;">
</g>
<g style="fill:#000000; fill-opacity:0.0; 
stroke:#000000; stroke-width:59.0551; stroke-opacity:1; 
stroke-linecap:round; stroke-linejoin:round;">
<path d="M112757 53332
L112733 53356
L112660 53381
L112611 53381
L112538 53356
L112489 53308
L112465 53259
L112440 53161
L112440 53088
L112465 52991
L112489 52942
L112538 52893
L112611 52869
L112660 52869
L112733 52893
L112757 52918
" />
</g>
<g style="fill:#000000; fill-opacity:0.0; 
stroke:#000000; stroke-width:39.3701; stroke-opacity:1; 
stroke-linecap:round; stroke-linejoin:round;">
</g>
<g style="fill:#000000; fill-opacity:0.0; 
stroke:#000000; stroke-width:59.0551; stroke-opacity:1; 
stroke-linecap:round; stroke-linejoin:round;">
<path d="M112465 73066
L112465 72554
L112587 72554
L112660 72578
L112708 72627
L112733 72676
L112757 72773
L112757 72846
L112733 72944
L112708 72993
L112660 73041
L112587 73066
L112465 73066
" />
</g>
<g style="fill:#000000; fill-opacity:0.0; 
stroke:#000000; stroke-width:39.3701; stroke-opacity:1; 
stroke-linecap:round; stroke-linejoin:round;">
</g>
<g style="fill:#000000; fill-opacity:0.0; 
stroke:#000000; stroke-width:59.0551; stroke-opacity:1; 
stroke-linecap:round; stroke-linejoin:round;">
<path d="M78881 76293
L78881 75703
L79022 75703
L79106 75731
L79162 75787
L79190 75843
L79219 75956
L79219 76040
L79190 76153
L79162 76209
L79106 76265
L79022 76293
L78881 76293
" />
<path d="M79725 76293
L79725 75984
L79697 75928
L79640 75899
L79528 75899
L79472 75928
" />
<path d="M79725 76265
L79669 76293
L79528 76293
L79472 76265
L79444 76209
L79444 76153
L79472 76096
L79528 76068
L79669 76068
L79725 76040
" />
<path d="M79922 75899
L80147 75899
" />
<path d="M80006 75703
L80006 76209
L80034 76265
L80090 76293
L80147 76293
" />
<path d="M80568 76265
L80512 76293
L80400 76293
L80343 76265
L80315 76209
L80315 75984
L80343 75928
L80400 75899
L80512 75899
L80568 75928
L80597 75984
L80597 76040
L80315 76096
" />
<path d="M80850 76237
L80878 76265
L80850 76293
L80822 76265
L80850 76237
L80850 76293
" />
<path d="M80850 75928
L80878 75956
L80850 75984
L80822 75956
L80850 75928
L80850 75984
" />
</g>
<g style="fill:#000000; fill-opacity:0.0; 
stroke:#000000; stroke-width:39.3701; stroke-opacity:1; 
stroke-linecap:round; stroke-linejoin:round;">
</g>
<g style="fill:#000000; fill-opacity:0.0; 
stroke:#000000; stroke-width:59.0551; stroke-opacity:1; 
stroke-linecap:round; stroke-linejoin:round;">
<path d="M69685 76577
L112205 76577
" />
</g>
<g style="fill:#000000; fill-opacity:0.0; 
stroke:#000000; stroke-width:39.3701; stroke-opacity:1; 
stroke-linecap:round; stroke-linejoin:round;">
</g>
<g style="fill:#000000; fill-opacity:0.0; 
stroke:#000000; stroke-width:59.0551; stroke-opacity:1; 
stroke-linecap:round; stroke-linejoin:round;">
<path d="M70220 77395
L70220 76805
" />
<path d="M70557 77395
L70304 77058
" />
<path d="M70557 76805
L70220 77142
" />
<path d="M70810 77395
L70810 77002
" />
<path d="M70810 76805
L70782 76833
L70810 76861
L70838 76833
L70810 76805
L70810 76861
" />
<path d="M71429 77339
L71401 77367
L71316 77395
L71260 77395
L71176 77367
L71120 77311
L71091 77255
L71063 77142
L71063 77058
L71091 76946
L71120 76889
L71176 76833
L71260 76805
L71316 76805
L71401 76833
L71429 76861
" />
<path d="M71935 77395
L71935 77086
L71907 77030
L71851 77002
L71738 77002
L71682 77030
" />
<path d="M71935 77367
L71879 77395
L71738 77395
L71682 77367
L71654 77311
L71654 77255
L71682 77199
L71738 77171
L71879 77171
L71935 77142
" />
<path d="M72469 77395
L72469 76805
" />
<path d="M72469 77367
L72413 77395
L72301 77395
L72244 77367
L72216 77339
L72188 77283
L72188 77114
L72216 77058
L72244 77030
L72301 77002
L72413 77002
L72469 77030
" />
<path d="M73201 77086
L73397 77086
" />
<path d="M73482 77395
L73201 77395
L73201 76805
L73482 76805
" />
<path d="M73735 77339
L73763 77367
L73735 77395
L73707 77367
L73735 77339
L73735 77395
" />
<path d="M74016 77395
L74016 76805
L74157 76805
L74241 76833
L74297 76889
L74325 76946
L74354 77058
L74354 77142
L74325 77255
L74297 77311
L74241 77367
L74157 77395
L74016 77395
" />
<path d="M74607 77339
L74635 77367
L74607 77395
L74579 77367
L74607 77339
L74607 77395
" />
<path d="M74860 77227
L75141 77227
" />
<path d="M74804 77395
L75000 76805
L75197 77395
" />
<path d="M75394 77339
L75422 77367
L75394 77395
L75366 77367
L75394 77339
L75394 77395
" />
<path d="M76575 77395
L76575 76805
" />
<path d="M76631 77171
L76800 77395
" />
<path d="M76800 77002
L76575 77227
" />
<path d="M77053 77395
L77053 77002
" />
<path d="M77053 76805
L77025 76833
L77053 76861
L77081 76833
L77053 76805
L77053 76861
" />
<path d="M77588 77367
L77531 77395
L77419 77395
L77363 77367
L77334 77339
L77306 77283
L77306 77114
L77334 77058
L77363 77030
L77419 77002
L77531 77002
L77588 77030
" />
<path d="M78094 77395
L78094 77086
L78066 77030
L78009 77002
L77897 77002
L77841 77030
" />
<path d="M78094 77367
L78037 77395
L77897 77395
L77841 77367
L77813 77311
L77813 77255
L77841 77199
L77897 77171
L78037 77171
L78094 77142
" />
<path d="M78628 77395
L78628 76805
" />
<path d="M78628 77367
L78572 77395
L78459 77395
L78403 77367
L78375 77339
L78347 77283
L78347 77114
L78375 77058
L78403 77030
L78459 77002
L78572 77002
L78628 77030
" />
<path d="M79612 77002
L79612 77395
" />
<path d="M79472 76777
L79331 77199
L79697 77199
" />
<path d="M79922 77339
L79950 77367
L79922 77395
L79894 77367
L79922 77339
L79922 77395
" />
<path d="M80315 76805
L80372 76805
L80428 76833
L80456 76861
L80484 76917
L80512 77030
L80512 77171
L80484 77283
L80456 77339
L80428 77367
L80372 77395
L80315 77395
L80259 77367
L80231 77339
L80203 77283
L80175 77171
L80175 77030
L80203 76917
L80231 76861
L80259 76833
L80315 76805
" />
<path d="M80765 77339
L80793 77367
L80765 77395
L80737 77367
L80765 77339
L80765 77395
" />
<path d="M80990 76805
L81384 76805
L81131 77395
" />
</g>
<g style="fill:#000000; fill-opacity:0.0; 
stroke:#000000; stroke-width:39.3701; stroke-opacity:1; 
stroke-linecap:round; stroke-linejoin:round;">
</g>
<g style="fill:#000000; fill-opacity:0.0; 
stroke:#000000; stroke-width:59.0551; stroke-opacity:1; 
stroke-linecap:round; stroke-linejoin:round;">
<path d="M69685 75396
L112205 75396
" />
</g>
<g style="fill:#000000; fill-opacity:0.0; 
stroke:#000000; stroke-width:39.3701; stroke-opacity:1; 
stroke-linecap:round; stroke-linejoin:round;">
</g>
<g style="fill:#000000; fill-opacity:0.0; 
stroke:#000000; stroke-width:118.11; stroke-opacity:1; 
stroke-linecap:round; stroke-linejoin:round;">
<path d="M104022 76293
L103825 76012
" />
<path d="M103684 76293
L103684 75703
L103909 75703
L103965 75731
L103994 75759
L104022 75815
L104022 75899
L103994 75956
L103965 75984
L103909 76012
L103684 76012
" />
<path d="M104500 76265
L104444 76293
L104331 76293
L104275 76265
L104247 76209
L104247 75984
L104275 75928
L104331 75899
L104444 75899
L104500 75928
L104528 75984
L104528 76040
L104247 76096
" />
<path d="M104725 75899
L104865 76293
L105006 75899
" />
<path d="M105231 76237
L105259 76265
L105231 76293
L105203 76265
L105231 76237
L105231 76293
" />
<path d="M105231 75928
L105259 75956
L105231 75984
L105203 75956
L105231 75928
L105231 75984
" />
</g>
<g style="fill:#000000; fill-opacity:0.0; 
stroke:#000000; stroke-width:39.3701; stroke-opacity:1; 
stroke-linecap:round; stroke-linejoin:round;">
</g>
<g style="fill:#000000; fill-opacity:0.0; 
stroke:#000000; stroke-width:59.0551; stroke-opacity:1; 
stroke-linecap:round; stroke-linejoin:round;">
<path d="M70192 76265
L70276 76293
L70417 76293
L70473 76265
L70501 76237
L70529 76181
L70529 76124
L70501 76068
L70473 76040
L70417 76012
L70304 75984
L70248 75956
L70220 75928
L70192 75871
L70192 75815
L70220 75759
L70248 75731
L70304 75703
L70445 75703
L70529 75731
" />
<path d="M70782 76293
L70782 75899
" />
<path d="M70782 75703
L70754 75731
L70782 75759
L70810 75731
L70782 75703
L70782 75759
" />
<path d="M71007 75899
L71316 75899
L71007 76293
L71316 76293
" />
<path d="M71766 76265
L71710 76293
L71598 76293
L71541 76265
L71513 76209
L71513 75984
L71541 75928
L71598 75899
L71710 75899
L71766 75928
L71795 75984
L71795 76040
L71513 76096
" />
<path d="M72048 76237
L72076 76265
L72048 76293
L72019 76265
L72048 76237
L72048 76293
" />
<path d="M72048 75928
L72076 75956
L72048 75984
L72019 75956
L72048 75928
L72048 75984
" />
<path d="M72751 76124
L73032 76124
" />
<path d="M72694 76293
L72891 75703
L73088 76293
" />
<path d="M73538 75899
L73538 76293
" />
<path d="M73397 75674
L73257 76096
L73622 76096
" />
</g>
<g style="fill:#000000; fill-opacity:0.0; 
stroke:#000000; stroke-width:39.3701; stroke-opacity:1; 
stroke-linecap:round; stroke-linejoin:round;">
</g>
<g style="fill:#000000; fill-opacity:0.0; 
stroke:#000000; stroke-width:59.0551; stroke-opacity:1; 
stroke-linecap:round; stroke-linejoin:round;">
<path d="M103684 77395
L103684 76805
" />
<path d="M104219 77395
L104219 76805
" />
<path d="M104219 77367
L104162 77395
L104050 77395
L103994 77367
L103965 77339
L103937 77283
L103937 77114
L103965 77058
L103994 77030
L104050 77002
L104162 77002
L104219 77030
" />
<path d="M104500 77339
L104528 77367
L104500 77395
L104472 77367
L104500 77339
L104500 77395
" />
<path d="M104500 77030
L104528 77058
L104500 77086
L104472 77058
L104500 77030
L104500 77086
" />
<path d="M105540 77395
L105203 77395
" />
<path d="M105372 77395
L105372 76805
L105315 76889
L105259 76946
L105203 76974
" />
<path d="M106215 76777
L105709 77536
" />
<path d="M106721 77395
L106384 77395
" />
<path d="M106553 77395
L106553 76805
L106496 76889
L106440 76946
L106384 76974
" />
</g>
<g style="fill:#000000; fill-opacity:0.0; 
stroke:#000000; stroke-width:39.3701; stroke-opacity:1; 
stroke-linecap:round; stroke-linejoin:round;">
</g>
<g style="fill:#000000; fill-opacity:0.0; 
stroke:#000000; stroke-width:59.0551; stroke-opacity:1; 
stroke-linecap:round; stroke-linejoin:round;">
<path d="M69685 73821
L112205 73821
" />
</g>
<g style="fill:#000000; fill-opacity:0.0; 
stroke:#000000; stroke-width:39.3701; stroke-opacity:1; 
stroke-linecap:round; stroke-linejoin:round;">
</g>
<g style="fill:#000000; fill-opacity:0.0; 
stroke:#000000; stroke-width:157.48; stroke-opacity:1; 
stroke-linecap:round; stroke-linejoin:round;">
<path d="M70257 74099
L70707 74099
" />
<path d="M70384 74886
L70482 74099
" />
<path d="M70871 74886
L70937 74361
" />
<path d="M70970 74099
L70927 74136
L70960 74174
L71002 74136
L70970 74099
L70960 74174
" />
<path d="M71199 74361
L71499 74361
" />
<path d="M71345 74099
L71260 74774
L71288 74849
L71359 74886
L71434 74886
" />
<path d="M71809 74886
L71738 74849
L71710 74774
L71795 74099
" />
<path d="M72413 74849
L72334 74886
L72184 74886
L72113 74849
L72085 74774
L72123 74474
L72169 74399
L72249 74361
L72399 74361
L72469 74399
L72498 74474
L72488 74549
L72104 74624
" />
<path d="M72793 74811
L72826 74849
L72783 74886
L72751 74849
L72793 74811
L72783 74886
" />
<path d="M72844 74399
L72877 74436
L72835 74474
L72802 74436
L72844 74399
L72835 74474
" />
</g>
<g style="fill:#000000; fill-opacity:0.0; 
stroke:#000000; stroke-width:39.3701; stroke-opacity:1; 
stroke-linecap:round; stroke-linejoin:round;">
</g>
<g style="fill:#000000; fill-opacity:0.0; 
stroke:#000000; stroke-width:59.0551; stroke-opacity:1; 
stroke-linecap:round; stroke-linejoin:round;">
<path d="M70417 73070
L70220 73070
" />
<path d="M70220 73380
L70220 72789
L70501 72789
" />
<path d="M70726 73380
L70726 72986
" />
<path d="M70726 72789
L70698 72817
L70726 72845
L70754 72817
L70726 72789
L70726 72845
" />
<path d="M71091 73380
L71035 73352
L71007 73295
L71007 72789
" />
<path d="M71541 73352
L71485 73380
L71373 73380
L71316 73352
L71288 73295
L71288 73070
L71316 73014
L71373 72986
L71485 72986
L71541 73014
L71570 73070
L71570 73127
L71288 73183
" />
<path d="M71823 73323
L71851 73352
L71823 73380
L71795 73352
L71823 73323
L71823 73380
" />
<path d="M71823 73014
L71851 73042
L71823 73070
L71795 73042
L71823 73014
L71823 73070
" />
<path d="M72554 73380
L72554 72789
" />
<path d="M72554 73014
L72610 72986
L72723 72986
L72779 73014
L72807 73042
L72835 73099
L72835 73267
L72807 73323
L72779 73352
L72723 73380
L72610 73380
L72554 73352
" />
<path d="M73088 72986
L73088 73577
" />
<path d="M73088 73014
L73144 72986
L73257 72986
L73313 73014
L73341 73042
L73369 73099
L73369 73267
L73341 73323
L73313 73352
L73257 73380
L73144 73380
L73088 73352
" />
<path d="M73622 73380
L73622 72986
" />
<path d="M73622 72789
L73594 72817
L73622 72845
L73651 72817
L73622 72789
L73622 72845
" />
<path d="M73904 73155
L74354 73155
" />
<path d="M74635 73380
L74635 72986
" />
<path d="M74635 73099
L74663 73042
L74691 73014
L74747 72986
L74804 72986
" />
<path d="M75310 73380
L74972 73380
" />
<path d="M75141 73380
L75141 72789
L75085 72874
L75028 72930
L74972 72958
" />
<path d="M75563 73155
L76013 73155
" />
<path d="M76547 73352
L76491 73380
L76378 73380
L76322 73352
L76294 73323
L76266 73267
L76266 73099
L76294 73042
L76322 73014
L76378 72986
L76491 72986
L76547 73014
" />
<path d="M77053 73380
L77053 73070
L77025 73014
L76969 72986
L76856 72986
L76800 73014
" />
<path d="M77053 73352
L76997 73380
L76856 73380
L76800 73352
L76772 73295
L76772 73239
L76800 73183
L76856 73155
L76997 73155
L77053 73127
" />
<path d="M77334 72986
L77334 73380
" />
<path d="M77334 73042
L77363 73014
L77419 72986
L77503 72986
L77559 73014
L77588 73070
L77588 73380
" />
<path d="M77869 73155
L78319 73155
" />
<path d="M78572 73352
L78628 73380
L78741 73380
L78797 73352
L78825 73295
L78825 73267
L78797 73211
L78741 73183
L78656 73183
L78600 73155
L78572 73099
L78572 73070
L78600 73014
L78656 72986
L78741 72986
L78797 73014
" />
<path d="M79303 73352
L79247 73380
L79134 73380
L79078 73352
L79050 73295
L79050 73070
L79078 73014
L79134 72986
L79247 72986
L79303 73014
L79331 73070
L79331 73127
L79050 73183
" />
<path d="M79584 73380
L79584 72986
" />
<path d="M79584 73099
L79612 73042
L79640 73014
L79697 72986
L79753 72986
" />
<path d="M79950 73323
L79978 73352
L79950 73380
L79922 73352
L79950 73323
L79950 73380
" />
<path d="M80231 73380
L80231 72789
" />
<path d="M80287 73155
L80456 73380
" />
<path d="M80456 72986
L80231 73211
" />
<path d="M80709 73380
L80709 72986
" />
<path d="M80709 72789
L80681 72817
L80709 72845
L80737 72817
L80709 72789
L80709 72845
" />
<path d="M81243 73352
L81187 73380
L81075 73380
L81018 73352
L80990 73323
L80962 73267
L80962 73099
L80990 73042
L81018 73014
L81075 72986
L81187 72986
L81243 73014
" />
<path d="M81750 73380
L81750 73070
L81721 73014
L81665 72986
L81553 72986
L81496 73014
" />
<path d="M81750 73352
L81693 73380
L81553 73380
L81496 73352
L81468 73295
L81468 73239
L81496 73183
L81553 73155
L81693 73155
L81750 73127
" />
<path d="M82284 73380
L82284 72789
" />
<path d="M82284 73352
L82228 73380
L82115 73380
L82059 73352
L82031 73323
L82003 73267
L82003 73099
L82031 73042
L82059 73014
L82115 72986
L82228 72986
L82284 73014
" />
<path d="M82424 73436
L82874 73436
" />
<path d="M83015 72986
L83015 73577
" />
<path d="M83015 73014
L83071 72986
L83184 72986
L83240 73014
L83268 73042
L83296 73099
L83296 73267
L83268 73323
L83240 73352
L83184 73380
L83071 73380
L83015 73352
" />
<path d="M83802 73352
L83746 73380
L83634 73380
L83577 73352
L83549 73323
L83521 73267
L83521 73099
L83549 73042
L83577 73014
L83634 72986
L83746 72986
L83802 73014
" />
<path d="M84055 73380
L84055 72789
" />
<path d="M84055 73014
L84112 72986
L84224 72986
L84280 73014
L84309 73042
L84337 73099
L84337 73267
L84309 73323
L84280 73352
L84224 73380
L84112 73380
L84055 73352
" />
</g>
<g style="fill:#000000; fill-opacity:0.0; 
stroke:#000000; stroke-width:39.3701; stroke-opacity:1; 
stroke-linecap:round; stroke-linejoin:round;">
</g>
<g style="fill:#000000; fill-opacity:0.0; 
stroke:#000000; stroke-width:59.0551; stroke-opacity:1; 
stroke-linecap:round; stroke-linejoin:round;">
<path d="M69685 71459
L112205 71459
" />
</g>
<g style="fill:#000000; fill-opacity:0.0; 
stroke:#000000; stroke-width:39.3701; stroke-opacity:1; 
stroke-linecap:round; stroke-linejoin:round;">
</g>
<g style="fill:#000000; fill-opacity:0.0; 
stroke:#000000; stroke-width:59.0551; stroke-opacity:1; 
stroke-linecap:round; stroke-linejoin:round;">
<path d="M70192 72289
L70276 72317
L70417 72317
L70473 72289
L70501 72260
L70529 72204
L70529 72148
L70501 72092
L70473 72064
L70417 72036
L70304 72007
L70248 71979
L70220 71951
L70192 71895
L70192 71839
L70220 71782
L70248 71754
L70304 71726
L70445 71726
L70529 71754
" />
<path d="M70782 72317
L70782 71726
" />
<path d="M71035 72317
L71035 72007
L71007 71951
L70951 71923
L70867 71923
L70810 71951
L70782 71979
" />
<path d="M71541 72289
L71485 72317
L71373 72317
L71316 72289
L71288 72232
L71288 72007
L71316 71951
L71373 71923
L71485 71923
L71541 71951
L71570 72007
L71570 72064
L71288 72120
" />
<path d="M72048 72289
L71991 72317
L71879 72317
L71823 72289
L71795 72232
L71795 72007
L71823 71951
L71879 71923
L71991 71923
L72048 71951
L72076 72007
L72076 72064
L71795 72120
" />
<path d="M72244 71923
L72469 71923
" />
<path d="M72329 71726
L72329 72232
L72357 72289
L72413 72317
L72469 72317
" />
<path d="M72666 72260
L72694 72289
L72666 72317
L72638 72289
L72666 72260
L72666 72317
" />
<path d="M72666 71951
L72694 71979
L72666 72007
L72638 71979
L72666 71951
L72666 72007
" />
</g>
<g style="fill:#000000; fill-opacity:0.0; 
stroke:#000000; stroke-width:39.3701; stroke-opacity:1; 
stroke-linecap:round; stroke-linejoin:round;">
</g>
<g style="fill:#000000; fill-opacity:0.0; 
stroke:#000000; stroke-width:59.0551; stroke-opacity:1; 
stroke-linecap:round; stroke-linejoin:round;">
<path d="M77559 75396
L77559 76577
" />
</g>
<g style="fill:#000000; fill-opacity:0.0; 
stroke:#000000; stroke-width:39.3701; stroke-opacity:1; 
stroke-linecap:round; stroke-linejoin:round;">
</g>
<g style="fill:#000000; fill-opacity:0.0; 
stroke:#000000; stroke-width:59.0551; stroke-opacity:1; 
stroke-linecap:round; stroke-linejoin:round;">
<path d="M102756 75396
L102756 77955
" />
</g>
<g style="fill:#000000; fill-opacity:0.0; 
stroke:#000000; stroke-width:78.7402; stroke-opacity:1; 
stroke-linecap:round; stroke-linejoin:round;">
<path d="M31417 27007
L31417 27480
" />
<path d="M31259 27007
L31417 27007
" />
<path d="M31259 27480
L31259 27007
" />
<path d="M31417 27480
L31259 27480
" />
<path d="M28779 26417
L28779 26889
" />
<path d="M28622 26417
L28779 26417
" />
<path d="M28622 26889
L28622 26417
" />
<path d="M28779 26889
L28622 26889
" />
<path d="M37637 44409
L37637 44251
" />
<path d="M38110 44409
L37637 44409
" />
<path d="M38110 44251
L38110 44409
" />
<path d="M37637 44251
L38110 44251
" />
<path d="M38267 45984
L38267 45826
" />
<path d="M38740 45984
L38267 45984
" />
<path d="M38740 45826
L38740 45984
" />
<path d="M38267 45826
L38740 45826
" />
</g>
<g style="fill:#000000; fill-opacity:0.0; 
stroke:#000000; stroke-width:47.2441; stroke-opacity:1; 
stroke-linecap:round; stroke-linejoin:round;">
<path d="M32350 18811
L26350 18811
" />
<path d="M26350 25909
L26354 22370
" />
<path d="M26350 25909
L32350 25909
" />
<path d="M32350 25909
L32350 22366
" />
<path d="M26354 21448
L26350 18811
" />
<path d="M32350 21452
L32350 18811
" />
<path d="M38940 43350
L37437 43350
" />
<path d="M37437 43350
L37437 44051
" />
<path d="M37437 44051
L38940 44051
" />
<path d="M38940 43350
L38940 44051
" />
<path d="M38940 44925
L37437 44925
" />
<path d="M37437 44925
L37437 45625
" />
<path d="M37437 45625
L38940 45625
" />
<path d="M38940 44925
L38940 45625
" />
<path d="M29681 27720
L29681 26216
" />
<path d="M29681 26216
L28980 26216
" />
<path d="M28980 26216
L28980 27720
" />
<path d="M29681 27720
L28980 27720
" />
<path d="M31059 27720
L31059 26216
" />
<path d="M31059 26216
L30358 26216
" />
<path d="M30358 26216
L30358 27720
" />
<path d="M31059 27720
L30358 27720
" />
<path d="M28909 38318
L27885 38318
" />
<path d="M27885 38318
L27885 40366
" />
<path d="M27885 40366
L29933 40366
" />
<path d="M29933 40366
L29933 39342
" />
<path d="M29933 39342
L28909 39342
" />
<path d="M28909 39342
L28909 38318
" />
<path d="M29409 38318
L29933 38318
" />
<path d="M29933 38318
L29933 38842
" />
</g>
<g style="fill:#000000; fill-opacity:0.0; 
stroke:#000000; stroke-width:59.0551; stroke-opacity:1; 
stroke-linecap:round; stroke-linejoin:round;">
<path d="M30354 56260
L27126 56260
" />
<path d="M30354 56417
L27126 56417
" />
<path d="M30354 58504
L27126 58504
" />
<path d="M27126 58700
L30354 58700
" />
<path d="M29252 58504
L29252 58700
" />
<path d="M27205 58700
L27205 58504
" />
<path d="M30276 58504
L30276 58700
" />
<path d="M28229 58700
L28229 58504
" />
<path d="M30354 58700
L30354 56260
" />
<path d="M27127 56260
L27127 58700
" />
<path d="M42925 56260
L38751 56260
" />
<path d="M38751 56417
L42925 56417
" />
<path d="M38751 58504
L42925 58504
" />
<path d="M42925 58700
L38751 58700
" />
<path d="M41821 58504
L41821 58700
" />
<path d="M40838 58504
L40838 58700
" />
<path d="M38831 58700
L38831 58504
" />
<path d="M42846 58504
L42846 58700
" />
<path d="M39855 58700
L39855 58504
" />
<path d="M42924 58700
L42924 56260
" />
<path d="M38753 56260
L38753 58700
" />
<path d="M30029 35403
L30009 35403
" />
<path d="M30029 37037
L29972 37037
" />
<path d="M28001 37037
L28059 37037
" />
<path d="M28001 35403
L28059 35403
" />
<path d="M30029 35403
L30029 37037
" />
<path d="M28001 35403
L28001 37037
" />
<path d="M30009 35403
L30009 34852
" />
</g>
<g style="fill:#000000; fill-opacity:0.0; 
stroke:#000000; stroke-width:47.2441; stroke-opacity:1; 
stroke-linecap:round; stroke-linejoin:round;">
<path d="M42885 53074
L42885 52377
" />
<path d="M42885 52377
L38791 52377
" />
<path d="M38791 52377
L38791 54559
" />
<path d="M38791 54559
L42885 54559
" />
<path d="M42885 54559
L42885 53862
" />
<path d="M42885.8 53074.8 A393.701 393.701 0.0 0 0 42885.8 53862.2 " />
<path d="M23511 55665
L30559 55645
" />
<path d="M30559 55645
L30559 42811
" />
<path d="M30559 42811
L23511 42811
" />
<path d="M23511 42811
L23511 55665
" />
</g>
<g style="fill:#000000; fill-opacity:0.0; 
stroke:#000000; stroke-width:59.0551; stroke-opacity:1; 
stroke-linecap:round; stroke-linejoin:round;">
<path d="M34222 51545
L34222 51555
" />
<path d="M35856 51545
L35856 51586
" />
<path d="M35856 55541
L35856 55500
" />
<path d="M34222 55541
L34222 55500
" />
<path d="M34222 51545
L35856 51545
" />
<path d="M34222 55541
L35856 55541
" />
<path d="M34222 51555
L33681 51555
" />
</g>
<g style="fill:#000000; fill-opacity:0.0; 
stroke:#000000; stroke-width:47.2441; stroke-opacity:1; 
stroke-linecap:round; stroke-linejoin:round;">
<path d="M33307 52125
L33307 52401
" />
<path d="M32834 52401
L32834 52125
" />
<path d="M33307 53405
L33307 53681
" />
<path d="M32834 53681
L32834 53405
" />
<path d="M34901 50826
L35177 50826
" />
<path d="M35177 51299
L34901 51299
" />
<path d="M33307 54665
L33307 54940
" />
<path d="M32834 54940
L32834 54665
" />
<path d="M27834 34637
L27440 34637
" />
<path d="M27440 34102
L27834 34102
" />
<path d="M29527 40755
L30314 40755
" />
<path d="M30314 41921
L29527 41921
" />
<path d="M27559 40755
L28346 40755
" />
<path d="M28346 41921
L27559 41921
" />
<path d="M41850 50755
L42244 50755
" />
<path d="M42244 51291
L41850 51291
" />
<path d="M39271 50755
L39665 50755
" />
<path d="M39665 51291
L39271 51291
" />
<path d="M36377 50885
L36377 50610
" />
<path d="M36850 50610
L36850 50885
" />
<path d="M35748 50885
L35748 50610
" />
<path d="M36220 50610
L36220 50885
" />
<path d="M39645 50267
L39645 38374
" />
<path d="M39645 50267
L42342 50267
" />
<path d="M42342 38374
L39645 38374
" />
<path d="M42342 38374
L42342 50267
" />
<path d="M27322 37145
L27322 36870
" />
<path d="M27795 36870
L27795 37145
" />
<path d="M27429 28535
L27429 30559
" />
<path d="M27429 30559
L28476 30559
" />
<path d="M28476 30559
L28476 28535
" />
<path d="M28476 28535
L27429 28535
" />
<path d="M27429 28035
L27429 27511
" />
<path d="M27429 27511
L27952 27511
" />
<path d="M29102 31094
L29102 33118
" />
<path d="M29102 33118
L31149 33118
" />
<path d="M31149 33118
L31149 30070
" />
<path d="M31149 30070
L30125 30070
" />
<path d="M30125 30070
L30125 31094
" />
<path d="M30125 31094
L29102 31094
" />
<path d="M29102 30594
L29102 30070
" />
<path d="M29102 30070
L29625 30070
" />
</g>
<g style="fill:#000000; fill-opacity:0.0; 
stroke:#000000; stroke-width:59.0551; stroke-opacity:1; 
stroke-linecap:round; stroke-linejoin:round;">
<path d="M28745 19792
L28745 20073
L28727 20129
L28689 20167
L28633 20185
L28595 20185
" />
<path d="M28914 19829
L28933 19811
L28970 19792
L29064 19792
L29101 19811
L29120 19829
L29139 19867
L29139 19904
L29120 19961
L28895 20185
L29139 20185
" />
<path d="M29383 19792
L29420 19792
L29458 19811
L29476 19829
L29495 19867
L29514 19942
L29514 20035
L29495 20110
L29476 20148
L29458 20167
L29420 20185
L29383 20185
L29345 20167
L29326 20148
L29308 20110
L29289 20035
L29289 19942
L29308 19867
L29326 19829
L29345 19811
L29383 19792
" />
<path d="M29664 19829
L29683 19811
L29720 19792
L29814 19792
L29851 19811
L29870 19829
L29889 19867
L29889 19904
L29870 19961
L29645 20185
L29889 20185
" />
<path d="M36029 43485
L36029 43766
L36010 43822
L35973 43860
L35916 43878
L35879 43878
" />
<path d="M36197 43522
L36216 43503
L36254 43485
L36347 43485
L36385 43503
L36404 43522
L36422 43560
L36422 43597
L36404 43653
L36179 43878
L36422 43878
" />
<path d="M36666 43485
L36704 43485
L36741 43503
L36760 43522
L36779 43560
L36797 43635
L36797 43728
L36779 43803
L36760 43841
L36741 43860
L36704 43878
L36666 43878
L36629 43860
L36610 43841
L36591 43803
L36572 43728
L36572 43635
L36591 43560
L36610 43522
L36629 43503
L36666 43485
" />
<path d="M36929 43485
L37172 43485
L37041 43635
L37097 43635
L37135 43653
L37154 43672
L37172 43710
L37172 43803
L37154 43841
L37135 43860
L37097 43878
L36985 43878
L36947 43860
L36929 43841
" />
<path d="M35989 45099
L35989 45380
L35971 45436
L35933 45474
L35877 45493
L35839 45493
" />
<path d="M36158 45136
L36177 45118
L36214 45099
L36308 45099
L36346 45118
L36364 45136
L36383 45174
L36383 45211
L36364 45268
L36139 45493
L36383 45493
" />
<path d="M36627 45099
L36664 45099
L36702 45118
L36721 45136
L36739 45174
L36758 45249
L36758 45343
L36739 45418
L36721 45455
L36702 45474
L36664 45493
L36627 45493
L36589 45474
L36571 45455
L36552 45418
L36533 45343
L36533 45249
L36552 45174
L36571 45136
L36589 45118
L36627 45099
" />
<path d="M37095 45230
L37095 45493
" />
<path d="M37002 45080
L36908 45361
L37152 45361
" />
<path d="M29154 29128
L29435 29128
L29491 29146
L29529 29184
L29548 29240
L29548 29278
" />
<path d="M29191 28959
L29173 28940
L29154 28903
L29154 28809
L29173 28772
L29191 28753
L29229 28734
L29266 28734
L29323 28753
L29548 28978
L29548 28734
" />
<path d="M29154 28490
L29154 28453
L29173 28415
L29191 28397
L29229 28378
L29304 28359
L29398 28359
L29473 28378
L29510 28397
L29529 28415
L29548 28453
L29548 28490
L29529 28528
L29510 28547
L29473 28565
L29398 28584
L29304 28584
L29229 28565
L29191 28547
L29173 28528
L29154 28490
" />
<path d="M29154 28003
L29154 28190
L29341 28209
L29323 28190
L29304 28153
L29304 28059
L29323 28022
L29341 28003
L29379 27984
L29473 27984
L29510 28003
L29529 28022
L29548 28059
L29548 28153
L29529 28190
L29510 28209
" />
<path d="M30532 29128
L30813 29128
L30869 29146
L30907 29184
L30926 29240
L30926 29278
" />
<path d="M30569 28959
L30551 28940
L30532 28903
L30532 28809
L30551 28772
L30569 28753
L30607 28734
L30644 28734
L30701 28753
L30926 28978
L30926 28734
" />
<path d="M30532 28490
L30532 28453
L30551 28415
L30569 28397
L30607 28378
L30682 28359
L30776 28359
L30851 28378
L30888 28397
L30907 28415
L30926 28453
L30926 28490
L30907 28528
L30888 28547
L30851 28565
L30776 28584
L30682 28584
L30607 28565
L30569 28547
L30551 28528
L30532 28490
" />
<path d="M30532 28022
L30532 28097
L30551 28134
L30569 28153
L30626 28190
L30701 28209
L30851 28209
L30888 28190
L30907 28172
L30926 28134
L30926 28059
L30907 28022
L30888 28003
L30851 27984
L30757 27984
L30719 28003
L30701 28022
L30682 28059
L30682 28134
L30701 28172
L30719 28190
L30757 28209
" />
<path d="M30111 39848
L30392 39848
L30448 39867
L30486 39904
L30504 39961
L30504 39998
" />
<path d="M30111 39698
L30111 39455
L30261 39586
L30261 39529
L30279 39492
L30298 39473
L30336 39455
L30429 39455
L30467 39473
L30486 39492
L30504 39529
L30504 39642
L30486 39679
L30467 39698
" />
<path d="M30111 39211
L30111 39173
L30129 39136
L30148 39117
L30186 39098
L30261 39080
L30354 39080
L30429 39098
L30467 39117
L30486 39136
L30504 39173
L30504 39211
L30486 39248
L30467 39267
L30429 39286
L30354 39305
L30261 39305
L30186 39286
L30148 39267
L30129 39248
L30111 39211
" />
<path d="M30504 38705
L30504 38930
" />
<path d="M30504 38817
L30111 38817
L30167 38855
L30204 38892
L30223 38930
" />
<path d="M26556 57986
L26837 57986
L26893 58005
L26931 58042
L26949 58098
L26949 58136
" />
<path d="M26556 57836
L26556 57592
L26706 57724
L26706 57667
L26724 57630
L26743 57611
L26781 57592
L26874 57592
L26912 57611
L26931 57630
L26949 57667
L26949 57780
L26931 57817
L26912 57836
" />
<path d="M26556 57349
L26556 57311
L26574 57274
L26593 57255
L26631 57236
L26706 57217
L26799 57217
L26874 57236
L26912 57255
L26931 57274
L26949 57311
L26949 57349
L26931 57386
L26912 57405
L26874 57424
L26799 57442
L26706 57442
L26631 57424
L26593 57405
L26574 57386
L26556 57349
" />
<path d="M26593 57067
L26574 57049
L26556 57011
L26556 56917
L26574 56880
L26593 56861
L26631 56842
L26668 56842
L26724 56861
L26949 57086
L26949 56842
" />
<path d="M38863 55689
L38863 55971
L38845 56027
L38807 56064
L38751 56083
L38713 56083
" />
<path d="M39220 55821
L39220 56083
" />
<path d="M39126 55671
L39032 55952
L39276 55952
" />
<path d="M39501 55689
L39538 55689
L39576 55708
L39595 55727
L39613 55764
L39632 55839
L39632 55933
L39613 56008
L39595 56046
L39576 56064
L39538 56083
L39501 56083
L39463 56064
L39445 56046
L39426 56008
L39407 55933
L39407 55839
L39426 55764
L39445 55727
L39463 55708
L39501 55689
" />
<path d="M40007 56083
L39782 56083
" />
<path d="M39895 56083
L39895 55689
L39857 55746
L39820 55783
L39782 55802
" />
<path d="M30178 36895
L30496 36895
L30534 36876
L30553 36857
L30571 36820
L30571 36745
L30553 36707
L30534 36689
L30496 36670
L30178 36670
" />
<path d="M30178 36520
L30178 36276
L30328 36407
L30328 36351
L30346 36314
L30365 36295
L30403 36276
L30496 36276
L30534 36295
L30553 36314
L30571 36351
L30571 36464
L30553 36501
L30534 36520
" />
<path d="M30178 36032
L30178 35995
L30196 35958
L30215 35939
L30253 35920
L30328 35901
L30421 35901
L30496 35920
L30534 35939
L30553 35958
L30571 35995
L30571 36032
L30553 36070
L30534 36089
L30496 36107
L30421 36126
L30328 36126
L30253 36107
L30215 36089
L30196 36070
L30178 36032
" />
<path d="M30571 35526
L30571 35751
" />
<path d="M30571 35639
L30178 35639
L30234 35676
L30271 35714
L30290 35751
" />
<path d="M38248 54218
L38567 54218
L38605 54199
L38623 54180
L38642 54143
L38642 54068
L38623 54030
L38605 54011
L38567 53993
L38248 53993
" />
<path d="M38380 53637
L38642 53637
" />
<path d="M38230 53730
L38511 53824
L38511 53580
" />
<path d="M38248 53355
L38248 53318
L38267 53280
L38286 53262
L38323 53243
L38398 53224
L38492 53224
L38567 53243
L38605 53262
L38623 53280
L38642 53318
L38642 53355
L38623 53393
L38605 53412
L38567 53430
L38492 53449
L38398 53449
L38323 53430
L38286 53412
L38267 53393
L38248 53355
" />
<path d="M38642 52849
L38642 53074
" />
<path d="M38642 52962
L38248 52962
L38305 52999
L38342 53037
L38361 53074
" />
<path d="M30815 49793
L31097 49793
L31153 49812
L31190 49849
L31209 49906
L31209 49943
" />
<path d="M30815 49643
L30815 49399
L30965 49531
L30965 49474
L30984 49437
L31003 49418
L31040 49399
L31134 49399
L31172 49418
L31190 49437
L31209 49474
L31209 49587
L31190 49624
L31172 49643
" />
<path d="M30815 49156
L30815 49118
L30834 49081
L30853 49062
L30890 49043
L30965 49024
L31059 49024
L31134 49043
L31172 49062
L31190 49081
L31209 49118
L31209 49156
L31190 49193
L31172 49212
L31134 49231
L31059 49249
L30965 49249
L30890 49231
L30853 49212
L30834 49193
L30815 49156
" />
<path d="M30815 48893
L30815 48649
L30965 48781
L30965 48724
L30984 48687
L31003 48668
L31040 48649
L31134 48649
L31172 48668
L31190 48687
L31209 48724
L31209 48837
L31190 48874
L31172 48893
" />
<path d="M34364 55689
L34364 56008
L34383 56046
L34401 56064
L34439 56083
L34514 56083
L34551 56064
L34570 56046
L34589 56008
L34589 55689
" />
<path d="M34758 55727
L34776 55708
L34814 55689
L34908 55689
L34945 55708
L34964 55727
L34983 55764
L34983 55802
L34964 55858
L34739 56083
L34983 56083
" />
<path d="M35226 55689
L35264 55689
L35301 55708
L35320 55727
L35339 55764
L35358 55839
L35358 55933
L35339 56008
L35320 56046
L35301 56064
L35264 56083
L35226 56083
L35189 56064
L35170 56046
L35151 56008
L35133 55933
L35133 55839
L35151 55764
L35170 55727
L35189 55708
L35226 55689
" />
<path d="M35733 56083
L35508 56083
" />
<path d="M35620 56083
L35620 55689
L35583 55746
L35545 55783
L35508 55802
" />
<path d="M31449 52404
L31430 52423
L31374 52441
L31336 52441
L31280 52423
L31242 52385
L31224 52348
L31205 52273
L31205 52216
L31224 52141
L31242 52104
L31280 52066
L31336 52048
L31374 52048
L31430 52066
L31449 52085
" />
<path d="M31599 52085
L31617 52066
L31655 52048
L31749 52048
L31786 52066
L31805 52085
L31824 52123
L31824 52160
L31805 52216
L31580 52441
L31824 52441
" />
<path d="M32067 52048
L32105 52048
L32142 52066
L32161 52085
L32180 52123
L32199 52198
L32199 52291
L32180 52366
L32161 52404
L32142 52423
L32105 52441
L32067 52441
L32030 52423
L32011 52404
L31992 52366
L31974 52291
L31974 52198
L31992 52123
L32011 52085
L32030 52066
L32067 52048
" />
<path d="M32574 52441
L32349 52441
" />
<path d="M32461 52441
L32461 52048
L32424 52104
L32386 52141
L32349 52160
" />
<path d="M31449 53683
L31430 53702
L31374 53721
L31336 53721
L31280 53702
L31242 53665
L31224 53627
L31205 53552
L31205 53496
L31224 53421
L31242 53383
L31280 53346
L31336 53327
L31374 53327
L31430 53346
L31449 53365
" />
<path d="M31599 53365
L31617 53346
L31655 53327
L31749 53327
L31786 53346
L31805 53365
L31824 53402
L31824 53440
L31805 53496
L31580 53721
L31824 53721
" />
<path d="M32067 53327
L32105 53327
L32142 53346
L32161 53365
L32180 53402
L32199 53477
L32199 53571
L32180 53646
L32161 53683
L32142 53702
L32105 53721
L32067 53721
L32030 53702
L32011 53683
L31992 53646
L31974 53571
L31974 53477
L31992 53402
L32011 53365
L32030 53346
L32067 53327
" />
<path d="M32349 53365
L32367 53346
L32405 53327
L32499 53327
L32536 53346
L32555 53365
L32574 53402
L32574 53440
L32555 53496
L32330 53721
L32574 53721
" />
<path d="M34401 50534
L34383 50553
L34326 50571
L34289 50571
L34233 50553
L34195 50515
L34176 50478
L34158 50403
L34158 50346
L34176 50271
L34195 50234
L34233 50196
L34289 50178
L34326 50178
L34383 50196
L34401 50215
" />
<path d="M34551 50215
L34570 50196
L34608 50178
L34701 50178
L34739 50196
L34758 50215
L34776 50253
L34776 50290
L34758 50346
L34533 50571
L34776 50571
" />
<path d="M35020 50178
L35058 50178
L35095 50196
L35114 50215
L35133 50253
L35151 50328
L35151 50421
L35133 50496
L35114 50534
L35095 50553
L35058 50571
L35020 50571
L34983 50553
L34964 50534
L34945 50496
L34926 50421
L34926 50328
L34945 50253
L34964 50215
L34983 50196
L35020 50178
" />
<path d="M35283 50178
L35526 50178
L35395 50328
L35451 50328
L35489 50346
L35508 50365
L35526 50403
L35526 50496
L35508 50534
L35489 50553
L35451 50571
L35339 50571
L35301 50553
L35283 50534
" />
<path d="M31449 54963
L31430 54982
L31374 55000
L31336 55000
L31280 54982
L31242 54944
L31224 54907
L31205 54832
L31205 54775
L31224 54700
L31242 54663
L31280 54625
L31336 54607
L31374 54607
L31430 54625
L31449 54644
" />
<path d="M31599 54644
L31617 54625
L31655 54607
L31749 54607
L31786 54625
L31805 54644
L31824 54682
L31824 54719
L31805 54775
L31580 55000
L31824 55000
" />
<path d="M32067 54607
L32105 54607
L32142 54625
L32161 54644
L32180 54682
L32199 54757
L32199 54850
L32180 54925
L32161 54963
L32142 54982
L32105 55000
L32067 55000
L32030 54982
L32011 54963
L31992 54925
L31974 54850
L31974 54757
L31992 54682
L32011 54644
L32030 54625
L32067 54607
" />
<path d="M32536 54738
L32536 55000
" />
<path d="M32442 54588
L32349 54869
L32592 54869
" />
<path d="M27394 33977
L27262 33789
" />
<path d="M27169 33977
L27169 33583
L27319 33583
L27356 33602
L27375 33621
L27394 33658
L27394 33714
L27375 33752
L27356 33771
L27319 33789
L27169 33789
" />
<path d="M27525 33583
L27769 33583
L27637 33733
L27694 33733
L27731 33752
L27750 33771
L27769 33808
L27769 33902
L27750 33939
L27731 33958
L27694 33977
L27581 33977
L27544 33958
L27525 33939
" />
<path d="M28012 33583
L28050 33583
L28087 33602
L28106 33621
L28125 33658
L28143 33733
L28143 33827
L28125 33902
L28106 33939
L28087 33958
L28050 33977
L28012 33977
L27975 33958
L27956 33939
L27937 33902
L27919 33827
L27919 33733
L27937 33658
L27956 33621
L27975 33602
L28012 33583
" />
<path d="M28518 33977
L28293 33977
" />
<path d="M28406 33977
L28406 33583
L28368 33639
L28331 33677
L28293 33696
" />
<path d="M29480 42402
L29349 42215
" />
<path d="M29255 42402
L29255 42008
L29405 42008
L29443 42027
L29461 42046
L29480 42083
L29480 42140
L29461 42177
L29443 42196
L29405 42215
L29255 42215
" />
<path d="M29611 42008
L29855 42008
L29724 42158
L29780 42158
L29818 42177
L29836 42196
L29855 42233
L29855 42327
L29836 42365
L29818 42383
L29780 42402
L29668 42402
L29630 42383
L29611 42365
" />
<path d="M30099 42008
L30136 42008
L30174 42027
L30193 42046
L30211 42083
L30230 42158
L30230 42252
L30211 42327
L30193 42365
L30174 42383
L30136 42402
L30099 42402
L30061 42383
L30043 42365
L30024 42327
L30005 42252
L30005 42158
L30024 42083
L30043 42046
L30061 42027
L30099 42008
" />
<path d="M30380 42046
L30399 42027
L30436 42008
L30530 42008
L30568 42027
L30586 42046
L30605 42083
L30605 42121
L30586 42177
L30361 42402
L30605 42402
" />
<path d="M27512 42402
L27380 42215
" />
<path d="M27287 42402
L27287 42008
L27437 42008
L27474 42027
L27493 42046
L27512 42083
L27512 42140
L27493 42177
L27474 42196
L27437 42215
L27287 42215
" />
<path d="M27643 42008
L27887 42008
L27755 42158
L27812 42158
L27849 42177
L27868 42196
L27887 42233
L27887 42327
L27868 42365
L27849 42383
L27812 42402
L27699 42402
L27662 42383
L27643 42365
" />
<path d="M28130 42008
L28168 42008
L28205 42027
L28224 42046
L28243 42083
L28262 42158
L28262 42252
L28243 42327
L28224 42365
L28205 42383
L28168 42402
L28130 42402
L28093 42383
L28074 42365
L28055 42327
L28037 42252
L28037 42158
L28055 42083
L28074 42046
L28093 42027
L28130 42008
" />
<path d="M28393 42008
L28637 42008
L28505 42158
L28562 42158
L28599 42177
L28618 42196
L28637 42233
L28637 42327
L28618 42365
L28599 42383
L28562 42402
L28449 42402
L28412 42383
L28393 42365
" />
<path d="M43091 51070
L42904 51201
" />
<path d="M43091 51295
L42697 51295
L42697 51145
L42716 51107
L42735 51089
L42772 51070
L42829 51070
L42866 51089
L42885 51107
L42904 51145
L42904 51295
" />
<path d="M42829 50733
L43091 50733
" />
<path d="M42679 50826
L42960 50920
L42960 50676
" />
<path d="M42697 50451
L42697 50414
L42716 50376
L42735 50358
L42772 50339
L42847 50320
L42941 50320
L43016 50339
L43053 50358
L43072 50376
L43091 50414
L43091 50451
L43072 50489
L43053 50508
L43016 50526
L42941 50545
L42847 50545
L42772 50526
L42735 50508
L42716 50489
L42697 50451
" />
<path d="M43091 49945
L43091 50170
" />
<path d="M43091 50058
L42697 50058
L42754 50095
L42791 50133
L42810 50170
" />
<path d="M37768 51201
L37636 51014
" />
<path d="M37543 51201
L37543 50808
L37693 50808
L37730 50826
L37749 50845
L37768 50883
L37768 50939
L37749 50976
L37730 50995
L37693 51014
L37543 51014
" />
<path d="M38105 50939
L38105 51201
" />
<path d="M38011 50789
L37918 51070
L38161 51070
" />
<path d="M38386 50808
L38424 50808
L38461 50826
L38480 50845
L38499 50883
L38517 50958
L38517 51051
L38499 51126
L38480 51164
L38461 51182
L38424 51201
L38386 51201
L38349 51182
L38330 51164
L38311 51126
L38293 51051
L38293 50958
L38311 50883
L38330 50845
L38349 50826
L38386 50808
" />
<path d="M38667 50845
L38686 50826
L38724 50808
L38817 50808
L38855 50826
L38874 50845
L38892 50883
L38892 50920
L38874 50976
L38649 51201
L38892 51201
" />
<path d="M36754 49850
L36773 49868
L36792 49925
L36792 49962
L36773 50018
L36736 50056
L36698 50074
L36623 50093
L36567 50093
L36492 50074
L36454 50056
L36417 50018
L36398 49962
L36398 49925
L36417 49868
L36436 49850
" />
<path d="M36398 49718
L36398 49475
L36548 49606
L36548 49550
L36567 49512
L36586 49493
L36623 49475
L36717 49475
L36754 49493
L36773 49512
L36792 49550
L36792 49662
L36773 49700
L36754 49718
" />
<path d="M36398 49231
L36398 49193
L36417 49156
L36436 49137
L36473 49118
L36548 49100
L36642 49100
L36717 49118
L36754 49137
L36773 49156
L36792 49193
L36792 49231
L36773 49268
L36754 49287
L36717 49306
L36642 49325
L36548 49325
L36473 49306
L36436 49287
L36417 49268
L36398 49231
" />
<path d="M36436 48950
L36417 48931
L36398 48893
L36398 48800
L36417 48762
L36436 48743
L36473 48725
L36511 48725
L36567 48743
L36792 48968
L36792 48725
" />
<path d="M36124 49850
L36143 49868
L36162 49925
L36162 49962
L36143 50018
L36106 50056
L36068 50074
L35993 50093
L35937 50093
L35862 50074
L35824 50056
L35787 50018
L35768 49962
L35768 49925
L35787 49868
L35806 49850
" />
<path d="M35768 49718
L35768 49475
L35918 49606
L35918 49550
L35937 49512
L35956 49493
L35993 49475
L36087 49475
L36124 49493
L36143 49512
L36162 49550
L36162 49662
L36143 49700
L36124 49718
" />
<path d="M35768 49231
L35768 49193
L35787 49156
L35806 49137
L35843 49118
L35918 49100
L36012 49100
L36087 49118
L36124 49137
L36143 49156
L36162 49193
L36162 49231
L36143 49268
L36124 49287
L36087 49306
L36012 49325
L35918 49325
L35843 49306
L35806 49287
L35787 49268
L35768 49231
" />
<path d="M35768 48968
L35768 48725
L35918 48856
L35918 48800
L35937 48762
L35956 48743
L35993 48725
L36087 48725
L36124 48743
L36143 48762
L36162 48800
L36162 48912
L36143 48950
L36124 48968
" />
<path d="M39848 37776
L39848 38057
L39829 38113
L39791 38151
L39735 38170
L39698 38170
" />
<path d="M40016 37814
L40035 37795
L40073 37776
L40166 37776
L40204 37795
L40223 37814
L40241 37851
L40241 37889
L40223 37945
L39998 38170
L40241 38170
" />
<path d="M40485 37776
L40523 37776
L40560 37795
L40579 37814
L40598 37851
L40616 37926
L40616 38020
L40598 38095
L40579 38132
L40560 38151
L40523 38170
L40485 38170
L40448 38151
L40429 38132
L40410 38095
L40391 38020
L40391 37926
L40410 37851
L40429 37814
L40448 37795
L40485 37776
" />
<path d="M40991 38170
L40766 38170
" />
<path d="M40879 38170
L40879 37776
L40841 37832
L40804 37870
L40766 37889
" />
<path d="M27109 37448
L27127 37467
L27146 37523
L27146 37560
L27127 37617
L27090 37654
L27052 37673
L26977 37692
L26921 37692
L26846 37673
L26809 37654
L26771 37617
L26752 37560
L26752 37523
L26771 37467
L26790 37448
" />
<path d="M26752 37317
L26752 37073
L26902 37204
L26902 37148
L26921 37110
L26940 37092
L26977 37073
L27071 37073
L27109 37092
L27127 37110
L27146 37148
L27146 37260
L27127 37298
L27109 37317
" />
<path d="M26752 36829
L26752 36792
L26771 36754
L26790 36736
L26827 36717
L26902 36698
L26996 36698
L27071 36717
L27109 36736
L27127 36754
L27146 36792
L27146 36829
L27127 36867
L27109 36886
L27071 36904
L26996 36923
L26902 36923
L26827 36904
L26790 36886
L26771 36867
L26752 36829
" />
<path d="M27146 36323
L27146 36548
" />
<path d="M27146 36436
L26752 36436
L26809 36473
L26846 36511
L26865 36548
" />
<path d="M27446 26902
L27446 27183
L27427 27239
L27390 27277
L27334 27296
L27296 27296
" />
<path d="M27821 26902
L27634 26902
L27615 27089
L27634 27071
L27671 27052
L27765 27052
L27802 27071
L27821 27089
L27840 27127
L27840 27221
L27821 27258
L27802 27277
L27765 27296
L27671 27296
L27634 27277
L27615 27258
" />
<path d="M28083 26902
L28121 26902
L28158 26921
L28177 26940
L28196 26977
L28215 27052
L28215 27146
L28196 27221
L28177 27258
L28158 27277
L28121 27296
L28083 27296
L28046 27277
L28027 27258
L28008 27221
L27990 27146
L27990 27052
L28008 26977
L28027 26940
L28046 26921
L28083 26902
" />
<path d="M28590 27296
L28365 27296
" />
<path d="M28477 27296
L28477 26902
L28440 26958
L28402 26996
L28365 27014
" />
<path d="M29619 29461
L29619 29742
L29601 29799
L29563 29836
L29507 29855
L29469 29855
" />
<path d="M29994 29461
L29807 29461
L29788 29649
L29807 29630
L29844 29611
L29938 29611
L29976 29630
L29994 29649
L30013 29686
L30013 29780
L29994 29817
L29976 29836
L29938 29855
L29844 29855
L29807 29836
L29788 29817
" />
<path d="M30257 29461
L30294 29461
L30332 29480
L30350 29499
L30369 29536
L30388 29611
L30388 29705
L30369 29780
L30350 29817
L30332 29836
L30294 29855
L30257 29855
L30219 29836
L30200 29817
L30182 29780
L30163 29705
L30163 29611
L30182 29536
L30200 29499
L30219 29480
L30257 29461
" />
<path d="M30538 29499
L30557 29480
L30594 29461
L30688 29461
L30725 29480
L30744 29499
L30763 29536
L30763 29574
L30744 29630
L30519 29855
L30763 29855
" />
</g> 
</svg>
