G04 #@! TF.FileFunction,Copper,L1,Top,Signal*
%FSLAX46Y46*%
G04 Gerber Fmt 4.6, Leading zero omitted, Abs format (unit mm)*
G04 Created by KiCad (PCBNEW 4.0.6) date 07/31/17 19:13:33*
%MOMM*%
%LPD*%
G01*
G04 APERTURE LIST*
%ADD10C,0.100000*%
%ADD11C,0.150000*%
%ADD12C,0.300000*%
%ADD13C,0.400000*%
%ADD14R,1.700000X1.700000*%
%ADD15O,1.700000X1.700000*%
%ADD16C,3.650000*%
%ADD17R,1.500000X1.500000*%
%ADD18C,1.500000*%
%ADD19R,0.970000X1.270000*%
%ADD20R,1.270000X0.970000*%
%ADD21O,1.998980X1.998980*%
%ADD22R,1.998980X1.998980*%
%ADD23R,0.600000X1.550000*%
%ADD24R,1.600000X1.600000*%
%ADD25O,1.600000X1.600000*%
%ADD26C,3.810000*%
%ADD27R,1.520000X1.520000*%
%ADD28C,1.520000*%
%ADD29R,1.500000X0.600000*%
%ADD30R,0.750000X0.800000*%
%ADD31R,0.800000X0.750000*%
%ADD32R,0.500000X0.900000*%
%ADD33R,0.900000X2.500000*%
%ADD34C,0.600000*%
%ADD35C,0.250000*%
%ADD36C,0.500000*%
%ADD37C,0.254000*%
G04 APERTURE END LIST*
D10*
D11*
X177002200Y-166007200D02*
X177002200Y-198007200D01*
X285002200Y-198007200D01*
X285002200Y-166007200D01*
X177002200Y-166007200D01*
D10*
D11*
X10000000Y-10000000D02*
X10000000Y-200007200D01*
X287002200Y-200007200D01*
X287002200Y-10000000D01*
X10000000Y-10000000D01*
D10*
D11*
X12000000Y-12000000D02*
X12000000Y-198007200D01*
X285002200Y-198007200D01*
X285002200Y-12000000D01*
X12000000Y-12000000D01*
D10*
D11*
X60000000Y-12000000D02*
X60000000Y-10000000D01*
D10*
D11*
X110000000Y-12000000D02*
X110000000Y-10000000D01*
D10*
D11*
X160000000Y-12000000D02*
X160000000Y-10000000D01*
D10*
D11*
X210000000Y-12000000D02*
X210000000Y-10000000D01*
D10*
D11*
X260000000Y-12000000D02*
X260000000Y-10000000D01*
D10*
D11*
X35990476Y-11588095D02*
X35247619Y-11588095D01*
X35619048Y-11588095D02*
X35619048Y-10288095D01*
X35495238Y-10473810D01*
X35371429Y-10597619D01*
X35247619Y-10659524D01*
D10*
D11*
X85247619Y-10411905D02*
X85309524Y-10350000D01*
X85433333Y-10288095D01*
X85742857Y-10288095D01*
X85866667Y-10350000D01*
X85928571Y-10411905D01*
X85990476Y-10535714D01*
X85990476Y-10659524D01*
X85928571Y-10845238D01*
X85185714Y-11588095D01*
X85990476Y-11588095D01*
D10*
D11*
X135185714Y-10288095D02*
X135990476Y-10288095D01*
X135557143Y-10783333D01*
X135742857Y-10783333D01*
X135866667Y-10845238D01*
X135928571Y-10907143D01*
X135990476Y-11030952D01*
X135990476Y-11340476D01*
X135928571Y-11464286D01*
X135866667Y-11526190D01*
X135742857Y-11588095D01*
X135371429Y-11588095D01*
X135247619Y-11526190D01*
X135185714Y-11464286D01*
D10*
D11*
X185866667Y-10721429D02*
X185866667Y-11588095D01*
X185557143Y-10226190D02*
X185247619Y-11154762D01*
X186052381Y-11154762D01*
D10*
D11*
X235928571Y-10288095D02*
X235309524Y-10288095D01*
X235247619Y-10907143D01*
X235309524Y-10845238D01*
X235433333Y-10783333D01*
X235742857Y-10783333D01*
X235866667Y-10845238D01*
X235928571Y-10907143D01*
X235990476Y-11030952D01*
X235990476Y-11340476D01*
X235928571Y-11464286D01*
X235866667Y-11526190D01*
X235742857Y-11588095D01*
X235433333Y-11588095D01*
X235309524Y-11526190D01*
X235247619Y-11464286D01*
D10*
D11*
X285866667Y-10288095D02*
X285619048Y-10288095D01*
X285495238Y-10350000D01*
X285433333Y-10411905D01*
X285309524Y-10597619D01*
X285247619Y-10845238D01*
X285247619Y-11340476D01*
X285309524Y-11464286D01*
X285371429Y-11526190D01*
X285495238Y-11588095D01*
X285742857Y-11588095D01*
X285866667Y-11526190D01*
X285928571Y-11464286D01*
X285990476Y-11340476D01*
X285990476Y-11030952D01*
X285928571Y-10907143D01*
X285866667Y-10845238D01*
X285742857Y-10783333D01*
X285495238Y-10783333D01*
X285371429Y-10845238D01*
X285309524Y-10907143D01*
X285247619Y-11030952D01*
D10*
D11*
X60000000Y-198007200D02*
X60000000Y-200007200D01*
D10*
D11*
X110000000Y-198007200D02*
X110000000Y-200007200D01*
D10*
D11*
X160000000Y-198007200D02*
X160000000Y-200007200D01*
D10*
D11*
X210000000Y-198007200D02*
X210000000Y-200007200D01*
D10*
D11*
X260000000Y-198007200D02*
X260000000Y-200007200D01*
D10*
D11*
X35990476Y-199595295D02*
X35247619Y-199595295D01*
X35619048Y-199595295D02*
X35619048Y-198295295D01*
X35495238Y-198481010D01*
X35371429Y-198604819D01*
X35247619Y-198666724D01*
D10*
D11*
X85247619Y-198419105D02*
X85309524Y-198357200D01*
X85433333Y-198295295D01*
X85742857Y-198295295D01*
X85866667Y-198357200D01*
X85928571Y-198419105D01*
X85990476Y-198542914D01*
X85990476Y-198666724D01*
X85928571Y-198852438D01*
X85185714Y-199595295D01*
X85990476Y-199595295D01*
D10*
D11*
X135185714Y-198295295D02*
X135990476Y-198295295D01*
X135557143Y-198790533D01*
X135742857Y-198790533D01*
X135866667Y-198852438D01*
X135928571Y-198914343D01*
X135990476Y-199038152D01*
X135990476Y-199347676D01*
X135928571Y-199471486D01*
X135866667Y-199533390D01*
X135742857Y-199595295D01*
X135371429Y-199595295D01*
X135247619Y-199533390D01*
X135185714Y-199471486D01*
D10*
D11*
X185866667Y-198728629D02*
X185866667Y-199595295D01*
X185557143Y-198233390D02*
X185247619Y-199161962D01*
X186052381Y-199161962D01*
D10*
D11*
X235928571Y-198295295D02*
X235309524Y-198295295D01*
X235247619Y-198914343D01*
X235309524Y-198852438D01*
X235433333Y-198790533D01*
X235742857Y-198790533D01*
X235866667Y-198852438D01*
X235928571Y-198914343D01*
X235990476Y-199038152D01*
X235990476Y-199347676D01*
X235928571Y-199471486D01*
X235866667Y-199533390D01*
X235742857Y-199595295D01*
X235433333Y-199595295D01*
X235309524Y-199533390D01*
X235247619Y-199471486D01*
D10*
D11*
X285866667Y-198295295D02*
X285619048Y-198295295D01*
X285495238Y-198357200D01*
X285433333Y-198419105D01*
X285309524Y-198604819D01*
X285247619Y-198852438D01*
X285247619Y-199347676D01*
X285309524Y-199471486D01*
X285371429Y-199533390D01*
X285495238Y-199595295D01*
X285742857Y-199595295D01*
X285866667Y-199533390D01*
X285928571Y-199471486D01*
X285990476Y-199347676D01*
X285990476Y-199038152D01*
X285928571Y-198914343D01*
X285866667Y-198852438D01*
X285742857Y-198790533D01*
X285495238Y-198790533D01*
X285371429Y-198852438D01*
X285309524Y-198914343D01*
X285247619Y-199038152D01*
D10*
D11*
X10000000Y-60000000D02*
X12000000Y-60000000D01*
D10*
D11*
X10000000Y-110000000D02*
X12000000Y-110000000D01*
D10*
D11*
X10000000Y-160000000D02*
X12000000Y-160000000D01*
D10*
D11*
X10690476Y-35216667D02*
X11309524Y-35216667D01*
X10566667Y-35588095D02*
X11000000Y-34288095D01*
X11433333Y-35588095D01*
D10*
D11*
X11092857Y-84907143D02*
X11278571Y-84969048D01*
X11340476Y-85030952D01*
X11402381Y-85154762D01*
X11402381Y-85340476D01*
X11340476Y-85464286D01*
X11278571Y-85526190D01*
X11154762Y-85588095D01*
X10659524Y-85588095D01*
X10659524Y-84288095D01*
X11092857Y-84288095D01*
X11216667Y-84350000D01*
X11278571Y-84411905D01*
X11340476Y-84535714D01*
X11340476Y-84659524D01*
X11278571Y-84783333D01*
X11216667Y-84845238D01*
X11092857Y-84907143D01*
X10659524Y-84907143D01*
D10*
D11*
X11402381Y-135464286D02*
X11340476Y-135526190D01*
X11154762Y-135588095D01*
X11030952Y-135588095D01*
X10845238Y-135526190D01*
X10721429Y-135402381D01*
X10659524Y-135278571D01*
X10597619Y-135030952D01*
X10597619Y-134845238D01*
X10659524Y-134597619D01*
X10721429Y-134473810D01*
X10845238Y-134350000D01*
X11030952Y-134288095D01*
X11154762Y-134288095D01*
X11340476Y-134350000D01*
X11402381Y-134411905D01*
D10*
D11*
X10659524Y-185588095D02*
X10659524Y-184288095D01*
X10969048Y-184288095D01*
X11154762Y-184350000D01*
X11278571Y-184473810D01*
X11340476Y-184597619D01*
X11402381Y-184845238D01*
X11402381Y-185030952D01*
X11340476Y-185278571D01*
X11278571Y-185402381D01*
X11154762Y-185526190D01*
X10969048Y-185588095D01*
X10659524Y-185588095D01*
D10*
D11*
X287002200Y-60000000D02*
X285002200Y-60000000D01*
D10*
D11*
X287002200Y-110000000D02*
X285002200Y-110000000D01*
D10*
D11*
X287002200Y-160000000D02*
X285002200Y-160000000D01*
D10*
D11*
X285692676Y-35216667D02*
X286311724Y-35216667D01*
X285568867Y-35588095D02*
X286002200Y-34288095D01*
X286435533Y-35588095D01*
D10*
D11*
X286095057Y-84907143D02*
X286280771Y-84969048D01*
X286342676Y-85030952D01*
X286404581Y-85154762D01*
X286404581Y-85340476D01*
X286342676Y-85464286D01*
X286280771Y-85526190D01*
X286156962Y-85588095D01*
X285661724Y-85588095D01*
X285661724Y-84288095D01*
X286095057Y-84288095D01*
X286218867Y-84350000D01*
X286280771Y-84411905D01*
X286342676Y-84535714D01*
X286342676Y-84659524D01*
X286280771Y-84783333D01*
X286218867Y-84845238D01*
X286095057Y-84907143D01*
X285661724Y-84907143D01*
D10*
D11*
X286404581Y-135464286D02*
X286342676Y-135526190D01*
X286156962Y-135588095D01*
X286033152Y-135588095D01*
X285847438Y-135526190D01*
X285723629Y-135402381D01*
X285661724Y-135278571D01*
X285599819Y-135030952D01*
X285599819Y-134845238D01*
X285661724Y-134597619D01*
X285723629Y-134473810D01*
X285847438Y-134350000D01*
X286033152Y-134288095D01*
X286156962Y-134288095D01*
X286342676Y-134350000D01*
X286404581Y-134411905D01*
D10*
D11*
X285661724Y-185588095D02*
X285661724Y-184288095D01*
X285971248Y-184288095D01*
X286156962Y-184350000D01*
X286280771Y-184473810D01*
X286342676Y-184597619D01*
X286404581Y-184845238D01*
X286404581Y-185030952D01*
X286342676Y-185278571D01*
X286280771Y-185402381D01*
X286156962Y-185526190D01*
X285971248Y-185588095D01*
X285661724Y-185588095D01*
D10*
D11*
X200359343Y-193785771D02*
X200359343Y-192285771D01*
X200716486Y-192285771D01*
X200930771Y-192357200D01*
X201073629Y-192500057D01*
X201145057Y-192642914D01*
X201216486Y-192928629D01*
X201216486Y-193142914D01*
X201145057Y-193428629D01*
X201073629Y-193571486D01*
X200930771Y-193714343D01*
X200716486Y-193785771D01*
X200359343Y-193785771D01*
X202502200Y-193785771D02*
X202502200Y-193000057D01*
X202430771Y-192857200D01*
X202287914Y-192785771D01*
X202002200Y-192785771D01*
X201859343Y-192857200D01*
X202502200Y-193714343D02*
X202359343Y-193785771D01*
X202002200Y-193785771D01*
X201859343Y-193714343D01*
X201787914Y-193571486D01*
X201787914Y-193428629D01*
X201859343Y-193285771D01*
X202002200Y-193214343D01*
X202359343Y-193214343D01*
X202502200Y-193142914D01*
X203002200Y-192785771D02*
X203573629Y-192785771D01*
X203216486Y-192285771D02*
X203216486Y-193571486D01*
X203287914Y-193714343D01*
X203430772Y-193785771D01*
X203573629Y-193785771D01*
X204645057Y-193714343D02*
X204502200Y-193785771D01*
X204216486Y-193785771D01*
X204073629Y-193714343D01*
X204002200Y-193571486D01*
X204002200Y-193000057D01*
X204073629Y-192857200D01*
X204216486Y-192785771D01*
X204502200Y-192785771D01*
X204645057Y-192857200D01*
X204716486Y-193000057D01*
X204716486Y-193142914D01*
X204002200Y-193285771D01*
X205359343Y-193642914D02*
X205430771Y-193714343D01*
X205359343Y-193785771D01*
X205287914Y-193714343D01*
X205359343Y-193642914D01*
X205359343Y-193785771D01*
X205359343Y-192857200D02*
X205430771Y-192928629D01*
X205359343Y-193000057D01*
X205287914Y-192928629D01*
X205359343Y-192857200D01*
X205359343Y-193000057D01*
D10*
D11*
X177002200Y-194507200D02*
X285002200Y-194507200D01*
D10*
D11*
X178359343Y-196585771D02*
X178359343Y-195085771D01*
X179216486Y-196585771D02*
X178573629Y-195728629D01*
X179216486Y-195085771D02*
X178359343Y-195942914D01*
X179859343Y-196585771D02*
X179859343Y-195585771D01*
X179859343Y-195085771D02*
X179787914Y-195157200D01*
X179859343Y-195228629D01*
X179930771Y-195157200D01*
X179859343Y-195085771D01*
X179859343Y-195228629D01*
X181430772Y-196442914D02*
X181359343Y-196514343D01*
X181145057Y-196585771D01*
X181002200Y-196585771D01*
X180787915Y-196514343D01*
X180645057Y-196371486D01*
X180573629Y-196228629D01*
X180502200Y-195942914D01*
X180502200Y-195728629D01*
X180573629Y-195442914D01*
X180645057Y-195300057D01*
X180787915Y-195157200D01*
X181002200Y-195085771D01*
X181145057Y-195085771D01*
X181359343Y-195157200D01*
X181430772Y-195228629D01*
X182716486Y-196585771D02*
X182716486Y-195800057D01*
X182645057Y-195657200D01*
X182502200Y-195585771D01*
X182216486Y-195585771D01*
X182073629Y-195657200D01*
X182716486Y-196514343D02*
X182573629Y-196585771D01*
X182216486Y-196585771D01*
X182073629Y-196514343D01*
X182002200Y-196371486D01*
X182002200Y-196228629D01*
X182073629Y-196085771D01*
X182216486Y-196014343D01*
X182573629Y-196014343D01*
X182716486Y-195942914D01*
X184073629Y-196585771D02*
X184073629Y-195085771D01*
X184073629Y-196514343D02*
X183930772Y-196585771D01*
X183645058Y-196585771D01*
X183502200Y-196514343D01*
X183430772Y-196442914D01*
X183359343Y-196300057D01*
X183359343Y-195871486D01*
X183430772Y-195728629D01*
X183502200Y-195657200D01*
X183645058Y-195585771D01*
X183930772Y-195585771D01*
X184073629Y-195657200D01*
X185930772Y-195800057D02*
X186430772Y-195800057D01*
X186645058Y-196585771D02*
X185930772Y-196585771D01*
X185930772Y-195085771D01*
X186645058Y-195085771D01*
X187287915Y-196442914D02*
X187359343Y-196514343D01*
X187287915Y-196585771D01*
X187216486Y-196514343D01*
X187287915Y-196442914D01*
X187287915Y-196585771D01*
X188002201Y-196585771D02*
X188002201Y-195085771D01*
X188359344Y-195085771D01*
X188573629Y-195157200D01*
X188716487Y-195300057D01*
X188787915Y-195442914D01*
X188859344Y-195728629D01*
X188859344Y-195942914D01*
X188787915Y-196228629D01*
X188716487Y-196371486D01*
X188573629Y-196514343D01*
X188359344Y-196585771D01*
X188002201Y-196585771D01*
X189502201Y-196442914D02*
X189573629Y-196514343D01*
X189502201Y-196585771D01*
X189430772Y-196514343D01*
X189502201Y-196442914D01*
X189502201Y-196585771D01*
X190145058Y-196157200D02*
X190859344Y-196157200D01*
X190002201Y-196585771D02*
X190502201Y-195085771D01*
X191002201Y-196585771D01*
X191502201Y-196442914D02*
X191573629Y-196514343D01*
X191502201Y-196585771D01*
X191430772Y-196514343D01*
X191502201Y-196442914D01*
X191502201Y-196585771D01*
X194502201Y-196585771D02*
X194502201Y-195085771D01*
X194645058Y-196014343D02*
X195073629Y-196585771D01*
X195073629Y-195585771D02*
X194502201Y-196157200D01*
X195716487Y-196585771D02*
X195716487Y-195585771D01*
X195716487Y-195085771D02*
X195645058Y-195157200D01*
X195716487Y-195228629D01*
X195787915Y-195157200D01*
X195716487Y-195085771D01*
X195716487Y-195228629D01*
X197073630Y-196514343D02*
X196930773Y-196585771D01*
X196645059Y-196585771D01*
X196502201Y-196514343D01*
X196430773Y-196442914D01*
X196359344Y-196300057D01*
X196359344Y-195871486D01*
X196430773Y-195728629D01*
X196502201Y-195657200D01*
X196645059Y-195585771D01*
X196930773Y-195585771D01*
X197073630Y-195657200D01*
X198359344Y-196585771D02*
X198359344Y-195800057D01*
X198287915Y-195657200D01*
X198145058Y-195585771D01*
X197859344Y-195585771D01*
X197716487Y-195657200D01*
X198359344Y-196514343D02*
X198216487Y-196585771D01*
X197859344Y-196585771D01*
X197716487Y-196514343D01*
X197645058Y-196371486D01*
X197645058Y-196228629D01*
X197716487Y-196085771D01*
X197859344Y-196014343D01*
X198216487Y-196014343D01*
X198359344Y-195942914D01*
X199716487Y-196585771D02*
X199716487Y-195085771D01*
X199716487Y-196514343D02*
X199573630Y-196585771D01*
X199287916Y-196585771D01*
X199145058Y-196514343D01*
X199073630Y-196442914D01*
X199002201Y-196300057D01*
X199002201Y-195871486D01*
X199073630Y-195728629D01*
X199145058Y-195657200D01*
X199287916Y-195585771D01*
X199573630Y-195585771D01*
X199716487Y-195657200D01*
X202216487Y-195585771D02*
X202216487Y-196585771D01*
X201859344Y-195014343D02*
X201502201Y-196085771D01*
X202430773Y-196085771D01*
X203002201Y-196442914D02*
X203073629Y-196514343D01*
X203002201Y-196585771D01*
X202930772Y-196514343D01*
X203002201Y-196442914D01*
X203002201Y-196585771D01*
X204002201Y-195085771D02*
X204145058Y-195085771D01*
X204287915Y-195157200D01*
X204359344Y-195228629D01*
X204430773Y-195371486D01*
X204502201Y-195657200D01*
X204502201Y-196014343D01*
X204430773Y-196300057D01*
X204359344Y-196442914D01*
X204287915Y-196514343D01*
X204145058Y-196585771D01*
X204002201Y-196585771D01*
X203859344Y-196514343D01*
X203787915Y-196442914D01*
X203716487Y-196300057D01*
X203645058Y-196014343D01*
X203645058Y-195657200D01*
X203716487Y-195371486D01*
X203787915Y-195228629D01*
X203859344Y-195157200D01*
X204002201Y-195085771D01*
X205145058Y-196442914D02*
X205216486Y-196514343D01*
X205145058Y-196585771D01*
X205073629Y-196514343D01*
X205145058Y-196442914D01*
X205145058Y-196585771D01*
X206502201Y-195085771D02*
X206216487Y-195085771D01*
X206073630Y-195157200D01*
X206002201Y-195228629D01*
X205859344Y-195442914D01*
X205787915Y-195728629D01*
X205787915Y-196300057D01*
X205859344Y-196442914D01*
X205930772Y-196514343D01*
X206073630Y-196585771D01*
X206359344Y-196585771D01*
X206502201Y-196514343D01*
X206573630Y-196442914D01*
X206645058Y-196300057D01*
X206645058Y-195942914D01*
X206573630Y-195800057D01*
X206502201Y-195728629D01*
X206359344Y-195657200D01*
X206073630Y-195657200D01*
X205930772Y-195728629D01*
X205859344Y-195800057D01*
X205787915Y-195942914D01*
D10*
D11*
X177002200Y-191507200D02*
X285002200Y-191507200D01*
D10*
D12*
X264216486Y-193785771D02*
X263716486Y-193071486D01*
X263359343Y-193785771D02*
X263359343Y-192285771D01*
X263930771Y-192285771D01*
X264073629Y-192357200D01*
X264145057Y-192428629D01*
X264216486Y-192571486D01*
X264216486Y-192785771D01*
X264145057Y-192928629D01*
X264073629Y-193000057D01*
X263930771Y-193071486D01*
X263359343Y-193071486D01*
X265430771Y-193714343D02*
X265287914Y-193785771D01*
X265002200Y-193785771D01*
X264859343Y-193714343D01*
X264787914Y-193571486D01*
X264787914Y-193000057D01*
X264859343Y-192857200D01*
X265002200Y-192785771D01*
X265287914Y-192785771D01*
X265430771Y-192857200D01*
X265502200Y-193000057D01*
X265502200Y-193142914D01*
X264787914Y-193285771D01*
X266002200Y-192785771D02*
X266359343Y-193785771D01*
X266716485Y-192785771D01*
X267287914Y-193642914D02*
X267359342Y-193714343D01*
X267287914Y-193785771D01*
X267216485Y-193714343D01*
X267287914Y-193642914D01*
X267287914Y-193785771D01*
X267287914Y-192857200D02*
X267359342Y-192928629D01*
X267287914Y-193000057D01*
X267216485Y-192928629D01*
X267287914Y-192857200D01*
X267287914Y-193000057D01*
D10*
D11*
X178287914Y-193714343D02*
X178502200Y-193785771D01*
X178859343Y-193785771D01*
X179002200Y-193714343D01*
X179073629Y-193642914D01*
X179145057Y-193500057D01*
X179145057Y-193357200D01*
X179073629Y-193214343D01*
X179002200Y-193142914D01*
X178859343Y-193071486D01*
X178573629Y-193000057D01*
X178430771Y-192928629D01*
X178359343Y-192857200D01*
X178287914Y-192714343D01*
X178287914Y-192571486D01*
X178359343Y-192428629D01*
X178430771Y-192357200D01*
X178573629Y-192285771D01*
X178930771Y-192285771D01*
X179145057Y-192357200D01*
X179787914Y-193785771D02*
X179787914Y-192785771D01*
X179787914Y-192285771D02*
X179716485Y-192357200D01*
X179787914Y-192428629D01*
X179859342Y-192357200D01*
X179787914Y-192285771D01*
X179787914Y-192428629D01*
X180359343Y-192785771D02*
X181145057Y-192785771D01*
X180359343Y-193785771D01*
X181145057Y-193785771D01*
X182287914Y-193714343D02*
X182145057Y-193785771D01*
X181859343Y-193785771D01*
X181716486Y-193714343D01*
X181645057Y-193571486D01*
X181645057Y-193000057D01*
X181716486Y-192857200D01*
X181859343Y-192785771D01*
X182145057Y-192785771D01*
X182287914Y-192857200D01*
X182359343Y-193000057D01*
X182359343Y-193142914D01*
X181645057Y-193285771D01*
X183002200Y-193642914D02*
X183073628Y-193714343D01*
X183002200Y-193785771D01*
X182930771Y-193714343D01*
X183002200Y-193642914D01*
X183002200Y-193785771D01*
X183002200Y-192857200D02*
X183073628Y-192928629D01*
X183002200Y-193000057D01*
X182930771Y-192928629D01*
X183002200Y-192857200D01*
X183002200Y-193000057D01*
X184787914Y-193357200D02*
X185502200Y-193357200D01*
X184645057Y-193785771D02*
X185145057Y-192285771D01*
X185645057Y-193785771D01*
X186787914Y-192785771D02*
X186787914Y-193785771D01*
X186430771Y-192214343D02*
X186073628Y-193285771D01*
X187002200Y-193285771D01*
D10*
D11*
X263359343Y-196585771D02*
X263359343Y-195085771D01*
X264716486Y-196585771D02*
X264716486Y-195085771D01*
X264716486Y-196514343D02*
X264573629Y-196585771D01*
X264287915Y-196585771D01*
X264145057Y-196514343D01*
X264073629Y-196442914D01*
X264002200Y-196300057D01*
X264002200Y-195871486D01*
X264073629Y-195728629D01*
X264145057Y-195657200D01*
X264287915Y-195585771D01*
X264573629Y-195585771D01*
X264716486Y-195657200D01*
X265430772Y-196442914D02*
X265502200Y-196514343D01*
X265430772Y-196585771D01*
X265359343Y-196514343D01*
X265430772Y-196442914D01*
X265430772Y-196585771D01*
X265430772Y-195657200D02*
X265502200Y-195728629D01*
X265430772Y-195800057D01*
X265359343Y-195728629D01*
X265430772Y-195657200D01*
X265430772Y-195800057D01*
X268073629Y-196585771D02*
X267216486Y-196585771D01*
X267645058Y-196585771D02*
X267645058Y-195085771D01*
X267502201Y-195300057D01*
X267359343Y-195442914D01*
X267216486Y-195514343D01*
X269787914Y-195014343D02*
X268502200Y-196942914D01*
X271073629Y-196585771D02*
X270216486Y-196585771D01*
X270645058Y-196585771D02*
X270645058Y-195085771D01*
X270502201Y-195300057D01*
X270359343Y-195442914D01*
X270216486Y-195514343D01*
D10*
D11*
X177002200Y-187507200D02*
X285002200Y-187507200D01*
D10*
D13*
X178454581Y-188211962D02*
X179597438Y-188211962D01*
X178776010Y-190211962D02*
X179026010Y-188211962D01*
X180014105Y-190211962D02*
X180180771Y-188878629D01*
X180264105Y-188211962D02*
X180156962Y-188307200D01*
X180240295Y-188402438D01*
X180347439Y-188307200D01*
X180264105Y-188211962D01*
X180240295Y-188402438D01*
X180847438Y-188878629D02*
X181609343Y-188878629D01*
X181216486Y-188211962D02*
X181002200Y-189926248D01*
X181073630Y-190116724D01*
X181252201Y-190211962D01*
X181442677Y-190211962D01*
X182395058Y-190211962D02*
X182216487Y-190116724D01*
X182145057Y-189926248D01*
X182359343Y-188211962D01*
X183930772Y-190116724D02*
X183728391Y-190211962D01*
X183347439Y-190211962D01*
X183168867Y-190116724D01*
X183097438Y-189926248D01*
X183192676Y-189164343D01*
X183311724Y-188973867D01*
X183514105Y-188878629D01*
X183895057Y-188878629D01*
X184073629Y-188973867D01*
X184145057Y-189164343D01*
X184121248Y-189354819D01*
X183145057Y-189545295D01*
X184895057Y-190021486D02*
X184978392Y-190116724D01*
X184871248Y-190211962D01*
X184787915Y-190116724D01*
X184895057Y-190021486D01*
X184871248Y-190211962D01*
X185026010Y-188973867D02*
X185109344Y-189069105D01*
X185002200Y-189164343D01*
X184918867Y-189069105D01*
X185026010Y-188973867D01*
X185002200Y-189164343D01*
D10*
D11*
X178859343Y-185600057D02*
X178359343Y-185600057D01*
X178359343Y-186385771D02*
X178359343Y-184885771D01*
X179073629Y-184885771D01*
X179645057Y-186385771D02*
X179645057Y-185385771D01*
X179645057Y-184885771D02*
X179573628Y-184957200D01*
X179645057Y-185028629D01*
X179716485Y-184957200D01*
X179645057Y-184885771D01*
X179645057Y-185028629D01*
X180573629Y-186385771D02*
X180430771Y-186314343D01*
X180359343Y-186171486D01*
X180359343Y-184885771D01*
X181716485Y-186314343D02*
X181573628Y-186385771D01*
X181287914Y-186385771D01*
X181145057Y-186314343D01*
X181073628Y-186171486D01*
X181073628Y-185600057D01*
X181145057Y-185457200D01*
X181287914Y-185385771D01*
X181573628Y-185385771D01*
X181716485Y-185457200D01*
X181787914Y-185600057D01*
X181787914Y-185742914D01*
X181073628Y-185885771D01*
X182430771Y-186242914D02*
X182502199Y-186314343D01*
X182430771Y-186385771D01*
X182359342Y-186314343D01*
X182430771Y-186242914D01*
X182430771Y-186385771D01*
X182430771Y-185457200D02*
X182502199Y-185528629D01*
X182430771Y-185600057D01*
X182359342Y-185528629D01*
X182430771Y-185457200D01*
X182430771Y-185600057D01*
X184287914Y-186385771D02*
X184287914Y-184885771D01*
X184287914Y-185457200D02*
X184430771Y-185385771D01*
X184716485Y-185385771D01*
X184859342Y-185457200D01*
X184930771Y-185528629D01*
X185002200Y-185671486D01*
X185002200Y-186100057D01*
X184930771Y-186242914D01*
X184859342Y-186314343D01*
X184716485Y-186385771D01*
X184430771Y-186385771D01*
X184287914Y-186314343D01*
X185645057Y-185385771D02*
X185645057Y-186885771D01*
X185645057Y-185457200D02*
X185787914Y-185385771D01*
X186073628Y-185385771D01*
X186216485Y-185457200D01*
X186287914Y-185528629D01*
X186359343Y-185671486D01*
X186359343Y-186100057D01*
X186287914Y-186242914D01*
X186216485Y-186314343D01*
X186073628Y-186385771D01*
X185787914Y-186385771D01*
X185645057Y-186314343D01*
X187002200Y-186385771D02*
X187002200Y-185385771D01*
X187002200Y-184885771D02*
X186930771Y-184957200D01*
X187002200Y-185028629D01*
X187073628Y-184957200D01*
X187002200Y-184885771D01*
X187002200Y-185028629D01*
X187716486Y-185814343D02*
X188859343Y-185814343D01*
X189573629Y-186385771D02*
X189573629Y-185385771D01*
X189573629Y-185671486D02*
X189645057Y-185528629D01*
X189716486Y-185457200D01*
X189859343Y-185385771D01*
X190002200Y-185385771D01*
X191287914Y-186385771D02*
X190430771Y-186385771D01*
X190859343Y-186385771D02*
X190859343Y-184885771D01*
X190716486Y-185100057D01*
X190573628Y-185242914D01*
X190430771Y-185314343D01*
X191930771Y-185814343D02*
X193073628Y-185814343D01*
X194430771Y-186314343D02*
X194287914Y-186385771D01*
X194002200Y-186385771D01*
X193859342Y-186314343D01*
X193787914Y-186242914D01*
X193716485Y-186100057D01*
X193716485Y-185671486D01*
X193787914Y-185528629D01*
X193859342Y-185457200D01*
X194002200Y-185385771D01*
X194287914Y-185385771D01*
X194430771Y-185457200D01*
X195716485Y-186385771D02*
X195716485Y-185600057D01*
X195645056Y-185457200D01*
X195502199Y-185385771D01*
X195216485Y-185385771D01*
X195073628Y-185457200D01*
X195716485Y-186314343D02*
X195573628Y-186385771D01*
X195216485Y-186385771D01*
X195073628Y-186314343D01*
X195002199Y-186171486D01*
X195002199Y-186028629D01*
X195073628Y-185885771D01*
X195216485Y-185814343D01*
X195573628Y-185814343D01*
X195716485Y-185742914D01*
X196430771Y-185385771D02*
X196430771Y-186385771D01*
X196430771Y-185528629D02*
X196502199Y-185457200D01*
X196645057Y-185385771D01*
X196859342Y-185385771D01*
X197002199Y-185457200D01*
X197073628Y-185600057D01*
X197073628Y-186385771D01*
X197787914Y-185814343D02*
X198930771Y-185814343D01*
X199573628Y-186314343D02*
X199716485Y-186385771D01*
X200002200Y-186385771D01*
X200145057Y-186314343D01*
X200216485Y-186171486D01*
X200216485Y-186100057D01*
X200145057Y-185957200D01*
X200002200Y-185885771D01*
X199787914Y-185885771D01*
X199645057Y-185814343D01*
X199573628Y-185671486D01*
X199573628Y-185600057D01*
X199645057Y-185457200D01*
X199787914Y-185385771D01*
X200002200Y-185385771D01*
X200145057Y-185457200D01*
X201430771Y-186314343D02*
X201287914Y-186385771D01*
X201002200Y-186385771D01*
X200859343Y-186314343D01*
X200787914Y-186171486D01*
X200787914Y-185600057D01*
X200859343Y-185457200D01*
X201002200Y-185385771D01*
X201287914Y-185385771D01*
X201430771Y-185457200D01*
X201502200Y-185600057D01*
X201502200Y-185742914D01*
X200787914Y-185885771D01*
X202145057Y-186385771D02*
X202145057Y-185385771D01*
X202145057Y-185671486D02*
X202216485Y-185528629D01*
X202287914Y-185457200D01*
X202430771Y-185385771D01*
X202573628Y-185385771D01*
X203073628Y-186242914D02*
X203145056Y-186314343D01*
X203073628Y-186385771D01*
X203002199Y-186314343D01*
X203073628Y-186242914D01*
X203073628Y-186385771D01*
X203787914Y-186385771D02*
X203787914Y-184885771D01*
X203930771Y-185814343D02*
X204359342Y-186385771D01*
X204359342Y-185385771D02*
X203787914Y-185957200D01*
X205002200Y-186385771D02*
X205002200Y-185385771D01*
X205002200Y-184885771D02*
X204930771Y-184957200D01*
X205002200Y-185028629D01*
X205073628Y-184957200D01*
X205002200Y-184885771D01*
X205002200Y-185028629D01*
X206359343Y-186314343D02*
X206216486Y-186385771D01*
X205930772Y-186385771D01*
X205787914Y-186314343D01*
X205716486Y-186242914D01*
X205645057Y-186100057D01*
X205645057Y-185671486D01*
X205716486Y-185528629D01*
X205787914Y-185457200D01*
X205930772Y-185385771D01*
X206216486Y-185385771D01*
X206359343Y-185457200D01*
X207645057Y-186385771D02*
X207645057Y-185600057D01*
X207573628Y-185457200D01*
X207430771Y-185385771D01*
X207145057Y-185385771D01*
X207002200Y-185457200D01*
X207645057Y-186314343D02*
X207502200Y-186385771D01*
X207145057Y-186385771D01*
X207002200Y-186314343D01*
X206930771Y-186171486D01*
X206930771Y-186028629D01*
X207002200Y-185885771D01*
X207145057Y-185814343D01*
X207502200Y-185814343D01*
X207645057Y-185742914D01*
X209002200Y-186385771D02*
X209002200Y-184885771D01*
X209002200Y-186314343D02*
X208859343Y-186385771D01*
X208573629Y-186385771D01*
X208430771Y-186314343D01*
X208359343Y-186242914D01*
X208287914Y-186100057D01*
X208287914Y-185671486D01*
X208359343Y-185528629D01*
X208430771Y-185457200D01*
X208573629Y-185385771D01*
X208859343Y-185385771D01*
X209002200Y-185457200D01*
X209359343Y-186528629D02*
X210502200Y-186528629D01*
X210859343Y-185385771D02*
X210859343Y-186885771D01*
X210859343Y-185457200D02*
X211002200Y-185385771D01*
X211287914Y-185385771D01*
X211430771Y-185457200D01*
X211502200Y-185528629D01*
X211573629Y-185671486D01*
X211573629Y-186100057D01*
X211502200Y-186242914D01*
X211430771Y-186314343D01*
X211287914Y-186385771D01*
X211002200Y-186385771D01*
X210859343Y-186314343D01*
X212859343Y-186314343D02*
X212716486Y-186385771D01*
X212430772Y-186385771D01*
X212287914Y-186314343D01*
X212216486Y-186242914D01*
X212145057Y-186100057D01*
X212145057Y-185671486D01*
X212216486Y-185528629D01*
X212287914Y-185457200D01*
X212430772Y-185385771D01*
X212716486Y-185385771D01*
X212859343Y-185457200D01*
X213502200Y-186385771D02*
X213502200Y-184885771D01*
X213502200Y-185457200D02*
X213645057Y-185385771D01*
X213930771Y-185385771D01*
X214073628Y-185457200D01*
X214145057Y-185528629D01*
X214216486Y-185671486D01*
X214216486Y-186100057D01*
X214145057Y-186242914D01*
X214073628Y-186314343D01*
X213930771Y-186385771D01*
X213645057Y-186385771D01*
X213502200Y-186314343D01*
D10*
D11*
X177002200Y-181507200D02*
X285002200Y-181507200D01*
D10*
D11*
X178287914Y-183614343D02*
X178502200Y-183685771D01*
X178859343Y-183685771D01*
X179002200Y-183614343D01*
X179073629Y-183542914D01*
X179145057Y-183400057D01*
X179145057Y-183257200D01*
X179073629Y-183114343D01*
X179002200Y-183042914D01*
X178859343Y-182971486D01*
X178573629Y-182900057D01*
X178430771Y-182828629D01*
X178359343Y-182757200D01*
X178287914Y-182614343D01*
X178287914Y-182471486D01*
X178359343Y-182328629D01*
X178430771Y-182257200D01*
X178573629Y-182185771D01*
X178930771Y-182185771D01*
X179145057Y-182257200D01*
X179787914Y-183685771D02*
X179787914Y-182185771D01*
X180430771Y-183685771D02*
X180430771Y-182900057D01*
X180359342Y-182757200D01*
X180216485Y-182685771D01*
X180002200Y-182685771D01*
X179859342Y-182757200D01*
X179787914Y-182828629D01*
X181716485Y-183614343D02*
X181573628Y-183685771D01*
X181287914Y-183685771D01*
X181145057Y-183614343D01*
X181073628Y-183471486D01*
X181073628Y-182900057D01*
X181145057Y-182757200D01*
X181287914Y-182685771D01*
X181573628Y-182685771D01*
X181716485Y-182757200D01*
X181787914Y-182900057D01*
X181787914Y-183042914D01*
X181073628Y-183185771D01*
X183002199Y-183614343D02*
X182859342Y-183685771D01*
X182573628Y-183685771D01*
X182430771Y-183614343D01*
X182359342Y-183471486D01*
X182359342Y-182900057D01*
X182430771Y-182757200D01*
X182573628Y-182685771D01*
X182859342Y-182685771D01*
X183002199Y-182757200D01*
X183073628Y-182900057D01*
X183073628Y-183042914D01*
X182359342Y-183185771D01*
X183502199Y-182685771D02*
X184073628Y-182685771D01*
X183716485Y-182185771D02*
X183716485Y-183471486D01*
X183787913Y-183614343D01*
X183930771Y-183685771D01*
X184073628Y-183685771D01*
X184573628Y-183542914D02*
X184645056Y-183614343D01*
X184573628Y-183685771D01*
X184502199Y-183614343D01*
X184573628Y-183542914D01*
X184573628Y-183685771D01*
X184573628Y-182757200D02*
X184645056Y-182828629D01*
X184573628Y-182900057D01*
X184502199Y-182828629D01*
X184573628Y-182757200D01*
X184573628Y-182900057D01*
D10*
D11*
X197002200Y-191507200D02*
X197002200Y-194507200D01*
D10*
D11*
X261002200Y-191507200D02*
X261002200Y-198007200D01*
D12*
X84892857Y-71571428D02*
X84964286Y-71357142D01*
X85035714Y-71285714D01*
X85178571Y-71214285D01*
X85392857Y-71214285D01*
X85535714Y-71285714D01*
X85607143Y-71357142D01*
X85678571Y-71500000D01*
X85678571Y-72071428D01*
X84178571Y-72071428D01*
X84178571Y-71571428D01*
X84250000Y-71428571D01*
X84321429Y-71357142D01*
X84464286Y-71285714D01*
X84607143Y-71285714D01*
X84750000Y-71357142D01*
X84821429Y-71428571D01*
X84892857Y-71571428D01*
X84892857Y-72071428D01*
X85678571Y-70571428D02*
X84178571Y-70571428D01*
X84178571Y-70000000D01*
X84250000Y-69857142D01*
X84321429Y-69785714D01*
X84464286Y-69714285D01*
X84678571Y-69714285D01*
X84821429Y-69785714D01*
X84892857Y-69857142D01*
X84964286Y-70000000D01*
X84964286Y-70571428D01*
X85678571Y-69071428D02*
X84178571Y-69071428D01*
X85107143Y-68357142D02*
X85107143Y-67214285D01*
X85678571Y-65642856D02*
X84964286Y-66142856D01*
X85678571Y-66499999D02*
X84178571Y-66499999D01*
X84178571Y-65928571D01*
X84250000Y-65785713D01*
X84321429Y-65714285D01*
X84464286Y-65642856D01*
X84678571Y-65642856D01*
X84821429Y-65714285D01*
X84892857Y-65785713D01*
X84964286Y-65928571D01*
X84964286Y-66499999D01*
X85678571Y-64214285D02*
X85678571Y-65071428D01*
X85678571Y-64642856D02*
X84178571Y-64642856D01*
X84392857Y-64785713D01*
X84535714Y-64928571D01*
X84607143Y-65071428D01*
X85107143Y-63571428D02*
X85107143Y-62428571D01*
X85535714Y-60857142D02*
X85607143Y-60928571D01*
X85678571Y-61142857D01*
X85678571Y-61285714D01*
X85607143Y-61499999D01*
X85464286Y-61642857D01*
X85321429Y-61714285D01*
X85035714Y-61785714D01*
X84821429Y-61785714D01*
X84535714Y-61714285D01*
X84392857Y-61642857D01*
X84250000Y-61499999D01*
X84178571Y-61285714D01*
X84178571Y-61142857D01*
X84250000Y-60928571D01*
X84321429Y-60857142D01*
X85250000Y-60285714D02*
X85250000Y-59571428D01*
X85678571Y-60428571D02*
X84178571Y-59928571D01*
X85678571Y-59428571D01*
X85678571Y-58928571D02*
X84178571Y-58928571D01*
X85678571Y-58071428D01*
X84178571Y-58071428D01*
X85107143Y-57357142D02*
X85107143Y-56214285D01*
X85607143Y-55571428D02*
X85678571Y-55357142D01*
X85678571Y-54999999D01*
X85607143Y-54857142D01*
X85535714Y-54785713D01*
X85392857Y-54714285D01*
X85250000Y-54714285D01*
X85107143Y-54785713D01*
X85035714Y-54857142D01*
X84964286Y-54999999D01*
X84892857Y-55285713D01*
X84821429Y-55428571D01*
X84750000Y-55499999D01*
X84607143Y-55571428D01*
X84464286Y-55571428D01*
X84321429Y-55499999D01*
X84250000Y-55428571D01*
X84178571Y-55285713D01*
X84178571Y-54928571D01*
X84250000Y-54714285D01*
X84892857Y-54071428D02*
X84892857Y-53571428D01*
X85678571Y-53357142D02*
X85678571Y-54071428D01*
X84178571Y-54071428D01*
X84178571Y-53357142D01*
X85678571Y-51857142D02*
X84964286Y-52357142D01*
X85678571Y-52714285D02*
X84178571Y-52714285D01*
X84178571Y-52142857D01*
X84250000Y-51999999D01*
X84321429Y-51928571D01*
X84464286Y-51857142D01*
X84678571Y-51857142D01*
X84821429Y-51928571D01*
X84892857Y-51999999D01*
X84964286Y-52142857D01*
X84964286Y-52714285D01*
D14*
X94463600Y-145200000D03*
D15*
X91923600Y-145200000D03*
D16*
X68620000Y-55650000D03*
X80490000Y-55650000D03*
D17*
X79000000Y-62000000D03*
D18*
X77730000Y-64540000D03*
X76460000Y-62000000D03*
X75190000Y-64540000D03*
X73920000Y-62000000D03*
X72650000Y-64540000D03*
X71380000Y-62000000D03*
X70110000Y-64540000D03*
D19*
X98270000Y-111000000D03*
X97000000Y-111000000D03*
X95730000Y-111000000D03*
X98270000Y-115000000D03*
X97000000Y-115000000D03*
X95730000Y-115000000D03*
D20*
X74500000Y-69770000D03*
X74500000Y-68500000D03*
X74500000Y-67230000D03*
X78000000Y-69770000D03*
X78000000Y-68500000D03*
X78000000Y-67230000D03*
D14*
X74700000Y-98660000D03*
D15*
X74700000Y-101200000D03*
X72160000Y-98660000D03*
X72160000Y-101200000D03*
D21*
X75540000Y-146000000D03*
D22*
X70460000Y-146000000D03*
D21*
X73000000Y-146000000D03*
X107540000Y-146000000D03*
D22*
X99920000Y-146000000D03*
D21*
X102460000Y-146000000D03*
X105000000Y-146000000D03*
D23*
X75605000Y-89300000D03*
X74335000Y-89300000D03*
X73065000Y-89300000D03*
X71795000Y-89300000D03*
X71795000Y-94700000D03*
X73065000Y-94700000D03*
X74335000Y-94700000D03*
X75605000Y-94700000D03*
D24*
X107540000Y-132000000D03*
D25*
X99920000Y-139620000D03*
X105000000Y-132000000D03*
X102460000Y-139620000D03*
X102460000Y-132000000D03*
X105000000Y-139620000D03*
X99920000Y-132000000D03*
X107540000Y-139620000D03*
D14*
X81320000Y-148040000D03*
D15*
X81320000Y-145500000D03*
X83860000Y-148040000D03*
X83860000Y-145500000D03*
X86400000Y-148040000D03*
X86400000Y-145500000D03*
X88940000Y-148040000D03*
X88940000Y-145500000D03*
D14*
X64478900Y-71242680D03*
D15*
X67018900Y-71242680D03*
X64478900Y-73782680D03*
X67018900Y-73782680D03*
X64478900Y-76322680D03*
X67018900Y-76322680D03*
X64478900Y-78862680D03*
X67018900Y-78862680D03*
X64478900Y-81402680D03*
X67018900Y-81402680D03*
X64478900Y-83942680D03*
X67018900Y-83942680D03*
X64478900Y-86482680D03*
X67018900Y-86482680D03*
X64478900Y-89022680D03*
X67018900Y-89022680D03*
X64478900Y-91562680D03*
X67018900Y-91562680D03*
X64478900Y-94102680D03*
X67018900Y-94102680D03*
X64478900Y-96642680D03*
X67018900Y-96642680D03*
X64478900Y-99182680D03*
X67018900Y-99182680D03*
X64478900Y-101722680D03*
X67018900Y-101722680D03*
D26*
X74000000Y-112360000D03*
X74000000Y-137760000D03*
D27*
X76540000Y-130650000D03*
D28*
X76540000Y-127860000D03*
X76540000Y-125190000D03*
X76540000Y-122390000D03*
X76540000Y-119600000D03*
X74000000Y-129250000D03*
X74000000Y-126460000D03*
X74000000Y-123790000D03*
X74000000Y-121000000D03*
D29*
X86300000Y-131555000D03*
X86300000Y-132825000D03*
X86300000Y-134095000D03*
X86300000Y-135365000D03*
X86300000Y-136635000D03*
X86300000Y-137905000D03*
X86300000Y-139175000D03*
X86300000Y-140445000D03*
X91700000Y-140445000D03*
X91700000Y-139175000D03*
X91700000Y-137905000D03*
X91700000Y-136635000D03*
X91700000Y-135365000D03*
X91700000Y-134095000D03*
X91700000Y-132825000D03*
X91700000Y-131555000D03*
D30*
X84000000Y-132000000D03*
X84000000Y-133500000D03*
X84000000Y-135250000D03*
X84000000Y-136750000D03*
D31*
X88250000Y-129700000D03*
X89750000Y-129700000D03*
D30*
X84000000Y-138450000D03*
X84000000Y-139950000D03*
D32*
X69450000Y-87300000D03*
X70950000Y-87300000D03*
D33*
X77450000Y-105000000D03*
X74550000Y-105000000D03*
X72450000Y-105000000D03*
X69550000Y-105000000D03*
D32*
X107550000Y-129600000D03*
X106050000Y-129600000D03*
X101000000Y-129600000D03*
X99500000Y-129600000D03*
D30*
X93000000Y-129650000D03*
X93000000Y-128150000D03*
X91400000Y-129650000D03*
X91400000Y-128150000D03*
D26*
X104000000Y-125020000D03*
X104000000Y-100000000D03*
D27*
X102600000Y-107110000D03*
D28*
X102600000Y-109780000D03*
X102600000Y-112570000D03*
X102600000Y-115240000D03*
X102600000Y-118030000D03*
X105390000Y-108380000D03*
X105390000Y-111170000D03*
X105390000Y-113840000D03*
X105390000Y-116640000D03*
D30*
X70000000Y-94750000D03*
X70000000Y-93250000D03*
D14*
X71000000Y-71210000D03*
D15*
X71000000Y-73750000D03*
X71000000Y-76290000D03*
D14*
X75250000Y-77710000D03*
D15*
X77790000Y-77710000D03*
X75250000Y-80250000D03*
X77790000Y-80250000D03*
X75250000Y-82790000D03*
X77790000Y-82790000D03*
D34*
X82500000Y-140000000D03*
X82800000Y-143000000D03*
X84000000Y-141600000D03*
X105000000Y-129600000D03*
X98500000Y-129750000D03*
X97000000Y-113000000D03*
X76500000Y-68000000D03*
X83000000Y-70000000D03*
X90000000Y-136000000D03*
X79500000Y-67500000D03*
X89000000Y-137000000D03*
X70000000Y-96500000D03*
D35*
X86300000Y-131555000D02*
X84445000Y-131555000D01*
X84445000Y-131555000D02*
X84000000Y-132000000D01*
X86300000Y-134095000D02*
X84595000Y-134095000D01*
X84595000Y-134095000D02*
X84000000Y-133500000D01*
X86300000Y-135365000D02*
X84115000Y-135365000D01*
X84115000Y-135365000D02*
X84000000Y-135250000D01*
X86300000Y-136635000D02*
X84115000Y-136635000D01*
X84115000Y-136635000D02*
X84000000Y-136750000D01*
X81320000Y-144297919D02*
X81320000Y-145500000D01*
X81320000Y-133319998D02*
X81320000Y-144297919D01*
X93000000Y-129650000D02*
X93000000Y-130255000D01*
X93000000Y-130255000D02*
X91700000Y-131555000D01*
X91400000Y-129650000D02*
X93000000Y-129650000D01*
X91350000Y-129700000D02*
X91400000Y-129650000D01*
X63303899Y-71317681D02*
X63303899Y-91500000D01*
X63303899Y-91500000D02*
X63303899Y-130364301D01*
X64478900Y-91562680D02*
X63366579Y-91562680D01*
X63366579Y-91562680D02*
X63303899Y-91500000D01*
X64478900Y-71242680D02*
X63378900Y-71242680D01*
X63378900Y-71242680D02*
X63303899Y-71317681D01*
X63303899Y-130364301D02*
X78439598Y-145500000D01*
X78439598Y-145500000D02*
X80117919Y-145500000D01*
X80117919Y-145500000D02*
X81320000Y-145500000D01*
X73065000Y-89775000D02*
X72040000Y-90800000D01*
X72040000Y-90800000D02*
X69700000Y-90800000D01*
X69700000Y-90800000D02*
X67762319Y-92737681D01*
X73065000Y-89300000D02*
X73065000Y-89775000D01*
X65328899Y-92412679D02*
X64478900Y-91562680D01*
X67762319Y-92737681D02*
X65653901Y-92737681D01*
X65653901Y-92737681D02*
X65328899Y-92412679D01*
X91700000Y-131555000D02*
X91250000Y-131555000D01*
X85639999Y-128999999D02*
X81320000Y-133319998D01*
X89024999Y-128999999D02*
X85639999Y-128999999D01*
X89750000Y-129700000D02*
X89725000Y-129700000D01*
X89725000Y-129700000D02*
X89024999Y-128999999D01*
X89750000Y-129700000D02*
X91350000Y-129700000D01*
X91250000Y-131555000D02*
X89750000Y-130055000D01*
X89750000Y-130055000D02*
X89750000Y-129700000D01*
X82800000Y-143000000D02*
X82500000Y-142700000D01*
X82500000Y-142700000D02*
X82500000Y-140000000D01*
X84000000Y-139950000D02*
X84000000Y-141600000D01*
X102450000Y-131990000D02*
X102460000Y-132000000D01*
X67018900Y-71242680D02*
X67018900Y-72444761D01*
X67018900Y-72444761D02*
X67018900Y-73782680D01*
X67018900Y-71242680D02*
X65843899Y-70067679D01*
X65843899Y-70067679D02*
X63368899Y-70067679D01*
X63368899Y-70067679D02*
X62853890Y-70582688D01*
X62853890Y-70582688D02*
X62853890Y-130673890D01*
X62853890Y-130673890D02*
X80220000Y-148040000D01*
X80220000Y-148040000D02*
X81320000Y-148040000D01*
X106050000Y-129600000D02*
X105000000Y-129600000D01*
X83860000Y-145500000D02*
X88915000Y-140445000D01*
X88915000Y-140445000D02*
X91700000Y-140445000D01*
X98500000Y-129750000D02*
X99350000Y-129750000D01*
X99350000Y-129750000D02*
X99500000Y-129600000D01*
X99499999Y-129599999D02*
X99500000Y-129600000D01*
X91700000Y-139175000D02*
X92700000Y-139175000D01*
X92700000Y-139175000D02*
X93500000Y-139975000D01*
X93500000Y-141500000D02*
X91500000Y-143500000D01*
X88400000Y-143500000D02*
X86400000Y-145500000D01*
X93500000Y-139975000D02*
X93500000Y-141500000D01*
X91500000Y-143500000D02*
X88400000Y-143500000D01*
X91700000Y-136635000D02*
X92700000Y-136635000D01*
X92700000Y-136635000D02*
X94463600Y-138398600D01*
X94463600Y-138398600D02*
X94463600Y-144100000D01*
X94463600Y-144100000D02*
X94463600Y-145200000D01*
X91700000Y-137905000D02*
X92150000Y-137905000D01*
X92150000Y-137905000D02*
X93950009Y-139705009D01*
X93950009Y-139705009D02*
X93950009Y-143173591D01*
X93950009Y-143173591D02*
X92773599Y-144350001D01*
X92773599Y-144350001D02*
X91923600Y-145200000D01*
X67018900Y-89022680D02*
X68741580Y-87300000D01*
X68741580Y-87300000D02*
X69350000Y-87300000D01*
X67018900Y-91562680D02*
X69281580Y-89300000D01*
X69281580Y-89300000D02*
X71795000Y-89300000D01*
X102600000Y-109780000D02*
X97335000Y-109780000D01*
X97335000Y-109780000D02*
X97000000Y-110115000D01*
X97000000Y-110115000D02*
X97000000Y-111000000D01*
X97000000Y-115000000D02*
X97000000Y-113000000D01*
X76500000Y-68000000D02*
X77000000Y-68500000D01*
X77000000Y-68500000D02*
X78000000Y-68500000D01*
X74500000Y-68500000D02*
X73615000Y-68500000D01*
X72650000Y-65600660D02*
X72650000Y-64540000D01*
X73615000Y-68500000D02*
X72650000Y-67535000D01*
X72650000Y-67535000D02*
X72650000Y-65600660D01*
X72600000Y-64590000D02*
X72650000Y-64540000D01*
X92700000Y-135365000D02*
X97500000Y-130565000D01*
X98270000Y-115000000D02*
X98270000Y-115885000D01*
X98270000Y-115885000D02*
X97500000Y-116655000D01*
X97500000Y-116655000D02*
X97500000Y-130565000D01*
X91700000Y-135365000D02*
X92700000Y-135365000D01*
X98270000Y-111000000D02*
X98270000Y-111885000D01*
X98270000Y-111885000D02*
X98270000Y-115000000D01*
X91700000Y-135365000D02*
X92150000Y-135365000D01*
X96500000Y-116655000D02*
X96500000Y-129500000D01*
X92905000Y-134095000D02*
X96500000Y-130500000D01*
X96500000Y-129500000D02*
X96500000Y-129745000D01*
X96500000Y-130500000D02*
X96500000Y-129500000D01*
X91700000Y-134095000D02*
X92905000Y-134095000D01*
X95730000Y-115000000D02*
X95730000Y-115885000D01*
X95730000Y-115885000D02*
X96500000Y-116655000D01*
X92150000Y-134095000D02*
X91700000Y-134095000D01*
X95730000Y-111000000D02*
X95730000Y-111885000D01*
X95730000Y-111885000D02*
X95730000Y-115000000D01*
X78000000Y-69770000D02*
X82770000Y-69770000D01*
X82770000Y-69770000D02*
X83000000Y-70000000D01*
X74500000Y-69770000D02*
X75385000Y-69770000D01*
X75385000Y-69770000D02*
X78000000Y-69770000D01*
X86300000Y-140445000D02*
X86750000Y-140445000D01*
X86750000Y-140445000D02*
X90000000Y-137195000D01*
X90000000Y-137195000D02*
X90000000Y-136000000D01*
X78000000Y-67230000D02*
X79230000Y-67230000D01*
X79230000Y-67230000D02*
X79500000Y-67500000D01*
X74500000Y-67230000D02*
X75385000Y-67230000D01*
X75385000Y-67230000D02*
X78000000Y-67230000D01*
X86300000Y-139175000D02*
X86750000Y-139175000D01*
X86750000Y-139175000D02*
X88925000Y-137000000D01*
X88925000Y-137000000D02*
X89000000Y-137000000D01*
D36*
X74550000Y-105000000D02*
X74550000Y-101350000D01*
X74550000Y-101350000D02*
X74700000Y-101200000D01*
X72450000Y-105000000D02*
X72450000Y-101490000D01*
X72450000Y-101490000D02*
X72160000Y-101200000D01*
X107540000Y-139620000D02*
X107540000Y-146000000D01*
X99920000Y-139620000D02*
X99920000Y-146000000D01*
X102460000Y-139620000D02*
X102460000Y-146000000D01*
X105000000Y-139620000D02*
X105000000Y-146000000D01*
D35*
X70850000Y-87300000D02*
X73900000Y-87300000D01*
X73900000Y-87300000D02*
X74380000Y-87300000D01*
X75605000Y-89300000D02*
X75605000Y-88275000D01*
X75605000Y-88275000D02*
X74630000Y-87300000D01*
X74630000Y-87300000D02*
X73900000Y-87300000D01*
X107550000Y-129600000D02*
X107550000Y-131990000D01*
X107550000Y-131990000D02*
X107540000Y-132000000D01*
X101000000Y-129600000D02*
X101000000Y-130920000D01*
X101000000Y-130920000D02*
X99920000Y-132000000D01*
D36*
X69550000Y-99190000D02*
X69550000Y-99500000D01*
X73065000Y-94700000D02*
X73065000Y-95175000D01*
X69550000Y-99500000D02*
X69550000Y-103250000D01*
X73065000Y-95175000D02*
X69550000Y-98690000D01*
X69550000Y-98690000D02*
X69550000Y-99500000D01*
X69550000Y-103250000D02*
X69550000Y-105000000D01*
X73000000Y-127250802D02*
X73609198Y-127860000D01*
X71644999Y-125895801D02*
X73000000Y-127250802D01*
X73000000Y-127250802D02*
X69550000Y-123800802D01*
X69550000Y-123800802D02*
X69550000Y-105000000D01*
X73609198Y-127860000D02*
X75465198Y-127860000D01*
X75465198Y-127860000D02*
X76540000Y-127860000D01*
X74335000Y-94700000D02*
X74335000Y-95175000D01*
X74335000Y-95175000D02*
X77450000Y-98290000D01*
X77450000Y-98290000D02*
X77450000Y-103250000D01*
X77450000Y-103250000D02*
X77450000Y-105000000D01*
X77450000Y-105000000D02*
X77450000Y-116899198D01*
X74759999Y-125700001D02*
X74000000Y-126460000D01*
X77450000Y-116899198D02*
X75210001Y-119139197D01*
X75210001Y-125249999D02*
X74759999Y-125700001D01*
X75210001Y-119139197D02*
X75210001Y-125249999D01*
X70000000Y-96500000D02*
X70000000Y-95000000D01*
X70000000Y-95000000D02*
X71495000Y-95000000D01*
X71495000Y-95000000D02*
X71795000Y-94700000D01*
X74740000Y-98700000D02*
X74700000Y-98660000D01*
X74700000Y-98660000D02*
X72160000Y-98660000D01*
D35*
X88250000Y-130325000D02*
X88250000Y-129700000D01*
X88250000Y-131325000D02*
X88250000Y-130325000D01*
X86300000Y-132825000D02*
X86750000Y-132825000D01*
X86750000Y-132825000D02*
X88250000Y-131325000D01*
X84545000Y-137905000D02*
X84000000Y-138450000D01*
X86300000Y-137905000D02*
X84545000Y-137905000D01*
D37*
G36*
X87290000Y-70000000D02*
X87344046Y-70271705D01*
X87497954Y-70502046D01*
X87728295Y-70655954D01*
X88000000Y-70710000D01*
X97000000Y-70710000D01*
X97271705Y-70655954D01*
X97502046Y-70502046D01*
X97655954Y-70271705D01*
X97710000Y-70000000D01*
X97710000Y-50710000D01*
X109290000Y-50710000D01*
X109290000Y-134873000D01*
X97000000Y-134873000D01*
X96952211Y-134882334D01*
X96910197Y-134910197D01*
X95910197Y-135910197D01*
X95883006Y-135950590D01*
X95873000Y-136000000D01*
X95873000Y-144046675D01*
X95777690Y-143898559D01*
X95565490Y-143753569D01*
X95313600Y-143702560D01*
X95223600Y-143702560D01*
X95223600Y-138398600D01*
X95165748Y-138107761D01*
X95001001Y-137861199D01*
X93237401Y-136097599D01*
X93091333Y-136000000D01*
X93237401Y-135902401D01*
X98037401Y-131102401D01*
X98202148Y-130855839D01*
X98242040Y-130655289D01*
X98313201Y-130684838D01*
X98685167Y-130685162D01*
X98915504Y-130589989D01*
X98998110Y-130646431D01*
X99250000Y-130697440D01*
X99294043Y-130697440D01*
X98905302Y-130957189D01*
X98594233Y-131422736D01*
X98485000Y-131971887D01*
X98485000Y-132028113D01*
X98594233Y-132577264D01*
X98905302Y-133042811D01*
X99370849Y-133353880D01*
X99920000Y-133463113D01*
X100469151Y-133353880D01*
X100934698Y-133042811D01*
X101204986Y-132638297D01*
X101307611Y-132855134D01*
X101722577Y-133231041D01*
X102110961Y-133391904D01*
X102333000Y-133269915D01*
X102333000Y-132127000D01*
X102587000Y-132127000D01*
X102587000Y-133269915D01*
X102809039Y-133391904D01*
X103197423Y-133231041D01*
X103612389Y-132855134D01*
X103730000Y-132606633D01*
X103847611Y-132855134D01*
X104262577Y-133231041D01*
X104650961Y-133391904D01*
X104873000Y-133269915D01*
X104873000Y-132127000D01*
X102587000Y-132127000D01*
X102333000Y-132127000D01*
X102313000Y-132127000D01*
X102313000Y-131873000D01*
X102333000Y-131873000D01*
X102333000Y-130730085D01*
X102587000Y-130730085D01*
X102587000Y-131873000D01*
X104873000Y-131873000D01*
X104873000Y-130730085D01*
X104650961Y-130608096D01*
X104262577Y-130768959D01*
X103847611Y-131144866D01*
X103730000Y-131393367D01*
X103612389Y-131144866D01*
X103197423Y-130768959D01*
X102809039Y-130608096D01*
X102587000Y-130730085D01*
X102333000Y-130730085D01*
X102110961Y-130608096D01*
X101760000Y-130753459D01*
X101760000Y-130428386D01*
X101846431Y-130301890D01*
X101897440Y-130050000D01*
X101897440Y-129785167D01*
X104064838Y-129785167D01*
X104206883Y-130128943D01*
X104469673Y-130392192D01*
X104813201Y-130534838D01*
X105185167Y-130535162D01*
X105321390Y-130478876D01*
X105335910Y-130501441D01*
X105548110Y-130646431D01*
X105800000Y-130697440D01*
X106300000Y-130697440D01*
X106368321Y-130684584D01*
X106288559Y-130735910D01*
X106143569Y-130948110D01*
X106111268Y-131107616D01*
X105737423Y-130768959D01*
X105349039Y-130608096D01*
X105127000Y-130730085D01*
X105127000Y-131873000D01*
X105147000Y-131873000D01*
X105147000Y-132127000D01*
X105127000Y-132127000D01*
X105127000Y-133269915D01*
X105349039Y-133391904D01*
X105737423Y-133231041D01*
X106110136Y-132893410D01*
X106136838Y-133035317D01*
X106275910Y-133251441D01*
X106488110Y-133396431D01*
X106740000Y-133447440D01*
X108340000Y-133447440D01*
X108575317Y-133403162D01*
X108791441Y-133264090D01*
X108936431Y-133051890D01*
X108987440Y-132800000D01*
X108987440Y-131200000D01*
X108943162Y-130964683D01*
X108804090Y-130748559D01*
X108591890Y-130603569D01*
X108340000Y-130552560D01*
X108310000Y-130552560D01*
X108310000Y-130428386D01*
X108396431Y-130301890D01*
X108447440Y-130050000D01*
X108447440Y-129150000D01*
X108403162Y-128914683D01*
X108264090Y-128698559D01*
X108051890Y-128553569D01*
X107800000Y-128502560D01*
X107300000Y-128502560D01*
X107064683Y-128546838D01*
X106848559Y-128685910D01*
X106800866Y-128755711D01*
X106764090Y-128698559D01*
X106551890Y-128553569D01*
X106300000Y-128502560D01*
X105800000Y-128502560D01*
X105564683Y-128546838D01*
X105348559Y-128685910D01*
X105323851Y-128722071D01*
X105186799Y-128665162D01*
X104814833Y-128664838D01*
X104471057Y-128806883D01*
X104207808Y-129069673D01*
X104065162Y-129413201D01*
X104064838Y-129785167D01*
X101897440Y-129785167D01*
X101897440Y-129150000D01*
X101853162Y-128914683D01*
X101714090Y-128698559D01*
X101501890Y-128553569D01*
X101250000Y-128502560D01*
X100750000Y-128502560D01*
X100514683Y-128546838D01*
X100298559Y-128685910D01*
X100250866Y-128755711D01*
X100214090Y-128698559D01*
X100001890Y-128553569D01*
X99750000Y-128502560D01*
X99250000Y-128502560D01*
X99014683Y-128546838D01*
X98798559Y-128685910D01*
X98705063Y-128822746D01*
X98686799Y-128815162D01*
X98314833Y-128814838D01*
X98260000Y-128837494D01*
X98260000Y-126826440D01*
X102373165Y-126826440D01*
X102582353Y-127187289D01*
X103519650Y-127564824D01*
X104530077Y-127554933D01*
X105417647Y-127187289D01*
X105626835Y-126826440D01*
X104000000Y-125199605D01*
X102373165Y-126826440D01*
X98260000Y-126826440D01*
X98260000Y-124539650D01*
X101455176Y-124539650D01*
X101465067Y-125550077D01*
X101832711Y-126437647D01*
X102193560Y-126646835D01*
X103820395Y-125020000D01*
X104179605Y-125020000D01*
X105806440Y-126646835D01*
X106167289Y-126437647D01*
X106544824Y-125500350D01*
X106534933Y-124489923D01*
X106167289Y-123602353D01*
X105806440Y-123393165D01*
X104179605Y-125020000D01*
X103820395Y-125020000D01*
X102193560Y-123393165D01*
X101832711Y-123602353D01*
X101455176Y-124539650D01*
X98260000Y-124539650D01*
X98260000Y-123213560D01*
X102373165Y-123213560D01*
X104000000Y-124840395D01*
X105626835Y-123213560D01*
X105417647Y-122852711D01*
X104480350Y-122475176D01*
X103469923Y-122485067D01*
X102582353Y-122852711D01*
X102373165Y-123213560D01*
X98260000Y-123213560D01*
X98260000Y-119008764D01*
X101800841Y-119008764D01*
X101870059Y-119250742D01*
X102392780Y-119437155D01*
X102947049Y-119409341D01*
X103329941Y-119250742D01*
X103399159Y-119008764D01*
X102600000Y-118209605D01*
X101800841Y-119008764D01*
X98260000Y-119008764D01*
X98260000Y-117822780D01*
X101192845Y-117822780D01*
X101220659Y-118377049D01*
X101379258Y-118759941D01*
X101621236Y-118829159D01*
X102420395Y-118030000D01*
X102779605Y-118030000D01*
X103578764Y-118829159D01*
X103820742Y-118759941D01*
X104007155Y-118237220D01*
X103979341Y-117682951D01*
X103820742Y-117300059D01*
X103578764Y-117230841D01*
X102779605Y-118030000D01*
X102420395Y-118030000D01*
X101621236Y-117230841D01*
X101379258Y-117300059D01*
X101192845Y-117822780D01*
X98260000Y-117822780D01*
X98260000Y-116969802D01*
X98807401Y-116422401D01*
X98921904Y-116251035D01*
X98990317Y-116238162D01*
X99206441Y-116099090D01*
X99351431Y-115886890D01*
X99402440Y-115635000D01*
X99402440Y-114365000D01*
X99358162Y-114129683D01*
X99219090Y-113913559D01*
X99030000Y-113784359D01*
X99030000Y-112212627D01*
X99206441Y-112099090D01*
X99351431Y-111886890D01*
X99402440Y-111635000D01*
X99402440Y-110540000D01*
X101404633Y-110540000D01*
X101416687Y-110569172D01*
X101808764Y-110961934D01*
X102321300Y-111174758D01*
X102323730Y-111174760D01*
X101810828Y-111386687D01*
X101418066Y-111778764D01*
X101205242Y-112291300D01*
X101204758Y-112846265D01*
X101416687Y-113359172D01*
X101808764Y-113751934D01*
X102177662Y-113905114D01*
X101810828Y-114056687D01*
X101418066Y-114448764D01*
X101205242Y-114961300D01*
X101204758Y-115516265D01*
X101416687Y-116029172D01*
X101808764Y-116421934D01*
X102321300Y-116634758D01*
X102565576Y-116634971D01*
X102252951Y-116650659D01*
X101870059Y-116809258D01*
X101800841Y-117051236D01*
X102600000Y-117850395D01*
X103399159Y-117051236D01*
X103360551Y-116916265D01*
X103994758Y-116916265D01*
X104206687Y-117429172D01*
X104598764Y-117821934D01*
X105111300Y-118034758D01*
X105666265Y-118035242D01*
X106179172Y-117823313D01*
X106571934Y-117431236D01*
X106784758Y-116918700D01*
X106785242Y-116363735D01*
X106573313Y-115850828D01*
X106181236Y-115458066D01*
X105668700Y-115245242D01*
X105113735Y-115244758D01*
X104600828Y-115456687D01*
X104208066Y-115848764D01*
X103995242Y-116361300D01*
X103994758Y-116916265D01*
X103360551Y-116916265D01*
X103329941Y-116809258D01*
X102841898Y-116635212D01*
X102876265Y-116635242D01*
X103389172Y-116423313D01*
X103781934Y-116031236D01*
X103994758Y-115518700D01*
X103995242Y-114963735D01*
X103783313Y-114450828D01*
X103391236Y-114058066D01*
X103022338Y-113904886D01*
X103389172Y-113753313D01*
X103781934Y-113361236D01*
X103994758Y-112848700D01*
X103995242Y-112293735D01*
X103783313Y-111780828D01*
X103391236Y-111388066D01*
X102878700Y-111175242D01*
X102876270Y-111175240D01*
X103389172Y-110963313D01*
X103781934Y-110571236D01*
X103994758Y-110058700D01*
X103995242Y-109503735D01*
X103783313Y-108990828D01*
X103449334Y-108656265D01*
X103994758Y-108656265D01*
X104206687Y-109169172D01*
X104598764Y-109561934D01*
X105111300Y-109774758D01*
X105113730Y-109774760D01*
X104600828Y-109986687D01*
X104208066Y-110378764D01*
X103995242Y-110891300D01*
X103994758Y-111446265D01*
X104206687Y-111959172D01*
X104598764Y-112351934D01*
X104967662Y-112505114D01*
X104600828Y-112656687D01*
X104208066Y-113048764D01*
X103995242Y-113561300D01*
X103994758Y-114116265D01*
X104206687Y-114629172D01*
X104598764Y-115021934D01*
X105111300Y-115234758D01*
X105666265Y-115235242D01*
X106179172Y-115023313D01*
X106571934Y-114631236D01*
X106784758Y-114118700D01*
X106785242Y-113563735D01*
X106573313Y-113050828D01*
X106181236Y-112658066D01*
X105812338Y-112504886D01*
X106179172Y-112353313D01*
X106571934Y-111961236D01*
X106784758Y-111448700D01*
X106785242Y-110893735D01*
X106573313Y-110380828D01*
X106181236Y-109988066D01*
X105668700Y-109775242D01*
X105666270Y-109775240D01*
X106179172Y-109563313D01*
X106571934Y-109171236D01*
X106784758Y-108658700D01*
X106785242Y-108103735D01*
X106573313Y-107590828D01*
X106181236Y-107198066D01*
X105668700Y-106985242D01*
X105113735Y-106984758D01*
X104600828Y-107196687D01*
X104208066Y-107588764D01*
X103995242Y-108101300D01*
X103994758Y-108656265D01*
X103449334Y-108656265D01*
X103391236Y-108598066D01*
X103197067Y-108517440D01*
X103360000Y-108517440D01*
X103595317Y-108473162D01*
X103811441Y-108334090D01*
X103956431Y-108121890D01*
X104007440Y-107870000D01*
X104007440Y-106350000D01*
X103963162Y-106114683D01*
X103824090Y-105898559D01*
X103611890Y-105753569D01*
X103360000Y-105702560D01*
X101840000Y-105702560D01*
X101604683Y-105746838D01*
X101388559Y-105885910D01*
X101243569Y-106098110D01*
X101192560Y-106350000D01*
X101192560Y-107870000D01*
X101236838Y-108105317D01*
X101375910Y-108321441D01*
X101588110Y-108466431D01*
X101840000Y-108517440D01*
X102002620Y-108517440D01*
X101810828Y-108596687D01*
X101418066Y-108988764D01*
X101405096Y-109020000D01*
X97335000Y-109020000D01*
X97044161Y-109077852D01*
X96797599Y-109242599D01*
X96462599Y-109577599D01*
X96350717Y-109745043D01*
X96215000Y-109717560D01*
X95245000Y-109717560D01*
X95009683Y-109761838D01*
X94793559Y-109900910D01*
X94648569Y-110113110D01*
X94597560Y-110365000D01*
X94597560Y-111635000D01*
X94641838Y-111870317D01*
X94780910Y-112086441D01*
X94970000Y-112215641D01*
X94970000Y-113787373D01*
X94793559Y-113900910D01*
X94648569Y-114113110D01*
X94597560Y-114365000D01*
X94597560Y-115635000D01*
X94641838Y-115870317D01*
X94780910Y-116086441D01*
X94993110Y-116231431D01*
X95076246Y-116248267D01*
X95192599Y-116422401D01*
X95740000Y-116969802D01*
X95740000Y-130185198D01*
X92949724Y-132975474D01*
X92926250Y-132952000D01*
X91827000Y-132952000D01*
X91827000Y-132972000D01*
X91573000Y-132972000D01*
X91573000Y-132952000D01*
X90473750Y-132952000D01*
X90315000Y-133110750D01*
X90315000Y-133251310D01*
X90404806Y-133468122D01*
X90353569Y-133543110D01*
X90302560Y-133795000D01*
X90302560Y-134395000D01*
X90346838Y-134630317D01*
X90410678Y-134729528D01*
X90353569Y-134813110D01*
X90302560Y-135065000D01*
X90302560Y-135113230D01*
X90186799Y-135065162D01*
X89814833Y-135064838D01*
X89471057Y-135206883D01*
X89207808Y-135469673D01*
X89065162Y-135813201D01*
X89064943Y-136065056D01*
X88814833Y-136064838D01*
X88471057Y-136206883D01*
X88207808Y-136469673D01*
X88085163Y-136765035D01*
X87610024Y-137240173D01*
X87646431Y-137186890D01*
X87697440Y-136935000D01*
X87697440Y-136335000D01*
X87653162Y-136099683D01*
X87589322Y-136000472D01*
X87646431Y-135916890D01*
X87697440Y-135665000D01*
X87697440Y-135065000D01*
X87653162Y-134829683D01*
X87589322Y-134730472D01*
X87646431Y-134646890D01*
X87697440Y-134395000D01*
X87697440Y-133795000D01*
X87653162Y-133559683D01*
X87589322Y-133460472D01*
X87646431Y-133376890D01*
X87697440Y-133125000D01*
X87697440Y-132952362D01*
X88787401Y-131862401D01*
X88952148Y-131615840D01*
X89010000Y-131325000D01*
X89010000Y-130611228D01*
X89098110Y-130671431D01*
X89340769Y-130720571D01*
X90302560Y-131682362D01*
X90302560Y-131855000D01*
X90346838Y-132090317D01*
X90405178Y-132180980D01*
X90315000Y-132398690D01*
X90315000Y-132539250D01*
X90473750Y-132698000D01*
X91573000Y-132698000D01*
X91573000Y-132678000D01*
X91827000Y-132678000D01*
X91827000Y-132698000D01*
X92926250Y-132698000D01*
X93085000Y-132539250D01*
X93085000Y-132398690D01*
X92995194Y-132181878D01*
X93046431Y-132106890D01*
X93097440Y-131855000D01*
X93097440Y-131255000D01*
X93093855Y-131235947D01*
X93537401Y-130792401D01*
X93645613Y-130630449D01*
X93826441Y-130514090D01*
X93971431Y-130301890D01*
X94022440Y-130050000D01*
X94022440Y-129250000D01*
X93978162Y-129014683D01*
X93911671Y-128911354D01*
X93913327Y-128909698D01*
X94010000Y-128676309D01*
X94010000Y-128435750D01*
X93851250Y-128277000D01*
X93127000Y-128277000D01*
X93127000Y-128297000D01*
X92873000Y-128297000D01*
X92873000Y-128277000D01*
X91527000Y-128277000D01*
X91527000Y-128297000D01*
X91273000Y-128297000D01*
X91273000Y-128277000D01*
X90548750Y-128277000D01*
X90390000Y-128435750D01*
X90390000Y-128676309D01*
X90415498Y-128737867D01*
X90401890Y-128728569D01*
X90150000Y-128677560D01*
X89777362Y-128677560D01*
X89562400Y-128462598D01*
X89315838Y-128297851D01*
X89024999Y-128239999D01*
X85639999Y-128239999D01*
X85349159Y-128297851D01*
X85102598Y-128462598D01*
X80782599Y-132782597D01*
X80617852Y-133029159D01*
X80560000Y-133319998D01*
X80560000Y-144227046D01*
X80269946Y-144420853D01*
X80056699Y-144740000D01*
X78754400Y-144740000D01*
X74314676Y-140300276D01*
X74503021Y-140300440D01*
X75436915Y-139914563D01*
X76152052Y-139200673D01*
X76539559Y-138267454D01*
X76540440Y-137256979D01*
X76154563Y-136323085D01*
X75440673Y-135607948D01*
X74507454Y-135220441D01*
X73496979Y-135219560D01*
X72563085Y-135605437D01*
X71847948Y-136319327D01*
X71460441Y-137252546D01*
X71460272Y-137445872D01*
X64243164Y-130228764D01*
X73200841Y-130228764D01*
X73270059Y-130470742D01*
X73792780Y-130657155D01*
X74347049Y-130629341D01*
X74729941Y-130470742D01*
X74799159Y-130228764D01*
X74000000Y-129429605D01*
X73200841Y-130228764D01*
X64243164Y-130228764D01*
X64063899Y-130049499D01*
X64063899Y-103750000D01*
X68452560Y-103750000D01*
X68452560Y-106250000D01*
X68496838Y-106485317D01*
X68635910Y-106701441D01*
X68665000Y-106721317D01*
X68665000Y-123800797D01*
X68664999Y-123800802D01*
X68721190Y-124083286D01*
X68732367Y-124139477D01*
X68900322Y-124390841D01*
X68924210Y-124426592D01*
X71019208Y-126521589D01*
X71019209Y-126521591D01*
X71709292Y-127211673D01*
X72374208Y-127876589D01*
X72374210Y-127876592D01*
X72964647Y-128467028D01*
X72779258Y-128520059D01*
X72592845Y-129042780D01*
X72620659Y-129597049D01*
X72779258Y-129979941D01*
X73021236Y-130049159D01*
X73820395Y-129250000D01*
X73806253Y-129235858D01*
X73985858Y-129056253D01*
X74000000Y-129070395D01*
X74014143Y-129056253D01*
X74193748Y-129235858D01*
X74179605Y-129250000D01*
X74978764Y-130049159D01*
X75132560Y-130005166D01*
X75132560Y-131410000D01*
X75176838Y-131645317D01*
X75315910Y-131861441D01*
X75528110Y-132006431D01*
X75780000Y-132057440D01*
X77300000Y-132057440D01*
X77535317Y-132013162D01*
X77751441Y-131874090D01*
X77896431Y-131661890D01*
X77947440Y-131410000D01*
X77947440Y-129890000D01*
X77903162Y-129654683D01*
X77764090Y-129438559D01*
X77551890Y-129293569D01*
X77300000Y-129242560D01*
X76846958Y-129242560D01*
X77329172Y-129043313D01*
X77721934Y-128651236D01*
X77934758Y-128138700D01*
X77935207Y-127623691D01*
X90390000Y-127623691D01*
X90390000Y-127864250D01*
X90548750Y-128023000D01*
X91273000Y-128023000D01*
X91273000Y-127273750D01*
X91527000Y-127273750D01*
X91527000Y-128023000D01*
X92873000Y-128023000D01*
X92873000Y-127273750D01*
X93127000Y-127273750D01*
X93127000Y-128023000D01*
X93851250Y-128023000D01*
X94010000Y-127864250D01*
X94010000Y-127623691D01*
X93913327Y-127390302D01*
X93734699Y-127211673D01*
X93501310Y-127115000D01*
X93285750Y-127115000D01*
X93127000Y-127273750D01*
X92873000Y-127273750D01*
X92714250Y-127115000D01*
X92498690Y-127115000D01*
X92265301Y-127211673D01*
X92200000Y-127276974D01*
X92134699Y-127211673D01*
X91901310Y-127115000D01*
X91685750Y-127115000D01*
X91527000Y-127273750D01*
X91273000Y-127273750D01*
X91114250Y-127115000D01*
X90898690Y-127115000D01*
X90665301Y-127211673D01*
X90486673Y-127390302D01*
X90390000Y-127623691D01*
X77935207Y-127623691D01*
X77935242Y-127583735D01*
X77723313Y-127070828D01*
X77331236Y-126678066D01*
X76978336Y-126531529D01*
X77269941Y-126410742D01*
X77339159Y-126168764D01*
X76540000Y-125369605D01*
X75740841Y-126168764D01*
X75810059Y-126410742D01*
X76123734Y-126522605D01*
X75750828Y-126676687D01*
X75451994Y-126975000D01*
X75296637Y-126975000D01*
X75394758Y-126738700D01*
X75395126Y-126316454D01*
X75835788Y-125875791D01*
X75835791Y-125875789D01*
X76027634Y-125588674D01*
X76044000Y-125506395D01*
X76360395Y-125190000D01*
X76719605Y-125190000D01*
X77518764Y-125989159D01*
X77760742Y-125919941D01*
X77947155Y-125397220D01*
X77919341Y-124842951D01*
X77760742Y-124460059D01*
X77518764Y-124390841D01*
X76719605Y-125190000D01*
X76360395Y-125190000D01*
X76346253Y-125175858D01*
X76525858Y-124996253D01*
X76540000Y-125010395D01*
X77339159Y-124211236D01*
X77269941Y-123969258D01*
X76753789Y-123785188D01*
X76816265Y-123785242D01*
X77329172Y-123573313D01*
X77721934Y-123181236D01*
X77934758Y-122668700D01*
X77935242Y-122113735D01*
X77723313Y-121600828D01*
X77331236Y-121208066D01*
X76818700Y-120995242D01*
X76816270Y-120995240D01*
X77329172Y-120783313D01*
X77721934Y-120391236D01*
X77934758Y-119878700D01*
X77935242Y-119323735D01*
X77723313Y-118810828D01*
X77331236Y-118418066D01*
X77226289Y-118374488D01*
X78075787Y-117524990D01*
X78075790Y-117524988D01*
X78267633Y-117237873D01*
X78304758Y-117051236D01*
X78335001Y-116899198D01*
X78335000Y-116899193D01*
X78335000Y-106724669D01*
X78351441Y-106714090D01*
X78496431Y-106501890D01*
X78547440Y-106250000D01*
X78547440Y-103750000D01*
X78503162Y-103514683D01*
X78364090Y-103298559D01*
X78335000Y-103278683D01*
X78335000Y-101806440D01*
X102373165Y-101806440D01*
X102582353Y-102167289D01*
X103519650Y-102544824D01*
X104530077Y-102534933D01*
X105417647Y-102167289D01*
X105626835Y-101806440D01*
X104000000Y-100179605D01*
X102373165Y-101806440D01*
X78335000Y-101806440D01*
X78335000Y-99519650D01*
X101455176Y-99519650D01*
X101465067Y-100530077D01*
X101832711Y-101417647D01*
X102193560Y-101626835D01*
X103820395Y-100000000D01*
X104179605Y-100000000D01*
X105806440Y-101626835D01*
X106167289Y-101417647D01*
X106544824Y-100480350D01*
X106534933Y-99469923D01*
X106167289Y-98582353D01*
X105806440Y-98373165D01*
X104179605Y-100000000D01*
X103820395Y-100000000D01*
X102193560Y-98373165D01*
X101832711Y-98582353D01*
X101455176Y-99519650D01*
X78335000Y-99519650D01*
X78335000Y-98290005D01*
X78335001Y-98290000D01*
X78315818Y-98193560D01*
X102373165Y-98193560D01*
X104000000Y-99820395D01*
X105626835Y-98193560D01*
X105417647Y-97832711D01*
X104480350Y-97455176D01*
X103469923Y-97465067D01*
X102582353Y-97832711D01*
X102373165Y-98193560D01*
X78315818Y-98193560D01*
X78267633Y-97951325D01*
X78188378Y-97832711D01*
X78075790Y-97664210D01*
X78075787Y-97664208D01*
X76344803Y-95933223D01*
X76443327Y-95834698D01*
X76540000Y-95601309D01*
X76540000Y-94985750D01*
X76381250Y-94827000D01*
X75732000Y-94827000D01*
X75732000Y-94847000D01*
X75478000Y-94847000D01*
X75478000Y-94827000D01*
X75458000Y-94827000D01*
X75458000Y-94573000D01*
X75478000Y-94573000D01*
X75478000Y-93448750D01*
X75732000Y-93448750D01*
X75732000Y-94573000D01*
X76381250Y-94573000D01*
X76540000Y-94414250D01*
X76540000Y-93798691D01*
X76443327Y-93565302D01*
X76264699Y-93386673D01*
X76031310Y-93290000D01*
X75890750Y-93290000D01*
X75732000Y-93448750D01*
X75478000Y-93448750D01*
X75319250Y-93290000D01*
X75178690Y-93290000D01*
X74961878Y-93379806D01*
X74886890Y-93328569D01*
X74635000Y-93277560D01*
X74035000Y-93277560D01*
X73799683Y-93321838D01*
X73700472Y-93385678D01*
X73616890Y-93328569D01*
X73365000Y-93277560D01*
X72765000Y-93277560D01*
X72529683Y-93321838D01*
X72430472Y-93385678D01*
X72346890Y-93328569D01*
X72095000Y-93277560D01*
X71495000Y-93277560D01*
X71259683Y-93321838D01*
X71043559Y-93460910D01*
X70999558Y-93525308D01*
X70851250Y-93377000D01*
X70127000Y-93377000D01*
X70127000Y-93397000D01*
X69873000Y-93397000D01*
X69873000Y-93377000D01*
X69148750Y-93377000D01*
X68990000Y-93535750D01*
X68990000Y-93776309D01*
X69086673Y-94009698D01*
X69088043Y-94011068D01*
X69028569Y-94098110D01*
X68977560Y-94350000D01*
X68977560Y-95150000D01*
X69021838Y-95385317D01*
X69115000Y-95530095D01*
X69115000Y-96193178D01*
X69065162Y-96313201D01*
X69064838Y-96685167D01*
X69206883Y-97028943D01*
X69469673Y-97292192D01*
X69629756Y-97358664D01*
X68924210Y-98064210D01*
X68732367Y-98351325D01*
X68728023Y-98373165D01*
X68664999Y-98690000D01*
X68665000Y-98690005D01*
X68665000Y-103275331D01*
X68648559Y-103285910D01*
X68503569Y-103498110D01*
X68452560Y-103750000D01*
X64063899Y-103750000D01*
X64063899Y-103136876D01*
X64122008Y-103164166D01*
X64351900Y-103043499D01*
X64351900Y-101849680D01*
X64331900Y-101849680D01*
X64331900Y-101595680D01*
X64351900Y-101595680D01*
X64351900Y-101575680D01*
X64605900Y-101575680D01*
X64605900Y-101595680D01*
X64625900Y-101595680D01*
X64625900Y-101849680D01*
X64605900Y-101849680D01*
X64605900Y-103043499D01*
X64835792Y-103164166D01*
X65360258Y-102917863D01*
X65750545Y-102489604D01*
X65750555Y-102489579D01*
X65939753Y-102772734D01*
X66421522Y-103094641D01*
X66989807Y-103207680D01*
X67047993Y-103207680D01*
X67616278Y-103094641D01*
X68098047Y-102772734D01*
X68419954Y-102290965D01*
X68532993Y-101722680D01*
X68419954Y-101154395D01*
X68098047Y-100672626D01*
X67768874Y-100452680D01*
X68098047Y-100232734D01*
X68419954Y-99750965D01*
X68532993Y-99182680D01*
X68419954Y-98614395D01*
X68098047Y-98132626D01*
X67768874Y-97912680D01*
X68098047Y-97692734D01*
X68419954Y-97210965D01*
X68532993Y-96642680D01*
X68419954Y-96074395D01*
X68098047Y-95592626D01*
X67757347Y-95364978D01*
X67900258Y-95297863D01*
X68290545Y-94869604D01*
X68460376Y-94459570D01*
X68339055Y-94229680D01*
X67145900Y-94229680D01*
X67145900Y-94249680D01*
X66891900Y-94249680D01*
X66891900Y-94229680D01*
X66871900Y-94229680D01*
X66871900Y-93975680D01*
X66891900Y-93975680D01*
X66891900Y-93955680D01*
X67145900Y-93955680D01*
X67145900Y-93975680D01*
X68339055Y-93975680D01*
X68460376Y-93745790D01*
X68290545Y-93335756D01*
X68259650Y-93301856D01*
X68299720Y-93275082D01*
X68851111Y-92723691D01*
X68990000Y-92723691D01*
X68990000Y-92964250D01*
X69148750Y-93123000D01*
X69873000Y-93123000D01*
X69873000Y-92373750D01*
X70127000Y-92373750D01*
X70127000Y-93123000D01*
X70851250Y-93123000D01*
X71010000Y-92964250D01*
X71010000Y-92723691D01*
X70913327Y-92490302D01*
X70734699Y-92311673D01*
X70501310Y-92215000D01*
X70285750Y-92215000D01*
X70127000Y-92373750D01*
X69873000Y-92373750D01*
X69714250Y-92215000D01*
X69498690Y-92215000D01*
X69265301Y-92311673D01*
X69086673Y-92490302D01*
X68990000Y-92723691D01*
X68851111Y-92723691D01*
X70014802Y-91560000D01*
X72040000Y-91560000D01*
X72330839Y-91502148D01*
X72577401Y-91337401D01*
X73192362Y-90722440D01*
X73365000Y-90722440D01*
X73600317Y-90678162D01*
X73690980Y-90619822D01*
X73908690Y-90710000D01*
X74049250Y-90710000D01*
X74208000Y-90551250D01*
X74208000Y-89427000D01*
X74188000Y-89427000D01*
X74188000Y-89173000D01*
X74208000Y-89173000D01*
X74208000Y-89153000D01*
X74462000Y-89153000D01*
X74462000Y-89173000D01*
X74482000Y-89173000D01*
X74482000Y-89427000D01*
X74462000Y-89427000D01*
X74462000Y-90551250D01*
X74620750Y-90710000D01*
X74761310Y-90710000D01*
X74978122Y-90620194D01*
X75053110Y-90671431D01*
X75305000Y-90722440D01*
X75905000Y-90722440D01*
X76140317Y-90678162D01*
X76356441Y-90539090D01*
X76501431Y-90326890D01*
X76552440Y-90075000D01*
X76552440Y-88525000D01*
X76508162Y-88289683D01*
X76369090Y-88073559D01*
X76317985Y-88038640D01*
X76307148Y-87984160D01*
X76142401Y-87737599D01*
X75167401Y-86762599D01*
X74920839Y-86597852D01*
X74630000Y-86540000D01*
X71755105Y-86540000D01*
X71664090Y-86398559D01*
X71451890Y-86253569D01*
X71200000Y-86202560D01*
X70700000Y-86202560D01*
X70464683Y-86246838D01*
X70248559Y-86385910D01*
X70200866Y-86455711D01*
X70164090Y-86398559D01*
X69951890Y-86253569D01*
X69700000Y-86202560D01*
X69200000Y-86202560D01*
X68964683Y-86246838D01*
X68748559Y-86385910D01*
X68627811Y-86562630D01*
X68498994Y-86588254D01*
X68450740Y-86597852D01*
X68363556Y-86656107D01*
X68339055Y-86609680D01*
X67145900Y-86609680D01*
X67145900Y-86629680D01*
X66891900Y-86629680D01*
X66891900Y-86609680D01*
X66871900Y-86609680D01*
X66871900Y-86355680D01*
X66891900Y-86355680D01*
X66891900Y-86335680D01*
X67145900Y-86335680D01*
X67145900Y-86355680D01*
X68339055Y-86355680D01*
X68460376Y-86125790D01*
X68290545Y-85715756D01*
X67900258Y-85287497D01*
X67757347Y-85220382D01*
X68098047Y-84992734D01*
X68419954Y-84510965D01*
X68532993Y-83942680D01*
X68419954Y-83374395D01*
X68098047Y-82892626D01*
X67768874Y-82672680D01*
X68098047Y-82452734D01*
X68419954Y-81970965D01*
X68532993Y-81402680D01*
X68419954Y-80834395D01*
X68098047Y-80352626D01*
X67944457Y-80250000D01*
X73735907Y-80250000D01*
X73848946Y-80818285D01*
X74170853Y-81300054D01*
X74500026Y-81520000D01*
X74170853Y-81739946D01*
X73848946Y-82221715D01*
X73735907Y-82790000D01*
X73848946Y-83358285D01*
X74170853Y-83840054D01*
X74652622Y-84161961D01*
X75220907Y-84275000D01*
X75279093Y-84275000D01*
X75847378Y-84161961D01*
X76329147Y-83840054D01*
X76518345Y-83556899D01*
X76518355Y-83556924D01*
X76908642Y-83985183D01*
X77433108Y-84231486D01*
X77663000Y-84110819D01*
X77663000Y-82917000D01*
X77917000Y-82917000D01*
X77917000Y-84110819D01*
X78146892Y-84231486D01*
X78671358Y-83985183D01*
X79061645Y-83556924D01*
X79231476Y-83146890D01*
X79110155Y-82917000D01*
X77917000Y-82917000D01*
X77663000Y-82917000D01*
X77643000Y-82917000D01*
X77643000Y-82663000D01*
X77663000Y-82663000D01*
X77663000Y-82643000D01*
X77917000Y-82643000D01*
X77917000Y-82663000D01*
X79110155Y-82663000D01*
X79231476Y-82433110D01*
X79061645Y-82023076D01*
X78671358Y-81594817D01*
X78528447Y-81527702D01*
X78869147Y-81300054D01*
X79191054Y-80818285D01*
X79304093Y-80250000D01*
X79191054Y-79681715D01*
X78869147Y-79199946D01*
X78539974Y-78980000D01*
X78869147Y-78760054D01*
X79191054Y-78278285D01*
X79304093Y-77710000D01*
X79191054Y-77141715D01*
X78869147Y-76659946D01*
X78387378Y-76338039D01*
X77819093Y-76225000D01*
X77760907Y-76225000D01*
X77192622Y-76338039D01*
X76710853Y-76659946D01*
X76710029Y-76661179D01*
X76703162Y-76624683D01*
X76564090Y-76408559D01*
X76351890Y-76263569D01*
X76100000Y-76212560D01*
X74400000Y-76212560D01*
X74164683Y-76256838D01*
X73948559Y-76395910D01*
X73803569Y-76608110D01*
X73752560Y-76860000D01*
X73752560Y-78560000D01*
X73796838Y-78795317D01*
X73935910Y-79011441D01*
X74148110Y-79156431D01*
X74215541Y-79170086D01*
X74170853Y-79199946D01*
X73848946Y-79681715D01*
X73735907Y-80250000D01*
X67944457Y-80250000D01*
X67768874Y-80132680D01*
X68098047Y-79912734D01*
X68419954Y-79430965D01*
X68532993Y-78862680D01*
X68419954Y-78294395D01*
X68098047Y-77812626D01*
X67757347Y-77584978D01*
X67900258Y-77517863D01*
X68290545Y-77089604D01*
X68460376Y-76679570D01*
X68443130Y-76646890D01*
X69558524Y-76646890D01*
X69728355Y-77056924D01*
X70118642Y-77485183D01*
X70643108Y-77731486D01*
X70873000Y-77610819D01*
X70873000Y-76417000D01*
X71127000Y-76417000D01*
X71127000Y-77610819D01*
X71356892Y-77731486D01*
X71881358Y-77485183D01*
X72271645Y-77056924D01*
X72441476Y-76646890D01*
X72320155Y-76417000D01*
X71127000Y-76417000D01*
X70873000Y-76417000D01*
X69679845Y-76417000D01*
X69558524Y-76646890D01*
X68443130Y-76646890D01*
X68339055Y-76449680D01*
X67145900Y-76449680D01*
X67145900Y-76469680D01*
X66891900Y-76469680D01*
X66891900Y-76449680D01*
X66871900Y-76449680D01*
X66871900Y-76195680D01*
X66891900Y-76195680D01*
X66891900Y-76175680D01*
X67145900Y-76175680D01*
X67145900Y-76195680D01*
X68339055Y-76195680D01*
X68460376Y-75965790D01*
X68290545Y-75555756D01*
X67900258Y-75127497D01*
X67757347Y-75060382D01*
X68098047Y-74832734D01*
X68419954Y-74350965D01*
X68532993Y-73782680D01*
X68526493Y-73750000D01*
X69485907Y-73750000D01*
X69598946Y-74318285D01*
X69920853Y-74800054D01*
X70261553Y-75027702D01*
X70118642Y-75094817D01*
X69728355Y-75523076D01*
X69558524Y-75933110D01*
X69679845Y-76163000D01*
X70873000Y-76163000D01*
X70873000Y-76143000D01*
X71127000Y-76143000D01*
X71127000Y-76163000D01*
X72320155Y-76163000D01*
X72441476Y-75933110D01*
X72271645Y-75523076D01*
X71881358Y-75094817D01*
X71738447Y-75027702D01*
X72079147Y-74800054D01*
X72401054Y-74318285D01*
X72514093Y-73750000D01*
X72401054Y-73181715D01*
X72079147Y-72699946D01*
X72037548Y-72672150D01*
X72085317Y-72663162D01*
X72301441Y-72524090D01*
X72446431Y-72311890D01*
X72497440Y-72060000D01*
X72497440Y-70360000D01*
X72453162Y-70124683D01*
X72314090Y-69908559D01*
X72101890Y-69763569D01*
X71850000Y-69712560D01*
X70150000Y-69712560D01*
X69914683Y-69756838D01*
X69698559Y-69895910D01*
X69553569Y-70108110D01*
X69502560Y-70360000D01*
X69502560Y-72060000D01*
X69546838Y-72295317D01*
X69685910Y-72511441D01*
X69898110Y-72656431D01*
X69965541Y-72670086D01*
X69920853Y-72699946D01*
X69598946Y-73181715D01*
X69485907Y-73750000D01*
X68526493Y-73750000D01*
X68419954Y-73214395D01*
X68098047Y-72732626D01*
X67778900Y-72519379D01*
X67778900Y-72505981D01*
X68098047Y-72292734D01*
X68419954Y-71810965D01*
X68532993Y-71242680D01*
X68419954Y-70674395D01*
X68098047Y-70192626D01*
X67616278Y-69870719D01*
X67047993Y-69757680D01*
X66989807Y-69757680D01*
X66671931Y-69820909D01*
X66381300Y-69530278D01*
X66134738Y-69365531D01*
X65843899Y-69307679D01*
X63368899Y-69307679D01*
X63078060Y-69365531D01*
X62831498Y-69530278D01*
X62316489Y-70045287D01*
X62151742Y-70291849D01*
X62093890Y-70582688D01*
X62093890Y-130673890D01*
X62151742Y-130964729D01*
X62316489Y-131211291D01*
X75476891Y-144371693D01*
X74882486Y-144489928D01*
X74352219Y-144844241D01*
X74252621Y-144993300D01*
X73959726Y-144676932D01*
X73380355Y-144410373D01*
X73127000Y-144529193D01*
X73127000Y-145873000D01*
X73147000Y-145873000D01*
X73147000Y-146127000D01*
X73127000Y-146127000D01*
X73127000Y-147470807D01*
X73380355Y-147589627D01*
X73959726Y-147323068D01*
X74252621Y-147006700D01*
X74352219Y-147155759D01*
X74882486Y-147510072D01*
X75507978Y-147634490D01*
X75572022Y-147634490D01*
X76197514Y-147510072D01*
X76727781Y-147155759D01*
X77082094Y-146625492D01*
X77189703Y-146084505D01*
X79682599Y-148577401D01*
X79822560Y-148670920D01*
X79822560Y-148890000D01*
X79866838Y-149125317D01*
X79972809Y-149290000D01*
X66710000Y-149290000D01*
X66710000Y-145000510D01*
X68813070Y-145000510D01*
X68813070Y-146999490D01*
X68857348Y-147234807D01*
X68996420Y-147450931D01*
X69208620Y-147595921D01*
X69460510Y-147646930D01*
X71459490Y-147646930D01*
X71694807Y-147602652D01*
X71910931Y-147463580D01*
X72021094Y-147302351D01*
X72040274Y-147323068D01*
X72619645Y-147589627D01*
X72873000Y-147470807D01*
X72873000Y-146127000D01*
X72853000Y-146127000D01*
X72853000Y-145873000D01*
X72873000Y-145873000D01*
X72873000Y-144529193D01*
X72619645Y-144410373D01*
X72040274Y-144676932D01*
X72019970Y-144698863D01*
X71923580Y-144549069D01*
X71711380Y-144404079D01*
X71459490Y-144353070D01*
X69460510Y-144353070D01*
X69225193Y-144397348D01*
X69009069Y-144536420D01*
X68864079Y-144748620D01*
X68813070Y-145000510D01*
X66710000Y-145000510D01*
X66710000Y-144000000D01*
X66655954Y-143728295D01*
X66502046Y-143497954D01*
X66271705Y-143344046D01*
X66000000Y-143290000D01*
X60710000Y-143290000D01*
X60710000Y-66710000D01*
X66000000Y-66710000D01*
X66271705Y-66655954D01*
X66502046Y-66502046D01*
X66655954Y-66271705D01*
X66710000Y-66000000D01*
X66710000Y-64814285D01*
X68724760Y-64814285D01*
X68935169Y-65323515D01*
X69324436Y-65713461D01*
X69833298Y-65924759D01*
X70384285Y-65925240D01*
X70893515Y-65714831D01*
X71283461Y-65325564D01*
X71379976Y-65093130D01*
X71475169Y-65323515D01*
X71864436Y-65713461D01*
X71890000Y-65724076D01*
X71890000Y-67535000D01*
X71947852Y-67825839D01*
X72112599Y-68072401D01*
X73077599Y-69037401D01*
X73245043Y-69149283D01*
X73217560Y-69285000D01*
X73217560Y-70255000D01*
X73261838Y-70490317D01*
X73400910Y-70706441D01*
X73613110Y-70851431D01*
X73865000Y-70902440D01*
X75135000Y-70902440D01*
X75370317Y-70858162D01*
X75586441Y-70719090D01*
X75715641Y-70530000D01*
X76787373Y-70530000D01*
X76900910Y-70706441D01*
X77113110Y-70851431D01*
X77365000Y-70902440D01*
X78635000Y-70902440D01*
X78870317Y-70858162D01*
X79086441Y-70719090D01*
X79215641Y-70530000D01*
X82207938Y-70530000D01*
X82469673Y-70792192D01*
X82813201Y-70934838D01*
X83165000Y-70935144D01*
X83165000Y-73063571D01*
X86985000Y-73063571D01*
X86985000Y-50936428D01*
X83165000Y-50936428D01*
X83165000Y-69065143D01*
X83046702Y-69065040D01*
X82770000Y-69010000D01*
X79277377Y-69010000D01*
X79282440Y-68985000D01*
X79282440Y-68422065D01*
X79313201Y-68434838D01*
X79685167Y-68435162D01*
X80028943Y-68293117D01*
X80292192Y-68030327D01*
X80434838Y-67686799D01*
X80435162Y-67314833D01*
X80293117Y-66971057D01*
X80030327Y-66707808D01*
X79686799Y-66565162D01*
X79576534Y-66565066D01*
X79520839Y-66527852D01*
X79230000Y-66470000D01*
X79212627Y-66470000D01*
X79099090Y-66293559D01*
X78886890Y-66148569D01*
X78635000Y-66097560D01*
X77365000Y-66097560D01*
X77129683Y-66141838D01*
X76913559Y-66280910D01*
X76784359Y-66470000D01*
X75712627Y-66470000D01*
X75599090Y-66293559D01*
X75386890Y-66148569D01*
X75135000Y-66097560D01*
X73865000Y-66097560D01*
X73629683Y-66141838D01*
X73413559Y-66280910D01*
X73410000Y-66286119D01*
X73410000Y-65724547D01*
X73433515Y-65714831D01*
X73637183Y-65511517D01*
X74398088Y-65511517D01*
X74466077Y-65752460D01*
X74985171Y-65937201D01*
X75535448Y-65909230D01*
X75913923Y-65752460D01*
X75981912Y-65511517D01*
X75190000Y-64719605D01*
X74398088Y-65511517D01*
X73637183Y-65511517D01*
X73823461Y-65325564D01*
X73913377Y-65109021D01*
X73977540Y-65263923D01*
X74218483Y-65331912D01*
X75010395Y-64540000D01*
X74218483Y-63748088D01*
X73977540Y-63816077D01*
X73918268Y-63982621D01*
X73824831Y-63756485D01*
X73637157Y-63568483D01*
X74398088Y-63568483D01*
X75190000Y-64360395D01*
X75981912Y-63568483D01*
X75913923Y-63327540D01*
X75394829Y-63142799D01*
X74844552Y-63170770D01*
X74466077Y-63327540D01*
X74398088Y-63568483D01*
X73637157Y-63568483D01*
X73435564Y-63366539D01*
X72926702Y-63155241D01*
X72375715Y-63154760D01*
X71866485Y-63365169D01*
X71476539Y-63754436D01*
X71380024Y-63986870D01*
X71284831Y-63756485D01*
X70895564Y-63366539D01*
X70386702Y-63155241D01*
X69835715Y-63154760D01*
X69326485Y-63365169D01*
X68936539Y-63754436D01*
X68725241Y-64263298D01*
X68724760Y-64814285D01*
X66710000Y-64814285D01*
X66710000Y-62274285D01*
X69994760Y-62274285D01*
X70205169Y-62783515D01*
X70594436Y-63173461D01*
X71103298Y-63384759D01*
X71654285Y-63385240D01*
X72163515Y-63174831D01*
X72367183Y-62971517D01*
X73128088Y-62971517D01*
X73196077Y-63212460D01*
X73715171Y-63397201D01*
X74265448Y-63369230D01*
X74643923Y-63212460D01*
X74711912Y-62971517D01*
X73920000Y-62179605D01*
X73128088Y-62971517D01*
X72367183Y-62971517D01*
X72553461Y-62785564D01*
X72643377Y-62569021D01*
X72707540Y-62723923D01*
X72948483Y-62791912D01*
X73740395Y-62000000D01*
X74099605Y-62000000D01*
X74891517Y-62791912D01*
X75132460Y-62723923D01*
X75191732Y-62557379D01*
X75285169Y-62783515D01*
X75674436Y-63173461D01*
X76183298Y-63384759D01*
X76734285Y-63385240D01*
X77243515Y-63174831D01*
X77613080Y-62805909D01*
X77646838Y-62985317D01*
X77756040Y-63155022D01*
X77455715Y-63154760D01*
X76946485Y-63365169D01*
X76556539Y-63754436D01*
X76466623Y-63970979D01*
X76402460Y-63816077D01*
X76161517Y-63748088D01*
X75369605Y-64540000D01*
X76161517Y-65331912D01*
X76402460Y-65263923D01*
X76461732Y-65097379D01*
X76555169Y-65323515D01*
X76944436Y-65713461D01*
X77453298Y-65924759D01*
X78004285Y-65925240D01*
X78513515Y-65714831D01*
X78903461Y-65325564D01*
X79114759Y-64816702D01*
X79115240Y-64265715D01*
X78904831Y-63756485D01*
X78546411Y-63397440D01*
X79750000Y-63397440D01*
X79985317Y-63353162D01*
X80201441Y-63214090D01*
X80346431Y-63001890D01*
X80397440Y-62750000D01*
X80397440Y-61250000D01*
X80353162Y-61014683D01*
X80214090Y-60798559D01*
X80001890Y-60653569D01*
X79750000Y-60602560D01*
X78250000Y-60602560D01*
X78014683Y-60646838D01*
X77798559Y-60785910D01*
X77653569Y-60998110D01*
X77613645Y-61195262D01*
X77245564Y-60826539D01*
X76736702Y-60615241D01*
X76185715Y-60614760D01*
X75676485Y-60825169D01*
X75286539Y-61214436D01*
X75196623Y-61430979D01*
X75132460Y-61276077D01*
X74891517Y-61208088D01*
X74099605Y-62000000D01*
X73740395Y-62000000D01*
X72948483Y-61208088D01*
X72707540Y-61276077D01*
X72648268Y-61442621D01*
X72554831Y-61216485D01*
X72367157Y-61028483D01*
X73128088Y-61028483D01*
X73920000Y-61820395D01*
X74711912Y-61028483D01*
X74643923Y-60787540D01*
X74124829Y-60602799D01*
X73574552Y-60630770D01*
X73196077Y-60787540D01*
X73128088Y-61028483D01*
X72367157Y-61028483D01*
X72165564Y-60826539D01*
X71656702Y-60615241D01*
X71105715Y-60614760D01*
X70596485Y-60825169D01*
X70206539Y-61214436D01*
X69995241Y-61723298D01*
X69994760Y-62274285D01*
X66710000Y-62274285D01*
X66710000Y-60000000D01*
X66655954Y-59728295D01*
X66502046Y-59497954D01*
X66271705Y-59344046D01*
X66000000Y-59290000D01*
X60710000Y-59290000D01*
X60710000Y-56137177D01*
X66159574Y-56137177D01*
X66533298Y-57041657D01*
X67224703Y-57734270D01*
X68128529Y-58109572D01*
X69107177Y-58110426D01*
X70011657Y-57736702D01*
X70704270Y-57045297D01*
X71079572Y-56141471D01*
X71079575Y-56137177D01*
X78029574Y-56137177D01*
X78403298Y-57041657D01*
X79094703Y-57734270D01*
X79998529Y-58109572D01*
X80977177Y-58110426D01*
X81881657Y-57736702D01*
X82574270Y-57045297D01*
X82949572Y-56141471D01*
X82950426Y-55162823D01*
X82576702Y-54258343D01*
X81885297Y-53565730D01*
X80981471Y-53190428D01*
X80002823Y-53189574D01*
X79098343Y-53563298D01*
X78405730Y-54254703D01*
X78030428Y-55158529D01*
X78029574Y-56137177D01*
X71079575Y-56137177D01*
X71080426Y-55162823D01*
X70706702Y-54258343D01*
X70015297Y-53565730D01*
X69111471Y-53190428D01*
X68132823Y-53189574D01*
X67228343Y-53563298D01*
X66535730Y-54254703D01*
X66160428Y-55158529D01*
X66159574Y-56137177D01*
X60710000Y-56137177D01*
X60710000Y-50710000D01*
X87290000Y-50710000D01*
X87290000Y-70000000D01*
X87290000Y-70000000D01*
G37*
X87290000Y-70000000D02*
X87344046Y-70271705D01*
X87497954Y-70502046D01*
X87728295Y-70655954D01*
X88000000Y-70710000D01*
X97000000Y-70710000D01*
X97271705Y-70655954D01*
X97502046Y-70502046D01*
X97655954Y-70271705D01*
X97710000Y-70000000D01*
X97710000Y-50710000D01*
X109290000Y-50710000D01*
X109290000Y-134873000D01*
X97000000Y-134873000D01*
X96952211Y-134882334D01*
X96910197Y-134910197D01*
X95910197Y-135910197D01*
X95883006Y-135950590D01*
X95873000Y-136000000D01*
X95873000Y-144046675D01*
X95777690Y-143898559D01*
X95565490Y-143753569D01*
X95313600Y-143702560D01*
X95223600Y-143702560D01*
X95223600Y-138398600D01*
X95165748Y-138107761D01*
X95001001Y-137861199D01*
X93237401Y-136097599D01*
X93091333Y-136000000D01*
X93237401Y-135902401D01*
X98037401Y-131102401D01*
X98202148Y-130855839D01*
X98242040Y-130655289D01*
X98313201Y-130684838D01*
X98685167Y-130685162D01*
X98915504Y-130589989D01*
X98998110Y-130646431D01*
X99250000Y-130697440D01*
X99294043Y-130697440D01*
X98905302Y-130957189D01*
X98594233Y-131422736D01*
X98485000Y-131971887D01*
X98485000Y-132028113D01*
X98594233Y-132577264D01*
X98905302Y-133042811D01*
X99370849Y-133353880D01*
X99920000Y-133463113D01*
X100469151Y-133353880D01*
X100934698Y-133042811D01*
X101204986Y-132638297D01*
X101307611Y-132855134D01*
X101722577Y-133231041D01*
X102110961Y-133391904D01*
X102333000Y-133269915D01*
X102333000Y-132127000D01*
X102587000Y-132127000D01*
X102587000Y-133269915D01*
X102809039Y-133391904D01*
X103197423Y-133231041D01*
X103612389Y-132855134D01*
X103730000Y-132606633D01*
X103847611Y-132855134D01*
X104262577Y-133231041D01*
X104650961Y-133391904D01*
X104873000Y-133269915D01*
X104873000Y-132127000D01*
X102587000Y-132127000D01*
X102333000Y-132127000D01*
X102313000Y-132127000D01*
X102313000Y-131873000D01*
X102333000Y-131873000D01*
X102333000Y-130730085D01*
X102587000Y-130730085D01*
X102587000Y-131873000D01*
X104873000Y-131873000D01*
X104873000Y-130730085D01*
X104650961Y-130608096D01*
X104262577Y-130768959D01*
X103847611Y-131144866D01*
X103730000Y-131393367D01*
X103612389Y-131144866D01*
X103197423Y-130768959D01*
X102809039Y-130608096D01*
X102587000Y-130730085D01*
X102333000Y-130730085D01*
X102110961Y-130608096D01*
X101760000Y-130753459D01*
X101760000Y-130428386D01*
X101846431Y-130301890D01*
X101897440Y-130050000D01*
X101897440Y-129785167D01*
X104064838Y-129785167D01*
X104206883Y-130128943D01*
X104469673Y-130392192D01*
X104813201Y-130534838D01*
X105185167Y-130535162D01*
X105321390Y-130478876D01*
X105335910Y-130501441D01*
X105548110Y-130646431D01*
X105800000Y-130697440D01*
X106300000Y-130697440D01*
X106368321Y-130684584D01*
X106288559Y-130735910D01*
X106143569Y-130948110D01*
X106111268Y-131107616D01*
X105737423Y-130768959D01*
X105349039Y-130608096D01*
X105127000Y-130730085D01*
X105127000Y-131873000D01*
X105147000Y-131873000D01*
X105147000Y-132127000D01*
X105127000Y-132127000D01*
X105127000Y-133269915D01*
X105349039Y-133391904D01*
X105737423Y-133231041D01*
X106110136Y-132893410D01*
X106136838Y-133035317D01*
X106275910Y-133251441D01*
X106488110Y-133396431D01*
X106740000Y-133447440D01*
X108340000Y-133447440D01*
X108575317Y-133403162D01*
X108791441Y-133264090D01*
X108936431Y-133051890D01*
X108987440Y-132800000D01*
X108987440Y-131200000D01*
X108943162Y-130964683D01*
X108804090Y-130748559D01*
X108591890Y-130603569D01*
X108340000Y-130552560D01*
X108310000Y-130552560D01*
X108310000Y-130428386D01*
X108396431Y-130301890D01*
X108447440Y-130050000D01*
X108447440Y-129150000D01*
X108403162Y-128914683D01*
X108264090Y-128698559D01*
X108051890Y-128553569D01*
X107800000Y-128502560D01*
X107300000Y-128502560D01*
X107064683Y-128546838D01*
X106848559Y-128685910D01*
X106800866Y-128755711D01*
X106764090Y-128698559D01*
X106551890Y-128553569D01*
X106300000Y-128502560D01*
X105800000Y-128502560D01*
X105564683Y-128546838D01*
X105348559Y-128685910D01*
X105323851Y-128722071D01*
X105186799Y-128665162D01*
X104814833Y-128664838D01*
X104471057Y-128806883D01*
X104207808Y-129069673D01*
X104065162Y-129413201D01*
X104064838Y-129785167D01*
X101897440Y-129785167D01*
X101897440Y-129150000D01*
X101853162Y-128914683D01*
X101714090Y-128698559D01*
X101501890Y-128553569D01*
X101250000Y-128502560D01*
X100750000Y-128502560D01*
X100514683Y-128546838D01*
X100298559Y-128685910D01*
X100250866Y-128755711D01*
X100214090Y-128698559D01*
X100001890Y-128553569D01*
X99750000Y-128502560D01*
X99250000Y-128502560D01*
X99014683Y-128546838D01*
X98798559Y-128685910D01*
X98705063Y-128822746D01*
X98686799Y-128815162D01*
X98314833Y-128814838D01*
X98260000Y-128837494D01*
X98260000Y-126826440D01*
X102373165Y-126826440D01*
X102582353Y-127187289D01*
X103519650Y-127564824D01*
X104530077Y-127554933D01*
X105417647Y-127187289D01*
X105626835Y-126826440D01*
X104000000Y-125199605D01*
X102373165Y-126826440D01*
X98260000Y-126826440D01*
X98260000Y-124539650D01*
X101455176Y-124539650D01*
X101465067Y-125550077D01*
X101832711Y-126437647D01*
X102193560Y-126646835D01*
X103820395Y-125020000D01*
X104179605Y-125020000D01*
X105806440Y-126646835D01*
X106167289Y-126437647D01*
X106544824Y-125500350D01*
X106534933Y-124489923D01*
X106167289Y-123602353D01*
X105806440Y-123393165D01*
X104179605Y-125020000D01*
X103820395Y-125020000D01*
X102193560Y-123393165D01*
X101832711Y-123602353D01*
X101455176Y-124539650D01*
X98260000Y-124539650D01*
X98260000Y-123213560D01*
X102373165Y-123213560D01*
X104000000Y-124840395D01*
X105626835Y-123213560D01*
X105417647Y-122852711D01*
X104480350Y-122475176D01*
X103469923Y-122485067D01*
X102582353Y-122852711D01*
X102373165Y-123213560D01*
X98260000Y-123213560D01*
X98260000Y-119008764D01*
X101800841Y-119008764D01*
X101870059Y-119250742D01*
X102392780Y-119437155D01*
X102947049Y-119409341D01*
X103329941Y-119250742D01*
X103399159Y-119008764D01*
X102600000Y-118209605D01*
X101800841Y-119008764D01*
X98260000Y-119008764D01*
X98260000Y-117822780D01*
X101192845Y-117822780D01*
X101220659Y-118377049D01*
X101379258Y-118759941D01*
X101621236Y-118829159D01*
X102420395Y-118030000D01*
X102779605Y-118030000D01*
X103578764Y-118829159D01*
X103820742Y-118759941D01*
X104007155Y-118237220D01*
X103979341Y-117682951D01*
X103820742Y-117300059D01*
X103578764Y-117230841D01*
X102779605Y-118030000D01*
X102420395Y-118030000D01*
X101621236Y-117230841D01*
X101379258Y-117300059D01*
X101192845Y-117822780D01*
X98260000Y-117822780D01*
X98260000Y-116969802D01*
X98807401Y-116422401D01*
X98921904Y-116251035D01*
X98990317Y-116238162D01*
X99206441Y-116099090D01*
X99351431Y-115886890D01*
X99402440Y-115635000D01*
X99402440Y-114365000D01*
X99358162Y-114129683D01*
X99219090Y-113913559D01*
X99030000Y-113784359D01*
X99030000Y-112212627D01*
X99206441Y-112099090D01*
X99351431Y-111886890D01*
X99402440Y-111635000D01*
X99402440Y-110540000D01*
X101404633Y-110540000D01*
X101416687Y-110569172D01*
X101808764Y-110961934D01*
X102321300Y-111174758D01*
X102323730Y-111174760D01*
X101810828Y-111386687D01*
X101418066Y-111778764D01*
X101205242Y-112291300D01*
X101204758Y-112846265D01*
X101416687Y-113359172D01*
X101808764Y-113751934D01*
X102177662Y-113905114D01*
X101810828Y-114056687D01*
X101418066Y-114448764D01*
X101205242Y-114961300D01*
X101204758Y-115516265D01*
X101416687Y-116029172D01*
X101808764Y-116421934D01*
X102321300Y-116634758D01*
X102565576Y-116634971D01*
X102252951Y-116650659D01*
X101870059Y-116809258D01*
X101800841Y-117051236D01*
X102600000Y-117850395D01*
X103399159Y-117051236D01*
X103360551Y-116916265D01*
X103994758Y-116916265D01*
X104206687Y-117429172D01*
X104598764Y-117821934D01*
X105111300Y-118034758D01*
X105666265Y-118035242D01*
X106179172Y-117823313D01*
X106571934Y-117431236D01*
X106784758Y-116918700D01*
X106785242Y-116363735D01*
X106573313Y-115850828D01*
X106181236Y-115458066D01*
X105668700Y-115245242D01*
X105113735Y-115244758D01*
X104600828Y-115456687D01*
X104208066Y-115848764D01*
X103995242Y-116361300D01*
X103994758Y-116916265D01*
X103360551Y-116916265D01*
X103329941Y-116809258D01*
X102841898Y-116635212D01*
X102876265Y-116635242D01*
X103389172Y-116423313D01*
X103781934Y-116031236D01*
X103994758Y-115518700D01*
X103995242Y-114963735D01*
X103783313Y-114450828D01*
X103391236Y-114058066D01*
X103022338Y-113904886D01*
X103389172Y-113753313D01*
X103781934Y-113361236D01*
X103994758Y-112848700D01*
X103995242Y-112293735D01*
X103783313Y-111780828D01*
X103391236Y-111388066D01*
X102878700Y-111175242D01*
X102876270Y-111175240D01*
X103389172Y-110963313D01*
X103781934Y-110571236D01*
X103994758Y-110058700D01*
X103995242Y-109503735D01*
X103783313Y-108990828D01*
X103449334Y-108656265D01*
X103994758Y-108656265D01*
X104206687Y-109169172D01*
X104598764Y-109561934D01*
X105111300Y-109774758D01*
X105113730Y-109774760D01*
X104600828Y-109986687D01*
X104208066Y-110378764D01*
X103995242Y-110891300D01*
X103994758Y-111446265D01*
X104206687Y-111959172D01*
X104598764Y-112351934D01*
X104967662Y-112505114D01*
X104600828Y-112656687D01*
X104208066Y-113048764D01*
X103995242Y-113561300D01*
X103994758Y-114116265D01*
X104206687Y-114629172D01*
X104598764Y-115021934D01*
X105111300Y-115234758D01*
X105666265Y-115235242D01*
X106179172Y-115023313D01*
X106571934Y-114631236D01*
X106784758Y-114118700D01*
X106785242Y-113563735D01*
X106573313Y-113050828D01*
X106181236Y-112658066D01*
X105812338Y-112504886D01*
X106179172Y-112353313D01*
X106571934Y-111961236D01*
X106784758Y-111448700D01*
X106785242Y-110893735D01*
X106573313Y-110380828D01*
X106181236Y-109988066D01*
X105668700Y-109775242D01*
X105666270Y-109775240D01*
X106179172Y-109563313D01*
X106571934Y-109171236D01*
X106784758Y-108658700D01*
X106785242Y-108103735D01*
X106573313Y-107590828D01*
X106181236Y-107198066D01*
X105668700Y-106985242D01*
X105113735Y-106984758D01*
X104600828Y-107196687D01*
X104208066Y-107588764D01*
X103995242Y-108101300D01*
X103994758Y-108656265D01*
X103449334Y-108656265D01*
X103391236Y-108598066D01*
X103197067Y-108517440D01*
X103360000Y-108517440D01*
X103595317Y-108473162D01*
X103811441Y-108334090D01*
X103956431Y-108121890D01*
X104007440Y-107870000D01*
X104007440Y-106350000D01*
X103963162Y-106114683D01*
X103824090Y-105898559D01*
X103611890Y-105753569D01*
X103360000Y-105702560D01*
X101840000Y-105702560D01*
X101604683Y-105746838D01*
X101388559Y-105885910D01*
X101243569Y-106098110D01*
X101192560Y-106350000D01*
X101192560Y-107870000D01*
X101236838Y-108105317D01*
X101375910Y-108321441D01*
X101588110Y-108466431D01*
X101840000Y-108517440D01*
X102002620Y-108517440D01*
X101810828Y-108596687D01*
X101418066Y-108988764D01*
X101405096Y-109020000D01*
X97335000Y-109020000D01*
X97044161Y-109077852D01*
X96797599Y-109242599D01*
X96462599Y-109577599D01*
X96350717Y-109745043D01*
X96215000Y-109717560D01*
X95245000Y-109717560D01*
X95009683Y-109761838D01*
X94793559Y-109900910D01*
X94648569Y-110113110D01*
X94597560Y-110365000D01*
X94597560Y-111635000D01*
X94641838Y-111870317D01*
X94780910Y-112086441D01*
X94970000Y-112215641D01*
X94970000Y-113787373D01*
X94793559Y-113900910D01*
X94648569Y-114113110D01*
X94597560Y-114365000D01*
X94597560Y-115635000D01*
X94641838Y-115870317D01*
X94780910Y-116086441D01*
X94993110Y-116231431D01*
X95076246Y-116248267D01*
X95192599Y-116422401D01*
X95740000Y-116969802D01*
X95740000Y-130185198D01*
X92949724Y-132975474D01*
X92926250Y-132952000D01*
X91827000Y-132952000D01*
X91827000Y-132972000D01*
X91573000Y-132972000D01*
X91573000Y-132952000D01*
X90473750Y-132952000D01*
X90315000Y-133110750D01*
X90315000Y-133251310D01*
X90404806Y-133468122D01*
X90353569Y-133543110D01*
X90302560Y-133795000D01*
X90302560Y-134395000D01*
X90346838Y-134630317D01*
X90410678Y-134729528D01*
X90353569Y-134813110D01*
X90302560Y-135065000D01*
X90302560Y-135113230D01*
X90186799Y-135065162D01*
X89814833Y-135064838D01*
X89471057Y-135206883D01*
X89207808Y-135469673D01*
X89065162Y-135813201D01*
X89064943Y-136065056D01*
X88814833Y-136064838D01*
X88471057Y-136206883D01*
X88207808Y-136469673D01*
X88085163Y-136765035D01*
X87610024Y-137240173D01*
X87646431Y-137186890D01*
X87697440Y-136935000D01*
X87697440Y-136335000D01*
X87653162Y-136099683D01*
X87589322Y-136000472D01*
X87646431Y-135916890D01*
X87697440Y-135665000D01*
X87697440Y-135065000D01*
X87653162Y-134829683D01*
X87589322Y-134730472D01*
X87646431Y-134646890D01*
X87697440Y-134395000D01*
X87697440Y-133795000D01*
X87653162Y-133559683D01*
X87589322Y-133460472D01*
X87646431Y-133376890D01*
X87697440Y-133125000D01*
X87697440Y-132952362D01*
X88787401Y-131862401D01*
X88952148Y-131615840D01*
X89010000Y-131325000D01*
X89010000Y-130611228D01*
X89098110Y-130671431D01*
X89340769Y-130720571D01*
X90302560Y-131682362D01*
X90302560Y-131855000D01*
X90346838Y-132090317D01*
X90405178Y-132180980D01*
X90315000Y-132398690D01*
X90315000Y-132539250D01*
X90473750Y-132698000D01*
X91573000Y-132698000D01*
X91573000Y-132678000D01*
X91827000Y-132678000D01*
X91827000Y-132698000D01*
X92926250Y-132698000D01*
X93085000Y-132539250D01*
X93085000Y-132398690D01*
X92995194Y-132181878D01*
X93046431Y-132106890D01*
X93097440Y-131855000D01*
X93097440Y-131255000D01*
X93093855Y-131235947D01*
X93537401Y-130792401D01*
X93645613Y-130630449D01*
X93826441Y-130514090D01*
X93971431Y-130301890D01*
X94022440Y-130050000D01*
X94022440Y-129250000D01*
X93978162Y-129014683D01*
X93911671Y-128911354D01*
X93913327Y-128909698D01*
X94010000Y-128676309D01*
X94010000Y-128435750D01*
X93851250Y-128277000D01*
X93127000Y-128277000D01*
X93127000Y-128297000D01*
X92873000Y-128297000D01*
X92873000Y-128277000D01*
X91527000Y-128277000D01*
X91527000Y-128297000D01*
X91273000Y-128297000D01*
X91273000Y-128277000D01*
X90548750Y-128277000D01*
X90390000Y-128435750D01*
X90390000Y-128676309D01*
X90415498Y-128737867D01*
X90401890Y-128728569D01*
X90150000Y-128677560D01*
X89777362Y-128677560D01*
X89562400Y-128462598D01*
X89315838Y-128297851D01*
X89024999Y-128239999D01*
X85639999Y-128239999D01*
X85349159Y-128297851D01*
X85102598Y-128462598D01*
X80782599Y-132782597D01*
X80617852Y-133029159D01*
X80560000Y-133319998D01*
X80560000Y-144227046D01*
X80269946Y-144420853D01*
X80056699Y-144740000D01*
X78754400Y-144740000D01*
X74314676Y-140300276D01*
X74503021Y-140300440D01*
X75436915Y-139914563D01*
X76152052Y-139200673D01*
X76539559Y-138267454D01*
X76540440Y-137256979D01*
X76154563Y-136323085D01*
X75440673Y-135607948D01*
X74507454Y-135220441D01*
X73496979Y-135219560D01*
X72563085Y-135605437D01*
X71847948Y-136319327D01*
X71460441Y-137252546D01*
X71460272Y-137445872D01*
X64243164Y-130228764D01*
X73200841Y-130228764D01*
X73270059Y-130470742D01*
X73792780Y-130657155D01*
X74347049Y-130629341D01*
X74729941Y-130470742D01*
X74799159Y-130228764D01*
X74000000Y-129429605D01*
X73200841Y-130228764D01*
X64243164Y-130228764D01*
X64063899Y-130049499D01*
X64063899Y-103750000D01*
X68452560Y-103750000D01*
X68452560Y-106250000D01*
X68496838Y-106485317D01*
X68635910Y-106701441D01*
X68665000Y-106721317D01*
X68665000Y-123800797D01*
X68664999Y-123800802D01*
X68721190Y-124083286D01*
X68732367Y-124139477D01*
X68900322Y-124390841D01*
X68924210Y-124426592D01*
X71019208Y-126521589D01*
X71019209Y-126521591D01*
X71709292Y-127211673D01*
X72374208Y-127876589D01*
X72374210Y-127876592D01*
X72964647Y-128467028D01*
X72779258Y-128520059D01*
X72592845Y-129042780D01*
X72620659Y-129597049D01*
X72779258Y-129979941D01*
X73021236Y-130049159D01*
X73820395Y-129250000D01*
X73806253Y-129235858D01*
X73985858Y-129056253D01*
X74000000Y-129070395D01*
X74014143Y-129056253D01*
X74193748Y-129235858D01*
X74179605Y-129250000D01*
X74978764Y-130049159D01*
X75132560Y-130005166D01*
X75132560Y-131410000D01*
X75176838Y-131645317D01*
X75315910Y-131861441D01*
X75528110Y-132006431D01*
X75780000Y-132057440D01*
X77300000Y-132057440D01*
X77535317Y-132013162D01*
X77751441Y-131874090D01*
X77896431Y-131661890D01*
X77947440Y-131410000D01*
X77947440Y-129890000D01*
X77903162Y-129654683D01*
X77764090Y-129438559D01*
X77551890Y-129293569D01*
X77300000Y-129242560D01*
X76846958Y-129242560D01*
X77329172Y-129043313D01*
X77721934Y-128651236D01*
X77934758Y-128138700D01*
X77935207Y-127623691D01*
X90390000Y-127623691D01*
X90390000Y-127864250D01*
X90548750Y-128023000D01*
X91273000Y-128023000D01*
X91273000Y-127273750D01*
X91527000Y-127273750D01*
X91527000Y-128023000D01*
X92873000Y-128023000D01*
X92873000Y-127273750D01*
X93127000Y-127273750D01*
X93127000Y-128023000D01*
X93851250Y-128023000D01*
X94010000Y-127864250D01*
X94010000Y-127623691D01*
X93913327Y-127390302D01*
X93734699Y-127211673D01*
X93501310Y-127115000D01*
X93285750Y-127115000D01*
X93127000Y-127273750D01*
X92873000Y-127273750D01*
X92714250Y-127115000D01*
X92498690Y-127115000D01*
X92265301Y-127211673D01*
X92200000Y-127276974D01*
X92134699Y-127211673D01*
X91901310Y-127115000D01*
X91685750Y-127115000D01*
X91527000Y-127273750D01*
X91273000Y-127273750D01*
X91114250Y-127115000D01*
X90898690Y-127115000D01*
X90665301Y-127211673D01*
X90486673Y-127390302D01*
X90390000Y-127623691D01*
X77935207Y-127623691D01*
X77935242Y-127583735D01*
X77723313Y-127070828D01*
X77331236Y-126678066D01*
X76978336Y-126531529D01*
X77269941Y-126410742D01*
X77339159Y-126168764D01*
X76540000Y-125369605D01*
X75740841Y-126168764D01*
X75810059Y-126410742D01*
X76123734Y-126522605D01*
X75750828Y-126676687D01*
X75451994Y-126975000D01*
X75296637Y-126975000D01*
X75394758Y-126738700D01*
X75395126Y-126316454D01*
X75835788Y-125875791D01*
X75835791Y-125875789D01*
X76027634Y-125588674D01*
X76044000Y-125506395D01*
X76360395Y-125190000D01*
X76719605Y-125190000D01*
X77518764Y-125989159D01*
X77760742Y-125919941D01*
X77947155Y-125397220D01*
X77919341Y-124842951D01*
X77760742Y-124460059D01*
X77518764Y-124390841D01*
X76719605Y-125190000D01*
X76360395Y-125190000D01*
X76346253Y-125175858D01*
X76525858Y-124996253D01*
X76540000Y-125010395D01*
X77339159Y-124211236D01*
X77269941Y-123969258D01*
X76753789Y-123785188D01*
X76816265Y-123785242D01*
X77329172Y-123573313D01*
X77721934Y-123181236D01*
X77934758Y-122668700D01*
X77935242Y-122113735D01*
X77723313Y-121600828D01*
X77331236Y-121208066D01*
X76818700Y-120995242D01*
X76816270Y-120995240D01*
X77329172Y-120783313D01*
X77721934Y-120391236D01*
X77934758Y-119878700D01*
X77935242Y-119323735D01*
X77723313Y-118810828D01*
X77331236Y-118418066D01*
X77226289Y-118374488D01*
X78075787Y-117524990D01*
X78075790Y-117524988D01*
X78267633Y-117237873D01*
X78304758Y-117051236D01*
X78335001Y-116899198D01*
X78335000Y-116899193D01*
X78335000Y-106724669D01*
X78351441Y-106714090D01*
X78496431Y-106501890D01*
X78547440Y-106250000D01*
X78547440Y-103750000D01*
X78503162Y-103514683D01*
X78364090Y-103298559D01*
X78335000Y-103278683D01*
X78335000Y-101806440D01*
X102373165Y-101806440D01*
X102582353Y-102167289D01*
X103519650Y-102544824D01*
X104530077Y-102534933D01*
X105417647Y-102167289D01*
X105626835Y-101806440D01*
X104000000Y-100179605D01*
X102373165Y-101806440D01*
X78335000Y-101806440D01*
X78335000Y-99519650D01*
X101455176Y-99519650D01*
X101465067Y-100530077D01*
X101832711Y-101417647D01*
X102193560Y-101626835D01*
X103820395Y-100000000D01*
X104179605Y-100000000D01*
X105806440Y-101626835D01*
X106167289Y-101417647D01*
X106544824Y-100480350D01*
X106534933Y-99469923D01*
X106167289Y-98582353D01*
X105806440Y-98373165D01*
X104179605Y-100000000D01*
X103820395Y-100000000D01*
X102193560Y-98373165D01*
X101832711Y-98582353D01*
X101455176Y-99519650D01*
X78335000Y-99519650D01*
X78335000Y-98290005D01*
X78335001Y-98290000D01*
X78315818Y-98193560D01*
X102373165Y-98193560D01*
X104000000Y-99820395D01*
X105626835Y-98193560D01*
X105417647Y-97832711D01*
X104480350Y-97455176D01*
X103469923Y-97465067D01*
X102582353Y-97832711D01*
X102373165Y-98193560D01*
X78315818Y-98193560D01*
X78267633Y-97951325D01*
X78188378Y-97832711D01*
X78075790Y-97664210D01*
X78075787Y-97664208D01*
X76344803Y-95933223D01*
X76443327Y-95834698D01*
X76540000Y-95601309D01*
X76540000Y-94985750D01*
X76381250Y-94827000D01*
X75732000Y-94827000D01*
X75732000Y-94847000D01*
X75478000Y-94847000D01*
X75478000Y-94827000D01*
X75458000Y-94827000D01*
X75458000Y-94573000D01*
X75478000Y-94573000D01*
X75478000Y-93448750D01*
X75732000Y-93448750D01*
X75732000Y-94573000D01*
X76381250Y-94573000D01*
X76540000Y-94414250D01*
X76540000Y-93798691D01*
X76443327Y-93565302D01*
X76264699Y-93386673D01*
X76031310Y-93290000D01*
X75890750Y-93290000D01*
X75732000Y-93448750D01*
X75478000Y-93448750D01*
X75319250Y-93290000D01*
X75178690Y-93290000D01*
X74961878Y-93379806D01*
X74886890Y-93328569D01*
X74635000Y-93277560D01*
X74035000Y-93277560D01*
X73799683Y-93321838D01*
X73700472Y-93385678D01*
X73616890Y-93328569D01*
X73365000Y-93277560D01*
X72765000Y-93277560D01*
X72529683Y-93321838D01*
X72430472Y-93385678D01*
X72346890Y-93328569D01*
X72095000Y-93277560D01*
X71495000Y-93277560D01*
X71259683Y-93321838D01*
X71043559Y-93460910D01*
X70999558Y-93525308D01*
X70851250Y-93377000D01*
X70127000Y-93377000D01*
X70127000Y-93397000D01*
X69873000Y-93397000D01*
X69873000Y-93377000D01*
X69148750Y-93377000D01*
X68990000Y-93535750D01*
X68990000Y-93776309D01*
X69086673Y-94009698D01*
X69088043Y-94011068D01*
X69028569Y-94098110D01*
X68977560Y-94350000D01*
X68977560Y-95150000D01*
X69021838Y-95385317D01*
X69115000Y-95530095D01*
X69115000Y-96193178D01*
X69065162Y-96313201D01*
X69064838Y-96685167D01*
X69206883Y-97028943D01*
X69469673Y-97292192D01*
X69629756Y-97358664D01*
X68924210Y-98064210D01*
X68732367Y-98351325D01*
X68728023Y-98373165D01*
X68664999Y-98690000D01*
X68665000Y-98690005D01*
X68665000Y-103275331D01*
X68648559Y-103285910D01*
X68503569Y-103498110D01*
X68452560Y-103750000D01*
X64063899Y-103750000D01*
X64063899Y-103136876D01*
X64122008Y-103164166D01*
X64351900Y-103043499D01*
X64351900Y-101849680D01*
X64331900Y-101849680D01*
X64331900Y-101595680D01*
X64351900Y-101595680D01*
X64351900Y-101575680D01*
X64605900Y-101575680D01*
X64605900Y-101595680D01*
X64625900Y-101595680D01*
X64625900Y-101849680D01*
X64605900Y-101849680D01*
X64605900Y-103043499D01*
X64835792Y-103164166D01*
X65360258Y-102917863D01*
X65750545Y-102489604D01*
X65750555Y-102489579D01*
X65939753Y-102772734D01*
X66421522Y-103094641D01*
X66989807Y-103207680D01*
X67047993Y-103207680D01*
X67616278Y-103094641D01*
X68098047Y-102772734D01*
X68419954Y-102290965D01*
X68532993Y-101722680D01*
X68419954Y-101154395D01*
X68098047Y-100672626D01*
X67768874Y-100452680D01*
X68098047Y-100232734D01*
X68419954Y-99750965D01*
X68532993Y-99182680D01*
X68419954Y-98614395D01*
X68098047Y-98132626D01*
X67768874Y-97912680D01*
X68098047Y-97692734D01*
X68419954Y-97210965D01*
X68532993Y-96642680D01*
X68419954Y-96074395D01*
X68098047Y-95592626D01*
X67757347Y-95364978D01*
X67900258Y-95297863D01*
X68290545Y-94869604D01*
X68460376Y-94459570D01*
X68339055Y-94229680D01*
X67145900Y-94229680D01*
X67145900Y-94249680D01*
X66891900Y-94249680D01*
X66891900Y-94229680D01*
X66871900Y-94229680D01*
X66871900Y-93975680D01*
X66891900Y-93975680D01*
X66891900Y-93955680D01*
X67145900Y-93955680D01*
X67145900Y-93975680D01*
X68339055Y-93975680D01*
X68460376Y-93745790D01*
X68290545Y-93335756D01*
X68259650Y-93301856D01*
X68299720Y-93275082D01*
X68851111Y-92723691D01*
X68990000Y-92723691D01*
X68990000Y-92964250D01*
X69148750Y-93123000D01*
X69873000Y-93123000D01*
X69873000Y-92373750D01*
X70127000Y-92373750D01*
X70127000Y-93123000D01*
X70851250Y-93123000D01*
X71010000Y-92964250D01*
X71010000Y-92723691D01*
X70913327Y-92490302D01*
X70734699Y-92311673D01*
X70501310Y-92215000D01*
X70285750Y-92215000D01*
X70127000Y-92373750D01*
X69873000Y-92373750D01*
X69714250Y-92215000D01*
X69498690Y-92215000D01*
X69265301Y-92311673D01*
X69086673Y-92490302D01*
X68990000Y-92723691D01*
X68851111Y-92723691D01*
X70014802Y-91560000D01*
X72040000Y-91560000D01*
X72330839Y-91502148D01*
X72577401Y-91337401D01*
X73192362Y-90722440D01*
X73365000Y-90722440D01*
X73600317Y-90678162D01*
X73690980Y-90619822D01*
X73908690Y-90710000D01*
X74049250Y-90710000D01*
X74208000Y-90551250D01*
X74208000Y-89427000D01*
X74188000Y-89427000D01*
X74188000Y-89173000D01*
X74208000Y-89173000D01*
X74208000Y-89153000D01*
X74462000Y-89153000D01*
X74462000Y-89173000D01*
X74482000Y-89173000D01*
X74482000Y-89427000D01*
X74462000Y-89427000D01*
X74462000Y-90551250D01*
X74620750Y-90710000D01*
X74761310Y-90710000D01*
X74978122Y-90620194D01*
X75053110Y-90671431D01*
X75305000Y-90722440D01*
X75905000Y-90722440D01*
X76140317Y-90678162D01*
X76356441Y-90539090D01*
X76501431Y-90326890D01*
X76552440Y-90075000D01*
X76552440Y-88525000D01*
X76508162Y-88289683D01*
X76369090Y-88073559D01*
X76317985Y-88038640D01*
X76307148Y-87984160D01*
X76142401Y-87737599D01*
X75167401Y-86762599D01*
X74920839Y-86597852D01*
X74630000Y-86540000D01*
X71755105Y-86540000D01*
X71664090Y-86398559D01*
X71451890Y-86253569D01*
X71200000Y-86202560D01*
X70700000Y-86202560D01*
X70464683Y-86246838D01*
X70248559Y-86385910D01*
X70200866Y-86455711D01*
X70164090Y-86398559D01*
X69951890Y-86253569D01*
X69700000Y-86202560D01*
X69200000Y-86202560D01*
X68964683Y-86246838D01*
X68748559Y-86385910D01*
X68627811Y-86562630D01*
X68498994Y-86588254D01*
X68450740Y-86597852D01*
X68363556Y-86656107D01*
X68339055Y-86609680D01*
X67145900Y-86609680D01*
X67145900Y-86629680D01*
X66891900Y-86629680D01*
X66891900Y-86609680D01*
X66871900Y-86609680D01*
X66871900Y-86355680D01*
X66891900Y-86355680D01*
X66891900Y-86335680D01*
X67145900Y-86335680D01*
X67145900Y-86355680D01*
X68339055Y-86355680D01*
X68460376Y-86125790D01*
X68290545Y-85715756D01*
X67900258Y-85287497D01*
X67757347Y-85220382D01*
X68098047Y-84992734D01*
X68419954Y-84510965D01*
X68532993Y-83942680D01*
X68419954Y-83374395D01*
X68098047Y-82892626D01*
X67768874Y-82672680D01*
X68098047Y-82452734D01*
X68419954Y-81970965D01*
X68532993Y-81402680D01*
X68419954Y-80834395D01*
X68098047Y-80352626D01*
X67944457Y-80250000D01*
X73735907Y-80250000D01*
X73848946Y-80818285D01*
X74170853Y-81300054D01*
X74500026Y-81520000D01*
X74170853Y-81739946D01*
X73848946Y-82221715D01*
X73735907Y-82790000D01*
X73848946Y-83358285D01*
X74170853Y-83840054D01*
X74652622Y-84161961D01*
X75220907Y-84275000D01*
X75279093Y-84275000D01*
X75847378Y-84161961D01*
X76329147Y-83840054D01*
X76518345Y-83556899D01*
X76518355Y-83556924D01*
X76908642Y-83985183D01*
X77433108Y-84231486D01*
X77663000Y-84110819D01*
X77663000Y-82917000D01*
X77917000Y-82917000D01*
X77917000Y-84110819D01*
X78146892Y-84231486D01*
X78671358Y-83985183D01*
X79061645Y-83556924D01*
X79231476Y-83146890D01*
X79110155Y-82917000D01*
X77917000Y-82917000D01*
X77663000Y-82917000D01*
X77643000Y-82917000D01*
X77643000Y-82663000D01*
X77663000Y-82663000D01*
X77663000Y-82643000D01*
X77917000Y-82643000D01*
X77917000Y-82663000D01*
X79110155Y-82663000D01*
X79231476Y-82433110D01*
X79061645Y-82023076D01*
X78671358Y-81594817D01*
X78528447Y-81527702D01*
X78869147Y-81300054D01*
X79191054Y-80818285D01*
X79304093Y-80250000D01*
X79191054Y-79681715D01*
X78869147Y-79199946D01*
X78539974Y-78980000D01*
X78869147Y-78760054D01*
X79191054Y-78278285D01*
X79304093Y-77710000D01*
X79191054Y-77141715D01*
X78869147Y-76659946D01*
X78387378Y-76338039D01*
X77819093Y-76225000D01*
X77760907Y-76225000D01*
X77192622Y-76338039D01*
X76710853Y-76659946D01*
X76710029Y-76661179D01*
X76703162Y-76624683D01*
X76564090Y-76408559D01*
X76351890Y-76263569D01*
X76100000Y-76212560D01*
X74400000Y-76212560D01*
X74164683Y-76256838D01*
X73948559Y-76395910D01*
X73803569Y-76608110D01*
X73752560Y-76860000D01*
X73752560Y-78560000D01*
X73796838Y-78795317D01*
X73935910Y-79011441D01*
X74148110Y-79156431D01*
X74215541Y-79170086D01*
X74170853Y-79199946D01*
X73848946Y-79681715D01*
X73735907Y-80250000D01*
X67944457Y-80250000D01*
X67768874Y-80132680D01*
X68098047Y-79912734D01*
X68419954Y-79430965D01*
X68532993Y-78862680D01*
X68419954Y-78294395D01*
X68098047Y-77812626D01*
X67757347Y-77584978D01*
X67900258Y-77517863D01*
X68290545Y-77089604D01*
X68460376Y-76679570D01*
X68443130Y-76646890D01*
X69558524Y-76646890D01*
X69728355Y-77056924D01*
X70118642Y-77485183D01*
X70643108Y-77731486D01*
X70873000Y-77610819D01*
X70873000Y-76417000D01*
X71127000Y-76417000D01*
X71127000Y-77610819D01*
X71356892Y-77731486D01*
X71881358Y-77485183D01*
X72271645Y-77056924D01*
X72441476Y-76646890D01*
X72320155Y-76417000D01*
X71127000Y-76417000D01*
X70873000Y-76417000D01*
X69679845Y-76417000D01*
X69558524Y-76646890D01*
X68443130Y-76646890D01*
X68339055Y-76449680D01*
X67145900Y-76449680D01*
X67145900Y-76469680D01*
X66891900Y-76469680D01*
X66891900Y-76449680D01*
X66871900Y-76449680D01*
X66871900Y-76195680D01*
X66891900Y-76195680D01*
X66891900Y-76175680D01*
X67145900Y-76175680D01*
X67145900Y-76195680D01*
X68339055Y-76195680D01*
X68460376Y-75965790D01*
X68290545Y-75555756D01*
X67900258Y-75127497D01*
X67757347Y-75060382D01*
X68098047Y-74832734D01*
X68419954Y-74350965D01*
X68532993Y-73782680D01*
X68526493Y-73750000D01*
X69485907Y-73750000D01*
X69598946Y-74318285D01*
X69920853Y-74800054D01*
X70261553Y-75027702D01*
X70118642Y-75094817D01*
X69728355Y-75523076D01*
X69558524Y-75933110D01*
X69679845Y-76163000D01*
X70873000Y-76163000D01*
X70873000Y-76143000D01*
X71127000Y-76143000D01*
X71127000Y-76163000D01*
X72320155Y-76163000D01*
X72441476Y-75933110D01*
X72271645Y-75523076D01*
X71881358Y-75094817D01*
X71738447Y-75027702D01*
X72079147Y-74800054D01*
X72401054Y-74318285D01*
X72514093Y-73750000D01*
X72401054Y-73181715D01*
X72079147Y-72699946D01*
X72037548Y-72672150D01*
X72085317Y-72663162D01*
X72301441Y-72524090D01*
X72446431Y-72311890D01*
X72497440Y-72060000D01*
X72497440Y-70360000D01*
X72453162Y-70124683D01*
X72314090Y-69908559D01*
X72101890Y-69763569D01*
X71850000Y-69712560D01*
X70150000Y-69712560D01*
X69914683Y-69756838D01*
X69698559Y-69895910D01*
X69553569Y-70108110D01*
X69502560Y-70360000D01*
X69502560Y-72060000D01*
X69546838Y-72295317D01*
X69685910Y-72511441D01*
X69898110Y-72656431D01*
X69965541Y-72670086D01*
X69920853Y-72699946D01*
X69598946Y-73181715D01*
X69485907Y-73750000D01*
X68526493Y-73750000D01*
X68419954Y-73214395D01*
X68098047Y-72732626D01*
X67778900Y-72519379D01*
X67778900Y-72505981D01*
X68098047Y-72292734D01*
X68419954Y-71810965D01*
X68532993Y-71242680D01*
X68419954Y-70674395D01*
X68098047Y-70192626D01*
X67616278Y-69870719D01*
X67047993Y-69757680D01*
X66989807Y-69757680D01*
X66671931Y-69820909D01*
X66381300Y-69530278D01*
X66134738Y-69365531D01*
X65843899Y-69307679D01*
X63368899Y-69307679D01*
X63078060Y-69365531D01*
X62831498Y-69530278D01*
X62316489Y-70045287D01*
X62151742Y-70291849D01*
X62093890Y-70582688D01*
X62093890Y-130673890D01*
X62151742Y-130964729D01*
X62316489Y-131211291D01*
X75476891Y-144371693D01*
X74882486Y-144489928D01*
X74352219Y-144844241D01*
X74252621Y-144993300D01*
X73959726Y-144676932D01*
X73380355Y-144410373D01*
X73127000Y-144529193D01*
X73127000Y-145873000D01*
X73147000Y-145873000D01*
X73147000Y-146127000D01*
X73127000Y-146127000D01*
X73127000Y-147470807D01*
X73380355Y-147589627D01*
X73959726Y-147323068D01*
X74252621Y-147006700D01*
X74352219Y-147155759D01*
X74882486Y-147510072D01*
X75507978Y-147634490D01*
X75572022Y-147634490D01*
X76197514Y-147510072D01*
X76727781Y-147155759D01*
X77082094Y-146625492D01*
X77189703Y-146084505D01*
X79682599Y-148577401D01*
X79822560Y-148670920D01*
X79822560Y-148890000D01*
X79866838Y-149125317D01*
X79972809Y-149290000D01*
X66710000Y-149290000D01*
X66710000Y-145000510D01*
X68813070Y-145000510D01*
X68813070Y-146999490D01*
X68857348Y-147234807D01*
X68996420Y-147450931D01*
X69208620Y-147595921D01*
X69460510Y-147646930D01*
X71459490Y-147646930D01*
X71694807Y-147602652D01*
X71910931Y-147463580D01*
X72021094Y-147302351D01*
X72040274Y-147323068D01*
X72619645Y-147589627D01*
X72873000Y-147470807D01*
X72873000Y-146127000D01*
X72853000Y-146127000D01*
X72853000Y-145873000D01*
X72873000Y-145873000D01*
X72873000Y-144529193D01*
X72619645Y-144410373D01*
X72040274Y-144676932D01*
X72019970Y-144698863D01*
X71923580Y-144549069D01*
X71711380Y-144404079D01*
X71459490Y-144353070D01*
X69460510Y-144353070D01*
X69225193Y-144397348D01*
X69009069Y-144536420D01*
X68864079Y-144748620D01*
X68813070Y-145000510D01*
X66710000Y-145000510D01*
X66710000Y-144000000D01*
X66655954Y-143728295D01*
X66502046Y-143497954D01*
X66271705Y-143344046D01*
X66000000Y-143290000D01*
X60710000Y-143290000D01*
X60710000Y-66710000D01*
X66000000Y-66710000D01*
X66271705Y-66655954D01*
X66502046Y-66502046D01*
X66655954Y-66271705D01*
X66710000Y-66000000D01*
X66710000Y-64814285D01*
X68724760Y-64814285D01*
X68935169Y-65323515D01*
X69324436Y-65713461D01*
X69833298Y-65924759D01*
X70384285Y-65925240D01*
X70893515Y-65714831D01*
X71283461Y-65325564D01*
X71379976Y-65093130D01*
X71475169Y-65323515D01*
X71864436Y-65713461D01*
X71890000Y-65724076D01*
X71890000Y-67535000D01*
X71947852Y-67825839D01*
X72112599Y-68072401D01*
X73077599Y-69037401D01*
X73245043Y-69149283D01*
X73217560Y-69285000D01*
X73217560Y-70255000D01*
X73261838Y-70490317D01*
X73400910Y-70706441D01*
X73613110Y-70851431D01*
X73865000Y-70902440D01*
X75135000Y-70902440D01*
X75370317Y-70858162D01*
X75586441Y-70719090D01*
X75715641Y-70530000D01*
X76787373Y-70530000D01*
X76900910Y-70706441D01*
X77113110Y-70851431D01*
X77365000Y-70902440D01*
X78635000Y-70902440D01*
X78870317Y-70858162D01*
X79086441Y-70719090D01*
X79215641Y-70530000D01*
X82207938Y-70530000D01*
X82469673Y-70792192D01*
X82813201Y-70934838D01*
X83165000Y-70935144D01*
X83165000Y-73063571D01*
X86985000Y-73063571D01*
X86985000Y-50936428D01*
X83165000Y-50936428D01*
X83165000Y-69065143D01*
X83046702Y-69065040D01*
X82770000Y-69010000D01*
X79277377Y-69010000D01*
X79282440Y-68985000D01*
X79282440Y-68422065D01*
X79313201Y-68434838D01*
X79685167Y-68435162D01*
X80028943Y-68293117D01*
X80292192Y-68030327D01*
X80434838Y-67686799D01*
X80435162Y-67314833D01*
X80293117Y-66971057D01*
X80030327Y-66707808D01*
X79686799Y-66565162D01*
X79576534Y-66565066D01*
X79520839Y-66527852D01*
X79230000Y-66470000D01*
X79212627Y-66470000D01*
X79099090Y-66293559D01*
X78886890Y-66148569D01*
X78635000Y-66097560D01*
X77365000Y-66097560D01*
X77129683Y-66141838D01*
X76913559Y-66280910D01*
X76784359Y-66470000D01*
X75712627Y-66470000D01*
X75599090Y-66293559D01*
X75386890Y-66148569D01*
X75135000Y-66097560D01*
X73865000Y-66097560D01*
X73629683Y-66141838D01*
X73413559Y-66280910D01*
X73410000Y-66286119D01*
X73410000Y-65724547D01*
X73433515Y-65714831D01*
X73637183Y-65511517D01*
X74398088Y-65511517D01*
X74466077Y-65752460D01*
X74985171Y-65937201D01*
X75535448Y-65909230D01*
X75913923Y-65752460D01*
X75981912Y-65511517D01*
X75190000Y-64719605D01*
X74398088Y-65511517D01*
X73637183Y-65511517D01*
X73823461Y-65325564D01*
X73913377Y-65109021D01*
X73977540Y-65263923D01*
X74218483Y-65331912D01*
X75010395Y-64540000D01*
X74218483Y-63748088D01*
X73977540Y-63816077D01*
X73918268Y-63982621D01*
X73824831Y-63756485D01*
X73637157Y-63568483D01*
X74398088Y-63568483D01*
X75190000Y-64360395D01*
X75981912Y-63568483D01*
X75913923Y-63327540D01*
X75394829Y-63142799D01*
X74844552Y-63170770D01*
X74466077Y-63327540D01*
X74398088Y-63568483D01*
X73637157Y-63568483D01*
X73435564Y-63366539D01*
X72926702Y-63155241D01*
X72375715Y-63154760D01*
X71866485Y-63365169D01*
X71476539Y-63754436D01*
X71380024Y-63986870D01*
X71284831Y-63756485D01*
X70895564Y-63366539D01*
X70386702Y-63155241D01*
X69835715Y-63154760D01*
X69326485Y-63365169D01*
X68936539Y-63754436D01*
X68725241Y-64263298D01*
X68724760Y-64814285D01*
X66710000Y-64814285D01*
X66710000Y-62274285D01*
X69994760Y-62274285D01*
X70205169Y-62783515D01*
X70594436Y-63173461D01*
X71103298Y-63384759D01*
X71654285Y-63385240D01*
X72163515Y-63174831D01*
X72367183Y-62971517D01*
X73128088Y-62971517D01*
X73196077Y-63212460D01*
X73715171Y-63397201D01*
X74265448Y-63369230D01*
X74643923Y-63212460D01*
X74711912Y-62971517D01*
X73920000Y-62179605D01*
X73128088Y-62971517D01*
X72367183Y-62971517D01*
X72553461Y-62785564D01*
X72643377Y-62569021D01*
X72707540Y-62723923D01*
X72948483Y-62791912D01*
X73740395Y-62000000D01*
X74099605Y-62000000D01*
X74891517Y-62791912D01*
X75132460Y-62723923D01*
X75191732Y-62557379D01*
X75285169Y-62783515D01*
X75674436Y-63173461D01*
X76183298Y-63384759D01*
X76734285Y-63385240D01*
X77243515Y-63174831D01*
X77613080Y-62805909D01*
X77646838Y-62985317D01*
X77756040Y-63155022D01*
X77455715Y-63154760D01*
X76946485Y-63365169D01*
X76556539Y-63754436D01*
X76466623Y-63970979D01*
X76402460Y-63816077D01*
X76161517Y-63748088D01*
X75369605Y-64540000D01*
X76161517Y-65331912D01*
X76402460Y-65263923D01*
X76461732Y-65097379D01*
X76555169Y-65323515D01*
X76944436Y-65713461D01*
X77453298Y-65924759D01*
X78004285Y-65925240D01*
X78513515Y-65714831D01*
X78903461Y-65325564D01*
X79114759Y-64816702D01*
X79115240Y-64265715D01*
X78904831Y-63756485D01*
X78546411Y-63397440D01*
X79750000Y-63397440D01*
X79985317Y-63353162D01*
X80201441Y-63214090D01*
X80346431Y-63001890D01*
X80397440Y-62750000D01*
X80397440Y-61250000D01*
X80353162Y-61014683D01*
X80214090Y-60798559D01*
X80001890Y-60653569D01*
X79750000Y-60602560D01*
X78250000Y-60602560D01*
X78014683Y-60646838D01*
X77798559Y-60785910D01*
X77653569Y-60998110D01*
X77613645Y-61195262D01*
X77245564Y-60826539D01*
X76736702Y-60615241D01*
X76185715Y-60614760D01*
X75676485Y-60825169D01*
X75286539Y-61214436D01*
X75196623Y-61430979D01*
X75132460Y-61276077D01*
X74891517Y-61208088D01*
X74099605Y-62000000D01*
X73740395Y-62000000D01*
X72948483Y-61208088D01*
X72707540Y-61276077D01*
X72648268Y-61442621D01*
X72554831Y-61216485D01*
X72367157Y-61028483D01*
X73128088Y-61028483D01*
X73920000Y-61820395D01*
X74711912Y-61028483D01*
X74643923Y-60787540D01*
X74124829Y-60602799D01*
X73574552Y-60630770D01*
X73196077Y-60787540D01*
X73128088Y-61028483D01*
X72367157Y-61028483D01*
X72165564Y-60826539D01*
X71656702Y-60615241D01*
X71105715Y-60614760D01*
X70596485Y-60825169D01*
X70206539Y-61214436D01*
X69995241Y-61723298D01*
X69994760Y-62274285D01*
X66710000Y-62274285D01*
X66710000Y-60000000D01*
X66655954Y-59728295D01*
X66502046Y-59497954D01*
X66271705Y-59344046D01*
X66000000Y-59290000D01*
X60710000Y-59290000D01*
X60710000Y-56137177D01*
X66159574Y-56137177D01*
X66533298Y-57041657D01*
X67224703Y-57734270D01*
X68128529Y-58109572D01*
X69107177Y-58110426D01*
X70011657Y-57736702D01*
X70704270Y-57045297D01*
X71079572Y-56141471D01*
X71079575Y-56137177D01*
X78029574Y-56137177D01*
X78403298Y-57041657D01*
X79094703Y-57734270D01*
X79998529Y-58109572D01*
X80977177Y-58110426D01*
X81881657Y-57736702D01*
X82574270Y-57045297D01*
X82949572Y-56141471D01*
X82950426Y-55162823D01*
X82576702Y-54258343D01*
X81885297Y-53565730D01*
X80981471Y-53190428D01*
X80002823Y-53189574D01*
X79098343Y-53563298D01*
X78405730Y-54254703D01*
X78030428Y-55158529D01*
X78029574Y-56137177D01*
X71079575Y-56137177D01*
X71080426Y-55162823D01*
X70706702Y-54258343D01*
X70015297Y-53565730D01*
X69111471Y-53190428D01*
X68132823Y-53189574D01*
X67228343Y-53563298D01*
X66535730Y-54254703D01*
X66160428Y-55158529D01*
X66159574Y-56137177D01*
X60710000Y-56137177D01*
X60710000Y-50710000D01*
X87290000Y-50710000D01*
X87290000Y-70000000D01*
G36*
X90522546Y-144631715D02*
X90409507Y-145200000D01*
X90522546Y-145768285D01*
X90844453Y-146250054D01*
X91326222Y-146571961D01*
X91894507Y-146685000D01*
X91952693Y-146685000D01*
X92520978Y-146571961D01*
X93002747Y-146250054D01*
X93003571Y-146248821D01*
X93010438Y-146285317D01*
X93149510Y-146501441D01*
X93361710Y-146646431D01*
X93613600Y-146697440D01*
X95313600Y-146697440D01*
X95548917Y-146653162D01*
X95765041Y-146514090D01*
X95873000Y-146356087D01*
X95873000Y-149290000D01*
X89730675Y-149290000D01*
X90135183Y-148921358D01*
X90381486Y-148396892D01*
X90260819Y-148167000D01*
X89067000Y-148167000D01*
X89067000Y-148187000D01*
X88813000Y-148187000D01*
X88813000Y-148167000D01*
X88793000Y-148167000D01*
X88793000Y-147913000D01*
X88813000Y-147913000D01*
X88813000Y-145627000D01*
X89067000Y-145627000D01*
X89067000Y-147913000D01*
X90260819Y-147913000D01*
X90381486Y-147683108D01*
X90135183Y-147158642D01*
X89708729Y-146770000D01*
X90135183Y-146381358D01*
X90381486Y-145856892D01*
X90260819Y-145627000D01*
X89067000Y-145627000D01*
X88813000Y-145627000D01*
X88793000Y-145627000D01*
X88793000Y-145373000D01*
X88813000Y-145373000D01*
X88813000Y-145353000D01*
X89067000Y-145353000D01*
X89067000Y-145373000D01*
X90260819Y-145373000D01*
X90381486Y-145143108D01*
X90135183Y-144618642D01*
X89741648Y-144260000D01*
X90770917Y-144260000D01*
X90522546Y-144631715D01*
X90522546Y-144631715D01*
G37*
X90522546Y-144631715D02*
X90409507Y-145200000D01*
X90522546Y-145768285D01*
X90844453Y-146250054D01*
X91326222Y-146571961D01*
X91894507Y-146685000D01*
X91952693Y-146685000D01*
X92520978Y-146571961D01*
X93002747Y-146250054D01*
X93003571Y-146248821D01*
X93010438Y-146285317D01*
X93149510Y-146501441D01*
X93361710Y-146646431D01*
X93613600Y-146697440D01*
X95313600Y-146697440D01*
X95548917Y-146653162D01*
X95765041Y-146514090D01*
X95873000Y-146356087D01*
X95873000Y-149290000D01*
X89730675Y-149290000D01*
X90135183Y-148921358D01*
X90381486Y-148396892D01*
X90260819Y-148167000D01*
X89067000Y-148167000D01*
X89067000Y-148187000D01*
X88813000Y-148187000D01*
X88813000Y-148167000D01*
X88793000Y-148167000D01*
X88793000Y-147913000D01*
X88813000Y-147913000D01*
X88813000Y-145627000D01*
X89067000Y-145627000D01*
X89067000Y-147913000D01*
X90260819Y-147913000D01*
X90381486Y-147683108D01*
X90135183Y-147158642D01*
X89708729Y-146770000D01*
X90135183Y-146381358D01*
X90381486Y-145856892D01*
X90260819Y-145627000D01*
X89067000Y-145627000D01*
X88813000Y-145627000D01*
X88793000Y-145627000D01*
X88793000Y-145373000D01*
X88813000Y-145373000D01*
X88813000Y-145353000D01*
X89067000Y-145353000D01*
X89067000Y-145373000D01*
X90260819Y-145373000D01*
X90381486Y-145143108D01*
X90135183Y-144618642D01*
X89741648Y-144260000D01*
X90770917Y-144260000D01*
X90522546Y-144631715D01*
G36*
X83095620Y-132749978D02*
X83028569Y-132848110D01*
X82977560Y-133100000D01*
X82977560Y-133900000D01*
X83021838Y-134135317D01*
X83160910Y-134351441D01*
X83193025Y-134373384D01*
X83173559Y-134385910D01*
X83028569Y-134598110D01*
X82977560Y-134850000D01*
X82977560Y-135650000D01*
X83021838Y-135885317D01*
X83095620Y-135999978D01*
X83028569Y-136098110D01*
X82977560Y-136350000D01*
X82977560Y-137150000D01*
X83021838Y-137385317D01*
X83160910Y-137601441D01*
X83162299Y-137602390D01*
X83028569Y-137798110D01*
X82977560Y-138050000D01*
X82977560Y-138850000D01*
X83021838Y-139085317D01*
X83088329Y-139188646D01*
X83086673Y-139190302D01*
X82990000Y-139423691D01*
X82990000Y-139664250D01*
X83148750Y-139823000D01*
X83873000Y-139823000D01*
X83873000Y-139803000D01*
X84127000Y-139803000D01*
X84127000Y-139823000D01*
X84147000Y-139823000D01*
X84147000Y-140077000D01*
X84127000Y-140077000D01*
X84127000Y-140826250D01*
X84285750Y-140985000D01*
X84501310Y-140985000D01*
X84734699Y-140888327D01*
X84902560Y-140720465D01*
X84902560Y-140745000D01*
X84946838Y-140980317D01*
X85085910Y-141196441D01*
X85298110Y-141341431D01*
X85550000Y-141392440D01*
X86892758Y-141392440D01*
X84226408Y-144058790D01*
X83860000Y-143985907D01*
X83291715Y-144098946D01*
X82809946Y-144420853D01*
X82590000Y-144750026D01*
X82370054Y-144420853D01*
X82080000Y-144227046D01*
X82080000Y-140235750D01*
X82990000Y-140235750D01*
X82990000Y-140476309D01*
X83086673Y-140709698D01*
X83265301Y-140888327D01*
X83498690Y-140985000D01*
X83714250Y-140985000D01*
X83873000Y-140826250D01*
X83873000Y-140077000D01*
X83148750Y-140077000D01*
X82990000Y-140235750D01*
X82080000Y-140235750D01*
X82080000Y-133634800D01*
X83044408Y-132670392D01*
X83095620Y-132749978D01*
X83095620Y-132749978D01*
G37*
X83095620Y-132749978D02*
X83028569Y-132848110D01*
X82977560Y-133100000D01*
X82977560Y-133900000D01*
X83021838Y-134135317D01*
X83160910Y-134351441D01*
X83193025Y-134373384D01*
X83173559Y-134385910D01*
X83028569Y-134598110D01*
X82977560Y-134850000D01*
X82977560Y-135650000D01*
X83021838Y-135885317D01*
X83095620Y-135999978D01*
X83028569Y-136098110D01*
X82977560Y-136350000D01*
X82977560Y-137150000D01*
X83021838Y-137385317D01*
X83160910Y-137601441D01*
X83162299Y-137602390D01*
X83028569Y-137798110D01*
X82977560Y-138050000D01*
X82977560Y-138850000D01*
X83021838Y-139085317D01*
X83088329Y-139188646D01*
X83086673Y-139190302D01*
X82990000Y-139423691D01*
X82990000Y-139664250D01*
X83148750Y-139823000D01*
X83873000Y-139823000D01*
X83873000Y-139803000D01*
X84127000Y-139803000D01*
X84127000Y-139823000D01*
X84147000Y-139823000D01*
X84147000Y-140077000D01*
X84127000Y-140077000D01*
X84127000Y-140826250D01*
X84285750Y-140985000D01*
X84501310Y-140985000D01*
X84734699Y-140888327D01*
X84902560Y-140720465D01*
X84902560Y-140745000D01*
X84946838Y-140980317D01*
X85085910Y-141196441D01*
X85298110Y-141341431D01*
X85550000Y-141392440D01*
X86892758Y-141392440D01*
X84226408Y-144058790D01*
X83860000Y-143985907D01*
X83291715Y-144098946D01*
X82809946Y-144420853D01*
X82590000Y-144750026D01*
X82370054Y-144420853D01*
X82080000Y-144227046D01*
X82080000Y-140235750D01*
X82990000Y-140235750D01*
X82990000Y-140476309D01*
X83086673Y-140709698D01*
X83265301Y-140888327D01*
X83498690Y-140985000D01*
X83714250Y-140985000D01*
X83873000Y-140826250D01*
X83873000Y-140077000D01*
X83148750Y-140077000D01*
X82990000Y-140235750D01*
X82080000Y-140235750D01*
X82080000Y-133634800D01*
X83044408Y-132670392D01*
X83095620Y-132749978D01*
G36*
X64605900Y-81275680D02*
X64625900Y-81275680D01*
X64625900Y-81529680D01*
X64605900Y-81529680D01*
X64605900Y-81549680D01*
X64351900Y-81549680D01*
X64351900Y-81529680D01*
X64331900Y-81529680D01*
X64331900Y-81275680D01*
X64351900Y-81275680D01*
X64351900Y-81255680D01*
X64605900Y-81255680D01*
X64605900Y-81275680D01*
X64605900Y-81275680D01*
G37*
X64605900Y-81275680D02*
X64625900Y-81275680D01*
X64625900Y-81529680D01*
X64605900Y-81529680D01*
X64605900Y-81549680D01*
X64351900Y-81549680D01*
X64351900Y-81529680D01*
X64331900Y-81529680D01*
X64331900Y-81275680D01*
X64351900Y-81275680D01*
X64351900Y-81255680D01*
X64605900Y-81255680D01*
X64605900Y-81275680D01*
M02*
