G04 #@! TF.FileFunction,Copper,L2,Bot,Signal*
%FSLAX46Y46*%
G04 Gerber Fmt 4.6, Leading zero omitted, Abs format (unit mm)*
G04 Created by KiCad (PCBNEW 4.0.6) date 07/31/17 19:13:33*
%MOMM*%
%LPD*%
G01*
G04 APERTURE LIST*
%ADD10C,0.100000*%
%ADD11C,0.150000*%
%ADD12C,0.300000*%
%ADD13C,0.400000*%
%ADD14C,0.010000*%
%ADD15R,1.700000X1.700000*%
%ADD16O,1.700000X1.700000*%
%ADD17C,3.650000*%
%ADD18R,1.500000X1.500000*%
%ADD19C,1.500000*%
%ADD20O,1.998980X1.998980*%
%ADD21R,1.998980X1.998980*%
%ADD22R,1.600000X1.600000*%
%ADD23O,1.600000X1.600000*%
%ADD24C,3.810000*%
%ADD25R,1.520000X1.520000*%
%ADD26C,1.520000*%
%ADD27C,0.600000*%
%ADD28C,0.250000*%
%ADD29C,0.500000*%
%ADD30C,0.254000*%
G04 APERTURE END LIST*
D10*
D11*
X177002200Y-166007200D02*
X177002200Y-198007200D01*
X285002200Y-198007200D01*
X285002200Y-166007200D01*
X177002200Y-166007200D01*
D10*
D11*
X10000000Y-10000000D02*
X10000000Y-200007200D01*
X287002200Y-200007200D01*
X287002200Y-10000000D01*
X10000000Y-10000000D01*
D10*
D11*
X12000000Y-12000000D02*
X12000000Y-198007200D01*
X285002200Y-198007200D01*
X285002200Y-12000000D01*
X12000000Y-12000000D01*
D10*
D11*
X60000000Y-12000000D02*
X60000000Y-10000000D01*
D10*
D11*
X110000000Y-12000000D02*
X110000000Y-10000000D01*
D10*
D11*
X160000000Y-12000000D02*
X160000000Y-10000000D01*
D10*
D11*
X210000000Y-12000000D02*
X210000000Y-10000000D01*
D10*
D11*
X260000000Y-12000000D02*
X260000000Y-10000000D01*
D10*
D11*
X35990476Y-11588095D02*
X35247619Y-11588095D01*
X35619048Y-11588095D02*
X35619048Y-10288095D01*
X35495238Y-10473810D01*
X35371429Y-10597619D01*
X35247619Y-10659524D01*
D10*
D11*
X85247619Y-10411905D02*
X85309524Y-10350000D01*
X85433333Y-10288095D01*
X85742857Y-10288095D01*
X85866667Y-10350000D01*
X85928571Y-10411905D01*
X85990476Y-10535714D01*
X85990476Y-10659524D01*
X85928571Y-10845238D01*
X85185714Y-11588095D01*
X85990476Y-11588095D01*
D10*
D11*
X135185714Y-10288095D02*
X135990476Y-10288095D01*
X135557143Y-10783333D01*
X135742857Y-10783333D01*
X135866667Y-10845238D01*
X135928571Y-10907143D01*
X135990476Y-11030952D01*
X135990476Y-11340476D01*
X135928571Y-11464286D01*
X135866667Y-11526190D01*
X135742857Y-11588095D01*
X135371429Y-11588095D01*
X135247619Y-11526190D01*
X135185714Y-11464286D01*
D10*
D11*
X185866667Y-10721429D02*
X185866667Y-11588095D01*
X185557143Y-10226190D02*
X185247619Y-11154762D01*
X186052381Y-11154762D01*
D10*
D11*
X235928571Y-10288095D02*
X235309524Y-10288095D01*
X235247619Y-10907143D01*
X235309524Y-10845238D01*
X235433333Y-10783333D01*
X235742857Y-10783333D01*
X235866667Y-10845238D01*
X235928571Y-10907143D01*
X235990476Y-11030952D01*
X235990476Y-11340476D01*
X235928571Y-11464286D01*
X235866667Y-11526190D01*
X235742857Y-11588095D01*
X235433333Y-11588095D01*
X235309524Y-11526190D01*
X235247619Y-11464286D01*
D10*
D11*
X285866667Y-10288095D02*
X285619048Y-10288095D01*
X285495238Y-10350000D01*
X285433333Y-10411905D01*
X285309524Y-10597619D01*
X285247619Y-10845238D01*
X285247619Y-11340476D01*
X285309524Y-11464286D01*
X285371429Y-11526190D01*
X285495238Y-11588095D01*
X285742857Y-11588095D01*
X285866667Y-11526190D01*
X285928571Y-11464286D01*
X285990476Y-11340476D01*
X285990476Y-11030952D01*
X285928571Y-10907143D01*
X285866667Y-10845238D01*
X285742857Y-10783333D01*
X285495238Y-10783333D01*
X285371429Y-10845238D01*
X285309524Y-10907143D01*
X285247619Y-11030952D01*
D10*
D11*
X60000000Y-198007200D02*
X60000000Y-200007200D01*
D10*
D11*
X110000000Y-198007200D02*
X110000000Y-200007200D01*
D10*
D11*
X160000000Y-198007200D02*
X160000000Y-200007200D01*
D10*
D11*
X210000000Y-198007200D02*
X210000000Y-200007200D01*
D10*
D11*
X260000000Y-198007200D02*
X260000000Y-200007200D01*
D10*
D11*
X35990476Y-199595295D02*
X35247619Y-199595295D01*
X35619048Y-199595295D02*
X35619048Y-198295295D01*
X35495238Y-198481010D01*
X35371429Y-198604819D01*
X35247619Y-198666724D01*
D10*
D11*
X85247619Y-198419105D02*
X85309524Y-198357200D01*
X85433333Y-198295295D01*
X85742857Y-198295295D01*
X85866667Y-198357200D01*
X85928571Y-198419105D01*
X85990476Y-198542914D01*
X85990476Y-198666724D01*
X85928571Y-198852438D01*
X85185714Y-199595295D01*
X85990476Y-199595295D01*
D10*
D11*
X135185714Y-198295295D02*
X135990476Y-198295295D01*
X135557143Y-198790533D01*
X135742857Y-198790533D01*
X135866667Y-198852438D01*
X135928571Y-198914343D01*
X135990476Y-199038152D01*
X135990476Y-199347676D01*
X135928571Y-199471486D01*
X135866667Y-199533390D01*
X135742857Y-199595295D01*
X135371429Y-199595295D01*
X135247619Y-199533390D01*
X135185714Y-199471486D01*
D10*
D11*
X185866667Y-198728629D02*
X185866667Y-199595295D01*
X185557143Y-198233390D02*
X185247619Y-199161962D01*
X186052381Y-199161962D01*
D10*
D11*
X235928571Y-198295295D02*
X235309524Y-198295295D01*
X235247619Y-198914343D01*
X235309524Y-198852438D01*
X235433333Y-198790533D01*
X235742857Y-198790533D01*
X235866667Y-198852438D01*
X235928571Y-198914343D01*
X235990476Y-199038152D01*
X235990476Y-199347676D01*
X235928571Y-199471486D01*
X235866667Y-199533390D01*
X235742857Y-199595295D01*
X235433333Y-199595295D01*
X235309524Y-199533390D01*
X235247619Y-199471486D01*
D10*
D11*
X285866667Y-198295295D02*
X285619048Y-198295295D01*
X285495238Y-198357200D01*
X285433333Y-198419105D01*
X285309524Y-198604819D01*
X285247619Y-198852438D01*
X285247619Y-199347676D01*
X285309524Y-199471486D01*
X285371429Y-199533390D01*
X285495238Y-199595295D01*
X285742857Y-199595295D01*
X285866667Y-199533390D01*
X285928571Y-199471486D01*
X285990476Y-199347676D01*
X285990476Y-199038152D01*
X285928571Y-198914343D01*
X285866667Y-198852438D01*
X285742857Y-198790533D01*
X285495238Y-198790533D01*
X285371429Y-198852438D01*
X285309524Y-198914343D01*
X285247619Y-199038152D01*
D10*
D11*
X10000000Y-60000000D02*
X12000000Y-60000000D01*
D10*
D11*
X10000000Y-110000000D02*
X12000000Y-110000000D01*
D10*
D11*
X10000000Y-160000000D02*
X12000000Y-160000000D01*
D10*
D11*
X10690476Y-35216667D02*
X11309524Y-35216667D01*
X10566667Y-35588095D02*
X11000000Y-34288095D01*
X11433333Y-35588095D01*
D10*
D11*
X11092857Y-84907143D02*
X11278571Y-84969048D01*
X11340476Y-85030952D01*
X11402381Y-85154762D01*
X11402381Y-85340476D01*
X11340476Y-85464286D01*
X11278571Y-85526190D01*
X11154762Y-85588095D01*
X10659524Y-85588095D01*
X10659524Y-84288095D01*
X11092857Y-84288095D01*
X11216667Y-84350000D01*
X11278571Y-84411905D01*
X11340476Y-84535714D01*
X11340476Y-84659524D01*
X11278571Y-84783333D01*
X11216667Y-84845238D01*
X11092857Y-84907143D01*
X10659524Y-84907143D01*
D10*
D11*
X11402381Y-135464286D02*
X11340476Y-135526190D01*
X11154762Y-135588095D01*
X11030952Y-135588095D01*
X10845238Y-135526190D01*
X10721429Y-135402381D01*
X10659524Y-135278571D01*
X10597619Y-135030952D01*
X10597619Y-134845238D01*
X10659524Y-134597619D01*
X10721429Y-134473810D01*
X10845238Y-134350000D01*
X11030952Y-134288095D01*
X11154762Y-134288095D01*
X11340476Y-134350000D01*
X11402381Y-134411905D01*
D10*
D11*
X10659524Y-185588095D02*
X10659524Y-184288095D01*
X10969048Y-184288095D01*
X11154762Y-184350000D01*
X11278571Y-184473810D01*
X11340476Y-184597619D01*
X11402381Y-184845238D01*
X11402381Y-185030952D01*
X11340476Y-185278571D01*
X11278571Y-185402381D01*
X11154762Y-185526190D01*
X10969048Y-185588095D01*
X10659524Y-185588095D01*
D10*
D11*
X287002200Y-60000000D02*
X285002200Y-60000000D01*
D10*
D11*
X287002200Y-110000000D02*
X285002200Y-110000000D01*
D10*
D11*
X287002200Y-160000000D02*
X285002200Y-160000000D01*
D10*
D11*
X285692676Y-35216667D02*
X286311724Y-35216667D01*
X285568867Y-35588095D02*
X286002200Y-34288095D01*
X286435533Y-35588095D01*
D10*
D11*
X286095057Y-84907143D02*
X286280771Y-84969048D01*
X286342676Y-85030952D01*
X286404581Y-85154762D01*
X286404581Y-85340476D01*
X286342676Y-85464286D01*
X286280771Y-85526190D01*
X286156962Y-85588095D01*
X285661724Y-85588095D01*
X285661724Y-84288095D01*
X286095057Y-84288095D01*
X286218867Y-84350000D01*
X286280771Y-84411905D01*
X286342676Y-84535714D01*
X286342676Y-84659524D01*
X286280771Y-84783333D01*
X286218867Y-84845238D01*
X286095057Y-84907143D01*
X285661724Y-84907143D01*
D10*
D11*
X286404581Y-135464286D02*
X286342676Y-135526190D01*
X286156962Y-135588095D01*
X286033152Y-135588095D01*
X285847438Y-135526190D01*
X285723629Y-135402381D01*
X285661724Y-135278571D01*
X285599819Y-135030952D01*
X285599819Y-134845238D01*
X285661724Y-134597619D01*
X285723629Y-134473810D01*
X285847438Y-134350000D01*
X286033152Y-134288095D01*
X286156962Y-134288095D01*
X286342676Y-134350000D01*
X286404581Y-134411905D01*
D10*
D11*
X285661724Y-185588095D02*
X285661724Y-184288095D01*
X285971248Y-184288095D01*
X286156962Y-184350000D01*
X286280771Y-184473810D01*
X286342676Y-184597619D01*
X286404581Y-184845238D01*
X286404581Y-185030952D01*
X286342676Y-185278571D01*
X286280771Y-185402381D01*
X286156962Y-185526190D01*
X285971248Y-185588095D01*
X285661724Y-185588095D01*
D10*
D11*
X200359343Y-193785771D02*
X200359343Y-192285771D01*
X200716486Y-192285771D01*
X200930771Y-192357200D01*
X201073629Y-192500057D01*
X201145057Y-192642914D01*
X201216486Y-192928629D01*
X201216486Y-193142914D01*
X201145057Y-193428629D01*
X201073629Y-193571486D01*
X200930771Y-193714343D01*
X200716486Y-193785771D01*
X200359343Y-193785771D01*
X202502200Y-193785771D02*
X202502200Y-193000057D01*
X202430771Y-192857200D01*
X202287914Y-192785771D01*
X202002200Y-192785771D01*
X201859343Y-192857200D01*
X202502200Y-193714343D02*
X202359343Y-193785771D01*
X202002200Y-193785771D01*
X201859343Y-193714343D01*
X201787914Y-193571486D01*
X201787914Y-193428629D01*
X201859343Y-193285771D01*
X202002200Y-193214343D01*
X202359343Y-193214343D01*
X202502200Y-193142914D01*
X203002200Y-192785771D02*
X203573629Y-192785771D01*
X203216486Y-192285771D02*
X203216486Y-193571486D01*
X203287914Y-193714343D01*
X203430772Y-193785771D01*
X203573629Y-193785771D01*
X204645057Y-193714343D02*
X204502200Y-193785771D01*
X204216486Y-193785771D01*
X204073629Y-193714343D01*
X204002200Y-193571486D01*
X204002200Y-193000057D01*
X204073629Y-192857200D01*
X204216486Y-192785771D01*
X204502200Y-192785771D01*
X204645057Y-192857200D01*
X204716486Y-193000057D01*
X204716486Y-193142914D01*
X204002200Y-193285771D01*
X205359343Y-193642914D02*
X205430771Y-193714343D01*
X205359343Y-193785771D01*
X205287914Y-193714343D01*
X205359343Y-193642914D01*
X205359343Y-193785771D01*
X205359343Y-192857200D02*
X205430771Y-192928629D01*
X205359343Y-193000057D01*
X205287914Y-192928629D01*
X205359343Y-192857200D01*
X205359343Y-193000057D01*
D10*
D11*
X177002200Y-194507200D02*
X285002200Y-194507200D01*
D10*
D11*
X178359343Y-196585771D02*
X178359343Y-195085771D01*
X179216486Y-196585771D02*
X178573629Y-195728629D01*
X179216486Y-195085771D02*
X178359343Y-195942914D01*
X179859343Y-196585771D02*
X179859343Y-195585771D01*
X179859343Y-195085771D02*
X179787914Y-195157200D01*
X179859343Y-195228629D01*
X179930771Y-195157200D01*
X179859343Y-195085771D01*
X179859343Y-195228629D01*
X181430772Y-196442914D02*
X181359343Y-196514343D01*
X181145057Y-196585771D01*
X181002200Y-196585771D01*
X180787915Y-196514343D01*
X180645057Y-196371486D01*
X180573629Y-196228629D01*
X180502200Y-195942914D01*
X180502200Y-195728629D01*
X180573629Y-195442914D01*
X180645057Y-195300057D01*
X180787915Y-195157200D01*
X181002200Y-195085771D01*
X181145057Y-195085771D01*
X181359343Y-195157200D01*
X181430772Y-195228629D01*
X182716486Y-196585771D02*
X182716486Y-195800057D01*
X182645057Y-195657200D01*
X182502200Y-195585771D01*
X182216486Y-195585771D01*
X182073629Y-195657200D01*
X182716486Y-196514343D02*
X182573629Y-196585771D01*
X182216486Y-196585771D01*
X182073629Y-196514343D01*
X182002200Y-196371486D01*
X182002200Y-196228629D01*
X182073629Y-196085771D01*
X182216486Y-196014343D01*
X182573629Y-196014343D01*
X182716486Y-195942914D01*
X184073629Y-196585771D02*
X184073629Y-195085771D01*
X184073629Y-196514343D02*
X183930772Y-196585771D01*
X183645058Y-196585771D01*
X183502200Y-196514343D01*
X183430772Y-196442914D01*
X183359343Y-196300057D01*
X183359343Y-195871486D01*
X183430772Y-195728629D01*
X183502200Y-195657200D01*
X183645058Y-195585771D01*
X183930772Y-195585771D01*
X184073629Y-195657200D01*
X185930772Y-195800057D02*
X186430772Y-195800057D01*
X186645058Y-196585771D02*
X185930772Y-196585771D01*
X185930772Y-195085771D01*
X186645058Y-195085771D01*
X187287915Y-196442914D02*
X187359343Y-196514343D01*
X187287915Y-196585771D01*
X187216486Y-196514343D01*
X187287915Y-196442914D01*
X187287915Y-196585771D01*
X188002201Y-196585771D02*
X188002201Y-195085771D01*
X188359344Y-195085771D01*
X188573629Y-195157200D01*
X188716487Y-195300057D01*
X188787915Y-195442914D01*
X188859344Y-195728629D01*
X188859344Y-195942914D01*
X188787915Y-196228629D01*
X188716487Y-196371486D01*
X188573629Y-196514343D01*
X188359344Y-196585771D01*
X188002201Y-196585771D01*
X189502201Y-196442914D02*
X189573629Y-196514343D01*
X189502201Y-196585771D01*
X189430772Y-196514343D01*
X189502201Y-196442914D01*
X189502201Y-196585771D01*
X190145058Y-196157200D02*
X190859344Y-196157200D01*
X190002201Y-196585771D02*
X190502201Y-195085771D01*
X191002201Y-196585771D01*
X191502201Y-196442914D02*
X191573629Y-196514343D01*
X191502201Y-196585771D01*
X191430772Y-196514343D01*
X191502201Y-196442914D01*
X191502201Y-196585771D01*
X194502201Y-196585771D02*
X194502201Y-195085771D01*
X194645058Y-196014343D02*
X195073629Y-196585771D01*
X195073629Y-195585771D02*
X194502201Y-196157200D01*
X195716487Y-196585771D02*
X195716487Y-195585771D01*
X195716487Y-195085771D02*
X195645058Y-195157200D01*
X195716487Y-195228629D01*
X195787915Y-195157200D01*
X195716487Y-195085771D01*
X195716487Y-195228629D01*
X197073630Y-196514343D02*
X196930773Y-196585771D01*
X196645059Y-196585771D01*
X196502201Y-196514343D01*
X196430773Y-196442914D01*
X196359344Y-196300057D01*
X196359344Y-195871486D01*
X196430773Y-195728629D01*
X196502201Y-195657200D01*
X196645059Y-195585771D01*
X196930773Y-195585771D01*
X197073630Y-195657200D01*
X198359344Y-196585771D02*
X198359344Y-195800057D01*
X198287915Y-195657200D01*
X198145058Y-195585771D01*
X197859344Y-195585771D01*
X197716487Y-195657200D01*
X198359344Y-196514343D02*
X198216487Y-196585771D01*
X197859344Y-196585771D01*
X197716487Y-196514343D01*
X197645058Y-196371486D01*
X197645058Y-196228629D01*
X197716487Y-196085771D01*
X197859344Y-196014343D01*
X198216487Y-196014343D01*
X198359344Y-195942914D01*
X199716487Y-196585771D02*
X199716487Y-195085771D01*
X199716487Y-196514343D02*
X199573630Y-196585771D01*
X199287916Y-196585771D01*
X199145058Y-196514343D01*
X199073630Y-196442914D01*
X199002201Y-196300057D01*
X199002201Y-195871486D01*
X199073630Y-195728629D01*
X199145058Y-195657200D01*
X199287916Y-195585771D01*
X199573630Y-195585771D01*
X199716487Y-195657200D01*
X202216487Y-195585771D02*
X202216487Y-196585771D01*
X201859344Y-195014343D02*
X201502201Y-196085771D01*
X202430773Y-196085771D01*
X203002201Y-196442914D02*
X203073629Y-196514343D01*
X203002201Y-196585771D01*
X202930772Y-196514343D01*
X203002201Y-196442914D01*
X203002201Y-196585771D01*
X204002201Y-195085771D02*
X204145058Y-195085771D01*
X204287915Y-195157200D01*
X204359344Y-195228629D01*
X204430773Y-195371486D01*
X204502201Y-195657200D01*
X204502201Y-196014343D01*
X204430773Y-196300057D01*
X204359344Y-196442914D01*
X204287915Y-196514343D01*
X204145058Y-196585771D01*
X204002201Y-196585771D01*
X203859344Y-196514343D01*
X203787915Y-196442914D01*
X203716487Y-196300057D01*
X203645058Y-196014343D01*
X203645058Y-195657200D01*
X203716487Y-195371486D01*
X203787915Y-195228629D01*
X203859344Y-195157200D01*
X204002201Y-195085771D01*
X205145058Y-196442914D02*
X205216486Y-196514343D01*
X205145058Y-196585771D01*
X205073629Y-196514343D01*
X205145058Y-196442914D01*
X205145058Y-196585771D01*
X206502201Y-195085771D02*
X206216487Y-195085771D01*
X206073630Y-195157200D01*
X206002201Y-195228629D01*
X205859344Y-195442914D01*
X205787915Y-195728629D01*
X205787915Y-196300057D01*
X205859344Y-196442914D01*
X205930772Y-196514343D01*
X206073630Y-196585771D01*
X206359344Y-196585771D01*
X206502201Y-196514343D01*
X206573630Y-196442914D01*
X206645058Y-196300057D01*
X206645058Y-195942914D01*
X206573630Y-195800057D01*
X206502201Y-195728629D01*
X206359344Y-195657200D01*
X206073630Y-195657200D01*
X205930772Y-195728629D01*
X205859344Y-195800057D01*
X205787915Y-195942914D01*
D10*
D11*
X177002200Y-191507200D02*
X285002200Y-191507200D01*
D10*
D12*
X264216486Y-193785771D02*
X263716486Y-193071486D01*
X263359343Y-193785771D02*
X263359343Y-192285771D01*
X263930771Y-192285771D01*
X264073629Y-192357200D01*
X264145057Y-192428629D01*
X264216486Y-192571486D01*
X264216486Y-192785771D01*
X264145057Y-192928629D01*
X264073629Y-193000057D01*
X263930771Y-193071486D01*
X263359343Y-193071486D01*
X265430771Y-193714343D02*
X265287914Y-193785771D01*
X265002200Y-193785771D01*
X264859343Y-193714343D01*
X264787914Y-193571486D01*
X264787914Y-193000057D01*
X264859343Y-192857200D01*
X265002200Y-192785771D01*
X265287914Y-192785771D01*
X265430771Y-192857200D01*
X265502200Y-193000057D01*
X265502200Y-193142914D01*
X264787914Y-193285771D01*
X266002200Y-192785771D02*
X266359343Y-193785771D01*
X266716485Y-192785771D01*
X267287914Y-193642914D02*
X267359342Y-193714343D01*
X267287914Y-193785771D01*
X267216485Y-193714343D01*
X267287914Y-193642914D01*
X267287914Y-193785771D01*
X267287914Y-192857200D02*
X267359342Y-192928629D01*
X267287914Y-193000057D01*
X267216485Y-192928629D01*
X267287914Y-192857200D01*
X267287914Y-193000057D01*
D10*
D11*
X178287914Y-193714343D02*
X178502200Y-193785771D01*
X178859343Y-193785771D01*
X179002200Y-193714343D01*
X179073629Y-193642914D01*
X179145057Y-193500057D01*
X179145057Y-193357200D01*
X179073629Y-193214343D01*
X179002200Y-193142914D01*
X178859343Y-193071486D01*
X178573629Y-193000057D01*
X178430771Y-192928629D01*
X178359343Y-192857200D01*
X178287914Y-192714343D01*
X178287914Y-192571486D01*
X178359343Y-192428629D01*
X178430771Y-192357200D01*
X178573629Y-192285771D01*
X178930771Y-192285771D01*
X179145057Y-192357200D01*
X179787914Y-193785771D02*
X179787914Y-192785771D01*
X179787914Y-192285771D02*
X179716485Y-192357200D01*
X179787914Y-192428629D01*
X179859342Y-192357200D01*
X179787914Y-192285771D01*
X179787914Y-192428629D01*
X180359343Y-192785771D02*
X181145057Y-192785771D01*
X180359343Y-193785771D01*
X181145057Y-193785771D01*
X182287914Y-193714343D02*
X182145057Y-193785771D01*
X181859343Y-193785771D01*
X181716486Y-193714343D01*
X181645057Y-193571486D01*
X181645057Y-193000057D01*
X181716486Y-192857200D01*
X181859343Y-192785771D01*
X182145057Y-192785771D01*
X182287914Y-192857200D01*
X182359343Y-193000057D01*
X182359343Y-193142914D01*
X181645057Y-193285771D01*
X183002200Y-193642914D02*
X183073628Y-193714343D01*
X183002200Y-193785771D01*
X182930771Y-193714343D01*
X183002200Y-193642914D01*
X183002200Y-193785771D01*
X183002200Y-192857200D02*
X183073628Y-192928629D01*
X183002200Y-193000057D01*
X182930771Y-192928629D01*
X183002200Y-192857200D01*
X183002200Y-193000057D01*
X184787914Y-193357200D02*
X185502200Y-193357200D01*
X184645057Y-193785771D02*
X185145057Y-192285771D01*
X185645057Y-193785771D01*
X186787914Y-192785771D02*
X186787914Y-193785771D01*
X186430771Y-192214343D02*
X186073628Y-193285771D01*
X187002200Y-193285771D01*
D10*
D11*
X263359343Y-196585771D02*
X263359343Y-195085771D01*
X264716486Y-196585771D02*
X264716486Y-195085771D01*
X264716486Y-196514343D02*
X264573629Y-196585771D01*
X264287915Y-196585771D01*
X264145057Y-196514343D01*
X264073629Y-196442914D01*
X264002200Y-196300057D01*
X264002200Y-195871486D01*
X264073629Y-195728629D01*
X264145057Y-195657200D01*
X264287915Y-195585771D01*
X264573629Y-195585771D01*
X264716486Y-195657200D01*
X265430772Y-196442914D02*
X265502200Y-196514343D01*
X265430772Y-196585771D01*
X265359343Y-196514343D01*
X265430772Y-196442914D01*
X265430772Y-196585771D01*
X265430772Y-195657200D02*
X265502200Y-195728629D01*
X265430772Y-195800057D01*
X265359343Y-195728629D01*
X265430772Y-195657200D01*
X265430772Y-195800057D01*
X268073629Y-196585771D02*
X267216486Y-196585771D01*
X267645058Y-196585771D02*
X267645058Y-195085771D01*
X267502201Y-195300057D01*
X267359343Y-195442914D01*
X267216486Y-195514343D01*
X269787914Y-195014343D02*
X268502200Y-196942914D01*
X271073629Y-196585771D02*
X270216486Y-196585771D01*
X270645058Y-196585771D02*
X270645058Y-195085771D01*
X270502201Y-195300057D01*
X270359343Y-195442914D01*
X270216486Y-195514343D01*
D10*
D11*
X177002200Y-187507200D02*
X285002200Y-187507200D01*
D10*
D13*
X178454581Y-188211962D02*
X179597438Y-188211962D01*
X178776010Y-190211962D02*
X179026010Y-188211962D01*
X180014105Y-190211962D02*
X180180771Y-188878629D01*
X180264105Y-188211962D02*
X180156962Y-188307200D01*
X180240295Y-188402438D01*
X180347439Y-188307200D01*
X180264105Y-188211962D01*
X180240295Y-188402438D01*
X180847438Y-188878629D02*
X181609343Y-188878629D01*
X181216486Y-188211962D02*
X181002200Y-189926248D01*
X181073630Y-190116724D01*
X181252201Y-190211962D01*
X181442677Y-190211962D01*
X182395058Y-190211962D02*
X182216487Y-190116724D01*
X182145057Y-189926248D01*
X182359343Y-188211962D01*
X183930772Y-190116724D02*
X183728391Y-190211962D01*
X183347439Y-190211962D01*
X183168867Y-190116724D01*
X183097438Y-189926248D01*
X183192676Y-189164343D01*
X183311724Y-188973867D01*
X183514105Y-188878629D01*
X183895057Y-188878629D01*
X184073629Y-188973867D01*
X184145057Y-189164343D01*
X184121248Y-189354819D01*
X183145057Y-189545295D01*
X184895057Y-190021486D02*
X184978392Y-190116724D01*
X184871248Y-190211962D01*
X184787915Y-190116724D01*
X184895057Y-190021486D01*
X184871248Y-190211962D01*
X185026010Y-188973867D02*
X185109344Y-189069105D01*
X185002200Y-189164343D01*
X184918867Y-189069105D01*
X185026010Y-188973867D01*
X185002200Y-189164343D01*
D10*
D11*
X178859343Y-185600057D02*
X178359343Y-185600057D01*
X178359343Y-186385771D02*
X178359343Y-184885771D01*
X179073629Y-184885771D01*
X179645057Y-186385771D02*
X179645057Y-185385771D01*
X179645057Y-184885771D02*
X179573628Y-184957200D01*
X179645057Y-185028629D01*
X179716485Y-184957200D01*
X179645057Y-184885771D01*
X179645057Y-185028629D01*
X180573629Y-186385771D02*
X180430771Y-186314343D01*
X180359343Y-186171486D01*
X180359343Y-184885771D01*
X181716485Y-186314343D02*
X181573628Y-186385771D01*
X181287914Y-186385771D01*
X181145057Y-186314343D01*
X181073628Y-186171486D01*
X181073628Y-185600057D01*
X181145057Y-185457200D01*
X181287914Y-185385771D01*
X181573628Y-185385771D01*
X181716485Y-185457200D01*
X181787914Y-185600057D01*
X181787914Y-185742914D01*
X181073628Y-185885771D01*
X182430771Y-186242914D02*
X182502199Y-186314343D01*
X182430771Y-186385771D01*
X182359342Y-186314343D01*
X182430771Y-186242914D01*
X182430771Y-186385771D01*
X182430771Y-185457200D02*
X182502199Y-185528629D01*
X182430771Y-185600057D01*
X182359342Y-185528629D01*
X182430771Y-185457200D01*
X182430771Y-185600057D01*
X184287914Y-186385771D02*
X184287914Y-184885771D01*
X184287914Y-185457200D02*
X184430771Y-185385771D01*
X184716485Y-185385771D01*
X184859342Y-185457200D01*
X184930771Y-185528629D01*
X185002200Y-185671486D01*
X185002200Y-186100057D01*
X184930771Y-186242914D01*
X184859342Y-186314343D01*
X184716485Y-186385771D01*
X184430771Y-186385771D01*
X184287914Y-186314343D01*
X185645057Y-185385771D02*
X185645057Y-186885771D01*
X185645057Y-185457200D02*
X185787914Y-185385771D01*
X186073628Y-185385771D01*
X186216485Y-185457200D01*
X186287914Y-185528629D01*
X186359343Y-185671486D01*
X186359343Y-186100057D01*
X186287914Y-186242914D01*
X186216485Y-186314343D01*
X186073628Y-186385771D01*
X185787914Y-186385771D01*
X185645057Y-186314343D01*
X187002200Y-186385771D02*
X187002200Y-185385771D01*
X187002200Y-184885771D02*
X186930771Y-184957200D01*
X187002200Y-185028629D01*
X187073628Y-184957200D01*
X187002200Y-184885771D01*
X187002200Y-185028629D01*
X187716486Y-185814343D02*
X188859343Y-185814343D01*
X189573629Y-186385771D02*
X189573629Y-185385771D01*
X189573629Y-185671486D02*
X189645057Y-185528629D01*
X189716486Y-185457200D01*
X189859343Y-185385771D01*
X190002200Y-185385771D01*
X191287914Y-186385771D02*
X190430771Y-186385771D01*
X190859343Y-186385771D02*
X190859343Y-184885771D01*
X190716486Y-185100057D01*
X190573628Y-185242914D01*
X190430771Y-185314343D01*
X191930771Y-185814343D02*
X193073628Y-185814343D01*
X194430771Y-186314343D02*
X194287914Y-186385771D01*
X194002200Y-186385771D01*
X193859342Y-186314343D01*
X193787914Y-186242914D01*
X193716485Y-186100057D01*
X193716485Y-185671486D01*
X193787914Y-185528629D01*
X193859342Y-185457200D01*
X194002200Y-185385771D01*
X194287914Y-185385771D01*
X194430771Y-185457200D01*
X195716485Y-186385771D02*
X195716485Y-185600057D01*
X195645056Y-185457200D01*
X195502199Y-185385771D01*
X195216485Y-185385771D01*
X195073628Y-185457200D01*
X195716485Y-186314343D02*
X195573628Y-186385771D01*
X195216485Y-186385771D01*
X195073628Y-186314343D01*
X195002199Y-186171486D01*
X195002199Y-186028629D01*
X195073628Y-185885771D01*
X195216485Y-185814343D01*
X195573628Y-185814343D01*
X195716485Y-185742914D01*
X196430771Y-185385771D02*
X196430771Y-186385771D01*
X196430771Y-185528629D02*
X196502199Y-185457200D01*
X196645057Y-185385771D01*
X196859342Y-185385771D01*
X197002199Y-185457200D01*
X197073628Y-185600057D01*
X197073628Y-186385771D01*
X197787914Y-185814343D02*
X198930771Y-185814343D01*
X199573628Y-186314343D02*
X199716485Y-186385771D01*
X200002200Y-186385771D01*
X200145057Y-186314343D01*
X200216485Y-186171486D01*
X200216485Y-186100057D01*
X200145057Y-185957200D01*
X200002200Y-185885771D01*
X199787914Y-185885771D01*
X199645057Y-185814343D01*
X199573628Y-185671486D01*
X199573628Y-185600057D01*
X199645057Y-185457200D01*
X199787914Y-185385771D01*
X200002200Y-185385771D01*
X200145057Y-185457200D01*
X201430771Y-186314343D02*
X201287914Y-186385771D01*
X201002200Y-186385771D01*
X200859343Y-186314343D01*
X200787914Y-186171486D01*
X200787914Y-185600057D01*
X200859343Y-185457200D01*
X201002200Y-185385771D01*
X201287914Y-185385771D01*
X201430771Y-185457200D01*
X201502200Y-185600057D01*
X201502200Y-185742914D01*
X200787914Y-185885771D01*
X202145057Y-186385771D02*
X202145057Y-185385771D01*
X202145057Y-185671486D02*
X202216485Y-185528629D01*
X202287914Y-185457200D01*
X202430771Y-185385771D01*
X202573628Y-185385771D01*
X203073628Y-186242914D02*
X203145056Y-186314343D01*
X203073628Y-186385771D01*
X203002199Y-186314343D01*
X203073628Y-186242914D01*
X203073628Y-186385771D01*
X203787914Y-186385771D02*
X203787914Y-184885771D01*
X203930771Y-185814343D02*
X204359342Y-186385771D01*
X204359342Y-185385771D02*
X203787914Y-185957200D01*
X205002200Y-186385771D02*
X205002200Y-185385771D01*
X205002200Y-184885771D02*
X204930771Y-184957200D01*
X205002200Y-185028629D01*
X205073628Y-184957200D01*
X205002200Y-184885771D01*
X205002200Y-185028629D01*
X206359343Y-186314343D02*
X206216486Y-186385771D01*
X205930772Y-186385771D01*
X205787914Y-186314343D01*
X205716486Y-186242914D01*
X205645057Y-186100057D01*
X205645057Y-185671486D01*
X205716486Y-185528629D01*
X205787914Y-185457200D01*
X205930772Y-185385771D01*
X206216486Y-185385771D01*
X206359343Y-185457200D01*
X207645057Y-186385771D02*
X207645057Y-185600057D01*
X207573628Y-185457200D01*
X207430771Y-185385771D01*
X207145057Y-185385771D01*
X207002200Y-185457200D01*
X207645057Y-186314343D02*
X207502200Y-186385771D01*
X207145057Y-186385771D01*
X207002200Y-186314343D01*
X206930771Y-186171486D01*
X206930771Y-186028629D01*
X207002200Y-185885771D01*
X207145057Y-185814343D01*
X207502200Y-185814343D01*
X207645057Y-185742914D01*
X209002200Y-186385771D02*
X209002200Y-184885771D01*
X209002200Y-186314343D02*
X208859343Y-186385771D01*
X208573629Y-186385771D01*
X208430771Y-186314343D01*
X208359343Y-186242914D01*
X208287914Y-186100057D01*
X208287914Y-185671486D01*
X208359343Y-185528629D01*
X208430771Y-185457200D01*
X208573629Y-185385771D01*
X208859343Y-185385771D01*
X209002200Y-185457200D01*
X209359343Y-186528629D02*
X210502200Y-186528629D01*
X210859343Y-185385771D02*
X210859343Y-186885771D01*
X210859343Y-185457200D02*
X211002200Y-185385771D01*
X211287914Y-185385771D01*
X211430771Y-185457200D01*
X211502200Y-185528629D01*
X211573629Y-185671486D01*
X211573629Y-186100057D01*
X211502200Y-186242914D01*
X211430771Y-186314343D01*
X211287914Y-186385771D01*
X211002200Y-186385771D01*
X210859343Y-186314343D01*
X212859343Y-186314343D02*
X212716486Y-186385771D01*
X212430772Y-186385771D01*
X212287914Y-186314343D01*
X212216486Y-186242914D01*
X212145057Y-186100057D01*
X212145057Y-185671486D01*
X212216486Y-185528629D01*
X212287914Y-185457200D01*
X212430772Y-185385771D01*
X212716486Y-185385771D01*
X212859343Y-185457200D01*
X213502200Y-186385771D02*
X213502200Y-184885771D01*
X213502200Y-185457200D02*
X213645057Y-185385771D01*
X213930771Y-185385771D01*
X214073628Y-185457200D01*
X214145057Y-185528629D01*
X214216486Y-185671486D01*
X214216486Y-186100057D01*
X214145057Y-186242914D01*
X214073628Y-186314343D01*
X213930771Y-186385771D01*
X213645057Y-186385771D01*
X213502200Y-186314343D01*
D10*
D11*
X177002200Y-181507200D02*
X285002200Y-181507200D01*
D10*
D11*
X178287914Y-183614343D02*
X178502200Y-183685771D01*
X178859343Y-183685771D01*
X179002200Y-183614343D01*
X179073629Y-183542914D01*
X179145057Y-183400057D01*
X179145057Y-183257200D01*
X179073629Y-183114343D01*
X179002200Y-183042914D01*
X178859343Y-182971486D01*
X178573629Y-182900057D01*
X178430771Y-182828629D01*
X178359343Y-182757200D01*
X178287914Y-182614343D01*
X178287914Y-182471486D01*
X178359343Y-182328629D01*
X178430771Y-182257200D01*
X178573629Y-182185771D01*
X178930771Y-182185771D01*
X179145057Y-182257200D01*
X179787914Y-183685771D02*
X179787914Y-182185771D01*
X180430771Y-183685771D02*
X180430771Y-182900057D01*
X180359342Y-182757200D01*
X180216485Y-182685771D01*
X180002200Y-182685771D01*
X179859342Y-182757200D01*
X179787914Y-182828629D01*
X181716485Y-183614343D02*
X181573628Y-183685771D01*
X181287914Y-183685771D01*
X181145057Y-183614343D01*
X181073628Y-183471486D01*
X181073628Y-182900057D01*
X181145057Y-182757200D01*
X181287914Y-182685771D01*
X181573628Y-182685771D01*
X181716485Y-182757200D01*
X181787914Y-182900057D01*
X181787914Y-183042914D01*
X181073628Y-183185771D01*
X183002199Y-183614343D02*
X182859342Y-183685771D01*
X182573628Y-183685771D01*
X182430771Y-183614343D01*
X182359342Y-183471486D01*
X182359342Y-182900057D01*
X182430771Y-182757200D01*
X182573628Y-182685771D01*
X182859342Y-182685771D01*
X183002199Y-182757200D01*
X183073628Y-182900057D01*
X183073628Y-183042914D01*
X182359342Y-183185771D01*
X183502199Y-182685771D02*
X184073628Y-182685771D01*
X183716485Y-182185771D02*
X183716485Y-183471486D01*
X183787913Y-183614343D01*
X183930771Y-183685771D01*
X184073628Y-183685771D01*
X184573628Y-183542914D02*
X184645056Y-183614343D01*
X184573628Y-183685771D01*
X184502199Y-183614343D01*
X184573628Y-183542914D01*
X184573628Y-183685771D01*
X184573628Y-182757200D02*
X184645056Y-182828629D01*
X184573628Y-182900057D01*
X184502199Y-182828629D01*
X184573628Y-182757200D01*
X184573628Y-182900057D01*
D10*
D11*
X197002200Y-191507200D02*
X197002200Y-194507200D01*
D10*
D11*
X261002200Y-191507200D02*
X261002200Y-198007200D01*
D14*
G36*
X98471866Y-66528134D02*
X107528133Y-66528134D01*
X107528133Y-64547075D01*
X107245125Y-64547075D01*
X107245125Y-66245126D01*
X105547075Y-66245126D01*
X105547075Y-65820613D01*
X105264067Y-65820613D01*
X105240334Y-65913190D01*
X105144410Y-65954106D01*
X104981058Y-65962117D01*
X104799910Y-65955309D01*
X104719417Y-65907652D01*
X104698730Y-65778298D01*
X104698050Y-65679109D01*
X104686184Y-65493955D01*
X104638222Y-65412123D01*
X104556546Y-65396100D01*
X104438297Y-65446130D01*
X104415042Y-65537605D01*
X104365012Y-65655853D01*
X104273537Y-65679109D01*
X104180960Y-65655376D01*
X104140045Y-65559452D01*
X104132033Y-65396100D01*
X104143900Y-65210946D01*
X104191862Y-65129115D01*
X104273537Y-65113092D01*
X104391786Y-65063063D01*
X104415042Y-64971588D01*
X104465071Y-64853339D01*
X104556546Y-64830084D01*
X104649123Y-64853817D01*
X104690038Y-64949740D01*
X104698050Y-65113092D01*
X104709916Y-65298246D01*
X104757878Y-65380078D01*
X104839554Y-65396100D01*
X104957803Y-65446130D01*
X104981058Y-65537605D01*
X105031088Y-65655853D01*
X105122562Y-65679109D01*
X105240811Y-65729138D01*
X105264067Y-65820613D01*
X105547075Y-65820613D01*
X105547075Y-64971588D01*
X105264067Y-64971588D01*
X105214037Y-65089836D01*
X105122562Y-65113092D01*
X105004314Y-65063063D01*
X104981058Y-64971588D01*
X105031088Y-64853339D01*
X105122562Y-64830084D01*
X105240811Y-64880113D01*
X105264067Y-64971588D01*
X105547075Y-64971588D01*
X105547075Y-64547075D01*
X107245125Y-64547075D01*
X107528133Y-64547075D01*
X107528133Y-63415042D01*
X106962117Y-63415042D01*
X106950250Y-63600196D01*
X106902288Y-63682027D01*
X106820613Y-63698050D01*
X106728035Y-63674318D01*
X106687120Y-63578394D01*
X106679108Y-63415042D01*
X106690975Y-63229888D01*
X106738937Y-63148057D01*
X106820613Y-63132034D01*
X106396100Y-63132034D01*
X106396100Y-64264067D01*
X105830083Y-64264067D01*
X105830083Y-63132034D01*
X106396100Y-63132034D01*
X106820613Y-63132034D01*
X106913190Y-63155766D01*
X106954105Y-63251690D01*
X106962117Y-63415042D01*
X107528133Y-63415042D01*
X107528133Y-61150975D01*
X107245125Y-61150975D01*
X107245125Y-62849025D01*
X105547075Y-62849025D01*
X105547075Y-64547075D01*
X103849025Y-64547075D01*
X103849025Y-66245126D01*
X102150975Y-66245126D01*
X102150975Y-65254596D01*
X101867966Y-65254596D01*
X101862803Y-65491695D01*
X101840122Y-65619811D01*
X101789137Y-65671304D01*
X101726462Y-65679109D01*
X101608214Y-65729138D01*
X101584958Y-65820613D01*
X101561225Y-65913190D01*
X101465301Y-65954106D01*
X101301950Y-65962117D01*
X101018941Y-65962117D01*
X101018941Y-65396100D01*
X101021896Y-65114087D01*
X101035502Y-64945069D01*
X101066877Y-64860583D01*
X101123137Y-64832167D01*
X101160445Y-64830084D01*
X101278694Y-64880113D01*
X101301950Y-64971588D01*
X101351979Y-65089836D01*
X101443454Y-65113092D01*
X101561702Y-65063063D01*
X101584958Y-64971588D01*
X101634987Y-64853339D01*
X101726462Y-64830084D01*
X101805495Y-64845573D01*
X101848200Y-64913616D01*
X101865365Y-65066572D01*
X101867966Y-65254596D01*
X102150975Y-65254596D01*
X102150975Y-64547075D01*
X100452925Y-64547075D01*
X100452925Y-66245126D01*
X98754874Y-66245126D01*
X98754874Y-64547075D01*
X100452925Y-64547075D01*
X100452925Y-63415042D01*
X100169916Y-63415042D01*
X100163108Y-63596190D01*
X100115451Y-63676683D01*
X99986097Y-63697370D01*
X99886908Y-63698050D01*
X99701754Y-63709917D01*
X99619922Y-63757879D01*
X99603900Y-63839555D01*
X99653929Y-63957803D01*
X99745404Y-63981059D01*
X99863652Y-64031088D01*
X99886908Y-64122563D01*
X99863175Y-64215140D01*
X99767251Y-64256056D01*
X99603900Y-64264067D01*
X99422751Y-64257259D01*
X99342258Y-64209602D01*
X99321572Y-64080248D01*
X99320891Y-63981059D01*
X99309025Y-63795904D01*
X99261063Y-63714073D01*
X99179387Y-63698050D01*
X99061138Y-63648021D01*
X99037883Y-63556546D01*
X99087912Y-63438298D01*
X99179387Y-63415042D01*
X99297635Y-63365013D01*
X99320891Y-63273538D01*
X99370920Y-63155289D01*
X99462395Y-63132034D01*
X99580644Y-63182063D01*
X99603900Y-63273538D01*
X99653929Y-63391786D01*
X99745404Y-63415042D01*
X99863652Y-63365013D01*
X99886908Y-63273538D01*
X99936937Y-63155289D01*
X100028412Y-63132034D01*
X100120989Y-63155766D01*
X100161905Y-63251690D01*
X100169916Y-63415042D01*
X100452925Y-63415042D01*
X100452925Y-62849025D01*
X98754874Y-62849025D01*
X98754874Y-61150975D01*
X100452925Y-61150975D01*
X100452925Y-59877438D01*
X100169916Y-59877438D01*
X100119887Y-59995686D01*
X100028412Y-60018942D01*
X99910164Y-60068971D01*
X99886908Y-60160446D01*
X99936937Y-60278694D01*
X100028412Y-60301950D01*
X100146661Y-60351979D01*
X100169916Y-60443454D01*
X100119887Y-60561703D01*
X100028412Y-60584958D01*
X99910164Y-60534929D01*
X99886908Y-60443454D01*
X99836879Y-60325206D01*
X99745404Y-60301950D01*
X99652827Y-60325683D01*
X99611911Y-60421607D01*
X99603900Y-60584958D01*
X99597091Y-60766107D01*
X99549435Y-60846600D01*
X99420080Y-60867286D01*
X99320891Y-60867967D01*
X99037883Y-60867967D01*
X99037883Y-60301950D01*
X99040837Y-60019936D01*
X99054444Y-59850918D01*
X99085819Y-59766433D01*
X99142078Y-59738016D01*
X99179387Y-59735933D01*
X99271964Y-59759666D01*
X99312880Y-59855590D01*
X99320891Y-60018942D01*
X99332758Y-60204096D01*
X99380719Y-60285927D01*
X99462395Y-60301950D01*
X99580644Y-60251921D01*
X99603900Y-60160446D01*
X99653929Y-60042197D01*
X99745404Y-60018942D01*
X99863652Y-59968912D01*
X99886908Y-59877438D01*
X99936937Y-59759189D01*
X100028412Y-59735933D01*
X100146661Y-59785963D01*
X100169916Y-59877438D01*
X100452925Y-59877438D01*
X100452925Y-59452925D01*
X102150975Y-59452925D01*
X102150975Y-58320892D01*
X101867966Y-58320892D01*
X101867966Y-58603900D01*
X100735933Y-58603900D01*
X100735933Y-58320892D01*
X100742741Y-58139743D01*
X100790398Y-58059250D01*
X100919752Y-58038564D01*
X101018941Y-58037883D01*
X101204096Y-58049750D01*
X101285927Y-58097712D01*
X101301950Y-58179387D01*
X101351979Y-58297636D01*
X101443454Y-58320892D01*
X101561702Y-58270862D01*
X101584958Y-58179387D01*
X101634987Y-58061139D01*
X101726462Y-58037883D01*
X101819039Y-58061616D01*
X101859955Y-58157540D01*
X101867966Y-58320892D01*
X102150975Y-58320892D01*
X102150975Y-57754875D01*
X100452925Y-57754875D01*
X100452925Y-59452925D01*
X98754874Y-59452925D01*
X98754874Y-57754875D01*
X100452925Y-57754875D01*
X102150975Y-57754875D01*
X103849025Y-57754875D01*
X103849025Y-59452925D01*
X105547075Y-59452925D01*
X105547075Y-61150975D01*
X107245125Y-61150975D01*
X107528133Y-61150975D01*
X107528133Y-60584958D01*
X106962117Y-60584958D01*
X106950250Y-60770113D01*
X106902288Y-60851944D01*
X106820613Y-60867967D01*
X106728035Y-60844234D01*
X106687120Y-60748310D01*
X106679108Y-60584958D01*
X106688177Y-60443454D01*
X106396100Y-60443454D01*
X106396100Y-60867967D01*
X106113092Y-60867967D01*
X105927937Y-60856100D01*
X105846106Y-60808138D01*
X105830083Y-60726463D01*
X105880113Y-60608214D01*
X105971588Y-60584958D01*
X106089836Y-60534929D01*
X106113092Y-60443454D01*
X106063062Y-60325206D01*
X105971588Y-60301950D01*
X105879010Y-60278217D01*
X105838095Y-60182293D01*
X105830083Y-60018942D01*
X105841950Y-59833787D01*
X105889912Y-59751956D01*
X105971588Y-59735933D01*
X106089836Y-59785963D01*
X106113092Y-59877438D01*
X106163121Y-59995686D01*
X106254596Y-60018942D01*
X106333629Y-60034431D01*
X106376334Y-60102474D01*
X106393499Y-60255430D01*
X106396100Y-60443454D01*
X106688177Y-60443454D01*
X106690975Y-60399804D01*
X106738937Y-60317973D01*
X106820613Y-60301950D01*
X106913190Y-60325683D01*
X106954105Y-60421607D01*
X106962117Y-60584958D01*
X107528133Y-60584958D01*
X107528133Y-59877438D01*
X106962117Y-59877438D01*
X106912088Y-59995686D01*
X106820613Y-60018942D01*
X106702364Y-59968912D01*
X106679108Y-59877438D01*
X106729138Y-59759189D01*
X106820613Y-59735933D01*
X106938861Y-59785963D01*
X106962117Y-59877438D01*
X107528133Y-59877438D01*
X107528133Y-57754875D01*
X107245125Y-57754875D01*
X107245125Y-59452925D01*
X105547075Y-59452925D01*
X105547075Y-58320892D01*
X105264067Y-58320892D01*
X105264067Y-58603900D01*
X104132033Y-58603900D01*
X104132033Y-58320892D01*
X104138841Y-58139743D01*
X104186498Y-58059250D01*
X104315853Y-58038564D01*
X104415042Y-58037883D01*
X104600196Y-58049750D01*
X104682027Y-58097712D01*
X104698050Y-58179387D01*
X104748079Y-58297636D01*
X104839554Y-58320892D01*
X104957803Y-58270862D01*
X104981058Y-58179387D01*
X105031088Y-58061139D01*
X105122562Y-58037883D01*
X105215140Y-58061616D01*
X105256055Y-58157540D01*
X105264067Y-58320892D01*
X105547075Y-58320892D01*
X105547075Y-57754875D01*
X107245125Y-57754875D01*
X107528133Y-57754875D01*
X107528133Y-57471867D01*
X98471866Y-57471867D01*
X98471866Y-66528134D01*
X98471866Y-66528134D01*
G37*
X98471866Y-66528134D02*
X107528133Y-66528134D01*
X107528133Y-64547075D01*
X107245125Y-64547075D01*
X107245125Y-66245126D01*
X105547075Y-66245126D01*
X105547075Y-65820613D01*
X105264067Y-65820613D01*
X105240334Y-65913190D01*
X105144410Y-65954106D01*
X104981058Y-65962117D01*
X104799910Y-65955309D01*
X104719417Y-65907652D01*
X104698730Y-65778298D01*
X104698050Y-65679109D01*
X104686184Y-65493955D01*
X104638222Y-65412123D01*
X104556546Y-65396100D01*
X104438297Y-65446130D01*
X104415042Y-65537605D01*
X104365012Y-65655853D01*
X104273537Y-65679109D01*
X104180960Y-65655376D01*
X104140045Y-65559452D01*
X104132033Y-65396100D01*
X104143900Y-65210946D01*
X104191862Y-65129115D01*
X104273537Y-65113092D01*
X104391786Y-65063063D01*
X104415042Y-64971588D01*
X104465071Y-64853339D01*
X104556546Y-64830084D01*
X104649123Y-64853817D01*
X104690038Y-64949740D01*
X104698050Y-65113092D01*
X104709916Y-65298246D01*
X104757878Y-65380078D01*
X104839554Y-65396100D01*
X104957803Y-65446130D01*
X104981058Y-65537605D01*
X105031088Y-65655853D01*
X105122562Y-65679109D01*
X105240811Y-65729138D01*
X105264067Y-65820613D01*
X105547075Y-65820613D01*
X105547075Y-64971588D01*
X105264067Y-64971588D01*
X105214037Y-65089836D01*
X105122562Y-65113092D01*
X105004314Y-65063063D01*
X104981058Y-64971588D01*
X105031088Y-64853339D01*
X105122562Y-64830084D01*
X105240811Y-64880113D01*
X105264067Y-64971588D01*
X105547075Y-64971588D01*
X105547075Y-64547075D01*
X107245125Y-64547075D01*
X107528133Y-64547075D01*
X107528133Y-63415042D01*
X106962117Y-63415042D01*
X106950250Y-63600196D01*
X106902288Y-63682027D01*
X106820613Y-63698050D01*
X106728035Y-63674318D01*
X106687120Y-63578394D01*
X106679108Y-63415042D01*
X106690975Y-63229888D01*
X106738937Y-63148057D01*
X106820613Y-63132034D01*
X106396100Y-63132034D01*
X106396100Y-64264067D01*
X105830083Y-64264067D01*
X105830083Y-63132034D01*
X106396100Y-63132034D01*
X106820613Y-63132034D01*
X106913190Y-63155766D01*
X106954105Y-63251690D01*
X106962117Y-63415042D01*
X107528133Y-63415042D01*
X107528133Y-61150975D01*
X107245125Y-61150975D01*
X107245125Y-62849025D01*
X105547075Y-62849025D01*
X105547075Y-64547075D01*
X103849025Y-64547075D01*
X103849025Y-66245126D01*
X102150975Y-66245126D01*
X102150975Y-65254596D01*
X101867966Y-65254596D01*
X101862803Y-65491695D01*
X101840122Y-65619811D01*
X101789137Y-65671304D01*
X101726462Y-65679109D01*
X101608214Y-65729138D01*
X101584958Y-65820613D01*
X101561225Y-65913190D01*
X101465301Y-65954106D01*
X101301950Y-65962117D01*
X101018941Y-65962117D01*
X101018941Y-65396100D01*
X101021896Y-65114087D01*
X101035502Y-64945069D01*
X101066877Y-64860583D01*
X101123137Y-64832167D01*
X101160445Y-64830084D01*
X101278694Y-64880113D01*
X101301950Y-64971588D01*
X101351979Y-65089836D01*
X101443454Y-65113092D01*
X101561702Y-65063063D01*
X101584958Y-64971588D01*
X101634987Y-64853339D01*
X101726462Y-64830084D01*
X101805495Y-64845573D01*
X101848200Y-64913616D01*
X101865365Y-65066572D01*
X101867966Y-65254596D01*
X102150975Y-65254596D01*
X102150975Y-64547075D01*
X100452925Y-64547075D01*
X100452925Y-66245126D01*
X98754874Y-66245126D01*
X98754874Y-64547075D01*
X100452925Y-64547075D01*
X100452925Y-63415042D01*
X100169916Y-63415042D01*
X100163108Y-63596190D01*
X100115451Y-63676683D01*
X99986097Y-63697370D01*
X99886908Y-63698050D01*
X99701754Y-63709917D01*
X99619922Y-63757879D01*
X99603900Y-63839555D01*
X99653929Y-63957803D01*
X99745404Y-63981059D01*
X99863652Y-64031088D01*
X99886908Y-64122563D01*
X99863175Y-64215140D01*
X99767251Y-64256056D01*
X99603900Y-64264067D01*
X99422751Y-64257259D01*
X99342258Y-64209602D01*
X99321572Y-64080248D01*
X99320891Y-63981059D01*
X99309025Y-63795904D01*
X99261063Y-63714073D01*
X99179387Y-63698050D01*
X99061138Y-63648021D01*
X99037883Y-63556546D01*
X99087912Y-63438298D01*
X99179387Y-63415042D01*
X99297635Y-63365013D01*
X99320891Y-63273538D01*
X99370920Y-63155289D01*
X99462395Y-63132034D01*
X99580644Y-63182063D01*
X99603900Y-63273538D01*
X99653929Y-63391786D01*
X99745404Y-63415042D01*
X99863652Y-63365013D01*
X99886908Y-63273538D01*
X99936937Y-63155289D01*
X100028412Y-63132034D01*
X100120989Y-63155766D01*
X100161905Y-63251690D01*
X100169916Y-63415042D01*
X100452925Y-63415042D01*
X100452925Y-62849025D01*
X98754874Y-62849025D01*
X98754874Y-61150975D01*
X100452925Y-61150975D01*
X100452925Y-59877438D01*
X100169916Y-59877438D01*
X100119887Y-59995686D01*
X100028412Y-60018942D01*
X99910164Y-60068971D01*
X99886908Y-60160446D01*
X99936937Y-60278694D01*
X100028412Y-60301950D01*
X100146661Y-60351979D01*
X100169916Y-60443454D01*
X100119887Y-60561703D01*
X100028412Y-60584958D01*
X99910164Y-60534929D01*
X99886908Y-60443454D01*
X99836879Y-60325206D01*
X99745404Y-60301950D01*
X99652827Y-60325683D01*
X99611911Y-60421607D01*
X99603900Y-60584958D01*
X99597091Y-60766107D01*
X99549435Y-60846600D01*
X99420080Y-60867286D01*
X99320891Y-60867967D01*
X99037883Y-60867967D01*
X99037883Y-60301950D01*
X99040837Y-60019936D01*
X99054444Y-59850918D01*
X99085819Y-59766433D01*
X99142078Y-59738016D01*
X99179387Y-59735933D01*
X99271964Y-59759666D01*
X99312880Y-59855590D01*
X99320891Y-60018942D01*
X99332758Y-60204096D01*
X99380719Y-60285927D01*
X99462395Y-60301950D01*
X99580644Y-60251921D01*
X99603900Y-60160446D01*
X99653929Y-60042197D01*
X99745404Y-60018942D01*
X99863652Y-59968912D01*
X99886908Y-59877438D01*
X99936937Y-59759189D01*
X100028412Y-59735933D01*
X100146661Y-59785963D01*
X100169916Y-59877438D01*
X100452925Y-59877438D01*
X100452925Y-59452925D01*
X102150975Y-59452925D01*
X102150975Y-58320892D01*
X101867966Y-58320892D01*
X101867966Y-58603900D01*
X100735933Y-58603900D01*
X100735933Y-58320892D01*
X100742741Y-58139743D01*
X100790398Y-58059250D01*
X100919752Y-58038564D01*
X101018941Y-58037883D01*
X101204096Y-58049750D01*
X101285927Y-58097712D01*
X101301950Y-58179387D01*
X101351979Y-58297636D01*
X101443454Y-58320892D01*
X101561702Y-58270862D01*
X101584958Y-58179387D01*
X101634987Y-58061139D01*
X101726462Y-58037883D01*
X101819039Y-58061616D01*
X101859955Y-58157540D01*
X101867966Y-58320892D01*
X102150975Y-58320892D01*
X102150975Y-57754875D01*
X100452925Y-57754875D01*
X100452925Y-59452925D01*
X98754874Y-59452925D01*
X98754874Y-57754875D01*
X100452925Y-57754875D01*
X102150975Y-57754875D01*
X103849025Y-57754875D01*
X103849025Y-59452925D01*
X105547075Y-59452925D01*
X105547075Y-61150975D01*
X107245125Y-61150975D01*
X107528133Y-61150975D01*
X107528133Y-60584958D01*
X106962117Y-60584958D01*
X106950250Y-60770113D01*
X106902288Y-60851944D01*
X106820613Y-60867967D01*
X106728035Y-60844234D01*
X106687120Y-60748310D01*
X106679108Y-60584958D01*
X106688177Y-60443454D01*
X106396100Y-60443454D01*
X106396100Y-60867967D01*
X106113092Y-60867967D01*
X105927937Y-60856100D01*
X105846106Y-60808138D01*
X105830083Y-60726463D01*
X105880113Y-60608214D01*
X105971588Y-60584958D01*
X106089836Y-60534929D01*
X106113092Y-60443454D01*
X106063062Y-60325206D01*
X105971588Y-60301950D01*
X105879010Y-60278217D01*
X105838095Y-60182293D01*
X105830083Y-60018942D01*
X105841950Y-59833787D01*
X105889912Y-59751956D01*
X105971588Y-59735933D01*
X106089836Y-59785963D01*
X106113092Y-59877438D01*
X106163121Y-59995686D01*
X106254596Y-60018942D01*
X106333629Y-60034431D01*
X106376334Y-60102474D01*
X106393499Y-60255430D01*
X106396100Y-60443454D01*
X106688177Y-60443454D01*
X106690975Y-60399804D01*
X106738937Y-60317973D01*
X106820613Y-60301950D01*
X106913190Y-60325683D01*
X106954105Y-60421607D01*
X106962117Y-60584958D01*
X107528133Y-60584958D01*
X107528133Y-59877438D01*
X106962117Y-59877438D01*
X106912088Y-59995686D01*
X106820613Y-60018942D01*
X106702364Y-59968912D01*
X106679108Y-59877438D01*
X106729138Y-59759189D01*
X106820613Y-59735933D01*
X106938861Y-59785963D01*
X106962117Y-59877438D01*
X107528133Y-59877438D01*
X107528133Y-57754875D01*
X107245125Y-57754875D01*
X107245125Y-59452925D01*
X105547075Y-59452925D01*
X105547075Y-58320892D01*
X105264067Y-58320892D01*
X105264067Y-58603900D01*
X104132033Y-58603900D01*
X104132033Y-58320892D01*
X104138841Y-58139743D01*
X104186498Y-58059250D01*
X104315853Y-58038564D01*
X104415042Y-58037883D01*
X104600196Y-58049750D01*
X104682027Y-58097712D01*
X104698050Y-58179387D01*
X104748079Y-58297636D01*
X104839554Y-58320892D01*
X104957803Y-58270862D01*
X104981058Y-58179387D01*
X105031088Y-58061139D01*
X105122562Y-58037883D01*
X105215140Y-58061616D01*
X105256055Y-58157540D01*
X105264067Y-58320892D01*
X105547075Y-58320892D01*
X105547075Y-57754875D01*
X107245125Y-57754875D01*
X107528133Y-57754875D01*
X107528133Y-57471867D01*
X98471866Y-57471867D01*
X98471866Y-66528134D01*
G36*
X106210946Y-64841950D02*
X106129115Y-64889912D01*
X106113092Y-64971588D01*
X106063062Y-65089836D01*
X105971588Y-65113092D01*
X105879010Y-65136825D01*
X105838095Y-65232749D01*
X105830083Y-65396100D01*
X105841950Y-65581255D01*
X105889912Y-65663086D01*
X105971588Y-65679109D01*
X106089836Y-65729138D01*
X106113092Y-65820613D01*
X106136825Y-65913190D01*
X106232748Y-65954106D01*
X106396100Y-65962117D01*
X106581254Y-65950251D01*
X106663085Y-65902289D01*
X106679108Y-65820613D01*
X106729138Y-65702365D01*
X106820613Y-65679109D01*
X106913190Y-65655376D01*
X106954105Y-65559452D01*
X106962117Y-65396100D01*
X106679108Y-65396100D01*
X106672300Y-65577249D01*
X106624643Y-65657742D01*
X106495289Y-65678428D01*
X106396100Y-65679109D01*
X106210946Y-65667242D01*
X106129115Y-65619281D01*
X106113092Y-65537605D01*
X106163121Y-65419356D01*
X106254596Y-65396100D01*
X106372844Y-65346071D01*
X106396100Y-65254596D01*
X106446129Y-65136348D01*
X106537604Y-65113092D01*
X106630181Y-65136825D01*
X106671097Y-65232749D01*
X106679108Y-65396100D01*
X106962117Y-65396100D01*
X106950250Y-65210946D01*
X106902288Y-65129115D01*
X106820613Y-65113092D01*
X106702364Y-65063063D01*
X106679108Y-64971588D01*
X106655376Y-64879011D01*
X106559452Y-64838095D01*
X106396100Y-64830084D01*
X106210946Y-64841950D01*
X106210946Y-64841950D01*
G37*
X106210946Y-64841950D02*
X106129115Y-64889912D01*
X106113092Y-64971588D01*
X106063062Y-65089836D01*
X105971588Y-65113092D01*
X105879010Y-65136825D01*
X105838095Y-65232749D01*
X105830083Y-65396100D01*
X105841950Y-65581255D01*
X105889912Y-65663086D01*
X105971588Y-65679109D01*
X106089836Y-65729138D01*
X106113092Y-65820613D01*
X106136825Y-65913190D01*
X106232748Y-65954106D01*
X106396100Y-65962117D01*
X106581254Y-65950251D01*
X106663085Y-65902289D01*
X106679108Y-65820613D01*
X106729138Y-65702365D01*
X106820613Y-65679109D01*
X106913190Y-65655376D01*
X106954105Y-65559452D01*
X106962117Y-65396100D01*
X106679108Y-65396100D01*
X106672300Y-65577249D01*
X106624643Y-65657742D01*
X106495289Y-65678428D01*
X106396100Y-65679109D01*
X106210946Y-65667242D01*
X106129115Y-65619281D01*
X106113092Y-65537605D01*
X106163121Y-65419356D01*
X106254596Y-65396100D01*
X106372844Y-65346071D01*
X106396100Y-65254596D01*
X106446129Y-65136348D01*
X106537604Y-65113092D01*
X106630181Y-65136825D01*
X106671097Y-65232749D01*
X106679108Y-65396100D01*
X106962117Y-65396100D01*
X106950250Y-65210946D01*
X106902288Y-65129115D01*
X106820613Y-65113092D01*
X106702364Y-65063063D01*
X106679108Y-64971588D01*
X106655376Y-64879011D01*
X106559452Y-64838095D01*
X106396100Y-64830084D01*
X106210946Y-64841950D01*
G36*
X102814845Y-64841950D02*
X102733014Y-64889912D01*
X102716991Y-64971588D01*
X102666962Y-65089836D01*
X102575487Y-65113092D01*
X102482910Y-65136825D01*
X102441995Y-65232749D01*
X102433983Y-65396100D01*
X102445849Y-65581255D01*
X102493811Y-65663086D01*
X102575487Y-65679109D01*
X102668064Y-65655376D01*
X102708980Y-65559452D01*
X102716991Y-65396100D01*
X102728858Y-65210946D01*
X102776820Y-65129115D01*
X102858496Y-65113092D01*
X102937529Y-65128582D01*
X102980234Y-65196624D01*
X102997398Y-65349580D01*
X103000000Y-65537605D01*
X103005163Y-65774704D01*
X103027844Y-65902819D01*
X103078829Y-65954313D01*
X103141504Y-65962117D01*
X103259752Y-65912088D01*
X103283008Y-65820613D01*
X103333037Y-65702365D01*
X103424512Y-65679109D01*
X103542761Y-65629080D01*
X103566017Y-65537605D01*
X103515987Y-65419356D01*
X103424512Y-65396100D01*
X103331935Y-65372368D01*
X103291020Y-65276444D01*
X103283008Y-65113092D01*
X103276200Y-64931944D01*
X103228543Y-64851451D01*
X103099189Y-64830764D01*
X103000000Y-64830084D01*
X102814845Y-64841950D01*
X102814845Y-64841950D01*
G37*
X102814845Y-64841950D02*
X102733014Y-64889912D01*
X102716991Y-64971588D01*
X102666962Y-65089836D01*
X102575487Y-65113092D01*
X102482910Y-65136825D01*
X102441995Y-65232749D01*
X102433983Y-65396100D01*
X102445849Y-65581255D01*
X102493811Y-65663086D01*
X102575487Y-65679109D01*
X102668064Y-65655376D01*
X102708980Y-65559452D01*
X102716991Y-65396100D01*
X102728858Y-65210946D01*
X102776820Y-65129115D01*
X102858496Y-65113092D01*
X102937529Y-65128582D01*
X102980234Y-65196624D01*
X102997398Y-65349580D01*
X103000000Y-65537605D01*
X103005163Y-65774704D01*
X103027844Y-65902819D01*
X103078829Y-65954313D01*
X103141504Y-65962117D01*
X103259752Y-65912088D01*
X103283008Y-65820613D01*
X103333037Y-65702365D01*
X103424512Y-65679109D01*
X103542761Y-65629080D01*
X103566017Y-65537605D01*
X103515987Y-65419356D01*
X103424512Y-65396100D01*
X103331935Y-65372368D01*
X103291020Y-65276444D01*
X103283008Y-65113092D01*
X103276200Y-64931944D01*
X103228543Y-64851451D01*
X103099189Y-64830764D01*
X103000000Y-64830084D01*
X102814845Y-64841950D01*
G36*
X99225296Y-64835247D02*
X99097181Y-64857928D01*
X99045687Y-64908913D01*
X99037883Y-64971588D01*
X99087912Y-65089836D01*
X99179387Y-65113092D01*
X99297635Y-65163121D01*
X99320891Y-65254596D01*
X99270862Y-65372845D01*
X99179387Y-65396100D01*
X99086810Y-65419833D01*
X99045894Y-65515757D01*
X99037883Y-65679109D01*
X99037883Y-65962117D01*
X100169916Y-65962117D01*
X100169916Y-65537605D01*
X100166835Y-65396100D01*
X99886908Y-65396100D01*
X99875041Y-65581255D01*
X99827080Y-65663086D01*
X99745404Y-65679109D01*
X99652827Y-65655376D01*
X99611911Y-65559452D01*
X99603900Y-65396100D01*
X99615766Y-65210946D01*
X99663728Y-65129115D01*
X99745404Y-65113092D01*
X99837981Y-65136825D01*
X99878896Y-65232749D01*
X99886908Y-65396100D01*
X100166835Y-65396100D01*
X100164753Y-65300506D01*
X100142072Y-65172390D01*
X100091087Y-65120896D01*
X100028412Y-65113092D01*
X99910164Y-65063063D01*
X99886908Y-64971588D01*
X99871418Y-64892555D01*
X99803376Y-64849850D01*
X99650420Y-64832685D01*
X99462395Y-64830084D01*
X99225296Y-64835247D01*
X99225296Y-64835247D01*
G37*
X99225296Y-64835247D02*
X99097181Y-64857928D01*
X99045687Y-64908913D01*
X99037883Y-64971588D01*
X99087912Y-65089836D01*
X99179387Y-65113092D01*
X99297635Y-65163121D01*
X99320891Y-65254596D01*
X99270862Y-65372845D01*
X99179387Y-65396100D01*
X99086810Y-65419833D01*
X99045894Y-65515757D01*
X99037883Y-65679109D01*
X99037883Y-65962117D01*
X100169916Y-65962117D01*
X100169916Y-65537605D01*
X100166835Y-65396100D01*
X99886908Y-65396100D01*
X99875041Y-65581255D01*
X99827080Y-65663086D01*
X99745404Y-65679109D01*
X99652827Y-65655376D01*
X99611911Y-65559452D01*
X99603900Y-65396100D01*
X99615766Y-65210946D01*
X99663728Y-65129115D01*
X99745404Y-65113092D01*
X99837981Y-65136825D01*
X99878896Y-65232749D01*
X99886908Y-65396100D01*
X100166835Y-65396100D01*
X100164753Y-65300506D01*
X100142072Y-65172390D01*
X100091087Y-65120896D01*
X100028412Y-65113092D01*
X99910164Y-65063063D01*
X99886908Y-64971588D01*
X99871418Y-64892555D01*
X99803376Y-64849850D01*
X99650420Y-64832685D01*
X99462395Y-64830084D01*
X99225296Y-64835247D01*
G36*
X100452925Y-61150975D02*
X100452925Y-62849025D01*
X102150975Y-62849025D01*
X102150975Y-64547075D01*
X103849025Y-64547075D01*
X103849025Y-63273538D01*
X103283008Y-63273538D01*
X103232979Y-63391786D01*
X103141504Y-63415042D01*
X103023255Y-63465071D01*
X103000000Y-63556546D01*
X102976267Y-63649123D01*
X102880343Y-63690039D01*
X102716991Y-63698050D01*
X102531837Y-63686184D01*
X102450006Y-63638222D01*
X102433983Y-63556546D01*
X102484012Y-63438298D01*
X102575487Y-63415042D01*
X102693736Y-63365013D01*
X102716991Y-63273538D01*
X102740724Y-63180961D01*
X102836648Y-63140045D01*
X103000000Y-63132034D01*
X103185154Y-63143900D01*
X103266985Y-63191862D01*
X103283008Y-63273538D01*
X103849025Y-63273538D01*
X103849025Y-62849025D01*
X105547075Y-62849025D01*
X105547075Y-62141504D01*
X105264067Y-62141504D01*
X105258903Y-62378603D01*
X105236223Y-62506719D01*
X105185237Y-62558213D01*
X105122562Y-62566017D01*
X105004314Y-62515988D01*
X104981058Y-62424513D01*
X104957325Y-62331936D01*
X104861402Y-62291020D01*
X104698050Y-62283009D01*
X104512896Y-62294875D01*
X104431065Y-62342837D01*
X104415042Y-62424513D01*
X104365012Y-62542761D01*
X104273537Y-62566017D01*
X104155289Y-62515988D01*
X104132033Y-62424513D01*
X104182063Y-62306264D01*
X104273537Y-62283009D01*
X104391786Y-62232979D01*
X104415042Y-62141504D01*
X104365012Y-62023256D01*
X104273537Y-62000000D01*
X104155289Y-61949971D01*
X104132033Y-61858496D01*
X104155766Y-61765919D01*
X104251690Y-61725003D01*
X104415042Y-61716992D01*
X104600196Y-61705125D01*
X104682027Y-61657164D01*
X104698050Y-61575488D01*
X104748079Y-61457239D01*
X104839554Y-61433983D01*
X104957803Y-61484013D01*
X104981058Y-61575488D01*
X105031088Y-61693736D01*
X105122562Y-61716992D01*
X105201595Y-61732481D01*
X105244301Y-61800524D01*
X105261465Y-61953480D01*
X105264067Y-62141504D01*
X105547075Y-62141504D01*
X105547075Y-61150975D01*
X103849025Y-61150975D01*
X103849025Y-62849025D01*
X102150975Y-62849025D01*
X102150975Y-62141504D01*
X101867966Y-62141504D01*
X101817937Y-62259753D01*
X101726462Y-62283009D01*
X101608214Y-62333038D01*
X101584958Y-62424513D01*
X101534929Y-62542761D01*
X101443454Y-62566017D01*
X101325205Y-62515988D01*
X101301950Y-62424513D01*
X101351979Y-62306264D01*
X101443454Y-62283009D01*
X101561702Y-62232979D01*
X101584958Y-62141504D01*
X101534929Y-62023256D01*
X101443454Y-62000000D01*
X101325205Y-61949971D01*
X101301950Y-61858496D01*
X101251920Y-61740248D01*
X101160445Y-61716992D01*
X101042197Y-61666963D01*
X101018941Y-61575488D01*
X101042674Y-61482911D01*
X101138598Y-61441995D01*
X101301950Y-61433983D01*
X101483098Y-61440792D01*
X101563591Y-61488448D01*
X101584277Y-61617803D01*
X101584958Y-61716992D01*
X101596824Y-61902146D01*
X101644786Y-61983977D01*
X101726462Y-62000000D01*
X101844711Y-62050029D01*
X101867966Y-62141504D01*
X102150975Y-62141504D01*
X102150975Y-61150975D01*
X103849025Y-61150975D01*
X103849025Y-60726463D01*
X103566017Y-60726463D01*
X103515987Y-60844711D01*
X103424512Y-60867967D01*
X103306264Y-60817937D01*
X103283008Y-60726463D01*
X103000000Y-60726463D01*
X102949971Y-60844711D01*
X102858496Y-60867967D01*
X102740247Y-60817937D01*
X102716991Y-60726463D01*
X102767021Y-60608214D01*
X102858496Y-60584958D01*
X102976744Y-60634988D01*
X103000000Y-60726463D01*
X103283008Y-60726463D01*
X103333037Y-60608214D01*
X103424512Y-60584958D01*
X103542761Y-60634988D01*
X103566017Y-60726463D01*
X103849025Y-60726463D01*
X103849025Y-59877438D01*
X103283008Y-59877438D01*
X103232979Y-59995686D01*
X103141504Y-60018942D01*
X102716991Y-60018942D01*
X102705125Y-60204096D01*
X102657163Y-60285927D01*
X102575487Y-60301950D01*
X102482910Y-60278217D01*
X102441995Y-60182293D01*
X102433983Y-60018942D01*
X102445849Y-59833787D01*
X102493811Y-59751956D01*
X102575487Y-59735933D01*
X102668064Y-59759666D01*
X102708980Y-59855590D01*
X102716991Y-60018942D01*
X103141504Y-60018942D01*
X103023255Y-59968912D01*
X103000000Y-59877438D01*
X103050029Y-59759189D01*
X103141504Y-59735933D01*
X103259752Y-59785963D01*
X103283008Y-59877438D01*
X103849025Y-59877438D01*
X103849025Y-59452925D01*
X102150975Y-59452925D01*
X102150975Y-61150975D01*
X100452925Y-61150975D01*
X100452925Y-61150975D01*
G37*
X100452925Y-61150975D02*
X100452925Y-62849025D01*
X102150975Y-62849025D01*
X102150975Y-64547075D01*
X103849025Y-64547075D01*
X103849025Y-63273538D01*
X103283008Y-63273538D01*
X103232979Y-63391786D01*
X103141504Y-63415042D01*
X103023255Y-63465071D01*
X103000000Y-63556546D01*
X102976267Y-63649123D01*
X102880343Y-63690039D01*
X102716991Y-63698050D01*
X102531837Y-63686184D01*
X102450006Y-63638222D01*
X102433983Y-63556546D01*
X102484012Y-63438298D01*
X102575487Y-63415042D01*
X102693736Y-63365013D01*
X102716991Y-63273538D01*
X102740724Y-63180961D01*
X102836648Y-63140045D01*
X103000000Y-63132034D01*
X103185154Y-63143900D01*
X103266985Y-63191862D01*
X103283008Y-63273538D01*
X103849025Y-63273538D01*
X103849025Y-62849025D01*
X105547075Y-62849025D01*
X105547075Y-62141504D01*
X105264067Y-62141504D01*
X105258903Y-62378603D01*
X105236223Y-62506719D01*
X105185237Y-62558213D01*
X105122562Y-62566017D01*
X105004314Y-62515988D01*
X104981058Y-62424513D01*
X104957325Y-62331936D01*
X104861402Y-62291020D01*
X104698050Y-62283009D01*
X104512896Y-62294875D01*
X104431065Y-62342837D01*
X104415042Y-62424513D01*
X104365012Y-62542761D01*
X104273537Y-62566017D01*
X104155289Y-62515988D01*
X104132033Y-62424513D01*
X104182063Y-62306264D01*
X104273537Y-62283009D01*
X104391786Y-62232979D01*
X104415042Y-62141504D01*
X104365012Y-62023256D01*
X104273537Y-62000000D01*
X104155289Y-61949971D01*
X104132033Y-61858496D01*
X104155766Y-61765919D01*
X104251690Y-61725003D01*
X104415042Y-61716992D01*
X104600196Y-61705125D01*
X104682027Y-61657164D01*
X104698050Y-61575488D01*
X104748079Y-61457239D01*
X104839554Y-61433983D01*
X104957803Y-61484013D01*
X104981058Y-61575488D01*
X105031088Y-61693736D01*
X105122562Y-61716992D01*
X105201595Y-61732481D01*
X105244301Y-61800524D01*
X105261465Y-61953480D01*
X105264067Y-62141504D01*
X105547075Y-62141504D01*
X105547075Y-61150975D01*
X103849025Y-61150975D01*
X103849025Y-62849025D01*
X102150975Y-62849025D01*
X102150975Y-62141504D01*
X101867966Y-62141504D01*
X101817937Y-62259753D01*
X101726462Y-62283009D01*
X101608214Y-62333038D01*
X101584958Y-62424513D01*
X101534929Y-62542761D01*
X101443454Y-62566017D01*
X101325205Y-62515988D01*
X101301950Y-62424513D01*
X101351979Y-62306264D01*
X101443454Y-62283009D01*
X101561702Y-62232979D01*
X101584958Y-62141504D01*
X101534929Y-62023256D01*
X101443454Y-62000000D01*
X101325205Y-61949971D01*
X101301950Y-61858496D01*
X101251920Y-61740248D01*
X101160445Y-61716992D01*
X101042197Y-61666963D01*
X101018941Y-61575488D01*
X101042674Y-61482911D01*
X101138598Y-61441995D01*
X101301950Y-61433983D01*
X101483098Y-61440792D01*
X101563591Y-61488448D01*
X101584277Y-61617803D01*
X101584958Y-61716992D01*
X101596824Y-61902146D01*
X101644786Y-61983977D01*
X101726462Y-62000000D01*
X101844711Y-62050029D01*
X101867966Y-62141504D01*
X102150975Y-62141504D01*
X102150975Y-61150975D01*
X103849025Y-61150975D01*
X103849025Y-60726463D01*
X103566017Y-60726463D01*
X103515987Y-60844711D01*
X103424512Y-60867967D01*
X103306264Y-60817937D01*
X103283008Y-60726463D01*
X103000000Y-60726463D01*
X102949971Y-60844711D01*
X102858496Y-60867967D01*
X102740247Y-60817937D01*
X102716991Y-60726463D01*
X102767021Y-60608214D01*
X102858496Y-60584958D01*
X102976744Y-60634988D01*
X103000000Y-60726463D01*
X103283008Y-60726463D01*
X103333037Y-60608214D01*
X103424512Y-60584958D01*
X103542761Y-60634988D01*
X103566017Y-60726463D01*
X103849025Y-60726463D01*
X103849025Y-59877438D01*
X103283008Y-59877438D01*
X103232979Y-59995686D01*
X103141504Y-60018942D01*
X102716991Y-60018942D01*
X102705125Y-60204096D01*
X102657163Y-60285927D01*
X102575487Y-60301950D01*
X102482910Y-60278217D01*
X102441995Y-60182293D01*
X102433983Y-60018942D01*
X102445849Y-59833787D01*
X102493811Y-59751956D01*
X102575487Y-59735933D01*
X102668064Y-59759666D01*
X102708980Y-59855590D01*
X102716991Y-60018942D01*
X103141504Y-60018942D01*
X103023255Y-59968912D01*
X103000000Y-59877438D01*
X103050029Y-59759189D01*
X103141504Y-59735933D01*
X103259752Y-59785963D01*
X103283008Y-59877438D01*
X103849025Y-59877438D01*
X103849025Y-59452925D01*
X102150975Y-59452925D01*
X102150975Y-61150975D01*
X100452925Y-61150975D01*
G36*
X105043530Y-63147523D02*
X105000824Y-63215566D01*
X104983660Y-63368522D01*
X104981058Y-63556546D01*
X104975895Y-63793645D01*
X104953214Y-63921761D01*
X104902229Y-63973254D01*
X104839554Y-63981059D01*
X104746977Y-63957326D01*
X104706061Y-63861402D01*
X104698050Y-63698050D01*
X104686184Y-63512896D01*
X104638222Y-63431065D01*
X104556546Y-63415042D01*
X104438297Y-63465071D01*
X104415042Y-63556546D01*
X104365012Y-63674795D01*
X104273537Y-63698050D01*
X104155289Y-63748080D01*
X104132033Y-63839555D01*
X104182063Y-63957803D01*
X104273537Y-63981059D01*
X104391786Y-64031088D01*
X104415042Y-64122563D01*
X104438774Y-64215140D01*
X104534698Y-64256056D01*
X104698050Y-64264067D01*
X104883204Y-64252201D01*
X104965035Y-64204239D01*
X104981058Y-64122563D01*
X105031088Y-64004314D01*
X105122562Y-63981059D01*
X105201595Y-63965569D01*
X105244301Y-63897527D01*
X105261465Y-63744571D01*
X105264067Y-63556546D01*
X105258903Y-63319447D01*
X105236223Y-63191332D01*
X105185237Y-63139838D01*
X105122562Y-63132034D01*
X105043530Y-63147523D01*
X105043530Y-63147523D01*
G37*
X105043530Y-63147523D02*
X105000824Y-63215566D01*
X104983660Y-63368522D01*
X104981058Y-63556546D01*
X104975895Y-63793645D01*
X104953214Y-63921761D01*
X104902229Y-63973254D01*
X104839554Y-63981059D01*
X104746977Y-63957326D01*
X104706061Y-63861402D01*
X104698050Y-63698050D01*
X104686184Y-63512896D01*
X104638222Y-63431065D01*
X104556546Y-63415042D01*
X104438297Y-63465071D01*
X104415042Y-63556546D01*
X104365012Y-63674795D01*
X104273537Y-63698050D01*
X104155289Y-63748080D01*
X104132033Y-63839555D01*
X104182063Y-63957803D01*
X104273537Y-63981059D01*
X104391786Y-64031088D01*
X104415042Y-64122563D01*
X104438774Y-64215140D01*
X104534698Y-64256056D01*
X104698050Y-64264067D01*
X104883204Y-64252201D01*
X104965035Y-64204239D01*
X104981058Y-64122563D01*
X105031088Y-64004314D01*
X105122562Y-63981059D01*
X105201595Y-63965569D01*
X105244301Y-63897527D01*
X105261465Y-63744571D01*
X105264067Y-63556546D01*
X105258903Y-63319447D01*
X105236223Y-63191332D01*
X105185237Y-63139838D01*
X105122562Y-63132034D01*
X105043530Y-63147523D01*
G36*
X101042197Y-63465071D02*
X101018941Y-63556546D01*
X101068971Y-63674795D01*
X101160445Y-63698050D01*
X101278694Y-63748080D01*
X101301950Y-63839555D01*
X101251920Y-63957803D01*
X101160445Y-63981059D01*
X101042197Y-64031088D01*
X101018941Y-64122563D01*
X101068971Y-64240811D01*
X101160445Y-64264067D01*
X101278694Y-64214038D01*
X101301950Y-64122563D01*
X101351979Y-64004314D01*
X101443454Y-63981059D01*
X101561702Y-64031088D01*
X101584958Y-64122563D01*
X101634987Y-64240811D01*
X101726462Y-64264067D01*
X101819039Y-64240334D01*
X101859955Y-64144410D01*
X101867966Y-63981059D01*
X101861158Y-63799910D01*
X101813501Y-63719417D01*
X101684147Y-63698731D01*
X101584958Y-63698050D01*
X101399804Y-63686184D01*
X101317973Y-63638222D01*
X101301950Y-63556546D01*
X101251920Y-63438298D01*
X101160445Y-63415042D01*
X101042197Y-63465071D01*
X101042197Y-63465071D01*
G37*
X101042197Y-63465071D02*
X101018941Y-63556546D01*
X101068971Y-63674795D01*
X101160445Y-63698050D01*
X101278694Y-63748080D01*
X101301950Y-63839555D01*
X101251920Y-63957803D01*
X101160445Y-63981059D01*
X101042197Y-64031088D01*
X101018941Y-64122563D01*
X101068971Y-64240811D01*
X101160445Y-64264067D01*
X101278694Y-64214038D01*
X101301950Y-64122563D01*
X101351979Y-64004314D01*
X101443454Y-63981059D01*
X101561702Y-64031088D01*
X101584958Y-64122563D01*
X101634987Y-64240811D01*
X101726462Y-64264067D01*
X101819039Y-64240334D01*
X101859955Y-64144410D01*
X101867966Y-63981059D01*
X101861158Y-63799910D01*
X101813501Y-63719417D01*
X101684147Y-63698731D01*
X101584958Y-63698050D01*
X101399804Y-63686184D01*
X101317973Y-63638222D01*
X101301950Y-63556546D01*
X101251920Y-63438298D01*
X101160445Y-63415042D01*
X101042197Y-63465071D01*
G36*
X101608214Y-63182063D02*
X101584958Y-63273538D01*
X101634987Y-63391786D01*
X101726462Y-63415042D01*
X101844711Y-63365013D01*
X101867966Y-63273538D01*
X101817937Y-63155289D01*
X101726462Y-63132034D01*
X101608214Y-63182063D01*
X101608214Y-63182063D01*
G37*
X101608214Y-63182063D02*
X101584958Y-63273538D01*
X101634987Y-63391786D01*
X101726462Y-63415042D01*
X101844711Y-63365013D01*
X101867966Y-63273538D01*
X101817937Y-63155289D01*
X101726462Y-63132034D01*
X101608214Y-63182063D01*
G36*
X106419356Y-61484013D02*
X106396100Y-61575488D01*
X106446129Y-61693736D01*
X106537604Y-61716992D01*
X106655853Y-61767021D01*
X106679108Y-61858496D01*
X106629079Y-61976745D01*
X106537604Y-62000000D01*
X106419356Y-62050029D01*
X106396100Y-62141504D01*
X106346071Y-62259753D01*
X106254596Y-62283009D01*
X106136347Y-62333038D01*
X106113092Y-62424513D01*
X106163121Y-62542761D01*
X106254596Y-62566017D01*
X106372844Y-62515988D01*
X106396100Y-62424513D01*
X106446129Y-62306264D01*
X106537604Y-62283009D01*
X106655853Y-62333038D01*
X106679108Y-62424513D01*
X106729138Y-62542761D01*
X106820613Y-62566017D01*
X106899646Y-62550527D01*
X106942351Y-62482485D01*
X106959515Y-62329529D01*
X106962117Y-62141504D01*
X106956954Y-61904406D01*
X106934273Y-61776290D01*
X106883287Y-61724796D01*
X106820613Y-61716992D01*
X106702364Y-61666963D01*
X106679108Y-61575488D01*
X106629079Y-61457239D01*
X106537604Y-61433983D01*
X106419356Y-61484013D01*
X106419356Y-61484013D01*
G37*
X106419356Y-61484013D02*
X106396100Y-61575488D01*
X106446129Y-61693736D01*
X106537604Y-61716992D01*
X106655853Y-61767021D01*
X106679108Y-61858496D01*
X106629079Y-61976745D01*
X106537604Y-62000000D01*
X106419356Y-62050029D01*
X106396100Y-62141504D01*
X106346071Y-62259753D01*
X106254596Y-62283009D01*
X106136347Y-62333038D01*
X106113092Y-62424513D01*
X106163121Y-62542761D01*
X106254596Y-62566017D01*
X106372844Y-62515988D01*
X106396100Y-62424513D01*
X106446129Y-62306264D01*
X106537604Y-62283009D01*
X106655853Y-62333038D01*
X106679108Y-62424513D01*
X106729138Y-62542761D01*
X106820613Y-62566017D01*
X106899646Y-62550527D01*
X106942351Y-62482485D01*
X106959515Y-62329529D01*
X106962117Y-62141504D01*
X106956954Y-61904406D01*
X106934273Y-61776290D01*
X106883287Y-61724796D01*
X106820613Y-61716992D01*
X106702364Y-61666963D01*
X106679108Y-61575488D01*
X106629079Y-61457239D01*
X106537604Y-61433983D01*
X106419356Y-61484013D01*
G36*
X99652827Y-61457716D02*
X99611911Y-61553640D01*
X99603900Y-61716992D01*
X99597091Y-61898140D01*
X99549435Y-61978633D01*
X99420080Y-61999320D01*
X99320891Y-62000000D01*
X99139743Y-62006808D01*
X99059250Y-62054465D01*
X99038563Y-62183820D01*
X99037883Y-62283009D01*
X99037883Y-62566017D01*
X99603900Y-62566017D01*
X99885913Y-62563063D01*
X100054931Y-62549456D01*
X100139417Y-62518081D01*
X100167833Y-62461821D01*
X100169916Y-62424513D01*
X100119887Y-62306264D01*
X100028412Y-62283009D01*
X99910164Y-62232979D01*
X99886908Y-62141504D01*
X99936937Y-62023256D01*
X100028412Y-62000000D01*
X100146661Y-61949971D01*
X100169916Y-61858496D01*
X100119887Y-61740248D01*
X100028412Y-61716992D01*
X99910164Y-61666963D01*
X99886908Y-61575488D01*
X99836879Y-61457239D01*
X99745404Y-61433983D01*
X99652827Y-61457716D01*
X99652827Y-61457716D01*
G37*
X99652827Y-61457716D02*
X99611911Y-61553640D01*
X99603900Y-61716992D01*
X99597091Y-61898140D01*
X99549435Y-61978633D01*
X99420080Y-61999320D01*
X99320891Y-62000000D01*
X99139743Y-62006808D01*
X99059250Y-62054465D01*
X99038563Y-62183820D01*
X99037883Y-62283009D01*
X99037883Y-62566017D01*
X99603900Y-62566017D01*
X99885913Y-62563063D01*
X100054931Y-62549456D01*
X100139417Y-62518081D01*
X100167833Y-62461821D01*
X100169916Y-62424513D01*
X100119887Y-62306264D01*
X100028412Y-62283009D01*
X99910164Y-62232979D01*
X99886908Y-62141504D01*
X99936937Y-62023256D01*
X100028412Y-62000000D01*
X100146661Y-61949971D01*
X100169916Y-61858496D01*
X100119887Y-61740248D01*
X100028412Y-61716992D01*
X99910164Y-61666963D01*
X99886908Y-61575488D01*
X99836879Y-61457239D01*
X99745404Y-61433983D01*
X99652827Y-61457716D01*
G36*
X104132033Y-60867967D02*
X104556546Y-60867967D01*
X104793645Y-60862804D01*
X104921760Y-60840123D01*
X104973254Y-60789137D01*
X104981058Y-60726463D01*
X105031088Y-60608214D01*
X105122562Y-60584958D01*
X105201595Y-60569469D01*
X105244301Y-60501427D01*
X105250806Y-60443454D01*
X104981058Y-60443454D01*
X104957325Y-60536031D01*
X104861402Y-60576947D01*
X104698050Y-60584958D01*
X104512896Y-60573092D01*
X104431065Y-60525130D01*
X104415042Y-60443454D01*
X104438774Y-60350877D01*
X104534698Y-60309962D01*
X104698050Y-60301950D01*
X104883204Y-60313816D01*
X104965035Y-60361778D01*
X104981058Y-60443454D01*
X105250806Y-60443454D01*
X105261465Y-60348470D01*
X105264067Y-60160446D01*
X105258903Y-59923347D01*
X105236223Y-59795231D01*
X105185237Y-59743738D01*
X105122562Y-59735933D01*
X105004314Y-59785963D01*
X104981058Y-59877438D01*
X104931029Y-59995686D01*
X104839554Y-60018942D01*
X104721306Y-59968912D01*
X104698050Y-59877438D01*
X104674317Y-59784860D01*
X104578393Y-59743945D01*
X104415042Y-59735933D01*
X104132033Y-59735933D01*
X104132033Y-60867967D01*
X104132033Y-60867967D01*
G37*
X104132033Y-60867967D02*
X104556546Y-60867967D01*
X104793645Y-60862804D01*
X104921760Y-60840123D01*
X104973254Y-60789137D01*
X104981058Y-60726463D01*
X105031088Y-60608214D01*
X105122562Y-60584958D01*
X105201595Y-60569469D01*
X105244301Y-60501427D01*
X105250806Y-60443454D01*
X104981058Y-60443454D01*
X104957325Y-60536031D01*
X104861402Y-60576947D01*
X104698050Y-60584958D01*
X104512896Y-60573092D01*
X104431065Y-60525130D01*
X104415042Y-60443454D01*
X104438774Y-60350877D01*
X104534698Y-60309962D01*
X104698050Y-60301950D01*
X104883204Y-60313816D01*
X104965035Y-60361778D01*
X104981058Y-60443454D01*
X105250806Y-60443454D01*
X105261465Y-60348470D01*
X105264067Y-60160446D01*
X105258903Y-59923347D01*
X105236223Y-59795231D01*
X105185237Y-59743738D01*
X105122562Y-59735933D01*
X105004314Y-59785963D01*
X104981058Y-59877438D01*
X104931029Y-59995686D01*
X104839554Y-60018942D01*
X104721306Y-59968912D01*
X104698050Y-59877438D01*
X104674317Y-59784860D01*
X104578393Y-59743945D01*
X104415042Y-59735933D01*
X104132033Y-59735933D01*
X104132033Y-60867967D01*
G36*
X101655959Y-59747750D02*
X101613704Y-59802177D01*
X101592583Y-59927678D01*
X101585479Y-60152715D01*
X101584958Y-60301950D01*
X101587912Y-60583964D01*
X101601519Y-60752982D01*
X101632894Y-60837467D01*
X101689154Y-60865884D01*
X101726462Y-60867967D01*
X101796966Y-60856150D01*
X101839220Y-60801723D01*
X101860341Y-60676223D01*
X101867446Y-60451185D01*
X101867966Y-60301950D01*
X101865012Y-60019936D01*
X101851405Y-59850918D01*
X101820030Y-59766433D01*
X101763771Y-59738016D01*
X101726462Y-59735933D01*
X101655959Y-59747750D01*
X101655959Y-59747750D01*
G37*
X101655959Y-59747750D02*
X101613704Y-59802177D01*
X101592583Y-59927678D01*
X101585479Y-60152715D01*
X101584958Y-60301950D01*
X101587912Y-60583964D01*
X101601519Y-60752982D01*
X101632894Y-60837467D01*
X101689154Y-60865884D01*
X101726462Y-60867967D01*
X101796966Y-60856150D01*
X101839220Y-60801723D01*
X101860341Y-60676223D01*
X101867446Y-60451185D01*
X101867966Y-60301950D01*
X101865012Y-60019936D01*
X101851405Y-59850918D01*
X101820030Y-59766433D01*
X101763771Y-59738016D01*
X101726462Y-59735933D01*
X101655959Y-59747750D01*
G36*
X101042197Y-60634988D02*
X101018941Y-60726463D01*
X101068971Y-60844711D01*
X101160445Y-60867967D01*
X101278694Y-60817937D01*
X101301950Y-60726463D01*
X101251920Y-60608214D01*
X101160445Y-60584958D01*
X101042197Y-60634988D01*
X101042197Y-60634988D01*
G37*
X101042197Y-60634988D02*
X101018941Y-60726463D01*
X101068971Y-60844711D01*
X101160445Y-60867967D01*
X101278694Y-60817937D01*
X101301950Y-60726463D01*
X101251920Y-60608214D01*
X101160445Y-60584958D01*
X101042197Y-60634988D01*
G36*
X101042197Y-59785963D02*
X101018941Y-59877438D01*
X100968912Y-59995686D01*
X100877437Y-60018942D01*
X100759189Y-60068971D01*
X100735933Y-60160446D01*
X100759666Y-60253023D01*
X100855590Y-60293939D01*
X101018941Y-60301950D01*
X101200090Y-60295142D01*
X101280583Y-60247485D01*
X101301269Y-60118131D01*
X101301950Y-60018942D01*
X101290083Y-59833787D01*
X101242121Y-59751956D01*
X101160445Y-59735933D01*
X101042197Y-59785963D01*
X101042197Y-59785963D01*
G37*
X101042197Y-59785963D02*
X101018941Y-59877438D01*
X100968912Y-59995686D01*
X100877437Y-60018942D01*
X100759189Y-60068971D01*
X100735933Y-60160446D01*
X100759666Y-60253023D01*
X100855590Y-60293939D01*
X101018941Y-60301950D01*
X101200090Y-60295142D01*
X101280583Y-60247485D01*
X101301269Y-60118131D01*
X101301950Y-60018942D01*
X101290083Y-59833787D01*
X101242121Y-59751956D01*
X101160445Y-59735933D01*
X101042197Y-59785963D01*
G36*
X106210946Y-58049750D02*
X106129115Y-58097712D01*
X106113092Y-58179387D01*
X106063062Y-58297636D01*
X105971588Y-58320892D01*
X105853339Y-58370921D01*
X105830083Y-58462396D01*
X105880113Y-58580644D01*
X105971588Y-58603900D01*
X106089836Y-58653929D01*
X106113092Y-58745404D01*
X106063062Y-58863653D01*
X105971588Y-58886908D01*
X105853339Y-58936938D01*
X105830083Y-59028412D01*
X105853816Y-59120990D01*
X105949740Y-59161905D01*
X106113092Y-59169917D01*
X106298246Y-59158050D01*
X106380077Y-59110088D01*
X106396100Y-59028412D01*
X106446129Y-58910164D01*
X106537604Y-58886908D01*
X106655853Y-58836879D01*
X106679108Y-58745404D01*
X106729138Y-58627156D01*
X106820613Y-58603900D01*
X106938861Y-58553871D01*
X106962117Y-58462396D01*
X106912088Y-58344147D01*
X106820613Y-58320892D01*
X106702364Y-58270862D01*
X106679108Y-58179387D01*
X106655376Y-58086810D01*
X106559452Y-58045895D01*
X106396100Y-58037883D01*
X106210946Y-58049750D01*
X106210946Y-58049750D01*
G37*
X106210946Y-58049750D02*
X106129115Y-58097712D01*
X106113092Y-58179387D01*
X106063062Y-58297636D01*
X105971588Y-58320892D01*
X105853339Y-58370921D01*
X105830083Y-58462396D01*
X105880113Y-58580644D01*
X105971588Y-58603900D01*
X106089836Y-58653929D01*
X106113092Y-58745404D01*
X106063062Y-58863653D01*
X105971588Y-58886908D01*
X105853339Y-58936938D01*
X105830083Y-59028412D01*
X105853816Y-59120990D01*
X105949740Y-59161905D01*
X106113092Y-59169917D01*
X106298246Y-59158050D01*
X106380077Y-59110088D01*
X106396100Y-59028412D01*
X106446129Y-58910164D01*
X106537604Y-58886908D01*
X106655853Y-58836879D01*
X106679108Y-58745404D01*
X106729138Y-58627156D01*
X106820613Y-58603900D01*
X106938861Y-58553871D01*
X106962117Y-58462396D01*
X106912088Y-58344147D01*
X106820613Y-58320892D01*
X106702364Y-58270862D01*
X106679108Y-58179387D01*
X106655376Y-58086810D01*
X106559452Y-58045895D01*
X106396100Y-58037883D01*
X106210946Y-58049750D01*
G36*
X102433983Y-59169917D02*
X103566017Y-59169917D01*
X103566017Y-58603900D01*
X102433983Y-58603900D01*
X102433983Y-59169917D01*
X102433983Y-59169917D01*
G37*
X102433983Y-59169917D02*
X103566017Y-59169917D01*
X103566017Y-58603900D01*
X102433983Y-58603900D01*
X102433983Y-59169917D01*
G36*
X99418745Y-58049750D02*
X99336914Y-58097712D01*
X99320891Y-58179387D01*
X99270862Y-58297636D01*
X99179387Y-58320892D01*
X99100354Y-58336381D01*
X99057649Y-58404423D01*
X99040484Y-58557380D01*
X99037883Y-58745404D01*
X99037883Y-59169917D01*
X100169916Y-59169917D01*
X100169916Y-58745404D01*
X100164753Y-58508305D01*
X100142072Y-58380189D01*
X100091087Y-58328696D01*
X100028412Y-58320892D01*
X99910164Y-58270862D01*
X99886908Y-58179387D01*
X99863175Y-58086810D01*
X99767251Y-58045895D01*
X99603900Y-58037883D01*
X99418745Y-58049750D01*
X99418745Y-58049750D01*
G37*
X99418745Y-58049750D02*
X99336914Y-58097712D01*
X99320891Y-58179387D01*
X99270862Y-58297636D01*
X99179387Y-58320892D01*
X99100354Y-58336381D01*
X99057649Y-58404423D01*
X99040484Y-58557380D01*
X99037883Y-58745404D01*
X99037883Y-59169917D01*
X100169916Y-59169917D01*
X100169916Y-58745404D01*
X100164753Y-58508305D01*
X100142072Y-58380189D01*
X100091087Y-58328696D01*
X100028412Y-58320892D01*
X99910164Y-58270862D01*
X99886908Y-58179387D01*
X99863175Y-58086810D01*
X99767251Y-58045895D01*
X99603900Y-58037883D01*
X99418745Y-58049750D01*
G36*
X103023255Y-58087912D02*
X103000000Y-58179387D01*
X103050029Y-58297636D01*
X103141504Y-58320892D01*
X103259752Y-58270862D01*
X103283008Y-58179387D01*
X103232979Y-58061139D01*
X103141504Y-58037883D01*
X103023255Y-58087912D01*
X103023255Y-58087912D01*
G37*
X103023255Y-58087912D02*
X103000000Y-58179387D01*
X103050029Y-58297636D01*
X103141504Y-58320892D01*
X103259752Y-58270862D01*
X103283008Y-58179387D01*
X103232979Y-58061139D01*
X103141504Y-58037883D01*
X103023255Y-58087912D01*
G36*
X99344147Y-63465071D02*
X99320891Y-63556546D01*
X99370920Y-63674795D01*
X99462395Y-63698050D01*
X99580644Y-63648021D01*
X99603900Y-63556546D01*
X99553870Y-63438298D01*
X99462395Y-63415042D01*
X99344147Y-63465071D01*
X99344147Y-63465071D01*
G37*
X99344147Y-63465071D02*
X99320891Y-63556546D01*
X99370920Y-63674795D01*
X99462395Y-63698050D01*
X99580644Y-63648021D01*
X99603900Y-63556546D01*
X99553870Y-63438298D01*
X99462395Y-63415042D01*
X99344147Y-63465071D01*
G36*
X103097854Y-61445850D02*
X103016023Y-61493812D01*
X103000000Y-61575488D01*
X102976267Y-61668065D01*
X102880343Y-61708980D01*
X102716991Y-61716992D01*
X102531837Y-61728858D01*
X102450006Y-61776820D01*
X102433983Y-61858496D01*
X102484012Y-61976745D01*
X102575487Y-62000000D01*
X102693736Y-62050029D01*
X102716991Y-62141504D01*
X102732481Y-62220537D01*
X102800523Y-62263243D01*
X102953480Y-62280407D01*
X103141504Y-62283009D01*
X103566017Y-62283009D01*
X103566017Y-61858496D01*
X103283008Y-61858496D01*
X103232979Y-61976745D01*
X103141504Y-62000000D01*
X103023255Y-61949971D01*
X103000000Y-61858496D01*
X103050029Y-61740248D01*
X103141504Y-61716992D01*
X103259752Y-61767021D01*
X103283008Y-61858496D01*
X103566017Y-61858496D01*
X103566017Y-61433983D01*
X103283008Y-61433983D01*
X103097854Y-61445850D01*
X103097854Y-61445850D01*
G37*
X103097854Y-61445850D02*
X103016023Y-61493812D01*
X103000000Y-61575488D01*
X102976267Y-61668065D01*
X102880343Y-61708980D01*
X102716991Y-61716992D01*
X102531837Y-61728858D01*
X102450006Y-61776820D01*
X102433983Y-61858496D01*
X102484012Y-61976745D01*
X102575487Y-62000000D01*
X102693736Y-62050029D01*
X102716991Y-62141504D01*
X102732481Y-62220537D01*
X102800523Y-62263243D01*
X102953480Y-62280407D01*
X103141504Y-62283009D01*
X103566017Y-62283009D01*
X103566017Y-61858496D01*
X103283008Y-61858496D01*
X103232979Y-61976745D01*
X103141504Y-62000000D01*
X103023255Y-61949971D01*
X103000000Y-61858496D01*
X103050029Y-61740248D01*
X103141504Y-61716992D01*
X103259752Y-61767021D01*
X103283008Y-61858496D01*
X103566017Y-61858496D01*
X103566017Y-61433983D01*
X103283008Y-61433983D01*
X103097854Y-61445850D01*
D15*
X94463600Y-145200000D03*
D16*
X91923600Y-145200000D03*
D17*
X68620000Y-55650000D03*
X80490000Y-55650000D03*
D18*
X79000000Y-62000000D03*
D19*
X77730000Y-64540000D03*
X76460000Y-62000000D03*
X75190000Y-64540000D03*
X73920000Y-62000000D03*
X72650000Y-64540000D03*
X71380000Y-62000000D03*
X70110000Y-64540000D03*
D15*
X74700000Y-98660000D03*
D16*
X74700000Y-101200000D03*
X72160000Y-98660000D03*
X72160000Y-101200000D03*
D20*
X75540000Y-146000000D03*
D21*
X70460000Y-146000000D03*
D20*
X73000000Y-146000000D03*
X107540000Y-146000000D03*
D21*
X99920000Y-146000000D03*
D20*
X102460000Y-146000000D03*
X105000000Y-146000000D03*
D22*
X107540000Y-132000000D03*
D23*
X99920000Y-139620000D03*
X105000000Y-132000000D03*
X102460000Y-139620000D03*
X102460000Y-132000000D03*
X105000000Y-139620000D03*
X99920000Y-132000000D03*
X107540000Y-139620000D03*
D15*
X81320000Y-148040000D03*
D16*
X81320000Y-145500000D03*
X83860000Y-148040000D03*
X83860000Y-145500000D03*
X86400000Y-148040000D03*
X86400000Y-145500000D03*
X88940000Y-148040000D03*
X88940000Y-145500000D03*
D15*
X64478900Y-71242680D03*
D16*
X67018900Y-71242680D03*
X64478900Y-73782680D03*
X67018900Y-73782680D03*
X64478900Y-76322680D03*
X67018900Y-76322680D03*
X64478900Y-78862680D03*
X67018900Y-78862680D03*
X64478900Y-81402680D03*
X67018900Y-81402680D03*
X64478900Y-83942680D03*
X67018900Y-83942680D03*
X64478900Y-86482680D03*
X67018900Y-86482680D03*
X64478900Y-89022680D03*
X67018900Y-89022680D03*
X64478900Y-91562680D03*
X67018900Y-91562680D03*
X64478900Y-94102680D03*
X67018900Y-94102680D03*
X64478900Y-96642680D03*
X67018900Y-96642680D03*
X64478900Y-99182680D03*
X67018900Y-99182680D03*
X64478900Y-101722680D03*
X67018900Y-101722680D03*
D24*
X74000000Y-112360000D03*
X74000000Y-137760000D03*
D25*
X76540000Y-130650000D03*
D26*
X76540000Y-127860000D03*
X76540000Y-125190000D03*
X76540000Y-122390000D03*
X76540000Y-119600000D03*
X74000000Y-129250000D03*
X74000000Y-126460000D03*
X74000000Y-123790000D03*
X74000000Y-121000000D03*
D24*
X104000000Y-125020000D03*
X104000000Y-100000000D03*
D25*
X102600000Y-107110000D03*
D26*
X102600000Y-109780000D03*
X102600000Y-112570000D03*
X102600000Y-115240000D03*
X102600000Y-118030000D03*
X105390000Y-108380000D03*
X105390000Y-111170000D03*
X105390000Y-113840000D03*
X105390000Y-116640000D03*
D15*
X71000000Y-71210000D03*
D16*
X71000000Y-73750000D03*
X71000000Y-76290000D03*
D15*
X75250000Y-77710000D03*
D16*
X77790000Y-77710000D03*
X75250000Y-80250000D03*
X77790000Y-80250000D03*
X75250000Y-82790000D03*
X77790000Y-82790000D03*
D27*
X82500000Y-140000000D03*
X82800000Y-143000000D03*
X84000000Y-141600000D03*
X105000000Y-129600000D03*
X98500000Y-129750000D03*
X97000000Y-113000000D03*
X76500000Y-68000000D03*
X83000000Y-70000000D03*
X90000000Y-136000000D03*
X79500000Y-67500000D03*
X89000000Y-137000000D03*
X70000000Y-96500000D03*
D28*
X84000000Y-141600000D02*
X84000000Y-141800000D01*
X84000000Y-141800000D02*
X82800000Y-143000000D01*
X83860000Y-148040000D02*
X83860000Y-147239002D01*
X83860000Y-147239002D02*
X85224999Y-145874003D01*
X85224999Y-145874003D02*
X85224999Y-142002181D01*
X85224999Y-142002181D02*
X98252181Y-128974999D01*
X104374999Y-128974999D02*
X104700001Y-129300001D01*
X98252181Y-128974999D02*
X104374999Y-128974999D01*
X104700001Y-129300001D02*
X105000000Y-129600000D01*
X86400000Y-148040000D02*
X87764999Y-146675001D01*
X87764999Y-146675001D02*
X87764999Y-140485001D01*
X87764999Y-140485001D02*
X98500000Y-129750000D01*
X102600000Y-112570000D02*
X97430000Y-112570000D01*
X97430000Y-112570000D02*
X97000000Y-113000000D01*
X76460000Y-62000000D02*
X76460000Y-67960000D01*
X76460000Y-67960000D02*
X76500000Y-68000000D01*
X90000000Y-82000000D02*
X90000000Y-77500000D01*
X83000000Y-70000000D02*
X90000000Y-77000000D01*
X90000000Y-77000000D02*
X90000000Y-77500000D01*
X90000000Y-136000000D02*
X90000000Y-82000000D01*
X89000000Y-82375000D02*
X89000000Y-77000000D01*
X79500000Y-67500000D02*
X89000000Y-77000000D01*
X89000000Y-137000000D02*
X89000000Y-82375000D01*
D29*
X76540000Y-127860000D02*
X77750001Y-129070001D01*
X77750001Y-129070001D02*
X77750001Y-143789999D01*
X77750001Y-143789999D02*
X76539489Y-145000511D01*
X76539489Y-145000511D02*
X75540000Y-146000000D01*
X74000000Y-126460000D02*
X70460000Y-130000000D01*
X70460000Y-130000000D02*
X70460000Y-146000000D01*
X72160000Y-98660000D02*
X70000000Y-96500000D01*
D28*
X64478900Y-73782680D02*
X65843899Y-72417681D01*
X65843899Y-72417681D02*
X68692319Y-72417681D01*
X68692319Y-72417681D02*
X69900000Y-71210000D01*
X69900000Y-71210000D02*
X71000000Y-71210000D01*
X64478900Y-76322680D02*
X65843899Y-74957681D01*
X65843899Y-74957681D02*
X69792319Y-74957681D01*
X69792319Y-74957681D02*
X70150001Y-74599999D01*
X70150001Y-74599999D02*
X71000000Y-73750000D01*
X75250000Y-77710000D02*
X74150000Y-77710000D01*
X65328899Y-93252681D02*
X64478900Y-94102680D01*
X74150000Y-77710000D02*
X68193901Y-83666099D01*
X68193901Y-83666099D02*
X68193901Y-92126681D01*
X68193901Y-92126681D02*
X67392903Y-92927679D01*
X67392903Y-92927679D02*
X65653901Y-92927679D01*
X65653901Y-92927679D02*
X65328899Y-93252681D01*
X75250000Y-80250000D02*
X68643911Y-86856089D01*
X68643911Y-94216671D02*
X67582901Y-95277681D01*
X68643911Y-86856089D02*
X68643911Y-94216671D01*
X67582901Y-95277681D02*
X65843899Y-95277681D01*
X65843899Y-95277681D02*
X65328899Y-95792681D01*
X65328899Y-95792681D02*
X64478900Y-96642680D01*
X75250000Y-82790000D02*
X69250000Y-88790000D01*
X68193901Y-97206681D02*
X67392903Y-98007679D01*
X65653901Y-98007679D02*
X65328899Y-98332681D01*
X69250000Y-88790000D02*
X69250000Y-94500000D01*
X69250000Y-94500000D02*
X68193901Y-95556099D01*
X68193901Y-95556099D02*
X68193901Y-97206681D01*
X67392903Y-98007679D02*
X65653901Y-98007679D01*
X65328899Y-98332681D02*
X64478900Y-99182680D01*
X67018900Y-99182680D02*
X67018900Y-99018092D01*
X67018900Y-99018092D02*
X69374999Y-96661993D01*
X76614999Y-78885001D02*
X76940001Y-78559999D01*
X69374999Y-96661993D02*
X69374999Y-95011411D01*
X69374999Y-95011411D02*
X76614999Y-87771411D01*
X76614999Y-87771411D02*
X76614999Y-78885001D01*
X76940001Y-78559999D02*
X77790000Y-77710000D01*
X77790000Y-80250000D02*
X78965001Y-81425001D01*
X73335001Y-93664999D02*
X73335001Y-99224001D01*
X78965001Y-81425001D02*
X78965001Y-88034999D01*
X78965001Y-88034999D02*
X73335001Y-93664999D01*
X68716581Y-100024999D02*
X67868899Y-100872681D01*
X67868899Y-100872681D02*
X67018900Y-101722680D01*
X73335001Y-99224001D02*
X72534003Y-100024999D01*
X72534003Y-100024999D02*
X68716581Y-100024999D01*
D30*
G36*
X87290000Y-70000000D02*
X87344046Y-70271705D01*
X87497954Y-70502046D01*
X87728295Y-70655954D01*
X88000000Y-70710000D01*
X97000000Y-70710000D01*
X97271705Y-70655954D01*
X97502046Y-70502046D01*
X97655954Y-70271705D01*
X97710000Y-70000000D01*
X97710000Y-57471867D01*
X97831866Y-57471867D01*
X97831866Y-66528134D01*
X97880583Y-66773051D01*
X98019318Y-66980682D01*
X98226949Y-67119417D01*
X98471866Y-67168134D01*
X107528133Y-67168134D01*
X107773050Y-67119417D01*
X107980681Y-66980682D01*
X108119416Y-66773051D01*
X108168133Y-66528134D01*
X108168133Y-57471867D01*
X108119416Y-57226950D01*
X107980681Y-57019319D01*
X107773050Y-56880584D01*
X107528133Y-56831867D01*
X98471866Y-56831867D01*
X98226949Y-56880584D01*
X98019318Y-57019319D01*
X97880583Y-57226950D01*
X97831866Y-57471867D01*
X97710000Y-57471867D01*
X97710000Y-50710000D01*
X109290000Y-50710000D01*
X109290000Y-134873000D01*
X97000000Y-134873000D01*
X96952211Y-134882334D01*
X96910197Y-134910197D01*
X95910197Y-135910197D01*
X95883006Y-135950590D01*
X95873000Y-136000000D01*
X95873000Y-144046675D01*
X95777690Y-143898559D01*
X95565490Y-143753569D01*
X95313600Y-143702560D01*
X93613600Y-143702560D01*
X93378283Y-143746838D01*
X93162159Y-143885910D01*
X93017169Y-144098110D01*
X93005759Y-144154454D01*
X93002747Y-144149946D01*
X92520978Y-143828039D01*
X91952693Y-143715000D01*
X91894507Y-143715000D01*
X91326222Y-143828039D01*
X90844453Y-144149946D01*
X90522546Y-144631715D01*
X90409507Y-145200000D01*
X90522546Y-145768285D01*
X90844453Y-146250054D01*
X91326222Y-146571961D01*
X91894507Y-146685000D01*
X91952693Y-146685000D01*
X92520978Y-146571961D01*
X93002747Y-146250054D01*
X93003571Y-146248821D01*
X93010438Y-146285317D01*
X93149510Y-146501441D01*
X93361710Y-146646431D01*
X93613600Y-146697440D01*
X95313600Y-146697440D01*
X95548917Y-146653162D01*
X95765041Y-146514090D01*
X95873000Y-146356087D01*
X95873000Y-149290000D01*
X89730675Y-149290000D01*
X90135183Y-148921358D01*
X90381486Y-148396892D01*
X90260819Y-148167000D01*
X89067000Y-148167000D01*
X89067000Y-148187000D01*
X88813000Y-148187000D01*
X88813000Y-148167000D01*
X88793000Y-148167000D01*
X88793000Y-147913000D01*
X88813000Y-147913000D01*
X88813000Y-145627000D01*
X89067000Y-145627000D01*
X89067000Y-147913000D01*
X90260819Y-147913000D01*
X90381486Y-147683108D01*
X90135183Y-147158642D01*
X89708729Y-146770000D01*
X90135183Y-146381358D01*
X90381486Y-145856892D01*
X90260819Y-145627000D01*
X89067000Y-145627000D01*
X88813000Y-145627000D01*
X88793000Y-145627000D01*
X88793000Y-145373000D01*
X88813000Y-145373000D01*
X88813000Y-144179845D01*
X89067000Y-144179845D01*
X89067000Y-145373000D01*
X90260819Y-145373000D01*
X90381486Y-145143108D01*
X90135183Y-144618642D01*
X89706924Y-144228355D01*
X89296890Y-144058524D01*
X89067000Y-144179845D01*
X88813000Y-144179845D01*
X88583110Y-144058524D01*
X88524999Y-144082593D01*
X88524999Y-140799803D01*
X97352915Y-131971887D01*
X98485000Y-131971887D01*
X98485000Y-132028113D01*
X98594233Y-132577264D01*
X98905302Y-133042811D01*
X99370849Y-133353880D01*
X99920000Y-133463113D01*
X100469151Y-133353880D01*
X100934698Y-133042811D01*
X101204986Y-132638297D01*
X101307611Y-132855134D01*
X101722577Y-133231041D01*
X102110961Y-133391904D01*
X102333000Y-133269915D01*
X102333000Y-132127000D01*
X102587000Y-132127000D01*
X102587000Y-133269915D01*
X102809039Y-133391904D01*
X103197423Y-133231041D01*
X103612389Y-132855134D01*
X103730000Y-132606633D01*
X103847611Y-132855134D01*
X104262577Y-133231041D01*
X104650961Y-133391904D01*
X104873000Y-133269915D01*
X104873000Y-132127000D01*
X102587000Y-132127000D01*
X102333000Y-132127000D01*
X102313000Y-132127000D01*
X102313000Y-131873000D01*
X102333000Y-131873000D01*
X102333000Y-130730085D01*
X102587000Y-130730085D01*
X102587000Y-131873000D01*
X104873000Y-131873000D01*
X104873000Y-130730085D01*
X105127000Y-130730085D01*
X105127000Y-131873000D01*
X105147000Y-131873000D01*
X105147000Y-132127000D01*
X105127000Y-132127000D01*
X105127000Y-133269915D01*
X105349039Y-133391904D01*
X105737423Y-133231041D01*
X106110136Y-132893410D01*
X106136838Y-133035317D01*
X106275910Y-133251441D01*
X106488110Y-133396431D01*
X106740000Y-133447440D01*
X108340000Y-133447440D01*
X108575317Y-133403162D01*
X108791441Y-133264090D01*
X108936431Y-133051890D01*
X108987440Y-132800000D01*
X108987440Y-131200000D01*
X108943162Y-130964683D01*
X108804090Y-130748559D01*
X108591890Y-130603569D01*
X108340000Y-130552560D01*
X106740000Y-130552560D01*
X106504683Y-130596838D01*
X106288559Y-130735910D01*
X106143569Y-130948110D01*
X106111268Y-131107616D01*
X105737423Y-130768959D01*
X105349039Y-130608096D01*
X105127000Y-130730085D01*
X104873000Y-130730085D01*
X104650961Y-130608096D01*
X104262577Y-130768959D01*
X103847611Y-131144866D01*
X103730000Y-131393367D01*
X103612389Y-131144866D01*
X103197423Y-130768959D01*
X102809039Y-130608096D01*
X102587000Y-130730085D01*
X102333000Y-130730085D01*
X102110961Y-130608096D01*
X101722577Y-130768959D01*
X101307611Y-131144866D01*
X101204986Y-131361703D01*
X100934698Y-130957189D01*
X100469151Y-130646120D01*
X99920000Y-130536887D01*
X99370849Y-130646120D01*
X98905302Y-130957189D01*
X98594233Y-131422736D01*
X98485000Y-131971887D01*
X97352915Y-131971887D01*
X98639680Y-130685122D01*
X98685167Y-130685162D01*
X99028943Y-130543117D01*
X99292192Y-130280327D01*
X99434838Y-129936799D01*
X99435014Y-129734999D01*
X104060197Y-129734999D01*
X104064878Y-129739680D01*
X104064838Y-129785167D01*
X104206883Y-130128943D01*
X104469673Y-130392192D01*
X104813201Y-130534838D01*
X105185167Y-130535162D01*
X105528943Y-130393117D01*
X105792192Y-130130327D01*
X105934838Y-129786799D01*
X105935162Y-129414833D01*
X105793117Y-129071057D01*
X105530327Y-128807808D01*
X105186799Y-128665162D01*
X105139923Y-128665121D01*
X104912400Y-128437598D01*
X104665838Y-128272851D01*
X104374999Y-128214999D01*
X98252181Y-128214999D01*
X98009595Y-128263253D01*
X97961341Y-128272851D01*
X97714780Y-128437598D01*
X90760000Y-135392378D01*
X90760000Y-126826440D01*
X102373165Y-126826440D01*
X102582353Y-127187289D01*
X103519650Y-127564824D01*
X104530077Y-127554933D01*
X105417647Y-127187289D01*
X105626835Y-126826440D01*
X104000000Y-125199605D01*
X102373165Y-126826440D01*
X90760000Y-126826440D01*
X90760000Y-124539650D01*
X101455176Y-124539650D01*
X101465067Y-125550077D01*
X101832711Y-126437647D01*
X102193560Y-126646835D01*
X103820395Y-125020000D01*
X104179605Y-125020000D01*
X105806440Y-126646835D01*
X106167289Y-126437647D01*
X106544824Y-125500350D01*
X106534933Y-124489923D01*
X106167289Y-123602353D01*
X105806440Y-123393165D01*
X104179605Y-125020000D01*
X103820395Y-125020000D01*
X102193560Y-123393165D01*
X101832711Y-123602353D01*
X101455176Y-124539650D01*
X90760000Y-124539650D01*
X90760000Y-123213560D01*
X102373165Y-123213560D01*
X104000000Y-124840395D01*
X105626835Y-123213560D01*
X105417647Y-122852711D01*
X104480350Y-122475176D01*
X103469923Y-122485067D01*
X102582353Y-122852711D01*
X102373165Y-123213560D01*
X90760000Y-123213560D01*
X90760000Y-119008764D01*
X101800841Y-119008764D01*
X101870059Y-119250742D01*
X102392780Y-119437155D01*
X102947049Y-119409341D01*
X103329941Y-119250742D01*
X103399159Y-119008764D01*
X102600000Y-118209605D01*
X101800841Y-119008764D01*
X90760000Y-119008764D01*
X90760000Y-117822780D01*
X101192845Y-117822780D01*
X101220659Y-118377049D01*
X101379258Y-118759941D01*
X101621236Y-118829159D01*
X102420395Y-118030000D01*
X102779605Y-118030000D01*
X103578764Y-118829159D01*
X103820742Y-118759941D01*
X104007155Y-118237220D01*
X103979341Y-117682951D01*
X103820742Y-117300059D01*
X103578764Y-117230841D01*
X102779605Y-118030000D01*
X102420395Y-118030000D01*
X101621236Y-117230841D01*
X101379258Y-117300059D01*
X101192845Y-117822780D01*
X90760000Y-117822780D01*
X90760000Y-113185167D01*
X96064838Y-113185167D01*
X96206883Y-113528943D01*
X96469673Y-113792192D01*
X96813201Y-113934838D01*
X97185167Y-113935162D01*
X97528943Y-113793117D01*
X97792192Y-113530327D01*
X97875375Y-113330000D01*
X101404633Y-113330000D01*
X101416687Y-113359172D01*
X101808764Y-113751934D01*
X102177662Y-113905114D01*
X101810828Y-114056687D01*
X101418066Y-114448764D01*
X101205242Y-114961300D01*
X101204758Y-115516265D01*
X101416687Y-116029172D01*
X101808764Y-116421934D01*
X102321300Y-116634758D01*
X102565576Y-116634971D01*
X102252951Y-116650659D01*
X101870059Y-116809258D01*
X101800841Y-117051236D01*
X102600000Y-117850395D01*
X103399159Y-117051236D01*
X103360551Y-116916265D01*
X103994758Y-116916265D01*
X104206687Y-117429172D01*
X104598764Y-117821934D01*
X105111300Y-118034758D01*
X105666265Y-118035242D01*
X106179172Y-117823313D01*
X106571934Y-117431236D01*
X106784758Y-116918700D01*
X106785242Y-116363735D01*
X106573313Y-115850828D01*
X106181236Y-115458066D01*
X105668700Y-115245242D01*
X105113735Y-115244758D01*
X104600828Y-115456687D01*
X104208066Y-115848764D01*
X103995242Y-116361300D01*
X103994758Y-116916265D01*
X103360551Y-116916265D01*
X103329941Y-116809258D01*
X102841898Y-116635212D01*
X102876265Y-116635242D01*
X103389172Y-116423313D01*
X103781934Y-116031236D01*
X103994758Y-115518700D01*
X103995242Y-114963735D01*
X103783313Y-114450828D01*
X103391236Y-114058066D01*
X103022338Y-113904886D01*
X103389172Y-113753313D01*
X103781934Y-113361236D01*
X103994758Y-112848700D01*
X103995242Y-112293735D01*
X103783313Y-111780828D01*
X103391236Y-111388066D01*
X102878700Y-111175242D01*
X102876270Y-111175240D01*
X103389172Y-110963313D01*
X103781934Y-110571236D01*
X103994758Y-110058700D01*
X103995242Y-109503735D01*
X103783313Y-108990828D01*
X103449334Y-108656265D01*
X103994758Y-108656265D01*
X104206687Y-109169172D01*
X104598764Y-109561934D01*
X105111300Y-109774758D01*
X105113730Y-109774760D01*
X104600828Y-109986687D01*
X104208066Y-110378764D01*
X103995242Y-110891300D01*
X103994758Y-111446265D01*
X104206687Y-111959172D01*
X104598764Y-112351934D01*
X104967662Y-112505114D01*
X104600828Y-112656687D01*
X104208066Y-113048764D01*
X103995242Y-113561300D01*
X103994758Y-114116265D01*
X104206687Y-114629172D01*
X104598764Y-115021934D01*
X105111300Y-115234758D01*
X105666265Y-115235242D01*
X106179172Y-115023313D01*
X106571934Y-114631236D01*
X106784758Y-114118700D01*
X106785242Y-113563735D01*
X106573313Y-113050828D01*
X106181236Y-112658066D01*
X105812338Y-112504886D01*
X106179172Y-112353313D01*
X106571934Y-111961236D01*
X106784758Y-111448700D01*
X106785242Y-110893735D01*
X106573313Y-110380828D01*
X106181236Y-109988066D01*
X105668700Y-109775242D01*
X105666270Y-109775240D01*
X106179172Y-109563313D01*
X106571934Y-109171236D01*
X106784758Y-108658700D01*
X106785242Y-108103735D01*
X106573313Y-107590828D01*
X106181236Y-107198066D01*
X105668700Y-106985242D01*
X105113735Y-106984758D01*
X104600828Y-107196687D01*
X104208066Y-107588764D01*
X103995242Y-108101300D01*
X103994758Y-108656265D01*
X103449334Y-108656265D01*
X103391236Y-108598066D01*
X103197067Y-108517440D01*
X103360000Y-108517440D01*
X103595317Y-108473162D01*
X103811441Y-108334090D01*
X103956431Y-108121890D01*
X104007440Y-107870000D01*
X104007440Y-106350000D01*
X103963162Y-106114683D01*
X103824090Y-105898559D01*
X103611890Y-105753569D01*
X103360000Y-105702560D01*
X101840000Y-105702560D01*
X101604683Y-105746838D01*
X101388559Y-105885910D01*
X101243569Y-106098110D01*
X101192560Y-106350000D01*
X101192560Y-107870000D01*
X101236838Y-108105317D01*
X101375910Y-108321441D01*
X101588110Y-108466431D01*
X101840000Y-108517440D01*
X102002620Y-108517440D01*
X101810828Y-108596687D01*
X101418066Y-108988764D01*
X101205242Y-109501300D01*
X101204758Y-110056265D01*
X101416687Y-110569172D01*
X101808764Y-110961934D01*
X102321300Y-111174758D01*
X102323730Y-111174760D01*
X101810828Y-111386687D01*
X101418066Y-111778764D01*
X101405096Y-111810000D01*
X97430000Y-111810000D01*
X97139161Y-111867852D01*
X96892599Y-112032599D01*
X96860320Y-112064878D01*
X96814833Y-112064838D01*
X96471057Y-112206883D01*
X96207808Y-112469673D01*
X96065162Y-112813201D01*
X96064838Y-113185167D01*
X90760000Y-113185167D01*
X90760000Y-101806440D01*
X102373165Y-101806440D01*
X102582353Y-102167289D01*
X103519650Y-102544824D01*
X104530077Y-102534933D01*
X105417647Y-102167289D01*
X105626835Y-101806440D01*
X104000000Y-100179605D01*
X102373165Y-101806440D01*
X90760000Y-101806440D01*
X90760000Y-99519650D01*
X101455176Y-99519650D01*
X101465067Y-100530077D01*
X101832711Y-101417647D01*
X102193560Y-101626835D01*
X103820395Y-100000000D01*
X104179605Y-100000000D01*
X105806440Y-101626835D01*
X106167289Y-101417647D01*
X106544824Y-100480350D01*
X106534933Y-99469923D01*
X106167289Y-98582353D01*
X105806440Y-98373165D01*
X104179605Y-100000000D01*
X103820395Y-100000000D01*
X102193560Y-98373165D01*
X101832711Y-98582353D01*
X101455176Y-99519650D01*
X90760000Y-99519650D01*
X90760000Y-98193560D01*
X102373165Y-98193560D01*
X104000000Y-99820395D01*
X105626835Y-98193560D01*
X105417647Y-97832711D01*
X104480350Y-97455176D01*
X103469923Y-97465067D01*
X102582353Y-97832711D01*
X102373165Y-98193560D01*
X90760000Y-98193560D01*
X90760000Y-77000000D01*
X90702148Y-76709161D01*
X90537401Y-76462599D01*
X83935122Y-69860320D01*
X83935162Y-69814833D01*
X83793117Y-69471057D01*
X83530327Y-69207808D01*
X83186799Y-69065162D01*
X82814833Y-69064838D01*
X82471057Y-69206883D01*
X82376288Y-69301486D01*
X80435122Y-67360320D01*
X80435162Y-67314833D01*
X80293117Y-66971057D01*
X80030327Y-66707808D01*
X79686799Y-66565162D01*
X79314833Y-66564838D01*
X78971057Y-66706883D01*
X78707808Y-66969673D01*
X78565162Y-67313201D01*
X78564838Y-67685167D01*
X78706883Y-68028943D01*
X78969673Y-68292192D01*
X79313201Y-68434838D01*
X79360077Y-68434879D01*
X88240000Y-77314802D01*
X88240000Y-136437537D01*
X88207808Y-136469673D01*
X88065162Y-136813201D01*
X88064838Y-137185167D01*
X88206883Y-137528943D01*
X88414977Y-137737401D01*
X84687598Y-141464780D01*
X84522851Y-141711342D01*
X84464999Y-142002181D01*
X84464999Y-144123477D01*
X84428285Y-144098946D01*
X83860000Y-143985907D01*
X83291715Y-144098946D01*
X82809946Y-144420853D01*
X82590000Y-144750026D01*
X82370054Y-144420853D01*
X81888285Y-144098946D01*
X81320000Y-143985907D01*
X80751715Y-144098946D01*
X80269946Y-144420853D01*
X79948039Y-144902622D01*
X79835000Y-145470907D01*
X79835000Y-145529093D01*
X79948039Y-146097378D01*
X80269946Y-146579147D01*
X80271179Y-146579971D01*
X80234683Y-146586838D01*
X80018559Y-146725910D01*
X79873569Y-146938110D01*
X79822560Y-147190000D01*
X79822560Y-148890000D01*
X79866838Y-149125317D01*
X79972809Y-149290000D01*
X66710000Y-149290000D01*
X66710000Y-145000510D01*
X68813070Y-145000510D01*
X68813070Y-146999490D01*
X68857348Y-147234807D01*
X68996420Y-147450931D01*
X69208620Y-147595921D01*
X69460510Y-147646930D01*
X71459490Y-147646930D01*
X71694807Y-147602652D01*
X71910931Y-147463580D01*
X72021094Y-147302351D01*
X72040274Y-147323068D01*
X72619645Y-147589627D01*
X72873000Y-147470807D01*
X72873000Y-146127000D01*
X72853000Y-146127000D01*
X72853000Y-145873000D01*
X72873000Y-145873000D01*
X72873000Y-144529193D01*
X73127000Y-144529193D01*
X73127000Y-145873000D01*
X73147000Y-145873000D01*
X73147000Y-146127000D01*
X73127000Y-146127000D01*
X73127000Y-147470807D01*
X73380355Y-147589627D01*
X73959726Y-147323068D01*
X74252621Y-147006700D01*
X74352219Y-147155759D01*
X74882486Y-147510072D01*
X75507978Y-147634490D01*
X75572022Y-147634490D01*
X76197514Y-147510072D01*
X76727781Y-147155759D01*
X77082094Y-146625492D01*
X77206512Y-146000000D01*
X77137670Y-145653909D01*
X77165276Y-145626303D01*
X77165279Y-145626301D01*
X78375788Y-144415791D01*
X78375791Y-144415789D01*
X78567634Y-144128674D01*
X78635001Y-143789999D01*
X78635001Y-129070006D01*
X78635002Y-129070001D01*
X78567634Y-128731327D01*
X78567634Y-128731326D01*
X78375791Y-128444211D01*
X78375788Y-128444209D01*
X77934876Y-128003297D01*
X77935242Y-127583735D01*
X77723313Y-127070828D01*
X77331236Y-126678066D01*
X76978336Y-126531529D01*
X77269941Y-126410742D01*
X77339159Y-126168764D01*
X76540000Y-125369605D01*
X75740841Y-126168764D01*
X75810059Y-126410742D01*
X76123734Y-126522605D01*
X75750828Y-126676687D01*
X75358066Y-127068764D01*
X75145242Y-127581300D01*
X75144758Y-128136265D01*
X75356687Y-128649172D01*
X75748764Y-129041934D01*
X76231924Y-129242560D01*
X75780000Y-129242560D01*
X75544683Y-129286838D01*
X75403174Y-129377896D01*
X75379341Y-128902951D01*
X75220742Y-128520059D01*
X74978764Y-128450841D01*
X74179605Y-129250000D01*
X74978764Y-130049159D01*
X75132560Y-130005166D01*
X75132560Y-131410000D01*
X75176838Y-131645317D01*
X75315910Y-131861441D01*
X75528110Y-132006431D01*
X75780000Y-132057440D01*
X76865001Y-132057440D01*
X76865001Y-143423420D01*
X75913699Y-144374721D01*
X75913697Y-144374724D01*
X75864695Y-144423726D01*
X75572022Y-144365510D01*
X75507978Y-144365510D01*
X74882486Y-144489928D01*
X74352219Y-144844241D01*
X74252621Y-144993300D01*
X73959726Y-144676932D01*
X73380355Y-144410373D01*
X73127000Y-144529193D01*
X72873000Y-144529193D01*
X72619645Y-144410373D01*
X72040274Y-144676932D01*
X72019970Y-144698863D01*
X71923580Y-144549069D01*
X71711380Y-144404079D01*
X71459490Y-144353070D01*
X71345000Y-144353070D01*
X71345000Y-138263021D01*
X71459560Y-138263021D01*
X71845437Y-139196915D01*
X72559327Y-139912052D01*
X73492546Y-140299559D01*
X74503021Y-140300440D01*
X75436915Y-139914563D01*
X76152052Y-139200673D01*
X76539559Y-138267454D01*
X76540440Y-137256979D01*
X76154563Y-136323085D01*
X75440673Y-135607948D01*
X74507454Y-135220441D01*
X73496979Y-135219560D01*
X72563085Y-135605437D01*
X71847948Y-136319327D01*
X71460441Y-137252546D01*
X71459560Y-138263021D01*
X71345000Y-138263021D01*
X71345000Y-130366580D01*
X71482815Y-130228764D01*
X73200841Y-130228764D01*
X73270059Y-130470742D01*
X73792780Y-130657155D01*
X74347049Y-130629341D01*
X74729941Y-130470742D01*
X74799159Y-130228764D01*
X74000000Y-129429605D01*
X73200841Y-130228764D01*
X71482815Y-130228764D01*
X72596474Y-129115105D01*
X72620659Y-129597049D01*
X72779258Y-129979941D01*
X73021236Y-130049159D01*
X73820395Y-129250000D01*
X73806253Y-129235858D01*
X73985858Y-129056253D01*
X74000000Y-129070395D01*
X74799159Y-128271236D01*
X74729941Y-128029258D01*
X74241898Y-127855212D01*
X74276265Y-127855242D01*
X74789172Y-127643313D01*
X75181934Y-127251236D01*
X75394758Y-126738700D01*
X75395242Y-126183735D01*
X75183313Y-125670828D01*
X74791236Y-125278066D01*
X74422338Y-125124886D01*
X74766260Y-124982780D01*
X75132845Y-124982780D01*
X75160659Y-125537049D01*
X75319258Y-125919941D01*
X75561236Y-125989159D01*
X76360395Y-125190000D01*
X76719605Y-125190000D01*
X77518764Y-125989159D01*
X77760742Y-125919941D01*
X77947155Y-125397220D01*
X77919341Y-124842951D01*
X77760742Y-124460059D01*
X77518764Y-124390841D01*
X76719605Y-125190000D01*
X76360395Y-125190000D01*
X75561236Y-124390841D01*
X75319258Y-124460059D01*
X75132845Y-124982780D01*
X74766260Y-124982780D01*
X74789172Y-124973313D01*
X75181934Y-124581236D01*
X75394758Y-124068700D01*
X75395242Y-123513735D01*
X75183313Y-123000828D01*
X74791236Y-122608066D01*
X74278700Y-122395242D01*
X74276270Y-122395240D01*
X74789172Y-122183313D01*
X75181934Y-121791236D01*
X75394758Y-121278700D01*
X75395242Y-120723735D01*
X75183313Y-120210828D01*
X74849334Y-119876265D01*
X75144758Y-119876265D01*
X75356687Y-120389172D01*
X75748764Y-120781934D01*
X76261300Y-120994758D01*
X76263730Y-120994760D01*
X75750828Y-121206687D01*
X75358066Y-121598764D01*
X75145242Y-122111300D01*
X75144758Y-122666265D01*
X75356687Y-123179172D01*
X75748764Y-123571934D01*
X76261300Y-123784758D01*
X76701449Y-123785142D01*
X76192951Y-123810659D01*
X75810059Y-123969258D01*
X75740841Y-124211236D01*
X76540000Y-125010395D01*
X77339159Y-124211236D01*
X77269941Y-123969258D01*
X76753789Y-123785188D01*
X76816265Y-123785242D01*
X77329172Y-123573313D01*
X77721934Y-123181236D01*
X77934758Y-122668700D01*
X77935242Y-122113735D01*
X77723313Y-121600828D01*
X77331236Y-121208066D01*
X76818700Y-120995242D01*
X76816270Y-120995240D01*
X77329172Y-120783313D01*
X77721934Y-120391236D01*
X77934758Y-119878700D01*
X77935242Y-119323735D01*
X77723313Y-118810828D01*
X77331236Y-118418066D01*
X76818700Y-118205242D01*
X76263735Y-118204758D01*
X75750828Y-118416687D01*
X75358066Y-118808764D01*
X75145242Y-119321300D01*
X75144758Y-119876265D01*
X74849334Y-119876265D01*
X74791236Y-119818066D01*
X74278700Y-119605242D01*
X73723735Y-119604758D01*
X73210828Y-119816687D01*
X72818066Y-120208764D01*
X72605242Y-120721300D01*
X72604758Y-121276265D01*
X72816687Y-121789172D01*
X73208764Y-122181934D01*
X73721300Y-122394758D01*
X73723730Y-122394760D01*
X73210828Y-122606687D01*
X72818066Y-122998764D01*
X72605242Y-123511300D01*
X72604758Y-124066265D01*
X72816687Y-124579172D01*
X73208764Y-124971934D01*
X73577662Y-125125114D01*
X73210828Y-125276687D01*
X72818066Y-125668764D01*
X72605242Y-126181300D01*
X72604874Y-126603547D01*
X69834210Y-129374210D01*
X69642367Y-129661325D01*
X69642367Y-129661326D01*
X69574999Y-130000000D01*
X69575000Y-130000005D01*
X69575000Y-144353070D01*
X69460510Y-144353070D01*
X69225193Y-144397348D01*
X69009069Y-144536420D01*
X68864079Y-144748620D01*
X68813070Y-145000510D01*
X66710000Y-145000510D01*
X66710000Y-144000000D01*
X66655954Y-143728295D01*
X66502046Y-143497954D01*
X66271705Y-143344046D01*
X66000000Y-143290000D01*
X60710000Y-143290000D01*
X60710000Y-112863021D01*
X71459560Y-112863021D01*
X71845437Y-113796915D01*
X72559327Y-114512052D01*
X73492546Y-114899559D01*
X74503021Y-114900440D01*
X75436915Y-114514563D01*
X76152052Y-113800673D01*
X76539559Y-112867454D01*
X76540440Y-111856979D01*
X76154563Y-110923085D01*
X75440673Y-110207948D01*
X74507454Y-109820441D01*
X73496979Y-109819560D01*
X72563085Y-110205437D01*
X71847948Y-110919327D01*
X71460441Y-111852546D01*
X71459560Y-112863021D01*
X60710000Y-112863021D01*
X60710000Y-102079570D01*
X63037424Y-102079570D01*
X63207255Y-102489604D01*
X63597542Y-102917863D01*
X64122008Y-103164166D01*
X64351900Y-103043499D01*
X64351900Y-101849680D01*
X63158745Y-101849680D01*
X63037424Y-102079570D01*
X60710000Y-102079570D01*
X60710000Y-73782680D01*
X62964807Y-73782680D01*
X63077846Y-74350965D01*
X63399753Y-74832734D01*
X63728926Y-75052680D01*
X63399753Y-75272626D01*
X63077846Y-75754395D01*
X62964807Y-76322680D01*
X63077846Y-76890965D01*
X63399753Y-77372734D01*
X63728926Y-77592680D01*
X63399753Y-77812626D01*
X63077846Y-78294395D01*
X62964807Y-78862680D01*
X63077846Y-79430965D01*
X63399753Y-79912734D01*
X63740453Y-80140382D01*
X63597542Y-80207497D01*
X63207255Y-80635756D01*
X63037424Y-81045790D01*
X63158745Y-81275680D01*
X64351900Y-81275680D01*
X64351900Y-81255680D01*
X64605900Y-81255680D01*
X64605900Y-81275680D01*
X64625900Y-81275680D01*
X64625900Y-81529680D01*
X64605900Y-81529680D01*
X64605900Y-81549680D01*
X64351900Y-81549680D01*
X64351900Y-81529680D01*
X63158745Y-81529680D01*
X63037424Y-81759570D01*
X63207255Y-82169604D01*
X63597542Y-82597863D01*
X63740453Y-82664978D01*
X63399753Y-82892626D01*
X63077846Y-83374395D01*
X62964807Y-83942680D01*
X63077846Y-84510965D01*
X63399753Y-84992734D01*
X63728926Y-85212680D01*
X63399753Y-85432626D01*
X63077846Y-85914395D01*
X62964807Y-86482680D01*
X63077846Y-87050965D01*
X63399753Y-87532734D01*
X63728926Y-87752680D01*
X63399753Y-87972626D01*
X63077846Y-88454395D01*
X62964807Y-89022680D01*
X63077846Y-89590965D01*
X63399753Y-90072734D01*
X63728926Y-90292680D01*
X63399753Y-90512626D01*
X63077846Y-90994395D01*
X62964807Y-91562680D01*
X63077846Y-92130965D01*
X63399753Y-92612734D01*
X63728926Y-92832680D01*
X63399753Y-93052626D01*
X63077846Y-93534395D01*
X62964807Y-94102680D01*
X63077846Y-94670965D01*
X63399753Y-95152734D01*
X63728926Y-95372680D01*
X63399753Y-95592626D01*
X63077846Y-96074395D01*
X62964807Y-96642680D01*
X63077846Y-97210965D01*
X63399753Y-97692734D01*
X63728926Y-97912680D01*
X63399753Y-98132626D01*
X63077846Y-98614395D01*
X62964807Y-99182680D01*
X63077846Y-99750965D01*
X63399753Y-100232734D01*
X63740453Y-100460382D01*
X63597542Y-100527497D01*
X63207255Y-100955756D01*
X63037424Y-101365790D01*
X63158745Y-101595680D01*
X64351900Y-101595680D01*
X64351900Y-101575680D01*
X64605900Y-101575680D01*
X64605900Y-101595680D01*
X64625900Y-101595680D01*
X64625900Y-101849680D01*
X64605900Y-101849680D01*
X64605900Y-103043499D01*
X64835792Y-103164166D01*
X65360258Y-102917863D01*
X65750545Y-102489604D01*
X65750555Y-102489579D01*
X65939753Y-102772734D01*
X66421522Y-103094641D01*
X66989807Y-103207680D01*
X67047993Y-103207680D01*
X67616278Y-103094641D01*
X68098047Y-102772734D01*
X68419954Y-102290965D01*
X68532993Y-101722680D01*
X68460110Y-101356272D01*
X69031383Y-100784999D01*
X70751762Y-100784999D01*
X70675000Y-101170907D01*
X70675000Y-101229093D01*
X70788039Y-101797378D01*
X71109946Y-102279147D01*
X71591715Y-102601054D01*
X72160000Y-102714093D01*
X72728285Y-102601054D01*
X73210054Y-102279147D01*
X73430000Y-101949974D01*
X73649946Y-102279147D01*
X74131715Y-102601054D01*
X74700000Y-102714093D01*
X75268285Y-102601054D01*
X75750054Y-102279147D01*
X76071961Y-101797378D01*
X76185000Y-101229093D01*
X76185000Y-101170907D01*
X76071961Y-100602622D01*
X75750054Y-100120853D01*
X75748821Y-100120029D01*
X75785317Y-100113162D01*
X76001441Y-99974090D01*
X76146431Y-99761890D01*
X76197440Y-99510000D01*
X76197440Y-97810000D01*
X76153162Y-97574683D01*
X76014090Y-97358559D01*
X75801890Y-97213569D01*
X75550000Y-97162560D01*
X74095001Y-97162560D01*
X74095001Y-93979801D01*
X79502402Y-88572400D01*
X79667149Y-88325839D01*
X79725001Y-88034999D01*
X79725001Y-81425001D01*
X79667149Y-81134162D01*
X79667149Y-81134161D01*
X79502402Y-80887600D01*
X79231210Y-80616408D01*
X79304093Y-80250000D01*
X79191054Y-79681715D01*
X78869147Y-79199946D01*
X78539974Y-78980000D01*
X78869147Y-78760054D01*
X79191054Y-78278285D01*
X79304093Y-77710000D01*
X79191054Y-77141715D01*
X78869147Y-76659946D01*
X78387378Y-76338039D01*
X77819093Y-76225000D01*
X77760907Y-76225000D01*
X77192622Y-76338039D01*
X76710853Y-76659946D01*
X76710029Y-76661179D01*
X76703162Y-76624683D01*
X76564090Y-76408559D01*
X76351890Y-76263569D01*
X76100000Y-76212560D01*
X74400000Y-76212560D01*
X74164683Y-76256838D01*
X73948559Y-76395910D01*
X73803569Y-76608110D01*
X73752560Y-76860000D01*
X73752560Y-77079080D01*
X73612599Y-77172599D01*
X67974874Y-82810324D01*
X67768874Y-82672680D01*
X68098047Y-82452734D01*
X68419954Y-81970965D01*
X68532993Y-81402680D01*
X68419954Y-80834395D01*
X68098047Y-80352626D01*
X67768874Y-80132680D01*
X68098047Y-79912734D01*
X68419954Y-79430965D01*
X68532993Y-78862680D01*
X68419954Y-78294395D01*
X68098047Y-77812626D01*
X67757347Y-77584978D01*
X67900258Y-77517863D01*
X68290545Y-77089604D01*
X68460376Y-76679570D01*
X68443130Y-76646890D01*
X69558524Y-76646890D01*
X69728355Y-77056924D01*
X70118642Y-77485183D01*
X70643108Y-77731486D01*
X70873000Y-77610819D01*
X70873000Y-76417000D01*
X71127000Y-76417000D01*
X71127000Y-77610819D01*
X71356892Y-77731486D01*
X71881358Y-77485183D01*
X72271645Y-77056924D01*
X72441476Y-76646890D01*
X72320155Y-76417000D01*
X71127000Y-76417000D01*
X70873000Y-76417000D01*
X69679845Y-76417000D01*
X69558524Y-76646890D01*
X68443130Y-76646890D01*
X68339055Y-76449680D01*
X67145900Y-76449680D01*
X67145900Y-76469680D01*
X66891900Y-76469680D01*
X66891900Y-76449680D01*
X66871900Y-76449680D01*
X66871900Y-76195680D01*
X66891900Y-76195680D01*
X66891900Y-76175680D01*
X67145900Y-76175680D01*
X67145900Y-76195680D01*
X68339055Y-76195680D01*
X68460376Y-75965790D01*
X68357612Y-75717681D01*
X69647752Y-75717681D01*
X69558524Y-75933110D01*
X69679845Y-76163000D01*
X70873000Y-76163000D01*
X70873000Y-76143000D01*
X71127000Y-76143000D01*
X71127000Y-76163000D01*
X72320155Y-76163000D01*
X72441476Y-75933110D01*
X72271645Y-75523076D01*
X71881358Y-75094817D01*
X71738447Y-75027702D01*
X72079147Y-74800054D01*
X72401054Y-74318285D01*
X72514093Y-73750000D01*
X72401054Y-73181715D01*
X72079147Y-72699946D01*
X72037548Y-72672150D01*
X72085317Y-72663162D01*
X72301441Y-72524090D01*
X72446431Y-72311890D01*
X72497440Y-72060000D01*
X72497440Y-70360000D01*
X72453162Y-70124683D01*
X72314090Y-69908559D01*
X72101890Y-69763569D01*
X71850000Y-69712560D01*
X70150000Y-69712560D01*
X69914683Y-69756838D01*
X69698559Y-69895910D01*
X69553569Y-70108110D01*
X69502560Y-70360000D01*
X69502560Y-70579080D01*
X69362599Y-70672599D01*
X68468552Y-71566646D01*
X68532993Y-71242680D01*
X68419954Y-70674395D01*
X68098047Y-70192626D01*
X67616278Y-69870719D01*
X67047993Y-69757680D01*
X66989807Y-69757680D01*
X66421522Y-69870719D01*
X65939753Y-70192626D01*
X65938929Y-70193859D01*
X65932062Y-70157363D01*
X65792990Y-69941239D01*
X65580790Y-69796249D01*
X65328900Y-69745240D01*
X63628900Y-69745240D01*
X63393583Y-69789518D01*
X63177459Y-69928590D01*
X63032469Y-70140790D01*
X62981460Y-70392680D01*
X62981460Y-72092680D01*
X63025738Y-72327997D01*
X63164810Y-72544121D01*
X63377010Y-72689111D01*
X63444441Y-72702766D01*
X63399753Y-72732626D01*
X63077846Y-73214395D01*
X62964807Y-73782680D01*
X60710000Y-73782680D01*
X60710000Y-66710000D01*
X66000000Y-66710000D01*
X66271705Y-66655954D01*
X66502046Y-66502046D01*
X66655954Y-66271705D01*
X66710000Y-66000000D01*
X66710000Y-64814285D01*
X68724760Y-64814285D01*
X68935169Y-65323515D01*
X69324436Y-65713461D01*
X69833298Y-65924759D01*
X70384285Y-65925240D01*
X70893515Y-65714831D01*
X71283461Y-65325564D01*
X71379976Y-65093130D01*
X71475169Y-65323515D01*
X71864436Y-65713461D01*
X72373298Y-65924759D01*
X72924285Y-65925240D01*
X73433515Y-65714831D01*
X73823461Y-65325564D01*
X73913377Y-65109021D01*
X73977540Y-65263923D01*
X74218483Y-65331912D01*
X75010395Y-64540000D01*
X74218483Y-63748088D01*
X73977540Y-63816077D01*
X73918268Y-63982621D01*
X73824831Y-63756485D01*
X73435564Y-63366539D01*
X72926702Y-63155241D01*
X72375715Y-63154760D01*
X71866485Y-63365169D01*
X71476539Y-63754436D01*
X71380024Y-63986870D01*
X71284831Y-63756485D01*
X70895564Y-63366539D01*
X70386702Y-63155241D01*
X69835715Y-63154760D01*
X69326485Y-63365169D01*
X68936539Y-63754436D01*
X68725241Y-64263298D01*
X68724760Y-64814285D01*
X66710000Y-64814285D01*
X66710000Y-62274285D01*
X69994760Y-62274285D01*
X70205169Y-62783515D01*
X70594436Y-63173461D01*
X71103298Y-63384759D01*
X71654285Y-63385240D01*
X72163515Y-63174831D01*
X72367183Y-62971517D01*
X73128088Y-62971517D01*
X73196077Y-63212460D01*
X73715171Y-63397201D01*
X74265448Y-63369230D01*
X74643923Y-63212460D01*
X74711912Y-62971517D01*
X73920000Y-62179605D01*
X73128088Y-62971517D01*
X72367183Y-62971517D01*
X72553461Y-62785564D01*
X72643377Y-62569021D01*
X72707540Y-62723923D01*
X72948483Y-62791912D01*
X73740395Y-62000000D01*
X74099605Y-62000000D01*
X74891517Y-62791912D01*
X75132460Y-62723923D01*
X75191732Y-62557379D01*
X75285169Y-62783515D01*
X75674436Y-63173461D01*
X75700000Y-63184076D01*
X75700000Y-63251407D01*
X75394829Y-63142799D01*
X74844552Y-63170770D01*
X74466077Y-63327540D01*
X74398088Y-63568483D01*
X75190000Y-64360395D01*
X75204143Y-64346253D01*
X75383748Y-64525858D01*
X75369605Y-64540000D01*
X75383748Y-64554143D01*
X75204143Y-64733748D01*
X75190000Y-64719605D01*
X74398088Y-65511517D01*
X74466077Y-65752460D01*
X74985171Y-65937201D01*
X75535448Y-65909230D01*
X75700000Y-65841070D01*
X75700000Y-67488477D01*
X75565162Y-67813201D01*
X75564838Y-68185167D01*
X75706883Y-68528943D01*
X75969673Y-68792192D01*
X76313201Y-68934838D01*
X76685167Y-68935162D01*
X77028943Y-68793117D01*
X77292192Y-68530327D01*
X77434838Y-68186799D01*
X77435162Y-67814833D01*
X77293117Y-67471057D01*
X77220000Y-67397812D01*
X77220000Y-65827885D01*
X77453298Y-65924759D01*
X78004285Y-65925240D01*
X78513515Y-65714831D01*
X78903461Y-65325564D01*
X79114759Y-64816702D01*
X79115240Y-64265715D01*
X78904831Y-63756485D01*
X78546411Y-63397440D01*
X79750000Y-63397440D01*
X79985317Y-63353162D01*
X80201441Y-63214090D01*
X80346431Y-63001890D01*
X80397440Y-62750000D01*
X80397440Y-61250000D01*
X80353162Y-61014683D01*
X80214090Y-60798559D01*
X80001890Y-60653569D01*
X79750000Y-60602560D01*
X78250000Y-60602560D01*
X78014683Y-60646838D01*
X77798559Y-60785910D01*
X77653569Y-60998110D01*
X77613645Y-61195262D01*
X77245564Y-60826539D01*
X76736702Y-60615241D01*
X76185715Y-60614760D01*
X75676485Y-60825169D01*
X75286539Y-61214436D01*
X75196623Y-61430979D01*
X75132460Y-61276077D01*
X74891517Y-61208088D01*
X74099605Y-62000000D01*
X73740395Y-62000000D01*
X72948483Y-61208088D01*
X72707540Y-61276077D01*
X72648268Y-61442621D01*
X72554831Y-61216485D01*
X72367157Y-61028483D01*
X73128088Y-61028483D01*
X73920000Y-61820395D01*
X74711912Y-61028483D01*
X74643923Y-60787540D01*
X74124829Y-60602799D01*
X73574552Y-60630770D01*
X73196077Y-60787540D01*
X73128088Y-61028483D01*
X72367157Y-61028483D01*
X72165564Y-60826539D01*
X71656702Y-60615241D01*
X71105715Y-60614760D01*
X70596485Y-60825169D01*
X70206539Y-61214436D01*
X69995241Y-61723298D01*
X69994760Y-62274285D01*
X66710000Y-62274285D01*
X66710000Y-60000000D01*
X66655954Y-59728295D01*
X66502046Y-59497954D01*
X66271705Y-59344046D01*
X66000000Y-59290000D01*
X60710000Y-59290000D01*
X60710000Y-56137177D01*
X66159574Y-56137177D01*
X66533298Y-57041657D01*
X67224703Y-57734270D01*
X68128529Y-58109572D01*
X69107177Y-58110426D01*
X70011657Y-57736702D01*
X70704270Y-57045297D01*
X71079572Y-56141471D01*
X71079575Y-56137177D01*
X78029574Y-56137177D01*
X78403298Y-57041657D01*
X79094703Y-57734270D01*
X79998529Y-58109572D01*
X80977177Y-58110426D01*
X81881657Y-57736702D01*
X82574270Y-57045297D01*
X82949572Y-56141471D01*
X82950426Y-55162823D01*
X82576702Y-54258343D01*
X81885297Y-53565730D01*
X80981471Y-53190428D01*
X80002823Y-53189574D01*
X79098343Y-53563298D01*
X78405730Y-54254703D01*
X78030428Y-55158529D01*
X78029574Y-56137177D01*
X71079575Y-56137177D01*
X71080426Y-55162823D01*
X70706702Y-54258343D01*
X70015297Y-53565730D01*
X69111471Y-53190428D01*
X68132823Y-53189574D01*
X67228343Y-53563298D01*
X66535730Y-54254703D01*
X66160428Y-55158529D01*
X66159574Y-56137177D01*
X60710000Y-56137177D01*
X60710000Y-50710000D01*
X87290000Y-50710000D01*
X87290000Y-70000000D01*
X87290000Y-70000000D01*
G37*
X87290000Y-70000000D02*
X87344046Y-70271705D01*
X87497954Y-70502046D01*
X87728295Y-70655954D01*
X88000000Y-70710000D01*
X97000000Y-70710000D01*
X97271705Y-70655954D01*
X97502046Y-70502046D01*
X97655954Y-70271705D01*
X97710000Y-70000000D01*
X97710000Y-57471867D01*
X97831866Y-57471867D01*
X97831866Y-66528134D01*
X97880583Y-66773051D01*
X98019318Y-66980682D01*
X98226949Y-67119417D01*
X98471866Y-67168134D01*
X107528133Y-67168134D01*
X107773050Y-67119417D01*
X107980681Y-66980682D01*
X108119416Y-66773051D01*
X108168133Y-66528134D01*
X108168133Y-57471867D01*
X108119416Y-57226950D01*
X107980681Y-57019319D01*
X107773050Y-56880584D01*
X107528133Y-56831867D01*
X98471866Y-56831867D01*
X98226949Y-56880584D01*
X98019318Y-57019319D01*
X97880583Y-57226950D01*
X97831866Y-57471867D01*
X97710000Y-57471867D01*
X97710000Y-50710000D01*
X109290000Y-50710000D01*
X109290000Y-134873000D01*
X97000000Y-134873000D01*
X96952211Y-134882334D01*
X96910197Y-134910197D01*
X95910197Y-135910197D01*
X95883006Y-135950590D01*
X95873000Y-136000000D01*
X95873000Y-144046675D01*
X95777690Y-143898559D01*
X95565490Y-143753569D01*
X95313600Y-143702560D01*
X93613600Y-143702560D01*
X93378283Y-143746838D01*
X93162159Y-143885910D01*
X93017169Y-144098110D01*
X93005759Y-144154454D01*
X93002747Y-144149946D01*
X92520978Y-143828039D01*
X91952693Y-143715000D01*
X91894507Y-143715000D01*
X91326222Y-143828039D01*
X90844453Y-144149946D01*
X90522546Y-144631715D01*
X90409507Y-145200000D01*
X90522546Y-145768285D01*
X90844453Y-146250054D01*
X91326222Y-146571961D01*
X91894507Y-146685000D01*
X91952693Y-146685000D01*
X92520978Y-146571961D01*
X93002747Y-146250054D01*
X93003571Y-146248821D01*
X93010438Y-146285317D01*
X93149510Y-146501441D01*
X93361710Y-146646431D01*
X93613600Y-146697440D01*
X95313600Y-146697440D01*
X95548917Y-146653162D01*
X95765041Y-146514090D01*
X95873000Y-146356087D01*
X95873000Y-149290000D01*
X89730675Y-149290000D01*
X90135183Y-148921358D01*
X90381486Y-148396892D01*
X90260819Y-148167000D01*
X89067000Y-148167000D01*
X89067000Y-148187000D01*
X88813000Y-148187000D01*
X88813000Y-148167000D01*
X88793000Y-148167000D01*
X88793000Y-147913000D01*
X88813000Y-147913000D01*
X88813000Y-145627000D01*
X89067000Y-145627000D01*
X89067000Y-147913000D01*
X90260819Y-147913000D01*
X90381486Y-147683108D01*
X90135183Y-147158642D01*
X89708729Y-146770000D01*
X90135183Y-146381358D01*
X90381486Y-145856892D01*
X90260819Y-145627000D01*
X89067000Y-145627000D01*
X88813000Y-145627000D01*
X88793000Y-145627000D01*
X88793000Y-145373000D01*
X88813000Y-145373000D01*
X88813000Y-144179845D01*
X89067000Y-144179845D01*
X89067000Y-145373000D01*
X90260819Y-145373000D01*
X90381486Y-145143108D01*
X90135183Y-144618642D01*
X89706924Y-144228355D01*
X89296890Y-144058524D01*
X89067000Y-144179845D01*
X88813000Y-144179845D01*
X88583110Y-144058524D01*
X88524999Y-144082593D01*
X88524999Y-140799803D01*
X97352915Y-131971887D01*
X98485000Y-131971887D01*
X98485000Y-132028113D01*
X98594233Y-132577264D01*
X98905302Y-133042811D01*
X99370849Y-133353880D01*
X99920000Y-133463113D01*
X100469151Y-133353880D01*
X100934698Y-133042811D01*
X101204986Y-132638297D01*
X101307611Y-132855134D01*
X101722577Y-133231041D01*
X102110961Y-133391904D01*
X102333000Y-133269915D01*
X102333000Y-132127000D01*
X102587000Y-132127000D01*
X102587000Y-133269915D01*
X102809039Y-133391904D01*
X103197423Y-133231041D01*
X103612389Y-132855134D01*
X103730000Y-132606633D01*
X103847611Y-132855134D01*
X104262577Y-133231041D01*
X104650961Y-133391904D01*
X104873000Y-133269915D01*
X104873000Y-132127000D01*
X102587000Y-132127000D01*
X102333000Y-132127000D01*
X102313000Y-132127000D01*
X102313000Y-131873000D01*
X102333000Y-131873000D01*
X102333000Y-130730085D01*
X102587000Y-130730085D01*
X102587000Y-131873000D01*
X104873000Y-131873000D01*
X104873000Y-130730085D01*
X105127000Y-130730085D01*
X105127000Y-131873000D01*
X105147000Y-131873000D01*
X105147000Y-132127000D01*
X105127000Y-132127000D01*
X105127000Y-133269915D01*
X105349039Y-133391904D01*
X105737423Y-133231041D01*
X106110136Y-132893410D01*
X106136838Y-133035317D01*
X106275910Y-133251441D01*
X106488110Y-133396431D01*
X106740000Y-133447440D01*
X108340000Y-133447440D01*
X108575317Y-133403162D01*
X108791441Y-133264090D01*
X108936431Y-133051890D01*
X108987440Y-132800000D01*
X108987440Y-131200000D01*
X108943162Y-130964683D01*
X108804090Y-130748559D01*
X108591890Y-130603569D01*
X108340000Y-130552560D01*
X106740000Y-130552560D01*
X106504683Y-130596838D01*
X106288559Y-130735910D01*
X106143569Y-130948110D01*
X106111268Y-131107616D01*
X105737423Y-130768959D01*
X105349039Y-130608096D01*
X105127000Y-130730085D01*
X104873000Y-130730085D01*
X104650961Y-130608096D01*
X104262577Y-130768959D01*
X103847611Y-131144866D01*
X103730000Y-131393367D01*
X103612389Y-131144866D01*
X103197423Y-130768959D01*
X102809039Y-130608096D01*
X102587000Y-130730085D01*
X102333000Y-130730085D01*
X102110961Y-130608096D01*
X101722577Y-130768959D01*
X101307611Y-131144866D01*
X101204986Y-131361703D01*
X100934698Y-130957189D01*
X100469151Y-130646120D01*
X99920000Y-130536887D01*
X99370849Y-130646120D01*
X98905302Y-130957189D01*
X98594233Y-131422736D01*
X98485000Y-131971887D01*
X97352915Y-131971887D01*
X98639680Y-130685122D01*
X98685167Y-130685162D01*
X99028943Y-130543117D01*
X99292192Y-130280327D01*
X99434838Y-129936799D01*
X99435014Y-129734999D01*
X104060197Y-129734999D01*
X104064878Y-129739680D01*
X104064838Y-129785167D01*
X104206883Y-130128943D01*
X104469673Y-130392192D01*
X104813201Y-130534838D01*
X105185167Y-130535162D01*
X105528943Y-130393117D01*
X105792192Y-130130327D01*
X105934838Y-129786799D01*
X105935162Y-129414833D01*
X105793117Y-129071057D01*
X105530327Y-128807808D01*
X105186799Y-128665162D01*
X105139923Y-128665121D01*
X104912400Y-128437598D01*
X104665838Y-128272851D01*
X104374999Y-128214999D01*
X98252181Y-128214999D01*
X98009595Y-128263253D01*
X97961341Y-128272851D01*
X97714780Y-128437598D01*
X90760000Y-135392378D01*
X90760000Y-126826440D01*
X102373165Y-126826440D01*
X102582353Y-127187289D01*
X103519650Y-127564824D01*
X104530077Y-127554933D01*
X105417647Y-127187289D01*
X105626835Y-126826440D01*
X104000000Y-125199605D01*
X102373165Y-126826440D01*
X90760000Y-126826440D01*
X90760000Y-124539650D01*
X101455176Y-124539650D01*
X101465067Y-125550077D01*
X101832711Y-126437647D01*
X102193560Y-126646835D01*
X103820395Y-125020000D01*
X104179605Y-125020000D01*
X105806440Y-126646835D01*
X106167289Y-126437647D01*
X106544824Y-125500350D01*
X106534933Y-124489923D01*
X106167289Y-123602353D01*
X105806440Y-123393165D01*
X104179605Y-125020000D01*
X103820395Y-125020000D01*
X102193560Y-123393165D01*
X101832711Y-123602353D01*
X101455176Y-124539650D01*
X90760000Y-124539650D01*
X90760000Y-123213560D01*
X102373165Y-123213560D01*
X104000000Y-124840395D01*
X105626835Y-123213560D01*
X105417647Y-122852711D01*
X104480350Y-122475176D01*
X103469923Y-122485067D01*
X102582353Y-122852711D01*
X102373165Y-123213560D01*
X90760000Y-123213560D01*
X90760000Y-119008764D01*
X101800841Y-119008764D01*
X101870059Y-119250742D01*
X102392780Y-119437155D01*
X102947049Y-119409341D01*
X103329941Y-119250742D01*
X103399159Y-119008764D01*
X102600000Y-118209605D01*
X101800841Y-119008764D01*
X90760000Y-119008764D01*
X90760000Y-117822780D01*
X101192845Y-117822780D01*
X101220659Y-118377049D01*
X101379258Y-118759941D01*
X101621236Y-118829159D01*
X102420395Y-118030000D01*
X102779605Y-118030000D01*
X103578764Y-118829159D01*
X103820742Y-118759941D01*
X104007155Y-118237220D01*
X103979341Y-117682951D01*
X103820742Y-117300059D01*
X103578764Y-117230841D01*
X102779605Y-118030000D01*
X102420395Y-118030000D01*
X101621236Y-117230841D01*
X101379258Y-117300059D01*
X101192845Y-117822780D01*
X90760000Y-117822780D01*
X90760000Y-113185167D01*
X96064838Y-113185167D01*
X96206883Y-113528943D01*
X96469673Y-113792192D01*
X96813201Y-113934838D01*
X97185167Y-113935162D01*
X97528943Y-113793117D01*
X97792192Y-113530327D01*
X97875375Y-113330000D01*
X101404633Y-113330000D01*
X101416687Y-113359172D01*
X101808764Y-113751934D01*
X102177662Y-113905114D01*
X101810828Y-114056687D01*
X101418066Y-114448764D01*
X101205242Y-114961300D01*
X101204758Y-115516265D01*
X101416687Y-116029172D01*
X101808764Y-116421934D01*
X102321300Y-116634758D01*
X102565576Y-116634971D01*
X102252951Y-116650659D01*
X101870059Y-116809258D01*
X101800841Y-117051236D01*
X102600000Y-117850395D01*
X103399159Y-117051236D01*
X103360551Y-116916265D01*
X103994758Y-116916265D01*
X104206687Y-117429172D01*
X104598764Y-117821934D01*
X105111300Y-118034758D01*
X105666265Y-118035242D01*
X106179172Y-117823313D01*
X106571934Y-117431236D01*
X106784758Y-116918700D01*
X106785242Y-116363735D01*
X106573313Y-115850828D01*
X106181236Y-115458066D01*
X105668700Y-115245242D01*
X105113735Y-115244758D01*
X104600828Y-115456687D01*
X104208066Y-115848764D01*
X103995242Y-116361300D01*
X103994758Y-116916265D01*
X103360551Y-116916265D01*
X103329941Y-116809258D01*
X102841898Y-116635212D01*
X102876265Y-116635242D01*
X103389172Y-116423313D01*
X103781934Y-116031236D01*
X103994758Y-115518700D01*
X103995242Y-114963735D01*
X103783313Y-114450828D01*
X103391236Y-114058066D01*
X103022338Y-113904886D01*
X103389172Y-113753313D01*
X103781934Y-113361236D01*
X103994758Y-112848700D01*
X103995242Y-112293735D01*
X103783313Y-111780828D01*
X103391236Y-111388066D01*
X102878700Y-111175242D01*
X102876270Y-111175240D01*
X103389172Y-110963313D01*
X103781934Y-110571236D01*
X103994758Y-110058700D01*
X103995242Y-109503735D01*
X103783313Y-108990828D01*
X103449334Y-108656265D01*
X103994758Y-108656265D01*
X104206687Y-109169172D01*
X104598764Y-109561934D01*
X105111300Y-109774758D01*
X105113730Y-109774760D01*
X104600828Y-109986687D01*
X104208066Y-110378764D01*
X103995242Y-110891300D01*
X103994758Y-111446265D01*
X104206687Y-111959172D01*
X104598764Y-112351934D01*
X104967662Y-112505114D01*
X104600828Y-112656687D01*
X104208066Y-113048764D01*
X103995242Y-113561300D01*
X103994758Y-114116265D01*
X104206687Y-114629172D01*
X104598764Y-115021934D01*
X105111300Y-115234758D01*
X105666265Y-115235242D01*
X106179172Y-115023313D01*
X106571934Y-114631236D01*
X106784758Y-114118700D01*
X106785242Y-113563735D01*
X106573313Y-113050828D01*
X106181236Y-112658066D01*
X105812338Y-112504886D01*
X106179172Y-112353313D01*
X106571934Y-111961236D01*
X106784758Y-111448700D01*
X106785242Y-110893735D01*
X106573313Y-110380828D01*
X106181236Y-109988066D01*
X105668700Y-109775242D01*
X105666270Y-109775240D01*
X106179172Y-109563313D01*
X106571934Y-109171236D01*
X106784758Y-108658700D01*
X106785242Y-108103735D01*
X106573313Y-107590828D01*
X106181236Y-107198066D01*
X105668700Y-106985242D01*
X105113735Y-106984758D01*
X104600828Y-107196687D01*
X104208066Y-107588764D01*
X103995242Y-108101300D01*
X103994758Y-108656265D01*
X103449334Y-108656265D01*
X103391236Y-108598066D01*
X103197067Y-108517440D01*
X103360000Y-108517440D01*
X103595317Y-108473162D01*
X103811441Y-108334090D01*
X103956431Y-108121890D01*
X104007440Y-107870000D01*
X104007440Y-106350000D01*
X103963162Y-106114683D01*
X103824090Y-105898559D01*
X103611890Y-105753569D01*
X103360000Y-105702560D01*
X101840000Y-105702560D01*
X101604683Y-105746838D01*
X101388559Y-105885910D01*
X101243569Y-106098110D01*
X101192560Y-106350000D01*
X101192560Y-107870000D01*
X101236838Y-108105317D01*
X101375910Y-108321441D01*
X101588110Y-108466431D01*
X101840000Y-108517440D01*
X102002620Y-108517440D01*
X101810828Y-108596687D01*
X101418066Y-108988764D01*
X101205242Y-109501300D01*
X101204758Y-110056265D01*
X101416687Y-110569172D01*
X101808764Y-110961934D01*
X102321300Y-111174758D01*
X102323730Y-111174760D01*
X101810828Y-111386687D01*
X101418066Y-111778764D01*
X101405096Y-111810000D01*
X97430000Y-111810000D01*
X97139161Y-111867852D01*
X96892599Y-112032599D01*
X96860320Y-112064878D01*
X96814833Y-112064838D01*
X96471057Y-112206883D01*
X96207808Y-112469673D01*
X96065162Y-112813201D01*
X96064838Y-113185167D01*
X90760000Y-113185167D01*
X90760000Y-101806440D01*
X102373165Y-101806440D01*
X102582353Y-102167289D01*
X103519650Y-102544824D01*
X104530077Y-102534933D01*
X105417647Y-102167289D01*
X105626835Y-101806440D01*
X104000000Y-100179605D01*
X102373165Y-101806440D01*
X90760000Y-101806440D01*
X90760000Y-99519650D01*
X101455176Y-99519650D01*
X101465067Y-100530077D01*
X101832711Y-101417647D01*
X102193560Y-101626835D01*
X103820395Y-100000000D01*
X104179605Y-100000000D01*
X105806440Y-101626835D01*
X106167289Y-101417647D01*
X106544824Y-100480350D01*
X106534933Y-99469923D01*
X106167289Y-98582353D01*
X105806440Y-98373165D01*
X104179605Y-100000000D01*
X103820395Y-100000000D01*
X102193560Y-98373165D01*
X101832711Y-98582353D01*
X101455176Y-99519650D01*
X90760000Y-99519650D01*
X90760000Y-98193560D01*
X102373165Y-98193560D01*
X104000000Y-99820395D01*
X105626835Y-98193560D01*
X105417647Y-97832711D01*
X104480350Y-97455176D01*
X103469923Y-97465067D01*
X102582353Y-97832711D01*
X102373165Y-98193560D01*
X90760000Y-98193560D01*
X90760000Y-77000000D01*
X90702148Y-76709161D01*
X90537401Y-76462599D01*
X83935122Y-69860320D01*
X83935162Y-69814833D01*
X83793117Y-69471057D01*
X83530327Y-69207808D01*
X83186799Y-69065162D01*
X82814833Y-69064838D01*
X82471057Y-69206883D01*
X82376288Y-69301486D01*
X80435122Y-67360320D01*
X80435162Y-67314833D01*
X80293117Y-66971057D01*
X80030327Y-66707808D01*
X79686799Y-66565162D01*
X79314833Y-66564838D01*
X78971057Y-66706883D01*
X78707808Y-66969673D01*
X78565162Y-67313201D01*
X78564838Y-67685167D01*
X78706883Y-68028943D01*
X78969673Y-68292192D01*
X79313201Y-68434838D01*
X79360077Y-68434879D01*
X88240000Y-77314802D01*
X88240000Y-136437537D01*
X88207808Y-136469673D01*
X88065162Y-136813201D01*
X88064838Y-137185167D01*
X88206883Y-137528943D01*
X88414977Y-137737401D01*
X84687598Y-141464780D01*
X84522851Y-141711342D01*
X84464999Y-142002181D01*
X84464999Y-144123477D01*
X84428285Y-144098946D01*
X83860000Y-143985907D01*
X83291715Y-144098946D01*
X82809946Y-144420853D01*
X82590000Y-144750026D01*
X82370054Y-144420853D01*
X81888285Y-144098946D01*
X81320000Y-143985907D01*
X80751715Y-144098946D01*
X80269946Y-144420853D01*
X79948039Y-144902622D01*
X79835000Y-145470907D01*
X79835000Y-145529093D01*
X79948039Y-146097378D01*
X80269946Y-146579147D01*
X80271179Y-146579971D01*
X80234683Y-146586838D01*
X80018559Y-146725910D01*
X79873569Y-146938110D01*
X79822560Y-147190000D01*
X79822560Y-148890000D01*
X79866838Y-149125317D01*
X79972809Y-149290000D01*
X66710000Y-149290000D01*
X66710000Y-145000510D01*
X68813070Y-145000510D01*
X68813070Y-146999490D01*
X68857348Y-147234807D01*
X68996420Y-147450931D01*
X69208620Y-147595921D01*
X69460510Y-147646930D01*
X71459490Y-147646930D01*
X71694807Y-147602652D01*
X71910931Y-147463580D01*
X72021094Y-147302351D01*
X72040274Y-147323068D01*
X72619645Y-147589627D01*
X72873000Y-147470807D01*
X72873000Y-146127000D01*
X72853000Y-146127000D01*
X72853000Y-145873000D01*
X72873000Y-145873000D01*
X72873000Y-144529193D01*
X73127000Y-144529193D01*
X73127000Y-145873000D01*
X73147000Y-145873000D01*
X73147000Y-146127000D01*
X73127000Y-146127000D01*
X73127000Y-147470807D01*
X73380355Y-147589627D01*
X73959726Y-147323068D01*
X74252621Y-147006700D01*
X74352219Y-147155759D01*
X74882486Y-147510072D01*
X75507978Y-147634490D01*
X75572022Y-147634490D01*
X76197514Y-147510072D01*
X76727781Y-147155759D01*
X77082094Y-146625492D01*
X77206512Y-146000000D01*
X77137670Y-145653909D01*
X77165276Y-145626303D01*
X77165279Y-145626301D01*
X78375788Y-144415791D01*
X78375791Y-144415789D01*
X78567634Y-144128674D01*
X78635001Y-143789999D01*
X78635001Y-129070006D01*
X78635002Y-129070001D01*
X78567634Y-128731327D01*
X78567634Y-128731326D01*
X78375791Y-128444211D01*
X78375788Y-128444209D01*
X77934876Y-128003297D01*
X77935242Y-127583735D01*
X77723313Y-127070828D01*
X77331236Y-126678066D01*
X76978336Y-126531529D01*
X77269941Y-126410742D01*
X77339159Y-126168764D01*
X76540000Y-125369605D01*
X75740841Y-126168764D01*
X75810059Y-126410742D01*
X76123734Y-126522605D01*
X75750828Y-126676687D01*
X75358066Y-127068764D01*
X75145242Y-127581300D01*
X75144758Y-128136265D01*
X75356687Y-128649172D01*
X75748764Y-129041934D01*
X76231924Y-129242560D01*
X75780000Y-129242560D01*
X75544683Y-129286838D01*
X75403174Y-129377896D01*
X75379341Y-128902951D01*
X75220742Y-128520059D01*
X74978764Y-128450841D01*
X74179605Y-129250000D01*
X74978764Y-130049159D01*
X75132560Y-130005166D01*
X75132560Y-131410000D01*
X75176838Y-131645317D01*
X75315910Y-131861441D01*
X75528110Y-132006431D01*
X75780000Y-132057440D01*
X76865001Y-132057440D01*
X76865001Y-143423420D01*
X75913699Y-144374721D01*
X75913697Y-144374724D01*
X75864695Y-144423726D01*
X75572022Y-144365510D01*
X75507978Y-144365510D01*
X74882486Y-144489928D01*
X74352219Y-144844241D01*
X74252621Y-144993300D01*
X73959726Y-144676932D01*
X73380355Y-144410373D01*
X73127000Y-144529193D01*
X72873000Y-144529193D01*
X72619645Y-144410373D01*
X72040274Y-144676932D01*
X72019970Y-144698863D01*
X71923580Y-144549069D01*
X71711380Y-144404079D01*
X71459490Y-144353070D01*
X71345000Y-144353070D01*
X71345000Y-138263021D01*
X71459560Y-138263021D01*
X71845437Y-139196915D01*
X72559327Y-139912052D01*
X73492546Y-140299559D01*
X74503021Y-140300440D01*
X75436915Y-139914563D01*
X76152052Y-139200673D01*
X76539559Y-138267454D01*
X76540440Y-137256979D01*
X76154563Y-136323085D01*
X75440673Y-135607948D01*
X74507454Y-135220441D01*
X73496979Y-135219560D01*
X72563085Y-135605437D01*
X71847948Y-136319327D01*
X71460441Y-137252546D01*
X71459560Y-138263021D01*
X71345000Y-138263021D01*
X71345000Y-130366580D01*
X71482815Y-130228764D01*
X73200841Y-130228764D01*
X73270059Y-130470742D01*
X73792780Y-130657155D01*
X74347049Y-130629341D01*
X74729941Y-130470742D01*
X74799159Y-130228764D01*
X74000000Y-129429605D01*
X73200841Y-130228764D01*
X71482815Y-130228764D01*
X72596474Y-129115105D01*
X72620659Y-129597049D01*
X72779258Y-129979941D01*
X73021236Y-130049159D01*
X73820395Y-129250000D01*
X73806253Y-129235858D01*
X73985858Y-129056253D01*
X74000000Y-129070395D01*
X74799159Y-128271236D01*
X74729941Y-128029258D01*
X74241898Y-127855212D01*
X74276265Y-127855242D01*
X74789172Y-127643313D01*
X75181934Y-127251236D01*
X75394758Y-126738700D01*
X75395242Y-126183735D01*
X75183313Y-125670828D01*
X74791236Y-125278066D01*
X74422338Y-125124886D01*
X74766260Y-124982780D01*
X75132845Y-124982780D01*
X75160659Y-125537049D01*
X75319258Y-125919941D01*
X75561236Y-125989159D01*
X76360395Y-125190000D01*
X76719605Y-125190000D01*
X77518764Y-125989159D01*
X77760742Y-125919941D01*
X77947155Y-125397220D01*
X77919341Y-124842951D01*
X77760742Y-124460059D01*
X77518764Y-124390841D01*
X76719605Y-125190000D01*
X76360395Y-125190000D01*
X75561236Y-124390841D01*
X75319258Y-124460059D01*
X75132845Y-124982780D01*
X74766260Y-124982780D01*
X74789172Y-124973313D01*
X75181934Y-124581236D01*
X75394758Y-124068700D01*
X75395242Y-123513735D01*
X75183313Y-123000828D01*
X74791236Y-122608066D01*
X74278700Y-122395242D01*
X74276270Y-122395240D01*
X74789172Y-122183313D01*
X75181934Y-121791236D01*
X75394758Y-121278700D01*
X75395242Y-120723735D01*
X75183313Y-120210828D01*
X74849334Y-119876265D01*
X75144758Y-119876265D01*
X75356687Y-120389172D01*
X75748764Y-120781934D01*
X76261300Y-120994758D01*
X76263730Y-120994760D01*
X75750828Y-121206687D01*
X75358066Y-121598764D01*
X75145242Y-122111300D01*
X75144758Y-122666265D01*
X75356687Y-123179172D01*
X75748764Y-123571934D01*
X76261300Y-123784758D01*
X76701449Y-123785142D01*
X76192951Y-123810659D01*
X75810059Y-123969258D01*
X75740841Y-124211236D01*
X76540000Y-125010395D01*
X77339159Y-124211236D01*
X77269941Y-123969258D01*
X76753789Y-123785188D01*
X76816265Y-123785242D01*
X77329172Y-123573313D01*
X77721934Y-123181236D01*
X77934758Y-122668700D01*
X77935242Y-122113735D01*
X77723313Y-121600828D01*
X77331236Y-121208066D01*
X76818700Y-120995242D01*
X76816270Y-120995240D01*
X77329172Y-120783313D01*
X77721934Y-120391236D01*
X77934758Y-119878700D01*
X77935242Y-119323735D01*
X77723313Y-118810828D01*
X77331236Y-118418066D01*
X76818700Y-118205242D01*
X76263735Y-118204758D01*
X75750828Y-118416687D01*
X75358066Y-118808764D01*
X75145242Y-119321300D01*
X75144758Y-119876265D01*
X74849334Y-119876265D01*
X74791236Y-119818066D01*
X74278700Y-119605242D01*
X73723735Y-119604758D01*
X73210828Y-119816687D01*
X72818066Y-120208764D01*
X72605242Y-120721300D01*
X72604758Y-121276265D01*
X72816687Y-121789172D01*
X73208764Y-122181934D01*
X73721300Y-122394758D01*
X73723730Y-122394760D01*
X73210828Y-122606687D01*
X72818066Y-122998764D01*
X72605242Y-123511300D01*
X72604758Y-124066265D01*
X72816687Y-124579172D01*
X73208764Y-124971934D01*
X73577662Y-125125114D01*
X73210828Y-125276687D01*
X72818066Y-125668764D01*
X72605242Y-126181300D01*
X72604874Y-126603547D01*
X69834210Y-129374210D01*
X69642367Y-129661325D01*
X69642367Y-129661326D01*
X69574999Y-130000000D01*
X69575000Y-130000005D01*
X69575000Y-144353070D01*
X69460510Y-144353070D01*
X69225193Y-144397348D01*
X69009069Y-144536420D01*
X68864079Y-144748620D01*
X68813070Y-145000510D01*
X66710000Y-145000510D01*
X66710000Y-144000000D01*
X66655954Y-143728295D01*
X66502046Y-143497954D01*
X66271705Y-143344046D01*
X66000000Y-143290000D01*
X60710000Y-143290000D01*
X60710000Y-112863021D01*
X71459560Y-112863021D01*
X71845437Y-113796915D01*
X72559327Y-114512052D01*
X73492546Y-114899559D01*
X74503021Y-114900440D01*
X75436915Y-114514563D01*
X76152052Y-113800673D01*
X76539559Y-112867454D01*
X76540440Y-111856979D01*
X76154563Y-110923085D01*
X75440673Y-110207948D01*
X74507454Y-109820441D01*
X73496979Y-109819560D01*
X72563085Y-110205437D01*
X71847948Y-110919327D01*
X71460441Y-111852546D01*
X71459560Y-112863021D01*
X60710000Y-112863021D01*
X60710000Y-102079570D01*
X63037424Y-102079570D01*
X63207255Y-102489604D01*
X63597542Y-102917863D01*
X64122008Y-103164166D01*
X64351900Y-103043499D01*
X64351900Y-101849680D01*
X63158745Y-101849680D01*
X63037424Y-102079570D01*
X60710000Y-102079570D01*
X60710000Y-73782680D01*
X62964807Y-73782680D01*
X63077846Y-74350965D01*
X63399753Y-74832734D01*
X63728926Y-75052680D01*
X63399753Y-75272626D01*
X63077846Y-75754395D01*
X62964807Y-76322680D01*
X63077846Y-76890965D01*
X63399753Y-77372734D01*
X63728926Y-77592680D01*
X63399753Y-77812626D01*
X63077846Y-78294395D01*
X62964807Y-78862680D01*
X63077846Y-79430965D01*
X63399753Y-79912734D01*
X63740453Y-80140382D01*
X63597542Y-80207497D01*
X63207255Y-80635756D01*
X63037424Y-81045790D01*
X63158745Y-81275680D01*
X64351900Y-81275680D01*
X64351900Y-81255680D01*
X64605900Y-81255680D01*
X64605900Y-81275680D01*
X64625900Y-81275680D01*
X64625900Y-81529680D01*
X64605900Y-81529680D01*
X64605900Y-81549680D01*
X64351900Y-81549680D01*
X64351900Y-81529680D01*
X63158745Y-81529680D01*
X63037424Y-81759570D01*
X63207255Y-82169604D01*
X63597542Y-82597863D01*
X63740453Y-82664978D01*
X63399753Y-82892626D01*
X63077846Y-83374395D01*
X62964807Y-83942680D01*
X63077846Y-84510965D01*
X63399753Y-84992734D01*
X63728926Y-85212680D01*
X63399753Y-85432626D01*
X63077846Y-85914395D01*
X62964807Y-86482680D01*
X63077846Y-87050965D01*
X63399753Y-87532734D01*
X63728926Y-87752680D01*
X63399753Y-87972626D01*
X63077846Y-88454395D01*
X62964807Y-89022680D01*
X63077846Y-89590965D01*
X63399753Y-90072734D01*
X63728926Y-90292680D01*
X63399753Y-90512626D01*
X63077846Y-90994395D01*
X62964807Y-91562680D01*
X63077846Y-92130965D01*
X63399753Y-92612734D01*
X63728926Y-92832680D01*
X63399753Y-93052626D01*
X63077846Y-93534395D01*
X62964807Y-94102680D01*
X63077846Y-94670965D01*
X63399753Y-95152734D01*
X63728926Y-95372680D01*
X63399753Y-95592626D01*
X63077846Y-96074395D01*
X62964807Y-96642680D01*
X63077846Y-97210965D01*
X63399753Y-97692734D01*
X63728926Y-97912680D01*
X63399753Y-98132626D01*
X63077846Y-98614395D01*
X62964807Y-99182680D01*
X63077846Y-99750965D01*
X63399753Y-100232734D01*
X63740453Y-100460382D01*
X63597542Y-100527497D01*
X63207255Y-100955756D01*
X63037424Y-101365790D01*
X63158745Y-101595680D01*
X64351900Y-101595680D01*
X64351900Y-101575680D01*
X64605900Y-101575680D01*
X64605900Y-101595680D01*
X64625900Y-101595680D01*
X64625900Y-101849680D01*
X64605900Y-101849680D01*
X64605900Y-103043499D01*
X64835792Y-103164166D01*
X65360258Y-102917863D01*
X65750545Y-102489604D01*
X65750555Y-102489579D01*
X65939753Y-102772734D01*
X66421522Y-103094641D01*
X66989807Y-103207680D01*
X67047993Y-103207680D01*
X67616278Y-103094641D01*
X68098047Y-102772734D01*
X68419954Y-102290965D01*
X68532993Y-101722680D01*
X68460110Y-101356272D01*
X69031383Y-100784999D01*
X70751762Y-100784999D01*
X70675000Y-101170907D01*
X70675000Y-101229093D01*
X70788039Y-101797378D01*
X71109946Y-102279147D01*
X71591715Y-102601054D01*
X72160000Y-102714093D01*
X72728285Y-102601054D01*
X73210054Y-102279147D01*
X73430000Y-101949974D01*
X73649946Y-102279147D01*
X74131715Y-102601054D01*
X74700000Y-102714093D01*
X75268285Y-102601054D01*
X75750054Y-102279147D01*
X76071961Y-101797378D01*
X76185000Y-101229093D01*
X76185000Y-101170907D01*
X76071961Y-100602622D01*
X75750054Y-100120853D01*
X75748821Y-100120029D01*
X75785317Y-100113162D01*
X76001441Y-99974090D01*
X76146431Y-99761890D01*
X76197440Y-99510000D01*
X76197440Y-97810000D01*
X76153162Y-97574683D01*
X76014090Y-97358559D01*
X75801890Y-97213569D01*
X75550000Y-97162560D01*
X74095001Y-97162560D01*
X74095001Y-93979801D01*
X79502402Y-88572400D01*
X79667149Y-88325839D01*
X79725001Y-88034999D01*
X79725001Y-81425001D01*
X79667149Y-81134162D01*
X79667149Y-81134161D01*
X79502402Y-80887600D01*
X79231210Y-80616408D01*
X79304093Y-80250000D01*
X79191054Y-79681715D01*
X78869147Y-79199946D01*
X78539974Y-78980000D01*
X78869147Y-78760054D01*
X79191054Y-78278285D01*
X79304093Y-77710000D01*
X79191054Y-77141715D01*
X78869147Y-76659946D01*
X78387378Y-76338039D01*
X77819093Y-76225000D01*
X77760907Y-76225000D01*
X77192622Y-76338039D01*
X76710853Y-76659946D01*
X76710029Y-76661179D01*
X76703162Y-76624683D01*
X76564090Y-76408559D01*
X76351890Y-76263569D01*
X76100000Y-76212560D01*
X74400000Y-76212560D01*
X74164683Y-76256838D01*
X73948559Y-76395910D01*
X73803569Y-76608110D01*
X73752560Y-76860000D01*
X73752560Y-77079080D01*
X73612599Y-77172599D01*
X67974874Y-82810324D01*
X67768874Y-82672680D01*
X68098047Y-82452734D01*
X68419954Y-81970965D01*
X68532993Y-81402680D01*
X68419954Y-80834395D01*
X68098047Y-80352626D01*
X67768874Y-80132680D01*
X68098047Y-79912734D01*
X68419954Y-79430965D01*
X68532993Y-78862680D01*
X68419954Y-78294395D01*
X68098047Y-77812626D01*
X67757347Y-77584978D01*
X67900258Y-77517863D01*
X68290545Y-77089604D01*
X68460376Y-76679570D01*
X68443130Y-76646890D01*
X69558524Y-76646890D01*
X69728355Y-77056924D01*
X70118642Y-77485183D01*
X70643108Y-77731486D01*
X70873000Y-77610819D01*
X70873000Y-76417000D01*
X71127000Y-76417000D01*
X71127000Y-77610819D01*
X71356892Y-77731486D01*
X71881358Y-77485183D01*
X72271645Y-77056924D01*
X72441476Y-76646890D01*
X72320155Y-76417000D01*
X71127000Y-76417000D01*
X70873000Y-76417000D01*
X69679845Y-76417000D01*
X69558524Y-76646890D01*
X68443130Y-76646890D01*
X68339055Y-76449680D01*
X67145900Y-76449680D01*
X67145900Y-76469680D01*
X66891900Y-76469680D01*
X66891900Y-76449680D01*
X66871900Y-76449680D01*
X66871900Y-76195680D01*
X66891900Y-76195680D01*
X66891900Y-76175680D01*
X67145900Y-76175680D01*
X67145900Y-76195680D01*
X68339055Y-76195680D01*
X68460376Y-75965790D01*
X68357612Y-75717681D01*
X69647752Y-75717681D01*
X69558524Y-75933110D01*
X69679845Y-76163000D01*
X70873000Y-76163000D01*
X70873000Y-76143000D01*
X71127000Y-76143000D01*
X71127000Y-76163000D01*
X72320155Y-76163000D01*
X72441476Y-75933110D01*
X72271645Y-75523076D01*
X71881358Y-75094817D01*
X71738447Y-75027702D01*
X72079147Y-74800054D01*
X72401054Y-74318285D01*
X72514093Y-73750000D01*
X72401054Y-73181715D01*
X72079147Y-72699946D01*
X72037548Y-72672150D01*
X72085317Y-72663162D01*
X72301441Y-72524090D01*
X72446431Y-72311890D01*
X72497440Y-72060000D01*
X72497440Y-70360000D01*
X72453162Y-70124683D01*
X72314090Y-69908559D01*
X72101890Y-69763569D01*
X71850000Y-69712560D01*
X70150000Y-69712560D01*
X69914683Y-69756838D01*
X69698559Y-69895910D01*
X69553569Y-70108110D01*
X69502560Y-70360000D01*
X69502560Y-70579080D01*
X69362599Y-70672599D01*
X68468552Y-71566646D01*
X68532993Y-71242680D01*
X68419954Y-70674395D01*
X68098047Y-70192626D01*
X67616278Y-69870719D01*
X67047993Y-69757680D01*
X66989807Y-69757680D01*
X66421522Y-69870719D01*
X65939753Y-70192626D01*
X65938929Y-70193859D01*
X65932062Y-70157363D01*
X65792990Y-69941239D01*
X65580790Y-69796249D01*
X65328900Y-69745240D01*
X63628900Y-69745240D01*
X63393583Y-69789518D01*
X63177459Y-69928590D01*
X63032469Y-70140790D01*
X62981460Y-70392680D01*
X62981460Y-72092680D01*
X63025738Y-72327997D01*
X63164810Y-72544121D01*
X63377010Y-72689111D01*
X63444441Y-72702766D01*
X63399753Y-72732626D01*
X63077846Y-73214395D01*
X62964807Y-73782680D01*
X60710000Y-73782680D01*
X60710000Y-66710000D01*
X66000000Y-66710000D01*
X66271705Y-66655954D01*
X66502046Y-66502046D01*
X66655954Y-66271705D01*
X66710000Y-66000000D01*
X66710000Y-64814285D01*
X68724760Y-64814285D01*
X68935169Y-65323515D01*
X69324436Y-65713461D01*
X69833298Y-65924759D01*
X70384285Y-65925240D01*
X70893515Y-65714831D01*
X71283461Y-65325564D01*
X71379976Y-65093130D01*
X71475169Y-65323515D01*
X71864436Y-65713461D01*
X72373298Y-65924759D01*
X72924285Y-65925240D01*
X73433515Y-65714831D01*
X73823461Y-65325564D01*
X73913377Y-65109021D01*
X73977540Y-65263923D01*
X74218483Y-65331912D01*
X75010395Y-64540000D01*
X74218483Y-63748088D01*
X73977540Y-63816077D01*
X73918268Y-63982621D01*
X73824831Y-63756485D01*
X73435564Y-63366539D01*
X72926702Y-63155241D01*
X72375715Y-63154760D01*
X71866485Y-63365169D01*
X71476539Y-63754436D01*
X71380024Y-63986870D01*
X71284831Y-63756485D01*
X70895564Y-63366539D01*
X70386702Y-63155241D01*
X69835715Y-63154760D01*
X69326485Y-63365169D01*
X68936539Y-63754436D01*
X68725241Y-64263298D01*
X68724760Y-64814285D01*
X66710000Y-64814285D01*
X66710000Y-62274285D01*
X69994760Y-62274285D01*
X70205169Y-62783515D01*
X70594436Y-63173461D01*
X71103298Y-63384759D01*
X71654285Y-63385240D01*
X72163515Y-63174831D01*
X72367183Y-62971517D01*
X73128088Y-62971517D01*
X73196077Y-63212460D01*
X73715171Y-63397201D01*
X74265448Y-63369230D01*
X74643923Y-63212460D01*
X74711912Y-62971517D01*
X73920000Y-62179605D01*
X73128088Y-62971517D01*
X72367183Y-62971517D01*
X72553461Y-62785564D01*
X72643377Y-62569021D01*
X72707540Y-62723923D01*
X72948483Y-62791912D01*
X73740395Y-62000000D01*
X74099605Y-62000000D01*
X74891517Y-62791912D01*
X75132460Y-62723923D01*
X75191732Y-62557379D01*
X75285169Y-62783515D01*
X75674436Y-63173461D01*
X75700000Y-63184076D01*
X75700000Y-63251407D01*
X75394829Y-63142799D01*
X74844552Y-63170770D01*
X74466077Y-63327540D01*
X74398088Y-63568483D01*
X75190000Y-64360395D01*
X75204143Y-64346253D01*
X75383748Y-64525858D01*
X75369605Y-64540000D01*
X75383748Y-64554143D01*
X75204143Y-64733748D01*
X75190000Y-64719605D01*
X74398088Y-65511517D01*
X74466077Y-65752460D01*
X74985171Y-65937201D01*
X75535448Y-65909230D01*
X75700000Y-65841070D01*
X75700000Y-67488477D01*
X75565162Y-67813201D01*
X75564838Y-68185167D01*
X75706883Y-68528943D01*
X75969673Y-68792192D01*
X76313201Y-68934838D01*
X76685167Y-68935162D01*
X77028943Y-68793117D01*
X77292192Y-68530327D01*
X77434838Y-68186799D01*
X77435162Y-67814833D01*
X77293117Y-67471057D01*
X77220000Y-67397812D01*
X77220000Y-65827885D01*
X77453298Y-65924759D01*
X78004285Y-65925240D01*
X78513515Y-65714831D01*
X78903461Y-65325564D01*
X79114759Y-64816702D01*
X79115240Y-64265715D01*
X78904831Y-63756485D01*
X78546411Y-63397440D01*
X79750000Y-63397440D01*
X79985317Y-63353162D01*
X80201441Y-63214090D01*
X80346431Y-63001890D01*
X80397440Y-62750000D01*
X80397440Y-61250000D01*
X80353162Y-61014683D01*
X80214090Y-60798559D01*
X80001890Y-60653569D01*
X79750000Y-60602560D01*
X78250000Y-60602560D01*
X78014683Y-60646838D01*
X77798559Y-60785910D01*
X77653569Y-60998110D01*
X77613645Y-61195262D01*
X77245564Y-60826539D01*
X76736702Y-60615241D01*
X76185715Y-60614760D01*
X75676485Y-60825169D01*
X75286539Y-61214436D01*
X75196623Y-61430979D01*
X75132460Y-61276077D01*
X74891517Y-61208088D01*
X74099605Y-62000000D01*
X73740395Y-62000000D01*
X72948483Y-61208088D01*
X72707540Y-61276077D01*
X72648268Y-61442621D01*
X72554831Y-61216485D01*
X72367157Y-61028483D01*
X73128088Y-61028483D01*
X73920000Y-61820395D01*
X74711912Y-61028483D01*
X74643923Y-60787540D01*
X74124829Y-60602799D01*
X73574552Y-60630770D01*
X73196077Y-60787540D01*
X73128088Y-61028483D01*
X72367157Y-61028483D01*
X72165564Y-60826539D01*
X71656702Y-60615241D01*
X71105715Y-60614760D01*
X70596485Y-60825169D01*
X70206539Y-61214436D01*
X69995241Y-61723298D01*
X69994760Y-62274285D01*
X66710000Y-62274285D01*
X66710000Y-60000000D01*
X66655954Y-59728295D01*
X66502046Y-59497954D01*
X66271705Y-59344046D01*
X66000000Y-59290000D01*
X60710000Y-59290000D01*
X60710000Y-56137177D01*
X66159574Y-56137177D01*
X66533298Y-57041657D01*
X67224703Y-57734270D01*
X68128529Y-58109572D01*
X69107177Y-58110426D01*
X70011657Y-57736702D01*
X70704270Y-57045297D01*
X71079572Y-56141471D01*
X71079575Y-56137177D01*
X78029574Y-56137177D01*
X78403298Y-57041657D01*
X79094703Y-57734270D01*
X79998529Y-58109572D01*
X80977177Y-58110426D01*
X81881657Y-57736702D01*
X82574270Y-57045297D01*
X82949572Y-56141471D01*
X82950426Y-55162823D01*
X82576702Y-54258343D01*
X81885297Y-53565730D01*
X80981471Y-53190428D01*
X80002823Y-53189574D01*
X79098343Y-53563298D01*
X78405730Y-54254703D01*
X78030428Y-55158529D01*
X78029574Y-56137177D01*
X71079575Y-56137177D01*
X71080426Y-55162823D01*
X70706702Y-54258343D01*
X70015297Y-53565730D01*
X69111471Y-53190428D01*
X68132823Y-53189574D01*
X67228343Y-53563298D01*
X66535730Y-54254703D01*
X66160428Y-55158529D01*
X66159574Y-56137177D01*
X60710000Y-56137177D01*
X60710000Y-50710000D01*
X87290000Y-50710000D01*
X87290000Y-70000000D01*
G36*
X77917000Y-82663000D02*
X77937000Y-82663000D01*
X77937000Y-82917000D01*
X77917000Y-82917000D01*
X77917000Y-84110819D01*
X78146892Y-84231486D01*
X78205001Y-84204196D01*
X78205001Y-87720197D01*
X72797600Y-93127598D01*
X72632853Y-93374160D01*
X72575001Y-93664999D01*
X72575001Y-97228456D01*
X72160000Y-97145907D01*
X71941040Y-97189461D01*
X70842744Y-96091164D01*
X70793117Y-95971057D01*
X70530327Y-95707808D01*
X70186799Y-95565162D01*
X70134999Y-95565117D01*
X70134999Y-95326213D01*
X77152400Y-88308812D01*
X77317147Y-88062251D01*
X77374999Y-87771411D01*
X77374999Y-84204196D01*
X77433108Y-84231486D01*
X77663000Y-84110819D01*
X77663000Y-82917000D01*
X77643000Y-82917000D01*
X77643000Y-82663000D01*
X77663000Y-82663000D01*
X77663000Y-82643000D01*
X77917000Y-82643000D01*
X77917000Y-82663000D01*
X77917000Y-82663000D01*
G37*
X77917000Y-82663000D02*
X77937000Y-82663000D01*
X77937000Y-82917000D01*
X77917000Y-82917000D01*
X77917000Y-84110819D01*
X78146892Y-84231486D01*
X78205001Y-84204196D01*
X78205001Y-87720197D01*
X72797600Y-93127598D01*
X72632853Y-93374160D01*
X72575001Y-93664999D01*
X72575001Y-97228456D01*
X72160000Y-97145907D01*
X71941040Y-97189461D01*
X70842744Y-96091164D01*
X70793117Y-95971057D01*
X70530327Y-95707808D01*
X70186799Y-95565162D01*
X70134999Y-95565117D01*
X70134999Y-95326213D01*
X77152400Y-88308812D01*
X77317147Y-88062251D01*
X77374999Y-87771411D01*
X77374999Y-84204196D01*
X77433108Y-84231486D01*
X77663000Y-84110819D01*
X77663000Y-82917000D01*
X77643000Y-82917000D01*
X77643000Y-82663000D01*
X77663000Y-82663000D01*
X77663000Y-82643000D01*
X77917000Y-82643000D01*
X77917000Y-82663000D01*
G36*
X67145900Y-93975680D02*
X67165900Y-93975680D01*
X67165900Y-94229680D01*
X67145900Y-94229680D01*
X67145900Y-94249680D01*
X66891900Y-94249680D01*
X66891900Y-94229680D01*
X66871900Y-94229680D01*
X66871900Y-93975680D01*
X66891900Y-93975680D01*
X66891900Y-93955680D01*
X67145900Y-93955680D01*
X67145900Y-93975680D01*
X67145900Y-93975680D01*
G37*
X67145900Y-93975680D02*
X67165900Y-93975680D01*
X67165900Y-94229680D01*
X67145900Y-94229680D01*
X67145900Y-94249680D01*
X66891900Y-94249680D01*
X66891900Y-94229680D01*
X66871900Y-94229680D01*
X66871900Y-93975680D01*
X66891900Y-93975680D01*
X66891900Y-93955680D01*
X67145900Y-93955680D01*
X67145900Y-93975680D01*
G36*
X67145900Y-86355680D02*
X67165900Y-86355680D01*
X67165900Y-86609680D01*
X67145900Y-86609680D01*
X67145900Y-86629680D01*
X66891900Y-86629680D01*
X66891900Y-86609680D01*
X66871900Y-86609680D01*
X66871900Y-86355680D01*
X66891900Y-86355680D01*
X66891900Y-86335680D01*
X67145900Y-86335680D01*
X67145900Y-86355680D01*
X67145900Y-86355680D01*
G37*
X67145900Y-86355680D02*
X67165900Y-86355680D01*
X67165900Y-86609680D01*
X67145900Y-86609680D01*
X67145900Y-86629680D01*
X66891900Y-86629680D01*
X66891900Y-86609680D01*
X66871900Y-86609680D01*
X66871900Y-86355680D01*
X66891900Y-86355680D01*
X66891900Y-86335680D01*
X67145900Y-86335680D01*
X67145900Y-86355680D01*
M02*
