M48
;DRILL file {KiCad (5.0.0)} date 08/15/18 00:32:38
;FORMAT={3:3/ absolute / metric / suppress leading zeros}
FMAT,2
METRIC,TZ
T1C0.400
T2C0.760
T3C0.800
T4C1.000
T5C1.100
T6C1.400
T7C1.500
T8C1.501
T9C2.499
T10C2.700
T11C3.200
T12C1.100
T13C3.200
%
G90
G05
M71
T1
X70000Y-96500
X72800Y-74200
X76200Y-118110
X76500Y-68500
X79500Y-67500
X82500Y-140000
X82800Y-143000
X83000Y-70000
X84000Y-141600
X89000Y-137000
X90000Y-136000
X93500Y-137435
X97000Y-113000
X98500Y-129750
X105000Y-129600
X131701Y-102425
T2
X70110Y-64540
X71380Y-62000
X72650Y-64540
X73920Y-62000
X75190Y-64540
X76460Y-62000
X77730Y-64540
X79000Y-62000
T3
X99920Y-132000
X99920Y-139620
X102460Y-132000
X102460Y-139620
X105000Y-132000
X105000Y-139620
X107540Y-132000
X107540Y-139620
X119780Y-88500
X119780Y-91040
X119780Y-101200
X119780Y-103740
X127400Y-88500
X127400Y-91040
X127400Y-101200
X127400Y-103740
X139800Y-100180
X139800Y-107800
X116600Y-101200
X116600Y-108820
T4
X136000Y-106810
X136000Y-109350
X81320Y-145500
X81320Y-148040
X83860Y-145500
X83860Y-148040
X86400Y-145500
X86400Y-148040
X88940Y-145500
X88940Y-148040
X72160Y-98660
X72160Y-101200
X74700Y-98660
X74700Y-101200
X71000Y-71210
X71000Y-73750
X71000Y-76290
X102600Y-107110
X102600Y-109880
X102600Y-112650
X102600Y-115420
X102600Y-118190
X105440Y-108495
X105440Y-111265
X105440Y-114035
X105440Y-116805
X91924Y-145200
X94464Y-145200
X64479Y-71243
X64479Y-73783
X64479Y-76323
X64479Y-78863
X64479Y-81403
X64479Y-83943
X64479Y-86483
X64479Y-89023
X64479Y-91563
X64479Y-94103
X64479Y-96643
X64479Y-99183
X64479Y-101723
X67019Y-71243
X67019Y-73783
X67019Y-76323
X67019Y-78863
X67019Y-81403
X67019Y-83943
X67019Y-86483
X67019Y-89023
X67019Y-91563
X67019Y-94103
X67019Y-96643
X67019Y-99183
X67019Y-101723
X255985Y-37175
X261065Y-37175
X80010Y-120650
X80010Y-123190
X82550Y-120650
X82550Y-123190
X199190Y-109480
X199200Y-104400
X116000Y-146000
X118540Y-146000
X71460Y-120635
X71460Y-123405
X71460Y-126175
X71460Y-128945
X74300Y-119250
X74300Y-122020
X74300Y-124790
X74300Y-127560
X74300Y-130330
X75500Y-80000
X75500Y-82540
X75500Y-85080
X78040Y-80000
X78040Y-82540
X78040Y-85080
X243475Y-34425
X243475Y-36965
X243475Y-39505
X243475Y-42045
X243475Y-44585
X243475Y-47125
X243475Y-49665
X243475Y-52205
X243475Y-54745
X243475Y-57285
X243475Y-59825
X243475Y-62365
X243475Y-64905
X246015Y-34425
X246015Y-36965
X246015Y-39505
X246015Y-42045
X246015Y-44585
X246015Y-47125
X246015Y-49665
X246015Y-52205
X246015Y-54745
X246015Y-57285
X246015Y-59825
X246015Y-62365
X246015Y-64905
X249625Y-34425
X249625Y-36965
X249625Y-39505
X249625Y-42045
X252165Y-34425
X252165Y-36965
X252165Y-39505
X252165Y-42045
X249610Y-49100
X252150Y-49100
T5
X70460Y-146000
X73000Y-146000
X75540Y-146000
X99920Y-146000
X102460Y-146000
X105000Y-146000
X107540Y-146000
T6
X199200Y-82000
X199200Y-87000
X199200Y-92000
X99920Y-54500
X102460Y-64660
X105000Y-54500
X107540Y-64660
X110080Y-54500
X112620Y-64660
X198392Y-123868
X198392Y-128948
X198392Y-134028
X203472Y-123868
X203472Y-128948
X203472Y-134028
T7
X147010Y-104000
X152090Y-104000
X164790Y-104000
X174950Y-104000
X140700Y-73700
X140700Y-81700
X185700Y-73700
X185700Y-94500
T8
X184200Y-104000
X190200Y-104000
T9
X172000Y-145200
T10
X205200Y-68400
X204800Y-147000
X62800Y-63000
X62800Y-147000
T11
X104020Y-100150
X104020Y-125150
X74000Y-112290
X74000Y-137290
T12
X70460Y-148540
X73000Y-148540
X75540Y-148540
T13
X68840Y-55650
X80270Y-55650
T0
M30
