G04 #@! TF.FileFunction,Legend,Top*
%FSLAX46Y46*%
G04 Gerber Fmt 4.6, Leading zero omitted, Abs format (unit mm)*
G04 Created by KiCad (PCBNEW 4.0.6) date 07/31/17 19:13:33*
%MOMM*%
%LPD*%
G01*
G04 APERTURE LIST*
%ADD10C,0.100000*%
%ADD11C,0.150000*%
%ADD12C,0.300000*%
%ADD13C,0.400000*%
%ADD14C,0.120000*%
G04 APERTURE END LIST*
D10*
D11*
X177002200Y-166007200D02*
X177002200Y-198007200D01*
X285002200Y-198007200D01*
X285002200Y-166007200D01*
X177002200Y-166007200D01*
D10*
D11*
X10000000Y-10000000D02*
X10000000Y-200007200D01*
X287002200Y-200007200D01*
X287002200Y-10000000D01*
X10000000Y-10000000D01*
D10*
D11*
X12000000Y-12000000D02*
X12000000Y-198007200D01*
X285002200Y-198007200D01*
X285002200Y-12000000D01*
X12000000Y-12000000D01*
D10*
D11*
X60000000Y-12000000D02*
X60000000Y-10000000D01*
D10*
D11*
X110000000Y-12000000D02*
X110000000Y-10000000D01*
D10*
D11*
X160000000Y-12000000D02*
X160000000Y-10000000D01*
D10*
D11*
X210000000Y-12000000D02*
X210000000Y-10000000D01*
D10*
D11*
X260000000Y-12000000D02*
X260000000Y-10000000D01*
D10*
D11*
X35990476Y-11588095D02*
X35247619Y-11588095D01*
X35619048Y-11588095D02*
X35619048Y-10288095D01*
X35495238Y-10473810D01*
X35371429Y-10597619D01*
X35247619Y-10659524D01*
D10*
D11*
X85247619Y-10411905D02*
X85309524Y-10350000D01*
X85433333Y-10288095D01*
X85742857Y-10288095D01*
X85866667Y-10350000D01*
X85928571Y-10411905D01*
X85990476Y-10535714D01*
X85990476Y-10659524D01*
X85928571Y-10845238D01*
X85185714Y-11588095D01*
X85990476Y-11588095D01*
D10*
D11*
X135185714Y-10288095D02*
X135990476Y-10288095D01*
X135557143Y-10783333D01*
X135742857Y-10783333D01*
X135866667Y-10845238D01*
X135928571Y-10907143D01*
X135990476Y-11030952D01*
X135990476Y-11340476D01*
X135928571Y-11464286D01*
X135866667Y-11526190D01*
X135742857Y-11588095D01*
X135371429Y-11588095D01*
X135247619Y-11526190D01*
X135185714Y-11464286D01*
D10*
D11*
X185866667Y-10721429D02*
X185866667Y-11588095D01*
X185557143Y-10226190D02*
X185247619Y-11154762D01*
X186052381Y-11154762D01*
D10*
D11*
X235928571Y-10288095D02*
X235309524Y-10288095D01*
X235247619Y-10907143D01*
X235309524Y-10845238D01*
X235433333Y-10783333D01*
X235742857Y-10783333D01*
X235866667Y-10845238D01*
X235928571Y-10907143D01*
X235990476Y-11030952D01*
X235990476Y-11340476D01*
X235928571Y-11464286D01*
X235866667Y-11526190D01*
X235742857Y-11588095D01*
X235433333Y-11588095D01*
X235309524Y-11526190D01*
X235247619Y-11464286D01*
D10*
D11*
X285866667Y-10288095D02*
X285619048Y-10288095D01*
X285495238Y-10350000D01*
X285433333Y-10411905D01*
X285309524Y-10597619D01*
X285247619Y-10845238D01*
X285247619Y-11340476D01*
X285309524Y-11464286D01*
X285371429Y-11526190D01*
X285495238Y-11588095D01*
X285742857Y-11588095D01*
X285866667Y-11526190D01*
X285928571Y-11464286D01*
X285990476Y-11340476D01*
X285990476Y-11030952D01*
X285928571Y-10907143D01*
X285866667Y-10845238D01*
X285742857Y-10783333D01*
X285495238Y-10783333D01*
X285371429Y-10845238D01*
X285309524Y-10907143D01*
X285247619Y-11030952D01*
D10*
D11*
X60000000Y-198007200D02*
X60000000Y-200007200D01*
D10*
D11*
X110000000Y-198007200D02*
X110000000Y-200007200D01*
D10*
D11*
X160000000Y-198007200D02*
X160000000Y-200007200D01*
D10*
D11*
X210000000Y-198007200D02*
X210000000Y-200007200D01*
D10*
D11*
X260000000Y-198007200D02*
X260000000Y-200007200D01*
D10*
D11*
X35990476Y-199595295D02*
X35247619Y-199595295D01*
X35619048Y-199595295D02*
X35619048Y-198295295D01*
X35495238Y-198481010D01*
X35371429Y-198604819D01*
X35247619Y-198666724D01*
D10*
D11*
X85247619Y-198419105D02*
X85309524Y-198357200D01*
X85433333Y-198295295D01*
X85742857Y-198295295D01*
X85866667Y-198357200D01*
X85928571Y-198419105D01*
X85990476Y-198542914D01*
X85990476Y-198666724D01*
X85928571Y-198852438D01*
X85185714Y-199595295D01*
X85990476Y-199595295D01*
D10*
D11*
X135185714Y-198295295D02*
X135990476Y-198295295D01*
X135557143Y-198790533D01*
X135742857Y-198790533D01*
X135866667Y-198852438D01*
X135928571Y-198914343D01*
X135990476Y-199038152D01*
X135990476Y-199347676D01*
X135928571Y-199471486D01*
X135866667Y-199533390D01*
X135742857Y-199595295D01*
X135371429Y-199595295D01*
X135247619Y-199533390D01*
X135185714Y-199471486D01*
D10*
D11*
X185866667Y-198728629D02*
X185866667Y-199595295D01*
X185557143Y-198233390D02*
X185247619Y-199161962D01*
X186052381Y-199161962D01*
D10*
D11*
X235928571Y-198295295D02*
X235309524Y-198295295D01*
X235247619Y-198914343D01*
X235309524Y-198852438D01*
X235433333Y-198790533D01*
X235742857Y-198790533D01*
X235866667Y-198852438D01*
X235928571Y-198914343D01*
X235990476Y-199038152D01*
X235990476Y-199347676D01*
X235928571Y-199471486D01*
X235866667Y-199533390D01*
X235742857Y-199595295D01*
X235433333Y-199595295D01*
X235309524Y-199533390D01*
X235247619Y-199471486D01*
D10*
D11*
X285866667Y-198295295D02*
X285619048Y-198295295D01*
X285495238Y-198357200D01*
X285433333Y-198419105D01*
X285309524Y-198604819D01*
X285247619Y-198852438D01*
X285247619Y-199347676D01*
X285309524Y-199471486D01*
X285371429Y-199533390D01*
X285495238Y-199595295D01*
X285742857Y-199595295D01*
X285866667Y-199533390D01*
X285928571Y-199471486D01*
X285990476Y-199347676D01*
X285990476Y-199038152D01*
X285928571Y-198914343D01*
X285866667Y-198852438D01*
X285742857Y-198790533D01*
X285495238Y-198790533D01*
X285371429Y-198852438D01*
X285309524Y-198914343D01*
X285247619Y-199038152D01*
D10*
D11*
X10000000Y-60000000D02*
X12000000Y-60000000D01*
D10*
D11*
X10000000Y-110000000D02*
X12000000Y-110000000D01*
D10*
D11*
X10000000Y-160000000D02*
X12000000Y-160000000D01*
D10*
D11*
X10690476Y-35216667D02*
X11309524Y-35216667D01*
X10566667Y-35588095D02*
X11000000Y-34288095D01*
X11433333Y-35588095D01*
D10*
D11*
X11092857Y-84907143D02*
X11278571Y-84969048D01*
X11340476Y-85030952D01*
X11402381Y-85154762D01*
X11402381Y-85340476D01*
X11340476Y-85464286D01*
X11278571Y-85526190D01*
X11154762Y-85588095D01*
X10659524Y-85588095D01*
X10659524Y-84288095D01*
X11092857Y-84288095D01*
X11216667Y-84350000D01*
X11278571Y-84411905D01*
X11340476Y-84535714D01*
X11340476Y-84659524D01*
X11278571Y-84783333D01*
X11216667Y-84845238D01*
X11092857Y-84907143D01*
X10659524Y-84907143D01*
D10*
D11*
X11402381Y-135464286D02*
X11340476Y-135526190D01*
X11154762Y-135588095D01*
X11030952Y-135588095D01*
X10845238Y-135526190D01*
X10721429Y-135402381D01*
X10659524Y-135278571D01*
X10597619Y-135030952D01*
X10597619Y-134845238D01*
X10659524Y-134597619D01*
X10721429Y-134473810D01*
X10845238Y-134350000D01*
X11030952Y-134288095D01*
X11154762Y-134288095D01*
X11340476Y-134350000D01*
X11402381Y-134411905D01*
D10*
D11*
X10659524Y-185588095D02*
X10659524Y-184288095D01*
X10969048Y-184288095D01*
X11154762Y-184350000D01*
X11278571Y-184473810D01*
X11340476Y-184597619D01*
X11402381Y-184845238D01*
X11402381Y-185030952D01*
X11340476Y-185278571D01*
X11278571Y-185402381D01*
X11154762Y-185526190D01*
X10969048Y-185588095D01*
X10659524Y-185588095D01*
D10*
D11*
X287002200Y-60000000D02*
X285002200Y-60000000D01*
D10*
D11*
X287002200Y-110000000D02*
X285002200Y-110000000D01*
D10*
D11*
X287002200Y-160000000D02*
X285002200Y-160000000D01*
D10*
D11*
X285692676Y-35216667D02*
X286311724Y-35216667D01*
X285568867Y-35588095D02*
X286002200Y-34288095D01*
X286435533Y-35588095D01*
D10*
D11*
X286095057Y-84907143D02*
X286280771Y-84969048D01*
X286342676Y-85030952D01*
X286404581Y-85154762D01*
X286404581Y-85340476D01*
X286342676Y-85464286D01*
X286280771Y-85526190D01*
X286156962Y-85588095D01*
X285661724Y-85588095D01*
X285661724Y-84288095D01*
X286095057Y-84288095D01*
X286218867Y-84350000D01*
X286280771Y-84411905D01*
X286342676Y-84535714D01*
X286342676Y-84659524D01*
X286280771Y-84783333D01*
X286218867Y-84845238D01*
X286095057Y-84907143D01*
X285661724Y-84907143D01*
D10*
D11*
X286404581Y-135464286D02*
X286342676Y-135526190D01*
X286156962Y-135588095D01*
X286033152Y-135588095D01*
X285847438Y-135526190D01*
X285723629Y-135402381D01*
X285661724Y-135278571D01*
X285599819Y-135030952D01*
X285599819Y-134845238D01*
X285661724Y-134597619D01*
X285723629Y-134473810D01*
X285847438Y-134350000D01*
X286033152Y-134288095D01*
X286156962Y-134288095D01*
X286342676Y-134350000D01*
X286404581Y-134411905D01*
D10*
D11*
X285661724Y-185588095D02*
X285661724Y-184288095D01*
X285971248Y-184288095D01*
X286156962Y-184350000D01*
X286280771Y-184473810D01*
X286342676Y-184597619D01*
X286404581Y-184845238D01*
X286404581Y-185030952D01*
X286342676Y-185278571D01*
X286280771Y-185402381D01*
X286156962Y-185526190D01*
X285971248Y-185588095D01*
X285661724Y-185588095D01*
D10*
D11*
X200359343Y-193785771D02*
X200359343Y-192285771D01*
X200716486Y-192285771D01*
X200930771Y-192357200D01*
X201073629Y-192500057D01*
X201145057Y-192642914D01*
X201216486Y-192928629D01*
X201216486Y-193142914D01*
X201145057Y-193428629D01*
X201073629Y-193571486D01*
X200930771Y-193714343D01*
X200716486Y-193785771D01*
X200359343Y-193785771D01*
X202502200Y-193785771D02*
X202502200Y-193000057D01*
X202430771Y-192857200D01*
X202287914Y-192785771D01*
X202002200Y-192785771D01*
X201859343Y-192857200D01*
X202502200Y-193714343D02*
X202359343Y-193785771D01*
X202002200Y-193785771D01*
X201859343Y-193714343D01*
X201787914Y-193571486D01*
X201787914Y-193428629D01*
X201859343Y-193285771D01*
X202002200Y-193214343D01*
X202359343Y-193214343D01*
X202502200Y-193142914D01*
X203002200Y-192785771D02*
X203573629Y-192785771D01*
X203216486Y-192285771D02*
X203216486Y-193571486D01*
X203287914Y-193714343D01*
X203430772Y-193785771D01*
X203573629Y-193785771D01*
X204645057Y-193714343D02*
X204502200Y-193785771D01*
X204216486Y-193785771D01*
X204073629Y-193714343D01*
X204002200Y-193571486D01*
X204002200Y-193000057D01*
X204073629Y-192857200D01*
X204216486Y-192785771D01*
X204502200Y-192785771D01*
X204645057Y-192857200D01*
X204716486Y-193000057D01*
X204716486Y-193142914D01*
X204002200Y-193285771D01*
X205359343Y-193642914D02*
X205430771Y-193714343D01*
X205359343Y-193785771D01*
X205287914Y-193714343D01*
X205359343Y-193642914D01*
X205359343Y-193785771D01*
X205359343Y-192857200D02*
X205430771Y-192928629D01*
X205359343Y-193000057D01*
X205287914Y-192928629D01*
X205359343Y-192857200D01*
X205359343Y-193000057D01*
D10*
D11*
X177002200Y-194507200D02*
X285002200Y-194507200D01*
D10*
D11*
X178359343Y-196585771D02*
X178359343Y-195085771D01*
X179216486Y-196585771D02*
X178573629Y-195728629D01*
X179216486Y-195085771D02*
X178359343Y-195942914D01*
X179859343Y-196585771D02*
X179859343Y-195585771D01*
X179859343Y-195085771D02*
X179787914Y-195157200D01*
X179859343Y-195228629D01*
X179930771Y-195157200D01*
X179859343Y-195085771D01*
X179859343Y-195228629D01*
X181430772Y-196442914D02*
X181359343Y-196514343D01*
X181145057Y-196585771D01*
X181002200Y-196585771D01*
X180787915Y-196514343D01*
X180645057Y-196371486D01*
X180573629Y-196228629D01*
X180502200Y-195942914D01*
X180502200Y-195728629D01*
X180573629Y-195442914D01*
X180645057Y-195300057D01*
X180787915Y-195157200D01*
X181002200Y-195085771D01*
X181145057Y-195085771D01*
X181359343Y-195157200D01*
X181430772Y-195228629D01*
X182716486Y-196585771D02*
X182716486Y-195800057D01*
X182645057Y-195657200D01*
X182502200Y-195585771D01*
X182216486Y-195585771D01*
X182073629Y-195657200D01*
X182716486Y-196514343D02*
X182573629Y-196585771D01*
X182216486Y-196585771D01*
X182073629Y-196514343D01*
X182002200Y-196371486D01*
X182002200Y-196228629D01*
X182073629Y-196085771D01*
X182216486Y-196014343D01*
X182573629Y-196014343D01*
X182716486Y-195942914D01*
X184073629Y-196585771D02*
X184073629Y-195085771D01*
X184073629Y-196514343D02*
X183930772Y-196585771D01*
X183645058Y-196585771D01*
X183502200Y-196514343D01*
X183430772Y-196442914D01*
X183359343Y-196300057D01*
X183359343Y-195871486D01*
X183430772Y-195728629D01*
X183502200Y-195657200D01*
X183645058Y-195585771D01*
X183930772Y-195585771D01*
X184073629Y-195657200D01*
X185930772Y-195800057D02*
X186430772Y-195800057D01*
X186645058Y-196585771D02*
X185930772Y-196585771D01*
X185930772Y-195085771D01*
X186645058Y-195085771D01*
X187287915Y-196442914D02*
X187359343Y-196514343D01*
X187287915Y-196585771D01*
X187216486Y-196514343D01*
X187287915Y-196442914D01*
X187287915Y-196585771D01*
X188002201Y-196585771D02*
X188002201Y-195085771D01*
X188359344Y-195085771D01*
X188573629Y-195157200D01*
X188716487Y-195300057D01*
X188787915Y-195442914D01*
X188859344Y-195728629D01*
X188859344Y-195942914D01*
X188787915Y-196228629D01*
X188716487Y-196371486D01*
X188573629Y-196514343D01*
X188359344Y-196585771D01*
X188002201Y-196585771D01*
X189502201Y-196442914D02*
X189573629Y-196514343D01*
X189502201Y-196585771D01*
X189430772Y-196514343D01*
X189502201Y-196442914D01*
X189502201Y-196585771D01*
X190145058Y-196157200D02*
X190859344Y-196157200D01*
X190002201Y-196585771D02*
X190502201Y-195085771D01*
X191002201Y-196585771D01*
X191502201Y-196442914D02*
X191573629Y-196514343D01*
X191502201Y-196585771D01*
X191430772Y-196514343D01*
X191502201Y-196442914D01*
X191502201Y-196585771D01*
X194502201Y-196585771D02*
X194502201Y-195085771D01*
X194645058Y-196014343D02*
X195073629Y-196585771D01*
X195073629Y-195585771D02*
X194502201Y-196157200D01*
X195716487Y-196585771D02*
X195716487Y-195585771D01*
X195716487Y-195085771D02*
X195645058Y-195157200D01*
X195716487Y-195228629D01*
X195787915Y-195157200D01*
X195716487Y-195085771D01*
X195716487Y-195228629D01*
X197073630Y-196514343D02*
X196930773Y-196585771D01*
X196645059Y-196585771D01*
X196502201Y-196514343D01*
X196430773Y-196442914D01*
X196359344Y-196300057D01*
X196359344Y-195871486D01*
X196430773Y-195728629D01*
X196502201Y-195657200D01*
X196645059Y-195585771D01*
X196930773Y-195585771D01*
X197073630Y-195657200D01*
X198359344Y-196585771D02*
X198359344Y-195800057D01*
X198287915Y-195657200D01*
X198145058Y-195585771D01*
X197859344Y-195585771D01*
X197716487Y-195657200D01*
X198359344Y-196514343D02*
X198216487Y-196585771D01*
X197859344Y-196585771D01*
X197716487Y-196514343D01*
X197645058Y-196371486D01*
X197645058Y-196228629D01*
X197716487Y-196085771D01*
X197859344Y-196014343D01*
X198216487Y-196014343D01*
X198359344Y-195942914D01*
X199716487Y-196585771D02*
X199716487Y-195085771D01*
X199716487Y-196514343D02*
X199573630Y-196585771D01*
X199287916Y-196585771D01*
X199145058Y-196514343D01*
X199073630Y-196442914D01*
X199002201Y-196300057D01*
X199002201Y-195871486D01*
X199073630Y-195728629D01*
X199145058Y-195657200D01*
X199287916Y-195585771D01*
X199573630Y-195585771D01*
X199716487Y-195657200D01*
X202216487Y-195585771D02*
X202216487Y-196585771D01*
X201859344Y-195014343D02*
X201502201Y-196085771D01*
X202430773Y-196085771D01*
X203002201Y-196442914D02*
X203073629Y-196514343D01*
X203002201Y-196585771D01*
X202930772Y-196514343D01*
X203002201Y-196442914D01*
X203002201Y-196585771D01*
X204002201Y-195085771D02*
X204145058Y-195085771D01*
X204287915Y-195157200D01*
X204359344Y-195228629D01*
X204430773Y-195371486D01*
X204502201Y-195657200D01*
X204502201Y-196014343D01*
X204430773Y-196300057D01*
X204359344Y-196442914D01*
X204287915Y-196514343D01*
X204145058Y-196585771D01*
X204002201Y-196585771D01*
X203859344Y-196514343D01*
X203787915Y-196442914D01*
X203716487Y-196300057D01*
X203645058Y-196014343D01*
X203645058Y-195657200D01*
X203716487Y-195371486D01*
X203787915Y-195228629D01*
X203859344Y-195157200D01*
X204002201Y-195085771D01*
X205145058Y-196442914D02*
X205216486Y-196514343D01*
X205145058Y-196585771D01*
X205073629Y-196514343D01*
X205145058Y-196442914D01*
X205145058Y-196585771D01*
X206502201Y-195085771D02*
X206216487Y-195085771D01*
X206073630Y-195157200D01*
X206002201Y-195228629D01*
X205859344Y-195442914D01*
X205787915Y-195728629D01*
X205787915Y-196300057D01*
X205859344Y-196442914D01*
X205930772Y-196514343D01*
X206073630Y-196585771D01*
X206359344Y-196585771D01*
X206502201Y-196514343D01*
X206573630Y-196442914D01*
X206645058Y-196300057D01*
X206645058Y-195942914D01*
X206573630Y-195800057D01*
X206502201Y-195728629D01*
X206359344Y-195657200D01*
X206073630Y-195657200D01*
X205930772Y-195728629D01*
X205859344Y-195800057D01*
X205787915Y-195942914D01*
D10*
D11*
X177002200Y-191507200D02*
X285002200Y-191507200D01*
D10*
D12*
X264216486Y-193785771D02*
X263716486Y-193071486D01*
X263359343Y-193785771D02*
X263359343Y-192285771D01*
X263930771Y-192285771D01*
X264073629Y-192357200D01*
X264145057Y-192428629D01*
X264216486Y-192571486D01*
X264216486Y-192785771D01*
X264145057Y-192928629D01*
X264073629Y-193000057D01*
X263930771Y-193071486D01*
X263359343Y-193071486D01*
X265430771Y-193714343D02*
X265287914Y-193785771D01*
X265002200Y-193785771D01*
X264859343Y-193714343D01*
X264787914Y-193571486D01*
X264787914Y-193000057D01*
X264859343Y-192857200D01*
X265002200Y-192785771D01*
X265287914Y-192785771D01*
X265430771Y-192857200D01*
X265502200Y-193000057D01*
X265502200Y-193142914D01*
X264787914Y-193285771D01*
X266002200Y-192785771D02*
X266359343Y-193785771D01*
X266716485Y-192785771D01*
X267287914Y-193642914D02*
X267359342Y-193714343D01*
X267287914Y-193785771D01*
X267216485Y-193714343D01*
X267287914Y-193642914D01*
X267287914Y-193785771D01*
X267287914Y-192857200D02*
X267359342Y-192928629D01*
X267287914Y-193000057D01*
X267216485Y-192928629D01*
X267287914Y-192857200D01*
X267287914Y-193000057D01*
D10*
D11*
X178287914Y-193714343D02*
X178502200Y-193785771D01*
X178859343Y-193785771D01*
X179002200Y-193714343D01*
X179073629Y-193642914D01*
X179145057Y-193500057D01*
X179145057Y-193357200D01*
X179073629Y-193214343D01*
X179002200Y-193142914D01*
X178859343Y-193071486D01*
X178573629Y-193000057D01*
X178430771Y-192928629D01*
X178359343Y-192857200D01*
X178287914Y-192714343D01*
X178287914Y-192571486D01*
X178359343Y-192428629D01*
X178430771Y-192357200D01*
X178573629Y-192285771D01*
X178930771Y-192285771D01*
X179145057Y-192357200D01*
X179787914Y-193785771D02*
X179787914Y-192785771D01*
X179787914Y-192285771D02*
X179716485Y-192357200D01*
X179787914Y-192428629D01*
X179859342Y-192357200D01*
X179787914Y-192285771D01*
X179787914Y-192428629D01*
X180359343Y-192785771D02*
X181145057Y-192785771D01*
X180359343Y-193785771D01*
X181145057Y-193785771D01*
X182287914Y-193714343D02*
X182145057Y-193785771D01*
X181859343Y-193785771D01*
X181716486Y-193714343D01*
X181645057Y-193571486D01*
X181645057Y-193000057D01*
X181716486Y-192857200D01*
X181859343Y-192785771D01*
X182145057Y-192785771D01*
X182287914Y-192857200D01*
X182359343Y-193000057D01*
X182359343Y-193142914D01*
X181645057Y-193285771D01*
X183002200Y-193642914D02*
X183073628Y-193714343D01*
X183002200Y-193785771D01*
X182930771Y-193714343D01*
X183002200Y-193642914D01*
X183002200Y-193785771D01*
X183002200Y-192857200D02*
X183073628Y-192928629D01*
X183002200Y-193000057D01*
X182930771Y-192928629D01*
X183002200Y-192857200D01*
X183002200Y-193000057D01*
X184787914Y-193357200D02*
X185502200Y-193357200D01*
X184645057Y-193785771D02*
X185145057Y-192285771D01*
X185645057Y-193785771D01*
X186787914Y-192785771D02*
X186787914Y-193785771D01*
X186430771Y-192214343D02*
X186073628Y-193285771D01*
X187002200Y-193285771D01*
D10*
D11*
X263359343Y-196585771D02*
X263359343Y-195085771D01*
X264716486Y-196585771D02*
X264716486Y-195085771D01*
X264716486Y-196514343D02*
X264573629Y-196585771D01*
X264287915Y-196585771D01*
X264145057Y-196514343D01*
X264073629Y-196442914D01*
X264002200Y-196300057D01*
X264002200Y-195871486D01*
X264073629Y-195728629D01*
X264145057Y-195657200D01*
X264287915Y-195585771D01*
X264573629Y-195585771D01*
X264716486Y-195657200D01*
X265430772Y-196442914D02*
X265502200Y-196514343D01*
X265430772Y-196585771D01*
X265359343Y-196514343D01*
X265430772Y-196442914D01*
X265430772Y-196585771D01*
X265430772Y-195657200D02*
X265502200Y-195728629D01*
X265430772Y-195800057D01*
X265359343Y-195728629D01*
X265430772Y-195657200D01*
X265430772Y-195800057D01*
X268073629Y-196585771D02*
X267216486Y-196585771D01*
X267645058Y-196585771D02*
X267645058Y-195085771D01*
X267502201Y-195300057D01*
X267359343Y-195442914D01*
X267216486Y-195514343D01*
X269787914Y-195014343D02*
X268502200Y-196942914D01*
X271073629Y-196585771D02*
X270216486Y-196585771D01*
X270645058Y-196585771D02*
X270645058Y-195085771D01*
X270502201Y-195300057D01*
X270359343Y-195442914D01*
X270216486Y-195514343D01*
D10*
D11*
X177002200Y-187507200D02*
X285002200Y-187507200D01*
D10*
D13*
X178454581Y-188211962D02*
X179597438Y-188211962D01*
X178776010Y-190211962D02*
X179026010Y-188211962D01*
X180014105Y-190211962D02*
X180180771Y-188878629D01*
X180264105Y-188211962D02*
X180156962Y-188307200D01*
X180240295Y-188402438D01*
X180347439Y-188307200D01*
X180264105Y-188211962D01*
X180240295Y-188402438D01*
X180847438Y-188878629D02*
X181609343Y-188878629D01*
X181216486Y-188211962D02*
X181002200Y-189926248D01*
X181073630Y-190116724D01*
X181252201Y-190211962D01*
X181442677Y-190211962D01*
X182395058Y-190211962D02*
X182216487Y-190116724D01*
X182145057Y-189926248D01*
X182359343Y-188211962D01*
X183930772Y-190116724D02*
X183728391Y-190211962D01*
X183347439Y-190211962D01*
X183168867Y-190116724D01*
X183097438Y-189926248D01*
X183192676Y-189164343D01*
X183311724Y-188973867D01*
X183514105Y-188878629D01*
X183895057Y-188878629D01*
X184073629Y-188973867D01*
X184145057Y-189164343D01*
X184121248Y-189354819D01*
X183145057Y-189545295D01*
X184895057Y-190021486D02*
X184978392Y-190116724D01*
X184871248Y-190211962D01*
X184787915Y-190116724D01*
X184895057Y-190021486D01*
X184871248Y-190211962D01*
X185026010Y-188973867D02*
X185109344Y-189069105D01*
X185002200Y-189164343D01*
X184918867Y-189069105D01*
X185026010Y-188973867D01*
X185002200Y-189164343D01*
D10*
D11*
X178859343Y-185600057D02*
X178359343Y-185600057D01*
X178359343Y-186385771D02*
X178359343Y-184885771D01*
X179073629Y-184885771D01*
X179645057Y-186385771D02*
X179645057Y-185385771D01*
X179645057Y-184885771D02*
X179573628Y-184957200D01*
X179645057Y-185028629D01*
X179716485Y-184957200D01*
X179645057Y-184885771D01*
X179645057Y-185028629D01*
X180573629Y-186385771D02*
X180430771Y-186314343D01*
X180359343Y-186171486D01*
X180359343Y-184885771D01*
X181716485Y-186314343D02*
X181573628Y-186385771D01*
X181287914Y-186385771D01*
X181145057Y-186314343D01*
X181073628Y-186171486D01*
X181073628Y-185600057D01*
X181145057Y-185457200D01*
X181287914Y-185385771D01*
X181573628Y-185385771D01*
X181716485Y-185457200D01*
X181787914Y-185600057D01*
X181787914Y-185742914D01*
X181073628Y-185885771D01*
X182430771Y-186242914D02*
X182502199Y-186314343D01*
X182430771Y-186385771D01*
X182359342Y-186314343D01*
X182430771Y-186242914D01*
X182430771Y-186385771D01*
X182430771Y-185457200D02*
X182502199Y-185528629D01*
X182430771Y-185600057D01*
X182359342Y-185528629D01*
X182430771Y-185457200D01*
X182430771Y-185600057D01*
X184287914Y-186385771D02*
X184287914Y-184885771D01*
X184287914Y-185457200D02*
X184430771Y-185385771D01*
X184716485Y-185385771D01*
X184859342Y-185457200D01*
X184930771Y-185528629D01*
X185002200Y-185671486D01*
X185002200Y-186100057D01*
X184930771Y-186242914D01*
X184859342Y-186314343D01*
X184716485Y-186385771D01*
X184430771Y-186385771D01*
X184287914Y-186314343D01*
X185645057Y-185385771D02*
X185645057Y-186885771D01*
X185645057Y-185457200D02*
X185787914Y-185385771D01*
X186073628Y-185385771D01*
X186216485Y-185457200D01*
X186287914Y-185528629D01*
X186359343Y-185671486D01*
X186359343Y-186100057D01*
X186287914Y-186242914D01*
X186216485Y-186314343D01*
X186073628Y-186385771D01*
X185787914Y-186385771D01*
X185645057Y-186314343D01*
X187002200Y-186385771D02*
X187002200Y-185385771D01*
X187002200Y-184885771D02*
X186930771Y-184957200D01*
X187002200Y-185028629D01*
X187073628Y-184957200D01*
X187002200Y-184885771D01*
X187002200Y-185028629D01*
X187716486Y-185814343D02*
X188859343Y-185814343D01*
X189573629Y-186385771D02*
X189573629Y-185385771D01*
X189573629Y-185671486D02*
X189645057Y-185528629D01*
X189716486Y-185457200D01*
X189859343Y-185385771D01*
X190002200Y-185385771D01*
X191287914Y-186385771D02*
X190430771Y-186385771D01*
X190859343Y-186385771D02*
X190859343Y-184885771D01*
X190716486Y-185100057D01*
X190573628Y-185242914D01*
X190430771Y-185314343D01*
X191930771Y-185814343D02*
X193073628Y-185814343D01*
X194430771Y-186314343D02*
X194287914Y-186385771D01*
X194002200Y-186385771D01*
X193859342Y-186314343D01*
X193787914Y-186242914D01*
X193716485Y-186100057D01*
X193716485Y-185671486D01*
X193787914Y-185528629D01*
X193859342Y-185457200D01*
X194002200Y-185385771D01*
X194287914Y-185385771D01*
X194430771Y-185457200D01*
X195716485Y-186385771D02*
X195716485Y-185600057D01*
X195645056Y-185457200D01*
X195502199Y-185385771D01*
X195216485Y-185385771D01*
X195073628Y-185457200D01*
X195716485Y-186314343D02*
X195573628Y-186385771D01*
X195216485Y-186385771D01*
X195073628Y-186314343D01*
X195002199Y-186171486D01*
X195002199Y-186028629D01*
X195073628Y-185885771D01*
X195216485Y-185814343D01*
X195573628Y-185814343D01*
X195716485Y-185742914D01*
X196430771Y-185385771D02*
X196430771Y-186385771D01*
X196430771Y-185528629D02*
X196502199Y-185457200D01*
X196645057Y-185385771D01*
X196859342Y-185385771D01*
X197002199Y-185457200D01*
X197073628Y-185600057D01*
X197073628Y-186385771D01*
X197787914Y-185814343D02*
X198930771Y-185814343D01*
X199573628Y-186314343D02*
X199716485Y-186385771D01*
X200002200Y-186385771D01*
X200145057Y-186314343D01*
X200216485Y-186171486D01*
X200216485Y-186100057D01*
X200145057Y-185957200D01*
X200002200Y-185885771D01*
X199787914Y-185885771D01*
X199645057Y-185814343D01*
X199573628Y-185671486D01*
X199573628Y-185600057D01*
X199645057Y-185457200D01*
X199787914Y-185385771D01*
X200002200Y-185385771D01*
X200145057Y-185457200D01*
X201430771Y-186314343D02*
X201287914Y-186385771D01*
X201002200Y-186385771D01*
X200859343Y-186314343D01*
X200787914Y-186171486D01*
X200787914Y-185600057D01*
X200859343Y-185457200D01*
X201002200Y-185385771D01*
X201287914Y-185385771D01*
X201430771Y-185457200D01*
X201502200Y-185600057D01*
X201502200Y-185742914D01*
X200787914Y-185885771D01*
X202145057Y-186385771D02*
X202145057Y-185385771D01*
X202145057Y-185671486D02*
X202216485Y-185528629D01*
X202287914Y-185457200D01*
X202430771Y-185385771D01*
X202573628Y-185385771D01*
X203073628Y-186242914D02*
X203145056Y-186314343D01*
X203073628Y-186385771D01*
X203002199Y-186314343D01*
X203073628Y-186242914D01*
X203073628Y-186385771D01*
X203787914Y-186385771D02*
X203787914Y-184885771D01*
X203930771Y-185814343D02*
X204359342Y-186385771D01*
X204359342Y-185385771D02*
X203787914Y-185957200D01*
X205002200Y-186385771D02*
X205002200Y-185385771D01*
X205002200Y-184885771D02*
X204930771Y-184957200D01*
X205002200Y-185028629D01*
X205073628Y-184957200D01*
X205002200Y-184885771D01*
X205002200Y-185028629D01*
X206359343Y-186314343D02*
X206216486Y-186385771D01*
X205930772Y-186385771D01*
X205787914Y-186314343D01*
X205716486Y-186242914D01*
X205645057Y-186100057D01*
X205645057Y-185671486D01*
X205716486Y-185528629D01*
X205787914Y-185457200D01*
X205930772Y-185385771D01*
X206216486Y-185385771D01*
X206359343Y-185457200D01*
X207645057Y-186385771D02*
X207645057Y-185600057D01*
X207573628Y-185457200D01*
X207430771Y-185385771D01*
X207145057Y-185385771D01*
X207002200Y-185457200D01*
X207645057Y-186314343D02*
X207502200Y-186385771D01*
X207145057Y-186385771D01*
X207002200Y-186314343D01*
X206930771Y-186171486D01*
X206930771Y-186028629D01*
X207002200Y-185885771D01*
X207145057Y-185814343D01*
X207502200Y-185814343D01*
X207645057Y-185742914D01*
X209002200Y-186385771D02*
X209002200Y-184885771D01*
X209002200Y-186314343D02*
X208859343Y-186385771D01*
X208573629Y-186385771D01*
X208430771Y-186314343D01*
X208359343Y-186242914D01*
X208287914Y-186100057D01*
X208287914Y-185671486D01*
X208359343Y-185528629D01*
X208430771Y-185457200D01*
X208573629Y-185385771D01*
X208859343Y-185385771D01*
X209002200Y-185457200D01*
X209359343Y-186528629D02*
X210502200Y-186528629D01*
X210859343Y-185385771D02*
X210859343Y-186885771D01*
X210859343Y-185457200D02*
X211002200Y-185385771D01*
X211287914Y-185385771D01*
X211430771Y-185457200D01*
X211502200Y-185528629D01*
X211573629Y-185671486D01*
X211573629Y-186100057D01*
X211502200Y-186242914D01*
X211430771Y-186314343D01*
X211287914Y-186385771D01*
X211002200Y-186385771D01*
X210859343Y-186314343D01*
X212859343Y-186314343D02*
X212716486Y-186385771D01*
X212430772Y-186385771D01*
X212287914Y-186314343D01*
X212216486Y-186242914D01*
X212145057Y-186100057D01*
X212145057Y-185671486D01*
X212216486Y-185528629D01*
X212287914Y-185457200D01*
X212430772Y-185385771D01*
X212716486Y-185385771D01*
X212859343Y-185457200D01*
X213502200Y-186385771D02*
X213502200Y-184885771D01*
X213502200Y-185457200D02*
X213645057Y-185385771D01*
X213930771Y-185385771D01*
X214073628Y-185457200D01*
X214145057Y-185528629D01*
X214216486Y-185671486D01*
X214216486Y-186100057D01*
X214145057Y-186242914D01*
X214073628Y-186314343D01*
X213930771Y-186385771D01*
X213645057Y-186385771D01*
X213502200Y-186314343D01*
D10*
D11*
X177002200Y-181507200D02*
X285002200Y-181507200D01*
D10*
D11*
X178287914Y-183614343D02*
X178502200Y-183685771D01*
X178859343Y-183685771D01*
X179002200Y-183614343D01*
X179073629Y-183542914D01*
X179145057Y-183400057D01*
X179145057Y-183257200D01*
X179073629Y-183114343D01*
X179002200Y-183042914D01*
X178859343Y-182971486D01*
X178573629Y-182900057D01*
X178430771Y-182828629D01*
X178359343Y-182757200D01*
X178287914Y-182614343D01*
X178287914Y-182471486D01*
X178359343Y-182328629D01*
X178430771Y-182257200D01*
X178573629Y-182185771D01*
X178930771Y-182185771D01*
X179145057Y-182257200D01*
X179787914Y-183685771D02*
X179787914Y-182185771D01*
X180430771Y-183685771D02*
X180430771Y-182900057D01*
X180359342Y-182757200D01*
X180216485Y-182685771D01*
X180002200Y-182685771D01*
X179859342Y-182757200D01*
X179787914Y-182828629D01*
X181716485Y-183614343D02*
X181573628Y-183685771D01*
X181287914Y-183685771D01*
X181145057Y-183614343D01*
X181073628Y-183471486D01*
X181073628Y-182900057D01*
X181145057Y-182757200D01*
X181287914Y-182685771D01*
X181573628Y-182685771D01*
X181716485Y-182757200D01*
X181787914Y-182900057D01*
X181787914Y-183042914D01*
X181073628Y-183185771D01*
X183002199Y-183614343D02*
X182859342Y-183685771D01*
X182573628Y-183685771D01*
X182430771Y-183614343D01*
X182359342Y-183471486D01*
X182359342Y-182900057D01*
X182430771Y-182757200D01*
X182573628Y-182685771D01*
X182859342Y-182685771D01*
X183002199Y-182757200D01*
X183073628Y-182900057D01*
X183073628Y-183042914D01*
X182359342Y-183185771D01*
X183502199Y-182685771D02*
X184073628Y-182685771D01*
X183716485Y-182185771D02*
X183716485Y-183471486D01*
X183787913Y-183614343D01*
X183930771Y-183685771D01*
X184073628Y-183685771D01*
X184573628Y-183542914D02*
X184645056Y-183614343D01*
X184573628Y-183685771D01*
X184502199Y-183614343D01*
X184573628Y-183542914D01*
X184573628Y-183685771D01*
X184573628Y-182757200D02*
X184645056Y-182828629D01*
X184573628Y-182900057D01*
X184502199Y-182828629D01*
X184573628Y-182757200D01*
X184573628Y-182900057D01*
D10*
D11*
X197002200Y-191507200D02*
X197002200Y-194507200D01*
D10*
D11*
X261002200Y-191507200D02*
X261002200Y-198007200D01*
D14*
X82170000Y-47780000D02*
X66930000Y-47780000D01*
X66930000Y-65810000D02*
X66940000Y-56820000D01*
X66930000Y-65810000D02*
X82170000Y-65810000D01*
X82170000Y-65810000D02*
X82170000Y-56810000D01*
X66940000Y-54480000D02*
X66930000Y-47780000D01*
X82170000Y-54490000D02*
X82170000Y-47780000D01*
X98910000Y-110110000D02*
X95090000Y-110110000D01*
X95090000Y-110110000D02*
X95090000Y-111890000D01*
X95090000Y-111890000D02*
X98910000Y-111890000D01*
X98910000Y-110110000D02*
X98910000Y-111890000D01*
X98910000Y-114110000D02*
X95090000Y-114110000D01*
X95090000Y-114110000D02*
X95090000Y-115890000D01*
X95090000Y-115890000D02*
X98910000Y-115890000D01*
X98910000Y-114110000D02*
X98910000Y-115890000D01*
X75390000Y-70410000D02*
X75390000Y-66590000D01*
X75390000Y-66590000D02*
X73610000Y-66590000D01*
X73610000Y-66590000D02*
X73610000Y-70410000D01*
X75390000Y-70410000D02*
X73610000Y-70410000D01*
X78890000Y-70410000D02*
X78890000Y-66590000D01*
X78890000Y-66590000D02*
X77110000Y-66590000D01*
X77110000Y-66590000D02*
X77110000Y-70410000D01*
X78890000Y-70410000D02*
X77110000Y-70410000D01*
X73430000Y-97330000D02*
X70830000Y-97330000D01*
X70830000Y-97330000D02*
X70830000Y-102530000D01*
X70830000Y-102530000D02*
X76030000Y-102530000D01*
X76030000Y-102530000D02*
X76030000Y-99930000D01*
X76030000Y-99930000D02*
X73430000Y-99930000D01*
X73430000Y-99930000D02*
X73430000Y-97330000D01*
X74700000Y-97330000D02*
X76030000Y-97330000D01*
X76030000Y-97330000D02*
X76030000Y-98660000D01*
D11*
X77099560Y-142901200D02*
X68900440Y-142901200D01*
X77099560Y-143299980D02*
X68900440Y-143299980D01*
X77099560Y-148600960D02*
X68900440Y-148600960D01*
X68900440Y-149098800D02*
X77099560Y-149098800D01*
X74300480Y-148600960D02*
X74300480Y-149098800D01*
X69101100Y-149098800D02*
X69101100Y-148600960D01*
X76901440Y-148600960D02*
X76901440Y-149098800D01*
X71702060Y-149098800D02*
X71702060Y-148600960D01*
X77099560Y-149098800D02*
X77099560Y-142901200D01*
X68902980Y-142901200D02*
X68902980Y-149098800D01*
X109030980Y-142901200D02*
X98429020Y-142901200D01*
X98429020Y-143299980D02*
X109030980Y-143299980D01*
X98429020Y-148600960D02*
X109030980Y-148600960D01*
X109030980Y-149098800D02*
X98429020Y-149098800D01*
X106226820Y-148600960D02*
X106226820Y-149098800D01*
X103730000Y-148600960D02*
X103730000Y-149098800D01*
X98632220Y-149098800D02*
X98632220Y-148600960D01*
X108830320Y-148600960D02*
X108830320Y-149098800D01*
X101233180Y-149098800D02*
X101233180Y-148600960D01*
X109028440Y-149098800D02*
X109028440Y-142901200D01*
X98434100Y-142901200D02*
X98434100Y-149098800D01*
X76275000Y-89925000D02*
X76225000Y-89925000D01*
X76275000Y-94075000D02*
X76130000Y-94075000D01*
X71125000Y-94075000D02*
X71270000Y-94075000D01*
X71125000Y-89925000D02*
X71270000Y-89925000D01*
X76275000Y-89925000D02*
X76275000Y-94075000D01*
X71125000Y-89925000D02*
X71125000Y-94075000D01*
X76225000Y-89925000D02*
X76225000Y-88525000D01*
D14*
X108930000Y-134810000D02*
X108930000Y-133040000D01*
X108930000Y-133040000D02*
X98530000Y-133040000D01*
X98530000Y-133040000D02*
X98530000Y-138580000D01*
X98530000Y-138580000D02*
X108930000Y-138580000D01*
X108930000Y-138580000D02*
X108930000Y-136810000D01*
X108930000Y-136810000D02*
G75*
G02X108930000Y-134810000I0J1000000D01*
G01*
X59720000Y-141390000D02*
X77620000Y-141340000D01*
X77620000Y-141340000D02*
X77620000Y-108740000D01*
X77620000Y-108740000D02*
X59720000Y-108740000D01*
X59720000Y-108740000D02*
X59720000Y-141390000D01*
D11*
X86925000Y-130925000D02*
X86925000Y-130950000D01*
X91075000Y-130925000D02*
X91075000Y-131030000D01*
X91075000Y-141075000D02*
X91075000Y-140970000D01*
X86925000Y-141075000D02*
X86925000Y-140970000D01*
X86925000Y-130925000D02*
X91075000Y-130925000D01*
X86925000Y-141075000D02*
X91075000Y-141075000D01*
X86925000Y-130950000D02*
X85550000Y-130950000D01*
D14*
X84600000Y-132400000D02*
X84600000Y-133100000D01*
X83400000Y-133100000D02*
X83400000Y-132400000D01*
X84600000Y-135650000D02*
X84600000Y-136350000D01*
X83400000Y-136350000D02*
X83400000Y-135650000D01*
X88650000Y-129100000D02*
X89350000Y-129100000D01*
X89350000Y-130300000D02*
X88650000Y-130300000D01*
X84600000Y-138850000D02*
X84600000Y-139550000D01*
X83400000Y-139550000D02*
X83400000Y-138850000D01*
X70700000Y-87980000D02*
X69700000Y-87980000D01*
X69700000Y-86620000D02*
X70700000Y-86620000D01*
X75000000Y-103520000D02*
X77000000Y-103520000D01*
X77000000Y-106480000D02*
X75000000Y-106480000D01*
X70000000Y-103520000D02*
X72000000Y-103520000D01*
X72000000Y-106480000D02*
X70000000Y-106480000D01*
X106300000Y-128920000D02*
X107300000Y-128920000D01*
X107300000Y-130280000D02*
X106300000Y-130280000D01*
X99750000Y-128920000D02*
X100750000Y-128920000D01*
X100750000Y-130280000D02*
X99750000Y-130280000D01*
X92400000Y-129250000D02*
X92400000Y-128550000D01*
X93600000Y-128550000D02*
X93600000Y-129250000D01*
X90800000Y-129250000D02*
X90800000Y-128550000D01*
X92000000Y-128550000D02*
X92000000Y-129250000D01*
X100700000Y-127680000D02*
X100700000Y-97470000D01*
X100700000Y-127680000D02*
X107550000Y-127680000D01*
X107550000Y-97470000D02*
X100700000Y-97470000D01*
X107550000Y-97470000D02*
X107550000Y-127680000D01*
X69400000Y-94350000D02*
X69400000Y-93650000D01*
X70600000Y-93650000D02*
X70600000Y-94350000D01*
X69670000Y-72480000D02*
X69670000Y-77620000D01*
X69670000Y-77620000D02*
X72330000Y-77620000D01*
X72330000Y-77620000D02*
X72330000Y-72480000D01*
X72330000Y-72480000D02*
X69670000Y-72480000D01*
X69670000Y-71210000D02*
X69670000Y-69880000D01*
X69670000Y-69880000D02*
X71000000Y-69880000D01*
X73920000Y-78980000D02*
X73920000Y-84120000D01*
X73920000Y-84120000D02*
X79120000Y-84120000D01*
X79120000Y-84120000D02*
X79120000Y-76380000D01*
X79120000Y-76380000D02*
X76520000Y-76380000D01*
X76520000Y-76380000D02*
X76520000Y-78980000D01*
X76520000Y-78980000D02*
X73920000Y-78980000D01*
X73920000Y-77710000D02*
X73920000Y-76380000D01*
X73920000Y-76380000D02*
X75250000Y-76380000D01*
D11*
X73014286Y-50272381D02*
X73014286Y-50986667D01*
X72966666Y-51129524D01*
X72871428Y-51224762D01*
X72728571Y-51272381D01*
X72633333Y-51272381D01*
X73442857Y-50367619D02*
X73490476Y-50320000D01*
X73585714Y-50272381D01*
X73823810Y-50272381D01*
X73919048Y-50320000D01*
X73966667Y-50367619D01*
X74014286Y-50462857D01*
X74014286Y-50558095D01*
X73966667Y-50700952D01*
X73395238Y-51272381D01*
X74014286Y-51272381D01*
X74633333Y-50272381D02*
X74728572Y-50272381D01*
X74823810Y-50320000D01*
X74871429Y-50367619D01*
X74919048Y-50462857D01*
X74966667Y-50653333D01*
X74966667Y-50891429D01*
X74919048Y-51081905D01*
X74871429Y-51177143D01*
X74823810Y-51224762D01*
X74728572Y-51272381D01*
X74633333Y-51272381D01*
X74538095Y-51224762D01*
X74490476Y-51177143D01*
X74442857Y-51081905D01*
X74395238Y-50891429D01*
X74395238Y-50653333D01*
X74442857Y-50462857D01*
X74490476Y-50367619D01*
X74538095Y-50320000D01*
X74633333Y-50272381D01*
X75347619Y-50367619D02*
X75395238Y-50320000D01*
X75490476Y-50272381D01*
X75728572Y-50272381D01*
X75823810Y-50320000D01*
X75871429Y-50367619D01*
X75919048Y-50462857D01*
X75919048Y-50558095D01*
X75871429Y-50700952D01*
X75300000Y-51272381D01*
X75919048Y-51272381D01*
X95714286Y-108452381D02*
X95714286Y-109166667D01*
X95666666Y-109309524D01*
X95571428Y-109404762D01*
X95428571Y-109452381D01*
X95333333Y-109452381D01*
X96142857Y-108547619D02*
X96190476Y-108500000D01*
X96285714Y-108452381D01*
X96523810Y-108452381D01*
X96619048Y-108500000D01*
X96666667Y-108547619D01*
X96714286Y-108642857D01*
X96714286Y-108738095D01*
X96666667Y-108880952D01*
X96095238Y-109452381D01*
X96714286Y-109452381D01*
X97333333Y-108452381D02*
X97428572Y-108452381D01*
X97523810Y-108500000D01*
X97571429Y-108547619D01*
X97619048Y-108642857D01*
X97666667Y-108833333D01*
X97666667Y-109071429D01*
X97619048Y-109261905D01*
X97571429Y-109357143D01*
X97523810Y-109404762D01*
X97428572Y-109452381D01*
X97333333Y-109452381D01*
X97238095Y-109404762D01*
X97190476Y-109357143D01*
X97142857Y-109261905D01*
X97095238Y-109071429D01*
X97095238Y-108833333D01*
X97142857Y-108642857D01*
X97190476Y-108547619D01*
X97238095Y-108500000D01*
X97333333Y-108452381D01*
X98000000Y-108452381D02*
X98619048Y-108452381D01*
X98285714Y-108833333D01*
X98428572Y-108833333D01*
X98523810Y-108880952D01*
X98571429Y-108928571D01*
X98619048Y-109023810D01*
X98619048Y-109261905D01*
X98571429Y-109357143D01*
X98523810Y-109404762D01*
X98428572Y-109452381D01*
X98142857Y-109452381D01*
X98047619Y-109404762D01*
X98000000Y-109357143D01*
X95714286Y-112452381D02*
X95714286Y-113166667D01*
X95666666Y-113309524D01*
X95571428Y-113404762D01*
X95428571Y-113452381D01*
X95333333Y-113452381D01*
X96142857Y-112547619D02*
X96190476Y-112500000D01*
X96285714Y-112452381D01*
X96523810Y-112452381D01*
X96619048Y-112500000D01*
X96666667Y-112547619D01*
X96714286Y-112642857D01*
X96714286Y-112738095D01*
X96666667Y-112880952D01*
X96095238Y-113452381D01*
X96714286Y-113452381D01*
X97333333Y-112452381D02*
X97428572Y-112452381D01*
X97523810Y-112500000D01*
X97571429Y-112547619D01*
X97619048Y-112642857D01*
X97666667Y-112833333D01*
X97666667Y-113071429D01*
X97619048Y-113261905D01*
X97571429Y-113357143D01*
X97523810Y-113404762D01*
X97428572Y-113452381D01*
X97333333Y-113452381D01*
X97238095Y-113404762D01*
X97190476Y-113357143D01*
X97142857Y-113261905D01*
X97095238Y-113071429D01*
X97095238Y-112833333D01*
X97142857Y-112642857D01*
X97190476Y-112547619D01*
X97238095Y-112500000D01*
X97333333Y-112452381D01*
X98523810Y-112785714D02*
X98523810Y-113452381D01*
X98285714Y-112404762D02*
X98047619Y-113119048D01*
X98666667Y-113119048D01*
X71952381Y-69785714D02*
X72666667Y-69785714D01*
X72809524Y-69833334D01*
X72904762Y-69928572D01*
X72952381Y-70071429D01*
X72952381Y-70166667D01*
X72047619Y-69357143D02*
X72000000Y-69309524D01*
X71952381Y-69214286D01*
X71952381Y-68976190D01*
X72000000Y-68880952D01*
X72047619Y-68833333D01*
X72142857Y-68785714D01*
X72238095Y-68785714D01*
X72380952Y-68833333D01*
X72952381Y-69404762D01*
X72952381Y-68785714D01*
X71952381Y-68166667D02*
X71952381Y-68071428D01*
X72000000Y-67976190D01*
X72047619Y-67928571D01*
X72142857Y-67880952D01*
X72333333Y-67833333D01*
X72571429Y-67833333D01*
X72761905Y-67880952D01*
X72857143Y-67928571D01*
X72904762Y-67976190D01*
X72952381Y-68071428D01*
X72952381Y-68166667D01*
X72904762Y-68261905D01*
X72857143Y-68309524D01*
X72761905Y-68357143D01*
X72571429Y-68404762D01*
X72333333Y-68404762D01*
X72142857Y-68357143D01*
X72047619Y-68309524D01*
X72000000Y-68261905D01*
X71952381Y-68166667D01*
X71952381Y-66928571D02*
X71952381Y-67404762D01*
X72428571Y-67452381D01*
X72380952Y-67404762D01*
X72333333Y-67309524D01*
X72333333Y-67071428D01*
X72380952Y-66976190D01*
X72428571Y-66928571D01*
X72523810Y-66880952D01*
X72761905Y-66880952D01*
X72857143Y-66928571D01*
X72904762Y-66976190D01*
X72952381Y-67071428D01*
X72952381Y-67309524D01*
X72904762Y-67404762D01*
X72857143Y-67452381D01*
X79452381Y-69785714D02*
X80166667Y-69785714D01*
X80309524Y-69833334D01*
X80404762Y-69928572D01*
X80452381Y-70071429D01*
X80452381Y-70166667D01*
X79547619Y-69357143D02*
X79500000Y-69309524D01*
X79452381Y-69214286D01*
X79452381Y-68976190D01*
X79500000Y-68880952D01*
X79547619Y-68833333D01*
X79642857Y-68785714D01*
X79738095Y-68785714D01*
X79880952Y-68833333D01*
X80452381Y-69404762D01*
X80452381Y-68785714D01*
X79452381Y-68166667D02*
X79452381Y-68071428D01*
X79500000Y-67976190D01*
X79547619Y-67928571D01*
X79642857Y-67880952D01*
X79833333Y-67833333D01*
X80071429Y-67833333D01*
X80261905Y-67880952D01*
X80357143Y-67928571D01*
X80404762Y-67976190D01*
X80452381Y-68071428D01*
X80452381Y-68166667D01*
X80404762Y-68261905D01*
X80357143Y-68309524D01*
X80261905Y-68357143D01*
X80071429Y-68404762D01*
X79833333Y-68404762D01*
X79642857Y-68357143D01*
X79547619Y-68309524D01*
X79500000Y-68261905D01*
X79452381Y-68166667D01*
X79452381Y-66976190D02*
X79452381Y-67166667D01*
X79500000Y-67261905D01*
X79547619Y-67309524D01*
X79690476Y-67404762D01*
X79880952Y-67452381D01*
X80261905Y-67452381D01*
X80357143Y-67404762D01*
X80404762Y-67357143D01*
X80452381Y-67261905D01*
X80452381Y-67071428D01*
X80404762Y-66976190D01*
X80357143Y-66928571D01*
X80261905Y-66880952D01*
X80023810Y-66880952D01*
X79928571Y-66928571D01*
X79880952Y-66976190D01*
X79833333Y-67071428D01*
X79833333Y-67261905D01*
X79880952Y-67357143D01*
X79928571Y-67404762D01*
X80023810Y-67452381D01*
X76482381Y-101215714D02*
X77196667Y-101215714D01*
X77339524Y-101263334D01*
X77434762Y-101358572D01*
X77482381Y-101501429D01*
X77482381Y-101596667D01*
X76482381Y-100834762D02*
X76482381Y-100215714D01*
X76863333Y-100549048D01*
X76863333Y-100406190D01*
X76910952Y-100310952D01*
X76958571Y-100263333D01*
X77053810Y-100215714D01*
X77291905Y-100215714D01*
X77387143Y-100263333D01*
X77434762Y-100310952D01*
X77482381Y-100406190D01*
X77482381Y-100691905D01*
X77434762Y-100787143D01*
X77387143Y-100834762D01*
X76482381Y-99596667D02*
X76482381Y-99501428D01*
X76530000Y-99406190D01*
X76577619Y-99358571D01*
X76672857Y-99310952D01*
X76863333Y-99263333D01*
X77101429Y-99263333D01*
X77291905Y-99310952D01*
X77387143Y-99358571D01*
X77434762Y-99406190D01*
X77482381Y-99501428D01*
X77482381Y-99596667D01*
X77434762Y-99691905D01*
X77387143Y-99739524D01*
X77291905Y-99787143D01*
X77101429Y-99834762D01*
X76863333Y-99834762D01*
X76672857Y-99787143D01*
X76577619Y-99739524D01*
X76530000Y-99691905D01*
X76482381Y-99596667D01*
X77482381Y-98310952D02*
X77482381Y-98882381D01*
X77482381Y-98596667D02*
X76482381Y-98596667D01*
X76625238Y-98691905D01*
X76720476Y-98787143D01*
X76768095Y-98882381D01*
X67452381Y-147285714D02*
X68166667Y-147285714D01*
X68309524Y-147333334D01*
X68404762Y-147428572D01*
X68452381Y-147571429D01*
X68452381Y-147666667D01*
X67452381Y-146904762D02*
X67452381Y-146285714D01*
X67833333Y-146619048D01*
X67833333Y-146476190D01*
X67880952Y-146380952D01*
X67928571Y-146333333D01*
X68023810Y-146285714D01*
X68261905Y-146285714D01*
X68357143Y-146333333D01*
X68404762Y-146380952D01*
X68452381Y-146476190D01*
X68452381Y-146761905D01*
X68404762Y-146857143D01*
X68357143Y-146904762D01*
X67452381Y-145666667D02*
X67452381Y-145571428D01*
X67500000Y-145476190D01*
X67547619Y-145428571D01*
X67642857Y-145380952D01*
X67833333Y-145333333D01*
X68071429Y-145333333D01*
X68261905Y-145380952D01*
X68357143Y-145428571D01*
X68404762Y-145476190D01*
X68452381Y-145571428D01*
X68452381Y-145666667D01*
X68404762Y-145761905D01*
X68357143Y-145809524D01*
X68261905Y-145857143D01*
X68071429Y-145904762D01*
X67833333Y-145904762D01*
X67642857Y-145857143D01*
X67547619Y-145809524D01*
X67500000Y-145761905D01*
X67452381Y-145666667D01*
X67547619Y-144952381D02*
X67500000Y-144904762D01*
X67452381Y-144809524D01*
X67452381Y-144571428D01*
X67500000Y-144476190D01*
X67547619Y-144428571D01*
X67642857Y-144380952D01*
X67738095Y-144380952D01*
X67880952Y-144428571D01*
X68452381Y-145000000D01*
X68452381Y-144380952D01*
X98714286Y-141452381D02*
X98714286Y-142166667D01*
X98666666Y-142309524D01*
X98571428Y-142404762D01*
X98428571Y-142452381D01*
X98333333Y-142452381D01*
X99619048Y-141785714D02*
X99619048Y-142452381D01*
X99380952Y-141404762D02*
X99142857Y-142119048D01*
X99761905Y-142119048D01*
X100333333Y-141452381D02*
X100428572Y-141452381D01*
X100523810Y-141500000D01*
X100571429Y-141547619D01*
X100619048Y-141642857D01*
X100666667Y-141833333D01*
X100666667Y-142071429D01*
X100619048Y-142261905D01*
X100571429Y-142357143D01*
X100523810Y-142404762D01*
X100428572Y-142452381D01*
X100333333Y-142452381D01*
X100238095Y-142404762D01*
X100190476Y-142357143D01*
X100142857Y-142261905D01*
X100095238Y-142071429D01*
X100095238Y-141833333D01*
X100142857Y-141642857D01*
X100190476Y-141547619D01*
X100238095Y-141500000D01*
X100333333Y-141452381D01*
X101619048Y-142452381D02*
X101047619Y-142452381D01*
X101333333Y-142452381D02*
X101333333Y-141452381D01*
X101238095Y-141595238D01*
X101142857Y-141690476D01*
X101047619Y-141738095D01*
X76652381Y-93714286D02*
X77461905Y-93714286D01*
X77557143Y-93666667D01*
X77604762Y-93619048D01*
X77652381Y-93523810D01*
X77652381Y-93333333D01*
X77604762Y-93238095D01*
X77557143Y-93190476D01*
X77461905Y-93142857D01*
X76652381Y-93142857D01*
X76652381Y-92761905D02*
X76652381Y-92142857D01*
X77033333Y-92476191D01*
X77033333Y-92333333D01*
X77080952Y-92238095D01*
X77128571Y-92190476D01*
X77223810Y-92142857D01*
X77461905Y-92142857D01*
X77557143Y-92190476D01*
X77604762Y-92238095D01*
X77652381Y-92333333D01*
X77652381Y-92619048D01*
X77604762Y-92714286D01*
X77557143Y-92761905D01*
X76652381Y-91523810D02*
X76652381Y-91428571D01*
X76700000Y-91333333D01*
X76747619Y-91285714D01*
X76842857Y-91238095D01*
X77033333Y-91190476D01*
X77271429Y-91190476D01*
X77461905Y-91238095D01*
X77557143Y-91285714D01*
X77604762Y-91333333D01*
X77652381Y-91428571D01*
X77652381Y-91523810D01*
X77604762Y-91619048D01*
X77557143Y-91666667D01*
X77461905Y-91714286D01*
X77271429Y-91761905D01*
X77033333Y-91761905D01*
X76842857Y-91714286D01*
X76747619Y-91666667D01*
X76700000Y-91619048D01*
X76652381Y-91523810D01*
X77652381Y-90238095D02*
X77652381Y-90809524D01*
X77652381Y-90523810D02*
X76652381Y-90523810D01*
X76795238Y-90619048D01*
X76890476Y-90714286D01*
X76938095Y-90809524D01*
X97152381Y-137714286D02*
X97961905Y-137714286D01*
X98057143Y-137666667D01*
X98104762Y-137619048D01*
X98152381Y-137523810D01*
X98152381Y-137333333D01*
X98104762Y-137238095D01*
X98057143Y-137190476D01*
X97961905Y-137142857D01*
X97152381Y-137142857D01*
X97485714Y-136238095D02*
X98152381Y-136238095D01*
X97104762Y-136476191D02*
X97819048Y-136714286D01*
X97819048Y-136095238D01*
X97152381Y-135523810D02*
X97152381Y-135428571D01*
X97200000Y-135333333D01*
X97247619Y-135285714D01*
X97342857Y-135238095D01*
X97533333Y-135190476D01*
X97771429Y-135190476D01*
X97961905Y-135238095D01*
X98057143Y-135285714D01*
X98104762Y-135333333D01*
X98152381Y-135428571D01*
X98152381Y-135523810D01*
X98104762Y-135619048D01*
X98057143Y-135666667D01*
X97961905Y-135714286D01*
X97771429Y-135761905D01*
X97533333Y-135761905D01*
X97342857Y-135714286D01*
X97247619Y-135666667D01*
X97200000Y-135619048D01*
X97152381Y-135523810D01*
X98152381Y-134238095D02*
X98152381Y-134809524D01*
X98152381Y-134523810D02*
X97152381Y-134523810D01*
X97295238Y-134619048D01*
X97390476Y-134714286D01*
X97438095Y-134809524D01*
X78272381Y-126475714D02*
X78986667Y-126475714D01*
X79129524Y-126523334D01*
X79224762Y-126618572D01*
X79272381Y-126761429D01*
X79272381Y-126856667D01*
X78272381Y-126094762D02*
X78272381Y-125475714D01*
X78653333Y-125809048D01*
X78653333Y-125666190D01*
X78700952Y-125570952D01*
X78748571Y-125523333D01*
X78843810Y-125475714D01*
X79081905Y-125475714D01*
X79177143Y-125523333D01*
X79224762Y-125570952D01*
X79272381Y-125666190D01*
X79272381Y-125951905D01*
X79224762Y-126047143D01*
X79177143Y-126094762D01*
X78272381Y-124856667D02*
X78272381Y-124761428D01*
X78320000Y-124666190D01*
X78367619Y-124618571D01*
X78462857Y-124570952D01*
X78653333Y-124523333D01*
X78891429Y-124523333D01*
X79081905Y-124570952D01*
X79177143Y-124618571D01*
X79224762Y-124666190D01*
X79272381Y-124761428D01*
X79272381Y-124856667D01*
X79224762Y-124951905D01*
X79177143Y-124999524D01*
X79081905Y-125047143D01*
X78891429Y-125094762D01*
X78653333Y-125094762D01*
X78462857Y-125047143D01*
X78367619Y-124999524D01*
X78320000Y-124951905D01*
X78272381Y-124856667D01*
X78272381Y-124190000D02*
X78272381Y-123570952D01*
X78653333Y-123904286D01*
X78653333Y-123761428D01*
X78700952Y-123666190D01*
X78748571Y-123618571D01*
X78843810Y-123570952D01*
X79081905Y-123570952D01*
X79177143Y-123618571D01*
X79224762Y-123666190D01*
X79272381Y-123761428D01*
X79272381Y-124047143D01*
X79224762Y-124142381D01*
X79177143Y-124190000D01*
X87285714Y-141452381D02*
X87285714Y-142261905D01*
X87333333Y-142357143D01*
X87380952Y-142404762D01*
X87476190Y-142452381D01*
X87666667Y-142452381D01*
X87761905Y-142404762D01*
X87809524Y-142357143D01*
X87857143Y-142261905D01*
X87857143Y-141452381D01*
X88285714Y-141547619D02*
X88333333Y-141500000D01*
X88428571Y-141452381D01*
X88666667Y-141452381D01*
X88761905Y-141500000D01*
X88809524Y-141547619D01*
X88857143Y-141642857D01*
X88857143Y-141738095D01*
X88809524Y-141880952D01*
X88238095Y-142452381D01*
X88857143Y-142452381D01*
X89476190Y-141452381D02*
X89571429Y-141452381D01*
X89666667Y-141500000D01*
X89714286Y-141547619D01*
X89761905Y-141642857D01*
X89809524Y-141833333D01*
X89809524Y-142071429D01*
X89761905Y-142261905D01*
X89714286Y-142357143D01*
X89666667Y-142404762D01*
X89571429Y-142452381D01*
X89476190Y-142452381D01*
X89380952Y-142404762D01*
X89333333Y-142357143D01*
X89285714Y-142261905D01*
X89238095Y-142071429D01*
X89238095Y-141833333D01*
X89285714Y-141642857D01*
X89333333Y-141547619D01*
X89380952Y-141500000D01*
X89476190Y-141452381D01*
X90761905Y-142452381D02*
X90190476Y-142452381D01*
X90476190Y-142452381D02*
X90476190Y-141452381D01*
X90380952Y-141595238D01*
X90285714Y-141690476D01*
X90190476Y-141738095D01*
X79880953Y-133107143D02*
X79833334Y-133154762D01*
X79690477Y-133202381D01*
X79595239Y-133202381D01*
X79452381Y-133154762D01*
X79357143Y-133059524D01*
X79309524Y-132964286D01*
X79261905Y-132773810D01*
X79261905Y-132630952D01*
X79309524Y-132440476D01*
X79357143Y-132345238D01*
X79452381Y-132250000D01*
X79595239Y-132202381D01*
X79690477Y-132202381D01*
X79833334Y-132250000D01*
X79880953Y-132297619D01*
X80261905Y-132297619D02*
X80309524Y-132250000D01*
X80404762Y-132202381D01*
X80642858Y-132202381D01*
X80738096Y-132250000D01*
X80785715Y-132297619D01*
X80833334Y-132392857D01*
X80833334Y-132488095D01*
X80785715Y-132630952D01*
X80214286Y-133202381D01*
X80833334Y-133202381D01*
X81452381Y-132202381D02*
X81547620Y-132202381D01*
X81642858Y-132250000D01*
X81690477Y-132297619D01*
X81738096Y-132392857D01*
X81785715Y-132583333D01*
X81785715Y-132821429D01*
X81738096Y-133011905D01*
X81690477Y-133107143D01*
X81642858Y-133154762D01*
X81547620Y-133202381D01*
X81452381Y-133202381D01*
X81357143Y-133154762D01*
X81309524Y-133107143D01*
X81261905Y-133011905D01*
X81214286Y-132821429D01*
X81214286Y-132583333D01*
X81261905Y-132392857D01*
X81309524Y-132297619D01*
X81357143Y-132250000D01*
X81452381Y-132202381D01*
X82738096Y-133202381D02*
X82166667Y-133202381D01*
X82452381Y-133202381D02*
X82452381Y-132202381D01*
X82357143Y-132345238D01*
X82261905Y-132440476D01*
X82166667Y-132488095D01*
X79880953Y-136357143D02*
X79833334Y-136404762D01*
X79690477Y-136452381D01*
X79595239Y-136452381D01*
X79452381Y-136404762D01*
X79357143Y-136309524D01*
X79309524Y-136214286D01*
X79261905Y-136023810D01*
X79261905Y-135880952D01*
X79309524Y-135690476D01*
X79357143Y-135595238D01*
X79452381Y-135500000D01*
X79595239Y-135452381D01*
X79690477Y-135452381D01*
X79833334Y-135500000D01*
X79880953Y-135547619D01*
X80261905Y-135547619D02*
X80309524Y-135500000D01*
X80404762Y-135452381D01*
X80642858Y-135452381D01*
X80738096Y-135500000D01*
X80785715Y-135547619D01*
X80833334Y-135642857D01*
X80833334Y-135738095D01*
X80785715Y-135880952D01*
X80214286Y-136452381D01*
X80833334Y-136452381D01*
X81452381Y-135452381D02*
X81547620Y-135452381D01*
X81642858Y-135500000D01*
X81690477Y-135547619D01*
X81738096Y-135642857D01*
X81785715Y-135833333D01*
X81785715Y-136071429D01*
X81738096Y-136261905D01*
X81690477Y-136357143D01*
X81642858Y-136404762D01*
X81547620Y-136452381D01*
X81452381Y-136452381D01*
X81357143Y-136404762D01*
X81309524Y-136357143D01*
X81261905Y-136261905D01*
X81214286Y-136071429D01*
X81214286Y-135833333D01*
X81261905Y-135642857D01*
X81309524Y-135547619D01*
X81357143Y-135500000D01*
X81452381Y-135452381D01*
X82166667Y-135547619D02*
X82214286Y-135500000D01*
X82309524Y-135452381D01*
X82547620Y-135452381D01*
X82642858Y-135500000D01*
X82690477Y-135547619D01*
X82738096Y-135642857D01*
X82738096Y-135738095D01*
X82690477Y-135880952D01*
X82119048Y-136452381D01*
X82738096Y-136452381D01*
X87380953Y-128357143D02*
X87333334Y-128404762D01*
X87190477Y-128452381D01*
X87095239Y-128452381D01*
X86952381Y-128404762D01*
X86857143Y-128309524D01*
X86809524Y-128214286D01*
X86761905Y-128023810D01*
X86761905Y-127880952D01*
X86809524Y-127690476D01*
X86857143Y-127595238D01*
X86952381Y-127500000D01*
X87095239Y-127452381D01*
X87190477Y-127452381D01*
X87333334Y-127500000D01*
X87380953Y-127547619D01*
X87761905Y-127547619D02*
X87809524Y-127500000D01*
X87904762Y-127452381D01*
X88142858Y-127452381D01*
X88238096Y-127500000D01*
X88285715Y-127547619D01*
X88333334Y-127642857D01*
X88333334Y-127738095D01*
X88285715Y-127880952D01*
X87714286Y-128452381D01*
X88333334Y-128452381D01*
X88952381Y-127452381D02*
X89047620Y-127452381D01*
X89142858Y-127500000D01*
X89190477Y-127547619D01*
X89238096Y-127642857D01*
X89285715Y-127833333D01*
X89285715Y-128071429D01*
X89238096Y-128261905D01*
X89190477Y-128357143D01*
X89142858Y-128404762D01*
X89047620Y-128452381D01*
X88952381Y-128452381D01*
X88857143Y-128404762D01*
X88809524Y-128357143D01*
X88761905Y-128261905D01*
X88714286Y-128071429D01*
X88714286Y-127833333D01*
X88761905Y-127642857D01*
X88809524Y-127547619D01*
X88857143Y-127500000D01*
X88952381Y-127452381D01*
X89619048Y-127452381D02*
X90238096Y-127452381D01*
X89904762Y-127833333D01*
X90047620Y-127833333D01*
X90142858Y-127880952D01*
X90190477Y-127928571D01*
X90238096Y-128023810D01*
X90238096Y-128261905D01*
X90190477Y-128357143D01*
X90142858Y-128404762D01*
X90047620Y-128452381D01*
X89761905Y-128452381D01*
X89666667Y-128404762D01*
X89619048Y-128357143D01*
X79880953Y-139607143D02*
X79833334Y-139654762D01*
X79690477Y-139702381D01*
X79595239Y-139702381D01*
X79452381Y-139654762D01*
X79357143Y-139559524D01*
X79309524Y-139464286D01*
X79261905Y-139273810D01*
X79261905Y-139130952D01*
X79309524Y-138940476D01*
X79357143Y-138845238D01*
X79452381Y-138750000D01*
X79595239Y-138702381D01*
X79690477Y-138702381D01*
X79833334Y-138750000D01*
X79880953Y-138797619D01*
X80261905Y-138797619D02*
X80309524Y-138750000D01*
X80404762Y-138702381D01*
X80642858Y-138702381D01*
X80738096Y-138750000D01*
X80785715Y-138797619D01*
X80833334Y-138892857D01*
X80833334Y-138988095D01*
X80785715Y-139130952D01*
X80214286Y-139702381D01*
X80833334Y-139702381D01*
X81452381Y-138702381D02*
X81547620Y-138702381D01*
X81642858Y-138750000D01*
X81690477Y-138797619D01*
X81738096Y-138892857D01*
X81785715Y-139083333D01*
X81785715Y-139321429D01*
X81738096Y-139511905D01*
X81690477Y-139607143D01*
X81642858Y-139654762D01*
X81547620Y-139702381D01*
X81452381Y-139702381D01*
X81357143Y-139654762D01*
X81309524Y-139607143D01*
X81261905Y-139511905D01*
X81214286Y-139321429D01*
X81214286Y-139083333D01*
X81261905Y-138892857D01*
X81309524Y-138797619D01*
X81357143Y-138750000D01*
X81452381Y-138702381D01*
X82642858Y-139035714D02*
X82642858Y-139702381D01*
X82404762Y-138654762D02*
X82166667Y-139369048D01*
X82785715Y-139369048D01*
X69580953Y-86302381D02*
X69247619Y-85826190D01*
X69009524Y-86302381D02*
X69009524Y-85302381D01*
X69390477Y-85302381D01*
X69485715Y-85350000D01*
X69533334Y-85397619D01*
X69580953Y-85492857D01*
X69580953Y-85635714D01*
X69533334Y-85730952D01*
X69485715Y-85778571D01*
X69390477Y-85826190D01*
X69009524Y-85826190D01*
X69914286Y-85302381D02*
X70533334Y-85302381D01*
X70200000Y-85683333D01*
X70342858Y-85683333D01*
X70438096Y-85730952D01*
X70485715Y-85778571D01*
X70533334Y-85873810D01*
X70533334Y-86111905D01*
X70485715Y-86207143D01*
X70438096Y-86254762D01*
X70342858Y-86302381D01*
X70057143Y-86302381D01*
X69961905Y-86254762D01*
X69914286Y-86207143D01*
X71152381Y-85302381D02*
X71247620Y-85302381D01*
X71342858Y-85350000D01*
X71390477Y-85397619D01*
X71438096Y-85492857D01*
X71485715Y-85683333D01*
X71485715Y-85921429D01*
X71438096Y-86111905D01*
X71390477Y-86207143D01*
X71342858Y-86254762D01*
X71247620Y-86302381D01*
X71152381Y-86302381D01*
X71057143Y-86254762D01*
X71009524Y-86207143D01*
X70961905Y-86111905D01*
X70914286Y-85921429D01*
X70914286Y-85683333D01*
X70961905Y-85492857D01*
X71009524Y-85397619D01*
X71057143Y-85350000D01*
X71152381Y-85302381D01*
X72438096Y-86302381D02*
X71866667Y-86302381D01*
X72152381Y-86302381D02*
X72152381Y-85302381D01*
X72057143Y-85445238D01*
X71961905Y-85540476D01*
X71866667Y-85588095D01*
X74880953Y-107702381D02*
X74547619Y-107226190D01*
X74309524Y-107702381D02*
X74309524Y-106702381D01*
X74690477Y-106702381D01*
X74785715Y-106750000D01*
X74833334Y-106797619D01*
X74880953Y-106892857D01*
X74880953Y-107035714D01*
X74833334Y-107130952D01*
X74785715Y-107178571D01*
X74690477Y-107226190D01*
X74309524Y-107226190D01*
X75214286Y-106702381D02*
X75833334Y-106702381D01*
X75500000Y-107083333D01*
X75642858Y-107083333D01*
X75738096Y-107130952D01*
X75785715Y-107178571D01*
X75833334Y-107273810D01*
X75833334Y-107511905D01*
X75785715Y-107607143D01*
X75738096Y-107654762D01*
X75642858Y-107702381D01*
X75357143Y-107702381D01*
X75261905Y-107654762D01*
X75214286Y-107607143D01*
X76452381Y-106702381D02*
X76547620Y-106702381D01*
X76642858Y-106750000D01*
X76690477Y-106797619D01*
X76738096Y-106892857D01*
X76785715Y-107083333D01*
X76785715Y-107321429D01*
X76738096Y-107511905D01*
X76690477Y-107607143D01*
X76642858Y-107654762D01*
X76547620Y-107702381D01*
X76452381Y-107702381D01*
X76357143Y-107654762D01*
X76309524Y-107607143D01*
X76261905Y-107511905D01*
X76214286Y-107321429D01*
X76214286Y-107083333D01*
X76261905Y-106892857D01*
X76309524Y-106797619D01*
X76357143Y-106750000D01*
X76452381Y-106702381D01*
X77166667Y-106797619D02*
X77214286Y-106750000D01*
X77309524Y-106702381D01*
X77547620Y-106702381D01*
X77642858Y-106750000D01*
X77690477Y-106797619D01*
X77738096Y-106892857D01*
X77738096Y-106988095D01*
X77690477Y-107130952D01*
X77119048Y-107702381D01*
X77738096Y-107702381D01*
X69880953Y-107702381D02*
X69547619Y-107226190D01*
X69309524Y-107702381D02*
X69309524Y-106702381D01*
X69690477Y-106702381D01*
X69785715Y-106750000D01*
X69833334Y-106797619D01*
X69880953Y-106892857D01*
X69880953Y-107035714D01*
X69833334Y-107130952D01*
X69785715Y-107178571D01*
X69690477Y-107226190D01*
X69309524Y-107226190D01*
X70214286Y-106702381D02*
X70833334Y-106702381D01*
X70500000Y-107083333D01*
X70642858Y-107083333D01*
X70738096Y-107130952D01*
X70785715Y-107178571D01*
X70833334Y-107273810D01*
X70833334Y-107511905D01*
X70785715Y-107607143D01*
X70738096Y-107654762D01*
X70642858Y-107702381D01*
X70357143Y-107702381D01*
X70261905Y-107654762D01*
X70214286Y-107607143D01*
X71452381Y-106702381D02*
X71547620Y-106702381D01*
X71642858Y-106750000D01*
X71690477Y-106797619D01*
X71738096Y-106892857D01*
X71785715Y-107083333D01*
X71785715Y-107321429D01*
X71738096Y-107511905D01*
X71690477Y-107607143D01*
X71642858Y-107654762D01*
X71547620Y-107702381D01*
X71452381Y-107702381D01*
X71357143Y-107654762D01*
X71309524Y-107607143D01*
X71261905Y-107511905D01*
X71214286Y-107321429D01*
X71214286Y-107083333D01*
X71261905Y-106892857D01*
X71309524Y-106797619D01*
X71357143Y-106750000D01*
X71452381Y-106702381D01*
X72119048Y-106702381D02*
X72738096Y-106702381D01*
X72404762Y-107083333D01*
X72547620Y-107083333D01*
X72642858Y-107130952D01*
X72690477Y-107178571D01*
X72738096Y-107273810D01*
X72738096Y-107511905D01*
X72690477Y-107607143D01*
X72642858Y-107654762D01*
X72547620Y-107702381D01*
X72261905Y-107702381D01*
X72166667Y-107654762D01*
X72119048Y-107607143D01*
X109452381Y-129719047D02*
X108976190Y-130052381D01*
X109452381Y-130290476D02*
X108452381Y-130290476D01*
X108452381Y-129909523D01*
X108500000Y-129814285D01*
X108547619Y-129766666D01*
X108642857Y-129719047D01*
X108785714Y-129719047D01*
X108880952Y-129766666D01*
X108928571Y-129814285D01*
X108976190Y-129909523D01*
X108976190Y-130290476D01*
X108785714Y-128861904D02*
X109452381Y-128861904D01*
X108404762Y-129100000D02*
X109119048Y-129338095D01*
X109119048Y-128719047D01*
X108452381Y-128147619D02*
X108452381Y-128052380D01*
X108500000Y-127957142D01*
X108547619Y-127909523D01*
X108642857Y-127861904D01*
X108833333Y-127814285D01*
X109071429Y-127814285D01*
X109261905Y-127861904D01*
X109357143Y-127909523D01*
X109404762Y-127957142D01*
X109452381Y-128052380D01*
X109452381Y-128147619D01*
X109404762Y-128242857D01*
X109357143Y-128290476D01*
X109261905Y-128338095D01*
X109071429Y-128385714D01*
X108833333Y-128385714D01*
X108642857Y-128338095D01*
X108547619Y-128290476D01*
X108500000Y-128242857D01*
X108452381Y-128147619D01*
X109452381Y-126861904D02*
X109452381Y-127433333D01*
X109452381Y-127147619D02*
X108452381Y-127147619D01*
X108595238Y-127242857D01*
X108690476Y-127338095D01*
X108738095Y-127433333D01*
X95930953Y-130052381D02*
X95597619Y-129576190D01*
X95359524Y-130052381D02*
X95359524Y-129052381D01*
X95740477Y-129052381D01*
X95835715Y-129100000D01*
X95883334Y-129147619D01*
X95930953Y-129242857D01*
X95930953Y-129385714D01*
X95883334Y-129480952D01*
X95835715Y-129528571D01*
X95740477Y-129576190D01*
X95359524Y-129576190D01*
X96788096Y-129385714D02*
X96788096Y-130052381D01*
X96550000Y-129004762D02*
X96311905Y-129719048D01*
X96930953Y-129719048D01*
X97502381Y-129052381D02*
X97597620Y-129052381D01*
X97692858Y-129100000D01*
X97740477Y-129147619D01*
X97788096Y-129242857D01*
X97835715Y-129433333D01*
X97835715Y-129671429D01*
X97788096Y-129861905D01*
X97740477Y-129957143D01*
X97692858Y-130004762D01*
X97597620Y-130052381D01*
X97502381Y-130052381D01*
X97407143Y-130004762D01*
X97359524Y-129957143D01*
X97311905Y-129861905D01*
X97264286Y-129671429D01*
X97264286Y-129433333D01*
X97311905Y-129242857D01*
X97359524Y-129147619D01*
X97407143Y-129100000D01*
X97502381Y-129052381D01*
X98216667Y-129147619D02*
X98264286Y-129100000D01*
X98359524Y-129052381D01*
X98597620Y-129052381D01*
X98692858Y-129100000D01*
X98740477Y-129147619D01*
X98788096Y-129242857D01*
X98788096Y-129338095D01*
X98740477Y-129480952D01*
X98169048Y-130052381D01*
X98788096Y-130052381D01*
X93357143Y-126619047D02*
X93404762Y-126666666D01*
X93452381Y-126809523D01*
X93452381Y-126904761D01*
X93404762Y-127047619D01*
X93309524Y-127142857D01*
X93214286Y-127190476D01*
X93023810Y-127238095D01*
X92880952Y-127238095D01*
X92690476Y-127190476D01*
X92595238Y-127142857D01*
X92500000Y-127047619D01*
X92452381Y-126904761D01*
X92452381Y-126809523D01*
X92500000Y-126666666D01*
X92547619Y-126619047D01*
X92452381Y-126285714D02*
X92452381Y-125666666D01*
X92833333Y-126000000D01*
X92833333Y-125857142D01*
X92880952Y-125761904D01*
X92928571Y-125714285D01*
X93023810Y-125666666D01*
X93261905Y-125666666D01*
X93357143Y-125714285D01*
X93404762Y-125761904D01*
X93452381Y-125857142D01*
X93452381Y-126142857D01*
X93404762Y-126238095D01*
X93357143Y-126285714D01*
X92452381Y-125047619D02*
X92452381Y-124952380D01*
X92500000Y-124857142D01*
X92547619Y-124809523D01*
X92642857Y-124761904D01*
X92833333Y-124714285D01*
X93071429Y-124714285D01*
X93261905Y-124761904D01*
X93357143Y-124809523D01*
X93404762Y-124857142D01*
X93452381Y-124952380D01*
X93452381Y-125047619D01*
X93404762Y-125142857D01*
X93357143Y-125190476D01*
X93261905Y-125238095D01*
X93071429Y-125285714D01*
X92833333Y-125285714D01*
X92642857Y-125238095D01*
X92547619Y-125190476D01*
X92500000Y-125142857D01*
X92452381Y-125047619D01*
X92547619Y-124333333D02*
X92500000Y-124285714D01*
X92452381Y-124190476D01*
X92452381Y-123952380D01*
X92500000Y-123857142D01*
X92547619Y-123809523D01*
X92642857Y-123761904D01*
X92738095Y-123761904D01*
X92880952Y-123809523D01*
X93452381Y-124380952D01*
X93452381Y-123761904D01*
X91757143Y-126619047D02*
X91804762Y-126666666D01*
X91852381Y-126809523D01*
X91852381Y-126904761D01*
X91804762Y-127047619D01*
X91709524Y-127142857D01*
X91614286Y-127190476D01*
X91423810Y-127238095D01*
X91280952Y-127238095D01*
X91090476Y-127190476D01*
X90995238Y-127142857D01*
X90900000Y-127047619D01*
X90852381Y-126904761D01*
X90852381Y-126809523D01*
X90900000Y-126666666D01*
X90947619Y-126619047D01*
X90852381Y-126285714D02*
X90852381Y-125666666D01*
X91233333Y-126000000D01*
X91233333Y-125857142D01*
X91280952Y-125761904D01*
X91328571Y-125714285D01*
X91423810Y-125666666D01*
X91661905Y-125666666D01*
X91757143Y-125714285D01*
X91804762Y-125761904D01*
X91852381Y-125857142D01*
X91852381Y-126142857D01*
X91804762Y-126238095D01*
X91757143Y-126285714D01*
X90852381Y-125047619D02*
X90852381Y-124952380D01*
X90900000Y-124857142D01*
X90947619Y-124809523D01*
X91042857Y-124761904D01*
X91233333Y-124714285D01*
X91471429Y-124714285D01*
X91661905Y-124761904D01*
X91757143Y-124809523D01*
X91804762Y-124857142D01*
X91852381Y-124952380D01*
X91852381Y-125047619D01*
X91804762Y-125142857D01*
X91757143Y-125190476D01*
X91661905Y-125238095D01*
X91471429Y-125285714D01*
X91233333Y-125285714D01*
X91042857Y-125238095D01*
X90947619Y-125190476D01*
X90900000Y-125142857D01*
X90852381Y-125047619D01*
X90852381Y-124380952D02*
X90852381Y-123761904D01*
X91233333Y-124095238D01*
X91233333Y-123952380D01*
X91280952Y-123857142D01*
X91328571Y-123809523D01*
X91423810Y-123761904D01*
X91661905Y-123761904D01*
X91757143Y-123809523D01*
X91804762Y-123857142D01*
X91852381Y-123952380D01*
X91852381Y-124238095D01*
X91804762Y-124333333D01*
X91757143Y-124380952D01*
X101214286Y-95952381D02*
X101214286Y-96666667D01*
X101166666Y-96809524D01*
X101071428Y-96904762D01*
X100928571Y-96952381D01*
X100833333Y-96952381D01*
X101642857Y-96047619D02*
X101690476Y-96000000D01*
X101785714Y-95952381D01*
X102023810Y-95952381D01*
X102119048Y-96000000D01*
X102166667Y-96047619D01*
X102214286Y-96142857D01*
X102214286Y-96238095D01*
X102166667Y-96380952D01*
X101595238Y-96952381D01*
X102214286Y-96952381D01*
X102833333Y-95952381D02*
X102928572Y-95952381D01*
X103023810Y-96000000D01*
X103071429Y-96047619D01*
X103119048Y-96142857D01*
X103166667Y-96333333D01*
X103166667Y-96571429D01*
X103119048Y-96761905D01*
X103071429Y-96857143D01*
X103023810Y-96904762D01*
X102928572Y-96952381D01*
X102833333Y-96952381D01*
X102738095Y-96904762D01*
X102690476Y-96857143D01*
X102642857Y-96761905D01*
X102595238Y-96571429D01*
X102595238Y-96333333D01*
X102642857Y-96142857D01*
X102690476Y-96047619D01*
X102738095Y-96000000D01*
X102833333Y-95952381D01*
X104119048Y-96952381D02*
X103547619Y-96952381D01*
X103833333Y-96952381D02*
X103833333Y-95952381D01*
X103738095Y-96095238D01*
X103642857Y-96190476D01*
X103547619Y-96238095D01*
X68857143Y-95119047D02*
X68904762Y-95166666D01*
X68952381Y-95309523D01*
X68952381Y-95404761D01*
X68904762Y-95547619D01*
X68809524Y-95642857D01*
X68714286Y-95690476D01*
X68523810Y-95738095D01*
X68380952Y-95738095D01*
X68190476Y-95690476D01*
X68095238Y-95642857D01*
X68000000Y-95547619D01*
X67952381Y-95404761D01*
X67952381Y-95309523D01*
X68000000Y-95166666D01*
X68047619Y-95119047D01*
X67952381Y-94785714D02*
X67952381Y-94166666D01*
X68333333Y-94500000D01*
X68333333Y-94357142D01*
X68380952Y-94261904D01*
X68428571Y-94214285D01*
X68523810Y-94166666D01*
X68761905Y-94166666D01*
X68857143Y-94214285D01*
X68904762Y-94261904D01*
X68952381Y-94357142D01*
X68952381Y-94642857D01*
X68904762Y-94738095D01*
X68857143Y-94785714D01*
X67952381Y-93547619D02*
X67952381Y-93452380D01*
X68000000Y-93357142D01*
X68047619Y-93309523D01*
X68142857Y-93261904D01*
X68333333Y-93214285D01*
X68571429Y-93214285D01*
X68761905Y-93261904D01*
X68857143Y-93309523D01*
X68904762Y-93357142D01*
X68952381Y-93452380D01*
X68952381Y-93547619D01*
X68904762Y-93642857D01*
X68857143Y-93690476D01*
X68761905Y-93738095D01*
X68571429Y-93785714D01*
X68333333Y-93785714D01*
X68142857Y-93738095D01*
X68047619Y-93690476D01*
X68000000Y-93642857D01*
X67952381Y-93547619D01*
X68952381Y-92261904D02*
X68952381Y-92833333D01*
X68952381Y-92547619D02*
X67952381Y-92547619D01*
X68095238Y-92642857D01*
X68190476Y-92738095D01*
X68238095Y-92833333D01*
X69714286Y-68332381D02*
X69714286Y-69046667D01*
X69666666Y-69189524D01*
X69571428Y-69284762D01*
X69428571Y-69332381D01*
X69333333Y-69332381D01*
X70666667Y-68332381D02*
X70190476Y-68332381D01*
X70142857Y-68808571D01*
X70190476Y-68760952D01*
X70285714Y-68713333D01*
X70523810Y-68713333D01*
X70619048Y-68760952D01*
X70666667Y-68808571D01*
X70714286Y-68903810D01*
X70714286Y-69141905D01*
X70666667Y-69237143D01*
X70619048Y-69284762D01*
X70523810Y-69332381D01*
X70285714Y-69332381D01*
X70190476Y-69284762D01*
X70142857Y-69237143D01*
X71333333Y-68332381D02*
X71428572Y-68332381D01*
X71523810Y-68380000D01*
X71571429Y-68427619D01*
X71619048Y-68522857D01*
X71666667Y-68713333D01*
X71666667Y-68951429D01*
X71619048Y-69141905D01*
X71571429Y-69237143D01*
X71523810Y-69284762D01*
X71428572Y-69332381D01*
X71333333Y-69332381D01*
X71238095Y-69284762D01*
X71190476Y-69237143D01*
X71142857Y-69141905D01*
X71095238Y-68951429D01*
X71095238Y-68713333D01*
X71142857Y-68522857D01*
X71190476Y-68427619D01*
X71238095Y-68380000D01*
X71333333Y-68332381D01*
X72619048Y-69332381D02*
X72047619Y-69332381D01*
X72333333Y-69332381D02*
X72333333Y-68332381D01*
X72238095Y-68475238D01*
X72142857Y-68570476D01*
X72047619Y-68618095D01*
X75234286Y-74832381D02*
X75234286Y-75546667D01*
X75186666Y-75689524D01*
X75091428Y-75784762D01*
X74948571Y-75832381D01*
X74853333Y-75832381D01*
X76186667Y-74832381D02*
X75710476Y-74832381D01*
X75662857Y-75308571D01*
X75710476Y-75260952D01*
X75805714Y-75213333D01*
X76043810Y-75213333D01*
X76139048Y-75260952D01*
X76186667Y-75308571D01*
X76234286Y-75403810D01*
X76234286Y-75641905D01*
X76186667Y-75737143D01*
X76139048Y-75784762D01*
X76043810Y-75832381D01*
X75805714Y-75832381D01*
X75710476Y-75784762D01*
X75662857Y-75737143D01*
X76853333Y-74832381D02*
X76948572Y-74832381D01*
X77043810Y-74880000D01*
X77091429Y-74927619D01*
X77139048Y-75022857D01*
X77186667Y-75213333D01*
X77186667Y-75451429D01*
X77139048Y-75641905D01*
X77091429Y-75737143D01*
X77043810Y-75784762D01*
X76948572Y-75832381D01*
X76853333Y-75832381D01*
X76758095Y-75784762D01*
X76710476Y-75737143D01*
X76662857Y-75641905D01*
X76615238Y-75451429D01*
X76615238Y-75213333D01*
X76662857Y-75022857D01*
X76710476Y-74927619D01*
X76758095Y-74880000D01*
X76853333Y-74832381D01*
X77567619Y-74927619D02*
X77615238Y-74880000D01*
X77710476Y-74832381D01*
X77948572Y-74832381D01*
X78043810Y-74880000D01*
X78091429Y-74927619D01*
X78139048Y-75022857D01*
X78139048Y-75118095D01*
X78091429Y-75260952D01*
X77520000Y-75832381D01*
X78139048Y-75832381D01*
M02*
