G04 #@! TF.GenerationSoftware,KiCad,Pcbnew,(5.0.0)*
G04 #@! TF.CreationDate,2018-08-15T00:31:51+02:00*
G04 #@! TF.ProjectId,bpi-r1-can-ser,6270692D72312D63616E2D7365722E6B,rev?*
G04 #@! TF.SameCoordinates,Original*
G04 #@! TF.FileFunction,Legend,Top*
G04 #@! TF.FilePolarity,Positive*
%FSLAX46Y46*%
G04 Gerber Fmt 4.6, Leading zero omitted, Abs format (unit mm)*
G04 Created by KiCad (PCBNEW (5.0.0)) date 08/15/18 00:31:51*
%MOMM*%
%LPD*%
G01*
G04 APERTURE LIST*
%ADD10C,0.100000*%
%ADD11C,0.150000*%
%ADD12C,0.300000*%
%ADD13C,0.400000*%
%ADD14C,0.200000*%
%ADD15C,0.120000*%
G04 APERTURE END LIST*
D10*
D11*
X177002200Y-166007200D02*
X177002200Y-198007200D01*
X285002200Y-198007200D01*
X285002200Y-166007200D01*
X177002200Y-166007200D01*
D10*
D11*
X10000000Y-10000000D02*
X10000000Y-200007200D01*
X287002200Y-200007200D01*
X287002200Y-10000000D01*
X10000000Y-10000000D01*
D10*
D11*
X12000000Y-12000000D02*
X12000000Y-198007200D01*
X285002200Y-198007200D01*
X285002200Y-12000000D01*
X12000000Y-12000000D01*
D10*
D11*
X60000000Y-12000000D02*
X60000000Y-10000000D01*
D10*
D11*
X110000000Y-12000000D02*
X110000000Y-10000000D01*
D10*
D11*
X160000000Y-12000000D02*
X160000000Y-10000000D01*
D10*
D11*
X210000000Y-12000000D02*
X210000000Y-10000000D01*
D10*
D11*
X260000000Y-12000000D02*
X260000000Y-10000000D01*
D10*
D11*
X36065476Y-11588095D02*
X35322619Y-11588095D01*
X35694047Y-11588095D02*
X35694047Y-10288095D01*
X35570238Y-10473809D01*
X35446428Y-10597619D01*
X35322619Y-10659523D01*
D10*
D11*
X85322619Y-10411904D02*
X85384523Y-10350000D01*
X85508333Y-10288095D01*
X85817857Y-10288095D01*
X85941666Y-10350000D01*
X86003571Y-10411904D01*
X86065476Y-10535714D01*
X86065476Y-10659523D01*
X86003571Y-10845238D01*
X85260714Y-11588095D01*
X86065476Y-11588095D01*
D10*
D11*
X135260714Y-10288095D02*
X136065476Y-10288095D01*
X135632142Y-10783333D01*
X135817857Y-10783333D01*
X135941666Y-10845238D01*
X136003571Y-10907142D01*
X136065476Y-11030952D01*
X136065476Y-11340476D01*
X136003571Y-11464285D01*
X135941666Y-11526190D01*
X135817857Y-11588095D01*
X135446428Y-11588095D01*
X135322619Y-11526190D01*
X135260714Y-11464285D01*
D10*
D11*
X185941666Y-10721428D02*
X185941666Y-11588095D01*
X185632142Y-10226190D02*
X185322619Y-11154761D01*
X186127380Y-11154761D01*
D10*
D11*
X236003571Y-10288095D02*
X235384523Y-10288095D01*
X235322619Y-10907142D01*
X235384523Y-10845238D01*
X235508333Y-10783333D01*
X235817857Y-10783333D01*
X235941666Y-10845238D01*
X236003571Y-10907142D01*
X236065476Y-11030952D01*
X236065476Y-11340476D01*
X236003571Y-11464285D01*
X235941666Y-11526190D01*
X235817857Y-11588095D01*
X235508333Y-11588095D01*
X235384523Y-11526190D01*
X235322619Y-11464285D01*
D10*
D11*
X285941666Y-10288095D02*
X285694047Y-10288095D01*
X285570238Y-10350000D01*
X285508333Y-10411904D01*
X285384523Y-10597619D01*
X285322619Y-10845238D01*
X285322619Y-11340476D01*
X285384523Y-11464285D01*
X285446428Y-11526190D01*
X285570238Y-11588095D01*
X285817857Y-11588095D01*
X285941666Y-11526190D01*
X286003571Y-11464285D01*
X286065476Y-11340476D01*
X286065476Y-11030952D01*
X286003571Y-10907142D01*
X285941666Y-10845238D01*
X285817857Y-10783333D01*
X285570238Y-10783333D01*
X285446428Y-10845238D01*
X285384523Y-10907142D01*
X285322619Y-11030952D01*
D10*
D11*
X60000000Y-198007200D02*
X60000000Y-200007200D01*
D10*
D11*
X110000000Y-198007200D02*
X110000000Y-200007200D01*
D10*
D11*
X160000000Y-198007200D02*
X160000000Y-200007200D01*
D10*
D11*
X210000000Y-198007200D02*
X210000000Y-200007200D01*
D10*
D11*
X260000000Y-198007200D02*
X260000000Y-200007200D01*
D10*
D11*
X36065476Y-199595295D02*
X35322619Y-199595295D01*
X35694047Y-199595295D02*
X35694047Y-198295295D01*
X35570238Y-198481009D01*
X35446428Y-198604819D01*
X35322619Y-198666723D01*
D10*
D11*
X85322619Y-198419104D02*
X85384523Y-198357200D01*
X85508333Y-198295295D01*
X85817857Y-198295295D01*
X85941666Y-198357200D01*
X86003571Y-198419104D01*
X86065476Y-198542914D01*
X86065476Y-198666723D01*
X86003571Y-198852438D01*
X85260714Y-199595295D01*
X86065476Y-199595295D01*
D10*
D11*
X135260714Y-198295295D02*
X136065476Y-198295295D01*
X135632142Y-198790533D01*
X135817857Y-198790533D01*
X135941666Y-198852438D01*
X136003571Y-198914342D01*
X136065476Y-199038152D01*
X136065476Y-199347676D01*
X136003571Y-199471485D01*
X135941666Y-199533390D01*
X135817857Y-199595295D01*
X135446428Y-199595295D01*
X135322619Y-199533390D01*
X135260714Y-199471485D01*
D10*
D11*
X185941666Y-198728628D02*
X185941666Y-199595295D01*
X185632142Y-198233390D02*
X185322619Y-199161961D01*
X186127380Y-199161961D01*
D10*
D11*
X236003571Y-198295295D02*
X235384523Y-198295295D01*
X235322619Y-198914342D01*
X235384523Y-198852438D01*
X235508333Y-198790533D01*
X235817857Y-198790533D01*
X235941666Y-198852438D01*
X236003571Y-198914342D01*
X236065476Y-199038152D01*
X236065476Y-199347676D01*
X236003571Y-199471485D01*
X235941666Y-199533390D01*
X235817857Y-199595295D01*
X235508333Y-199595295D01*
X235384523Y-199533390D01*
X235322619Y-199471485D01*
D10*
D11*
X285941666Y-198295295D02*
X285694047Y-198295295D01*
X285570238Y-198357200D01*
X285508333Y-198419104D01*
X285384523Y-198604819D01*
X285322619Y-198852438D01*
X285322619Y-199347676D01*
X285384523Y-199471485D01*
X285446428Y-199533390D01*
X285570238Y-199595295D01*
X285817857Y-199595295D01*
X285941666Y-199533390D01*
X286003571Y-199471485D01*
X286065476Y-199347676D01*
X286065476Y-199038152D01*
X286003571Y-198914342D01*
X285941666Y-198852438D01*
X285817857Y-198790533D01*
X285570238Y-198790533D01*
X285446428Y-198852438D01*
X285384523Y-198914342D01*
X285322619Y-199038152D01*
D10*
D11*
X10000000Y-60000000D02*
X12000000Y-60000000D01*
D10*
D11*
X10000000Y-110000000D02*
X12000000Y-110000000D01*
D10*
D11*
X10000000Y-160000000D02*
X12000000Y-160000000D01*
D10*
D11*
X10690476Y-35216666D02*
X11309523Y-35216666D01*
X10566666Y-35588095D02*
X11000000Y-34288095D01*
X11433333Y-35588095D01*
D10*
D11*
X11092857Y-84907142D02*
X11278571Y-84969047D01*
X11340476Y-85030952D01*
X11402380Y-85154761D01*
X11402380Y-85340476D01*
X11340476Y-85464285D01*
X11278571Y-85526190D01*
X11154761Y-85588095D01*
X10659523Y-85588095D01*
X10659523Y-84288095D01*
X11092857Y-84288095D01*
X11216666Y-84350000D01*
X11278571Y-84411904D01*
X11340476Y-84535714D01*
X11340476Y-84659523D01*
X11278571Y-84783333D01*
X11216666Y-84845238D01*
X11092857Y-84907142D01*
X10659523Y-84907142D01*
D10*
D11*
X11402380Y-135464285D02*
X11340476Y-135526190D01*
X11154761Y-135588095D01*
X11030952Y-135588095D01*
X10845238Y-135526190D01*
X10721428Y-135402380D01*
X10659523Y-135278571D01*
X10597619Y-135030952D01*
X10597619Y-134845238D01*
X10659523Y-134597619D01*
X10721428Y-134473809D01*
X10845238Y-134350000D01*
X11030952Y-134288095D01*
X11154761Y-134288095D01*
X11340476Y-134350000D01*
X11402380Y-134411904D01*
D10*
D11*
X10659523Y-185588095D02*
X10659523Y-184288095D01*
X10969047Y-184288095D01*
X11154761Y-184350000D01*
X11278571Y-184473809D01*
X11340476Y-184597619D01*
X11402380Y-184845238D01*
X11402380Y-185030952D01*
X11340476Y-185278571D01*
X11278571Y-185402380D01*
X11154761Y-185526190D01*
X10969047Y-185588095D01*
X10659523Y-185588095D01*
D10*
D11*
X287002200Y-60000000D02*
X285002200Y-60000000D01*
D10*
D11*
X287002200Y-110000000D02*
X285002200Y-110000000D01*
D10*
D11*
X287002200Y-160000000D02*
X285002200Y-160000000D01*
D10*
D11*
X285692676Y-35216666D02*
X286311723Y-35216666D01*
X285568866Y-35588095D02*
X286002200Y-34288095D01*
X286435533Y-35588095D01*
D10*
D11*
X286095057Y-84907142D02*
X286280771Y-84969047D01*
X286342676Y-85030952D01*
X286404580Y-85154761D01*
X286404580Y-85340476D01*
X286342676Y-85464285D01*
X286280771Y-85526190D01*
X286156961Y-85588095D01*
X285661723Y-85588095D01*
X285661723Y-84288095D01*
X286095057Y-84288095D01*
X286218866Y-84350000D01*
X286280771Y-84411904D01*
X286342676Y-84535714D01*
X286342676Y-84659523D01*
X286280771Y-84783333D01*
X286218866Y-84845238D01*
X286095057Y-84907142D01*
X285661723Y-84907142D01*
D10*
D11*
X286404580Y-135464285D02*
X286342676Y-135526190D01*
X286156961Y-135588095D01*
X286033152Y-135588095D01*
X285847438Y-135526190D01*
X285723628Y-135402380D01*
X285661723Y-135278571D01*
X285599819Y-135030952D01*
X285599819Y-134845238D01*
X285661723Y-134597619D01*
X285723628Y-134473809D01*
X285847438Y-134350000D01*
X286033152Y-134288095D01*
X286156961Y-134288095D01*
X286342676Y-134350000D01*
X286404580Y-134411904D01*
D10*
D11*
X285661723Y-185588095D02*
X285661723Y-184288095D01*
X285971247Y-184288095D01*
X286156961Y-184350000D01*
X286280771Y-184473809D01*
X286342676Y-184597619D01*
X286404580Y-184845238D01*
X286404580Y-185030952D01*
X286342676Y-185278571D01*
X286280771Y-185402380D01*
X286156961Y-185526190D01*
X285971247Y-185588095D01*
X285661723Y-185588095D01*
D10*
D11*
X200434342Y-193785771D02*
X200434342Y-192285771D01*
X200791485Y-192285771D01*
X201005771Y-192357200D01*
X201148628Y-192500057D01*
X201220057Y-192642914D01*
X201291485Y-192928628D01*
X201291485Y-193142914D01*
X201220057Y-193428628D01*
X201148628Y-193571485D01*
X201005771Y-193714342D01*
X200791485Y-193785771D01*
X200434342Y-193785771D01*
X202577200Y-193785771D02*
X202577200Y-193000057D01*
X202505771Y-192857200D01*
X202362914Y-192785771D01*
X202077200Y-192785771D01*
X201934342Y-192857200D01*
X202577200Y-193714342D02*
X202434342Y-193785771D01*
X202077200Y-193785771D01*
X201934342Y-193714342D01*
X201862914Y-193571485D01*
X201862914Y-193428628D01*
X201934342Y-193285771D01*
X202077200Y-193214342D01*
X202434342Y-193214342D01*
X202577200Y-193142914D01*
X203077200Y-192785771D02*
X203648628Y-192785771D01*
X203291485Y-192285771D02*
X203291485Y-193571485D01*
X203362914Y-193714342D01*
X203505771Y-193785771D01*
X203648628Y-193785771D01*
X204720057Y-193714342D02*
X204577200Y-193785771D01*
X204291485Y-193785771D01*
X204148628Y-193714342D01*
X204077200Y-193571485D01*
X204077200Y-193000057D01*
X204148628Y-192857200D01*
X204291485Y-192785771D01*
X204577200Y-192785771D01*
X204720057Y-192857200D01*
X204791485Y-193000057D01*
X204791485Y-193142914D01*
X204077200Y-193285771D01*
X205434342Y-193642914D02*
X205505771Y-193714342D01*
X205434342Y-193785771D01*
X205362914Y-193714342D01*
X205434342Y-193642914D01*
X205434342Y-193785771D01*
X205434342Y-192857200D02*
X205505771Y-192928628D01*
X205434342Y-193000057D01*
X205362914Y-192928628D01*
X205434342Y-192857200D01*
X205434342Y-193000057D01*
D10*
D11*
X177002200Y-194507200D02*
X285002200Y-194507200D01*
D10*
D11*
X178434342Y-196585771D02*
X178434342Y-195085771D01*
X179291485Y-196585771D02*
X178648628Y-195728628D01*
X179291485Y-195085771D02*
X178434342Y-195942914D01*
X179934342Y-196585771D02*
X179934342Y-195585771D01*
X179934342Y-195085771D02*
X179862914Y-195157200D01*
X179934342Y-195228628D01*
X180005771Y-195157200D01*
X179934342Y-195085771D01*
X179934342Y-195228628D01*
X181505771Y-196442914D02*
X181434342Y-196514342D01*
X181220057Y-196585771D01*
X181077200Y-196585771D01*
X180862914Y-196514342D01*
X180720057Y-196371485D01*
X180648628Y-196228628D01*
X180577200Y-195942914D01*
X180577200Y-195728628D01*
X180648628Y-195442914D01*
X180720057Y-195300057D01*
X180862914Y-195157200D01*
X181077200Y-195085771D01*
X181220057Y-195085771D01*
X181434342Y-195157200D01*
X181505771Y-195228628D01*
X182791485Y-196585771D02*
X182791485Y-195800057D01*
X182720057Y-195657200D01*
X182577200Y-195585771D01*
X182291485Y-195585771D01*
X182148628Y-195657200D01*
X182791485Y-196514342D02*
X182648628Y-196585771D01*
X182291485Y-196585771D01*
X182148628Y-196514342D01*
X182077200Y-196371485D01*
X182077200Y-196228628D01*
X182148628Y-196085771D01*
X182291485Y-196014342D01*
X182648628Y-196014342D01*
X182791485Y-195942914D01*
X184148628Y-196585771D02*
X184148628Y-195085771D01*
X184148628Y-196514342D02*
X184005771Y-196585771D01*
X183720057Y-196585771D01*
X183577200Y-196514342D01*
X183505771Y-196442914D01*
X183434342Y-196300057D01*
X183434342Y-195871485D01*
X183505771Y-195728628D01*
X183577200Y-195657200D01*
X183720057Y-195585771D01*
X184005771Y-195585771D01*
X184148628Y-195657200D01*
X186005771Y-195800057D02*
X186505771Y-195800057D01*
X186720057Y-196585771D02*
X186005771Y-196585771D01*
X186005771Y-195085771D01*
X186720057Y-195085771D01*
X187362914Y-196442914D02*
X187434342Y-196514342D01*
X187362914Y-196585771D01*
X187291485Y-196514342D01*
X187362914Y-196442914D01*
X187362914Y-196585771D01*
X188077200Y-196585771D02*
X188077200Y-195085771D01*
X188434342Y-195085771D01*
X188648628Y-195157200D01*
X188791485Y-195300057D01*
X188862914Y-195442914D01*
X188934342Y-195728628D01*
X188934342Y-195942914D01*
X188862914Y-196228628D01*
X188791485Y-196371485D01*
X188648628Y-196514342D01*
X188434342Y-196585771D01*
X188077200Y-196585771D01*
X189577200Y-196442914D02*
X189648628Y-196514342D01*
X189577200Y-196585771D01*
X189505771Y-196514342D01*
X189577200Y-196442914D01*
X189577200Y-196585771D01*
X190220057Y-196157200D02*
X190934342Y-196157200D01*
X190077200Y-196585771D02*
X190577200Y-195085771D01*
X191077200Y-196585771D01*
X191577200Y-196442914D02*
X191648628Y-196514342D01*
X191577200Y-196585771D01*
X191505771Y-196514342D01*
X191577200Y-196442914D01*
X191577200Y-196585771D01*
X194577200Y-196585771D02*
X194577200Y-195085771D01*
X194720057Y-196014342D02*
X195148628Y-196585771D01*
X195148628Y-195585771D02*
X194577200Y-196157200D01*
X195791485Y-196585771D02*
X195791485Y-195585771D01*
X195791485Y-195085771D02*
X195720057Y-195157200D01*
X195791485Y-195228628D01*
X195862914Y-195157200D01*
X195791485Y-195085771D01*
X195791485Y-195228628D01*
X197148628Y-196514342D02*
X197005771Y-196585771D01*
X196720057Y-196585771D01*
X196577200Y-196514342D01*
X196505771Y-196442914D01*
X196434342Y-196300057D01*
X196434342Y-195871485D01*
X196505771Y-195728628D01*
X196577200Y-195657200D01*
X196720057Y-195585771D01*
X197005771Y-195585771D01*
X197148628Y-195657200D01*
X198434342Y-196585771D02*
X198434342Y-195800057D01*
X198362914Y-195657200D01*
X198220057Y-195585771D01*
X197934342Y-195585771D01*
X197791485Y-195657200D01*
X198434342Y-196514342D02*
X198291485Y-196585771D01*
X197934342Y-196585771D01*
X197791485Y-196514342D01*
X197720057Y-196371485D01*
X197720057Y-196228628D01*
X197791485Y-196085771D01*
X197934342Y-196014342D01*
X198291485Y-196014342D01*
X198434342Y-195942914D01*
X199791485Y-196585771D02*
X199791485Y-195085771D01*
X199791485Y-196514342D02*
X199648628Y-196585771D01*
X199362914Y-196585771D01*
X199220057Y-196514342D01*
X199148628Y-196442914D01*
X199077200Y-196300057D01*
X199077200Y-195871485D01*
X199148628Y-195728628D01*
X199220057Y-195657200D01*
X199362914Y-195585771D01*
X199648628Y-195585771D01*
X199791485Y-195657200D01*
X202077200Y-197157200D02*
X202005771Y-197085771D01*
X201862914Y-196871485D01*
X201791485Y-196728628D01*
X201720057Y-196514342D01*
X201648628Y-196157200D01*
X201648628Y-195871485D01*
X201720057Y-195514342D01*
X201791485Y-195300057D01*
X201862914Y-195157200D01*
X202005771Y-194942914D01*
X202077200Y-194871485D01*
X203362914Y-195085771D02*
X202648628Y-195085771D01*
X202577200Y-195800057D01*
X202648628Y-195728628D01*
X202791485Y-195657200D01*
X203148628Y-195657200D01*
X203291485Y-195728628D01*
X203362914Y-195800057D01*
X203434342Y-195942914D01*
X203434342Y-196300057D01*
X203362914Y-196442914D01*
X203291485Y-196514342D01*
X203148628Y-196585771D01*
X202791485Y-196585771D01*
X202648628Y-196514342D01*
X202577200Y-196442914D01*
X204077200Y-196442914D02*
X204148628Y-196514342D01*
X204077200Y-196585771D01*
X204005771Y-196514342D01*
X204077200Y-196442914D01*
X204077200Y-196585771D01*
X205077200Y-195085771D02*
X205220057Y-195085771D01*
X205362914Y-195157200D01*
X205434342Y-195228628D01*
X205505771Y-195371485D01*
X205577200Y-195657200D01*
X205577200Y-196014342D01*
X205505771Y-196300057D01*
X205434342Y-196442914D01*
X205362914Y-196514342D01*
X205220057Y-196585771D01*
X205077200Y-196585771D01*
X204934342Y-196514342D01*
X204862914Y-196442914D01*
X204791485Y-196300057D01*
X204720057Y-196014342D01*
X204720057Y-195657200D01*
X204791485Y-195371485D01*
X204862914Y-195228628D01*
X204934342Y-195157200D01*
X205077200Y-195085771D01*
X206220057Y-196442914D02*
X206291485Y-196514342D01*
X206220057Y-196585771D01*
X206148628Y-196514342D01*
X206220057Y-196442914D01*
X206220057Y-196585771D01*
X207220057Y-195085771D02*
X207362914Y-195085771D01*
X207505771Y-195157200D01*
X207577200Y-195228628D01*
X207648628Y-195371485D01*
X207720057Y-195657200D01*
X207720057Y-196014342D01*
X207648628Y-196300057D01*
X207577200Y-196442914D01*
X207505771Y-196514342D01*
X207362914Y-196585771D01*
X207220057Y-196585771D01*
X207077200Y-196514342D01*
X207005771Y-196442914D01*
X206934342Y-196300057D01*
X206862914Y-196014342D01*
X206862914Y-195657200D01*
X206934342Y-195371485D01*
X207005771Y-195228628D01*
X207077200Y-195157200D01*
X207220057Y-195085771D01*
X208220057Y-197157200D02*
X208291485Y-197085771D01*
X208434342Y-196871485D01*
X208505771Y-196728628D01*
X208577200Y-196514342D01*
X208648628Y-196157200D01*
X208648628Y-195871485D01*
X208577200Y-195514342D01*
X208505771Y-195300057D01*
X208434342Y-195157200D01*
X208291485Y-194942914D01*
X208220057Y-194871485D01*
D10*
D11*
X177002200Y-191507200D02*
X285002200Y-191507200D01*
D10*
D12*
X264411485Y-193785771D02*
X263911485Y-193071485D01*
X263554342Y-193785771D02*
X263554342Y-192285771D01*
X264125771Y-192285771D01*
X264268628Y-192357200D01*
X264340057Y-192428628D01*
X264411485Y-192571485D01*
X264411485Y-192785771D01*
X264340057Y-192928628D01*
X264268628Y-193000057D01*
X264125771Y-193071485D01*
X263554342Y-193071485D01*
X265625771Y-193714342D02*
X265482914Y-193785771D01*
X265197200Y-193785771D01*
X265054342Y-193714342D01*
X264982914Y-193571485D01*
X264982914Y-193000057D01*
X265054342Y-192857200D01*
X265197200Y-192785771D01*
X265482914Y-192785771D01*
X265625771Y-192857200D01*
X265697200Y-193000057D01*
X265697200Y-193142914D01*
X264982914Y-193285771D01*
X266197200Y-192785771D02*
X266554342Y-193785771D01*
X266911485Y-192785771D01*
X267482914Y-193642914D02*
X267554342Y-193714342D01*
X267482914Y-193785771D01*
X267411485Y-193714342D01*
X267482914Y-193642914D01*
X267482914Y-193785771D01*
X267482914Y-192857200D02*
X267554342Y-192928628D01*
X267482914Y-193000057D01*
X267411485Y-192928628D01*
X267482914Y-192857200D01*
X267482914Y-193000057D01*
D10*
D11*
X178362914Y-193714342D02*
X178577200Y-193785771D01*
X178934342Y-193785771D01*
X179077200Y-193714342D01*
X179148628Y-193642914D01*
X179220057Y-193500057D01*
X179220057Y-193357200D01*
X179148628Y-193214342D01*
X179077200Y-193142914D01*
X178934342Y-193071485D01*
X178648628Y-193000057D01*
X178505771Y-192928628D01*
X178434342Y-192857200D01*
X178362914Y-192714342D01*
X178362914Y-192571485D01*
X178434342Y-192428628D01*
X178505771Y-192357200D01*
X178648628Y-192285771D01*
X179005771Y-192285771D01*
X179220057Y-192357200D01*
X179862914Y-193785771D02*
X179862914Y-192785771D01*
X179862914Y-192285771D02*
X179791485Y-192357200D01*
X179862914Y-192428628D01*
X179934342Y-192357200D01*
X179862914Y-192285771D01*
X179862914Y-192428628D01*
X180434342Y-192785771D02*
X181220057Y-192785771D01*
X180434342Y-193785771D01*
X181220057Y-193785771D01*
X182362914Y-193714342D02*
X182220057Y-193785771D01*
X181934342Y-193785771D01*
X181791485Y-193714342D01*
X181720057Y-193571485D01*
X181720057Y-193000057D01*
X181791485Y-192857200D01*
X181934342Y-192785771D01*
X182220057Y-192785771D01*
X182362914Y-192857200D01*
X182434342Y-193000057D01*
X182434342Y-193142914D01*
X181720057Y-193285771D01*
X183077200Y-193642914D02*
X183148628Y-193714342D01*
X183077200Y-193785771D01*
X183005771Y-193714342D01*
X183077200Y-193642914D01*
X183077200Y-193785771D01*
X183077200Y-192857200D02*
X183148628Y-192928628D01*
X183077200Y-193000057D01*
X183005771Y-192928628D01*
X183077200Y-192857200D01*
X183077200Y-193000057D01*
X184862914Y-193357200D02*
X185577200Y-193357200D01*
X184720057Y-193785771D02*
X185220057Y-192285771D01*
X185720057Y-193785771D01*
X186862914Y-192785771D02*
X186862914Y-193785771D01*
X186505771Y-192214342D02*
X186148628Y-193285771D01*
X187077200Y-193285771D01*
D10*
D11*
X263434342Y-196585771D02*
X263434342Y-195085771D01*
X264791485Y-196585771D02*
X264791485Y-195085771D01*
X264791485Y-196514342D02*
X264648628Y-196585771D01*
X264362914Y-196585771D01*
X264220057Y-196514342D01*
X264148628Y-196442914D01*
X264077200Y-196300057D01*
X264077200Y-195871485D01*
X264148628Y-195728628D01*
X264220057Y-195657200D01*
X264362914Y-195585771D01*
X264648628Y-195585771D01*
X264791485Y-195657200D01*
X265505771Y-196442914D02*
X265577200Y-196514342D01*
X265505771Y-196585771D01*
X265434342Y-196514342D01*
X265505771Y-196442914D01*
X265505771Y-196585771D01*
X265505771Y-195657200D02*
X265577200Y-195728628D01*
X265505771Y-195800057D01*
X265434342Y-195728628D01*
X265505771Y-195657200D01*
X265505771Y-195800057D01*
X268148628Y-196585771D02*
X267291485Y-196585771D01*
X267720057Y-196585771D02*
X267720057Y-195085771D01*
X267577200Y-195300057D01*
X267434342Y-195442914D01*
X267291485Y-195514342D01*
X269862914Y-195014342D02*
X268577200Y-196942914D01*
X271148628Y-196585771D02*
X270291485Y-196585771D01*
X270720057Y-196585771D02*
X270720057Y-195085771D01*
X270577200Y-195300057D01*
X270434342Y-195442914D01*
X270291485Y-195514342D01*
D10*
D11*
X177002200Y-187507200D02*
X285002200Y-187507200D01*
D10*
D13*
X178714580Y-188211961D02*
X179857438Y-188211961D01*
X179036009Y-190211961D02*
X179286009Y-188211961D01*
X180274104Y-190211961D02*
X180440771Y-188878628D01*
X180524104Y-188211961D02*
X180416961Y-188307200D01*
X180500295Y-188402438D01*
X180607438Y-188307200D01*
X180524104Y-188211961D01*
X180500295Y-188402438D01*
X181107438Y-188878628D02*
X181869342Y-188878628D01*
X181476485Y-188211961D02*
X181262200Y-189926247D01*
X181333628Y-190116723D01*
X181512200Y-190211961D01*
X181702676Y-190211961D01*
X182655057Y-190211961D02*
X182476485Y-190116723D01*
X182405057Y-189926247D01*
X182619342Y-188211961D01*
X184190771Y-190116723D02*
X183988390Y-190211961D01*
X183607438Y-190211961D01*
X183428866Y-190116723D01*
X183357438Y-189926247D01*
X183452676Y-189164342D01*
X183571723Y-188973866D01*
X183774104Y-188878628D01*
X184155057Y-188878628D01*
X184333628Y-188973866D01*
X184405057Y-189164342D01*
X184381247Y-189354819D01*
X183405057Y-189545295D01*
X185155057Y-190021485D02*
X185238390Y-190116723D01*
X185131247Y-190211961D01*
X185047914Y-190116723D01*
X185155057Y-190021485D01*
X185131247Y-190211961D01*
X185286009Y-188973866D02*
X185369342Y-189069104D01*
X185262200Y-189164342D01*
X185178866Y-189069104D01*
X185286009Y-188973866D01*
X185262200Y-189164342D01*
D10*
D11*
X178934342Y-185600057D02*
X178434342Y-185600057D01*
X178434342Y-186385771D02*
X178434342Y-184885771D01*
X179148628Y-184885771D01*
X179720057Y-186385771D02*
X179720057Y-185385771D01*
X179720057Y-184885771D02*
X179648628Y-184957200D01*
X179720057Y-185028628D01*
X179791485Y-184957200D01*
X179720057Y-184885771D01*
X179720057Y-185028628D01*
X180648628Y-186385771D02*
X180505771Y-186314342D01*
X180434342Y-186171485D01*
X180434342Y-184885771D01*
X181791485Y-186314342D02*
X181648628Y-186385771D01*
X181362914Y-186385771D01*
X181220057Y-186314342D01*
X181148628Y-186171485D01*
X181148628Y-185600057D01*
X181220057Y-185457200D01*
X181362914Y-185385771D01*
X181648628Y-185385771D01*
X181791485Y-185457200D01*
X181862914Y-185600057D01*
X181862914Y-185742914D01*
X181148628Y-185885771D01*
X182505771Y-186242914D02*
X182577200Y-186314342D01*
X182505771Y-186385771D01*
X182434342Y-186314342D01*
X182505771Y-186242914D01*
X182505771Y-186385771D01*
X182505771Y-185457200D02*
X182577200Y-185528628D01*
X182505771Y-185600057D01*
X182434342Y-185528628D01*
X182505771Y-185457200D01*
X182505771Y-185600057D01*
X184362914Y-186385771D02*
X184362914Y-184885771D01*
X184362914Y-185457200D02*
X184505771Y-185385771D01*
X184791485Y-185385771D01*
X184934342Y-185457200D01*
X185005771Y-185528628D01*
X185077200Y-185671485D01*
X185077200Y-186100057D01*
X185005771Y-186242914D01*
X184934342Y-186314342D01*
X184791485Y-186385771D01*
X184505771Y-186385771D01*
X184362914Y-186314342D01*
X185720057Y-185385771D02*
X185720057Y-186885771D01*
X185720057Y-185457200D02*
X185862914Y-185385771D01*
X186148628Y-185385771D01*
X186291485Y-185457200D01*
X186362914Y-185528628D01*
X186434342Y-185671485D01*
X186434342Y-186100057D01*
X186362914Y-186242914D01*
X186291485Y-186314342D01*
X186148628Y-186385771D01*
X185862914Y-186385771D01*
X185720057Y-186314342D01*
X187077200Y-186385771D02*
X187077200Y-185385771D01*
X187077200Y-184885771D02*
X187005771Y-184957200D01*
X187077200Y-185028628D01*
X187148628Y-184957200D01*
X187077200Y-184885771D01*
X187077200Y-185028628D01*
X187791485Y-185814342D02*
X188934342Y-185814342D01*
X189648628Y-186385771D02*
X189648628Y-185385771D01*
X189648628Y-185671485D02*
X189720057Y-185528628D01*
X189791485Y-185457200D01*
X189934342Y-185385771D01*
X190077200Y-185385771D01*
X191362914Y-186385771D02*
X190505771Y-186385771D01*
X190934342Y-186385771D02*
X190934342Y-184885771D01*
X190791485Y-185100057D01*
X190648628Y-185242914D01*
X190505771Y-185314342D01*
X192005771Y-185814342D02*
X193148628Y-185814342D01*
X194505771Y-186314342D02*
X194362914Y-186385771D01*
X194077200Y-186385771D01*
X193934342Y-186314342D01*
X193862914Y-186242914D01*
X193791485Y-186100057D01*
X193791485Y-185671485D01*
X193862914Y-185528628D01*
X193934342Y-185457200D01*
X194077200Y-185385771D01*
X194362914Y-185385771D01*
X194505771Y-185457200D01*
X195791485Y-186385771D02*
X195791485Y-185600057D01*
X195720057Y-185457200D01*
X195577200Y-185385771D01*
X195291485Y-185385771D01*
X195148628Y-185457200D01*
X195791485Y-186314342D02*
X195648628Y-186385771D01*
X195291485Y-186385771D01*
X195148628Y-186314342D01*
X195077200Y-186171485D01*
X195077200Y-186028628D01*
X195148628Y-185885771D01*
X195291485Y-185814342D01*
X195648628Y-185814342D01*
X195791485Y-185742914D01*
X196505771Y-185385771D02*
X196505771Y-186385771D01*
X196505771Y-185528628D02*
X196577200Y-185457200D01*
X196720057Y-185385771D01*
X196934342Y-185385771D01*
X197077200Y-185457200D01*
X197148628Y-185600057D01*
X197148628Y-186385771D01*
X197862914Y-185814342D02*
X199005771Y-185814342D01*
X199648628Y-186314342D02*
X199791485Y-186385771D01*
X200077200Y-186385771D01*
X200220057Y-186314342D01*
X200291485Y-186171485D01*
X200291485Y-186100057D01*
X200220057Y-185957200D01*
X200077200Y-185885771D01*
X199862914Y-185885771D01*
X199720057Y-185814342D01*
X199648628Y-185671485D01*
X199648628Y-185600057D01*
X199720057Y-185457200D01*
X199862914Y-185385771D01*
X200077200Y-185385771D01*
X200220057Y-185457200D01*
X201505771Y-186314342D02*
X201362914Y-186385771D01*
X201077200Y-186385771D01*
X200934342Y-186314342D01*
X200862914Y-186171485D01*
X200862914Y-185600057D01*
X200934342Y-185457200D01*
X201077200Y-185385771D01*
X201362914Y-185385771D01*
X201505771Y-185457200D01*
X201577200Y-185600057D01*
X201577200Y-185742914D01*
X200862914Y-185885771D01*
X202220057Y-186385771D02*
X202220057Y-185385771D01*
X202220057Y-185671485D02*
X202291485Y-185528628D01*
X202362914Y-185457200D01*
X202505771Y-185385771D01*
X202648628Y-185385771D01*
X203148628Y-186242914D02*
X203220057Y-186314342D01*
X203148628Y-186385771D01*
X203077200Y-186314342D01*
X203148628Y-186242914D01*
X203148628Y-186385771D01*
X203862914Y-186385771D02*
X203862914Y-184885771D01*
X204005771Y-185814342D02*
X204434342Y-186385771D01*
X204434342Y-185385771D02*
X203862914Y-185957200D01*
X205077200Y-186385771D02*
X205077200Y-185385771D01*
X205077200Y-184885771D02*
X205005771Y-184957200D01*
X205077200Y-185028628D01*
X205148628Y-184957200D01*
X205077200Y-184885771D01*
X205077200Y-185028628D01*
X206434342Y-186314342D02*
X206291485Y-186385771D01*
X206005771Y-186385771D01*
X205862914Y-186314342D01*
X205791485Y-186242914D01*
X205720057Y-186100057D01*
X205720057Y-185671485D01*
X205791485Y-185528628D01*
X205862914Y-185457200D01*
X206005771Y-185385771D01*
X206291485Y-185385771D01*
X206434342Y-185457200D01*
X207720057Y-186385771D02*
X207720057Y-185600057D01*
X207648628Y-185457200D01*
X207505771Y-185385771D01*
X207220057Y-185385771D01*
X207077200Y-185457200D01*
X207720057Y-186314342D02*
X207577200Y-186385771D01*
X207220057Y-186385771D01*
X207077200Y-186314342D01*
X207005771Y-186171485D01*
X207005771Y-186028628D01*
X207077200Y-185885771D01*
X207220057Y-185814342D01*
X207577200Y-185814342D01*
X207720057Y-185742914D01*
X209077200Y-186385771D02*
X209077200Y-184885771D01*
X209077200Y-186314342D02*
X208934342Y-186385771D01*
X208648628Y-186385771D01*
X208505771Y-186314342D01*
X208434342Y-186242914D01*
X208362914Y-186100057D01*
X208362914Y-185671485D01*
X208434342Y-185528628D01*
X208505771Y-185457200D01*
X208648628Y-185385771D01*
X208934342Y-185385771D01*
X209077200Y-185457200D01*
X209434342Y-186528628D02*
X210577200Y-186528628D01*
X210934342Y-185385771D02*
X210934342Y-186885771D01*
X210934342Y-185457200D02*
X211077200Y-185385771D01*
X211362914Y-185385771D01*
X211505771Y-185457200D01*
X211577200Y-185528628D01*
X211648628Y-185671485D01*
X211648628Y-186100057D01*
X211577200Y-186242914D01*
X211505771Y-186314342D01*
X211362914Y-186385771D01*
X211077200Y-186385771D01*
X210934342Y-186314342D01*
X212934342Y-186314342D02*
X212791485Y-186385771D01*
X212505771Y-186385771D01*
X212362914Y-186314342D01*
X212291485Y-186242914D01*
X212220057Y-186100057D01*
X212220057Y-185671485D01*
X212291485Y-185528628D01*
X212362914Y-185457200D01*
X212505771Y-185385771D01*
X212791485Y-185385771D01*
X212934342Y-185457200D01*
X213577200Y-186385771D02*
X213577200Y-184885771D01*
X213577200Y-185457200D02*
X213720057Y-185385771D01*
X214005771Y-185385771D01*
X214148628Y-185457200D01*
X214220057Y-185528628D01*
X214291485Y-185671485D01*
X214291485Y-186100057D01*
X214220057Y-186242914D01*
X214148628Y-186314342D01*
X214005771Y-186385771D01*
X213720057Y-186385771D01*
X213577200Y-186314342D01*
D10*
D11*
X177002200Y-181507200D02*
X285002200Y-181507200D01*
D10*
D11*
X178362914Y-183614342D02*
X178577200Y-183685771D01*
X178934342Y-183685771D01*
X179077200Y-183614342D01*
X179148628Y-183542914D01*
X179220057Y-183400057D01*
X179220057Y-183257200D01*
X179148628Y-183114342D01*
X179077200Y-183042914D01*
X178934342Y-182971485D01*
X178648628Y-182900057D01*
X178505771Y-182828628D01*
X178434342Y-182757200D01*
X178362914Y-182614342D01*
X178362914Y-182471485D01*
X178434342Y-182328628D01*
X178505771Y-182257200D01*
X178648628Y-182185771D01*
X179005771Y-182185771D01*
X179220057Y-182257200D01*
X179862914Y-183685771D02*
X179862914Y-182185771D01*
X180505771Y-183685771D02*
X180505771Y-182900057D01*
X180434342Y-182757200D01*
X180291485Y-182685771D01*
X180077200Y-182685771D01*
X179934342Y-182757200D01*
X179862914Y-182828628D01*
X181791485Y-183614342D02*
X181648628Y-183685771D01*
X181362914Y-183685771D01*
X181220057Y-183614342D01*
X181148628Y-183471485D01*
X181148628Y-182900057D01*
X181220057Y-182757200D01*
X181362914Y-182685771D01*
X181648628Y-182685771D01*
X181791485Y-182757200D01*
X181862914Y-182900057D01*
X181862914Y-183042914D01*
X181148628Y-183185771D01*
X183077200Y-183614342D02*
X182934342Y-183685771D01*
X182648628Y-183685771D01*
X182505771Y-183614342D01*
X182434342Y-183471485D01*
X182434342Y-182900057D01*
X182505771Y-182757200D01*
X182648628Y-182685771D01*
X182934342Y-182685771D01*
X183077200Y-182757200D01*
X183148628Y-182900057D01*
X183148628Y-183042914D01*
X182434342Y-183185771D01*
X183577200Y-182685771D02*
X184148628Y-182685771D01*
X183791485Y-182185771D02*
X183791485Y-183471485D01*
X183862914Y-183614342D01*
X184005771Y-183685771D01*
X184148628Y-183685771D01*
X184648628Y-183542914D02*
X184720057Y-183614342D01*
X184648628Y-183685771D01*
X184577200Y-183614342D01*
X184648628Y-183542914D01*
X184648628Y-183685771D01*
X184648628Y-182757200D02*
X184720057Y-182828628D01*
X184648628Y-182900057D01*
X184577200Y-182828628D01*
X184648628Y-182757200D01*
X184648628Y-182900057D01*
D10*
D11*
X197002200Y-191507200D02*
X197002200Y-194507200D01*
D10*
D11*
X261002200Y-191507200D02*
X261002200Y-198007200D01*
D10*
X78376190Y-102000000D02*
X78376190Y-101714285D01*
X78876190Y-101857142D02*
X78376190Y-101857142D01*
X78852380Y-101357142D02*
X78876190Y-101404761D01*
X78876190Y-101500000D01*
X78852380Y-101547619D01*
X78804761Y-101571428D01*
X78614285Y-101571428D01*
X78566666Y-101547619D01*
X78542857Y-101500000D01*
X78542857Y-101404761D01*
X78566666Y-101357142D01*
X78614285Y-101333333D01*
X78661904Y-101333333D01*
X78709523Y-101571428D01*
X78876190Y-101119047D02*
X78542857Y-101119047D01*
X78638095Y-101119047D02*
X78590476Y-101095238D01*
X78566666Y-101071428D01*
X78542857Y-101023809D01*
X78542857Y-100976190D01*
X78876190Y-100809523D02*
X78542857Y-100809523D01*
X78590476Y-100809523D02*
X78566666Y-100785714D01*
X78542857Y-100738095D01*
X78542857Y-100666666D01*
X78566666Y-100619047D01*
X78614285Y-100595238D01*
X78876190Y-100595238D01*
X78614285Y-100595238D02*
X78566666Y-100571428D01*
X78542857Y-100523809D01*
X78542857Y-100452380D01*
X78566666Y-100404761D01*
X78614285Y-100380952D01*
X78876190Y-100380952D01*
X78876190Y-100142857D02*
X78542857Y-100142857D01*
X78376190Y-100142857D02*
X78400000Y-100166666D01*
X78423809Y-100142857D01*
X78400000Y-100119047D01*
X78376190Y-100142857D01*
X78423809Y-100142857D01*
X78542857Y-99904761D02*
X78876190Y-99904761D01*
X78590476Y-99904761D02*
X78566666Y-99880952D01*
X78542857Y-99833333D01*
X78542857Y-99761904D01*
X78566666Y-99714285D01*
X78614285Y-99690476D01*
X78876190Y-99690476D01*
X78876190Y-99238095D02*
X78614285Y-99238095D01*
X78566666Y-99261904D01*
X78542857Y-99309523D01*
X78542857Y-99404761D01*
X78566666Y-99452380D01*
X78852380Y-99238095D02*
X78876190Y-99285714D01*
X78876190Y-99404761D01*
X78852380Y-99452380D01*
X78804761Y-99476190D01*
X78757142Y-99476190D01*
X78709523Y-99452380D01*
X78685714Y-99404761D01*
X78685714Y-99285714D01*
X78661904Y-99238095D01*
X78542857Y-99071428D02*
X78542857Y-98880952D01*
X78376190Y-99000000D02*
X78804761Y-99000000D01*
X78852380Y-98976190D01*
X78876190Y-98928571D01*
X78876190Y-98880952D01*
X78876190Y-98714285D02*
X78542857Y-98714285D01*
X78376190Y-98714285D02*
X78400000Y-98738095D01*
X78423809Y-98714285D01*
X78400000Y-98690476D01*
X78376190Y-98714285D01*
X78423809Y-98714285D01*
X78876190Y-98404761D02*
X78852380Y-98452380D01*
X78828571Y-98476190D01*
X78780952Y-98500000D01*
X78638095Y-98500000D01*
X78590476Y-98476190D01*
X78566666Y-98452380D01*
X78542857Y-98404761D01*
X78542857Y-98333333D01*
X78566666Y-98285714D01*
X78590476Y-98261904D01*
X78638095Y-98238095D01*
X78780952Y-98238095D01*
X78828571Y-98261904D01*
X78852380Y-98285714D01*
X78876190Y-98333333D01*
X78876190Y-98404761D01*
X78542857Y-98023809D02*
X78876190Y-98023809D01*
X78590476Y-98023809D02*
X78566666Y-98000000D01*
X78542857Y-97952380D01*
X78542857Y-97880952D01*
X78566666Y-97833333D01*
X78614285Y-97809523D01*
X78876190Y-97809523D01*
X78828571Y-97571428D02*
X78852380Y-97547619D01*
X78876190Y-97571428D01*
X78852380Y-97595238D01*
X78828571Y-97571428D01*
X78876190Y-97571428D01*
X78566666Y-97571428D02*
X78590476Y-97547619D01*
X78614285Y-97571428D01*
X78590476Y-97595238D01*
X78566666Y-97571428D01*
X78614285Y-97571428D01*
X79726190Y-101333333D02*
X79726190Y-101619047D01*
X79726190Y-101476190D02*
X79226190Y-101476190D01*
X79297619Y-101523809D01*
X79345238Y-101571428D01*
X79369047Y-101619047D01*
X79535714Y-101119047D02*
X79535714Y-100738095D01*
X79273809Y-100523809D02*
X79250000Y-100500000D01*
X79226190Y-100452380D01*
X79226190Y-100333333D01*
X79250000Y-100285714D01*
X79273809Y-100261904D01*
X79321428Y-100238095D01*
X79369047Y-100238095D01*
X79440476Y-100261904D01*
X79726190Y-100547619D01*
X79726190Y-100238095D01*
X79702380Y-99428571D02*
X79726190Y-99476190D01*
X79726190Y-99571428D01*
X79702380Y-99619047D01*
X79678571Y-99642857D01*
X79630952Y-99666666D01*
X79488095Y-99666666D01*
X79440476Y-99642857D01*
X79416666Y-99619047D01*
X79392857Y-99571428D01*
X79392857Y-99476190D01*
X79416666Y-99428571D01*
X79726190Y-99142857D02*
X79702380Y-99190476D01*
X79654761Y-99214285D01*
X79226190Y-99214285D01*
X79726190Y-98880952D02*
X79702380Y-98928571D01*
X79678571Y-98952380D01*
X79630952Y-98976190D01*
X79488095Y-98976190D01*
X79440476Y-98952380D01*
X79416666Y-98928571D01*
X79392857Y-98880952D01*
X79392857Y-98809523D01*
X79416666Y-98761904D01*
X79440476Y-98738095D01*
X79488095Y-98714285D01*
X79630952Y-98714285D01*
X79678571Y-98738095D01*
X79702380Y-98761904D01*
X79726190Y-98809523D01*
X79726190Y-98880952D01*
X79702380Y-98523809D02*
X79726190Y-98476190D01*
X79726190Y-98380952D01*
X79702380Y-98333333D01*
X79654761Y-98309523D01*
X79630952Y-98309523D01*
X79583333Y-98333333D01*
X79559523Y-98380952D01*
X79559523Y-98452380D01*
X79535714Y-98500000D01*
X79488095Y-98523809D01*
X79464285Y-98523809D01*
X79416666Y-98500000D01*
X79392857Y-98452380D01*
X79392857Y-98380952D01*
X79416666Y-98333333D01*
X79702380Y-97904761D02*
X79726190Y-97952380D01*
X79726190Y-98047619D01*
X79702380Y-98095238D01*
X79654761Y-98119047D01*
X79464285Y-98119047D01*
X79416666Y-98095238D01*
X79392857Y-98047619D01*
X79392857Y-97952380D01*
X79416666Y-97904761D01*
X79464285Y-97880952D01*
X79511904Y-97880952D01*
X79559523Y-98119047D01*
X80076190Y-101642857D02*
X80076190Y-101333333D01*
X80266666Y-101500000D01*
X80266666Y-101428571D01*
X80290476Y-101380952D01*
X80314285Y-101357142D01*
X80361904Y-101333333D01*
X80480952Y-101333333D01*
X80528571Y-101357142D01*
X80552380Y-101380952D01*
X80576190Y-101428571D01*
X80576190Y-101571428D01*
X80552380Y-101619047D01*
X80528571Y-101642857D01*
X80385714Y-101119047D02*
X80385714Y-100738095D01*
X80242857Y-100285714D02*
X80576190Y-100285714D01*
X80052380Y-100404761D02*
X80409523Y-100523809D01*
X80409523Y-100214285D01*
X80552380Y-99428571D02*
X80576190Y-99476190D01*
X80576190Y-99571428D01*
X80552380Y-99619047D01*
X80528571Y-99642857D01*
X80480952Y-99666666D01*
X80338095Y-99666666D01*
X80290476Y-99642857D01*
X80266666Y-99619047D01*
X80242857Y-99571428D01*
X80242857Y-99476190D01*
X80266666Y-99428571D01*
X80576190Y-99142857D02*
X80552380Y-99190476D01*
X80504761Y-99214285D01*
X80076190Y-99214285D01*
X80576190Y-98880952D02*
X80552380Y-98928571D01*
X80528571Y-98952380D01*
X80480952Y-98976190D01*
X80338095Y-98976190D01*
X80290476Y-98952380D01*
X80266666Y-98928571D01*
X80242857Y-98880952D01*
X80242857Y-98809523D01*
X80266666Y-98761904D01*
X80290476Y-98738095D01*
X80338095Y-98714285D01*
X80480952Y-98714285D01*
X80528571Y-98738095D01*
X80552380Y-98761904D01*
X80576190Y-98809523D01*
X80576190Y-98880952D01*
X80552380Y-98523809D02*
X80576190Y-98476190D01*
X80576190Y-98380952D01*
X80552380Y-98333333D01*
X80504761Y-98309523D01*
X80480952Y-98309523D01*
X80433333Y-98333333D01*
X80409523Y-98380952D01*
X80409523Y-98452380D01*
X80385714Y-98500000D01*
X80338095Y-98523809D01*
X80314285Y-98523809D01*
X80266666Y-98500000D01*
X80242857Y-98452380D01*
X80242857Y-98380952D01*
X80266666Y-98333333D01*
X80552380Y-97904761D02*
X80576190Y-97952380D01*
X80576190Y-98047619D01*
X80552380Y-98095238D01*
X80504761Y-98119047D01*
X80314285Y-98119047D01*
X80266666Y-98095238D01*
X80242857Y-98047619D01*
X80242857Y-97952380D01*
X80266666Y-97904761D01*
X80314285Y-97880952D01*
X80361904Y-97880952D01*
X80409523Y-98119047D01*
D12*
X118057142Y-65964285D02*
X118128571Y-66107142D01*
X118128571Y-66392857D01*
X118057142Y-66535714D01*
X117985714Y-66607142D01*
X117842857Y-66678571D01*
X117414285Y-66678571D01*
X117271428Y-66607142D01*
X117200000Y-66535714D01*
X117128571Y-66392857D01*
X117128571Y-66107142D01*
X117200000Y-65964285D01*
X118128571Y-65107142D02*
X118057142Y-65250000D01*
X117914285Y-65321428D01*
X116628571Y-65321428D01*
X118128571Y-64321428D02*
X118057142Y-64464285D01*
X117985714Y-64535714D01*
X117842857Y-64607142D01*
X117414285Y-64607142D01*
X117271428Y-64535714D01*
X117200000Y-64464285D01*
X117128571Y-64321428D01*
X117128571Y-64107142D01*
X117200000Y-63964285D01*
X117271428Y-63892857D01*
X117414285Y-63821428D01*
X117842857Y-63821428D01*
X117985714Y-63892857D01*
X118057142Y-63964285D01*
X118128571Y-64107142D01*
X118128571Y-64321428D01*
X118057142Y-63250000D02*
X118128571Y-63107142D01*
X118128571Y-62821428D01*
X118057142Y-62678571D01*
X117914285Y-62607142D01*
X117842857Y-62607142D01*
X117700000Y-62678571D01*
X117628571Y-62821428D01*
X117628571Y-63035714D01*
X117557142Y-63178571D01*
X117414285Y-63250000D01*
X117342857Y-63250000D01*
X117200000Y-63178571D01*
X117128571Y-63035714D01*
X117128571Y-62821428D01*
X117200000Y-62678571D01*
X118057142Y-61392857D02*
X118128571Y-61535714D01*
X118128571Y-61821428D01*
X118057142Y-61964285D01*
X117914285Y-62035714D01*
X117342857Y-62035714D01*
X117200000Y-61964285D01*
X117128571Y-61821428D01*
X117128571Y-61535714D01*
X117200000Y-61392857D01*
X117342857Y-61321428D01*
X117485714Y-61321428D01*
X117628571Y-62035714D01*
X120678571Y-66107142D02*
X120607142Y-66250000D01*
X120535714Y-66321428D01*
X120392857Y-66392857D01*
X119964285Y-66392857D01*
X119821428Y-66321428D01*
X119750000Y-66250000D01*
X119678571Y-66107142D01*
X119678571Y-65892857D01*
X119750000Y-65750000D01*
X119821428Y-65678571D01*
X119964285Y-65607142D01*
X120392857Y-65607142D01*
X120535714Y-65678571D01*
X120607142Y-65750000D01*
X120678571Y-65892857D01*
X120678571Y-66107142D01*
X119678571Y-64964285D02*
X121178571Y-64964285D01*
X119750000Y-64964285D02*
X119678571Y-64821428D01*
X119678571Y-64535714D01*
X119750000Y-64392857D01*
X119821428Y-64321428D01*
X119964285Y-64250000D01*
X120392857Y-64250000D01*
X120535714Y-64321428D01*
X120607142Y-64392857D01*
X120678571Y-64535714D01*
X120678571Y-64821428D01*
X120607142Y-64964285D01*
X120607142Y-63035714D02*
X120678571Y-63178571D01*
X120678571Y-63464285D01*
X120607142Y-63607142D01*
X120464285Y-63678571D01*
X119892857Y-63678571D01*
X119750000Y-63607142D01*
X119678571Y-63464285D01*
X119678571Y-63178571D01*
X119750000Y-63035714D01*
X119892857Y-62964285D01*
X120035714Y-62964285D01*
X120178571Y-63678571D01*
X119678571Y-62321428D02*
X120678571Y-62321428D01*
X119821428Y-62321428D02*
X119750000Y-62250000D01*
X119678571Y-62107142D01*
X119678571Y-61892857D01*
X119750000Y-61750000D01*
X119892857Y-61678571D01*
X120678571Y-61678571D01*
X122657142Y-65928571D02*
X122657142Y-64785714D01*
X123228571Y-65357142D02*
X122085714Y-65357142D01*
X121728571Y-63357142D02*
X121728571Y-64071428D01*
X122442857Y-64142857D01*
X122371428Y-64071428D01*
X122300000Y-63928571D01*
X122300000Y-63571428D01*
X122371428Y-63428571D01*
X122442857Y-63357142D01*
X122585714Y-63285714D01*
X122942857Y-63285714D01*
X123085714Y-63357142D01*
X123157142Y-63428571D01*
X123228571Y-63571428D01*
X123228571Y-63928571D01*
X123157142Y-64071428D01*
X123085714Y-64142857D01*
X121728571Y-62857142D02*
X123228571Y-62357142D01*
X121728571Y-61857142D01*
X114200000Y-55892857D02*
X114128571Y-56035714D01*
X114128571Y-56250000D01*
X114200000Y-56464285D01*
X114342857Y-56607142D01*
X114485714Y-56678571D01*
X114771428Y-56750000D01*
X114985714Y-56750000D01*
X115271428Y-56678571D01*
X115414285Y-56607142D01*
X115557142Y-56464285D01*
X115628571Y-56250000D01*
X115628571Y-56107142D01*
X115557142Y-55892857D01*
X115485714Y-55821428D01*
X114985714Y-55821428D01*
X114985714Y-56107142D01*
X115628571Y-55178571D02*
X114128571Y-55178571D01*
X115628571Y-54321428D01*
X114128571Y-54321428D01*
X115628571Y-53607142D02*
X114128571Y-53607142D01*
X114128571Y-53250000D01*
X114200000Y-53035714D01*
X114342857Y-52892857D01*
X114485714Y-52821428D01*
X114771428Y-52750000D01*
X114985714Y-52750000D01*
X115271428Y-52821428D01*
X115414285Y-52892857D01*
X115557142Y-53035714D01*
X115628571Y-53250000D01*
X115628571Y-53607142D01*
X118178571Y-55535714D02*
X116678571Y-55535714D01*
X118178571Y-54821428D02*
X116678571Y-54821428D01*
X118178571Y-53964285D01*
X116678571Y-53964285D01*
X120157142Y-58821428D02*
X120157142Y-57678571D01*
X120728571Y-58250000D02*
X119585714Y-58250000D01*
X119228571Y-56250000D02*
X119228571Y-56964285D01*
X119942857Y-57035714D01*
X119871428Y-56964285D01*
X119800000Y-56821428D01*
X119800000Y-56464285D01*
X119871428Y-56321428D01*
X119942857Y-56250000D01*
X120085714Y-56178571D01*
X120442857Y-56178571D01*
X120585714Y-56250000D01*
X120657142Y-56321428D01*
X120728571Y-56464285D01*
X120728571Y-56821428D01*
X120657142Y-56964285D01*
X120585714Y-57035714D01*
X119228571Y-55750000D02*
X120728571Y-55250000D01*
X119228571Y-54750000D01*
X120657142Y-53178571D02*
X120728571Y-52964285D01*
X120728571Y-52607142D01*
X120657142Y-52464285D01*
X120585714Y-52392857D01*
X120442857Y-52321428D01*
X120300000Y-52321428D01*
X120157142Y-52392857D01*
X120085714Y-52464285D01*
X120014285Y-52607142D01*
X119942857Y-52892857D01*
X119871428Y-53035714D01*
X119800000Y-53107142D01*
X119657142Y-53178571D01*
X119514285Y-53178571D01*
X119371428Y-53107142D01*
X119300000Y-53035714D01*
X119228571Y-52892857D01*
X119228571Y-52535714D01*
X119300000Y-52321428D01*
X119228571Y-51821428D02*
X120728571Y-51464285D01*
X119657142Y-51178571D01*
X120728571Y-50892857D01*
X119228571Y-50535714D01*
X204928571Y-103285714D02*
X204928571Y-104000000D01*
X205642857Y-104071428D01*
X205571428Y-104000000D01*
X205500000Y-103857142D01*
X205500000Y-103500000D01*
X205571428Y-103357142D01*
X205642857Y-103285714D01*
X205785714Y-103214285D01*
X206142857Y-103214285D01*
X206285714Y-103285714D01*
X206357142Y-103357142D01*
X206428571Y-103500000D01*
X206428571Y-103857142D01*
X206357142Y-104000000D01*
X206285714Y-104071428D01*
X206000000Y-102642857D02*
X206000000Y-101928571D01*
X206428571Y-102785714D02*
X204928571Y-102285714D01*
X206428571Y-101785714D01*
X194071428Y-82678571D02*
X194071428Y-81178571D01*
X194928571Y-82678571D01*
X194928571Y-81178571D01*
X194964285Y-92678571D02*
X194250000Y-92678571D01*
X194250000Y-91178571D01*
X193428571Y-87928571D02*
X193428571Y-86428571D01*
X194000000Y-86428571D01*
X194142857Y-86500000D01*
X194214285Y-86571428D01*
X194285714Y-86714285D01*
X194285714Y-86928571D01*
X194214285Y-87071428D01*
X194142857Y-87142857D01*
X194000000Y-87214285D01*
X193428571Y-87214285D01*
X194928571Y-87142857D02*
X195428571Y-87142857D01*
X195642857Y-87928571D02*
X194928571Y-87928571D01*
X194928571Y-86428571D01*
X195642857Y-86428571D01*
X194214285Y-134428571D02*
X193500000Y-134428571D01*
X193500000Y-132928571D01*
X192678571Y-129678571D02*
X192678571Y-128178571D01*
X193250000Y-128178571D01*
X193392857Y-128250000D01*
X193464285Y-128321428D01*
X193535714Y-128464285D01*
X193535714Y-128678571D01*
X193464285Y-128821428D01*
X193392857Y-128892857D01*
X193250000Y-128964285D01*
X192678571Y-128964285D01*
X194178571Y-128892857D02*
X194678571Y-128892857D01*
X194892857Y-129678571D02*
X194178571Y-129678571D01*
X194178571Y-128178571D01*
X194892857Y-128178571D01*
X193321428Y-124428571D02*
X193321428Y-122928571D01*
X194178571Y-124428571D01*
X194178571Y-122928571D01*
D14*
X79800000Y-68600000D02*
X79800000Y-69800000D01*
X79400000Y-68600000D02*
X79800000Y-68600000D01*
X79400000Y-69800000D02*
X79400000Y-68600000D01*
X79800000Y-69800000D02*
X79400000Y-69800000D01*
X73100000Y-67100000D02*
X73100000Y-68300000D01*
X72700000Y-67100000D02*
X73100000Y-67100000D01*
X72700000Y-68300000D02*
X72700000Y-67100000D01*
X73100000Y-68300000D02*
X72700000Y-68300000D01*
X97100000Y-112800000D02*
X97100000Y-112400000D01*
X98300000Y-112800000D02*
X97100000Y-112800000D01*
X98300000Y-112400000D02*
X98300000Y-112800000D01*
X97100000Y-112400000D02*
X98300000Y-112400000D01*
X95700000Y-116800000D02*
X95700000Y-116400000D01*
X96900000Y-116800000D02*
X95700000Y-116800000D01*
X96900000Y-116400000D02*
X96900000Y-116800000D01*
X95700000Y-116400000D02*
X96900000Y-116400000D01*
D15*
G04 #@! TO.C,J303*
X66580000Y-109305000D02*
X77060000Y-109305000D01*
X77060000Y-109305000D02*
X77060000Y-140275000D01*
X77060000Y-140275000D02*
X66580000Y-140275000D01*
X77954338Y-119000000D02*
X77954338Y-119500000D01*
X77954338Y-119500000D02*
X77521325Y-119250000D01*
X77521325Y-119250000D02*
X77954338Y-119000000D01*
G04 #@! TO.C,J803*
X248280000Y-47770000D02*
X250880000Y-47770000D01*
X248280000Y-47770000D02*
X248280000Y-50430000D01*
X248280000Y-50430000D02*
X253480000Y-50430000D01*
X253480000Y-50370000D02*
X253480000Y-50430000D01*
X250880000Y-50370000D02*
X253480000Y-50370000D01*
X250880000Y-47770000D02*
X250880000Y-50370000D01*
X253480000Y-47770000D02*
X253480000Y-49100000D01*
X252150000Y-47770000D02*
X253480000Y-47770000D01*
G04 #@! TO.C,J802*
X248295001Y-33095001D02*
X250895001Y-33095001D01*
X248295001Y-33095001D02*
X248295001Y-43375001D01*
X248295001Y-43375001D02*
X253495001Y-43375001D01*
X253495001Y-35695001D02*
X253495001Y-43375001D01*
X250895001Y-35695001D02*
X253495001Y-35695001D01*
X250895001Y-33095001D02*
X250895001Y-35695001D01*
X253495001Y-33095001D02*
X253495001Y-34425001D01*
X252165001Y-33095001D02*
X253495001Y-33095001D01*
G04 #@! TO.C,J801*
X242145001Y-33095001D02*
X244745001Y-33095001D01*
X242145001Y-33095001D02*
X242145001Y-66235001D01*
X242145001Y-66235001D02*
X247345001Y-66235001D01*
X247345001Y-35695001D02*
X247345001Y-66235001D01*
X244745001Y-35695001D02*
X247345001Y-35695001D01*
X244745001Y-33095001D02*
X244745001Y-35695001D01*
X247345001Y-33095001D02*
X247345001Y-34425001D01*
X246015001Y-33095001D02*
X247345001Y-33095001D01*
D11*
G04 #@! TO.C,F801*
X263025001Y-37175001D02*
G75*
G03X263025001Y-37175001I-4500000J0D01*
G01*
D15*
G04 #@! TO.C,J601*
X197120000Y-99580000D02*
X209280000Y-99580000D01*
X209280000Y-99580000D02*
X209280000Y-74420000D01*
X209280000Y-74420000D02*
X197120000Y-74420000D01*
X197120000Y-74420000D02*
X197120000Y-99580000D01*
X207780000Y-99580000D02*
X205980000Y-99580000D01*
X205980000Y-99580000D02*
X205980000Y-74420000D01*
X205980000Y-74420000D02*
X207780000Y-74420000D01*
X207780000Y-74420000D02*
X207780000Y-99580000D01*
X209280000Y-98000000D02*
X209280000Y-96000000D01*
X209280000Y-96000000D02*
X207780000Y-96250000D01*
X207780000Y-96250000D02*
X207780000Y-97750000D01*
X207780000Y-97750000D02*
X209280000Y-98000000D01*
X209280000Y-78000000D02*
X209280000Y-76000000D01*
X209280000Y-76000000D02*
X207780000Y-76250000D01*
X207780000Y-76250000D02*
X207780000Y-77750000D01*
X207780000Y-77750000D02*
X209280000Y-78000000D01*
X209280000Y-93000000D02*
X209280000Y-91000000D01*
X209280000Y-91000000D02*
X207780000Y-91250000D01*
X207780000Y-91250000D02*
X207780000Y-92750000D01*
X207780000Y-92750000D02*
X209280000Y-93000000D01*
X209280000Y-88000000D02*
X209280000Y-86000000D01*
X209280000Y-86000000D02*
X207780000Y-86250000D01*
X207780000Y-86250000D02*
X207780000Y-87750000D01*
X207780000Y-87750000D02*
X209280000Y-88000000D01*
X209280000Y-83000000D02*
X209280000Y-81000000D01*
X209280000Y-81000000D02*
X207780000Y-81250000D01*
X207780000Y-81250000D02*
X207780000Y-82750000D01*
X207780000Y-82750000D02*
X209280000Y-83000000D01*
X196320000Y-91700000D02*
X196920000Y-92000000D01*
X196920000Y-92000000D02*
X196320000Y-92300000D01*
X196320000Y-92300000D02*
X196320000Y-91700000D01*
D11*
G04 #@! TO.C,U601*
X135900000Y-70100000D02*
X189900000Y-70100000D01*
X189900000Y-70100000D02*
X189900000Y-98100000D01*
X189900000Y-98100000D02*
X135900000Y-98100000D01*
X135900000Y-98100000D02*
X135900000Y-70100000D01*
D15*
G04 #@! TO.C,K601*
X124590000Y-87170000D02*
G75*
G02X122590000Y-87170000I-1000000J0D01*
G01*
X122590000Y-87170000D02*
X120940000Y-87170000D01*
X120940000Y-87170000D02*
X120940000Y-105070000D01*
X120940000Y-105070000D02*
X126240000Y-105070000D01*
X126240000Y-105070000D02*
X126240000Y-87170000D01*
X126240000Y-87170000D02*
X124590000Y-87170000D01*
G04 #@! TO.C,J203*
X98910000Y-110110000D02*
X95090000Y-110110000D01*
X95090000Y-110110000D02*
X95090000Y-111890000D01*
X95090000Y-111890000D02*
X98910000Y-111890000D01*
X98910000Y-110110000D02*
X98910000Y-111890000D01*
G04 #@! TO.C,J204*
X95090000Y-115890000D02*
X98910000Y-115890000D01*
X98910000Y-115890000D02*
X98910000Y-114110000D01*
X98910000Y-114110000D02*
X95090000Y-114110000D01*
X95090000Y-115890000D02*
X95090000Y-114110000D01*
G04 #@! TO.C,J205*
X73610000Y-66590000D02*
X73610000Y-70410000D01*
X73610000Y-70410000D02*
X75390000Y-70410000D01*
X75390000Y-70410000D02*
X75390000Y-66590000D01*
X73610000Y-66590000D02*
X75390000Y-66590000D01*
G04 #@! TO.C,J206*
X78890000Y-70410000D02*
X78890000Y-66590000D01*
X78890000Y-66590000D02*
X77110000Y-66590000D01*
X77110000Y-66590000D02*
X77110000Y-70410000D01*
X78890000Y-70410000D02*
X77110000Y-70410000D01*
D11*
G04 #@! TO.C,K602*
X179950000Y-101000000D02*
X179950000Y-107000000D01*
X141950000Y-101000000D02*
X179950000Y-101000000D01*
X141950000Y-107000000D02*
X141950000Y-101000000D01*
X179950000Y-107000000D02*
X141950000Y-107000000D01*
G04 #@! TO.C,Q601*
X109975000Y-72965000D02*
X111425000Y-72965000D01*
X109250000Y-70765000D02*
X111425000Y-70765000D01*
D15*
G04 #@! TO.C,C201*
X84510000Y-132587221D02*
X84510000Y-132912779D01*
X83490000Y-132587221D02*
X83490000Y-132912779D01*
G04 #@! TO.C,C202*
X83490000Y-135837221D02*
X83490000Y-136162779D01*
X84510000Y-135837221D02*
X84510000Y-136162779D01*
G04 #@! TO.C,C203*
X88837221Y-130210000D02*
X89162779Y-130210000D01*
X88837221Y-129190000D02*
X89162779Y-129190000D01*
G04 #@! TO.C,C204*
X84510000Y-139037221D02*
X84510000Y-139362779D01*
X83490000Y-139037221D02*
X83490000Y-139362779D01*
G04 #@! TO.C,C301*
X70510000Y-94162779D02*
X70510000Y-93837221D01*
X69490000Y-94162779D02*
X69490000Y-93837221D01*
G04 #@! TO.C,C302*
X93510000Y-129062779D02*
X93510000Y-128737221D01*
X92490000Y-129062779D02*
X92490000Y-128737221D01*
G04 #@! TO.C,C303*
X90890000Y-129062779D02*
X90890000Y-128737221D01*
X91910000Y-129062779D02*
X91910000Y-128737221D01*
G04 #@! TO.C,C601*
X108010000Y-71437221D02*
X108010000Y-71762779D01*
X106990000Y-71437221D02*
X106990000Y-71762779D01*
G04 #@! TO.C,F601*
X201980000Y-103090000D02*
X202120000Y-102970000D01*
X202120000Y-102970000D02*
X202280000Y-102880000D01*
X202280000Y-102880000D02*
X202530000Y-102830000D01*
X202530000Y-102830000D02*
X202790000Y-102860000D01*
X202790000Y-102860000D02*
X203050000Y-103010000D01*
X203050000Y-103010000D02*
X203220000Y-103230000D01*
X203220000Y-103230000D02*
X203300000Y-103520000D01*
X203300000Y-103520000D02*
X203260000Y-103810000D01*
X203260000Y-103810000D02*
X203180000Y-103990000D01*
X203180000Y-103990000D02*
X203030000Y-104120000D01*
X203950000Y-106940000D02*
G75*
G03X203950000Y-106940000I-4750000J0D01*
G01*
G04 #@! TO.C,J201*
X97710000Y-127075000D02*
G75*
G03X98770000Y-128135000I1060000J0D01*
G01*
X98770000Y-97165000D02*
G75*
G03X97710000Y-98225000I0J-1060000D01*
G01*
X110330000Y-127075000D02*
G75*
G02X109270000Y-128135000I-1060000J0D01*
G01*
X110330000Y-98225000D02*
G75*
G03X109270000Y-97165000I-1060000J0D01*
G01*
X101958256Y-120516470D02*
G75*
G02X100010000Y-118881689I-288256J1634781D01*
G01*
X101958256Y-104783530D02*
G75*
G03X100010000Y-106418311I-288256J-1634781D01*
G01*
X106658256Y-119687733D02*
G75*
G03X108030000Y-118052952I-288256J1634781D01*
G01*
X106658256Y-105612267D02*
G75*
G02X108030000Y-107247048I-288256J-1634781D01*
G01*
X97710000Y-127075000D02*
X97710000Y-98225000D01*
X98770000Y-97165000D02*
X109270000Y-97165000D01*
X110330000Y-98225000D02*
X110330000Y-127075000D01*
X109270000Y-128135000D02*
X98770000Y-128135000D01*
X96815662Y-107360000D02*
X96815662Y-106860000D01*
X96815662Y-106860000D02*
X97248675Y-107110000D01*
X97248675Y-107110000D02*
X96815662Y-107360000D01*
X100010000Y-118881689D02*
X100010000Y-106418311D01*
X108030000Y-118052952D02*
X108030000Y-107247048D01*
X101958256Y-104783530D02*
X106658256Y-105612267D01*
X101958256Y-120516470D02*
X106658256Y-119687733D01*
G04 #@! TO.C,J202*
X83000000Y-61500000D02*
X82500000Y-62000000D01*
X83000000Y-62500000D02*
X83000000Y-61500000D01*
X82500000Y-62000000D02*
X83000000Y-62500000D01*
X82315000Y-47920000D02*
X66795000Y-47920000D01*
X66795000Y-65880000D02*
X66795000Y-47920000D01*
X66795000Y-65880000D02*
X82315000Y-65880000D01*
X82315000Y-65880000D02*
X82315000Y-47920000D01*
G04 #@! TO.C,J301*
X70830000Y-97330000D02*
X70830000Y-102530000D01*
X73430000Y-97330000D02*
X70830000Y-97330000D01*
X76030000Y-102530000D02*
X70830000Y-102530000D01*
X73430000Y-97330000D02*
X73430000Y-99930000D01*
X73430000Y-99930000D02*
X76030000Y-99930000D01*
X76030000Y-99930000D02*
X76030000Y-102530000D01*
X74700000Y-97330000D02*
X76030000Y-97330000D01*
X76030000Y-97330000D02*
X76030000Y-98660000D01*
G04 #@! TO.C,J302*
X68900000Y-148600000D02*
X69670000Y-148600000D01*
X71250000Y-148600000D02*
X72210000Y-148600000D01*
X73790000Y-148600000D02*
X74750000Y-148600000D01*
X76330000Y-148600000D02*
X77100000Y-148600000D01*
X68900000Y-143300000D02*
X77100000Y-143300000D01*
X68900000Y-142840000D02*
X77100000Y-142840000D01*
X68900000Y-149160000D02*
X69670000Y-149160000D01*
X71250000Y-149160000D02*
X72210000Y-149160000D01*
X73790000Y-149160000D02*
X74750000Y-149160000D01*
X76330000Y-149160000D02*
X77100000Y-149160000D01*
X68900000Y-142840000D02*
X68900000Y-149160000D01*
X77100000Y-142840000D02*
X77100000Y-149160000D01*
X68660000Y-148660000D02*
X68660000Y-149400000D01*
X68660000Y-149400000D02*
X69160000Y-149400000D01*
G04 #@! TO.C,J401*
X98360000Y-148600000D02*
X109100000Y-148600000D01*
X98360000Y-143300000D02*
X109100000Y-143300000D01*
X98360000Y-142840000D02*
X109100000Y-142840000D01*
X98360000Y-149160000D02*
X109100000Y-149160000D01*
X98360000Y-142840000D02*
X98360000Y-149160000D01*
X109100000Y-142840000D02*
X109100000Y-149160000D01*
X98120000Y-148660000D02*
X98120000Y-149400000D01*
X98120000Y-149400000D02*
X98620000Y-149400000D01*
G04 #@! TO.C,J501*
X69670000Y-77620000D02*
X72330000Y-77620000D01*
X69670000Y-72480000D02*
X69670000Y-77620000D01*
X72330000Y-72480000D02*
X72330000Y-77620000D01*
X69670000Y-72480000D02*
X72330000Y-72480000D01*
X69670000Y-71210000D02*
X69670000Y-69880000D01*
X69670000Y-69880000D02*
X71000000Y-69880000D01*
G04 #@! TO.C,J502*
X74170000Y-86410000D02*
X79370000Y-86410000D01*
X74170000Y-81270000D02*
X74170000Y-86410000D01*
X79370000Y-78670000D02*
X79370000Y-86410000D01*
X74170000Y-81270000D02*
X76770000Y-81270000D01*
X76770000Y-81270000D02*
X76770000Y-78670000D01*
X76770000Y-78670000D02*
X79370000Y-78670000D01*
X74170000Y-80000000D02*
X74170000Y-78670000D01*
X74170000Y-78670000D02*
X75500000Y-78670000D01*
G04 #@! TO.C,J607*
X114670000Y-144670000D02*
X114670000Y-147330000D01*
X117270000Y-144670000D02*
X114670000Y-144670000D01*
X117270000Y-147330000D02*
X114670000Y-147330000D01*
X117270000Y-144670000D02*
X117270000Y-147330000D01*
X118540000Y-144670000D02*
X119870000Y-144670000D01*
X119870000Y-144670000D02*
X119870000Y-146000000D01*
G04 #@! TO.C,R301*
X70037221Y-86790000D02*
X70362779Y-86790000D01*
X70037221Y-87810000D02*
X70362779Y-87810000D01*
G04 #@! TO.C,R302*
X76602064Y-103640000D02*
X75397936Y-103640000D01*
X76602064Y-106360000D02*
X75397936Y-106360000D01*
G04 #@! TO.C,R303*
X71602064Y-106360000D02*
X70397936Y-106360000D01*
X71602064Y-103640000D02*
X70397936Y-103640000D01*
G04 #@! TO.C,R401*
X106962779Y-129090000D02*
X106637221Y-129090000D01*
X106962779Y-130110000D02*
X106637221Y-130110000D01*
G04 #@! TO.C,R402*
X100412779Y-130110000D02*
X100087221Y-130110000D01*
X100412779Y-129090000D02*
X100087221Y-129090000D01*
G04 #@! TO.C,R601*
X117970000Y-101740000D02*
X117640000Y-101740000D01*
X117970000Y-108280000D02*
X117970000Y-101740000D01*
X117640000Y-108280000D02*
X117970000Y-108280000D01*
X115230000Y-101740000D02*
X115560000Y-101740000D01*
X115230000Y-108280000D02*
X115230000Y-101740000D01*
X115560000Y-108280000D02*
X115230000Y-108280000D01*
G04 #@! TO.C,R602*
X138760000Y-107260000D02*
X138430000Y-107260000D01*
X138430000Y-107260000D02*
X138430000Y-100720000D01*
X138430000Y-100720000D02*
X138760000Y-100720000D01*
X140840000Y-107260000D02*
X141170000Y-107260000D01*
X141170000Y-107260000D02*
X141170000Y-100720000D01*
X141170000Y-100720000D02*
X140840000Y-100720000D01*
G04 #@! TO.C,R603*
X126837221Y-86510000D02*
X127162779Y-86510000D01*
X126837221Y-85490000D02*
X127162779Y-85490000D01*
D11*
G04 #@! TO.C,U201*
X86925000Y-130925000D02*
X86925000Y-130950000D01*
X91075000Y-130925000D02*
X91075000Y-131030000D01*
X91075000Y-141075000D02*
X91075000Y-140970000D01*
X86925000Y-141075000D02*
X86925000Y-140970000D01*
X86925000Y-130925000D02*
X91075000Y-130925000D01*
X86925000Y-141075000D02*
X91075000Y-141075000D01*
X86925000Y-130950000D02*
X85550000Y-130950000D01*
G04 #@! TO.C,U301*
X76225000Y-89925000D02*
X76225000Y-88525000D01*
X71125000Y-89925000D02*
X71125000Y-94075000D01*
X76275000Y-89925000D02*
X76275000Y-94075000D01*
X71125000Y-89925000D02*
X71270000Y-89925000D01*
X71125000Y-94075000D02*
X71270000Y-94075000D01*
X76275000Y-94075000D02*
X76130000Y-94075000D01*
X76275000Y-89925000D02*
X76225000Y-89925000D01*
D15*
G04 #@! TO.C,U401*
X108870000Y-136810000D02*
G75*
G02X108870000Y-134810000I0J1000000D01*
G01*
X108870000Y-134810000D02*
X108870000Y-133160000D01*
X108870000Y-133160000D02*
X98590000Y-133160000D01*
X98590000Y-133160000D02*
X98590000Y-138460000D01*
X98590000Y-138460000D02*
X108870000Y-138460000D01*
X108870000Y-138460000D02*
X108870000Y-136810000D01*
D11*
G04 #@! TO.C,U501*
X79275000Y-76175000D02*
X79275000Y-76125000D01*
X75125000Y-76175000D02*
X75125000Y-76030000D01*
X75125000Y-71025000D02*
X75125000Y-71170000D01*
X79275000Y-71025000D02*
X79275000Y-71170000D01*
X79275000Y-76175000D02*
X75125000Y-76175000D01*
X79275000Y-71025000D02*
X75125000Y-71025000D01*
X79275000Y-76125000D02*
X80675000Y-76125000D01*
G04 #@! TO.C,U502*
X90175000Y-81975000D02*
X90175000Y-81925000D01*
X86025000Y-81975000D02*
X86025000Y-81830000D01*
X86025000Y-76825000D02*
X86025000Y-76970000D01*
X90175000Y-76825000D02*
X90175000Y-76970000D01*
X90175000Y-81975000D02*
X86025000Y-81975000D01*
X90175000Y-76825000D02*
X86025000Y-76825000D01*
X90175000Y-81925000D02*
X91575000Y-81925000D01*
D15*
G04 #@! TO.C,JP601*
X137330000Y-105480000D02*
X134670000Y-105480000D01*
X137330000Y-108080000D02*
X137330000Y-105480000D01*
X134670000Y-108080000D02*
X134670000Y-105480000D01*
X137330000Y-108080000D02*
X134670000Y-108080000D01*
X137330000Y-109350000D02*
X137330000Y-110680000D01*
X137330000Y-110680000D02*
X136000000Y-110680000D01*
G04 #@! TO.C,R501*
X82010000Y-78587221D02*
X82010000Y-78912779D01*
X80990000Y-78587221D02*
X80990000Y-78912779D01*
G04 #@! TO.C,R502*
X82690000Y-79387221D02*
X82690000Y-79712779D01*
X83710000Y-79387221D02*
X83710000Y-79712779D01*
D14*
G04 #@! TO.C,J609*
X115467026Y-61436960D02*
X115288691Y-61287000D01*
X115730000Y-60723041D02*
X115730000Y-61436960D01*
X115467026Y-60723041D02*
X115730000Y-60723041D01*
X115160000Y-68750000D02*
X99920000Y-68750000D01*
X115288691Y-60873000D02*
X115467026Y-60723041D01*
X115160000Y-60873000D02*
X115288691Y-60873000D01*
X115160000Y-59450000D02*
X112620000Y-59450000D01*
X115160000Y-60873000D02*
X115160000Y-59450000D01*
X115160000Y-68750000D02*
X115160000Y-61287000D01*
X115730000Y-61436960D02*
X115467026Y-61436960D01*
X115288691Y-61287000D02*
X115160000Y-61287000D01*
X100227026Y-60723041D02*
X100490000Y-60723041D01*
X99920000Y-68750000D02*
X99920000Y-61287000D01*
X113190000Y-51023041D02*
X113190000Y-51736960D01*
X112927026Y-51023041D02*
X113190000Y-51023041D01*
X112620000Y-51173000D02*
X112748691Y-51173000D01*
X100490000Y-60723041D02*
X100490000Y-61436960D01*
X100490000Y-61436960D02*
X100227026Y-61436960D01*
X97380000Y-50450000D02*
X112620000Y-50450000D01*
X112620000Y-51173000D02*
X112620000Y-50450000D01*
X112620000Y-59450000D02*
X112620000Y-51587000D01*
X112748691Y-51587000D02*
X112620000Y-51587000D01*
X97950000Y-51736960D02*
X97687026Y-51736960D01*
X112927026Y-51736960D02*
X112748691Y-51587000D01*
X113190000Y-51736960D02*
X112927026Y-51736960D01*
X97687026Y-51023041D02*
X97508691Y-51173000D01*
X97380000Y-51173000D02*
X97508691Y-51173000D01*
X112748691Y-51173000D02*
X112927026Y-51023041D01*
X97687026Y-51023041D02*
X97950000Y-51023041D01*
X97508691Y-51587000D02*
X97380000Y-51587000D01*
X97380000Y-59450000D02*
X99920000Y-59450000D01*
X97380000Y-51173000D02*
X97380000Y-50450000D01*
X97380000Y-59450000D02*
X97380000Y-51587000D01*
X97508691Y-51587000D02*
X97687026Y-51736960D01*
X97950000Y-51023041D02*
X97950000Y-51736960D01*
X100048691Y-61287000D02*
X100227026Y-61436960D01*
X100048691Y-61287000D02*
X99920000Y-61287000D01*
X99920000Y-60873000D02*
X99920000Y-61287000D01*
X97380000Y-51173000D02*
X97380000Y-51587000D01*
X100227026Y-60723041D02*
X100048691Y-60873000D01*
X99920000Y-60873000D02*
X99920000Y-59450000D01*
X99920000Y-60873000D02*
X100048691Y-60873000D01*
D11*
G04 #@! TO.C,J610*
X195581780Y-137568180D02*
X195581780Y-120328180D01*
X195581780Y-120328180D02*
X206281780Y-120328180D01*
X206281780Y-120328180D02*
X206281780Y-137568180D01*
X206281780Y-137568180D02*
X195581780Y-137568180D01*
X206281780Y-136568180D02*
X214581780Y-136568180D01*
X214581780Y-136568180D02*
X214581780Y-121328180D01*
X214581780Y-121328180D02*
X206281780Y-121328180D01*
D15*
G04 #@! TO.C,J304*
X83880000Y-119320000D02*
X78680000Y-119320000D01*
X83880000Y-121920000D02*
X83880000Y-119320000D01*
X78680000Y-124520000D02*
X78680000Y-119320000D01*
X83880000Y-121920000D02*
X81280000Y-121920000D01*
X81280000Y-121920000D02*
X81280000Y-124520000D01*
X81280000Y-124520000D02*
X78680000Y-124520000D01*
X83880000Y-123190000D02*
X83880000Y-124520000D01*
X83880000Y-124520000D02*
X82550000Y-124520000D01*
G04 #@! TO.C,J303*
D11*
X78202380Y-140035714D02*
X78916666Y-140035714D01*
X79059523Y-140083333D01*
X79154761Y-140178571D01*
X79202380Y-140321428D01*
X79202380Y-140416666D01*
X78202380Y-139654761D02*
X78202380Y-139035714D01*
X78583333Y-139369047D01*
X78583333Y-139226190D01*
X78630952Y-139130952D01*
X78678571Y-139083333D01*
X78773809Y-139035714D01*
X79011904Y-139035714D01*
X79107142Y-139083333D01*
X79154761Y-139130952D01*
X79202380Y-139226190D01*
X79202380Y-139511904D01*
X79154761Y-139607142D01*
X79107142Y-139654761D01*
X78202380Y-138416666D02*
X78202380Y-138321428D01*
X78250000Y-138226190D01*
X78297619Y-138178571D01*
X78392857Y-138130952D01*
X78583333Y-138083333D01*
X78821428Y-138083333D01*
X79011904Y-138130952D01*
X79107142Y-138178571D01*
X79154761Y-138226190D01*
X79202380Y-138321428D01*
X79202380Y-138416666D01*
X79154761Y-138511904D01*
X79107142Y-138559523D01*
X79011904Y-138607142D01*
X78821428Y-138654761D01*
X78583333Y-138654761D01*
X78392857Y-138607142D01*
X78297619Y-138559523D01*
X78250000Y-138511904D01*
X78202380Y-138416666D01*
X78202380Y-137750000D02*
X78202380Y-137130952D01*
X78583333Y-137464285D01*
X78583333Y-137321428D01*
X78630952Y-137226190D01*
X78678571Y-137178571D01*
X78773809Y-137130952D01*
X79011904Y-137130952D01*
X79107142Y-137178571D01*
X79154761Y-137226190D01*
X79202380Y-137321428D01*
X79202380Y-137607142D01*
X79154761Y-137702380D01*
X79107142Y-137750000D01*
X61607142Y-107857142D02*
X61559523Y-107904761D01*
X61416666Y-107952380D01*
X61321428Y-107952380D01*
X61178571Y-107904761D01*
X61083333Y-107809523D01*
X61035714Y-107714285D01*
X60988095Y-107523809D01*
X60988095Y-107380952D01*
X61035714Y-107190476D01*
X61083333Y-107095238D01*
X61178571Y-107000000D01*
X61321428Y-106952380D01*
X61416666Y-106952380D01*
X61559523Y-107000000D01*
X61607142Y-107047619D01*
X61988095Y-107666666D02*
X62464285Y-107666666D01*
X61892857Y-107952380D02*
X62226190Y-106952380D01*
X62559523Y-107952380D01*
X62892857Y-107952380D02*
X62892857Y-106952380D01*
X63464285Y-107952380D01*
X63464285Y-106952380D01*
G04 #@! TO.C,J803*
X249594285Y-45782380D02*
X249594285Y-46496666D01*
X249546666Y-46639523D01*
X249451428Y-46734761D01*
X249308571Y-46782380D01*
X249213333Y-46782380D01*
X250213333Y-46210952D02*
X250118095Y-46163333D01*
X250070476Y-46115714D01*
X250022857Y-46020476D01*
X250022857Y-45972857D01*
X250070476Y-45877619D01*
X250118095Y-45830000D01*
X250213333Y-45782380D01*
X250403809Y-45782380D01*
X250499047Y-45830000D01*
X250546666Y-45877619D01*
X250594285Y-45972857D01*
X250594285Y-46020476D01*
X250546666Y-46115714D01*
X250499047Y-46163333D01*
X250403809Y-46210952D01*
X250213333Y-46210952D01*
X250118095Y-46258571D01*
X250070476Y-46306190D01*
X250022857Y-46401428D01*
X250022857Y-46591904D01*
X250070476Y-46687142D01*
X250118095Y-46734761D01*
X250213333Y-46782380D01*
X250403809Y-46782380D01*
X250499047Y-46734761D01*
X250546666Y-46687142D01*
X250594285Y-46591904D01*
X250594285Y-46401428D01*
X250546666Y-46306190D01*
X250499047Y-46258571D01*
X250403809Y-46210952D01*
X251213333Y-45782380D02*
X251308571Y-45782380D01*
X251403809Y-45830000D01*
X251451428Y-45877619D01*
X251499047Y-45972857D01*
X251546666Y-46163333D01*
X251546666Y-46401428D01*
X251499047Y-46591904D01*
X251451428Y-46687142D01*
X251403809Y-46734761D01*
X251308571Y-46782380D01*
X251213333Y-46782380D01*
X251118095Y-46734761D01*
X251070476Y-46687142D01*
X251022857Y-46591904D01*
X250975238Y-46401428D01*
X250975238Y-46163333D01*
X251022857Y-45972857D01*
X251070476Y-45877619D01*
X251118095Y-45830000D01*
X251213333Y-45782380D01*
X251880000Y-45782380D02*
X252499047Y-45782380D01*
X252165714Y-46163333D01*
X252308571Y-46163333D01*
X252403809Y-46210952D01*
X252451428Y-46258571D01*
X252499047Y-46353809D01*
X252499047Y-46591904D01*
X252451428Y-46687142D01*
X252403809Y-46734761D01*
X252308571Y-46782380D01*
X252022857Y-46782380D01*
X251927619Y-46734761D01*
X251880000Y-46687142D01*
G04 #@! TO.C,J802*
X249609286Y-31107381D02*
X249609286Y-31821667D01*
X249561667Y-31964524D01*
X249466429Y-32059762D01*
X249323572Y-32107381D01*
X249228334Y-32107381D01*
X250228334Y-31535953D02*
X250133096Y-31488334D01*
X250085477Y-31440715D01*
X250037858Y-31345477D01*
X250037858Y-31297858D01*
X250085477Y-31202620D01*
X250133096Y-31155001D01*
X250228334Y-31107381D01*
X250418810Y-31107381D01*
X250514048Y-31155001D01*
X250561667Y-31202620D01*
X250609286Y-31297858D01*
X250609286Y-31345477D01*
X250561667Y-31440715D01*
X250514048Y-31488334D01*
X250418810Y-31535953D01*
X250228334Y-31535953D01*
X250133096Y-31583572D01*
X250085477Y-31631191D01*
X250037858Y-31726429D01*
X250037858Y-31916905D01*
X250085477Y-32012143D01*
X250133096Y-32059762D01*
X250228334Y-32107381D01*
X250418810Y-32107381D01*
X250514048Y-32059762D01*
X250561667Y-32012143D01*
X250609286Y-31916905D01*
X250609286Y-31726429D01*
X250561667Y-31631191D01*
X250514048Y-31583572D01*
X250418810Y-31535953D01*
X251228334Y-31107381D02*
X251323572Y-31107381D01*
X251418810Y-31155001D01*
X251466429Y-31202620D01*
X251514048Y-31297858D01*
X251561667Y-31488334D01*
X251561667Y-31726429D01*
X251514048Y-31916905D01*
X251466429Y-32012143D01*
X251418810Y-32059762D01*
X251323572Y-32107381D01*
X251228334Y-32107381D01*
X251133096Y-32059762D01*
X251085477Y-32012143D01*
X251037858Y-31916905D01*
X250990239Y-31726429D01*
X250990239Y-31488334D01*
X251037858Y-31297858D01*
X251085477Y-31202620D01*
X251133096Y-31155001D01*
X251228334Y-31107381D01*
X251942620Y-31202620D02*
X251990239Y-31155001D01*
X252085477Y-31107381D01*
X252323572Y-31107381D01*
X252418810Y-31155001D01*
X252466429Y-31202620D01*
X252514048Y-31297858D01*
X252514048Y-31393096D01*
X252466429Y-31535953D01*
X251895001Y-32107381D01*
X252514048Y-32107381D01*
G04 #@! TO.C,J801*
X243459286Y-31107381D02*
X243459286Y-31821667D01*
X243411667Y-31964524D01*
X243316429Y-32059762D01*
X243173572Y-32107381D01*
X243078334Y-32107381D01*
X244078334Y-31535953D02*
X243983096Y-31488334D01*
X243935477Y-31440715D01*
X243887858Y-31345477D01*
X243887858Y-31297858D01*
X243935477Y-31202620D01*
X243983096Y-31155001D01*
X244078334Y-31107381D01*
X244268810Y-31107381D01*
X244364048Y-31155001D01*
X244411667Y-31202620D01*
X244459286Y-31297858D01*
X244459286Y-31345477D01*
X244411667Y-31440715D01*
X244364048Y-31488334D01*
X244268810Y-31535953D01*
X244078334Y-31535953D01*
X243983096Y-31583572D01*
X243935477Y-31631191D01*
X243887858Y-31726429D01*
X243887858Y-31916905D01*
X243935477Y-32012143D01*
X243983096Y-32059762D01*
X244078334Y-32107381D01*
X244268810Y-32107381D01*
X244364048Y-32059762D01*
X244411667Y-32012143D01*
X244459286Y-31916905D01*
X244459286Y-31726429D01*
X244411667Y-31631191D01*
X244364048Y-31583572D01*
X244268810Y-31535953D01*
X245078334Y-31107381D02*
X245173572Y-31107381D01*
X245268810Y-31155001D01*
X245316429Y-31202620D01*
X245364048Y-31297858D01*
X245411667Y-31488334D01*
X245411667Y-31726429D01*
X245364048Y-31916905D01*
X245316429Y-32012143D01*
X245268810Y-32059762D01*
X245173572Y-32107381D01*
X245078334Y-32107381D01*
X244983096Y-32059762D01*
X244935477Y-32012143D01*
X244887858Y-31916905D01*
X244840239Y-31726429D01*
X244840239Y-31488334D01*
X244887858Y-31297858D01*
X244935477Y-31202620D01*
X244983096Y-31155001D01*
X245078334Y-31107381D01*
X246364048Y-32107381D02*
X245792620Y-32107381D01*
X246078334Y-32107381D02*
X246078334Y-31107381D01*
X245983096Y-31250239D01*
X245887858Y-31345477D01*
X245792620Y-31393096D01*
G04 #@! TO.C,F801*
X257239286Y-43453572D02*
X256905953Y-43453572D01*
X256905953Y-43977381D02*
X256905953Y-42977381D01*
X257382143Y-42977381D01*
X257905953Y-43405953D02*
X257810715Y-43358334D01*
X257763096Y-43310715D01*
X257715477Y-43215477D01*
X257715477Y-43167858D01*
X257763096Y-43072620D01*
X257810715Y-43025001D01*
X257905953Y-42977381D01*
X258096429Y-42977381D01*
X258191667Y-43025001D01*
X258239286Y-43072620D01*
X258286905Y-43167858D01*
X258286905Y-43215477D01*
X258239286Y-43310715D01*
X258191667Y-43358334D01*
X258096429Y-43405953D01*
X257905953Y-43405953D01*
X257810715Y-43453572D01*
X257763096Y-43501191D01*
X257715477Y-43596429D01*
X257715477Y-43786905D01*
X257763096Y-43882143D01*
X257810715Y-43929762D01*
X257905953Y-43977381D01*
X258096429Y-43977381D01*
X258191667Y-43929762D01*
X258239286Y-43882143D01*
X258286905Y-43786905D01*
X258286905Y-43596429D01*
X258239286Y-43501191D01*
X258191667Y-43453572D01*
X258096429Y-43405953D01*
X258905953Y-42977381D02*
X259001191Y-42977381D01*
X259096429Y-43025001D01*
X259144048Y-43072620D01*
X259191667Y-43167858D01*
X259239286Y-43358334D01*
X259239286Y-43596429D01*
X259191667Y-43786905D01*
X259144048Y-43882143D01*
X259096429Y-43929762D01*
X259001191Y-43977381D01*
X258905953Y-43977381D01*
X258810715Y-43929762D01*
X258763096Y-43882143D01*
X258715477Y-43786905D01*
X258667858Y-43596429D01*
X258667858Y-43358334D01*
X258715477Y-43167858D01*
X258763096Y-43072620D01*
X258810715Y-43025001D01*
X258905953Y-42977381D01*
X260191667Y-43977381D02*
X259620239Y-43977381D01*
X259905953Y-43977381D02*
X259905953Y-42977381D01*
X259810715Y-43120239D01*
X259715477Y-43215477D01*
X259620239Y-43263096D01*
G04 #@! TO.C,J601*
X194702380Y-99785714D02*
X195416666Y-99785714D01*
X195559523Y-99833333D01*
X195654761Y-99928571D01*
X195702380Y-100071428D01*
X195702380Y-100166666D01*
X194702380Y-98880952D02*
X194702380Y-99071428D01*
X194750000Y-99166666D01*
X194797619Y-99214285D01*
X194940476Y-99309523D01*
X195130952Y-99357142D01*
X195511904Y-99357142D01*
X195607142Y-99309523D01*
X195654761Y-99261904D01*
X195702380Y-99166666D01*
X195702380Y-98976190D01*
X195654761Y-98880952D01*
X195607142Y-98833333D01*
X195511904Y-98785714D01*
X195273809Y-98785714D01*
X195178571Y-98833333D01*
X195130952Y-98880952D01*
X195083333Y-98976190D01*
X195083333Y-99166666D01*
X195130952Y-99261904D01*
X195178571Y-99309523D01*
X195273809Y-99357142D01*
X194702380Y-98166666D02*
X194702380Y-98071428D01*
X194750000Y-97976190D01*
X194797619Y-97928571D01*
X194892857Y-97880952D01*
X195083333Y-97833333D01*
X195321428Y-97833333D01*
X195511904Y-97880952D01*
X195607142Y-97928571D01*
X195654761Y-97976190D01*
X195702380Y-98071428D01*
X195702380Y-98166666D01*
X195654761Y-98261904D01*
X195607142Y-98309523D01*
X195511904Y-98357142D01*
X195321428Y-98404761D01*
X195083333Y-98404761D01*
X194892857Y-98357142D01*
X194797619Y-98309523D01*
X194750000Y-98261904D01*
X194702380Y-98166666D01*
X195702380Y-96880952D02*
X195702380Y-97452380D01*
X195702380Y-97166666D02*
X194702380Y-97166666D01*
X194845238Y-97261904D01*
X194940476Y-97357142D01*
X194988095Y-97452380D01*
X196869047Y-73166666D02*
X197345238Y-73166666D01*
X196773809Y-73452380D02*
X197107142Y-72452380D01*
X197440476Y-73452380D01*
X198345238Y-73357142D02*
X198297619Y-73404761D01*
X198154761Y-73452380D01*
X198059523Y-73452380D01*
X197916666Y-73404761D01*
X197821428Y-73309523D01*
X197773809Y-73214285D01*
X197726190Y-73023809D01*
X197726190Y-72880952D01*
X197773809Y-72690476D01*
X197821428Y-72595238D01*
X197916666Y-72500000D01*
X198059523Y-72452380D01*
X198154761Y-72452380D01*
X198297619Y-72500000D01*
X198345238Y-72547619D01*
X199535714Y-73452380D02*
X199535714Y-72452380D01*
X200011904Y-73452380D02*
X200011904Y-72452380D01*
X200583333Y-73452380D01*
X200583333Y-72452380D01*
G04 #@! TO.C,U601*
X135785714Y-68452380D02*
X135785714Y-69261904D01*
X135833333Y-69357142D01*
X135880952Y-69404761D01*
X135976190Y-69452380D01*
X136166666Y-69452380D01*
X136261904Y-69404761D01*
X136309523Y-69357142D01*
X136357142Y-69261904D01*
X136357142Y-68452380D01*
X137261904Y-68452380D02*
X137071428Y-68452380D01*
X136976190Y-68500000D01*
X136928571Y-68547619D01*
X136833333Y-68690476D01*
X136785714Y-68880952D01*
X136785714Y-69261904D01*
X136833333Y-69357142D01*
X136880952Y-69404761D01*
X136976190Y-69452380D01*
X137166666Y-69452380D01*
X137261904Y-69404761D01*
X137309523Y-69357142D01*
X137357142Y-69261904D01*
X137357142Y-69023809D01*
X137309523Y-68928571D01*
X137261904Y-68880952D01*
X137166666Y-68833333D01*
X136976190Y-68833333D01*
X136880952Y-68880952D01*
X136833333Y-68928571D01*
X136785714Y-69023809D01*
X137976190Y-68452380D02*
X138071428Y-68452380D01*
X138166666Y-68500000D01*
X138214285Y-68547619D01*
X138261904Y-68642857D01*
X138309523Y-68833333D01*
X138309523Y-69071428D01*
X138261904Y-69261904D01*
X138214285Y-69357142D01*
X138166666Y-69404761D01*
X138071428Y-69452380D01*
X137976190Y-69452380D01*
X137880952Y-69404761D01*
X137833333Y-69357142D01*
X137785714Y-69261904D01*
X137738095Y-69071428D01*
X137738095Y-68833333D01*
X137785714Y-68642857D01*
X137833333Y-68547619D01*
X137880952Y-68500000D01*
X137976190Y-68452380D01*
X139261904Y-69452380D02*
X138690476Y-69452380D01*
X138976190Y-69452380D02*
X138976190Y-68452380D01*
X138880952Y-68595238D01*
X138785714Y-68690476D01*
X138690476Y-68738095D01*
G04 #@! TO.C,K601*
X118809523Y-86452380D02*
X118809523Y-85452380D01*
X119380952Y-86452380D02*
X118952380Y-85880952D01*
X119380952Y-85452380D02*
X118809523Y-86023809D01*
X120238095Y-85452380D02*
X120047619Y-85452380D01*
X119952380Y-85500000D01*
X119904761Y-85547619D01*
X119809523Y-85690476D01*
X119761904Y-85880952D01*
X119761904Y-86261904D01*
X119809523Y-86357142D01*
X119857142Y-86404761D01*
X119952380Y-86452380D01*
X120142857Y-86452380D01*
X120238095Y-86404761D01*
X120285714Y-86357142D01*
X120333333Y-86261904D01*
X120333333Y-86023809D01*
X120285714Y-85928571D01*
X120238095Y-85880952D01*
X120142857Y-85833333D01*
X119952380Y-85833333D01*
X119857142Y-85880952D01*
X119809523Y-85928571D01*
X119761904Y-86023809D01*
X120952380Y-85452380D02*
X121047619Y-85452380D01*
X121142857Y-85500000D01*
X121190476Y-85547619D01*
X121238095Y-85642857D01*
X121285714Y-85833333D01*
X121285714Y-86071428D01*
X121238095Y-86261904D01*
X121190476Y-86357142D01*
X121142857Y-86404761D01*
X121047619Y-86452380D01*
X120952380Y-86452380D01*
X120857142Y-86404761D01*
X120809523Y-86357142D01*
X120761904Y-86261904D01*
X120714285Y-86071428D01*
X120714285Y-85833333D01*
X120761904Y-85642857D01*
X120809523Y-85547619D01*
X120857142Y-85500000D01*
X120952380Y-85452380D01*
X122238095Y-86452380D02*
X121666666Y-86452380D01*
X121952380Y-86452380D02*
X121952380Y-85452380D01*
X121857142Y-85595238D01*
X121761904Y-85690476D01*
X121666666Y-85738095D01*
G04 #@! TO.C,J203*
X91514285Y-110152380D02*
X91514285Y-110866666D01*
X91466666Y-111009523D01*
X91371428Y-111104761D01*
X91228571Y-111152380D01*
X91133333Y-111152380D01*
X91942857Y-110247619D02*
X91990476Y-110200000D01*
X92085714Y-110152380D01*
X92323809Y-110152380D01*
X92419047Y-110200000D01*
X92466666Y-110247619D01*
X92514285Y-110342857D01*
X92514285Y-110438095D01*
X92466666Y-110580952D01*
X91895238Y-111152380D01*
X92514285Y-111152380D01*
X93133333Y-110152380D02*
X93228571Y-110152380D01*
X93323809Y-110200000D01*
X93371428Y-110247619D01*
X93419047Y-110342857D01*
X93466666Y-110533333D01*
X93466666Y-110771428D01*
X93419047Y-110961904D01*
X93371428Y-111057142D01*
X93323809Y-111104761D01*
X93228571Y-111152380D01*
X93133333Y-111152380D01*
X93038095Y-111104761D01*
X92990476Y-111057142D01*
X92942857Y-110961904D01*
X92895238Y-110771428D01*
X92895238Y-110533333D01*
X92942857Y-110342857D01*
X92990476Y-110247619D01*
X93038095Y-110200000D01*
X93133333Y-110152380D01*
X93800000Y-110152380D02*
X94419047Y-110152380D01*
X94085714Y-110533333D01*
X94228571Y-110533333D01*
X94323809Y-110580952D01*
X94371428Y-110628571D01*
X94419047Y-110723809D01*
X94419047Y-110961904D01*
X94371428Y-111057142D01*
X94323809Y-111104761D01*
X94228571Y-111152380D01*
X93942857Y-111152380D01*
X93847619Y-111104761D01*
X93800000Y-111057142D01*
G04 #@! TO.C,J204*
X91614285Y-114852380D02*
X91614285Y-115566666D01*
X91566666Y-115709523D01*
X91471428Y-115804761D01*
X91328571Y-115852380D01*
X91233333Y-115852380D01*
X92042857Y-114947619D02*
X92090476Y-114900000D01*
X92185714Y-114852380D01*
X92423809Y-114852380D01*
X92519047Y-114900000D01*
X92566666Y-114947619D01*
X92614285Y-115042857D01*
X92614285Y-115138095D01*
X92566666Y-115280952D01*
X91995238Y-115852380D01*
X92614285Y-115852380D01*
X93233333Y-114852380D02*
X93328571Y-114852380D01*
X93423809Y-114900000D01*
X93471428Y-114947619D01*
X93519047Y-115042857D01*
X93566666Y-115233333D01*
X93566666Y-115471428D01*
X93519047Y-115661904D01*
X93471428Y-115757142D01*
X93423809Y-115804761D01*
X93328571Y-115852380D01*
X93233333Y-115852380D01*
X93138095Y-115804761D01*
X93090476Y-115757142D01*
X93042857Y-115661904D01*
X92995238Y-115471428D01*
X92995238Y-115233333D01*
X93042857Y-115042857D01*
X93090476Y-114947619D01*
X93138095Y-114900000D01*
X93233333Y-114852380D01*
X94423809Y-115185714D02*
X94423809Y-115852380D01*
X94185714Y-114804761D02*
X93947619Y-115519047D01*
X94566666Y-115519047D01*
G04 #@! TO.C,J205*
X69464285Y-67952380D02*
X69464285Y-68666666D01*
X69416666Y-68809523D01*
X69321428Y-68904761D01*
X69178571Y-68952380D01*
X69083333Y-68952380D01*
X69892857Y-68047619D02*
X69940476Y-68000000D01*
X70035714Y-67952380D01*
X70273809Y-67952380D01*
X70369047Y-68000000D01*
X70416666Y-68047619D01*
X70464285Y-68142857D01*
X70464285Y-68238095D01*
X70416666Y-68380952D01*
X69845238Y-68952380D01*
X70464285Y-68952380D01*
X71083333Y-67952380D02*
X71178571Y-67952380D01*
X71273809Y-68000000D01*
X71321428Y-68047619D01*
X71369047Y-68142857D01*
X71416666Y-68333333D01*
X71416666Y-68571428D01*
X71369047Y-68761904D01*
X71321428Y-68857142D01*
X71273809Y-68904761D01*
X71178571Y-68952380D01*
X71083333Y-68952380D01*
X70988095Y-68904761D01*
X70940476Y-68857142D01*
X70892857Y-68761904D01*
X70845238Y-68571428D01*
X70845238Y-68333333D01*
X70892857Y-68142857D01*
X70940476Y-68047619D01*
X70988095Y-68000000D01*
X71083333Y-67952380D01*
X72321428Y-67952380D02*
X71845238Y-67952380D01*
X71797619Y-68428571D01*
X71845238Y-68380952D01*
X71940476Y-68333333D01*
X72178571Y-68333333D01*
X72273809Y-68380952D01*
X72321428Y-68428571D01*
X72369047Y-68523809D01*
X72369047Y-68761904D01*
X72321428Y-68857142D01*
X72273809Y-68904761D01*
X72178571Y-68952380D01*
X71940476Y-68952380D01*
X71845238Y-68904761D01*
X71797619Y-68857142D01*
G04 #@! TO.C,J206*
X79964285Y-66702380D02*
X79964285Y-67416666D01*
X79916666Y-67559523D01*
X79821428Y-67654761D01*
X79678571Y-67702380D01*
X79583333Y-67702380D01*
X80392857Y-66797619D02*
X80440476Y-66750000D01*
X80535714Y-66702380D01*
X80773809Y-66702380D01*
X80869047Y-66750000D01*
X80916666Y-66797619D01*
X80964285Y-66892857D01*
X80964285Y-66988095D01*
X80916666Y-67130952D01*
X80345238Y-67702380D01*
X80964285Y-67702380D01*
X81583333Y-66702380D02*
X81678571Y-66702380D01*
X81773809Y-66750000D01*
X81821428Y-66797619D01*
X81869047Y-66892857D01*
X81916666Y-67083333D01*
X81916666Y-67321428D01*
X81869047Y-67511904D01*
X81821428Y-67607142D01*
X81773809Y-67654761D01*
X81678571Y-67702380D01*
X81583333Y-67702380D01*
X81488095Y-67654761D01*
X81440476Y-67607142D01*
X81392857Y-67511904D01*
X81345238Y-67321428D01*
X81345238Y-67083333D01*
X81392857Y-66892857D01*
X81440476Y-66797619D01*
X81488095Y-66750000D01*
X81583333Y-66702380D01*
X82773809Y-66702380D02*
X82583333Y-66702380D01*
X82488095Y-66750000D01*
X82440476Y-66797619D01*
X82345238Y-66940476D01*
X82297619Y-67130952D01*
X82297619Y-67511904D01*
X82345238Y-67607142D01*
X82392857Y-67654761D01*
X82488095Y-67702380D01*
X82678571Y-67702380D01*
X82773809Y-67654761D01*
X82821428Y-67607142D01*
X82869047Y-67511904D01*
X82869047Y-67273809D01*
X82821428Y-67178571D01*
X82773809Y-67130952D01*
X82678571Y-67083333D01*
X82488095Y-67083333D01*
X82392857Y-67130952D01*
X82345238Y-67178571D01*
X82297619Y-67273809D01*
G04 #@! TO.C,J602*
X185914285Y-107262380D02*
X185914285Y-107976666D01*
X185866666Y-108119523D01*
X185771428Y-108214761D01*
X185628571Y-108262380D01*
X185533333Y-108262380D01*
X186819047Y-107262380D02*
X186628571Y-107262380D01*
X186533333Y-107310000D01*
X186485714Y-107357619D01*
X186390476Y-107500476D01*
X186342857Y-107690952D01*
X186342857Y-108071904D01*
X186390476Y-108167142D01*
X186438095Y-108214761D01*
X186533333Y-108262380D01*
X186723809Y-108262380D01*
X186819047Y-108214761D01*
X186866666Y-108167142D01*
X186914285Y-108071904D01*
X186914285Y-107833809D01*
X186866666Y-107738571D01*
X186819047Y-107690952D01*
X186723809Y-107643333D01*
X186533333Y-107643333D01*
X186438095Y-107690952D01*
X186390476Y-107738571D01*
X186342857Y-107833809D01*
X187533333Y-107262380D02*
X187628571Y-107262380D01*
X187723809Y-107310000D01*
X187771428Y-107357619D01*
X187819047Y-107452857D01*
X187866666Y-107643333D01*
X187866666Y-107881428D01*
X187819047Y-108071904D01*
X187771428Y-108167142D01*
X187723809Y-108214761D01*
X187628571Y-108262380D01*
X187533333Y-108262380D01*
X187438095Y-108214761D01*
X187390476Y-108167142D01*
X187342857Y-108071904D01*
X187295238Y-107881428D01*
X187295238Y-107643333D01*
X187342857Y-107452857D01*
X187390476Y-107357619D01*
X187438095Y-107310000D01*
X187533333Y-107262380D01*
X188247619Y-107357619D02*
X188295238Y-107310000D01*
X188390476Y-107262380D01*
X188628571Y-107262380D01*
X188723809Y-107310000D01*
X188771428Y-107357619D01*
X188819047Y-107452857D01*
X188819047Y-107548095D01*
X188771428Y-107690952D01*
X188200000Y-108262380D01*
X188819047Y-108262380D01*
X182795238Y-100642380D02*
X182795238Y-99642380D01*
X183176190Y-99642380D01*
X183271428Y-99690000D01*
X183319047Y-99737619D01*
X183366666Y-99832857D01*
X183366666Y-99975714D01*
X183319047Y-100070952D01*
X183271428Y-100118571D01*
X183176190Y-100166190D01*
X182795238Y-100166190D01*
X183700000Y-99642380D02*
X183938095Y-100642380D01*
X184128571Y-99928095D01*
X184319047Y-100642380D01*
X184557142Y-99642380D01*
X185509523Y-100642380D02*
X185176190Y-100166190D01*
X184938095Y-100642380D02*
X184938095Y-99642380D01*
X185319047Y-99642380D01*
X185414285Y-99690000D01*
X185461904Y-99737619D01*
X185509523Y-99832857D01*
X185509523Y-99975714D01*
X185461904Y-100070952D01*
X185414285Y-100118571D01*
X185319047Y-100166190D01*
X184938095Y-100166190D01*
X186652380Y-100594761D02*
X186795238Y-100642380D01*
X187033333Y-100642380D01*
X187128571Y-100594761D01*
X187176190Y-100547142D01*
X187223809Y-100451904D01*
X187223809Y-100356666D01*
X187176190Y-100261428D01*
X187128571Y-100213809D01*
X187033333Y-100166190D01*
X186842857Y-100118571D01*
X186747619Y-100070952D01*
X186700000Y-100023333D01*
X186652380Y-99928095D01*
X186652380Y-99832857D01*
X186700000Y-99737619D01*
X186747619Y-99690000D01*
X186842857Y-99642380D01*
X187080952Y-99642380D01*
X187223809Y-99690000D01*
X187557142Y-99642380D02*
X187795238Y-100642380D01*
X187985714Y-99928095D01*
X188176190Y-100642380D01*
X188414285Y-99642380D01*
X188795238Y-100642380D02*
X188795238Y-99642380D01*
X189128571Y-99642380D02*
X189700000Y-99642380D01*
X189414285Y-100642380D02*
X189414285Y-99642380D01*
X190604761Y-100547142D02*
X190557142Y-100594761D01*
X190414285Y-100642380D01*
X190319047Y-100642380D01*
X190176190Y-100594761D01*
X190080952Y-100499523D01*
X190033333Y-100404285D01*
X189985714Y-100213809D01*
X189985714Y-100070952D01*
X190033333Y-99880476D01*
X190080952Y-99785238D01*
X190176190Y-99690000D01*
X190319047Y-99642380D01*
X190414285Y-99642380D01*
X190557142Y-99690000D01*
X190604761Y-99737619D01*
X191033333Y-100642380D02*
X191033333Y-99642380D01*
X191033333Y-100118571D02*
X191604761Y-100118571D01*
X191604761Y-100642380D02*
X191604761Y-99642380D01*
G04 #@! TO.C,J611*
X170714285Y-139572380D02*
X170714285Y-140286666D01*
X170666666Y-140429523D01*
X170571428Y-140524761D01*
X170428571Y-140572380D01*
X170333333Y-140572380D01*
X171619047Y-139572380D02*
X171428571Y-139572380D01*
X171333333Y-139620000D01*
X171285714Y-139667619D01*
X171190476Y-139810476D01*
X171142857Y-140000952D01*
X171142857Y-140381904D01*
X171190476Y-140477142D01*
X171238095Y-140524761D01*
X171333333Y-140572380D01*
X171523809Y-140572380D01*
X171619047Y-140524761D01*
X171666666Y-140477142D01*
X171714285Y-140381904D01*
X171714285Y-140143809D01*
X171666666Y-140048571D01*
X171619047Y-140000952D01*
X171523809Y-139953333D01*
X171333333Y-139953333D01*
X171238095Y-140000952D01*
X171190476Y-140048571D01*
X171142857Y-140143809D01*
X172666666Y-140572380D02*
X172095238Y-140572380D01*
X172380952Y-140572380D02*
X172380952Y-139572380D01*
X172285714Y-139715238D01*
X172190476Y-139810476D01*
X172095238Y-139858095D01*
X173619047Y-140572380D02*
X173047619Y-140572380D01*
X173333333Y-140572380D02*
X173333333Y-139572380D01*
X173238095Y-139715238D01*
X173142857Y-139810476D01*
X173047619Y-139858095D01*
G04 #@! TO.C,K602*
X159909523Y-100452380D02*
X159909523Y-99452380D01*
X160480952Y-100452380D02*
X160052380Y-99880952D01*
X160480952Y-99452380D02*
X159909523Y-100023809D01*
X161338095Y-99452380D02*
X161147619Y-99452380D01*
X161052380Y-99500000D01*
X161004761Y-99547619D01*
X160909523Y-99690476D01*
X160861904Y-99880952D01*
X160861904Y-100261904D01*
X160909523Y-100357142D01*
X160957142Y-100404761D01*
X161052380Y-100452380D01*
X161242857Y-100452380D01*
X161338095Y-100404761D01*
X161385714Y-100357142D01*
X161433333Y-100261904D01*
X161433333Y-100023809D01*
X161385714Y-99928571D01*
X161338095Y-99880952D01*
X161242857Y-99833333D01*
X161052380Y-99833333D01*
X160957142Y-99880952D01*
X160909523Y-99928571D01*
X160861904Y-100023809D01*
X162052380Y-99452380D02*
X162147619Y-99452380D01*
X162242857Y-99500000D01*
X162290476Y-99547619D01*
X162338095Y-99642857D01*
X162385714Y-99833333D01*
X162385714Y-100071428D01*
X162338095Y-100261904D01*
X162290476Y-100357142D01*
X162242857Y-100404761D01*
X162147619Y-100452380D01*
X162052380Y-100452380D01*
X161957142Y-100404761D01*
X161909523Y-100357142D01*
X161861904Y-100261904D01*
X161814285Y-100071428D01*
X161814285Y-99833333D01*
X161861904Y-99642857D01*
X161909523Y-99547619D01*
X161957142Y-99500000D01*
X162052380Y-99452380D01*
X162766666Y-99547619D02*
X162814285Y-99500000D01*
X162909523Y-99452380D01*
X163147619Y-99452380D01*
X163242857Y-99500000D01*
X163290476Y-99547619D01*
X163338095Y-99642857D01*
X163338095Y-99738095D01*
X163290476Y-99880952D01*
X162719047Y-100452380D01*
X163338095Y-100452380D01*
G04 #@! TO.C,Q601*
X109702380Y-75047619D02*
X109607142Y-75000000D01*
X109511904Y-74904761D01*
X109369047Y-74761904D01*
X109273809Y-74714285D01*
X109178571Y-74714285D01*
X109226190Y-74952380D02*
X109130952Y-74904761D01*
X109035714Y-74809523D01*
X108988095Y-74619047D01*
X108988095Y-74285714D01*
X109035714Y-74095238D01*
X109130952Y-74000000D01*
X109226190Y-73952380D01*
X109416666Y-73952380D01*
X109511904Y-74000000D01*
X109607142Y-74095238D01*
X109654761Y-74285714D01*
X109654761Y-74619047D01*
X109607142Y-74809523D01*
X109511904Y-74904761D01*
X109416666Y-74952380D01*
X109226190Y-74952380D01*
X110511904Y-73952380D02*
X110321428Y-73952380D01*
X110226190Y-74000000D01*
X110178571Y-74047619D01*
X110083333Y-74190476D01*
X110035714Y-74380952D01*
X110035714Y-74761904D01*
X110083333Y-74857142D01*
X110130952Y-74904761D01*
X110226190Y-74952380D01*
X110416666Y-74952380D01*
X110511904Y-74904761D01*
X110559523Y-74857142D01*
X110607142Y-74761904D01*
X110607142Y-74523809D01*
X110559523Y-74428571D01*
X110511904Y-74380952D01*
X110416666Y-74333333D01*
X110226190Y-74333333D01*
X110130952Y-74380952D01*
X110083333Y-74428571D01*
X110035714Y-74523809D01*
X111226190Y-73952380D02*
X111321428Y-73952380D01*
X111416666Y-74000000D01*
X111464285Y-74047619D01*
X111511904Y-74142857D01*
X111559523Y-74333333D01*
X111559523Y-74571428D01*
X111511904Y-74761904D01*
X111464285Y-74857142D01*
X111416666Y-74904761D01*
X111321428Y-74952380D01*
X111226190Y-74952380D01*
X111130952Y-74904761D01*
X111083333Y-74857142D01*
X111035714Y-74761904D01*
X110988095Y-74571428D01*
X110988095Y-74333333D01*
X111035714Y-74142857D01*
X111083333Y-74047619D01*
X111130952Y-74000000D01*
X111226190Y-73952380D01*
X112511904Y-74952380D02*
X111940476Y-74952380D01*
X112226190Y-74952380D02*
X112226190Y-73952380D01*
X112130952Y-74095238D01*
X112035714Y-74190476D01*
X111940476Y-74238095D01*
G04 #@! TO.C,C201*
X80130952Y-132357142D02*
X80083333Y-132404761D01*
X79940476Y-132452380D01*
X79845238Y-132452380D01*
X79702380Y-132404761D01*
X79607142Y-132309523D01*
X79559523Y-132214285D01*
X79511904Y-132023809D01*
X79511904Y-131880952D01*
X79559523Y-131690476D01*
X79607142Y-131595238D01*
X79702380Y-131500000D01*
X79845238Y-131452380D01*
X79940476Y-131452380D01*
X80083333Y-131500000D01*
X80130952Y-131547619D01*
X80511904Y-131547619D02*
X80559523Y-131500000D01*
X80654761Y-131452380D01*
X80892857Y-131452380D01*
X80988095Y-131500000D01*
X81035714Y-131547619D01*
X81083333Y-131642857D01*
X81083333Y-131738095D01*
X81035714Y-131880952D01*
X80464285Y-132452380D01*
X81083333Y-132452380D01*
X81702380Y-131452380D02*
X81797619Y-131452380D01*
X81892857Y-131500000D01*
X81940476Y-131547619D01*
X81988095Y-131642857D01*
X82035714Y-131833333D01*
X82035714Y-132071428D01*
X81988095Y-132261904D01*
X81940476Y-132357142D01*
X81892857Y-132404761D01*
X81797619Y-132452380D01*
X81702380Y-132452380D01*
X81607142Y-132404761D01*
X81559523Y-132357142D01*
X81511904Y-132261904D01*
X81464285Y-132071428D01*
X81464285Y-131833333D01*
X81511904Y-131642857D01*
X81559523Y-131547619D01*
X81607142Y-131500000D01*
X81702380Y-131452380D01*
X82988095Y-132452380D02*
X82416666Y-132452380D01*
X82702380Y-132452380D02*
X82702380Y-131452380D01*
X82607142Y-131595238D01*
X82511904Y-131690476D01*
X82416666Y-131738095D01*
G04 #@! TO.C,C202*
X80130952Y-135607142D02*
X80083333Y-135654761D01*
X79940476Y-135702380D01*
X79845238Y-135702380D01*
X79702380Y-135654761D01*
X79607142Y-135559523D01*
X79559523Y-135464285D01*
X79511904Y-135273809D01*
X79511904Y-135130952D01*
X79559523Y-134940476D01*
X79607142Y-134845238D01*
X79702380Y-134750000D01*
X79845238Y-134702380D01*
X79940476Y-134702380D01*
X80083333Y-134750000D01*
X80130952Y-134797619D01*
X80511904Y-134797619D02*
X80559523Y-134750000D01*
X80654761Y-134702380D01*
X80892857Y-134702380D01*
X80988095Y-134750000D01*
X81035714Y-134797619D01*
X81083333Y-134892857D01*
X81083333Y-134988095D01*
X81035714Y-135130952D01*
X80464285Y-135702380D01*
X81083333Y-135702380D01*
X81702380Y-134702380D02*
X81797619Y-134702380D01*
X81892857Y-134750000D01*
X81940476Y-134797619D01*
X81988095Y-134892857D01*
X82035714Y-135083333D01*
X82035714Y-135321428D01*
X81988095Y-135511904D01*
X81940476Y-135607142D01*
X81892857Y-135654761D01*
X81797619Y-135702380D01*
X81702380Y-135702380D01*
X81607142Y-135654761D01*
X81559523Y-135607142D01*
X81511904Y-135511904D01*
X81464285Y-135321428D01*
X81464285Y-135083333D01*
X81511904Y-134892857D01*
X81559523Y-134797619D01*
X81607142Y-134750000D01*
X81702380Y-134702380D01*
X82416666Y-134797619D02*
X82464285Y-134750000D01*
X82559523Y-134702380D01*
X82797619Y-134702380D01*
X82892857Y-134750000D01*
X82940476Y-134797619D01*
X82988095Y-134892857D01*
X82988095Y-134988095D01*
X82940476Y-135130952D01*
X82369047Y-135702380D01*
X82988095Y-135702380D01*
G04 #@! TO.C,C203*
X87880952Y-128627142D02*
X87833333Y-128674761D01*
X87690476Y-128722380D01*
X87595238Y-128722380D01*
X87452380Y-128674761D01*
X87357142Y-128579523D01*
X87309523Y-128484285D01*
X87261904Y-128293809D01*
X87261904Y-128150952D01*
X87309523Y-127960476D01*
X87357142Y-127865238D01*
X87452380Y-127770000D01*
X87595238Y-127722380D01*
X87690476Y-127722380D01*
X87833333Y-127770000D01*
X87880952Y-127817619D01*
X88261904Y-127817619D02*
X88309523Y-127770000D01*
X88404761Y-127722380D01*
X88642857Y-127722380D01*
X88738095Y-127770000D01*
X88785714Y-127817619D01*
X88833333Y-127912857D01*
X88833333Y-128008095D01*
X88785714Y-128150952D01*
X88214285Y-128722380D01*
X88833333Y-128722380D01*
X89452380Y-127722380D02*
X89547619Y-127722380D01*
X89642857Y-127770000D01*
X89690476Y-127817619D01*
X89738095Y-127912857D01*
X89785714Y-128103333D01*
X89785714Y-128341428D01*
X89738095Y-128531904D01*
X89690476Y-128627142D01*
X89642857Y-128674761D01*
X89547619Y-128722380D01*
X89452380Y-128722380D01*
X89357142Y-128674761D01*
X89309523Y-128627142D01*
X89261904Y-128531904D01*
X89214285Y-128341428D01*
X89214285Y-128103333D01*
X89261904Y-127912857D01*
X89309523Y-127817619D01*
X89357142Y-127770000D01*
X89452380Y-127722380D01*
X90119047Y-127722380D02*
X90738095Y-127722380D01*
X90404761Y-128103333D01*
X90547619Y-128103333D01*
X90642857Y-128150952D01*
X90690476Y-128198571D01*
X90738095Y-128293809D01*
X90738095Y-128531904D01*
X90690476Y-128627142D01*
X90642857Y-128674761D01*
X90547619Y-128722380D01*
X90261904Y-128722380D01*
X90166666Y-128674761D01*
X90119047Y-128627142D01*
G04 #@! TO.C,C204*
X80130952Y-138607142D02*
X80083333Y-138654761D01*
X79940476Y-138702380D01*
X79845238Y-138702380D01*
X79702380Y-138654761D01*
X79607142Y-138559523D01*
X79559523Y-138464285D01*
X79511904Y-138273809D01*
X79511904Y-138130952D01*
X79559523Y-137940476D01*
X79607142Y-137845238D01*
X79702380Y-137750000D01*
X79845238Y-137702380D01*
X79940476Y-137702380D01*
X80083333Y-137750000D01*
X80130952Y-137797619D01*
X80511904Y-137797619D02*
X80559523Y-137750000D01*
X80654761Y-137702380D01*
X80892857Y-137702380D01*
X80988095Y-137750000D01*
X81035714Y-137797619D01*
X81083333Y-137892857D01*
X81083333Y-137988095D01*
X81035714Y-138130952D01*
X80464285Y-138702380D01*
X81083333Y-138702380D01*
X81702380Y-137702380D02*
X81797619Y-137702380D01*
X81892857Y-137750000D01*
X81940476Y-137797619D01*
X81988095Y-137892857D01*
X82035714Y-138083333D01*
X82035714Y-138321428D01*
X81988095Y-138511904D01*
X81940476Y-138607142D01*
X81892857Y-138654761D01*
X81797619Y-138702380D01*
X81702380Y-138702380D01*
X81607142Y-138654761D01*
X81559523Y-138607142D01*
X81511904Y-138511904D01*
X81464285Y-138321428D01*
X81464285Y-138083333D01*
X81511904Y-137892857D01*
X81559523Y-137797619D01*
X81607142Y-137750000D01*
X81702380Y-137702380D01*
X82892857Y-138035714D02*
X82892857Y-138702380D01*
X82654761Y-137654761D02*
X82416666Y-138369047D01*
X83035714Y-138369047D01*
G04 #@! TO.C,C301*
X70357142Y-91619047D02*
X70404761Y-91666666D01*
X70452380Y-91809523D01*
X70452380Y-91904761D01*
X70404761Y-92047619D01*
X70309523Y-92142857D01*
X70214285Y-92190476D01*
X70023809Y-92238095D01*
X69880952Y-92238095D01*
X69690476Y-92190476D01*
X69595238Y-92142857D01*
X69500000Y-92047619D01*
X69452380Y-91904761D01*
X69452380Y-91809523D01*
X69500000Y-91666666D01*
X69547619Y-91619047D01*
X69452380Y-91285714D02*
X69452380Y-90666666D01*
X69833333Y-91000000D01*
X69833333Y-90857142D01*
X69880952Y-90761904D01*
X69928571Y-90714285D01*
X70023809Y-90666666D01*
X70261904Y-90666666D01*
X70357142Y-90714285D01*
X70404761Y-90761904D01*
X70452380Y-90857142D01*
X70452380Y-91142857D01*
X70404761Y-91238095D01*
X70357142Y-91285714D01*
X69452380Y-90047619D02*
X69452380Y-89952380D01*
X69500000Y-89857142D01*
X69547619Y-89809523D01*
X69642857Y-89761904D01*
X69833333Y-89714285D01*
X70071428Y-89714285D01*
X70261904Y-89761904D01*
X70357142Y-89809523D01*
X70404761Y-89857142D01*
X70452380Y-89952380D01*
X70452380Y-90047619D01*
X70404761Y-90142857D01*
X70357142Y-90190476D01*
X70261904Y-90238095D01*
X70071428Y-90285714D01*
X69833333Y-90285714D01*
X69642857Y-90238095D01*
X69547619Y-90190476D01*
X69500000Y-90142857D01*
X69452380Y-90047619D01*
X70452380Y-88761904D02*
X70452380Y-89333333D01*
X70452380Y-89047619D02*
X69452380Y-89047619D01*
X69595238Y-89142857D01*
X69690476Y-89238095D01*
X69738095Y-89333333D01*
G04 #@! TO.C,C302*
X91927142Y-130019047D02*
X91974761Y-130066666D01*
X92022380Y-130209523D01*
X92022380Y-130304761D01*
X91974761Y-130447619D01*
X91879523Y-130542857D01*
X91784285Y-130590476D01*
X91593809Y-130638095D01*
X91450952Y-130638095D01*
X91260476Y-130590476D01*
X91165238Y-130542857D01*
X91070000Y-130447619D01*
X91022380Y-130304761D01*
X91022380Y-130209523D01*
X91070000Y-130066666D01*
X91117619Y-130019047D01*
X91022380Y-129685714D02*
X91022380Y-129066666D01*
X91403333Y-129400000D01*
X91403333Y-129257142D01*
X91450952Y-129161904D01*
X91498571Y-129114285D01*
X91593809Y-129066666D01*
X91831904Y-129066666D01*
X91927142Y-129114285D01*
X91974761Y-129161904D01*
X92022380Y-129257142D01*
X92022380Y-129542857D01*
X91974761Y-129638095D01*
X91927142Y-129685714D01*
X91022380Y-128447619D02*
X91022380Y-128352380D01*
X91070000Y-128257142D01*
X91117619Y-128209523D01*
X91212857Y-128161904D01*
X91403333Y-128114285D01*
X91641428Y-128114285D01*
X91831904Y-128161904D01*
X91927142Y-128209523D01*
X91974761Y-128257142D01*
X92022380Y-128352380D01*
X92022380Y-128447619D01*
X91974761Y-128542857D01*
X91927142Y-128590476D01*
X91831904Y-128638095D01*
X91641428Y-128685714D01*
X91403333Y-128685714D01*
X91212857Y-128638095D01*
X91117619Y-128590476D01*
X91070000Y-128542857D01*
X91022380Y-128447619D01*
X91117619Y-127733333D02*
X91070000Y-127685714D01*
X91022380Y-127590476D01*
X91022380Y-127352380D01*
X91070000Y-127257142D01*
X91117619Y-127209523D01*
X91212857Y-127161904D01*
X91308095Y-127161904D01*
X91450952Y-127209523D01*
X92022380Y-127780952D01*
X92022380Y-127161904D01*
G04 #@! TO.C,C303*
X90327142Y-130019047D02*
X90374761Y-130066666D01*
X90422380Y-130209523D01*
X90422380Y-130304761D01*
X90374761Y-130447619D01*
X90279523Y-130542857D01*
X90184285Y-130590476D01*
X89993809Y-130638095D01*
X89850952Y-130638095D01*
X89660476Y-130590476D01*
X89565238Y-130542857D01*
X89470000Y-130447619D01*
X89422380Y-130304761D01*
X89422380Y-130209523D01*
X89470000Y-130066666D01*
X89517619Y-130019047D01*
X89422380Y-129685714D02*
X89422380Y-129066666D01*
X89803333Y-129400000D01*
X89803333Y-129257142D01*
X89850952Y-129161904D01*
X89898571Y-129114285D01*
X89993809Y-129066666D01*
X90231904Y-129066666D01*
X90327142Y-129114285D01*
X90374761Y-129161904D01*
X90422380Y-129257142D01*
X90422380Y-129542857D01*
X90374761Y-129638095D01*
X90327142Y-129685714D01*
X89422380Y-128447619D02*
X89422380Y-128352380D01*
X89470000Y-128257142D01*
X89517619Y-128209523D01*
X89612857Y-128161904D01*
X89803333Y-128114285D01*
X90041428Y-128114285D01*
X90231904Y-128161904D01*
X90327142Y-128209523D01*
X90374761Y-128257142D01*
X90422380Y-128352380D01*
X90422380Y-128447619D01*
X90374761Y-128542857D01*
X90327142Y-128590476D01*
X90231904Y-128638095D01*
X90041428Y-128685714D01*
X89803333Y-128685714D01*
X89612857Y-128638095D01*
X89517619Y-128590476D01*
X89470000Y-128542857D01*
X89422380Y-128447619D01*
X89422380Y-127780952D02*
X89422380Y-127161904D01*
X89803333Y-127495238D01*
X89803333Y-127352380D01*
X89850952Y-127257142D01*
X89898571Y-127209523D01*
X89993809Y-127161904D01*
X90231904Y-127161904D01*
X90327142Y-127209523D01*
X90374761Y-127257142D01*
X90422380Y-127352380D01*
X90422380Y-127638095D01*
X90374761Y-127733333D01*
X90327142Y-127780952D01*
G04 #@! TO.C,C601*
X106107142Y-72869047D02*
X106154761Y-72916666D01*
X106202380Y-73059523D01*
X106202380Y-73154761D01*
X106154761Y-73297619D01*
X106059523Y-73392857D01*
X105964285Y-73440476D01*
X105773809Y-73488095D01*
X105630952Y-73488095D01*
X105440476Y-73440476D01*
X105345238Y-73392857D01*
X105250000Y-73297619D01*
X105202380Y-73154761D01*
X105202380Y-73059523D01*
X105250000Y-72916666D01*
X105297619Y-72869047D01*
X105202380Y-72011904D02*
X105202380Y-72202380D01*
X105250000Y-72297619D01*
X105297619Y-72345238D01*
X105440476Y-72440476D01*
X105630952Y-72488095D01*
X106011904Y-72488095D01*
X106107142Y-72440476D01*
X106154761Y-72392857D01*
X106202380Y-72297619D01*
X106202380Y-72107142D01*
X106154761Y-72011904D01*
X106107142Y-71964285D01*
X106011904Y-71916666D01*
X105773809Y-71916666D01*
X105678571Y-71964285D01*
X105630952Y-72011904D01*
X105583333Y-72107142D01*
X105583333Y-72297619D01*
X105630952Y-72392857D01*
X105678571Y-72440476D01*
X105773809Y-72488095D01*
X105202380Y-71297619D02*
X105202380Y-71202380D01*
X105250000Y-71107142D01*
X105297619Y-71059523D01*
X105392857Y-71011904D01*
X105583333Y-70964285D01*
X105821428Y-70964285D01*
X106011904Y-71011904D01*
X106107142Y-71059523D01*
X106154761Y-71107142D01*
X106202380Y-71202380D01*
X106202380Y-71297619D01*
X106154761Y-71392857D01*
X106107142Y-71440476D01*
X106011904Y-71488095D01*
X105821428Y-71535714D01*
X105583333Y-71535714D01*
X105392857Y-71488095D01*
X105297619Y-71440476D01*
X105250000Y-71392857D01*
X105202380Y-71297619D01*
X106202380Y-70011904D02*
X106202380Y-70583333D01*
X106202380Y-70297619D02*
X105202380Y-70297619D01*
X105345238Y-70392857D01*
X105440476Y-70488095D01*
X105488095Y-70583333D01*
G04 #@! TO.C,F601*
X197964285Y-113178571D02*
X197630952Y-113178571D01*
X197630952Y-113702380D02*
X197630952Y-112702380D01*
X198107142Y-112702380D01*
X198916666Y-112702380D02*
X198726190Y-112702380D01*
X198630952Y-112750000D01*
X198583333Y-112797619D01*
X198488095Y-112940476D01*
X198440476Y-113130952D01*
X198440476Y-113511904D01*
X198488095Y-113607142D01*
X198535714Y-113654761D01*
X198630952Y-113702380D01*
X198821428Y-113702380D01*
X198916666Y-113654761D01*
X198964285Y-113607142D01*
X199011904Y-113511904D01*
X199011904Y-113273809D01*
X198964285Y-113178571D01*
X198916666Y-113130952D01*
X198821428Y-113083333D01*
X198630952Y-113083333D01*
X198535714Y-113130952D01*
X198488095Y-113178571D01*
X198440476Y-113273809D01*
X199630952Y-112702380D02*
X199726190Y-112702380D01*
X199821428Y-112750000D01*
X199869047Y-112797619D01*
X199916666Y-112892857D01*
X199964285Y-113083333D01*
X199964285Y-113321428D01*
X199916666Y-113511904D01*
X199869047Y-113607142D01*
X199821428Y-113654761D01*
X199726190Y-113702380D01*
X199630952Y-113702380D01*
X199535714Y-113654761D01*
X199488095Y-113607142D01*
X199440476Y-113511904D01*
X199392857Y-113321428D01*
X199392857Y-113083333D01*
X199440476Y-112892857D01*
X199488095Y-112797619D01*
X199535714Y-112750000D01*
X199630952Y-112702380D01*
X200916666Y-113702380D02*
X200345238Y-113702380D01*
X200630952Y-113702380D02*
X200630952Y-112702380D01*
X200535714Y-112845238D01*
X200440476Y-112940476D01*
X200345238Y-112988095D01*
X205178571Y-108232857D02*
X205178571Y-108566190D01*
X205702380Y-108566190D02*
X204702380Y-108566190D01*
X204702380Y-108090000D01*
X205035714Y-107280476D02*
X205702380Y-107280476D01*
X205035714Y-107709047D02*
X205559523Y-107709047D01*
X205654761Y-107661428D01*
X205702380Y-107566190D01*
X205702380Y-107423333D01*
X205654761Y-107328095D01*
X205607142Y-107280476D01*
X205654761Y-106851904D02*
X205702380Y-106756666D01*
X205702380Y-106566190D01*
X205654761Y-106470952D01*
X205559523Y-106423333D01*
X205511904Y-106423333D01*
X205416666Y-106470952D01*
X205369047Y-106566190D01*
X205369047Y-106709047D01*
X205321428Y-106804285D01*
X205226190Y-106851904D01*
X205178571Y-106851904D01*
X205083333Y-106804285D01*
X205035714Y-106709047D01*
X205035714Y-106566190D01*
X205083333Y-106470952D01*
X205654761Y-105613809D02*
X205702380Y-105709047D01*
X205702380Y-105899523D01*
X205654761Y-105994761D01*
X205559523Y-106042380D01*
X205178571Y-106042380D01*
X205083333Y-105994761D01*
X205035714Y-105899523D01*
X205035714Y-105709047D01*
X205083333Y-105613809D01*
X205178571Y-105566190D01*
X205273809Y-105566190D01*
X205369047Y-106042380D01*
G04 #@! TO.C,J104*
X61514285Y-142752380D02*
X61514285Y-143466666D01*
X61466666Y-143609523D01*
X61371428Y-143704761D01*
X61228571Y-143752380D01*
X61133333Y-143752380D01*
X62514285Y-143752380D02*
X61942857Y-143752380D01*
X62228571Y-143752380D02*
X62228571Y-142752380D01*
X62133333Y-142895238D01*
X62038095Y-142990476D01*
X61942857Y-143038095D01*
X63133333Y-142752380D02*
X63228571Y-142752380D01*
X63323809Y-142800000D01*
X63371428Y-142847619D01*
X63419047Y-142942857D01*
X63466666Y-143133333D01*
X63466666Y-143371428D01*
X63419047Y-143561904D01*
X63371428Y-143657142D01*
X63323809Y-143704761D01*
X63228571Y-143752380D01*
X63133333Y-143752380D01*
X63038095Y-143704761D01*
X62990476Y-143657142D01*
X62942857Y-143561904D01*
X62895238Y-143371428D01*
X62895238Y-143133333D01*
X62942857Y-142942857D01*
X62990476Y-142847619D01*
X63038095Y-142800000D01*
X63133333Y-142752380D01*
X64323809Y-143085714D02*
X64323809Y-143752380D01*
X64085714Y-142704761D02*
X63847619Y-143419047D01*
X64466666Y-143419047D01*
G04 #@! TO.C,J105*
X61514285Y-58752380D02*
X61514285Y-59466666D01*
X61466666Y-59609523D01*
X61371428Y-59704761D01*
X61228571Y-59752380D01*
X61133333Y-59752380D01*
X62514285Y-59752380D02*
X61942857Y-59752380D01*
X62228571Y-59752380D02*
X62228571Y-58752380D01*
X62133333Y-58895238D01*
X62038095Y-58990476D01*
X61942857Y-59038095D01*
X63133333Y-58752380D02*
X63228571Y-58752380D01*
X63323809Y-58800000D01*
X63371428Y-58847619D01*
X63419047Y-58942857D01*
X63466666Y-59133333D01*
X63466666Y-59371428D01*
X63419047Y-59561904D01*
X63371428Y-59657142D01*
X63323809Y-59704761D01*
X63228571Y-59752380D01*
X63133333Y-59752380D01*
X63038095Y-59704761D01*
X62990476Y-59657142D01*
X62942857Y-59561904D01*
X62895238Y-59371428D01*
X62895238Y-59133333D01*
X62942857Y-58942857D01*
X62990476Y-58847619D01*
X63038095Y-58800000D01*
X63133333Y-58752380D01*
X64371428Y-58752380D02*
X63895238Y-58752380D01*
X63847619Y-59228571D01*
X63895238Y-59180952D01*
X63990476Y-59133333D01*
X64228571Y-59133333D01*
X64323809Y-59180952D01*
X64371428Y-59228571D01*
X64419047Y-59323809D01*
X64419047Y-59561904D01*
X64371428Y-59657142D01*
X64323809Y-59704761D01*
X64228571Y-59752380D01*
X63990476Y-59752380D01*
X63895238Y-59704761D01*
X63847619Y-59657142D01*
G04 #@! TO.C,J106*
X203464285Y-141702380D02*
X203464285Y-142416666D01*
X203416666Y-142559523D01*
X203321428Y-142654761D01*
X203178571Y-142702380D01*
X203083333Y-142702380D01*
X204464285Y-142702380D02*
X203892857Y-142702380D01*
X204178571Y-142702380D02*
X204178571Y-141702380D01*
X204083333Y-141845238D01*
X203988095Y-141940476D01*
X203892857Y-141988095D01*
X205083333Y-141702380D02*
X205178571Y-141702380D01*
X205273809Y-141750000D01*
X205321428Y-141797619D01*
X205369047Y-141892857D01*
X205416666Y-142083333D01*
X205416666Y-142321428D01*
X205369047Y-142511904D01*
X205321428Y-142607142D01*
X205273809Y-142654761D01*
X205178571Y-142702380D01*
X205083333Y-142702380D01*
X204988095Y-142654761D01*
X204940476Y-142607142D01*
X204892857Y-142511904D01*
X204845238Y-142321428D01*
X204845238Y-142083333D01*
X204892857Y-141892857D01*
X204940476Y-141797619D01*
X204988095Y-141750000D01*
X205083333Y-141702380D01*
X206273809Y-141702380D02*
X206083333Y-141702380D01*
X205988095Y-141750000D01*
X205940476Y-141797619D01*
X205845238Y-141940476D01*
X205797619Y-142130952D01*
X205797619Y-142511904D01*
X205845238Y-142607142D01*
X205892857Y-142654761D01*
X205988095Y-142702380D01*
X206178571Y-142702380D01*
X206273809Y-142654761D01*
X206321428Y-142607142D01*
X206369047Y-142511904D01*
X206369047Y-142273809D01*
X206321428Y-142178571D01*
X206273809Y-142130952D01*
X206178571Y-142083333D01*
X205988095Y-142083333D01*
X205892857Y-142130952D01*
X205845238Y-142178571D01*
X205797619Y-142273809D01*
G04 #@! TO.C,J107*
X203914285Y-64152380D02*
X203914285Y-64866666D01*
X203866666Y-65009523D01*
X203771428Y-65104761D01*
X203628571Y-65152380D01*
X203533333Y-65152380D01*
X204914285Y-65152380D02*
X204342857Y-65152380D01*
X204628571Y-65152380D02*
X204628571Y-64152380D01*
X204533333Y-64295238D01*
X204438095Y-64390476D01*
X204342857Y-64438095D01*
X205533333Y-64152380D02*
X205628571Y-64152380D01*
X205723809Y-64200000D01*
X205771428Y-64247619D01*
X205819047Y-64342857D01*
X205866666Y-64533333D01*
X205866666Y-64771428D01*
X205819047Y-64961904D01*
X205771428Y-65057142D01*
X205723809Y-65104761D01*
X205628571Y-65152380D01*
X205533333Y-65152380D01*
X205438095Y-65104761D01*
X205390476Y-65057142D01*
X205342857Y-64961904D01*
X205295238Y-64771428D01*
X205295238Y-64533333D01*
X205342857Y-64342857D01*
X205390476Y-64247619D01*
X205438095Y-64200000D01*
X205533333Y-64152380D01*
X206200000Y-64152380D02*
X206866666Y-64152380D01*
X206438095Y-65152380D01*
G04 #@! TO.C,J201*
X98452380Y-107985714D02*
X99166666Y-107985714D01*
X99309523Y-108033333D01*
X99404761Y-108128571D01*
X99452380Y-108271428D01*
X99452380Y-108366666D01*
X98547619Y-107557142D02*
X98500000Y-107509523D01*
X98452380Y-107414285D01*
X98452380Y-107176190D01*
X98500000Y-107080952D01*
X98547619Y-107033333D01*
X98642857Y-106985714D01*
X98738095Y-106985714D01*
X98880952Y-107033333D01*
X99452380Y-107604761D01*
X99452380Y-106985714D01*
X98452380Y-106366666D02*
X98452380Y-106271428D01*
X98500000Y-106176190D01*
X98547619Y-106128571D01*
X98642857Y-106080952D01*
X98833333Y-106033333D01*
X99071428Y-106033333D01*
X99261904Y-106080952D01*
X99357142Y-106128571D01*
X99404761Y-106176190D01*
X99452380Y-106271428D01*
X99452380Y-106366666D01*
X99404761Y-106461904D01*
X99357142Y-106509523D01*
X99261904Y-106557142D01*
X99071428Y-106604761D01*
X98833333Y-106604761D01*
X98642857Y-106557142D01*
X98547619Y-106509523D01*
X98500000Y-106461904D01*
X98452380Y-106366666D01*
X99452380Y-105080952D02*
X99452380Y-105652380D01*
X99452380Y-105366666D02*
X98452380Y-105366666D01*
X98595238Y-105461904D01*
X98690476Y-105557142D01*
X98738095Y-105652380D01*
X112654761Y-114864285D02*
X112702380Y-114959523D01*
X112702380Y-115150000D01*
X112654761Y-115245238D01*
X112607142Y-115292857D01*
X112511904Y-115340476D01*
X112226190Y-115340476D01*
X112130952Y-115292857D01*
X112083333Y-115245238D01*
X112035714Y-115150000D01*
X112035714Y-114959523D01*
X112083333Y-114864285D01*
X112702380Y-114292857D02*
X112654761Y-114388095D01*
X112607142Y-114435714D01*
X112511904Y-114483333D01*
X112226190Y-114483333D01*
X112130952Y-114435714D01*
X112083333Y-114388095D01*
X112035714Y-114292857D01*
X112035714Y-114150000D01*
X112083333Y-114054761D01*
X112130952Y-114007142D01*
X112226190Y-113959523D01*
X112511904Y-113959523D01*
X112607142Y-114007142D01*
X112654761Y-114054761D01*
X112702380Y-114150000D01*
X112702380Y-114292857D01*
X112035714Y-113530952D02*
X112702380Y-113530952D01*
X112130952Y-113530952D02*
X112083333Y-113483333D01*
X112035714Y-113388095D01*
X112035714Y-113245238D01*
X112083333Y-113150000D01*
X112178571Y-113102380D01*
X112702380Y-113102380D01*
X112654761Y-112673809D02*
X112702380Y-112578571D01*
X112702380Y-112388095D01*
X112654761Y-112292857D01*
X112559523Y-112245238D01*
X112511904Y-112245238D01*
X112416666Y-112292857D01*
X112369047Y-112388095D01*
X112369047Y-112530952D01*
X112321428Y-112626190D01*
X112226190Y-112673809D01*
X112178571Y-112673809D01*
X112083333Y-112626190D01*
X112035714Y-112530952D01*
X112035714Y-112388095D01*
X112083333Y-112292857D01*
X112702380Y-111673809D02*
X112654761Y-111769047D01*
X112607142Y-111816666D01*
X112511904Y-111864285D01*
X112226190Y-111864285D01*
X112130952Y-111816666D01*
X112083333Y-111769047D01*
X112035714Y-111673809D01*
X112035714Y-111530952D01*
X112083333Y-111435714D01*
X112130952Y-111388095D01*
X112226190Y-111340476D01*
X112511904Y-111340476D01*
X112607142Y-111388095D01*
X112654761Y-111435714D01*
X112702380Y-111530952D01*
X112702380Y-111673809D01*
X112702380Y-110769047D02*
X112654761Y-110864285D01*
X112559523Y-110911904D01*
X111702380Y-110911904D01*
X112654761Y-110007142D02*
X112702380Y-110102380D01*
X112702380Y-110292857D01*
X112654761Y-110388095D01*
X112559523Y-110435714D01*
X112178571Y-110435714D01*
X112083333Y-110388095D01*
X112035714Y-110292857D01*
X112035714Y-110102380D01*
X112083333Y-110007142D01*
X112178571Y-109959523D01*
X112273809Y-109959523D01*
X112369047Y-110435714D01*
G04 #@! TO.C,J202*
X66614285Y-66552380D02*
X66614285Y-67266666D01*
X66566666Y-67409523D01*
X66471428Y-67504761D01*
X66328571Y-67552380D01*
X66233333Y-67552380D01*
X67042857Y-66647619D02*
X67090476Y-66600000D01*
X67185714Y-66552380D01*
X67423809Y-66552380D01*
X67519047Y-66600000D01*
X67566666Y-66647619D01*
X67614285Y-66742857D01*
X67614285Y-66838095D01*
X67566666Y-66980952D01*
X66995238Y-67552380D01*
X67614285Y-67552380D01*
X68233333Y-66552380D02*
X68328571Y-66552380D01*
X68423809Y-66600000D01*
X68471428Y-66647619D01*
X68519047Y-66742857D01*
X68566666Y-66933333D01*
X68566666Y-67171428D01*
X68519047Y-67361904D01*
X68471428Y-67457142D01*
X68423809Y-67504761D01*
X68328571Y-67552380D01*
X68233333Y-67552380D01*
X68138095Y-67504761D01*
X68090476Y-67457142D01*
X68042857Y-67361904D01*
X67995238Y-67171428D01*
X67995238Y-66933333D01*
X68042857Y-66742857D01*
X68090476Y-66647619D01*
X68138095Y-66600000D01*
X68233333Y-66552380D01*
X68947619Y-66647619D02*
X68995238Y-66600000D01*
X69090476Y-66552380D01*
X69328571Y-66552380D01*
X69423809Y-66600000D01*
X69471428Y-66647619D01*
X69519047Y-66742857D01*
X69519047Y-66838095D01*
X69471428Y-66980952D01*
X68900000Y-67552380D01*
X69519047Y-67552380D01*
G04 #@! TO.C,J301*
X68952380Y-102535714D02*
X69666666Y-102535714D01*
X69809523Y-102583333D01*
X69904761Y-102678571D01*
X69952380Y-102821428D01*
X69952380Y-102916666D01*
X68952380Y-102154761D02*
X68952380Y-101535714D01*
X69333333Y-101869047D01*
X69333333Y-101726190D01*
X69380952Y-101630952D01*
X69428571Y-101583333D01*
X69523809Y-101535714D01*
X69761904Y-101535714D01*
X69857142Y-101583333D01*
X69904761Y-101630952D01*
X69952380Y-101726190D01*
X69952380Y-102011904D01*
X69904761Y-102107142D01*
X69857142Y-102154761D01*
X68952380Y-100916666D02*
X68952380Y-100821428D01*
X69000000Y-100726190D01*
X69047619Y-100678571D01*
X69142857Y-100630952D01*
X69333333Y-100583333D01*
X69571428Y-100583333D01*
X69761904Y-100630952D01*
X69857142Y-100678571D01*
X69904761Y-100726190D01*
X69952380Y-100821428D01*
X69952380Y-100916666D01*
X69904761Y-101011904D01*
X69857142Y-101059523D01*
X69761904Y-101107142D01*
X69571428Y-101154761D01*
X69333333Y-101154761D01*
X69142857Y-101107142D01*
X69047619Y-101059523D01*
X69000000Y-101011904D01*
X68952380Y-100916666D01*
X69952380Y-99630952D02*
X69952380Y-100202380D01*
X69952380Y-99916666D02*
X68952380Y-99916666D01*
X69095238Y-100011904D01*
X69190476Y-100107142D01*
X69238095Y-100202380D01*
X76952380Y-101559523D02*
X76952380Y-100988095D01*
X77952380Y-101273809D02*
X76952380Y-101273809D01*
X77428571Y-100654761D02*
X77428571Y-100321428D01*
X77952380Y-100178571D02*
X77952380Y-100654761D01*
X76952380Y-100654761D01*
X76952380Y-100178571D01*
X77952380Y-99178571D02*
X77476190Y-99511904D01*
X77952380Y-99750000D02*
X76952380Y-99750000D01*
X76952380Y-99369047D01*
X77000000Y-99273809D01*
X77047619Y-99226190D01*
X77142857Y-99178571D01*
X77285714Y-99178571D01*
X77380952Y-99226190D01*
X77428571Y-99273809D01*
X77476190Y-99369047D01*
X77476190Y-99750000D01*
X77952380Y-98750000D02*
X76952380Y-98750000D01*
X77666666Y-98416666D01*
X76952380Y-98083333D01*
X77952380Y-98083333D01*
G04 #@! TO.C,J302*
X71714285Y-140952380D02*
X71714285Y-141666666D01*
X71666666Y-141809523D01*
X71571428Y-141904761D01*
X71428571Y-141952380D01*
X71333333Y-141952380D01*
X72095238Y-140952380D02*
X72714285Y-140952380D01*
X72380952Y-141333333D01*
X72523809Y-141333333D01*
X72619047Y-141380952D01*
X72666666Y-141428571D01*
X72714285Y-141523809D01*
X72714285Y-141761904D01*
X72666666Y-141857142D01*
X72619047Y-141904761D01*
X72523809Y-141952380D01*
X72238095Y-141952380D01*
X72142857Y-141904761D01*
X72095238Y-141857142D01*
X73333333Y-140952380D02*
X73428571Y-140952380D01*
X73523809Y-141000000D01*
X73571428Y-141047619D01*
X73619047Y-141142857D01*
X73666666Y-141333333D01*
X73666666Y-141571428D01*
X73619047Y-141761904D01*
X73571428Y-141857142D01*
X73523809Y-141904761D01*
X73428571Y-141952380D01*
X73333333Y-141952380D01*
X73238095Y-141904761D01*
X73190476Y-141857142D01*
X73142857Y-141761904D01*
X73095238Y-141571428D01*
X73095238Y-141333333D01*
X73142857Y-141142857D01*
X73190476Y-141047619D01*
X73238095Y-141000000D01*
X73333333Y-140952380D01*
X74047619Y-141047619D02*
X74095238Y-141000000D01*
X74190476Y-140952380D01*
X74428571Y-140952380D01*
X74523809Y-141000000D01*
X74571428Y-141047619D01*
X74619047Y-141142857D01*
X74619047Y-141238095D01*
X74571428Y-141380952D01*
X74000000Y-141952380D01*
X74619047Y-141952380D01*
X67857142Y-146642857D02*
X67904761Y-146690476D01*
X67952380Y-146833333D01*
X67952380Y-146928571D01*
X67904761Y-147071428D01*
X67809523Y-147166666D01*
X67714285Y-147214285D01*
X67523809Y-147261904D01*
X67380952Y-147261904D01*
X67190476Y-147214285D01*
X67095238Y-147166666D01*
X67000000Y-147071428D01*
X66952380Y-146928571D01*
X66952380Y-146833333D01*
X67000000Y-146690476D01*
X67047619Y-146642857D01*
X67666666Y-146261904D02*
X67666666Y-145785714D01*
X67952380Y-146357142D02*
X66952380Y-146023809D01*
X67952380Y-145690476D01*
X67952380Y-145357142D02*
X66952380Y-145357142D01*
X67952380Y-144785714D01*
X66952380Y-144785714D01*
G04 #@! TO.C,J401*
X102444285Y-141292380D02*
X102444285Y-142006666D01*
X102396666Y-142149523D01*
X102301428Y-142244761D01*
X102158571Y-142292380D01*
X102063333Y-142292380D01*
X103349047Y-141625714D02*
X103349047Y-142292380D01*
X103110952Y-141244761D02*
X102872857Y-141959047D01*
X103491904Y-141959047D01*
X104063333Y-141292380D02*
X104158571Y-141292380D01*
X104253809Y-141340000D01*
X104301428Y-141387619D01*
X104349047Y-141482857D01*
X104396666Y-141673333D01*
X104396666Y-141911428D01*
X104349047Y-142101904D01*
X104301428Y-142197142D01*
X104253809Y-142244761D01*
X104158571Y-142292380D01*
X104063333Y-142292380D01*
X103968095Y-142244761D01*
X103920476Y-142197142D01*
X103872857Y-142101904D01*
X103825238Y-141911428D01*
X103825238Y-141673333D01*
X103872857Y-141482857D01*
X103920476Y-141387619D01*
X103968095Y-141340000D01*
X104063333Y-141292380D01*
X105349047Y-142292380D02*
X104777619Y-142292380D01*
X105063333Y-142292380D02*
X105063333Y-141292380D01*
X104968095Y-141435238D01*
X104872857Y-141530476D01*
X104777619Y-141578095D01*
X110000000Y-146761904D02*
X109952380Y-146857142D01*
X109952380Y-147000000D01*
X110000000Y-147142857D01*
X110095238Y-147238095D01*
X110190476Y-147285714D01*
X110380952Y-147333333D01*
X110523809Y-147333333D01*
X110714285Y-147285714D01*
X110809523Y-147238095D01*
X110904761Y-147142857D01*
X110952380Y-147000000D01*
X110952380Y-146904761D01*
X110904761Y-146761904D01*
X110857142Y-146714285D01*
X110523809Y-146714285D01*
X110523809Y-146904761D01*
X110952380Y-146285714D02*
X109952380Y-146285714D01*
X109952380Y-145904761D01*
X110000000Y-145809523D01*
X110047619Y-145761904D01*
X110142857Y-145714285D01*
X110285714Y-145714285D01*
X110380952Y-145761904D01*
X110428571Y-145809523D01*
X110476190Y-145904761D01*
X110476190Y-146285714D01*
X109952380Y-145095238D02*
X109952380Y-144904761D01*
X110000000Y-144809523D01*
X110095238Y-144714285D01*
X110285714Y-144666666D01*
X110619047Y-144666666D01*
X110809523Y-144714285D01*
X110904761Y-144809523D01*
X110952380Y-144904761D01*
X110952380Y-145095238D01*
X110904761Y-145190476D01*
X110809523Y-145285714D01*
X110619047Y-145333333D01*
X110285714Y-145333333D01*
X110095238Y-145285714D01*
X110000000Y-145190476D01*
X109952380Y-145095238D01*
G04 #@! TO.C,J501*
X69714285Y-78702380D02*
X69714285Y-79416666D01*
X69666666Y-79559523D01*
X69571428Y-79654761D01*
X69428571Y-79702380D01*
X69333333Y-79702380D01*
X70666666Y-78702380D02*
X70190476Y-78702380D01*
X70142857Y-79178571D01*
X70190476Y-79130952D01*
X70285714Y-79083333D01*
X70523809Y-79083333D01*
X70619047Y-79130952D01*
X70666666Y-79178571D01*
X70714285Y-79273809D01*
X70714285Y-79511904D01*
X70666666Y-79607142D01*
X70619047Y-79654761D01*
X70523809Y-79702380D01*
X70285714Y-79702380D01*
X70190476Y-79654761D01*
X70142857Y-79607142D01*
X71333333Y-78702380D02*
X71428571Y-78702380D01*
X71523809Y-78750000D01*
X71571428Y-78797619D01*
X71619047Y-78892857D01*
X71666666Y-79083333D01*
X71666666Y-79321428D01*
X71619047Y-79511904D01*
X71571428Y-79607142D01*
X71523809Y-79654761D01*
X71428571Y-79702380D01*
X71333333Y-79702380D01*
X71238095Y-79654761D01*
X71190476Y-79607142D01*
X71142857Y-79511904D01*
X71095238Y-79321428D01*
X71095238Y-79083333D01*
X71142857Y-78892857D01*
X71190476Y-78797619D01*
X71238095Y-78750000D01*
X71333333Y-78702380D01*
X72619047Y-79702380D02*
X72047619Y-79702380D01*
X72333333Y-79702380D02*
X72333333Y-78702380D01*
X72238095Y-78845238D01*
X72142857Y-78940476D01*
X72047619Y-78988095D01*
G04 #@! TO.C,J502*
X73964285Y-76952380D02*
X73964285Y-77666666D01*
X73916666Y-77809523D01*
X73821428Y-77904761D01*
X73678571Y-77952380D01*
X73583333Y-77952380D01*
X74916666Y-76952380D02*
X74440476Y-76952380D01*
X74392857Y-77428571D01*
X74440476Y-77380952D01*
X74535714Y-77333333D01*
X74773809Y-77333333D01*
X74869047Y-77380952D01*
X74916666Y-77428571D01*
X74964285Y-77523809D01*
X74964285Y-77761904D01*
X74916666Y-77857142D01*
X74869047Y-77904761D01*
X74773809Y-77952380D01*
X74535714Y-77952380D01*
X74440476Y-77904761D01*
X74392857Y-77857142D01*
X75583333Y-76952380D02*
X75678571Y-76952380D01*
X75773809Y-77000000D01*
X75821428Y-77047619D01*
X75869047Y-77142857D01*
X75916666Y-77333333D01*
X75916666Y-77571428D01*
X75869047Y-77761904D01*
X75821428Y-77857142D01*
X75773809Y-77904761D01*
X75678571Y-77952380D01*
X75583333Y-77952380D01*
X75488095Y-77904761D01*
X75440476Y-77857142D01*
X75392857Y-77761904D01*
X75345238Y-77571428D01*
X75345238Y-77333333D01*
X75392857Y-77142857D01*
X75440476Y-77047619D01*
X75488095Y-77000000D01*
X75583333Y-76952380D01*
X76297619Y-77047619D02*
X76345238Y-77000000D01*
X76440476Y-76952380D01*
X76678571Y-76952380D01*
X76773809Y-77000000D01*
X76821428Y-77047619D01*
X76869047Y-77142857D01*
X76869047Y-77238095D01*
X76821428Y-77380952D01*
X76250000Y-77952380D01*
X76869047Y-77952380D01*
G04 #@! TO.C,J607*
X120952380Y-147285714D02*
X121666666Y-147285714D01*
X121809523Y-147333333D01*
X121904761Y-147428571D01*
X121952380Y-147571428D01*
X121952380Y-147666666D01*
X120952380Y-146380952D02*
X120952380Y-146571428D01*
X121000000Y-146666666D01*
X121047619Y-146714285D01*
X121190476Y-146809523D01*
X121380952Y-146857142D01*
X121761904Y-146857142D01*
X121857142Y-146809523D01*
X121904761Y-146761904D01*
X121952380Y-146666666D01*
X121952380Y-146476190D01*
X121904761Y-146380952D01*
X121857142Y-146333333D01*
X121761904Y-146285714D01*
X121523809Y-146285714D01*
X121428571Y-146333333D01*
X121380952Y-146380952D01*
X121333333Y-146476190D01*
X121333333Y-146666666D01*
X121380952Y-146761904D01*
X121428571Y-146809523D01*
X121523809Y-146857142D01*
X120952380Y-145666666D02*
X120952380Y-145571428D01*
X121000000Y-145476190D01*
X121047619Y-145428571D01*
X121142857Y-145380952D01*
X121333333Y-145333333D01*
X121571428Y-145333333D01*
X121761904Y-145380952D01*
X121857142Y-145428571D01*
X121904761Y-145476190D01*
X121952380Y-145571428D01*
X121952380Y-145666666D01*
X121904761Y-145761904D01*
X121857142Y-145809523D01*
X121761904Y-145857142D01*
X121571428Y-145904761D01*
X121333333Y-145904761D01*
X121142857Y-145857142D01*
X121047619Y-145809523D01*
X121000000Y-145761904D01*
X120952380Y-145666666D01*
X120952380Y-145000000D02*
X120952380Y-144333333D01*
X121952380Y-144761904D01*
X115107142Y-148452380D02*
X114630952Y-148452380D01*
X114583333Y-148928571D01*
X114630952Y-148880952D01*
X114726190Y-148833333D01*
X114964285Y-148833333D01*
X115059523Y-148880952D01*
X115107142Y-148928571D01*
X115154761Y-149023809D01*
X115154761Y-149261904D01*
X115107142Y-149357142D01*
X115059523Y-149404761D01*
X114964285Y-149452380D01*
X114726190Y-149452380D01*
X114630952Y-149404761D01*
X114583333Y-149357142D01*
X115440476Y-148452380D02*
X115773809Y-149452380D01*
X116107142Y-148452380D01*
X117202380Y-149452380D02*
X117202380Y-148452380D01*
X117583333Y-148452380D01*
X117678571Y-148500000D01*
X117726190Y-148547619D01*
X117773809Y-148642857D01*
X117773809Y-148785714D01*
X117726190Y-148880952D01*
X117678571Y-148928571D01*
X117583333Y-148976190D01*
X117202380Y-148976190D01*
X118107142Y-148452380D02*
X118345238Y-149452380D01*
X118535714Y-148738095D01*
X118726190Y-149452380D01*
X118964285Y-148452380D01*
X119916666Y-149452380D02*
X119583333Y-148976190D01*
X119345238Y-149452380D02*
X119345238Y-148452380D01*
X119726190Y-148452380D01*
X119821428Y-148500000D01*
X119869047Y-148547619D01*
X119916666Y-148642857D01*
X119916666Y-148785714D01*
X119869047Y-148880952D01*
X119821428Y-148928571D01*
X119726190Y-148976190D01*
X119345238Y-148976190D01*
G04 #@! TO.C,R301*
X69630952Y-86202380D02*
X69297619Y-85726190D01*
X69059523Y-86202380D02*
X69059523Y-85202380D01*
X69440476Y-85202380D01*
X69535714Y-85250000D01*
X69583333Y-85297619D01*
X69630952Y-85392857D01*
X69630952Y-85535714D01*
X69583333Y-85630952D01*
X69535714Y-85678571D01*
X69440476Y-85726190D01*
X69059523Y-85726190D01*
X69964285Y-85202380D02*
X70583333Y-85202380D01*
X70250000Y-85583333D01*
X70392857Y-85583333D01*
X70488095Y-85630952D01*
X70535714Y-85678571D01*
X70583333Y-85773809D01*
X70583333Y-86011904D01*
X70535714Y-86107142D01*
X70488095Y-86154761D01*
X70392857Y-86202380D01*
X70107142Y-86202380D01*
X70011904Y-86154761D01*
X69964285Y-86107142D01*
X71202380Y-85202380D02*
X71297619Y-85202380D01*
X71392857Y-85250000D01*
X71440476Y-85297619D01*
X71488095Y-85392857D01*
X71535714Y-85583333D01*
X71535714Y-85821428D01*
X71488095Y-86011904D01*
X71440476Y-86107142D01*
X71392857Y-86154761D01*
X71297619Y-86202380D01*
X71202380Y-86202380D01*
X71107142Y-86154761D01*
X71059523Y-86107142D01*
X71011904Y-86011904D01*
X70964285Y-85821428D01*
X70964285Y-85583333D01*
X71011904Y-85392857D01*
X71059523Y-85297619D01*
X71107142Y-85250000D01*
X71202380Y-85202380D01*
X72488095Y-86202380D02*
X71916666Y-86202380D01*
X72202380Y-86202380D02*
X72202380Y-85202380D01*
X72107142Y-85345238D01*
X72011904Y-85440476D01*
X71916666Y-85488095D01*
G04 #@! TO.C,R302*
X74880952Y-107952380D02*
X74547619Y-107476190D01*
X74309523Y-107952380D02*
X74309523Y-106952380D01*
X74690476Y-106952380D01*
X74785714Y-107000000D01*
X74833333Y-107047619D01*
X74880952Y-107142857D01*
X74880952Y-107285714D01*
X74833333Y-107380952D01*
X74785714Y-107428571D01*
X74690476Y-107476190D01*
X74309523Y-107476190D01*
X75214285Y-106952380D02*
X75833333Y-106952380D01*
X75500000Y-107333333D01*
X75642857Y-107333333D01*
X75738095Y-107380952D01*
X75785714Y-107428571D01*
X75833333Y-107523809D01*
X75833333Y-107761904D01*
X75785714Y-107857142D01*
X75738095Y-107904761D01*
X75642857Y-107952380D01*
X75357142Y-107952380D01*
X75261904Y-107904761D01*
X75214285Y-107857142D01*
X76452380Y-106952380D02*
X76547619Y-106952380D01*
X76642857Y-107000000D01*
X76690476Y-107047619D01*
X76738095Y-107142857D01*
X76785714Y-107333333D01*
X76785714Y-107571428D01*
X76738095Y-107761904D01*
X76690476Y-107857142D01*
X76642857Y-107904761D01*
X76547619Y-107952380D01*
X76452380Y-107952380D01*
X76357142Y-107904761D01*
X76309523Y-107857142D01*
X76261904Y-107761904D01*
X76214285Y-107571428D01*
X76214285Y-107333333D01*
X76261904Y-107142857D01*
X76309523Y-107047619D01*
X76357142Y-107000000D01*
X76452380Y-106952380D01*
X77166666Y-107047619D02*
X77214285Y-107000000D01*
X77309523Y-106952380D01*
X77547619Y-106952380D01*
X77642857Y-107000000D01*
X77690476Y-107047619D01*
X77738095Y-107142857D01*
X77738095Y-107238095D01*
X77690476Y-107380952D01*
X77119047Y-107952380D01*
X77738095Y-107952380D01*
G04 #@! TO.C,R303*
X69880952Y-107952380D02*
X69547619Y-107476190D01*
X69309523Y-107952380D02*
X69309523Y-106952380D01*
X69690476Y-106952380D01*
X69785714Y-107000000D01*
X69833333Y-107047619D01*
X69880952Y-107142857D01*
X69880952Y-107285714D01*
X69833333Y-107380952D01*
X69785714Y-107428571D01*
X69690476Y-107476190D01*
X69309523Y-107476190D01*
X70214285Y-106952380D02*
X70833333Y-106952380D01*
X70500000Y-107333333D01*
X70642857Y-107333333D01*
X70738095Y-107380952D01*
X70785714Y-107428571D01*
X70833333Y-107523809D01*
X70833333Y-107761904D01*
X70785714Y-107857142D01*
X70738095Y-107904761D01*
X70642857Y-107952380D01*
X70357142Y-107952380D01*
X70261904Y-107904761D01*
X70214285Y-107857142D01*
X71452380Y-106952380D02*
X71547619Y-106952380D01*
X71642857Y-107000000D01*
X71690476Y-107047619D01*
X71738095Y-107142857D01*
X71785714Y-107333333D01*
X71785714Y-107571428D01*
X71738095Y-107761904D01*
X71690476Y-107857142D01*
X71642857Y-107904761D01*
X71547619Y-107952380D01*
X71452380Y-107952380D01*
X71357142Y-107904761D01*
X71309523Y-107857142D01*
X71261904Y-107761904D01*
X71214285Y-107571428D01*
X71214285Y-107333333D01*
X71261904Y-107142857D01*
X71309523Y-107047619D01*
X71357142Y-107000000D01*
X71452380Y-106952380D01*
X72119047Y-106952380D02*
X72738095Y-106952380D01*
X72404761Y-107333333D01*
X72547619Y-107333333D01*
X72642857Y-107380952D01*
X72690476Y-107428571D01*
X72738095Y-107523809D01*
X72738095Y-107761904D01*
X72690476Y-107857142D01*
X72642857Y-107904761D01*
X72547619Y-107952380D01*
X72261904Y-107952380D01*
X72166666Y-107904761D01*
X72119047Y-107857142D01*
G04 #@! TO.C,R401*
X105680952Y-131482380D02*
X105347619Y-131006190D01*
X105109523Y-131482380D02*
X105109523Y-130482380D01*
X105490476Y-130482380D01*
X105585714Y-130530000D01*
X105633333Y-130577619D01*
X105680952Y-130672857D01*
X105680952Y-130815714D01*
X105633333Y-130910952D01*
X105585714Y-130958571D01*
X105490476Y-131006190D01*
X105109523Y-131006190D01*
X106538095Y-130815714D02*
X106538095Y-131482380D01*
X106300000Y-130434761D02*
X106061904Y-131149047D01*
X106680952Y-131149047D01*
X107252380Y-130482380D02*
X107347619Y-130482380D01*
X107442857Y-130530000D01*
X107490476Y-130577619D01*
X107538095Y-130672857D01*
X107585714Y-130863333D01*
X107585714Y-131101428D01*
X107538095Y-131291904D01*
X107490476Y-131387142D01*
X107442857Y-131434761D01*
X107347619Y-131482380D01*
X107252380Y-131482380D01*
X107157142Y-131434761D01*
X107109523Y-131387142D01*
X107061904Y-131291904D01*
X107014285Y-131101428D01*
X107014285Y-130863333D01*
X107061904Y-130672857D01*
X107109523Y-130577619D01*
X107157142Y-130530000D01*
X107252380Y-130482380D01*
X108538095Y-131482380D02*
X107966666Y-131482380D01*
X108252380Y-131482380D02*
X108252380Y-130482380D01*
X108157142Y-130625238D01*
X108061904Y-130720476D01*
X107966666Y-130768095D01*
G04 #@! TO.C,R402*
X99130952Y-131482380D02*
X98797619Y-131006190D01*
X98559523Y-131482380D02*
X98559523Y-130482380D01*
X98940476Y-130482380D01*
X99035714Y-130530000D01*
X99083333Y-130577619D01*
X99130952Y-130672857D01*
X99130952Y-130815714D01*
X99083333Y-130910952D01*
X99035714Y-130958571D01*
X98940476Y-131006190D01*
X98559523Y-131006190D01*
X99988095Y-130815714D02*
X99988095Y-131482380D01*
X99750000Y-130434761D02*
X99511904Y-131149047D01*
X100130952Y-131149047D01*
X100702380Y-130482380D02*
X100797619Y-130482380D01*
X100892857Y-130530000D01*
X100940476Y-130577619D01*
X100988095Y-130672857D01*
X101035714Y-130863333D01*
X101035714Y-131101428D01*
X100988095Y-131291904D01*
X100940476Y-131387142D01*
X100892857Y-131434761D01*
X100797619Y-131482380D01*
X100702380Y-131482380D01*
X100607142Y-131434761D01*
X100559523Y-131387142D01*
X100511904Y-131291904D01*
X100464285Y-131101428D01*
X100464285Y-130863333D01*
X100511904Y-130672857D01*
X100559523Y-130577619D01*
X100607142Y-130530000D01*
X100702380Y-130482380D01*
X101416666Y-130577619D02*
X101464285Y-130530000D01*
X101559523Y-130482380D01*
X101797619Y-130482380D01*
X101892857Y-130530000D01*
X101940476Y-130577619D01*
X101988095Y-130672857D01*
X101988095Y-130768095D01*
X101940476Y-130910952D01*
X101369047Y-131482380D01*
X101988095Y-131482380D01*
G04 #@! TO.C,R601*
X115880952Y-111452380D02*
X115547619Y-110976190D01*
X115309523Y-111452380D02*
X115309523Y-110452380D01*
X115690476Y-110452380D01*
X115785714Y-110500000D01*
X115833333Y-110547619D01*
X115880952Y-110642857D01*
X115880952Y-110785714D01*
X115833333Y-110880952D01*
X115785714Y-110928571D01*
X115690476Y-110976190D01*
X115309523Y-110976190D01*
X116738095Y-110452380D02*
X116547619Y-110452380D01*
X116452380Y-110500000D01*
X116404761Y-110547619D01*
X116309523Y-110690476D01*
X116261904Y-110880952D01*
X116261904Y-111261904D01*
X116309523Y-111357142D01*
X116357142Y-111404761D01*
X116452380Y-111452380D01*
X116642857Y-111452380D01*
X116738095Y-111404761D01*
X116785714Y-111357142D01*
X116833333Y-111261904D01*
X116833333Y-111023809D01*
X116785714Y-110928571D01*
X116738095Y-110880952D01*
X116642857Y-110833333D01*
X116452380Y-110833333D01*
X116357142Y-110880952D01*
X116309523Y-110928571D01*
X116261904Y-111023809D01*
X117452380Y-110452380D02*
X117547619Y-110452380D01*
X117642857Y-110500000D01*
X117690476Y-110547619D01*
X117738095Y-110642857D01*
X117785714Y-110833333D01*
X117785714Y-111071428D01*
X117738095Y-111261904D01*
X117690476Y-111357142D01*
X117642857Y-111404761D01*
X117547619Y-111452380D01*
X117452380Y-111452380D01*
X117357142Y-111404761D01*
X117309523Y-111357142D01*
X117261904Y-111261904D01*
X117214285Y-111071428D01*
X117214285Y-110833333D01*
X117261904Y-110642857D01*
X117309523Y-110547619D01*
X117357142Y-110500000D01*
X117452380Y-110452380D01*
X118738095Y-111452380D02*
X118166666Y-111452380D01*
X118452380Y-111452380D02*
X118452380Y-110452380D01*
X118357142Y-110595238D01*
X118261904Y-110690476D01*
X118166666Y-110738095D01*
G04 #@! TO.C,R602*
X139130952Y-110452380D02*
X138797619Y-109976190D01*
X138559523Y-110452380D02*
X138559523Y-109452380D01*
X138940476Y-109452380D01*
X139035714Y-109500000D01*
X139083333Y-109547619D01*
X139130952Y-109642857D01*
X139130952Y-109785714D01*
X139083333Y-109880952D01*
X139035714Y-109928571D01*
X138940476Y-109976190D01*
X138559523Y-109976190D01*
X139988095Y-109452380D02*
X139797619Y-109452380D01*
X139702380Y-109500000D01*
X139654761Y-109547619D01*
X139559523Y-109690476D01*
X139511904Y-109880952D01*
X139511904Y-110261904D01*
X139559523Y-110357142D01*
X139607142Y-110404761D01*
X139702380Y-110452380D01*
X139892857Y-110452380D01*
X139988095Y-110404761D01*
X140035714Y-110357142D01*
X140083333Y-110261904D01*
X140083333Y-110023809D01*
X140035714Y-109928571D01*
X139988095Y-109880952D01*
X139892857Y-109833333D01*
X139702380Y-109833333D01*
X139607142Y-109880952D01*
X139559523Y-109928571D01*
X139511904Y-110023809D01*
X140702380Y-109452380D02*
X140797619Y-109452380D01*
X140892857Y-109500000D01*
X140940476Y-109547619D01*
X140988095Y-109642857D01*
X141035714Y-109833333D01*
X141035714Y-110071428D01*
X140988095Y-110261904D01*
X140940476Y-110357142D01*
X140892857Y-110404761D01*
X140797619Y-110452380D01*
X140702380Y-110452380D01*
X140607142Y-110404761D01*
X140559523Y-110357142D01*
X140511904Y-110261904D01*
X140464285Y-110071428D01*
X140464285Y-109833333D01*
X140511904Y-109642857D01*
X140559523Y-109547619D01*
X140607142Y-109500000D01*
X140702380Y-109452380D01*
X141416666Y-109547619D02*
X141464285Y-109500000D01*
X141559523Y-109452380D01*
X141797619Y-109452380D01*
X141892857Y-109500000D01*
X141940476Y-109547619D01*
X141988095Y-109642857D01*
X141988095Y-109738095D01*
X141940476Y-109880952D01*
X141369047Y-110452380D01*
X141988095Y-110452380D01*
G04 #@! TO.C,R603*
X126130952Y-84702380D02*
X125797619Y-84226190D01*
X125559523Y-84702380D02*
X125559523Y-83702380D01*
X125940476Y-83702380D01*
X126035714Y-83750000D01*
X126083333Y-83797619D01*
X126130952Y-83892857D01*
X126130952Y-84035714D01*
X126083333Y-84130952D01*
X126035714Y-84178571D01*
X125940476Y-84226190D01*
X125559523Y-84226190D01*
X126988095Y-83702380D02*
X126797619Y-83702380D01*
X126702380Y-83750000D01*
X126654761Y-83797619D01*
X126559523Y-83940476D01*
X126511904Y-84130952D01*
X126511904Y-84511904D01*
X126559523Y-84607142D01*
X126607142Y-84654761D01*
X126702380Y-84702380D01*
X126892857Y-84702380D01*
X126988095Y-84654761D01*
X127035714Y-84607142D01*
X127083333Y-84511904D01*
X127083333Y-84273809D01*
X127035714Y-84178571D01*
X126988095Y-84130952D01*
X126892857Y-84083333D01*
X126702380Y-84083333D01*
X126607142Y-84130952D01*
X126559523Y-84178571D01*
X126511904Y-84273809D01*
X127702380Y-83702380D02*
X127797619Y-83702380D01*
X127892857Y-83750000D01*
X127940476Y-83797619D01*
X127988095Y-83892857D01*
X128035714Y-84083333D01*
X128035714Y-84321428D01*
X127988095Y-84511904D01*
X127940476Y-84607142D01*
X127892857Y-84654761D01*
X127797619Y-84702380D01*
X127702380Y-84702380D01*
X127607142Y-84654761D01*
X127559523Y-84607142D01*
X127511904Y-84511904D01*
X127464285Y-84321428D01*
X127464285Y-84083333D01*
X127511904Y-83892857D01*
X127559523Y-83797619D01*
X127607142Y-83750000D01*
X127702380Y-83702380D01*
X128369047Y-83702380D02*
X128988095Y-83702380D01*
X128654761Y-84083333D01*
X128797619Y-84083333D01*
X128892857Y-84130952D01*
X128940476Y-84178571D01*
X128988095Y-84273809D01*
X128988095Y-84511904D01*
X128940476Y-84607142D01*
X128892857Y-84654761D01*
X128797619Y-84702380D01*
X128511904Y-84702380D01*
X128416666Y-84654761D01*
X128369047Y-84607142D01*
G04 #@! TO.C,U201*
X87285714Y-129452380D02*
X87285714Y-130261904D01*
X87333333Y-130357142D01*
X87380952Y-130404761D01*
X87476190Y-130452380D01*
X87666666Y-130452380D01*
X87761904Y-130404761D01*
X87809523Y-130357142D01*
X87857142Y-130261904D01*
X87857142Y-129452380D01*
X88285714Y-129547619D02*
X88333333Y-129500000D01*
X88428571Y-129452380D01*
X88666666Y-129452380D01*
X88761904Y-129500000D01*
X88809523Y-129547619D01*
X88857142Y-129642857D01*
X88857142Y-129738095D01*
X88809523Y-129880952D01*
X88238095Y-130452380D01*
X88857142Y-130452380D01*
X89476190Y-129452380D02*
X89571428Y-129452380D01*
X89666666Y-129500000D01*
X89714285Y-129547619D01*
X89761904Y-129642857D01*
X89809523Y-129833333D01*
X89809523Y-130071428D01*
X89761904Y-130261904D01*
X89714285Y-130357142D01*
X89666666Y-130404761D01*
X89571428Y-130452380D01*
X89476190Y-130452380D01*
X89380952Y-130404761D01*
X89333333Y-130357142D01*
X89285714Y-130261904D01*
X89238095Y-130071428D01*
X89238095Y-129833333D01*
X89285714Y-129642857D01*
X89333333Y-129547619D01*
X89380952Y-129500000D01*
X89476190Y-129452380D01*
X90761904Y-130452380D02*
X90190476Y-130452380D01*
X90476190Y-130452380D02*
X90476190Y-129452380D01*
X90380952Y-129595238D01*
X90285714Y-129690476D01*
X90190476Y-129738095D01*
G04 #@! TO.C,U301*
X76952380Y-93714285D02*
X77761904Y-93714285D01*
X77857142Y-93666666D01*
X77904761Y-93619047D01*
X77952380Y-93523809D01*
X77952380Y-93333333D01*
X77904761Y-93238095D01*
X77857142Y-93190476D01*
X77761904Y-93142857D01*
X76952380Y-93142857D01*
X76952380Y-92761904D02*
X76952380Y-92142857D01*
X77333333Y-92476190D01*
X77333333Y-92333333D01*
X77380952Y-92238095D01*
X77428571Y-92190476D01*
X77523809Y-92142857D01*
X77761904Y-92142857D01*
X77857142Y-92190476D01*
X77904761Y-92238095D01*
X77952380Y-92333333D01*
X77952380Y-92619047D01*
X77904761Y-92714285D01*
X77857142Y-92761904D01*
X76952380Y-91523809D02*
X76952380Y-91428571D01*
X77000000Y-91333333D01*
X77047619Y-91285714D01*
X77142857Y-91238095D01*
X77333333Y-91190476D01*
X77571428Y-91190476D01*
X77761904Y-91238095D01*
X77857142Y-91285714D01*
X77904761Y-91333333D01*
X77952380Y-91428571D01*
X77952380Y-91523809D01*
X77904761Y-91619047D01*
X77857142Y-91666666D01*
X77761904Y-91714285D01*
X77571428Y-91761904D01*
X77333333Y-91761904D01*
X77142857Y-91714285D01*
X77047619Y-91666666D01*
X77000000Y-91619047D01*
X76952380Y-91523809D01*
X77952380Y-90238095D02*
X77952380Y-90809523D01*
X77952380Y-90523809D02*
X76952380Y-90523809D01*
X77095238Y-90619047D01*
X77190476Y-90714285D01*
X77238095Y-90809523D01*
G04 #@! TO.C,U401*
X97152380Y-137714285D02*
X97961904Y-137714285D01*
X98057142Y-137666666D01*
X98104761Y-137619047D01*
X98152380Y-137523809D01*
X98152380Y-137333333D01*
X98104761Y-137238095D01*
X98057142Y-137190476D01*
X97961904Y-137142857D01*
X97152380Y-137142857D01*
X97485714Y-136238095D02*
X98152380Y-136238095D01*
X97104761Y-136476190D02*
X97819047Y-136714285D01*
X97819047Y-136095238D01*
X97152380Y-135523809D02*
X97152380Y-135428571D01*
X97200000Y-135333333D01*
X97247619Y-135285714D01*
X97342857Y-135238095D01*
X97533333Y-135190476D01*
X97771428Y-135190476D01*
X97961904Y-135238095D01*
X98057142Y-135285714D01*
X98104761Y-135333333D01*
X98152380Y-135428571D01*
X98152380Y-135523809D01*
X98104761Y-135619047D01*
X98057142Y-135666666D01*
X97961904Y-135714285D01*
X97771428Y-135761904D01*
X97533333Y-135761904D01*
X97342857Y-135714285D01*
X97247619Y-135666666D01*
X97200000Y-135619047D01*
X97152380Y-135523809D01*
X98152380Y-134238095D02*
X98152380Y-134809523D01*
X98152380Y-134523809D02*
X97152380Y-134523809D01*
X97295238Y-134619047D01*
X97390476Y-134714285D01*
X97438095Y-134809523D01*
G04 #@! TO.C,U501*
X81452380Y-75214285D02*
X82261904Y-75214285D01*
X82357142Y-75166666D01*
X82404761Y-75119047D01*
X82452380Y-75023809D01*
X82452380Y-74833333D01*
X82404761Y-74738095D01*
X82357142Y-74690476D01*
X82261904Y-74642857D01*
X81452380Y-74642857D01*
X81452380Y-73690476D02*
X81452380Y-74166666D01*
X81928571Y-74214285D01*
X81880952Y-74166666D01*
X81833333Y-74071428D01*
X81833333Y-73833333D01*
X81880952Y-73738095D01*
X81928571Y-73690476D01*
X82023809Y-73642857D01*
X82261904Y-73642857D01*
X82357142Y-73690476D01*
X82404761Y-73738095D01*
X82452380Y-73833333D01*
X82452380Y-74071428D01*
X82404761Y-74166666D01*
X82357142Y-74214285D01*
X81452380Y-73023809D02*
X81452380Y-72928571D01*
X81500000Y-72833333D01*
X81547619Y-72785714D01*
X81642857Y-72738095D01*
X81833333Y-72690476D01*
X82071428Y-72690476D01*
X82261904Y-72738095D01*
X82357142Y-72785714D01*
X82404761Y-72833333D01*
X82452380Y-72928571D01*
X82452380Y-73023809D01*
X82404761Y-73119047D01*
X82357142Y-73166666D01*
X82261904Y-73214285D01*
X82071428Y-73261904D01*
X81833333Y-73261904D01*
X81642857Y-73214285D01*
X81547619Y-73166666D01*
X81500000Y-73119047D01*
X81452380Y-73023809D01*
X82452380Y-71738095D02*
X82452380Y-72309523D01*
X82452380Y-72023809D02*
X81452380Y-72023809D01*
X81595238Y-72119047D01*
X81690476Y-72214285D01*
X81738095Y-72309523D01*
G04 #@! TO.C,U502*
X86385714Y-82452380D02*
X86385714Y-83261904D01*
X86433333Y-83357142D01*
X86480952Y-83404761D01*
X86576190Y-83452380D01*
X86766666Y-83452380D01*
X86861904Y-83404761D01*
X86909523Y-83357142D01*
X86957142Y-83261904D01*
X86957142Y-82452380D01*
X87909523Y-82452380D02*
X87433333Y-82452380D01*
X87385714Y-82928571D01*
X87433333Y-82880952D01*
X87528571Y-82833333D01*
X87766666Y-82833333D01*
X87861904Y-82880952D01*
X87909523Y-82928571D01*
X87957142Y-83023809D01*
X87957142Y-83261904D01*
X87909523Y-83357142D01*
X87861904Y-83404761D01*
X87766666Y-83452380D01*
X87528571Y-83452380D01*
X87433333Y-83404761D01*
X87385714Y-83357142D01*
X88576190Y-82452380D02*
X88671428Y-82452380D01*
X88766666Y-82500000D01*
X88814285Y-82547619D01*
X88861904Y-82642857D01*
X88909523Y-82833333D01*
X88909523Y-83071428D01*
X88861904Y-83261904D01*
X88814285Y-83357142D01*
X88766666Y-83404761D01*
X88671428Y-83452380D01*
X88576190Y-83452380D01*
X88480952Y-83404761D01*
X88433333Y-83357142D01*
X88385714Y-83261904D01*
X88338095Y-83071428D01*
X88338095Y-82833333D01*
X88385714Y-82642857D01*
X88433333Y-82547619D01*
X88480952Y-82500000D01*
X88576190Y-82452380D01*
X89290476Y-82547619D02*
X89338095Y-82500000D01*
X89433333Y-82452380D01*
X89671428Y-82452380D01*
X89766666Y-82500000D01*
X89814285Y-82547619D01*
X89861904Y-82642857D01*
X89861904Y-82738095D01*
X89814285Y-82880952D01*
X89242857Y-83452380D01*
X89861904Y-83452380D01*
G04 #@! TO.C,JP601*
X134214285Y-111702380D02*
X134214285Y-112416666D01*
X134166666Y-112559523D01*
X134071428Y-112654761D01*
X133928571Y-112702380D01*
X133833333Y-112702380D01*
X134690476Y-112702380D02*
X134690476Y-111702380D01*
X135071428Y-111702380D01*
X135166666Y-111750000D01*
X135214285Y-111797619D01*
X135261904Y-111892857D01*
X135261904Y-112035714D01*
X135214285Y-112130952D01*
X135166666Y-112178571D01*
X135071428Y-112226190D01*
X134690476Y-112226190D01*
X136119047Y-111702380D02*
X135928571Y-111702380D01*
X135833333Y-111750000D01*
X135785714Y-111797619D01*
X135690476Y-111940476D01*
X135642857Y-112130952D01*
X135642857Y-112511904D01*
X135690476Y-112607142D01*
X135738095Y-112654761D01*
X135833333Y-112702380D01*
X136023809Y-112702380D01*
X136119047Y-112654761D01*
X136166666Y-112607142D01*
X136214285Y-112511904D01*
X136214285Y-112273809D01*
X136166666Y-112178571D01*
X136119047Y-112130952D01*
X136023809Y-112083333D01*
X135833333Y-112083333D01*
X135738095Y-112130952D01*
X135690476Y-112178571D01*
X135642857Y-112273809D01*
X136833333Y-111702380D02*
X136928571Y-111702380D01*
X137023809Y-111750000D01*
X137071428Y-111797619D01*
X137119047Y-111892857D01*
X137166666Y-112083333D01*
X137166666Y-112321428D01*
X137119047Y-112511904D01*
X137071428Y-112607142D01*
X137023809Y-112654761D01*
X136928571Y-112702380D01*
X136833333Y-112702380D01*
X136738095Y-112654761D01*
X136690476Y-112607142D01*
X136642857Y-112511904D01*
X136595238Y-112321428D01*
X136595238Y-112083333D01*
X136642857Y-111892857D01*
X136690476Y-111797619D01*
X136738095Y-111750000D01*
X136833333Y-111702380D01*
X138119047Y-112702380D02*
X137547619Y-112702380D01*
X137833333Y-112702380D02*
X137833333Y-111702380D01*
X137738095Y-111845238D01*
X137642857Y-111940476D01*
X137547619Y-111988095D01*
X133452380Y-109476190D02*
X132976190Y-109809523D01*
X133452380Y-110047619D02*
X132452380Y-110047619D01*
X132452380Y-109666666D01*
X132500000Y-109571428D01*
X132547619Y-109523809D01*
X132642857Y-109476190D01*
X132785714Y-109476190D01*
X132880952Y-109523809D01*
X132928571Y-109571428D01*
X132976190Y-109666666D01*
X132976190Y-110047619D01*
X133404761Y-108666666D02*
X133452380Y-108761904D01*
X133452380Y-108952380D01*
X133404761Y-109047619D01*
X133309523Y-109095238D01*
X132928571Y-109095238D01*
X132833333Y-109047619D01*
X132785714Y-108952380D01*
X132785714Y-108761904D01*
X132833333Y-108666666D01*
X132928571Y-108619047D01*
X133023809Y-108619047D01*
X133119047Y-109095238D01*
X133452380Y-108047619D02*
X133404761Y-108142857D01*
X133309523Y-108190476D01*
X132452380Y-108190476D01*
X133452380Y-107238095D02*
X132928571Y-107238095D01*
X132833333Y-107285714D01*
X132785714Y-107380952D01*
X132785714Y-107571428D01*
X132833333Y-107666666D01*
X133404761Y-107238095D02*
X133452380Y-107333333D01*
X133452380Y-107571428D01*
X133404761Y-107666666D01*
X133309523Y-107714285D01*
X133214285Y-107714285D01*
X133119047Y-107666666D01*
X133071428Y-107571428D01*
X133071428Y-107333333D01*
X133023809Y-107238095D01*
X133452380Y-106761904D02*
X132785714Y-106761904D01*
X132452380Y-106761904D02*
X132500000Y-106809523D01*
X132547619Y-106761904D01*
X132500000Y-106714285D01*
X132452380Y-106761904D01*
X132547619Y-106761904D01*
X133404761Y-106333333D02*
X133452380Y-106238095D01*
X133452380Y-106047619D01*
X133404761Y-105952380D01*
X133309523Y-105904761D01*
X133261904Y-105904761D01*
X133166666Y-105952380D01*
X133119047Y-106047619D01*
X133119047Y-106190476D01*
X133071428Y-106285714D01*
X132976190Y-106333333D01*
X132928571Y-106333333D01*
X132833333Y-106285714D01*
X132785714Y-106190476D01*
X132785714Y-106047619D01*
X132833333Y-105952380D01*
G04 #@! TO.C,R501*
X81952380Y-83369047D02*
X81476190Y-83702380D01*
X81952380Y-83940476D02*
X80952380Y-83940476D01*
X80952380Y-83559523D01*
X81000000Y-83464285D01*
X81047619Y-83416666D01*
X81142857Y-83369047D01*
X81285714Y-83369047D01*
X81380952Y-83416666D01*
X81428571Y-83464285D01*
X81476190Y-83559523D01*
X81476190Y-83940476D01*
X80952380Y-82464285D02*
X80952380Y-82940476D01*
X81428571Y-82988095D01*
X81380952Y-82940476D01*
X81333333Y-82845238D01*
X81333333Y-82607142D01*
X81380952Y-82511904D01*
X81428571Y-82464285D01*
X81523809Y-82416666D01*
X81761904Y-82416666D01*
X81857142Y-82464285D01*
X81904761Y-82511904D01*
X81952380Y-82607142D01*
X81952380Y-82845238D01*
X81904761Y-82940476D01*
X81857142Y-82988095D01*
X80952380Y-81797619D02*
X80952380Y-81702380D01*
X81000000Y-81607142D01*
X81047619Y-81559523D01*
X81142857Y-81511904D01*
X81333333Y-81464285D01*
X81571428Y-81464285D01*
X81761904Y-81511904D01*
X81857142Y-81559523D01*
X81904761Y-81607142D01*
X81952380Y-81702380D01*
X81952380Y-81797619D01*
X81904761Y-81892857D01*
X81857142Y-81940476D01*
X81761904Y-81988095D01*
X81571428Y-82035714D01*
X81333333Y-82035714D01*
X81142857Y-81988095D01*
X81047619Y-81940476D01*
X81000000Y-81892857D01*
X80952380Y-81797619D01*
X81952380Y-80511904D02*
X81952380Y-81083333D01*
X81952380Y-80797619D02*
X80952380Y-80797619D01*
X81095238Y-80892857D01*
X81190476Y-80988095D01*
X81238095Y-81083333D01*
G04 #@! TO.C,R502*
X83702380Y-84369047D02*
X83226190Y-84702380D01*
X83702380Y-84940476D02*
X82702380Y-84940476D01*
X82702380Y-84559523D01*
X82750000Y-84464285D01*
X82797619Y-84416666D01*
X82892857Y-84369047D01*
X83035714Y-84369047D01*
X83130952Y-84416666D01*
X83178571Y-84464285D01*
X83226190Y-84559523D01*
X83226190Y-84940476D01*
X82702380Y-83464285D02*
X82702380Y-83940476D01*
X83178571Y-83988095D01*
X83130952Y-83940476D01*
X83083333Y-83845238D01*
X83083333Y-83607142D01*
X83130952Y-83511904D01*
X83178571Y-83464285D01*
X83273809Y-83416666D01*
X83511904Y-83416666D01*
X83607142Y-83464285D01*
X83654761Y-83511904D01*
X83702380Y-83607142D01*
X83702380Y-83845238D01*
X83654761Y-83940476D01*
X83607142Y-83988095D01*
X82702380Y-82797619D02*
X82702380Y-82702380D01*
X82750000Y-82607142D01*
X82797619Y-82559523D01*
X82892857Y-82511904D01*
X83083333Y-82464285D01*
X83321428Y-82464285D01*
X83511904Y-82511904D01*
X83607142Y-82559523D01*
X83654761Y-82607142D01*
X83702380Y-82702380D01*
X83702380Y-82797619D01*
X83654761Y-82892857D01*
X83607142Y-82940476D01*
X83511904Y-82988095D01*
X83321428Y-83035714D01*
X83083333Y-83035714D01*
X82892857Y-82988095D01*
X82797619Y-82940476D01*
X82750000Y-82892857D01*
X82702380Y-82797619D01*
X82797619Y-82083333D02*
X82750000Y-82035714D01*
X82702380Y-81940476D01*
X82702380Y-81702380D01*
X82750000Y-81607142D01*
X82797619Y-81559523D01*
X82892857Y-81511904D01*
X82988095Y-81511904D01*
X83130952Y-81559523D01*
X83702380Y-82130952D01*
X83702380Y-81511904D01*
G04 #@! TO.C,J609*
X96094285Y-60302380D02*
X96094285Y-61016666D01*
X96046666Y-61159523D01*
X95951428Y-61254761D01*
X95808571Y-61302380D01*
X95713333Y-61302380D01*
X96999047Y-60302380D02*
X96808571Y-60302380D01*
X96713333Y-60350000D01*
X96665714Y-60397619D01*
X96570476Y-60540476D01*
X96522857Y-60730952D01*
X96522857Y-61111904D01*
X96570476Y-61207142D01*
X96618095Y-61254761D01*
X96713333Y-61302380D01*
X96903809Y-61302380D01*
X96999047Y-61254761D01*
X97046666Y-61207142D01*
X97094285Y-61111904D01*
X97094285Y-60873809D01*
X97046666Y-60778571D01*
X96999047Y-60730952D01*
X96903809Y-60683333D01*
X96713333Y-60683333D01*
X96618095Y-60730952D01*
X96570476Y-60778571D01*
X96522857Y-60873809D01*
X97713333Y-60302380D02*
X97808571Y-60302380D01*
X97903809Y-60350000D01*
X97951428Y-60397619D01*
X97999047Y-60492857D01*
X98046666Y-60683333D01*
X98046666Y-60921428D01*
X97999047Y-61111904D01*
X97951428Y-61207142D01*
X97903809Y-61254761D01*
X97808571Y-61302380D01*
X97713333Y-61302380D01*
X97618095Y-61254761D01*
X97570476Y-61207142D01*
X97522857Y-61111904D01*
X97475238Y-60921428D01*
X97475238Y-60683333D01*
X97522857Y-60492857D01*
X97570476Y-60397619D01*
X97618095Y-60350000D01*
X97713333Y-60302380D01*
X98522857Y-61302380D02*
X98713333Y-61302380D01*
X98808571Y-61254761D01*
X98856190Y-61207142D01*
X98951428Y-61064285D01*
X98999047Y-60873809D01*
X98999047Y-60492857D01*
X98951428Y-60397619D01*
X98903809Y-60350000D01*
X98808571Y-60302380D01*
X98618095Y-60302380D01*
X98522857Y-60350000D01*
X98475238Y-60397619D01*
X98427619Y-60492857D01*
X98427619Y-60730952D01*
X98475238Y-60826190D01*
X98522857Y-60873809D01*
X98618095Y-60921428D01*
X98808571Y-60921428D01*
X98903809Y-60873809D01*
X98951428Y-60826190D01*
X98999047Y-60730952D01*
G04 #@! TO.C,J610*
X195964285Y-138452380D02*
X195964285Y-139166666D01*
X195916666Y-139309523D01*
X195821428Y-139404761D01*
X195678571Y-139452380D01*
X195583333Y-139452380D01*
X196869047Y-138452380D02*
X196678571Y-138452380D01*
X196583333Y-138500000D01*
X196535714Y-138547619D01*
X196440476Y-138690476D01*
X196392857Y-138880952D01*
X196392857Y-139261904D01*
X196440476Y-139357142D01*
X196488095Y-139404761D01*
X196583333Y-139452380D01*
X196773809Y-139452380D01*
X196869047Y-139404761D01*
X196916666Y-139357142D01*
X196964285Y-139261904D01*
X196964285Y-139023809D01*
X196916666Y-138928571D01*
X196869047Y-138880952D01*
X196773809Y-138833333D01*
X196583333Y-138833333D01*
X196488095Y-138880952D01*
X196440476Y-138928571D01*
X196392857Y-139023809D01*
X197916666Y-139452380D02*
X197345238Y-139452380D01*
X197630952Y-139452380D02*
X197630952Y-138452380D01*
X197535714Y-138595238D01*
X197440476Y-138690476D01*
X197345238Y-138738095D01*
X198535714Y-138452380D02*
X198630952Y-138452380D01*
X198726190Y-138500000D01*
X198773809Y-138547619D01*
X198821428Y-138642857D01*
X198869047Y-138833333D01*
X198869047Y-139071428D01*
X198821428Y-139261904D01*
X198773809Y-139357142D01*
X198726190Y-139404761D01*
X198630952Y-139452380D01*
X198535714Y-139452380D01*
X198440476Y-139404761D01*
X198392857Y-139357142D01*
X198345238Y-139261904D01*
X198297619Y-139071428D01*
X198297619Y-138833333D01*
X198345238Y-138642857D01*
X198392857Y-138547619D01*
X198440476Y-138500000D01*
X198535714Y-138452380D01*
X195702380Y-119416666D02*
X196178571Y-119416666D01*
X195607142Y-119702380D02*
X195940476Y-118702380D01*
X196273809Y-119702380D01*
X197178571Y-119607142D02*
X197130952Y-119654761D01*
X196988095Y-119702380D01*
X196892857Y-119702380D01*
X196750000Y-119654761D01*
X196654761Y-119559523D01*
X196607142Y-119464285D01*
X196559523Y-119273809D01*
X196559523Y-119130952D01*
X196607142Y-118940476D01*
X196654761Y-118845238D01*
X196750000Y-118750000D01*
X196892857Y-118702380D01*
X196988095Y-118702380D01*
X197130952Y-118750000D01*
X197178571Y-118797619D01*
X198559523Y-118702380D02*
X198750000Y-118702380D01*
X198845238Y-118750000D01*
X198940476Y-118845238D01*
X198988095Y-119035714D01*
X198988095Y-119369047D01*
X198940476Y-119559523D01*
X198845238Y-119654761D01*
X198750000Y-119702380D01*
X198559523Y-119702380D01*
X198464285Y-119654761D01*
X198369047Y-119559523D01*
X198321428Y-119369047D01*
X198321428Y-119035714D01*
X198369047Y-118845238D01*
X198464285Y-118750000D01*
X198559523Y-118702380D01*
X199416666Y-118702380D02*
X199416666Y-119511904D01*
X199464285Y-119607142D01*
X199511904Y-119654761D01*
X199607142Y-119702380D01*
X199797619Y-119702380D01*
X199892857Y-119654761D01*
X199940476Y-119607142D01*
X199988095Y-119511904D01*
X199988095Y-118702380D01*
X200321428Y-118702380D02*
X200892857Y-118702380D01*
X200607142Y-119702380D02*
X200607142Y-118702380D01*
G04 #@! TO.C,J304*
X78464285Y-117452380D02*
X78464285Y-118166666D01*
X78416666Y-118309523D01*
X78321428Y-118404761D01*
X78178571Y-118452380D01*
X78083333Y-118452380D01*
X78845238Y-117452380D02*
X79464285Y-117452380D01*
X79130952Y-117833333D01*
X79273809Y-117833333D01*
X79369047Y-117880952D01*
X79416666Y-117928571D01*
X79464285Y-118023809D01*
X79464285Y-118261904D01*
X79416666Y-118357142D01*
X79369047Y-118404761D01*
X79273809Y-118452380D01*
X78988095Y-118452380D01*
X78892857Y-118404761D01*
X78845238Y-118357142D01*
X80083333Y-117452380D02*
X80178571Y-117452380D01*
X80273809Y-117500000D01*
X80321428Y-117547619D01*
X80369047Y-117642857D01*
X80416666Y-117833333D01*
X80416666Y-118071428D01*
X80369047Y-118261904D01*
X80321428Y-118357142D01*
X80273809Y-118404761D01*
X80178571Y-118452380D01*
X80083333Y-118452380D01*
X79988095Y-118404761D01*
X79940476Y-118357142D01*
X79892857Y-118261904D01*
X79845238Y-118071428D01*
X79845238Y-117833333D01*
X79892857Y-117642857D01*
X79940476Y-117547619D01*
X79988095Y-117500000D01*
X80083333Y-117452380D01*
X81273809Y-117785714D02*
X81273809Y-118452380D01*
X81035714Y-117404761D02*
X80797619Y-118119047D01*
X81416666Y-118119047D01*
X78714285Y-126357142D02*
X78666666Y-126404761D01*
X78523809Y-126452380D01*
X78428571Y-126452380D01*
X78285714Y-126404761D01*
X78190476Y-126309523D01*
X78142857Y-126214285D01*
X78095238Y-126023809D01*
X78095238Y-125880952D01*
X78142857Y-125690476D01*
X78190476Y-125595238D01*
X78285714Y-125500000D01*
X78428571Y-125452380D01*
X78523809Y-125452380D01*
X78666666Y-125500000D01*
X78714285Y-125547619D01*
X79095238Y-126166666D02*
X79571428Y-126166666D01*
X79000000Y-126452380D02*
X79333333Y-125452380D01*
X79666666Y-126452380D01*
X80000000Y-126452380D02*
X80000000Y-125452380D01*
X80571428Y-126452380D01*
X80571428Y-125452380D01*
X81047619Y-126071428D02*
X81809523Y-126071428D01*
X82809523Y-125500000D02*
X82714285Y-125452380D01*
X82571428Y-125452380D01*
X82428571Y-125500000D01*
X82333333Y-125595238D01*
X82285714Y-125690476D01*
X82238095Y-125880952D01*
X82238095Y-126023809D01*
X82285714Y-126214285D01*
X82333333Y-126309523D01*
X82428571Y-126404761D01*
X82571428Y-126452380D01*
X82666666Y-126452380D01*
X82809523Y-126404761D01*
X82857142Y-126357142D01*
X82857142Y-126023809D01*
X82666666Y-126023809D01*
X83285714Y-126452380D02*
X83285714Y-125452380D01*
X83857142Y-126452380D01*
X83857142Y-125452380D01*
X84333333Y-126452380D02*
X84333333Y-125452380D01*
X84571428Y-125452380D01*
X84714285Y-125500000D01*
X84809523Y-125595238D01*
X84857142Y-125690476D01*
X84904761Y-125880952D01*
X84904761Y-126023809D01*
X84857142Y-126214285D01*
X84809523Y-126309523D01*
X84714285Y-126404761D01*
X84571428Y-126452380D01*
X84333333Y-126452380D01*
G04 #@! TD*
M02*
