<?xml version="1.0" standalone="no"?>
 <!DOCTYPE svg PUBLIC "-//W3C//DTD SVG 1.1//EN" 
 "http://www.w3.org/Graphics/SVG/1.1/DTD/svg11.dtd"> 
<svg xmlns="http://www.w3.org/2000/svg" version="1.1" 
    width="29.7002cm" height="21.0007cm" viewBox="0 0 116930 82680 ">
<title>SVG Picture created as bpi-r1-can-ser-F.Paste.svg date 2018/08/15 00:31:15 </title>
  <desc>Picture generated by PCBNEW </desc>
<g style="fill:#000000; fill-opacity:1;stroke:#000000; stroke-opacity:1;
stroke-linecap:round; stroke-linejoin:round; "
 transform="translate(0 0) scale(1 1)">
</g>
<g style="fill:#000000; fill-opacity:0.0; 
stroke:#000000; stroke-width:-0.000393701; stroke-opacity:1; 
stroke-linecap:round; stroke-linejoin:round;">
</g>
<g style="fill:#000000; fill-opacity:0.0; 
stroke:#000000; stroke-width:39.3701; stroke-opacity:1; 
stroke-linecap:round; stroke-linejoin:round;">
</g>
<g style="fill:#000000; fill-opacity:0.0; 
stroke:#000000; stroke-width:59.0551; stroke-opacity:1; 
stroke-linecap:round; stroke-linejoin:round;">
<rect x="69685.9" y="65357.2" width="42519.7" height="12598.4" rx="0" />
</g>
<g style="fill:#000000; fill-opacity:0.0; 
stroke:#000000; stroke-width:39.3701; stroke-opacity:1; 
stroke-linecap:round; stroke-linejoin:round;">
</g>
<g style="fill:#000000; fill-opacity:0.0; 
stroke:#000000; stroke-width:59.0551; stroke-opacity:1; 
stroke-linecap:round; stroke-linejoin:round;">
<rect x="3937.01" y="3937.01" width="109056" height="74806" rx="0" />
</g>
<g style="fill:#000000; fill-opacity:0.0; 
stroke:#000000; stroke-width:39.3701; stroke-opacity:1; 
stroke-linecap:round; stroke-linejoin:round;">
</g>
<g style="fill:#000000; fill-opacity:0.0; 
stroke:#000000; stroke-width:59.0551; stroke-opacity:1; 
stroke-linecap:round; stroke-linejoin:round;">
<rect x="4724.41" y="4724.41" width="107481" height="73231.2" rx="0" />
</g>
<g style="fill:#000000; fill-opacity:0.0; 
stroke:#000000; stroke-width:39.3701; stroke-opacity:1; 
stroke-linecap:round; stroke-linejoin:round;">
</g>
<g style="fill:#000000; fill-opacity:0.0; 
stroke:#000000; stroke-width:59.0551; stroke-opacity:1; 
stroke-linecap:round; stroke-linejoin:round;">
<path d="M23622 4724
L23622 3937
" />
</g>
<g style="fill:#000000; fill-opacity:0.0; 
stroke:#000000; stroke-width:39.3701; stroke-opacity:1; 
stroke-linecap:round; stroke-linejoin:round;">
</g>
<g style="fill:#000000; fill-opacity:0.0; 
stroke:#000000; stroke-width:59.0551; stroke-opacity:1; 
stroke-linecap:round; stroke-linejoin:round;">
<path d="M43307 4724
L43307 3937
" />
</g>
<g style="fill:#000000; fill-opacity:0.0; 
stroke:#000000; stroke-width:39.3701; stroke-opacity:1; 
stroke-linecap:round; stroke-linejoin:round;">
</g>
<g style="fill:#000000; fill-opacity:0.0; 
stroke:#000000; stroke-width:59.0551; stroke-opacity:1; 
stroke-linecap:round; stroke-linejoin:round;">
<path d="M62992 4724
L62992 3937
" />
</g>
<g style="fill:#000000; fill-opacity:0.0; 
stroke:#000000; stroke-width:39.3701; stroke-opacity:1; 
stroke-linecap:round; stroke-linejoin:round;">
</g>
<g style="fill:#000000; fill-opacity:0.0; 
stroke:#000000; stroke-width:59.0551; stroke-opacity:1; 
stroke-linecap:round; stroke-linejoin:round;">
<path d="M82677 4724
L82677 3937
" />
</g>
<g style="fill:#000000; fill-opacity:0.0; 
stroke:#000000; stroke-width:39.3701; stroke-opacity:1; 
stroke-linecap:round; stroke-linejoin:round;">
</g>
<g style="fill:#000000; fill-opacity:0.0; 
stroke:#000000; stroke-width:59.0551; stroke-opacity:1; 
stroke-linecap:round; stroke-linejoin:round;">
<path d="M102362 4724
L102362 3937
" />
</g>
<g style="fill:#000000; fill-opacity:0.0; 
stroke:#000000; stroke-width:39.3701; stroke-opacity:1; 
stroke-linecap:round; stroke-linejoin:round;">
</g>
<g style="fill:#000000; fill-opacity:0.0; 
stroke:#000000; stroke-width:59.0551; stroke-opacity:1; 
stroke-linecap:round; stroke-linejoin:round;">
<path d="M14199 4562
L13906 4562
" />
<path d="M14052 4562
L14052 4050
L14004 4123
L13955 4172
L13906 4196
" />
</g>
<g style="fill:#000000; fill-opacity:0.0; 
stroke:#000000; stroke-width:39.3701; stroke-opacity:1; 
stroke-linecap:round; stroke-linejoin:round;">
</g>
<g style="fill:#000000; fill-opacity:0.0; 
stroke:#000000; stroke-width:59.0551; stroke-opacity:1; 
stroke-linecap:round; stroke-linejoin:round;">
<path d="M33591 4099
L33615 4074
L33664 4050
L33786 4050
L33835 4074
L33859 4099
L33884 4147
L33884 4196
L33859 4269
L33567 4562
L33884 4562
" />
</g>
<g style="fill:#000000; fill-opacity:0.0; 
stroke:#000000; stroke-width:39.3701; stroke-opacity:1; 
stroke-linecap:round; stroke-linejoin:round;">
</g>
<g style="fill:#000000; fill-opacity:0.0; 
stroke:#000000; stroke-width:59.0551; stroke-opacity:1; 
stroke-linecap:round; stroke-linejoin:round;">
<path d="M53252 4050
L53569 4050
L53398 4245
L53471 4245
L53520 4269
L53544 4294
L53569 4342
L53569 4464
L53544 4513
L53520 4537
L53471 4562
L53325 4562
L53276 4537
L53252 4513
" />
</g>
<g style="fill:#000000; fill-opacity:0.0; 
stroke:#000000; stroke-width:39.3701; stroke-opacity:1; 
stroke-linecap:round; stroke-linejoin:round;">
</g>
<g style="fill:#000000; fill-opacity:0.0; 
stroke:#000000; stroke-width:59.0551; stroke-opacity:1; 
stroke-linecap:round; stroke-linejoin:round;">
<path d="M73205 4221
L73205 4562
" />
<path d="M73083 4026
L72961 4391
L73278 4391
" />
</g>
<g style="fill:#000000; fill-opacity:0.0; 
stroke:#000000; stroke-width:39.3701; stroke-opacity:1; 
stroke-linecap:round; stroke-linejoin:round;">
</g>
<g style="fill:#000000; fill-opacity:0.0; 
stroke:#000000; stroke-width:59.0551; stroke-opacity:1; 
stroke-linecap:round; stroke-linejoin:round;">
<path d="M92914 4050
L92671 4050
L92646 4294
L92671 4269
L92719 4245
L92841 4245
L92890 4269
L92914 4294
L92939 4342
L92939 4464
L92914 4513
L92890 4537
L92841 4562
L92719 4562
L92671 4537
L92646 4513
" />
</g>
<g style="fill:#000000; fill-opacity:0.0; 
stroke:#000000; stroke-width:39.3701; stroke-opacity:1; 
stroke-linecap:round; stroke-linejoin:round;">
</g>
<g style="fill:#000000; fill-opacity:0.0; 
stroke:#000000; stroke-width:59.0551; stroke-opacity:1; 
stroke-linecap:round; stroke-linejoin:round;">
<path d="M112575 4050
L112477 4050
L112429 4074
L112404 4099
L112356 4172
L112331 4269
L112331 4464
L112356 4513
L112380 4537
L112429 4562
L112526 4562
L112575 4537
L112599 4513
L112624 4464
L112624 4342
L112599 4294
L112575 4269
L112526 4245
L112429 4245
L112380 4269
L112356 4294
L112331 4342
" />
</g>
<g style="fill:#000000; fill-opacity:0.0; 
stroke:#000000; stroke-width:39.3701; stroke-opacity:1; 
stroke-linecap:round; stroke-linejoin:round;">
</g>
<g style="fill:#000000; fill-opacity:0.0; 
stroke:#000000; stroke-width:59.0551; stroke-opacity:1; 
stroke-linecap:round; stroke-linejoin:round;">
<path d="M23622 77955
L23622 78742
" />
</g>
<g style="fill:#000000; fill-opacity:0.0; 
stroke:#000000; stroke-width:39.3701; stroke-opacity:1; 
stroke-linecap:round; stroke-linejoin:round;">
</g>
<g style="fill:#000000; fill-opacity:0.0; 
stroke:#000000; stroke-width:59.0551; stroke-opacity:1; 
stroke-linecap:round; stroke-linejoin:round;">
<path d="M43307 77955
L43307 78742
" />
</g>
<g style="fill:#000000; fill-opacity:0.0; 
stroke:#000000; stroke-width:39.3701; stroke-opacity:1; 
stroke-linecap:round; stroke-linejoin:round;">
</g>
<g style="fill:#000000; fill-opacity:0.0; 
stroke:#000000; stroke-width:59.0551; stroke-opacity:1; 
stroke-linecap:round; stroke-linejoin:round;">
<path d="M62992 77955
L62992 78742
" />
</g>
<g style="fill:#000000; fill-opacity:0.0; 
stroke:#000000; stroke-width:39.3701; stroke-opacity:1; 
stroke-linecap:round; stroke-linejoin:round;">
</g>
<g style="fill:#000000; fill-opacity:0.0; 
stroke:#000000; stroke-width:59.0551; stroke-opacity:1; 
stroke-linecap:round; stroke-linejoin:round;">
<path d="M82677 77955
L82677 78742
" />
</g>
<g style="fill:#000000; fill-opacity:0.0; 
stroke:#000000; stroke-width:39.3701; stroke-opacity:1; 
stroke-linecap:round; stroke-linejoin:round;">
</g>
<g style="fill:#000000; fill-opacity:0.0; 
stroke:#000000; stroke-width:59.0551; stroke-opacity:1; 
stroke-linecap:round; stroke-linejoin:round;">
<path d="M102362 77955
L102362 78742
" />
</g>
<g style="fill:#000000; fill-opacity:0.0; 
stroke:#000000; stroke-width:39.3701; stroke-opacity:1; 
stroke-linecap:round; stroke-linejoin:round;">
</g>
<g style="fill:#000000; fill-opacity:0.0; 
stroke:#000000; stroke-width:59.0551; stroke-opacity:1; 
stroke-linecap:round; stroke-linejoin:round;">
<path d="M14199 78580
L13906 78580
" />
<path d="M14052 78580
L14052 78069
L14004 78142
L13955 78190
L13906 78215
" />
</g>
<g style="fill:#000000; fill-opacity:0.0; 
stroke:#000000; stroke-width:39.3701; stroke-opacity:1; 
stroke-linecap:round; stroke-linejoin:round;">
</g>
<g style="fill:#000000; fill-opacity:0.0; 
stroke:#000000; stroke-width:59.0551; stroke-opacity:1; 
stroke-linecap:round; stroke-linejoin:round;">
<path d="M33591 78117
L33615 78093
L33664 78069
L33786 78069
L33835 78093
L33859 78117
L33884 78166
L33884 78215
L33859 78288
L33567 78580
L33884 78580
" />
</g>
<g style="fill:#000000; fill-opacity:0.0; 
stroke:#000000; stroke-width:39.3701; stroke-opacity:1; 
stroke-linecap:round; stroke-linejoin:round;">
</g>
<g style="fill:#000000; fill-opacity:0.0; 
stroke:#000000; stroke-width:59.0551; stroke-opacity:1; 
stroke-linecap:round; stroke-linejoin:round;">
<path d="M53252 78069
L53569 78069
L53398 78263
L53471 78263
L53520 78288
L53544 78312
L53569 78361
L53569 78483
L53544 78532
L53520 78556
L53471 78580
L53325 78580
L53276 78556
L53252 78532
" />
</g>
<g style="fill:#000000; fill-opacity:0.0; 
stroke:#000000; stroke-width:39.3701; stroke-opacity:1; 
stroke-linecap:round; stroke-linejoin:round;">
</g>
<g style="fill:#000000; fill-opacity:0.0; 
stroke:#000000; stroke-width:59.0551; stroke-opacity:1; 
stroke-linecap:round; stroke-linejoin:round;">
<path d="M73205 78239
L73205 78580
" />
<path d="M73083 78044
L72961 78410
L73278 78410
" />
</g>
<g style="fill:#000000; fill-opacity:0.0; 
stroke:#000000; stroke-width:39.3701; stroke-opacity:1; 
stroke-linecap:round; stroke-linejoin:round;">
</g>
<g style="fill:#000000; fill-opacity:0.0; 
stroke:#000000; stroke-width:59.0551; stroke-opacity:1; 
stroke-linecap:round; stroke-linejoin:round;">
<path d="M92914 78069
L92671 78069
L92646 78312
L92671 78288
L92719 78263
L92841 78263
L92890 78288
L92914 78312
L92939 78361
L92939 78483
L92914 78532
L92890 78556
L92841 78580
L92719 78580
L92671 78556
L92646 78532
" />
</g>
<g style="fill:#000000; fill-opacity:0.0; 
stroke:#000000; stroke-width:39.3701; stroke-opacity:1; 
stroke-linecap:round; stroke-linejoin:round;">
</g>
<g style="fill:#000000; fill-opacity:0.0; 
stroke:#000000; stroke-width:59.0551; stroke-opacity:1; 
stroke-linecap:round; stroke-linejoin:round;">
<path d="M112575 78069
L112477 78069
L112429 78093
L112404 78117
L112356 78190
L112331 78288
L112331 78483
L112356 78532
L112380 78556
L112429 78580
L112526 78580
L112575 78556
L112599 78532
L112624 78483
L112624 78361
L112599 78312
L112575 78288
L112526 78263
L112429 78263
L112380 78288
L112356 78312
L112331 78361
" />
</g>
<g style="fill:#000000; fill-opacity:0.0; 
stroke:#000000; stroke-width:39.3701; stroke-opacity:1; 
stroke-linecap:round; stroke-linejoin:round;">
</g>
<g style="fill:#000000; fill-opacity:0.0; 
stroke:#000000; stroke-width:59.0551; stroke-opacity:1; 
stroke-linecap:round; stroke-linejoin:round;">
<path d="M3937 23622
L4724 23622
" />
</g>
<g style="fill:#000000; fill-opacity:0.0; 
stroke:#000000; stroke-width:39.3701; stroke-opacity:1; 
stroke-linecap:round; stroke-linejoin:round;">
</g>
<g style="fill:#000000; fill-opacity:0.0; 
stroke:#000000; stroke-width:59.0551; stroke-opacity:1; 
stroke-linecap:round; stroke-linejoin:round;">
<path d="M3937 43307
L4724 43307
" />
</g>
<g style="fill:#000000; fill-opacity:0.0; 
stroke:#000000; stroke-width:39.3701; stroke-opacity:1; 
stroke-linecap:round; stroke-linejoin:round;">
</g>
<g style="fill:#000000; fill-opacity:0.0; 
stroke:#000000; stroke-width:59.0551; stroke-opacity:1; 
stroke-linecap:round; stroke-linejoin:round;">
<path d="M3937 62992
L4724 62992
" />
</g>
<g style="fill:#000000; fill-opacity:0.0; 
stroke:#000000; stroke-width:39.3701; stroke-opacity:1; 
stroke-linecap:round; stroke-linejoin:round;">
</g>
<g style="fill:#000000; fill-opacity:0.0; 
stroke:#000000; stroke-width:59.0551; stroke-opacity:1; 
stroke-linecap:round; stroke-linejoin:round;">
<path d="M4208 13864
L4452 13864
" />
<path d="M4160 14011
L4330 13499
L4501 14011
" />
</g>
<g style="fill:#000000; fill-opacity:0.0; 
stroke:#000000; stroke-width:39.3701; stroke-opacity:1; 
stroke-linecap:round; stroke-linejoin:round;">
</g>
<g style="fill:#000000; fill-opacity:0.0; 
stroke:#000000; stroke-width:59.0551; stroke-opacity:1; 
stroke-linecap:round; stroke-linejoin:round;">
<path d="M4367 33428
L4440 33452
L4464 33476
L4489 33525
L4489 33598
L4464 33647
L4440 33671
L4391 33696
L4196 33696
L4196 33184
L4367 33184
L4416 33208
L4440 33233
L4464 33281
L4464 33330
L4440 33379
L4416 33403
L4367 33428
L4196 33428
" />
</g>
<g style="fill:#000000; fill-opacity:0.0; 
stroke:#000000; stroke-width:39.3701; stroke-opacity:1; 
stroke-linecap:round; stroke-linejoin:round;">
</g>
<g style="fill:#000000; fill-opacity:0.0; 
stroke:#000000; stroke-width:59.0551; stroke-opacity:1; 
stroke-linecap:round; stroke-linejoin:round;">
<path d="M4489 53332
L4464 53356
L4391 53381
L4342 53381
L4269 53356
L4221 53308
L4196 53259
L4172 53161
L4172 53088
L4196 52991
L4221 52942
L4269 52893
L4342 52869
L4391 52869
L4464 52893
L4489 52918
" />
</g>
<g style="fill:#000000; fill-opacity:0.0; 
stroke:#000000; stroke-width:39.3701; stroke-opacity:1; 
stroke-linecap:round; stroke-linejoin:round;">
</g>
<g style="fill:#000000; fill-opacity:0.0; 
stroke:#000000; stroke-width:59.0551; stroke-opacity:1; 
stroke-linecap:round; stroke-linejoin:round;">
<path d="M4196 73066
L4196 72554
L4318 72554
L4391 72578
L4440 72627
L4464 72676
L4489 72773
L4489 72846
L4464 72944
L4440 72993
L4391 73041
L4318 73066
L4196 73066
" />
</g>
<g style="fill:#000000; fill-opacity:0.0; 
stroke:#000000; stroke-width:39.3701; stroke-opacity:1; 
stroke-linecap:round; stroke-linejoin:round;">
</g>
<g style="fill:#000000; fill-opacity:0.0; 
stroke:#000000; stroke-width:59.0551; stroke-opacity:1; 
stroke-linecap:round; stroke-linejoin:round;">
<path d="M112992 23622
L112205 23622
" />
</g>
<g style="fill:#000000; fill-opacity:0.0; 
stroke:#000000; stroke-width:39.3701; stroke-opacity:1; 
stroke-linecap:round; stroke-linejoin:round;">
</g>
<g style="fill:#000000; fill-opacity:0.0; 
stroke:#000000; stroke-width:59.0551; stroke-opacity:1; 
stroke-linecap:round; stroke-linejoin:round;">
<path d="M112992 43307
L112205 43307
" />
</g>
<g style="fill:#000000; fill-opacity:0.0; 
stroke:#000000; stroke-width:39.3701; stroke-opacity:1; 
stroke-linecap:round; stroke-linejoin:round;">
</g>
<g style="fill:#000000; fill-opacity:0.0; 
stroke:#000000; stroke-width:59.0551; stroke-opacity:1; 
stroke-linecap:round; stroke-linejoin:round;">
<path d="M112992 62992
L112205 62992
" />
</g>
<g style="fill:#000000; fill-opacity:0.0; 
stroke:#000000; stroke-width:39.3701; stroke-opacity:1; 
stroke-linecap:round; stroke-linejoin:round;">
</g>
<g style="fill:#000000; fill-opacity:0.0; 
stroke:#000000; stroke-width:59.0551; stroke-opacity:1; 
stroke-linecap:round; stroke-linejoin:round;">
<path d="M112477 13864
L112721 13864
" />
<path d="M112428 14011
L112599 13499
L112769 14011
" />
</g>
<g style="fill:#000000; fill-opacity:0.0; 
stroke:#000000; stroke-width:39.3701; stroke-opacity:1; 
stroke-linecap:round; stroke-linejoin:round;">
</g>
<g style="fill:#000000; fill-opacity:0.0; 
stroke:#000000; stroke-width:59.0551; stroke-opacity:1; 
stroke-linecap:round; stroke-linejoin:round;">
<path d="M112635 33428
L112708 33452
L112733 33476
L112757 33525
L112757 33598
L112733 33647
L112708 33671
L112660 33696
L112465 33696
L112465 33184
L112635 33184
L112684 33208
L112708 33233
L112733 33281
L112733 33330
L112708 33379
L112684 33403
L112635 33428
L112465 33428
" />
</g>
<g style="fill:#000000; fill-opacity:0.0; 
stroke:#000000; stroke-width:39.3701; stroke-opacity:1; 
stroke-linecap:round; stroke-linejoin:round;">
</g>
<g style="fill:#000000; fill-opacity:0.0; 
stroke:#000000; stroke-width:59.0551; stroke-opacity:1; 
stroke-linecap:round; stroke-linejoin:round;">
<path d="M112757 53332
L112733 53356
L112660 53381
L112611 53381
L112538 53356
L112489 53308
L112465 53259
L112440 53161
L112440 53088
L112465 52991
L112489 52942
L112538 52893
L112611 52869
L112660 52869
L112733 52893
L112757 52918
" />
</g>
<g style="fill:#000000; fill-opacity:0.0; 
stroke:#000000; stroke-width:39.3701; stroke-opacity:1; 
stroke-linecap:round; stroke-linejoin:round;">
</g>
<g style="fill:#000000; fill-opacity:0.0; 
stroke:#000000; stroke-width:59.0551; stroke-opacity:1; 
stroke-linecap:round; stroke-linejoin:round;">
<path d="M112465 73066
L112465 72554
L112587 72554
L112660 72578
L112708 72627
L112733 72676
L112757 72773
L112757 72846
L112733 72944
L112708 72993
L112660 73041
L112587 73066
L112465 73066
" />
</g>
<g style="fill:#000000; fill-opacity:0.0; 
stroke:#000000; stroke-width:39.3701; stroke-opacity:1; 
stroke-linecap:round; stroke-linejoin:round;">
</g>
<g style="fill:#000000; fill-opacity:0.0; 
stroke:#000000; stroke-width:59.0551; stroke-opacity:1; 
stroke-linecap:round; stroke-linejoin:round;">
<path d="M78911 76293
L78911 75703
L79051 75703
L79136 75731
L79192 75787
L79220 75843
L79248 75956
L79248 76040
L79220 76153
L79192 76209
L79136 76265
L79051 76293
L78911 76293
" />
<path d="M79754 76293
L79754 75984
L79726 75928
L79670 75899
L79557 75899
L79501 75928
" />
<path d="M79754 76265
L79698 76293
L79557 76293
L79501 76265
L79473 76209
L79473 76153
L79501 76096
L79557 76068
L79698 76068
L79754 76040
" />
<path d="M79951 75899
L80176 75899
" />
<path d="M80036 75703
L80036 76209
L80064 76265
L80120 76293
L80176 76293
" />
<path d="M80598 76265
L80542 76293
L80429 76293
L80373 76265
L80345 76209
L80345 75984
L80373 75928
L80429 75899
L80542 75899
L80598 75928
L80626 75984
L80626 76040
L80345 76096
" />
<path d="M80879 76237
L80907 76265
L80879 76293
L80851 76265
L80879 76237
L80879 76293
" />
<path d="M80879 75928
L80907 75956
L80879 75984
L80851 75956
L80879 75928
L80879 75984
" />
</g>
<g style="fill:#000000; fill-opacity:0.0; 
stroke:#000000; stroke-width:39.3701; stroke-opacity:1; 
stroke-linecap:round; stroke-linejoin:round;">
</g>
<g style="fill:#000000; fill-opacity:0.0; 
stroke:#000000; stroke-width:59.0551; stroke-opacity:1; 
stroke-linecap:round; stroke-linejoin:round;">
<path d="M69685 76577
L112205 76577
" />
</g>
<g style="fill:#000000; fill-opacity:0.0; 
stroke:#000000; stroke-width:39.3701; stroke-opacity:1; 
stroke-linecap:round; stroke-linejoin:round;">
</g>
<g style="fill:#000000; fill-opacity:0.0; 
stroke:#000000; stroke-width:59.0551; stroke-opacity:1; 
stroke-linecap:round; stroke-linejoin:round;">
<path d="M70249 77395
L70249 76805
" />
<path d="M70587 77395
L70334 77058
" />
<path d="M70587 76805
L70249 77142
" />
<path d="M70840 77395
L70840 77002
" />
<path d="M70840 76805
L70812 76833
L70840 76861
L70868 76833
L70840 76805
L70840 76861
" />
<path d="M71458 77339
L71430 77367
L71346 77395
L71290 77395
L71205 77367
L71149 77311
L71121 77255
L71093 77142
L71093 77058
L71121 76946
L71149 76889
L71205 76833
L71290 76805
L71346 76805
L71430 76833
L71458 76861
" />
<path d="M71965 77395
L71965 77086
L71937 77030
L71880 77002
L71768 77002
L71712 77030
" />
<path d="M71965 77367
L71908 77395
L71768 77395
L71712 77367
L71683 77311
L71683 77255
L71712 77199
L71768 77171
L71908 77171
L71965 77142
" />
<path d="M72499 77395
L72499 76805
" />
<path d="M72499 77367
L72443 77395
L72330 77395
L72274 77367
L72246 77339
L72218 77283
L72218 77114
L72246 77058
L72274 77030
L72330 77002
L72443 77002
L72499 77030
" />
<path d="M73230 77086
L73427 77086
" />
<path d="M73511 77395
L73230 77395
L73230 76805
L73511 76805
" />
<path d="M73764 77339
L73793 77367
L73764 77395
L73736 77367
L73764 77339
L73764 77395
" />
<path d="M74046 77395
L74046 76805
L74186 76805
L74271 76833
L74327 76889
L74355 76946
L74383 77058
L74383 77142
L74355 77255
L74327 77311
L74271 77367
L74186 77395
L74046 77395
" />
<path d="M74636 77339
L74664 77367
L74636 77395
L74608 77367
L74636 77339
L74636 77395
" />
<path d="M74889 77227
L75171 77227
" />
<path d="M74833 77395
L75030 76805
L75227 77395
" />
<path d="M75424 77339
L75452 77367
L75424 77395
L75395 77367
L75424 77339
L75424 77395
" />
<path d="M76605 77395
L76605 76805
" />
<path d="M76661 77171
L76830 77395
" />
<path d="M76830 77002
L76605 77227
" />
<path d="M77083 77395
L77083 77002
" />
<path d="M77083 76805
L77055 76833
L77083 76861
L77111 76833
L77083 76805
L77083 76861
" />
<path d="M77617 77367
L77561 77395
L77448 77395
L77392 77367
L77364 77339
L77336 77283
L77336 77114
L77364 77058
L77392 77030
L77448 77002
L77561 77002
L77617 77030
" />
<path d="M78123 77395
L78123 77086
L78095 77030
L78039 77002
L77926 77002
L77870 77030
" />
<path d="M78123 77367
L78067 77395
L77926 77395
L77870 77367
L77842 77311
L77842 77255
L77870 77199
L77926 77171
L78067 77171
L78123 77142
" />
<path d="M78658 77395
L78658 76805
" />
<path d="M78658 77367
L78601 77395
L78489 77395
L78433 77367
L78404 77339
L78376 77283
L78376 77114
L78404 77058
L78433 77030
L78489 77002
L78601 77002
L78658 77030
" />
<path d="M79557 77620
L79529 77592
L79473 77508
L79445 77452
L79417 77367
L79389 77227
L79389 77114
L79417 76974
L79445 76889
L79473 76833
L79529 76749
L79557 76721
" />
<path d="M80064 76805
L79782 76805
L79754 77086
L79782 77058
L79839 77030
L79979 77030
L80036 77058
L80064 77086
L80092 77142
L80092 77283
L80064 77339
L80036 77367
L79979 77395
L79839 77395
L79782 77367
L79754 77339
" />
<path d="M80345 77339
L80373 77367
L80345 77395
L80317 77367
L80345 77339
L80345 77395
" />
<path d="M80739 76805
L80795 76805
L80851 76833
L80879 76861
L80907 76917
L80935 77030
L80935 77171
L80907 77283
L80879 77339
L80851 77367
L80795 77395
L80739 77395
L80682 77367
L80654 77339
L80626 77283
L80598 77171
L80598 77030
L80626 76917
L80654 76861
L80682 76833
L80739 76805
" />
<path d="M81188 77339
L81217 77367
L81188 77395
L81160 77367
L81188 77339
L81188 77395
" />
<path d="M81582 76805
L81638 76805
L81695 76833
L81723 76861
L81751 76917
L81779 77030
L81779 77171
L81751 77283
L81723 77339
L81695 77367
L81638 77395
L81582 77395
L81526 77367
L81498 77339
L81470 77283
L81442 77171
L81442 77030
L81470 76917
L81498 76861
L81526 76833
L81582 76805
" />
<path d="M81976 77620
L82004 77592
L82060 77508
L82088 77452
L82117 77367
L82145 77227
L82145 77114
L82117 76974
L82088 76889
L82060 76833
L82004 76749
L81976 76721
" />
</g>
<g style="fill:#000000; fill-opacity:0.0; 
stroke:#000000; stroke-width:39.3701; stroke-opacity:1; 
stroke-linecap:round; stroke-linejoin:round;">
</g>
<g style="fill:#000000; fill-opacity:0.0; 
stroke:#000000; stroke-width:59.0551; stroke-opacity:1; 
stroke-linecap:round; stroke-linejoin:round;">
<path d="M69685 75396
L112205 75396
" />
</g>
<g style="fill:#000000; fill-opacity:0.0; 
stroke:#000000; stroke-width:39.3701; stroke-opacity:1; 
stroke-linecap:round; stroke-linejoin:round;">
</g>
<g style="fill:#000000; fill-opacity:0.0; 
stroke:#000000; stroke-width:118.11; stroke-opacity:1; 
stroke-linecap:round; stroke-linejoin:round;">
<path d="M104099 76293
L103902 76012
" />
<path d="M103761 76293
L103761 75703
L103986 75703
L104042 75731
L104070 75759
L104099 75815
L104099 75899
L104070 75956
L104042 75984
L103986 76012
L103761 76012
" />
<path d="M104577 76265
L104520 76293
L104408 76293
L104352 76265
L104323 76209
L104323 75984
L104352 75928
L104408 75899
L104520 75899
L104577 75928
L104605 75984
L104605 76040
L104323 76096
" />
<path d="M104802 75899
L104942 76293
L105083 75899
" />
<path d="M105308 76237
L105336 76265
L105308 76293
L105280 76265
L105308 76237
L105308 76293
" />
<path d="M105308 75928
L105336 75956
L105308 75984
L105280 75956
L105308 75928
L105308 75984
" />
</g>
<g style="fill:#000000; fill-opacity:0.0; 
stroke:#000000; stroke-width:39.3701; stroke-opacity:1; 
stroke-linecap:round; stroke-linejoin:round;">
</g>
<g style="fill:#000000; fill-opacity:0.0; 
stroke:#000000; stroke-width:59.0551; stroke-opacity:1; 
stroke-linecap:round; stroke-linejoin:round;">
<path d="M70221 76265
L70305 76293
L70446 76293
L70502 76265
L70530 76237
L70559 76181
L70559 76124
L70530 76068
L70502 76040
L70446 76012
L70334 75984
L70277 75956
L70249 75928
L70221 75871
L70221 75815
L70249 75759
L70277 75731
L70334 75703
L70474 75703
L70559 75731
" />
<path d="M70812 76293
L70812 75899
" />
<path d="M70812 75703
L70784 75731
L70812 75759
L70840 75731
L70812 75703
L70812 75759
" />
<path d="M71037 75899
L71346 75899
L71037 76293
L71346 76293
" />
<path d="M71796 76265
L71740 76293
L71627 76293
L71571 76265
L71543 76209
L71543 75984
L71571 75928
L71627 75899
L71740 75899
L71796 75928
L71824 75984
L71824 76040
L71543 76096
" />
<path d="M72077 76237
L72105 76265
L72077 76293
L72049 76265
L72077 76237
L72077 76293
" />
<path d="M72077 75928
L72105 75956
L72077 75984
L72049 75956
L72077 75928
L72077 75984
" />
<path d="M72780 76124
L73061 76124
" />
<path d="M72724 76293
L72921 75703
L73118 76293
" />
<path d="M73568 75899
L73568 76293
" />
<path d="M73427 75674
L73286 76096
L73652 76096
" />
</g>
<g style="fill:#000000; fill-opacity:0.0; 
stroke:#000000; stroke-width:39.3701; stroke-opacity:1; 
stroke-linecap:round; stroke-linejoin:round;">
</g>
<g style="fill:#000000; fill-opacity:0.0; 
stroke:#000000; stroke-width:59.0551; stroke-opacity:1; 
stroke-linecap:round; stroke-linejoin:round;">
<path d="M103714 77395
L103714 76805
" />
<path d="M104248 77395
L104248 76805
" />
<path d="M104248 77367
L104192 77395
L104079 77395
L104023 77367
L103995 77339
L103967 77283
L103967 77114
L103995 77058
L104023 77030
L104079 77002
L104192 77002
L104248 77030
" />
<path d="M104529 77339
L104557 77367
L104529 77395
L104501 77367
L104529 77339
L104529 77395
" />
<path d="M104529 77030
L104557 77058
L104529 77086
L104501 77058
L104529 77030
L104529 77086
" />
<path d="M105570 77395
L105232 77395
" />
<path d="M105401 77395
L105401 76805
L105345 76889
L105289 76946
L105232 76974
" />
<path d="M106245 76777
L105739 77536
" />
<path d="M106751 77395
L106413 77395
" />
<path d="M106582 77395
L106582 76805
L106526 76889
L106470 76946
L106413 76974
" />
</g>
<g style="fill:#000000; fill-opacity:0.0; 
stroke:#000000; stroke-width:39.3701; stroke-opacity:1; 
stroke-linecap:round; stroke-linejoin:round;">
</g>
<g style="fill:#000000; fill-opacity:0.0; 
stroke:#000000; stroke-width:59.0551; stroke-opacity:1; 
stroke-linecap:round; stroke-linejoin:round;">
<path d="M69685 73821
L112205 73821
" />
</g>
<g style="fill:#000000; fill-opacity:0.0; 
stroke:#000000; stroke-width:39.3701; stroke-opacity:1; 
stroke-linecap:round; stroke-linejoin:round;">
</g>
<g style="fill:#000000; fill-opacity:0.0; 
stroke:#000000; stroke-width:157.48; stroke-opacity:1; 
stroke-linecap:round; stroke-linejoin:round;">
<path d="M70360 74099
L70810 74099
" />
<path d="M70486 74886
L70585 74099
" />
<path d="M70974 74886
L71039 74361
" />
<path d="M71072 74099
L71030 74136
L71063 74174
L71105 74136
L71072 74099
L71063 74174
" />
<path d="M71302 74361
L71602 74361
" />
<path d="M71447 74099
L71363 74774
L71391 74849
L71461 74886
L71536 74886
" />
<path d="M71911 74886
L71841 74849
L71813 74774
L71897 74099
" />
<path d="M72516 74849
L72436 74886
L72286 74886
L72216 74849
L72187 74774
L72225 74474
L72272 74399
L72352 74361
L72501 74361
L72572 74399
L72600 74474
L72591 74549
L72206 74624
" />
<path d="M72895 74811
L72928 74849
L72886 74886
L72853 74849
L72895 74811
L72886 74886
" />
<path d="M72947 74399
L72980 74436
L72937 74474
L72905 74436
L72947 74399
L72937 74474
" />
</g>
<g style="fill:#000000; fill-opacity:0.0; 
stroke:#000000; stroke-width:39.3701; stroke-opacity:1; 
stroke-linecap:round; stroke-linejoin:round;">
</g>
<g style="fill:#000000; fill-opacity:0.0; 
stroke:#000000; stroke-width:59.0551; stroke-opacity:1; 
stroke-linecap:round; stroke-linejoin:round;">
<path d="M70446 73070
L70249 73070
" />
<path d="M70249 73380
L70249 72789
L70530 72789
" />
<path d="M70755 73380
L70755 72986
" />
<path d="M70755 72789
L70727 72817
L70755 72845
L70784 72817
L70755 72789
L70755 72845
" />
<path d="M71121 73380
L71065 73352
L71037 73295
L71037 72789
" />
<path d="M71571 73352
L71515 73380
L71402 73380
L71346 73352
L71318 73295
L71318 73070
L71346 73014
L71402 72986
L71515 72986
L71571 73014
L71599 73070
L71599 73127
L71318 73183
" />
<path d="M71852 73323
L71880 73352
L71852 73380
L71824 73352
L71852 73323
L71852 73380
" />
<path d="M71852 73014
L71880 73042
L71852 73070
L71824 73042
L71852 73014
L71852 73070
" />
<path d="M72583 73380
L72583 72789
" />
<path d="M72583 73014
L72640 72986
L72752 72986
L72808 73014
L72836 73042
L72865 73099
L72865 73267
L72836 73323
L72808 73352
L72752 73380
L72640 73380
L72583 73352
" />
<path d="M73118 72986
L73118 73577
" />
<path d="M73118 73014
L73174 72986
L73286 72986
L73343 73014
L73371 73042
L73399 73099
L73399 73267
L73371 73323
L73343 73352
L73286 73380
L73174 73380
L73118 73352
" />
<path d="M73652 73380
L73652 72986
" />
<path d="M73652 72789
L73624 72817
L73652 72845
L73680 72817
L73652 72789
L73652 72845
" />
<path d="M73933 73155
L74383 73155
" />
<path d="M74664 73380
L74664 72986
" />
<path d="M74664 73099
L74692 73042
L74721 73014
L74777 72986
L74833 72986
" />
<path d="M75339 73380
L75002 73380
" />
<path d="M75171 73380
L75171 72789
L75114 72874
L75058 72930
L75002 72958
" />
<path d="M75592 73155
L76042 73155
" />
<path d="M76577 73352
L76520 73380
L76408 73380
L76352 73352
L76323 73323
L76295 73267
L76295 73099
L76323 73042
L76352 73014
L76408 72986
L76520 72986
L76577 73014
" />
<path d="M77083 73380
L77083 73070
L77055 73014
L76998 72986
L76886 72986
L76830 73014
" />
<path d="M77083 73352
L77027 73380
L76886 73380
L76830 73352
L76802 73295
L76802 73239
L76830 73183
L76886 73155
L77027 73155
L77083 73127
" />
<path d="M77364 72986
L77364 73380
" />
<path d="M77364 73042
L77392 73014
L77448 72986
L77533 72986
L77589 73014
L77617 73070
L77617 73380
" />
<path d="M77898 73155
L78348 73155
" />
<path d="M78601 73352
L78658 73380
L78770 73380
L78826 73352
L78854 73295
L78854 73267
L78826 73211
L78770 73183
L78686 73183
L78629 73155
L78601 73099
L78601 73070
L78629 73014
L78686 72986
L78770 72986
L78826 73014
" />
<path d="M79332 73352
L79276 73380
L79164 73380
L79108 73352
L79079 73295
L79079 73070
L79108 73014
L79164 72986
L79276 72986
L79332 73014
L79361 73070
L79361 73127
L79079 73183
" />
<path d="M79614 73380
L79614 72986
" />
<path d="M79614 73099
L79642 73042
L79670 73014
L79726 72986
L79782 72986
" />
<path d="M79979 73323
L80007 73352
L79979 73380
L79951 73352
L79979 73323
L79979 73380
" />
<path d="M80260 73380
L80260 72789
" />
<path d="M80317 73155
L80485 73380
" />
<path d="M80485 72986
L80260 73211
" />
<path d="M80739 73380
L80739 72986
" />
<path d="M80739 72789
L80710 72817
L80739 72845
L80767 72817
L80739 72789
L80739 72845
" />
<path d="M81273 73352
L81217 73380
L81104 73380
L81048 73352
L81020 73323
L80992 73267
L80992 73099
L81020 73042
L81048 73014
L81104 72986
L81217 72986
L81273 73014
" />
<path d="M81779 73380
L81779 73070
L81751 73014
L81695 72986
L81582 72986
L81526 73014
" />
<path d="M81779 73352
L81723 73380
L81582 73380
L81526 73352
L81498 73295
L81498 73239
L81526 73183
L81582 73155
L81723 73155
L81779 73127
" />
<path d="M82313 73380
L82313 72789
" />
<path d="M82313 73352
L82257 73380
L82145 73380
L82088 73352
L82060 73323
L82032 73267
L82032 73099
L82060 73042
L82088 73014
L82145 72986
L82257 72986
L82313 73014
" />
<path d="M82454 73436
L82904 73436
" />
<path d="M83045 72986
L83045 73577
" />
<path d="M83045 73014
L83101 72986
L83213 72986
L83269 73014
L83298 73042
L83326 73099
L83326 73267
L83298 73323
L83269 73352
L83213 73380
L83101 73380
L83045 73352
" />
<path d="M83832 73352
L83776 73380
L83663 73380
L83607 73352
L83579 73323
L83551 73267
L83551 73099
L83579 73042
L83607 73014
L83663 72986
L83776 72986
L83832 73014
" />
<path d="M84085 73380
L84085 72789
" />
<path d="M84085 73014
L84141 72986
L84254 72986
L84310 73014
L84338 73042
L84366 73099
L84366 73267
L84338 73323
L84310 73352
L84254 73380
L84141 73380
L84085 73352
" />
</g>
<g style="fill:#000000; fill-opacity:0.0; 
stroke:#000000; stroke-width:39.3701; stroke-opacity:1; 
stroke-linecap:round; stroke-linejoin:round;">
</g>
<g style="fill:#000000; fill-opacity:0.0; 
stroke:#000000; stroke-width:59.0551; stroke-opacity:1; 
stroke-linecap:round; stroke-linejoin:round;">
<path d="M69685 71459
L112205 71459
" />
</g>
<g style="fill:#000000; fill-opacity:0.0; 
stroke:#000000; stroke-width:39.3701; stroke-opacity:1; 
stroke-linecap:round; stroke-linejoin:round;">
</g>
<g style="fill:#000000; fill-opacity:0.0; 
stroke:#000000; stroke-width:59.0551; stroke-opacity:1; 
stroke-linecap:round; stroke-linejoin:round;">
<path d="M70221 72289
L70305 72317
L70446 72317
L70502 72289
L70530 72260
L70559 72204
L70559 72148
L70530 72092
L70502 72064
L70446 72036
L70334 72007
L70277 71979
L70249 71951
L70221 71895
L70221 71839
L70249 71782
L70277 71754
L70334 71726
L70474 71726
L70559 71754
" />
<path d="M70812 72317
L70812 71726
" />
<path d="M71065 72317
L71065 72007
L71037 71951
L70980 71923
L70896 71923
L70840 71951
L70812 71979
" />
<path d="M71571 72289
L71515 72317
L71402 72317
L71346 72289
L71318 72232
L71318 72007
L71346 71951
L71402 71923
L71515 71923
L71571 71951
L71599 72007
L71599 72064
L71318 72120
" />
<path d="M72077 72289
L72021 72317
L71908 72317
L71852 72289
L71824 72232
L71824 72007
L71852 71951
L71908 71923
L72021 71923
L72077 71951
L72105 72007
L72105 72064
L71824 72120
" />
<path d="M72274 71923
L72499 71923
" />
<path d="M72358 71726
L72358 72232
L72386 72289
L72443 72317
L72499 72317
" />
<path d="M72696 72260
L72724 72289
L72696 72317
L72668 72289
L72696 72260
L72696 72317
" />
<path d="M72696 71951
L72724 71979
L72696 72007
L72668 71979
L72696 71951
L72696 72007
" />
</g>
<g style="fill:#000000; fill-opacity:0.0; 
stroke:#000000; stroke-width:39.3701; stroke-opacity:1; 
stroke-linecap:round; stroke-linejoin:round;">
</g>
<g style="fill:#000000; fill-opacity:0.0; 
stroke:#000000; stroke-width:59.0551; stroke-opacity:1; 
stroke-linecap:round; stroke-linejoin:round;">
<path d="M77559 75396
L77559 76577
" />
</g>
<g style="fill:#000000; fill-opacity:0.0; 
stroke:#000000; stroke-width:39.3701; stroke-opacity:1; 
stroke-linecap:round; stroke-linejoin:round;">
</g>
<g style="fill:#000000; fill-opacity:0.0; 
stroke:#000000; stroke-width:59.0551; stroke-opacity:1; 
stroke-linecap:round; stroke-linejoin:round;">
<path d="M102756 75396
L102756 77955
" />
</g>
<g style="fill:#000000; fill-opacity:0.0; 
stroke:#000000; stroke-width:0; stroke-opacity:1; 
stroke-linecap:round; stroke-linejoin:round;">
</g>
<g style="fill:#000000; fill-opacity:1.0; 
stroke:#000000; stroke-width:0; stroke-opacity:1; 
stroke-linecap:round; stroke-linejoin:round;">
<polyline style="fill-rule:evenodd;"
points="38498,43450
38879,43450
38879,43950
38498,43950
38498,43450
" /> 
<polyline style="fill-rule:evenodd;"
points="37998,43450
38379,43450
38379,43950
37998,43950
37998,43450
" /> 
<polyline style="fill-rule:evenodd;"
points="37498,43450
37879,43450
37879,43950
37498,43950
37498,43450
" /> 
<polyline style="fill-rule:evenodd;"
points="37879,45525
37498,45525
37498,45025
37879,45025
37879,45525
" /> 
<polyline style="fill-rule:evenodd;"
points="38379,45525
37998,45525
37998,45025
38379,45025
38379,45525
" /> 
<polyline style="fill-rule:evenodd;"
points="38879,45525
38498,45525
38498,45025
38879,45025
38879,45525
" /> 
<polyline style="fill-rule:evenodd;"
points="29080,26659
29080,26277
29580,26277
29580,26659
29080,26659
" /> 
<polyline style="fill-rule:evenodd;"
points="29080,27159
29080,26777
29580,26777
29580,27159
29080,27159
" /> 
<polyline style="fill-rule:evenodd;"
points="29080,27659
29080,27277
29580,27277
29580,27659
29080,27659
" /> 
<polyline style="fill-rule:evenodd;"
points="30958,27277
30958,27659
30458,27659
30458,27277
30958,27277
" /> 
<polyline style="fill-rule:evenodd;"
points="30958,26777
30958,27159
30458,27159
30458,26777
30958,26777
" /> 
<polyline style="fill-rule:evenodd;"
points="30958,26277
30958,26659
30458,26659
30458,26277
30958,26277
" /> 
<polyline style="fill-rule:evenodd;"
points="43041,28106
43041,27968
43297,27968
43297,28106
43041,28106
" /> 
<polyline style="fill-rule:evenodd;"
points="43041,28362
43041,28224
43297,28224
43297,28362
43041,28362
" /> 
<polyline style="fill-rule:evenodd;"
points="43041,28618
43041,28480
43297,28480
43297,28618
43041,28618
" /> 
<polyline style="fill-rule:evenodd;"
points="43868,28618
43868,28480
44124,28480
44124,28618
43868,28618
" /> 
<polyline style="fill-rule:evenodd;"
points="43868,28362
43868,28224
44124,28224
44124,28362
43868,28362
" /> 
<polyline style="fill-rule:evenodd;"
points="43868,28106
43868,27968
44124,27968
44124,28106
43868,28106
" /> 
<polyline style="fill-rule:evenodd;"
points="43484,28615
43484,28549
43680,28549
43680,28615
43484,28615
" /> 
<polyline style="fill-rule:evenodd;"
points="43435,28307
43435,28059
43730,28059
43730,28307
43435,28307
" /> 
<polyline style="fill-rule:evenodd;"
points="33180,51781
33188,51783
33196,51785
33204,51788
33212,51791
33219,51796
33226,51801
33232,51806
33238,51812
33243,51819
33247,51827
33251,51834
33254,51842
33256,51850
33257,51859
33257,51867
33257,52039
33257,52048
33256,52056
33254,52064
33251,52072
33247,52080
33243,52087
33238,52094
33232,52100
33226,52106
33219,52111
33212,52115
33204,52119
33196,52122
33188,52124
33180,52125
33171,52125
32969,52125
32961,52125
32953,52124
32944,52122
32937,52119
32929,52115
32922,52111
32915,52106
32909,52100
32903,52094
32898,52087
32894,52080
32890,52072
32887,52064
32885,52056
32884,52048
32883,52039
32883,51867
32884,51859
32885,51850
32887,51842
32890,51834
32894,51827
32898,51819
32903,51812
32909,51806
32915,51801
32922,51796
32929,51791
32937,51788
32944,51785
32953,51783
32961,51781
32969,51781
33171,51781
33180,51781
" /> 
<polyline style="fill-rule:evenodd;"
points="33180,52401
33188,52403
33196,52405
33204,52408
33212,52411
33219,52416
33226,52421
33232,52426
33238,52433
33243,52439
33247,52447
33251,52454
33254,52462
33256,52470
33257,52479
33257,52487
33257,52659
33257,52668
33256,52676
33254,52684
33251,52692
33247,52700
33243,52707
33238,52714
33232,52720
33226,52726
33219,52731
33212,52735
33204,52739
33196,52742
33188,52744
33180,52745
33171,52746
32969,52746
32961,52745
32953,52744
32944,52742
32937,52739
32929,52735
32922,52731
32915,52726
32909,52720
32903,52714
32898,52707
32894,52700
32890,52692
32887,52684
32885,52676
32884,52668
32883,52659
32883,52487
32884,52479
32885,52470
32887,52462
32890,52454
32894,52447
32898,52439
32903,52433
32909,52426
32915,52421
32922,52416
32929,52411
32937,52408
32944,52405
32953,52403
32961,52401
32969,52401
33171,52401
33180,52401
" /> 
<polyline style="fill-rule:evenodd;"
points="33180,53681
33188,53682
33196,53684
33204,53687
33212,53691
33219,53695
33226,53700
33232,53706
33238,53712
33243,53719
33247,53726
33251,53734
33254,53742
33256,53750
33257,53758
33257,53767
33257,53939
33257,53947
33256,53956
33254,53964
33251,53972
33247,53980
33243,53987
33238,53994
33232,54000
33226,54006
33219,54011
33212,54015
33204,54019
33196,54021
33188,54023
33180,54025
33171,54025
32969,54025
32961,54025
32953,54023
32944,54021
32937,54019
32929,54015
32922,54011
32915,54006
32909,54000
32903,53994
32898,53987
32894,53980
32890,53972
32887,53964
32885,53956
32884,53947
32883,53939
32883,53767
32884,53758
32885,53750
32887,53742
32890,53734
32894,53726
32898,53719
32903,53712
32909,53706
32915,53700
32922,53695
32929,53691
32937,53687
32944,53684
32953,53682
32961,53681
32969,53681
33171,53681
33180,53681
" /> 
<polyline style="fill-rule:evenodd;"
points="33180,53061
33188,53062
33196,53064
33204,53067
33212,53071
33219,53075
33226,53080
33232,53086
33238,53092
33243,53099
33247,53106
33251,53114
33254,53122
33256,53130
33257,53138
33257,53147
33257,53319
33257,53327
33256,53336
33254,53344
33251,53352
33247,53359
33243,53367
33238,53374
33232,53380
33226,53385
33219,53390
33212,53395
33204,53398
33196,53401
33188,53403
33180,53405
33171,53405
32969,53405
32961,53405
32953,53403
32944,53401
32937,53398
32929,53395
32922,53390
32915,53385
32909,53380
32903,53374
32898,53367
32894,53359
32890,53352
32887,53344
32885,53336
32884,53327
32883,53319
32883,53147
32884,53138
32885,53130
32887,53122
32890,53114
32894,53106
32898,53099
32903,53092
32909,53086
32915,53080
32922,53075
32929,53071
32937,53067
32944,53064
32953,53062
32961,53061
32969,53061
33171,53061
33180,53061
" /> 
<polyline style="fill-rule:evenodd;"
points="35443,50876
35452,50877
35460,50879
35468,50882
35476,50886
35483,50890
35490,50895
35496,50901
35502,50907
35507,50914
35511,50921
35515,50929
35517,50937
35519,50945
35521,50953
35521,50962
35521,51163
35521,51172
35519,51180
35517,51188
35515,51196
35511,51204
35507,51211
35502,51218
35496,51224
35490,51230
35483,51235
35476,51239
35468,51243
35460,51246
35452,51248
35443,51249
35435,51250
35263,51250
35254,51249
35246,51248
35238,51246
35230,51243
35222,51239
35215,51235
35208,51230
35202,51224
35196,51218
35191,51211
35187,51204
35183,51196
35180,51188
35178,51180
35177,51172
35177,51163
35177,50962
35177,50953
35178,50945
35180,50937
35183,50929
35187,50921
35191,50914
35196,50907
35202,50901
35208,50895
35215,50890
35222,50886
35230,50882
35238,50879
35246,50877
35254,50876
35263,50875
35435,50875
35443,50876
" /> 
<polyline style="fill-rule:evenodd;"
points="34823,50876
34832,50877
34840,50879
34848,50882
34856,50886
34863,50890
34870,50895
34876,50901
34882,50907
34887,50914
34891,50921
34895,50929
34897,50937
34899,50945
34901,50953
34901,50962
34901,51163
34901,51172
34899,51180
34897,51188
34895,51196
34891,51204
34887,51211
34882,51218
34876,51224
34870,51230
34863,51235
34856,51239
34848,51243
34840,51246
34832,51248
34823,51249
34815,51250
34643,51250
34634,51249
34626,51248
34618,51246
34610,51243
34602,51239
34595,51235
34588,51230
34582,51224
34576,51218
34571,51211
34567,51204
34563,51196
34560,51188
34558,51180
34557,51172
34557,51163
34557,50962
34557,50953
34558,50945
34560,50937
34563,50929
34567,50921
34571,50914
34576,50907
34582,50901
34588,50895
34595,50890
34602,50886
34610,50882
34618,50879
34626,50877
34634,50876
34643,50875
34815,50875
34823,50876
" /> 
<polyline style="fill-rule:evenodd;"
points="33180,54321
33188,54322
33196,54324
33204,54327
33212,54331
33219,54335
33226,54340
33232,54346
33238,54352
33243,54359
33247,54366
33251,54374
33254,54381
33256,54390
33257,54398
33257,54406
33257,54579
33257,54587
33256,54596
33254,54604
33251,54612
33247,54619
33243,54627
33238,54633
33232,54640
33226,54645
33219,54650
33212,54655
33204,54658
33196,54661
33188,54663
33180,54664
33171,54665
32969,54665
32961,54664
32953,54663
32944,54661
32937,54658
32929,54655
32922,54650
32915,54645
32909,54640
32903,54633
32898,54627
32894,54619
32890,54612
32887,54604
32885,54596
32884,54587
32883,54579
32883,54406
32884,54398
32885,54390
32887,54381
32890,54374
32894,54366
32898,54359
32903,54352
32909,54346
32915,54340
32922,54335
32929,54331
32937,54327
32944,54324
32953,54322
32961,54321
32969,54320
33171,54320
33180,54321
" /> 
<polyline style="fill-rule:evenodd;"
points="33180,54941
33188,54942
33196,54944
33204,54947
33212,54951
33219,54955
33226,54960
33232,54966
33238,54972
33243,54979
33247,54986
33251,54994
33254,55002
33256,55010
33257,55018
33257,55027
33257,55199
33257,55207
33256,55216
33254,55224
33251,55232
33247,55239
33243,55247
33238,55253
33232,55260
33226,55265
33219,55270
33212,55275
33204,55278
33196,55281
33188,55283
33180,55285
33171,55285
32969,55285
32961,55285
32953,55283
32944,55281
32937,55278
32929,55275
32922,55270
32915,55265
32909,55260
32903,55253
32898,55247
32894,55239
32890,55232
32887,55224
32885,55216
32884,55207
32883,55199
32883,55027
32884,55018
32885,55010
32887,55002
32890,54994
32894,54986
32898,54979
32903,54972
32909,54966
32915,54960
32922,54955
32929,54951
32937,54947
32944,54944
32953,54942
32961,54941
32969,54940
33171,54940
33180,54941
" /> 
<polyline style="fill-rule:evenodd;"
points="27668,36526
27676,36527
27684,36529
27692,36532
27700,36535
27707,36540
27714,36545
27720,36550
27726,36557
27731,36563
27735,36571
27739,36578
27742,36586
27744,36594
27745,36603
27746,36611
27746,36783
27745,36792
27744,36800
27742,36808
27739,36816
27735,36824
27731,36831
27726,36838
27720,36844
27714,36850
27707,36855
27700,36859
27692,36863
27684,36866
27676,36868
27668,36869
27659,36870
27458,36870
27449,36869
27441,36868
27433,36866
27425,36863
27417,36859
27410,36855
27403,36850
27397,36844
27391,36838
27386,36831
27382,36824
27378,36816
27375,36808
27373,36800
27372,36792
27372,36783
27372,36611
27372,36603
27373,36594
27375,36586
27378,36578
27382,36571
27386,36563
27391,36557
27397,36550
27403,36545
27410,36540
27417,36535
27425,36532
27433,36529
27441,36527
27449,36526
27458,36525
27659,36525
27668,36526
" /> 
<polyline style="fill-rule:evenodd;"
points="27668,37146
27676,37147
27684,37149
27692,37152
27700,37155
27707,37160
27714,37165
27720,37170
27726,37177
27731,37183
27735,37191
27739,37198
27742,37206
27744,37214
27745,37223
27746,37231
27746,37404
27745,37412
27744,37420
27742,37429
27739,37436
27735,37444
27731,37451
27726,37458
27720,37464
27714,37470
27707,37475
27700,37479
27692,37483
27684,37486
27676,37488
27668,37489
27659,37490
27458,37490
27449,37489
27441,37488
27433,37486
27425,37483
27417,37479
27410,37475
27403,37470
27397,37464
27391,37458
27386,37451
27382,37444
27378,37436
27375,37429
27373,37420
27372,37412
27372,37404
27372,37231
27372,37223
27373,37214
27375,37206
27378,37198
27382,37191
27386,37183
27391,37177
27397,37170
27403,37165
27410,37160
27417,37155
27425,37152
27433,37149
27441,37147
27449,37146
27458,37145
27659,37145
27668,37146
" /> 
<polyline style="fill-rule:evenodd;"
points="36723,50266
36731,50267
36740,50269
36748,50272
36755,50275
36762,50280
36769,50285
36775,50290
36781,50297
36786,50304
36791,50311
36794,50318
36797,50326
36799,50335
36800,50343
36801,50351
36801,50524
36800,50532
36799,50540
36797,50549
36794,50557
36791,50564
36786,50571
36781,50578
36775,50585
36769,50590
36762,50595
36755,50600
36748,50603
36740,50606
36731,50608
36723,50609
36715,50610
36513,50610
36504,50609
36496,50608
36488,50606
36480,50603
36472,50600
36465,50595
36458,50590
36452,50585
36446,50578
36441,50571
36437,50564
36433,50557
36430,50549
36428,50540
36427,50532
36427,50524
36427,50351
36427,50343
36428,50335
36430,50326
36433,50318
36437,50311
36441,50304
36446,50297
36452,50290
36458,50285
36465,50280
36472,50275
36480,50272
36488,50269
36496,50267
36504,50266
36513,50265
36715,50265
36723,50266
" /> 
<polyline style="fill-rule:evenodd;"
points="36723,50886
36731,50887
36740,50889
36748,50892
36755,50895
36762,50900
36769,50905
36775,50911
36781,50917
36786,50924
36791,50931
36794,50938
36797,50946
36799,50955
36800,50963
36801,50971
36801,51144
36800,51152
36799,51160
36797,51169
36794,51177
36791,51184
36786,51192
36781,51198
36775,51205
36769,51210
36762,51215
36755,51220
36748,51223
36740,51226
36731,51228
36723,51229
36715,51230
36513,51230
36504,51229
36496,51228
36488,51226
36480,51223
36472,51220
36465,51215
36458,51210
36452,51205
36446,51198
36441,51192
36437,51184
36433,51177
36430,51169
36428,51160
36427,51152
36427,51144
36427,50971
36427,50963
36428,50955
36430,50946
36433,50938
36437,50931
36441,50924
36446,50917
36452,50911
36458,50905
36465,50900
36472,50895
36480,50892
36488,50889
36496,50887
36504,50886
36513,50885
36715,50885
36723,50886
" /> 
<polyline style="fill-rule:evenodd;"
points="36093,50886
36101,50887
36110,50889
36118,50892
36125,50895
36132,50900
36139,50905
36146,50911
36151,50917
36156,50924
36161,50931
36164,50938
36167,50946
36169,50955
36170,50963
36171,50971
36171,51144
36170,51152
36169,51160
36167,51169
36164,51177
36161,51184
36156,51192
36151,51198
36146,51205
36139,51210
36132,51215
36125,51220
36118,51223
36110,51226
36101,51228
36093,51229
36085,51230
35883,51230
35874,51229
35866,51228
35858,51226
35850,51223
35842,51220
35835,51215
35828,51210
35822,51205
35816,51198
35811,51192
35807,51184
35803,51177
35800,51169
35798,51160
35797,51152
35797,51144
35797,50971
35797,50963
35798,50955
35800,50946
35803,50938
35807,50931
35811,50924
35816,50917
35822,50911
35828,50905
35835,50900
35842,50895
35850,50892
35858,50889
35866,50887
35874,50886
35883,50885
36085,50885
36093,50886
" /> 
<polyline style="fill-rule:evenodd;"
points="36093,50266
36101,50267
36110,50269
36118,50272
36125,50275
36132,50280
36139,50285
36146,50290
36151,50297
36156,50304
36161,50311
36164,50318
36167,50326
36169,50335
36170,50343
36171,50351
36171,50524
36170,50532
36169,50540
36167,50549
36164,50557
36161,50564
36156,50571
36151,50578
36146,50585
36139,50590
36132,50595
36125,50600
36118,50603
36110,50606
36101,50608
36093,50609
36085,50610
35883,50610
35874,50609
35866,50608
35858,50606
35850,50603
35842,50600
35835,50595
35828,50590
35822,50585
35816,50578
35811,50571
35807,50564
35803,50557
35800,50549
35798,50540
35797,50532
35797,50524
35797,50351
35797,50343
35798,50335
35800,50326
35803,50318
35807,50311
35811,50304
35816,50297
35822,50290
35828,50285
35835,50280
35842,50275
35850,50272
35858,50269
35866,50267
35874,50266
35883,50265
36085,50265
36093,50266
" /> 
<polyline style="fill-rule:evenodd;"
points="42432,27707
42440,27708
42448,27710
42456,27713
42464,27716
42471,27721
42478,27726
42484,27731
42490,27738
42495,27744
42499,27752
42503,27759
42506,27767
42508,27776
42509,27784
42509,27792
42509,27965
42509,27973
42508,27981
42506,27990
42503,27998
42499,28005
42495,28012
42490,28019
42484,28025
42478,28031
42471,28036
42464,28041
42456,28044
42448,28047
42440,28049
42432,28050
42423,28051
42221,28051
42213,28050
42205,28049
42196,28047
42188,28044
42181,28041
42174,28036
42167,28031
42161,28025
42155,28019
42150,28012
42145,28005
42142,27998
42139,27990
42137,27981
42136,27973
42135,27965
42135,27792
42136,27784
42137,27776
42139,27767
42142,27759
42145,27752
42150,27744
42155,27738
42161,27731
42167,27726
42174,27721
42181,27716
42188,27713
42196,27710
42205,27708
42213,27707
42221,27706
42423,27706
42432,27707
" /> 
<polyline style="fill-rule:evenodd;"
points="42432,28327
42440,28328
42448,28330
42456,28333
42464,28336
42471,28341
42478,28346
42484,28351
42490,28358
42495,28365
42499,28372
42503,28379
42506,28387
42508,28396
42509,28404
42509,28412
42509,28585
42509,28593
42508,28601
42506,28610
42503,28618
42499,28625
42495,28632
42490,28639
42484,28646
42478,28651
42471,28656
42464,28661
42456,28664
42448,28667
42440,28669
42432,28670
42423,28671
42221,28671
42213,28670
42205,28669
42196,28667
42188,28664
42181,28661
42174,28656
42167,28651
42161,28646
42155,28639
42150,28632
42145,28625
42142,28618
42139,28610
42137,28601
42136,28593
42135,28585
42135,28412
42136,28404
42137,28396
42139,28387
42142,28379
42145,28372
42150,28365
42155,28358
42161,28351
42167,28346
42174,28341
42181,28336
42188,28333
42196,28330
42205,28328
42213,28327
42221,28326
42423,28326
42432,28327
" /> 
<polyline style="fill-rule:evenodd;"
points="27422,34183
27430,34184
27438,34186
27446,34189
27454,34193
27461,34197
27468,34202
27474,34208
27480,34214
27485,34221
27489,34228
27493,34236
27496,34244
27498,34252
27499,34260
27500,34269
27500,34470
27499,34479
27498,34487
27496,34495
27493,34503
27489,34511
27485,34518
27480,34525
27474,34531
27468,34537
27461,34542
27454,34546
27446,34550
27438,34553
27430,34555
27422,34556
27413,34557
27241,34557
27233,34556
27224,34555
27216,34553
27208,34550
27201,34546
27193,34542
27186,34537
27180,34531
27175,34525
27170,34518
27165,34511
27162,34503
27159,34495
27157,34487
27155,34479
27155,34470
27155,34269
27155,34260
27157,34252
27159,34244
27162,34236
27165,34228
27170,34221
27175,34214
27180,34208
27186,34202
27193,34197
27201,34193
27208,34189
27216,34186
27224,34184
27233,34183
27241,34183
27413,34183
27422,34183
" /> 
<polyline style="fill-rule:evenodd;"
points="28042,34183
28050,34184
28058,34186
28066,34189
28074,34193
28081,34197
28088,34202
28094,34208
28100,34214
28105,34221
28109,34228
28113,34236
28116,34244
28118,34252
28119,34260
28120,34269
28120,34470
28119,34479
28118,34487
28116,34495
28113,34503
28109,34511
28105,34518
28100,34525
28094,34531
28088,34537
28081,34542
28074,34546
28066,34550
28058,34553
28050,34555
28042,34556
28033,34557
27861,34557
27853,34556
27844,34555
27836,34553
27828,34550
27821,34546
27813,34542
27807,34537
27800,34531
27795,34525
27790,34518
27785,34511
27782,34503
27779,34495
27777,34487
27776,34479
27775,34470
27775,34269
27776,34260
27777,34252
27779,34244
27782,34236
27785,34228
27790,34221
27795,34214
27800,34208
27807,34202
27813,34197
27821,34193
27828,34189
27836,34186
27844,34184
27853,34183
27861,34183
28033,34183
28042,34183
" /> 
<polyline style="fill-rule:evenodd;"
points="29527,40817
29536,40818
29546,40821
29555,40824
29564,40828
29572,40833
29580,40839
29587,40845
29593,40852
29599,40860
29604,40868
29608,40877
29611,40886
29614,40896
29615,40905
29616,40915
29616,41761
29615,41771
29614,41781
29611,41790
29608,41799
29604,41808
29599,41816
29593,41824
29587,41831
29580,41837
29572,41843
29564,41848
29555,41852
29546,41855
29536,41858
29527,41859
29517,41860
29222,41860
29212,41859
29203,41858
29193,41855
29184,41852
29176,41848
29167,41843
29160,41837
29152,41831
29146,41824
29140,41816
29135,41808
29131,41799
29128,41790
29125,41781
29124,41771
29124,41761
29124,40915
29124,40905
29125,40896
29128,40886
29131,40877
29135,40868
29140,40860
29146,40852
29152,40845
29160,40839
29167,40833
29176,40828
29184,40824
29193,40821
29203,40818
29212,40817
29222,40816
29517,40816
29527,40817
" /> 
<polyline style="fill-rule:evenodd;"
points="30629,40817
30639,40818
30648,40821
30657,40824
30666,40828
30674,40833
30682,40839
30689,40845
30696,40852
30701,40860
30706,40868
30711,40877
30714,40886
30716,40896
30718,40905
30718,40915
30718,41761
30718,41771
30716,41781
30714,41790
30711,41799
30706,41808
30701,41816
30696,41824
30689,41831
30682,41837
30674,41843
30666,41848
30657,41852
30648,41855
30639,41858
30629,41859
30620,41860
30324,41860
30315,41859
30305,41858
30296,41855
30287,41852
30278,41848
30270,41843
30262,41837
30255,41831
30248,41824
30242,41816
30238,41808
30233,41799
30230,41790
30228,41781
30226,41771
30226,41761
30226,40915
30226,40905
30228,40896
30230,40886
30233,40877
30238,40868
30242,40860
30248,40852
30255,40845
30262,40839
30270,40833
30278,40828
30287,40824
30296,40821
30305,40818
30315,40817
30324,40816
30620,40816
30629,40817
" /> 
<polyline style="fill-rule:evenodd;"
points="28661,40817
28670,40818
28680,40821
28689,40824
28697,40828
28706,40833
28714,40839
28721,40845
28727,40852
28733,40860
28738,40868
28742,40877
28745,40886
28748,40896
28749,40905
28750,40915
28750,41761
28749,41771
28748,41781
28745,41790
28742,41799
28738,41808
28733,41816
28727,41824
28721,41831
28714,41837
28706,41843
28697,41848
28689,41852
28680,41855
28670,41858
28661,41859
28651,41860
28356,41860
28346,41859
28337,41858
28327,41855
28318,41852
28309,41848
28301,41843
28293,41837
28286,41831
28280,41824
28274,41816
28269,41808
28265,41799
28262,41790
28259,41781
28258,41771
28257,41761
28257,40915
28258,40905
28259,40896
28262,40886
28265,40877
28269,40868
28274,40860
28280,40852
28286,40845
28293,40839
28301,40833
28309,40828
28318,40824
28327,40821
28337,40818
28346,40817
28356,40816
28651,40816
28661,40817
" /> 
<polyline style="fill-rule:evenodd;"
points="27558,40817
27568,40818
27577,40821
27586,40824
27595,40828
27603,40833
27611,40839
27618,40845
27625,40852
27631,40860
27636,40868
27640,40877
27643,40886
27645,40896
27647,40905
27647,40915
27647,41761
27647,41771
27645,41781
27643,41790
27640,41799
27636,41808
27631,41816
27625,41824
27618,41831
27611,41837
27603,41843
27595,41848
27586,41852
27577,41855
27568,41858
27558,41859
27549,41860
27253,41860
27244,41859
27234,41858
27225,41855
27216,41852
27207,41848
27199,41843
27191,41837
27184,41831
27177,41824
27172,41816
27167,41808
27163,41799
27159,41790
27157,41781
27155,41771
27155,41761
27155,40915
27155,40905
27157,40896
27159,40886
27163,40877
27167,40868
27172,40860
27177,40852
27184,40845
27191,40839
27199,40833
27207,40828
27216,40824
27225,40821
27234,40818
27244,40817
27253,40816
27549,40816
27558,40817
" /> 
<polyline style="fill-rule:evenodd;"
points="41831,50837
41840,50838
41848,50840
41856,50843
41863,50846
41871,50851
41877,50856
41884,50861
41889,50868
41894,50874
41899,50882
41902,50889
41905,50897
41907,50905
41909,50914
41909,50922
41909,51124
41909,51132
41907,51141
41905,51149
41902,51157
41899,51165
41894,51172
41889,51179
41884,51185
41877,51191
41871,51196
41863,51200
41856,51204
41848,51206
41840,51208
41831,51210
41823,51210
41651,51210
41642,51210
41634,51208
41626,51206
41618,51204
41610,51200
41603,51196
41596,51191
41590,51185
41584,51179
41579,51172
41575,51165
41571,51157
41568,51149
41566,51141
41565,51132
41564,51124
41564,50922
41565,50914
41566,50905
41568,50897
41571,50889
41575,50882
41579,50874
41584,50868
41590,50861
41596,50856
41603,50851
41610,50846
41618,50843
41626,50840
41634,50838
41642,50837
41651,50836
41823,50836
41831,50837
" /> 
<polyline style="fill-rule:evenodd;"
points="42451,50837
42460,50838
42468,50840
42476,50843
42484,50846
42491,50851
42498,50856
42504,50861
42509,50868
42515,50874
42519,50882
42522,50889
42525,50897
42527,50905
42529,50914
42529,50922
42529,51124
42529,51132
42527,51141
42525,51149
42522,51157
42519,51165
42515,51172
42509,51179
42504,51185
42498,51191
42491,51196
42484,51200
42476,51204
42468,51206
42460,51208
42451,51210
42443,51210
42271,51210
42262,51210
42254,51208
42246,51206
42238,51204
42230,51200
42223,51196
42216,51191
42210,51185
42204,51179
42199,51172
42195,51165
42191,51157
42188,51149
42186,51141
42185,51132
42185,51124
42185,50922
42185,50914
42186,50905
42188,50897
42191,50889
42195,50882
42199,50874
42204,50868
42210,50861
42216,50856
42223,50851
42230,50846
42238,50843
42246,50840
42254,50838
42262,50837
42271,50836
42443,50836
42451,50837
" /> 
<polyline style="fill-rule:evenodd;"
points="39873,50837
39881,50838
39889,50840
39897,50843
39905,50846
39912,50851
39919,50856
39925,50861
39931,50868
39936,50874
39940,50882
39944,50889
39947,50897
39949,50905
39950,50914
39950,50922
39950,51124
39950,51132
39949,51141
39947,51149
39944,51157
39940,51165
39936,51172
39931,51179
39925,51185
39919,51191
39912,51196
39905,51200
39897,51204
39889,51206
39881,51208
39873,51210
39864,51210
39692,51210
39683,51210
39675,51208
39667,51206
39659,51204
39651,51200
39644,51196
39637,51191
39631,51185
39625,51179
39620,51172
39616,51165
39612,51157
39610,51149
39607,51141
39606,51132
39606,51124
39606,50922
39606,50914
39607,50905
39610,50897
39612,50889
39616,50882
39620,50874
39625,50868
39631,50861
39637,50856
39644,50851
39651,50846
39659,50843
39667,50840
39675,50838
39683,50837
39692,50836
39864,50836
39873,50837
" /> 
<polyline style="fill-rule:evenodd;"
points="39253,50837
39261,50838
39269,50840
39277,50843
39285,50846
39292,50851
39299,50856
39305,50861
39311,50868
39316,50874
39320,50882
39324,50889
39327,50897
39329,50905
39330,50914
39330,50922
39330,51124
39330,51132
39329,51141
39327,51149
39324,51157
39320,51165
39316,51172
39311,51179
39305,51185
39299,51191
39292,51196
39285,51200
39277,51204
39269,51206
39261,51208
39253,51210
39244,51210
39072,51210
39063,51210
39055,51208
39047,51206
39039,51204
39031,51200
39024,51196
39017,51191
39011,51185
39005,51179
39000,51172
38996,51165
38992,51157
38989,51149
38987,51141
38986,51132
38986,51124
38986,50922
38986,50914
38987,50905
38989,50897
38992,50889
38996,50882
39000,50874
39005,50868
39011,50861
39017,50856
39024,50851
39031,50846
39039,50843
39047,50840
39055,50838
39063,50837
39072,50836
39244,50836
39253,50837
" /> 
<polyline style="fill-rule:evenodd;"
points="50404,33671
50412,33672
50421,33674
50429,33677
50436,33681
50444,33685
50450,33690
50457,33696
50462,33702
50467,33709
50472,33716
50475,33724
50478,33732
50480,33740
50481,33748
50482,33757
50482,33959
50481,33967
50480,33975
50478,33984
50475,33992
50472,33999
50467,34007
50462,34013
50457,34020
50450,34025
50444,34030
50436,34035
50429,34038
50421,34041
50412,34043
50404,34044
50396,34045
50223,34045
50215,34044
50207,34043
50198,34041
50190,34038
50183,34035
50176,34030
50169,34025
50163,34020
50157,34013
50152,34007
50147,33999
50144,33992
50141,33984
50139,33975
50138,33967
50137,33959
50137,33757
50138,33748
50139,33740
50141,33732
50144,33724
50147,33716
50152,33709
50157,33702
50163,33696
50169,33690
50176,33685
50183,33681
50190,33677
50198,33674
50207,33672
50215,33671
50223,33671
50396,33671
50404,33671
" /> 
<polyline style="fill-rule:evenodd;"
points="49784,33671
49792,33672
49801,33674
49809,33677
49816,33681
49823,33685
49830,33690
49836,33696
49842,33702
49847,33709
49852,33716
49855,33724
49858,33732
49860,33740
49861,33748
49862,33757
49862,33959
49861,33967
49860,33975
49858,33984
49855,33992
49852,33999
49847,34007
49842,34013
49836,34020
49830,34025
49823,34030
49816,34035
49809,34038
49801,34041
49792,34043
49784,34044
49776,34045
49603,34045
49595,34044
49587,34043
49578,34041
49570,34038
49563,34035
49555,34030
49549,34025
49542,34020
49537,34013
49532,34007
49527,33999
49524,33992
49521,33984
49519,33975
49518,33967
49517,33959
49517,33757
49518,33748
49519,33740
49521,33732
49524,33724
49527,33716
49532,33709
49537,33702
49542,33696
49549,33690
49555,33685
49563,33681
49570,33677
49578,33674
49587,33672
49595,33671
49603,33671
49776,33671
49784,33671
" /> 
<polyline style="fill-rule:evenodd;"
points="33681,51911
33681,51675
34271,51675
34271,51911
33681,51911
" /> 
<polyline style="fill-rule:evenodd;"
points="33681,52411
33681,52175
34271,52175
34271,52411
33681,52411
" /> 
<polyline style="fill-rule:evenodd;"
points="33681,52911
33681,52675
34271,52675
34271,52911
33681,52911
" /> 
<polyline style="fill-rule:evenodd;"
points="33681,53411
33681,53175
34271,53175
34271,53411
33681,53411
" /> 
<polyline style="fill-rule:evenodd;"
points="33681,53911
33681,53675
34271,53675
34271,53911
33681,53911
" /> 
<polyline style="fill-rule:evenodd;"
points="33681,54411
33681,54175
34271,54175
34271,54411
33681,54411
" /> 
<polyline style="fill-rule:evenodd;"
points="33681,54911
33681,54675
34271,54675
34271,54911
33681,54911
" /> 
<polyline style="fill-rule:evenodd;"
points="33681,55411
33681,55175
34271,55175
34271,55411
33681,55411
" /> 
<polyline style="fill-rule:evenodd;"
points="35807,55411
35807,55175
36397,55175
36397,55411
35807,55411
" /> 
<polyline style="fill-rule:evenodd;"
points="35807,54911
35807,54675
36397,54675
36397,54911
35807,54911
" /> 
<polyline style="fill-rule:evenodd;"
points="35807,54411
35807,54175
36397,54175
36397,54411
35807,54411
" /> 
<polyline style="fill-rule:evenodd;"
points="35807,53911
35807,53675
36397,53675
36397,53911
35807,53911
" /> 
<polyline style="fill-rule:evenodd;"
points="35807,53411
35807,53175
36397,53175
36397,53411
35807,53411
" /> 
<polyline style="fill-rule:evenodd;"
points="35807,52911
35807,52675
36397,52675
36397,52911
35807,52911
" /> 
<polyline style="fill-rule:evenodd;"
points="35807,52411
35807,52175
36397,52175
36397,52411
35807,52411
" /> 
<polyline style="fill-rule:evenodd;"
points="35807,51911
35807,51675
36397,51675
36397,51911
35807,51911
" /> 
<polyline style="fill-rule:evenodd;"
points="29647,36978
29883,36978
29883,37588
29647,37588
29647,36978
" /> 
<polyline style="fill-rule:evenodd;"
points="29147,36978
29383,36978
29383,37588
29147,37588
29147,36978
" /> 
<polyline style="fill-rule:evenodd;"
points="28647,36978
28883,36978
28883,37588
28647,37588
28647,36978
" /> 
<polyline style="fill-rule:evenodd;"
points="28147,36978
28383,36978
28383,37588
28147,37588
28147,36978
" /> 
<polyline style="fill-rule:evenodd;"
points="28147,34852
28383,34852
28383,35462
28147,35462
28147,34852
" /> 
<polyline style="fill-rule:evenodd;"
points="28647,34852
28883,34852
28883,35462
28647,35462
28647,34852
" /> 
<polyline style="fill-rule:evenodd;"
points="29147,34852
29383,34852
29383,35462
29147,35462
29147,34852
" /> 
<polyline style="fill-rule:evenodd;"
points="29647,34852
29883,34852
29883,35462
29647,35462
29647,34852
" /> 
<polyline style="fill-rule:evenodd;"
points="31761,29608
31761,29844
31151,29844
31151,29608
31761,29608
" /> 
<polyline style="fill-rule:evenodd;"
points="31761,29108
31761,29344
31151,29344
31151,29108
31761,29108
" /> 
<polyline style="fill-rule:evenodd;"
points="31761,28608
31761,28844
31151,28844
31151,28608
31761,28608
" /> 
<polyline style="fill-rule:evenodd;"
points="31761,28108
31761,28344
31151,28344
31151,28108
31761,28108
" /> 
<polyline style="fill-rule:evenodd;"
points="29635,28108
29635,28344
29025,28344
29025,28108
29635,28108
" /> 
<polyline style="fill-rule:evenodd;"
points="29635,28608
29635,28844
29025,28844
29025,28608
29635,28608
" /> 
<polyline style="fill-rule:evenodd;"
points="29635,29108
29635,29344
29025,29344
29025,29108
29635,29108
" /> 
<polyline style="fill-rule:evenodd;"
points="29635,29608
29635,29844
29025,29844
29025,29608
29635,29608
" /> 
<polyline style="fill-rule:evenodd;"
points="36053,31891
36053,32127
35442,32127
35442,31891
36053,31891
" /> 
<polyline style="fill-rule:evenodd;"
points="36053,31391
36053,31627
35442,31627
35442,31391
36053,31391
" /> 
<polyline style="fill-rule:evenodd;"
points="36053,30891
36053,31127
35442,31127
35442,30891
36053,30891
" /> 
<polyline style="fill-rule:evenodd;"
points="36053,30391
36053,30627
35442,30627
35442,30391
36053,30391
" /> 
<polyline style="fill-rule:evenodd;"
points="33927,30391
33927,30627
33316,30627
33316,30391
33927,30391
" /> 
<polyline style="fill-rule:evenodd;"
points="33927,30891
33927,31127
33316,31127
33316,30891
33927,30891
" /> 
<polyline style="fill-rule:evenodd;"
points="33927,31391
33927,31627
33316,31627
33316,31391
33927,31391
" /> 
<polyline style="fill-rule:evenodd;"
points="33927,31891
33927,32127
33316,32127
33316,31891
33927,31891
" /> 
<polyline style="fill-rule:evenodd;"
points="32195,30522
32204,30523
32212,30525
32220,30528
32228,30531
32235,30536
32242,30541
32248,30546
32254,30553
32259,30559
32263,30567
32267,30574
32269,30582
32271,30590
32273,30599
32273,30607
32273,30780
32273,30788
32271,30796
32269,30805
32267,30812
32263,30820
32259,30827
32254,30834
32248,30840
32242,30846
32235,30851
32228,30855
32220,30859
32212,30862
32204,30864
32195,30865
32187,30866
31985,30866
31977,30865
31968,30864
31960,30862
31952,30859
31945,30855
31937,30851
31931,30846
31924,30840
31919,30834
31914,30827
31909,30820
31906,30812
31903,30805
31901,30796
31900,30788
31899,30780
31899,30607
31900,30599
31901,30590
31903,30582
31906,30574
31909,30567
31914,30559
31919,30553
31924,30546
31931,30541
31937,30536
31945,30531
31952,30528
31960,30525
31968,30523
31977,30522
31985,30521
32187,30521
32195,30522
" /> 
<polyline style="fill-rule:evenodd;"
points="32195,31142
32204,31143
32212,31145
32220,31148
32228,31151
32235,31156
32242,31161
32248,31166
32254,31173
32259,31180
32263,31187
32267,31194
32269,31202
32271,31211
32273,31219
32273,31227
32273,31400
32273,31408
32271,31416
32269,31425
32267,31433
32263,31440
32259,31447
32254,31454
32248,31460
32242,31466
32235,31471
32228,31476
32220,31479
32212,31482
32204,31484
32195,31485
32187,31486
31985,31486
31977,31485
31968,31484
31960,31482
31952,31479
31945,31476
31937,31471
31931,31466
31924,31460
31919,31454
31914,31447
31909,31440
31906,31433
31903,31425
31901,31416
31900,31408
31899,31400
31899,31227
31900,31219
31901,31211
31903,31202
31906,31194
31909,31187
31914,31180
31919,31173
31924,31166
31931,31161
31937,31156
31945,31151
31952,31148
31960,31145
31968,31143
31977,31142
31985,31141
32187,31141
32195,31142
" /> 
<polyline style="fill-rule:evenodd;"
points="32865,31457
32873,31458
32881,31460
32889,31463
32897,31466
32904,31471
32911,31476
32917,31481
32923,31488
32928,31494
32932,31502
32936,31509
32939,31517
32941,31526
32942,31534
32942,31542
32942,31715
32942,31723
32941,31731
32939,31740
32936,31748
32932,31755
32928,31762
32923,31769
32917,31775
32911,31781
32904,31786
32897,31791
32889,31794
32881,31797
32873,31799
32865,31800
32856,31801
32655,31801
32646,31800
32638,31799
32630,31797
32622,31794
32614,31791
32607,31786
32600,31781
32594,31775
32588,31769
32583,31762
32579,31755
32575,31748
32572,31740
32570,31731
32569,31723
32568,31715
32568,31542
32569,31534
32570,31526
32572,31517
32575,31509
32579,31502
32583,31494
32588,31488
32594,31481
32600,31476
32607,31471
32614,31466
32622,31463
32630,31460
32638,31458
32646,31457
32655,31456
32856,31456
32865,31457
" /> 
<polyline style="fill-rule:evenodd;"
points="32865,30837
32873,30838
32881,30840
32889,30843
32897,30846
32904,30851
32911,30856
32917,30861
32923,30868
32928,30874
32932,30882
32936,30889
32939,30897
32941,30905
32942,30914
32942,30922
32942,31094
32942,31103
32941,31111
32939,31119
32936,31127
32932,31135
32928,31142
32923,31149
32917,31155
32911,31161
32904,31166
32897,31170
32889,31174
32881,31177
32873,31179
32865,31180
32856,31181
32655,31181
32646,31180
32638,31179
32630,31177
32622,31174
32614,31170
32607,31166
32600,31161
32594,31155
32588,31149
32583,31142
32579,31135
32575,31127
32572,31119
32570,31111
32569,31103
32568,31094
32568,30922
32569,30914
32570,30905
32572,30897
32575,30889
32579,30882
32583,30874
32588,30868
32594,30861
32600,30856
32607,30851
32614,30846
32622,30843
32630,30840
32638,30838
32646,30837
32655,30836
32856,30836
32865,30837
" /> 
</g> 
</svg>
