G04 #@! TF.GenerationSoftware,KiCad,Pcbnew,(5.0.0)*
G04 #@! TF.CreationDate,2018-08-15T00:31:51+02:00*
G04 #@! TF.ProjectId,bpi-r1-can-ser,6270692D72312D63616E2D7365722E6B,rev?*
G04 #@! TF.SameCoordinates,Original*
G04 #@! TF.FileFunction,Drawing*
%FSLAX46Y46*%
G04 Gerber Fmt 4.6, Leading zero omitted, Abs format (unit mm)*
G04 Created by KiCad (PCBNEW (5.0.0)) date 08/15/18 00:31:51*
%MOMM*%
%LPD*%
G01*
G04 APERTURE LIST*
%ADD10C,0.100000*%
%ADD11C,0.150000*%
%ADD12C,0.300000*%
%ADD13C,0.400000*%
G04 APERTURE END LIST*
D10*
D11*
X177002200Y-166007200D02*
X177002200Y-198007200D01*
X285002200Y-198007200D01*
X285002200Y-166007200D01*
X177002200Y-166007200D01*
D10*
D11*
X10000000Y-10000000D02*
X10000000Y-200007200D01*
X287002200Y-200007200D01*
X287002200Y-10000000D01*
X10000000Y-10000000D01*
D10*
D11*
X12000000Y-12000000D02*
X12000000Y-198007200D01*
X285002200Y-198007200D01*
X285002200Y-12000000D01*
X12000000Y-12000000D01*
D10*
D11*
X60000000Y-12000000D02*
X60000000Y-10000000D01*
D10*
D11*
X110000000Y-12000000D02*
X110000000Y-10000000D01*
D10*
D11*
X160000000Y-12000000D02*
X160000000Y-10000000D01*
D10*
D11*
X210000000Y-12000000D02*
X210000000Y-10000000D01*
D10*
D11*
X260000000Y-12000000D02*
X260000000Y-10000000D01*
D10*
D11*
X36065476Y-11588095D02*
X35322619Y-11588095D01*
X35694047Y-11588095D02*
X35694047Y-10288095D01*
X35570238Y-10473809D01*
X35446428Y-10597619D01*
X35322619Y-10659523D01*
D10*
D11*
X85322619Y-10411904D02*
X85384523Y-10350000D01*
X85508333Y-10288095D01*
X85817857Y-10288095D01*
X85941666Y-10350000D01*
X86003571Y-10411904D01*
X86065476Y-10535714D01*
X86065476Y-10659523D01*
X86003571Y-10845238D01*
X85260714Y-11588095D01*
X86065476Y-11588095D01*
D10*
D11*
X135260714Y-10288095D02*
X136065476Y-10288095D01*
X135632142Y-10783333D01*
X135817857Y-10783333D01*
X135941666Y-10845238D01*
X136003571Y-10907142D01*
X136065476Y-11030952D01*
X136065476Y-11340476D01*
X136003571Y-11464285D01*
X135941666Y-11526190D01*
X135817857Y-11588095D01*
X135446428Y-11588095D01*
X135322619Y-11526190D01*
X135260714Y-11464285D01*
D10*
D11*
X185941666Y-10721428D02*
X185941666Y-11588095D01*
X185632142Y-10226190D02*
X185322619Y-11154761D01*
X186127380Y-11154761D01*
D10*
D11*
X236003571Y-10288095D02*
X235384523Y-10288095D01*
X235322619Y-10907142D01*
X235384523Y-10845238D01*
X235508333Y-10783333D01*
X235817857Y-10783333D01*
X235941666Y-10845238D01*
X236003571Y-10907142D01*
X236065476Y-11030952D01*
X236065476Y-11340476D01*
X236003571Y-11464285D01*
X235941666Y-11526190D01*
X235817857Y-11588095D01*
X235508333Y-11588095D01*
X235384523Y-11526190D01*
X235322619Y-11464285D01*
D10*
D11*
X285941666Y-10288095D02*
X285694047Y-10288095D01*
X285570238Y-10350000D01*
X285508333Y-10411904D01*
X285384523Y-10597619D01*
X285322619Y-10845238D01*
X285322619Y-11340476D01*
X285384523Y-11464285D01*
X285446428Y-11526190D01*
X285570238Y-11588095D01*
X285817857Y-11588095D01*
X285941666Y-11526190D01*
X286003571Y-11464285D01*
X286065476Y-11340476D01*
X286065476Y-11030952D01*
X286003571Y-10907142D01*
X285941666Y-10845238D01*
X285817857Y-10783333D01*
X285570238Y-10783333D01*
X285446428Y-10845238D01*
X285384523Y-10907142D01*
X285322619Y-11030952D01*
D10*
D11*
X60000000Y-198007200D02*
X60000000Y-200007200D01*
D10*
D11*
X110000000Y-198007200D02*
X110000000Y-200007200D01*
D10*
D11*
X160000000Y-198007200D02*
X160000000Y-200007200D01*
D10*
D11*
X210000000Y-198007200D02*
X210000000Y-200007200D01*
D10*
D11*
X260000000Y-198007200D02*
X260000000Y-200007200D01*
D10*
D11*
X36065476Y-199595295D02*
X35322619Y-199595295D01*
X35694047Y-199595295D02*
X35694047Y-198295295D01*
X35570238Y-198481009D01*
X35446428Y-198604819D01*
X35322619Y-198666723D01*
D10*
D11*
X85322619Y-198419104D02*
X85384523Y-198357200D01*
X85508333Y-198295295D01*
X85817857Y-198295295D01*
X85941666Y-198357200D01*
X86003571Y-198419104D01*
X86065476Y-198542914D01*
X86065476Y-198666723D01*
X86003571Y-198852438D01*
X85260714Y-199595295D01*
X86065476Y-199595295D01*
D10*
D11*
X135260714Y-198295295D02*
X136065476Y-198295295D01*
X135632142Y-198790533D01*
X135817857Y-198790533D01*
X135941666Y-198852438D01*
X136003571Y-198914342D01*
X136065476Y-199038152D01*
X136065476Y-199347676D01*
X136003571Y-199471485D01*
X135941666Y-199533390D01*
X135817857Y-199595295D01*
X135446428Y-199595295D01*
X135322619Y-199533390D01*
X135260714Y-199471485D01*
D10*
D11*
X185941666Y-198728628D02*
X185941666Y-199595295D01*
X185632142Y-198233390D02*
X185322619Y-199161961D01*
X186127380Y-199161961D01*
D10*
D11*
X236003571Y-198295295D02*
X235384523Y-198295295D01*
X235322619Y-198914342D01*
X235384523Y-198852438D01*
X235508333Y-198790533D01*
X235817857Y-198790533D01*
X235941666Y-198852438D01*
X236003571Y-198914342D01*
X236065476Y-199038152D01*
X236065476Y-199347676D01*
X236003571Y-199471485D01*
X235941666Y-199533390D01*
X235817857Y-199595295D01*
X235508333Y-199595295D01*
X235384523Y-199533390D01*
X235322619Y-199471485D01*
D10*
D11*
X285941666Y-198295295D02*
X285694047Y-198295295D01*
X285570238Y-198357200D01*
X285508333Y-198419104D01*
X285384523Y-198604819D01*
X285322619Y-198852438D01*
X285322619Y-199347676D01*
X285384523Y-199471485D01*
X285446428Y-199533390D01*
X285570238Y-199595295D01*
X285817857Y-199595295D01*
X285941666Y-199533390D01*
X286003571Y-199471485D01*
X286065476Y-199347676D01*
X286065476Y-199038152D01*
X286003571Y-198914342D01*
X285941666Y-198852438D01*
X285817857Y-198790533D01*
X285570238Y-198790533D01*
X285446428Y-198852438D01*
X285384523Y-198914342D01*
X285322619Y-199038152D01*
D10*
D11*
X10000000Y-60000000D02*
X12000000Y-60000000D01*
D10*
D11*
X10000000Y-110000000D02*
X12000000Y-110000000D01*
D10*
D11*
X10000000Y-160000000D02*
X12000000Y-160000000D01*
D10*
D11*
X10690476Y-35216666D02*
X11309523Y-35216666D01*
X10566666Y-35588095D02*
X11000000Y-34288095D01*
X11433333Y-35588095D01*
D10*
D11*
X11092857Y-84907142D02*
X11278571Y-84969047D01*
X11340476Y-85030952D01*
X11402380Y-85154761D01*
X11402380Y-85340476D01*
X11340476Y-85464285D01*
X11278571Y-85526190D01*
X11154761Y-85588095D01*
X10659523Y-85588095D01*
X10659523Y-84288095D01*
X11092857Y-84288095D01*
X11216666Y-84350000D01*
X11278571Y-84411904D01*
X11340476Y-84535714D01*
X11340476Y-84659523D01*
X11278571Y-84783333D01*
X11216666Y-84845238D01*
X11092857Y-84907142D01*
X10659523Y-84907142D01*
D10*
D11*
X11402380Y-135464285D02*
X11340476Y-135526190D01*
X11154761Y-135588095D01*
X11030952Y-135588095D01*
X10845238Y-135526190D01*
X10721428Y-135402380D01*
X10659523Y-135278571D01*
X10597619Y-135030952D01*
X10597619Y-134845238D01*
X10659523Y-134597619D01*
X10721428Y-134473809D01*
X10845238Y-134350000D01*
X11030952Y-134288095D01*
X11154761Y-134288095D01*
X11340476Y-134350000D01*
X11402380Y-134411904D01*
D10*
D11*
X10659523Y-185588095D02*
X10659523Y-184288095D01*
X10969047Y-184288095D01*
X11154761Y-184350000D01*
X11278571Y-184473809D01*
X11340476Y-184597619D01*
X11402380Y-184845238D01*
X11402380Y-185030952D01*
X11340476Y-185278571D01*
X11278571Y-185402380D01*
X11154761Y-185526190D01*
X10969047Y-185588095D01*
X10659523Y-185588095D01*
D10*
D11*
X287002200Y-60000000D02*
X285002200Y-60000000D01*
D10*
D11*
X287002200Y-110000000D02*
X285002200Y-110000000D01*
D10*
D11*
X287002200Y-160000000D02*
X285002200Y-160000000D01*
D10*
D11*
X285692676Y-35216666D02*
X286311723Y-35216666D01*
X285568866Y-35588095D02*
X286002200Y-34288095D01*
X286435533Y-35588095D01*
D10*
D11*
X286095057Y-84907142D02*
X286280771Y-84969047D01*
X286342676Y-85030952D01*
X286404580Y-85154761D01*
X286404580Y-85340476D01*
X286342676Y-85464285D01*
X286280771Y-85526190D01*
X286156961Y-85588095D01*
X285661723Y-85588095D01*
X285661723Y-84288095D01*
X286095057Y-84288095D01*
X286218866Y-84350000D01*
X286280771Y-84411904D01*
X286342676Y-84535714D01*
X286342676Y-84659523D01*
X286280771Y-84783333D01*
X286218866Y-84845238D01*
X286095057Y-84907142D01*
X285661723Y-84907142D01*
D10*
D11*
X286404580Y-135464285D02*
X286342676Y-135526190D01*
X286156961Y-135588095D01*
X286033152Y-135588095D01*
X285847438Y-135526190D01*
X285723628Y-135402380D01*
X285661723Y-135278571D01*
X285599819Y-135030952D01*
X285599819Y-134845238D01*
X285661723Y-134597619D01*
X285723628Y-134473809D01*
X285847438Y-134350000D01*
X286033152Y-134288095D01*
X286156961Y-134288095D01*
X286342676Y-134350000D01*
X286404580Y-134411904D01*
D10*
D11*
X285661723Y-185588095D02*
X285661723Y-184288095D01*
X285971247Y-184288095D01*
X286156961Y-184350000D01*
X286280771Y-184473809D01*
X286342676Y-184597619D01*
X286404580Y-184845238D01*
X286404580Y-185030952D01*
X286342676Y-185278571D01*
X286280771Y-185402380D01*
X286156961Y-185526190D01*
X285971247Y-185588095D01*
X285661723Y-185588095D01*
D10*
D11*
X200434342Y-193785771D02*
X200434342Y-192285771D01*
X200791485Y-192285771D01*
X201005771Y-192357200D01*
X201148628Y-192500057D01*
X201220057Y-192642914D01*
X201291485Y-192928628D01*
X201291485Y-193142914D01*
X201220057Y-193428628D01*
X201148628Y-193571485D01*
X201005771Y-193714342D01*
X200791485Y-193785771D01*
X200434342Y-193785771D01*
X202577200Y-193785771D02*
X202577200Y-193000057D01*
X202505771Y-192857200D01*
X202362914Y-192785771D01*
X202077200Y-192785771D01*
X201934342Y-192857200D01*
X202577200Y-193714342D02*
X202434342Y-193785771D01*
X202077200Y-193785771D01*
X201934342Y-193714342D01*
X201862914Y-193571485D01*
X201862914Y-193428628D01*
X201934342Y-193285771D01*
X202077200Y-193214342D01*
X202434342Y-193214342D01*
X202577200Y-193142914D01*
X203077200Y-192785771D02*
X203648628Y-192785771D01*
X203291485Y-192285771D02*
X203291485Y-193571485D01*
X203362914Y-193714342D01*
X203505771Y-193785771D01*
X203648628Y-193785771D01*
X204720057Y-193714342D02*
X204577200Y-193785771D01*
X204291485Y-193785771D01*
X204148628Y-193714342D01*
X204077200Y-193571485D01*
X204077200Y-193000057D01*
X204148628Y-192857200D01*
X204291485Y-192785771D01*
X204577200Y-192785771D01*
X204720057Y-192857200D01*
X204791485Y-193000057D01*
X204791485Y-193142914D01*
X204077200Y-193285771D01*
X205434342Y-193642914D02*
X205505771Y-193714342D01*
X205434342Y-193785771D01*
X205362914Y-193714342D01*
X205434342Y-193642914D01*
X205434342Y-193785771D01*
X205434342Y-192857200D02*
X205505771Y-192928628D01*
X205434342Y-193000057D01*
X205362914Y-192928628D01*
X205434342Y-192857200D01*
X205434342Y-193000057D01*
D10*
D11*
X177002200Y-194507200D02*
X285002200Y-194507200D01*
D10*
D11*
X178434342Y-196585771D02*
X178434342Y-195085771D01*
X179291485Y-196585771D02*
X178648628Y-195728628D01*
X179291485Y-195085771D02*
X178434342Y-195942914D01*
X179934342Y-196585771D02*
X179934342Y-195585771D01*
X179934342Y-195085771D02*
X179862914Y-195157200D01*
X179934342Y-195228628D01*
X180005771Y-195157200D01*
X179934342Y-195085771D01*
X179934342Y-195228628D01*
X181505771Y-196442914D02*
X181434342Y-196514342D01*
X181220057Y-196585771D01*
X181077200Y-196585771D01*
X180862914Y-196514342D01*
X180720057Y-196371485D01*
X180648628Y-196228628D01*
X180577200Y-195942914D01*
X180577200Y-195728628D01*
X180648628Y-195442914D01*
X180720057Y-195300057D01*
X180862914Y-195157200D01*
X181077200Y-195085771D01*
X181220057Y-195085771D01*
X181434342Y-195157200D01*
X181505771Y-195228628D01*
X182791485Y-196585771D02*
X182791485Y-195800057D01*
X182720057Y-195657200D01*
X182577200Y-195585771D01*
X182291485Y-195585771D01*
X182148628Y-195657200D01*
X182791485Y-196514342D02*
X182648628Y-196585771D01*
X182291485Y-196585771D01*
X182148628Y-196514342D01*
X182077200Y-196371485D01*
X182077200Y-196228628D01*
X182148628Y-196085771D01*
X182291485Y-196014342D01*
X182648628Y-196014342D01*
X182791485Y-195942914D01*
X184148628Y-196585771D02*
X184148628Y-195085771D01*
X184148628Y-196514342D02*
X184005771Y-196585771D01*
X183720057Y-196585771D01*
X183577200Y-196514342D01*
X183505771Y-196442914D01*
X183434342Y-196300057D01*
X183434342Y-195871485D01*
X183505771Y-195728628D01*
X183577200Y-195657200D01*
X183720057Y-195585771D01*
X184005771Y-195585771D01*
X184148628Y-195657200D01*
X186005771Y-195800057D02*
X186505771Y-195800057D01*
X186720057Y-196585771D02*
X186005771Y-196585771D01*
X186005771Y-195085771D01*
X186720057Y-195085771D01*
X187362914Y-196442914D02*
X187434342Y-196514342D01*
X187362914Y-196585771D01*
X187291485Y-196514342D01*
X187362914Y-196442914D01*
X187362914Y-196585771D01*
X188077200Y-196585771D02*
X188077200Y-195085771D01*
X188434342Y-195085771D01*
X188648628Y-195157200D01*
X188791485Y-195300057D01*
X188862914Y-195442914D01*
X188934342Y-195728628D01*
X188934342Y-195942914D01*
X188862914Y-196228628D01*
X188791485Y-196371485D01*
X188648628Y-196514342D01*
X188434342Y-196585771D01*
X188077200Y-196585771D01*
X189577200Y-196442914D02*
X189648628Y-196514342D01*
X189577200Y-196585771D01*
X189505771Y-196514342D01*
X189577200Y-196442914D01*
X189577200Y-196585771D01*
X190220057Y-196157200D02*
X190934342Y-196157200D01*
X190077200Y-196585771D02*
X190577200Y-195085771D01*
X191077200Y-196585771D01*
X191577200Y-196442914D02*
X191648628Y-196514342D01*
X191577200Y-196585771D01*
X191505771Y-196514342D01*
X191577200Y-196442914D01*
X191577200Y-196585771D01*
X194577200Y-196585771D02*
X194577200Y-195085771D01*
X194720057Y-196014342D02*
X195148628Y-196585771D01*
X195148628Y-195585771D02*
X194577200Y-196157200D01*
X195791485Y-196585771D02*
X195791485Y-195585771D01*
X195791485Y-195085771D02*
X195720057Y-195157200D01*
X195791485Y-195228628D01*
X195862914Y-195157200D01*
X195791485Y-195085771D01*
X195791485Y-195228628D01*
X197148628Y-196514342D02*
X197005771Y-196585771D01*
X196720057Y-196585771D01*
X196577200Y-196514342D01*
X196505771Y-196442914D01*
X196434342Y-196300057D01*
X196434342Y-195871485D01*
X196505771Y-195728628D01*
X196577200Y-195657200D01*
X196720057Y-195585771D01*
X197005771Y-195585771D01*
X197148628Y-195657200D01*
X198434342Y-196585771D02*
X198434342Y-195800057D01*
X198362914Y-195657200D01*
X198220057Y-195585771D01*
X197934342Y-195585771D01*
X197791485Y-195657200D01*
X198434342Y-196514342D02*
X198291485Y-196585771D01*
X197934342Y-196585771D01*
X197791485Y-196514342D01*
X197720057Y-196371485D01*
X197720057Y-196228628D01*
X197791485Y-196085771D01*
X197934342Y-196014342D01*
X198291485Y-196014342D01*
X198434342Y-195942914D01*
X199791485Y-196585771D02*
X199791485Y-195085771D01*
X199791485Y-196514342D02*
X199648628Y-196585771D01*
X199362914Y-196585771D01*
X199220057Y-196514342D01*
X199148628Y-196442914D01*
X199077200Y-196300057D01*
X199077200Y-195871485D01*
X199148628Y-195728628D01*
X199220057Y-195657200D01*
X199362914Y-195585771D01*
X199648628Y-195585771D01*
X199791485Y-195657200D01*
X202077200Y-197157200D02*
X202005771Y-197085771D01*
X201862914Y-196871485D01*
X201791485Y-196728628D01*
X201720057Y-196514342D01*
X201648628Y-196157200D01*
X201648628Y-195871485D01*
X201720057Y-195514342D01*
X201791485Y-195300057D01*
X201862914Y-195157200D01*
X202005771Y-194942914D01*
X202077200Y-194871485D01*
X203362914Y-195085771D02*
X202648628Y-195085771D01*
X202577200Y-195800057D01*
X202648628Y-195728628D01*
X202791485Y-195657200D01*
X203148628Y-195657200D01*
X203291485Y-195728628D01*
X203362914Y-195800057D01*
X203434342Y-195942914D01*
X203434342Y-196300057D01*
X203362914Y-196442914D01*
X203291485Y-196514342D01*
X203148628Y-196585771D01*
X202791485Y-196585771D01*
X202648628Y-196514342D01*
X202577200Y-196442914D01*
X204077200Y-196442914D02*
X204148628Y-196514342D01*
X204077200Y-196585771D01*
X204005771Y-196514342D01*
X204077200Y-196442914D01*
X204077200Y-196585771D01*
X205077200Y-195085771D02*
X205220057Y-195085771D01*
X205362914Y-195157200D01*
X205434342Y-195228628D01*
X205505771Y-195371485D01*
X205577200Y-195657200D01*
X205577200Y-196014342D01*
X205505771Y-196300057D01*
X205434342Y-196442914D01*
X205362914Y-196514342D01*
X205220057Y-196585771D01*
X205077200Y-196585771D01*
X204934342Y-196514342D01*
X204862914Y-196442914D01*
X204791485Y-196300057D01*
X204720057Y-196014342D01*
X204720057Y-195657200D01*
X204791485Y-195371485D01*
X204862914Y-195228628D01*
X204934342Y-195157200D01*
X205077200Y-195085771D01*
X206220057Y-196442914D02*
X206291485Y-196514342D01*
X206220057Y-196585771D01*
X206148628Y-196514342D01*
X206220057Y-196442914D01*
X206220057Y-196585771D01*
X207220057Y-195085771D02*
X207362914Y-195085771D01*
X207505771Y-195157200D01*
X207577200Y-195228628D01*
X207648628Y-195371485D01*
X207720057Y-195657200D01*
X207720057Y-196014342D01*
X207648628Y-196300057D01*
X207577200Y-196442914D01*
X207505771Y-196514342D01*
X207362914Y-196585771D01*
X207220057Y-196585771D01*
X207077200Y-196514342D01*
X207005771Y-196442914D01*
X206934342Y-196300057D01*
X206862914Y-196014342D01*
X206862914Y-195657200D01*
X206934342Y-195371485D01*
X207005771Y-195228628D01*
X207077200Y-195157200D01*
X207220057Y-195085771D01*
X208220057Y-197157200D02*
X208291485Y-197085771D01*
X208434342Y-196871485D01*
X208505771Y-196728628D01*
X208577200Y-196514342D01*
X208648628Y-196157200D01*
X208648628Y-195871485D01*
X208577200Y-195514342D01*
X208505771Y-195300057D01*
X208434342Y-195157200D01*
X208291485Y-194942914D01*
X208220057Y-194871485D01*
D10*
D11*
X177002200Y-191507200D02*
X285002200Y-191507200D01*
D10*
D12*
X264411485Y-193785771D02*
X263911485Y-193071485D01*
X263554342Y-193785771D02*
X263554342Y-192285771D01*
X264125771Y-192285771D01*
X264268628Y-192357200D01*
X264340057Y-192428628D01*
X264411485Y-192571485D01*
X264411485Y-192785771D01*
X264340057Y-192928628D01*
X264268628Y-193000057D01*
X264125771Y-193071485D01*
X263554342Y-193071485D01*
X265625771Y-193714342D02*
X265482914Y-193785771D01*
X265197200Y-193785771D01*
X265054342Y-193714342D01*
X264982914Y-193571485D01*
X264982914Y-193000057D01*
X265054342Y-192857200D01*
X265197200Y-192785771D01*
X265482914Y-192785771D01*
X265625771Y-192857200D01*
X265697200Y-193000057D01*
X265697200Y-193142914D01*
X264982914Y-193285771D01*
X266197200Y-192785771D02*
X266554342Y-193785771D01*
X266911485Y-192785771D01*
X267482914Y-193642914D02*
X267554342Y-193714342D01*
X267482914Y-193785771D01*
X267411485Y-193714342D01*
X267482914Y-193642914D01*
X267482914Y-193785771D01*
X267482914Y-192857200D02*
X267554342Y-192928628D01*
X267482914Y-193000057D01*
X267411485Y-192928628D01*
X267482914Y-192857200D01*
X267482914Y-193000057D01*
D10*
D11*
X178362914Y-193714342D02*
X178577200Y-193785771D01*
X178934342Y-193785771D01*
X179077200Y-193714342D01*
X179148628Y-193642914D01*
X179220057Y-193500057D01*
X179220057Y-193357200D01*
X179148628Y-193214342D01*
X179077200Y-193142914D01*
X178934342Y-193071485D01*
X178648628Y-193000057D01*
X178505771Y-192928628D01*
X178434342Y-192857200D01*
X178362914Y-192714342D01*
X178362914Y-192571485D01*
X178434342Y-192428628D01*
X178505771Y-192357200D01*
X178648628Y-192285771D01*
X179005771Y-192285771D01*
X179220057Y-192357200D01*
X179862914Y-193785771D02*
X179862914Y-192785771D01*
X179862914Y-192285771D02*
X179791485Y-192357200D01*
X179862914Y-192428628D01*
X179934342Y-192357200D01*
X179862914Y-192285771D01*
X179862914Y-192428628D01*
X180434342Y-192785771D02*
X181220057Y-192785771D01*
X180434342Y-193785771D01*
X181220057Y-193785771D01*
X182362914Y-193714342D02*
X182220057Y-193785771D01*
X181934342Y-193785771D01*
X181791485Y-193714342D01*
X181720057Y-193571485D01*
X181720057Y-193000057D01*
X181791485Y-192857200D01*
X181934342Y-192785771D01*
X182220057Y-192785771D01*
X182362914Y-192857200D01*
X182434342Y-193000057D01*
X182434342Y-193142914D01*
X181720057Y-193285771D01*
X183077200Y-193642914D02*
X183148628Y-193714342D01*
X183077200Y-193785771D01*
X183005771Y-193714342D01*
X183077200Y-193642914D01*
X183077200Y-193785771D01*
X183077200Y-192857200D02*
X183148628Y-192928628D01*
X183077200Y-193000057D01*
X183005771Y-192928628D01*
X183077200Y-192857200D01*
X183077200Y-193000057D01*
X184862914Y-193357200D02*
X185577200Y-193357200D01*
X184720057Y-193785771D02*
X185220057Y-192285771D01*
X185720057Y-193785771D01*
X186862914Y-192785771D02*
X186862914Y-193785771D01*
X186505771Y-192214342D02*
X186148628Y-193285771D01*
X187077200Y-193285771D01*
D10*
D11*
X263434342Y-196585771D02*
X263434342Y-195085771D01*
X264791485Y-196585771D02*
X264791485Y-195085771D01*
X264791485Y-196514342D02*
X264648628Y-196585771D01*
X264362914Y-196585771D01*
X264220057Y-196514342D01*
X264148628Y-196442914D01*
X264077200Y-196300057D01*
X264077200Y-195871485D01*
X264148628Y-195728628D01*
X264220057Y-195657200D01*
X264362914Y-195585771D01*
X264648628Y-195585771D01*
X264791485Y-195657200D01*
X265505771Y-196442914D02*
X265577200Y-196514342D01*
X265505771Y-196585771D01*
X265434342Y-196514342D01*
X265505771Y-196442914D01*
X265505771Y-196585771D01*
X265505771Y-195657200D02*
X265577200Y-195728628D01*
X265505771Y-195800057D01*
X265434342Y-195728628D01*
X265505771Y-195657200D01*
X265505771Y-195800057D01*
X268148628Y-196585771D02*
X267291485Y-196585771D01*
X267720057Y-196585771D02*
X267720057Y-195085771D01*
X267577200Y-195300057D01*
X267434342Y-195442914D01*
X267291485Y-195514342D01*
X269862914Y-195014342D02*
X268577200Y-196942914D01*
X271148628Y-196585771D02*
X270291485Y-196585771D01*
X270720057Y-196585771D02*
X270720057Y-195085771D01*
X270577200Y-195300057D01*
X270434342Y-195442914D01*
X270291485Y-195514342D01*
D10*
D11*
X177002200Y-187507200D02*
X285002200Y-187507200D01*
D10*
D13*
X178714580Y-188211961D02*
X179857438Y-188211961D01*
X179036009Y-190211961D02*
X179286009Y-188211961D01*
X180274104Y-190211961D02*
X180440771Y-188878628D01*
X180524104Y-188211961D02*
X180416961Y-188307200D01*
X180500295Y-188402438D01*
X180607438Y-188307200D01*
X180524104Y-188211961D01*
X180500295Y-188402438D01*
X181107438Y-188878628D02*
X181869342Y-188878628D01*
X181476485Y-188211961D02*
X181262200Y-189926247D01*
X181333628Y-190116723D01*
X181512200Y-190211961D01*
X181702676Y-190211961D01*
X182655057Y-190211961D02*
X182476485Y-190116723D01*
X182405057Y-189926247D01*
X182619342Y-188211961D01*
X184190771Y-190116723D02*
X183988390Y-190211961D01*
X183607438Y-190211961D01*
X183428866Y-190116723D01*
X183357438Y-189926247D01*
X183452676Y-189164342D01*
X183571723Y-188973866D01*
X183774104Y-188878628D01*
X184155057Y-188878628D01*
X184333628Y-188973866D01*
X184405057Y-189164342D01*
X184381247Y-189354819D01*
X183405057Y-189545295D01*
X185155057Y-190021485D02*
X185238390Y-190116723D01*
X185131247Y-190211961D01*
X185047914Y-190116723D01*
X185155057Y-190021485D01*
X185131247Y-190211961D01*
X185286009Y-188973866D02*
X185369342Y-189069104D01*
X185262200Y-189164342D01*
X185178866Y-189069104D01*
X185286009Y-188973866D01*
X185262200Y-189164342D01*
D10*
D11*
X178934342Y-185600057D02*
X178434342Y-185600057D01*
X178434342Y-186385771D02*
X178434342Y-184885771D01*
X179148628Y-184885771D01*
X179720057Y-186385771D02*
X179720057Y-185385771D01*
X179720057Y-184885771D02*
X179648628Y-184957200D01*
X179720057Y-185028628D01*
X179791485Y-184957200D01*
X179720057Y-184885771D01*
X179720057Y-185028628D01*
X180648628Y-186385771D02*
X180505771Y-186314342D01*
X180434342Y-186171485D01*
X180434342Y-184885771D01*
X181791485Y-186314342D02*
X181648628Y-186385771D01*
X181362914Y-186385771D01*
X181220057Y-186314342D01*
X181148628Y-186171485D01*
X181148628Y-185600057D01*
X181220057Y-185457200D01*
X181362914Y-185385771D01*
X181648628Y-185385771D01*
X181791485Y-185457200D01*
X181862914Y-185600057D01*
X181862914Y-185742914D01*
X181148628Y-185885771D01*
X182505771Y-186242914D02*
X182577200Y-186314342D01*
X182505771Y-186385771D01*
X182434342Y-186314342D01*
X182505771Y-186242914D01*
X182505771Y-186385771D01*
X182505771Y-185457200D02*
X182577200Y-185528628D01*
X182505771Y-185600057D01*
X182434342Y-185528628D01*
X182505771Y-185457200D01*
X182505771Y-185600057D01*
X184362914Y-186385771D02*
X184362914Y-184885771D01*
X184362914Y-185457200D02*
X184505771Y-185385771D01*
X184791485Y-185385771D01*
X184934342Y-185457200D01*
X185005771Y-185528628D01*
X185077200Y-185671485D01*
X185077200Y-186100057D01*
X185005771Y-186242914D01*
X184934342Y-186314342D01*
X184791485Y-186385771D01*
X184505771Y-186385771D01*
X184362914Y-186314342D01*
X185720057Y-185385771D02*
X185720057Y-186885771D01*
X185720057Y-185457200D02*
X185862914Y-185385771D01*
X186148628Y-185385771D01*
X186291485Y-185457200D01*
X186362914Y-185528628D01*
X186434342Y-185671485D01*
X186434342Y-186100057D01*
X186362914Y-186242914D01*
X186291485Y-186314342D01*
X186148628Y-186385771D01*
X185862914Y-186385771D01*
X185720057Y-186314342D01*
X187077200Y-186385771D02*
X187077200Y-185385771D01*
X187077200Y-184885771D02*
X187005771Y-184957200D01*
X187077200Y-185028628D01*
X187148628Y-184957200D01*
X187077200Y-184885771D01*
X187077200Y-185028628D01*
X187791485Y-185814342D02*
X188934342Y-185814342D01*
X189648628Y-186385771D02*
X189648628Y-185385771D01*
X189648628Y-185671485D02*
X189720057Y-185528628D01*
X189791485Y-185457200D01*
X189934342Y-185385771D01*
X190077200Y-185385771D01*
X191362914Y-186385771D02*
X190505771Y-186385771D01*
X190934342Y-186385771D02*
X190934342Y-184885771D01*
X190791485Y-185100057D01*
X190648628Y-185242914D01*
X190505771Y-185314342D01*
X192005771Y-185814342D02*
X193148628Y-185814342D01*
X194505771Y-186314342D02*
X194362914Y-186385771D01*
X194077200Y-186385771D01*
X193934342Y-186314342D01*
X193862914Y-186242914D01*
X193791485Y-186100057D01*
X193791485Y-185671485D01*
X193862914Y-185528628D01*
X193934342Y-185457200D01*
X194077200Y-185385771D01*
X194362914Y-185385771D01*
X194505771Y-185457200D01*
X195791485Y-186385771D02*
X195791485Y-185600057D01*
X195720057Y-185457200D01*
X195577200Y-185385771D01*
X195291485Y-185385771D01*
X195148628Y-185457200D01*
X195791485Y-186314342D02*
X195648628Y-186385771D01*
X195291485Y-186385771D01*
X195148628Y-186314342D01*
X195077200Y-186171485D01*
X195077200Y-186028628D01*
X195148628Y-185885771D01*
X195291485Y-185814342D01*
X195648628Y-185814342D01*
X195791485Y-185742914D01*
X196505771Y-185385771D02*
X196505771Y-186385771D01*
X196505771Y-185528628D02*
X196577200Y-185457200D01*
X196720057Y-185385771D01*
X196934342Y-185385771D01*
X197077200Y-185457200D01*
X197148628Y-185600057D01*
X197148628Y-186385771D01*
X197862914Y-185814342D02*
X199005771Y-185814342D01*
X199648628Y-186314342D02*
X199791485Y-186385771D01*
X200077200Y-186385771D01*
X200220057Y-186314342D01*
X200291485Y-186171485D01*
X200291485Y-186100057D01*
X200220057Y-185957200D01*
X200077200Y-185885771D01*
X199862914Y-185885771D01*
X199720057Y-185814342D01*
X199648628Y-185671485D01*
X199648628Y-185600057D01*
X199720057Y-185457200D01*
X199862914Y-185385771D01*
X200077200Y-185385771D01*
X200220057Y-185457200D01*
X201505771Y-186314342D02*
X201362914Y-186385771D01*
X201077200Y-186385771D01*
X200934342Y-186314342D01*
X200862914Y-186171485D01*
X200862914Y-185600057D01*
X200934342Y-185457200D01*
X201077200Y-185385771D01*
X201362914Y-185385771D01*
X201505771Y-185457200D01*
X201577200Y-185600057D01*
X201577200Y-185742914D01*
X200862914Y-185885771D01*
X202220057Y-186385771D02*
X202220057Y-185385771D01*
X202220057Y-185671485D02*
X202291485Y-185528628D01*
X202362914Y-185457200D01*
X202505771Y-185385771D01*
X202648628Y-185385771D01*
X203148628Y-186242914D02*
X203220057Y-186314342D01*
X203148628Y-186385771D01*
X203077200Y-186314342D01*
X203148628Y-186242914D01*
X203148628Y-186385771D01*
X203862914Y-186385771D02*
X203862914Y-184885771D01*
X204005771Y-185814342D02*
X204434342Y-186385771D01*
X204434342Y-185385771D02*
X203862914Y-185957200D01*
X205077200Y-186385771D02*
X205077200Y-185385771D01*
X205077200Y-184885771D02*
X205005771Y-184957200D01*
X205077200Y-185028628D01*
X205148628Y-184957200D01*
X205077200Y-184885771D01*
X205077200Y-185028628D01*
X206434342Y-186314342D02*
X206291485Y-186385771D01*
X206005771Y-186385771D01*
X205862914Y-186314342D01*
X205791485Y-186242914D01*
X205720057Y-186100057D01*
X205720057Y-185671485D01*
X205791485Y-185528628D01*
X205862914Y-185457200D01*
X206005771Y-185385771D01*
X206291485Y-185385771D01*
X206434342Y-185457200D01*
X207720057Y-186385771D02*
X207720057Y-185600057D01*
X207648628Y-185457200D01*
X207505771Y-185385771D01*
X207220057Y-185385771D01*
X207077200Y-185457200D01*
X207720057Y-186314342D02*
X207577200Y-186385771D01*
X207220057Y-186385771D01*
X207077200Y-186314342D01*
X207005771Y-186171485D01*
X207005771Y-186028628D01*
X207077200Y-185885771D01*
X207220057Y-185814342D01*
X207577200Y-185814342D01*
X207720057Y-185742914D01*
X209077200Y-186385771D02*
X209077200Y-184885771D01*
X209077200Y-186314342D02*
X208934342Y-186385771D01*
X208648628Y-186385771D01*
X208505771Y-186314342D01*
X208434342Y-186242914D01*
X208362914Y-186100057D01*
X208362914Y-185671485D01*
X208434342Y-185528628D01*
X208505771Y-185457200D01*
X208648628Y-185385771D01*
X208934342Y-185385771D01*
X209077200Y-185457200D01*
X209434342Y-186528628D02*
X210577200Y-186528628D01*
X210934342Y-185385771D02*
X210934342Y-186885771D01*
X210934342Y-185457200D02*
X211077200Y-185385771D01*
X211362914Y-185385771D01*
X211505771Y-185457200D01*
X211577200Y-185528628D01*
X211648628Y-185671485D01*
X211648628Y-186100057D01*
X211577200Y-186242914D01*
X211505771Y-186314342D01*
X211362914Y-186385771D01*
X211077200Y-186385771D01*
X210934342Y-186314342D01*
X212934342Y-186314342D02*
X212791485Y-186385771D01*
X212505771Y-186385771D01*
X212362914Y-186314342D01*
X212291485Y-186242914D01*
X212220057Y-186100057D01*
X212220057Y-185671485D01*
X212291485Y-185528628D01*
X212362914Y-185457200D01*
X212505771Y-185385771D01*
X212791485Y-185385771D01*
X212934342Y-185457200D01*
X213577200Y-186385771D02*
X213577200Y-184885771D01*
X213577200Y-185457200D02*
X213720057Y-185385771D01*
X214005771Y-185385771D01*
X214148628Y-185457200D01*
X214220057Y-185528628D01*
X214291485Y-185671485D01*
X214291485Y-186100057D01*
X214220057Y-186242914D01*
X214148628Y-186314342D01*
X214005771Y-186385771D01*
X213720057Y-186385771D01*
X213577200Y-186314342D01*
D10*
D11*
X177002200Y-181507200D02*
X285002200Y-181507200D01*
D10*
D11*
X178362914Y-183614342D02*
X178577200Y-183685771D01*
X178934342Y-183685771D01*
X179077200Y-183614342D01*
X179148628Y-183542914D01*
X179220057Y-183400057D01*
X179220057Y-183257200D01*
X179148628Y-183114342D01*
X179077200Y-183042914D01*
X178934342Y-182971485D01*
X178648628Y-182900057D01*
X178505771Y-182828628D01*
X178434342Y-182757200D01*
X178362914Y-182614342D01*
X178362914Y-182471485D01*
X178434342Y-182328628D01*
X178505771Y-182257200D01*
X178648628Y-182185771D01*
X179005771Y-182185771D01*
X179220057Y-182257200D01*
X179862914Y-183685771D02*
X179862914Y-182185771D01*
X180505771Y-183685771D02*
X180505771Y-182900057D01*
X180434342Y-182757200D01*
X180291485Y-182685771D01*
X180077200Y-182685771D01*
X179934342Y-182757200D01*
X179862914Y-182828628D01*
X181791485Y-183614342D02*
X181648628Y-183685771D01*
X181362914Y-183685771D01*
X181220057Y-183614342D01*
X181148628Y-183471485D01*
X181148628Y-182900057D01*
X181220057Y-182757200D01*
X181362914Y-182685771D01*
X181648628Y-182685771D01*
X181791485Y-182757200D01*
X181862914Y-182900057D01*
X181862914Y-183042914D01*
X181148628Y-183185771D01*
X183077200Y-183614342D02*
X182934342Y-183685771D01*
X182648628Y-183685771D01*
X182505771Y-183614342D01*
X182434342Y-183471485D01*
X182434342Y-182900057D01*
X182505771Y-182757200D01*
X182648628Y-182685771D01*
X182934342Y-182685771D01*
X183077200Y-182757200D01*
X183148628Y-182900057D01*
X183148628Y-183042914D01*
X182434342Y-183185771D01*
X183577200Y-182685771D02*
X184148628Y-182685771D01*
X183791485Y-182185771D02*
X183791485Y-183471485D01*
X183862914Y-183614342D01*
X184005771Y-183685771D01*
X184148628Y-183685771D01*
X184648628Y-183542914D02*
X184720057Y-183614342D01*
X184648628Y-183685771D01*
X184577200Y-183614342D01*
X184648628Y-183542914D01*
X184648628Y-183685771D01*
X184648628Y-182757200D02*
X184720057Y-182828628D01*
X184648628Y-182900057D01*
X184577200Y-182828628D01*
X184648628Y-182757200D01*
X184648628Y-182900057D01*
D10*
D11*
X197002200Y-191507200D02*
X197002200Y-194507200D01*
D10*
D11*
X261002200Y-191507200D02*
X261002200Y-198007200D01*
D10*
X170567362Y-145014960D02*
X170567362Y-145014960D01*
X170567362Y-145137546D02*
X170567362Y-145014960D01*
X170666851Y-145502510D02*
X170567362Y-145137546D01*
X170933595Y-145898946D02*
X170666851Y-145502510D01*
X171330285Y-146166197D02*
X170933595Y-145898946D01*
X171693980Y-146263910D02*
X171330285Y-146166197D01*
X171815043Y-146263910D02*
X171693980Y-146263910D01*
X171937628Y-146263910D02*
X171815043Y-146263910D01*
X172302592Y-146166197D02*
X171937628Y-146263910D01*
X172699028Y-145898946D02*
X172302592Y-146166197D01*
X172966279Y-145502510D02*
X172699028Y-145898946D01*
X173063992Y-145137546D02*
X172966279Y-145502510D01*
X173063992Y-145014960D02*
X173063992Y-145137546D01*
X173063992Y-144893644D02*
X173063992Y-145014960D01*
X172966279Y-144528679D02*
X173063992Y-144893644D01*
X172699028Y-144132244D02*
X172966279Y-144528679D01*
X172302592Y-143864992D02*
X172699028Y-144132244D01*
X171937628Y-143766010D02*
X172302592Y-143864992D01*
X171815043Y-143766010D02*
X171937628Y-143766010D01*
X171693980Y-143766010D02*
X171815043Y-143766010D01*
X171330285Y-143864992D02*
X171693980Y-143766010D01*
X170933595Y-144132244D02*
X171330285Y-143864992D01*
X170666851Y-144528679D02*
X170933595Y-144132244D01*
X170567362Y-144893644D02*
X170666851Y-144528679D01*
X170567362Y-145014960D02*
X170567362Y-144893644D01*
X207789416Y-150013297D02*
X117860716Y-150013297D01*
X168818680Y-145014960D02*
X168818680Y-145014960D01*
X168818680Y-145306830D02*
X168818680Y-145014960D01*
X169054206Y-146182694D02*
X168818680Y-145306830D01*
X169697589Y-147135459D02*
X169054206Y-146182694D01*
X170648832Y-147777066D02*
X169697589Y-147135459D01*
X171524442Y-148012592D02*
X170648832Y-147777066D01*
X171815043Y-148012592D02*
X171524442Y-148012592D01*
X172107166Y-148012592D02*
X171815043Y-148012592D01*
X172982776Y-147777066D02*
X172107166Y-148012592D01*
X173935542Y-147135459D02*
X172982776Y-147777066D01*
X174578671Y-146182694D02*
X173935542Y-147135459D01*
X174812674Y-145306830D02*
X174578671Y-146182694D01*
X174812674Y-145014960D02*
X174812674Y-145306830D01*
X174812674Y-144724359D02*
X174812674Y-145014960D01*
X174578671Y-143848749D02*
X174812674Y-144724359D01*
X173935542Y-142895730D02*
X174578671Y-143848749D01*
X172982776Y-142254124D02*
X173935542Y-142895730D01*
X172107166Y-142017328D02*
X172982776Y-142254124D01*
X171815043Y-142017328D02*
X172107166Y-142017328D01*
X171524442Y-142017328D02*
X171815043Y-142017328D01*
X170648832Y-142254124D02*
X171524442Y-142017328D01*
X169697589Y-142895730D02*
X170648832Y-142254124D01*
X169054206Y-143848749D02*
X169697589Y-142895730D01*
X168818680Y-144724359D02*
X169054206Y-143848749D01*
X168818680Y-145014960D02*
X168818680Y-144724359D01*
X207789416Y-90060915D02*
X207789416Y-150013297D01*
X207289430Y-93057024D02*
X202292362Y-93057024D01*
X204791784Y-149512042D02*
X204791784Y-144517766D01*
X207289430Y-147015666D02*
X202292362Y-147015666D01*
X203124318Y-147012874D02*
X203124318Y-147012874D01*
X203124318Y-147175306D02*
X203124318Y-147012874D01*
X203255025Y-147661587D02*
X203124318Y-147175306D01*
X203611868Y-148191521D02*
X203255025Y-147661587D01*
X204141802Y-148548364D02*
X203611868Y-148191521D01*
X204627829Y-148679071D02*
X204141802Y-148548364D01*
X204788992Y-148679071D02*
X204627829Y-148679071D01*
X204951424Y-148679071D02*
X204788992Y-148679071D01*
X205437451Y-148548364D02*
X204951424Y-148679071D01*
X205967640Y-148191521D02*
X205437451Y-148548364D01*
X206324229Y-147661587D02*
X205967640Y-148191521D01*
X206455189Y-147175306D02*
X206324229Y-147661587D01*
X206455189Y-147012874D02*
X206455189Y-147175306D01*
X206455189Y-146851711D02*
X206455189Y-147012874D01*
X206324229Y-146365684D02*
X206455189Y-146851711D01*
X205967640Y-145835496D02*
X206324229Y-146365684D01*
X205437451Y-145479160D02*
X205967640Y-145835496D01*
X204951424Y-145347946D02*
X205437451Y-145479160D01*
X204788992Y-145347946D02*
X204951424Y-145347946D01*
X204627829Y-145347946D02*
X204788992Y-145347946D01*
X204141802Y-145479160D02*
X204627829Y-145347946D01*
X203611868Y-145835496D02*
X204141802Y-145479160D01*
X203255025Y-146365684D02*
X203611868Y-145835496D01*
X203124318Y-146851711D02*
X203255025Y-146365684D01*
X203124318Y-147012874D02*
X203124318Y-146851711D01*
X137449511Y-139819782D02*
X137589357Y-139644974D01*
X137869051Y-139470165D01*
X138568283Y-139470165D01*
X138847977Y-139644974D01*
X138987823Y-139819782D01*
X139127670Y-140169398D01*
X139127670Y-140519015D01*
X138987823Y-141043439D01*
X137309664Y-143141138D01*
X139127670Y-143141138D01*
X140945675Y-139470165D02*
X141225368Y-139470165D01*
X141505061Y-139644974D01*
X141644908Y-139819782D01*
X141784755Y-140169398D01*
X141924601Y-140868631D01*
X141924601Y-141742672D01*
X141784755Y-142441905D01*
X141644908Y-142791522D01*
X141505061Y-142966330D01*
X141225368Y-143141138D01*
X140945675Y-143141138D01*
X140665982Y-142966330D01*
X140526135Y-142791522D01*
X140386289Y-142441905D01*
X140246442Y-141742672D01*
X140246442Y-140868631D01*
X140386289Y-140169398D01*
X140526135Y-139819782D01*
X140665982Y-139644974D01*
X140945675Y-139470165D01*
X144721533Y-143141138D02*
X143043374Y-143141138D01*
X143882453Y-143141138D02*
X143882453Y-139470165D01*
X143602760Y-139994590D01*
X143323067Y-140344206D01*
X143043374Y-140519015D01*
X147238771Y-140693823D02*
X147238771Y-143141138D01*
X146539538Y-139295357D02*
X145840305Y-141917481D01*
X147658311Y-141917481D01*
X149336469Y-139470165D02*
X149616163Y-139470165D01*
X149895856Y-139644974D01*
X150035702Y-139819782D01*
X150175549Y-140169398D01*
X150315395Y-140868631D01*
X150315395Y-141742672D01*
X150175549Y-142441905D01*
X150035702Y-142791522D01*
X149895856Y-142966330D01*
X149616163Y-143141138D01*
X149336469Y-143141138D01*
X149056776Y-142966330D01*
X148916930Y-142791522D01*
X148777083Y-142441905D01*
X148637237Y-141742672D01*
X148637237Y-140868631D01*
X148777083Y-140169398D01*
X148916930Y-139819782D01*
X149056776Y-139644974D01*
X149336469Y-139470165D01*
X151294321Y-139470165D02*
X153252173Y-139470165D01*
X151993554Y-143141138D01*
X154930332Y-139470165D02*
X155210025Y-139470165D01*
X155489719Y-139644974D01*
X155629565Y-139819782D01*
X155769412Y-140169398D01*
X155909258Y-140868631D01*
X155909258Y-141742672D01*
X155769412Y-142441905D01*
X155629565Y-142791522D01*
X155489719Y-142966330D01*
X155210025Y-143141138D01*
X154930332Y-143141138D01*
X154650639Y-142966330D01*
X154510793Y-142791522D01*
X154370946Y-142441905D01*
X154231099Y-141742672D01*
X154231099Y-140868631D01*
X154370946Y-140169398D01*
X154510793Y-139819782D01*
X154650639Y-139644974D01*
X154930332Y-139470165D01*
X157587417Y-141043439D02*
X157307724Y-140868631D01*
X157167877Y-140693823D01*
X157028031Y-140344206D01*
X157028031Y-140169398D01*
X157167877Y-139819782D01*
X157307724Y-139644974D01*
X157587417Y-139470165D01*
X158146803Y-139470165D01*
X158426497Y-139644974D01*
X158566343Y-139819782D01*
X158706190Y-140169398D01*
X158706190Y-140344206D01*
X158566343Y-140693823D01*
X158426497Y-140868631D01*
X158146803Y-141043439D01*
X157587417Y-141043439D01*
X157307724Y-141218248D01*
X157167877Y-141393056D01*
X157028031Y-141742672D01*
X157028031Y-142441905D01*
X157167877Y-142791522D01*
X157307724Y-142966330D01*
X157587417Y-143141138D01*
X158146803Y-143141138D01*
X158426497Y-142966330D01*
X158566343Y-142791522D01*
X158706190Y-142441905D01*
X158706190Y-141742672D01*
X158566343Y-141393056D01*
X158426497Y-141218248D01*
X158146803Y-141043439D01*
X163880513Y-143141138D02*
X162901587Y-141393056D01*
X162202354Y-143141138D02*
X162202354Y-139470165D01*
X163321127Y-139470165D01*
X163600820Y-139644974D01*
X163740666Y-139819782D01*
X163880513Y-140169398D01*
X163880513Y-140693823D01*
X163740666Y-141043439D01*
X163600820Y-141218248D01*
X163321127Y-141393056D01*
X162202354Y-141393056D01*
X166677444Y-143141138D02*
X164999285Y-143141138D01*
X165838365Y-143141138D02*
X165838365Y-139470165D01*
X165558672Y-139994590D01*
X165278979Y-140344206D01*
X164999285Y-140519015D01*
X137169818Y-144754650D02*
X138847977Y-144754650D01*
X138008897Y-148425623D02*
X138008897Y-144754650D01*
X140386289Y-144754650D02*
X140945675Y-144754650D01*
X141225368Y-144929459D01*
X141505061Y-145279075D01*
X141644908Y-145978308D01*
X141644908Y-147201966D01*
X141505061Y-147901199D01*
X141225368Y-148250815D01*
X140945675Y-148425623D01*
X140386289Y-148425623D01*
X140106596Y-148250815D01*
X139826903Y-147901199D01*
X139687056Y-147201966D01*
X139687056Y-145978308D01*
X139826903Y-145279075D01*
X140106596Y-144929459D01*
X140386289Y-144754650D01*
X142903527Y-148425623D02*
X142903527Y-144754650D01*
X144022300Y-144754650D01*
X144301993Y-144929459D01*
X144441839Y-145104267D01*
X144581686Y-145453883D01*
X144581686Y-145978308D01*
X144441839Y-146327924D01*
X144301993Y-146502733D01*
X144022300Y-146677541D01*
X142903527Y-146677541D01*
X147938004Y-148250815D02*
X148357543Y-148425623D01*
X149056776Y-148425623D01*
X149336469Y-148250815D01*
X149476316Y-148076007D01*
X149616163Y-147726390D01*
X149616163Y-147376774D01*
X149476316Y-147027157D01*
X149336469Y-146852349D01*
X149056776Y-146677541D01*
X148497390Y-146502733D01*
X148217697Y-146327924D01*
X148077850Y-146153116D01*
X147938004Y-145803500D01*
X147938004Y-145453883D01*
X148077850Y-145104267D01*
X148217697Y-144929459D01*
X148497390Y-144754650D01*
X149196623Y-144754650D01*
X149616163Y-144929459D01*
X150874782Y-148425623D02*
X150874782Y-144754650D01*
X152273247Y-148425623D02*
X152273247Y-144754650D01*
X152972480Y-144754650D01*
X153392020Y-144929459D01*
X153671713Y-145279075D01*
X153811560Y-145628691D01*
X153951406Y-146327924D01*
X153951406Y-146852349D01*
X153811560Y-147551582D01*
X153671713Y-147901199D01*
X153392020Y-148250815D01*
X152972480Y-148425623D01*
X152273247Y-148425623D01*
X155210025Y-146502733D02*
X156188951Y-146502733D01*
X156608491Y-148425623D02*
X155210025Y-148425623D01*
X155210025Y-144754650D01*
X156608491Y-144754650D01*
X71977993Y-108152007D02*
X90978006Y-108152007D01*
X72994323Y-112300386D02*
X72994323Y-125600384D01*
X128694231Y-58036600D02*
G75*
G02X131944231Y-58036600I1625000J0D01*
G01*
X90978006Y-108152007D02*
X90978006Y-89151994D01*
X76114993Y-145793003D02*
X76114993Y-149992995D01*
X120514232Y-58036600D02*
G75*
G02X117264230Y-58036600I-1625001J0D01*
G01*
X74214997Y-150992993D02*
X71215003Y-150992993D01*
X87028712Y-112300386D02*
X87028712Y-125600384D01*
X82958848Y-54914529D02*
X82958848Y-53136529D01*
X90978006Y-89151994D02*
X71977993Y-89151994D01*
X202509000Y-65632000D02*
X208097000Y-65632000D01*
X80357888Y-53136529D02*
X80789688Y-53136529D01*
X79821005Y-149614992D02*
X79821005Y-143964991D01*
X189149200Y-58104527D02*
G75*
G02X192399200Y-58104527I1625000J0D01*
G01*
X202294136Y-146986529D02*
G75*
G02X207294126Y-146986529I2499995J0D01*
G01*
X95702000Y-146404000D02*
X90521009Y-146404000D01*
X80789688Y-53136529D02*
X80789688Y-54914529D01*
X80789688Y-54914529D02*
X80357888Y-54914529D01*
X80357888Y-54914529D02*
X80357888Y-53136529D01*
X68559991Y-103270000D02*
X62909990Y-103270000D01*
X90521009Y-149614992D02*
X79821005Y-149614992D01*
X71215003Y-149994529D02*
X74214997Y-149994529D01*
X192399201Y-58104527D02*
G75*
G02X189149199Y-58104527I-1625001J0D01*
G01*
X208097000Y-71220000D02*
X202509000Y-71220000D01*
X202803005Y-68426000D02*
G75*
G02X207802995Y-68426000I2499995J0D01*
G01*
X71977993Y-89151994D02*
X71977993Y-108152007D01*
X207802995Y-68426000D02*
G75*
G02X202803005Y-68426000I-2499995J0D01*
G01*
X79821005Y-143964991D02*
X90521009Y-143964991D01*
X90521009Y-143964991D02*
X90521009Y-149614992D01*
X208097000Y-65632000D02*
X208097000Y-71220000D01*
X71215003Y-150992993D02*
X71215003Y-149994529D01*
X90521009Y-143864000D02*
X95702000Y-143864000D01*
X95702000Y-143864000D02*
X95702000Y-146404000D01*
X81994305Y-112300386D02*
X72994323Y-112300386D01*
X87028712Y-125600384D02*
X96028694Y-125600384D01*
X94116011Y-136965005D02*
X97766004Y-136965005D01*
X96028694Y-125600384D02*
X96028694Y-112300386D01*
X72994323Y-125600384D02*
X81994305Y-125600384D01*
X202311466Y-58948999D02*
G75*
G02X200911464Y-58948999I-700001J0D01*
G01*
X131944232Y-58036600D02*
G75*
G02X128694230Y-58036600I-1625001J0D01*
G01*
X62909990Y-69669991D02*
X68559991Y-69669991D01*
X62909990Y-103270000D02*
X62909990Y-69669991D01*
X207294126Y-146986529D02*
G75*
G02X202294136Y-146986529I-2499995J0D01*
G01*
X112687130Y-84509529D02*
X112687130Y-125309529D01*
X68559991Y-69669991D02*
X68559991Y-103270000D01*
X97766004Y-138965001D02*
X93615987Y-138965001D01*
X112687130Y-125309529D02*
X100187129Y-125309529D01*
X69315007Y-149992995D02*
X69315007Y-145793003D01*
X97766004Y-136965005D02*
X97766004Y-138965001D01*
X81994305Y-125600384D02*
X81994305Y-112300386D01*
X139059201Y-58104527D02*
G75*
G02X135809199Y-58104527I-1625001J0D01*
G01*
X202311466Y-51949000D02*
G75*
G02X200911464Y-51949000I-700001J0D01*
G01*
X200911464Y-51949000D02*
G75*
G02X202311466Y-51949000I700001J0D01*
G01*
X74214997Y-149994529D02*
X74214997Y-150992993D01*
X100187129Y-84509529D02*
X112687130Y-84509529D01*
X135809200Y-58104527D02*
G75*
G02X139059200Y-58104527I1625000J0D01*
G01*
X100187129Y-125309529D02*
X100187129Y-84509529D01*
X69315007Y-145793003D02*
X76114993Y-145793003D01*
X96028694Y-112300386D02*
X87028712Y-112300386D01*
X200911464Y-58948999D02*
G75*
G02X202311466Y-58948999I700001J0D01*
G01*
X202509000Y-71220000D02*
X202509000Y-65632000D01*
X67054000Y-128120001D02*
X67054000Y-109620012D01*
X117264231Y-58036600D02*
G75*
G02X120514231Y-58036600I1625000J0D01*
G01*
X129373685Y-128994532D02*
G75*
G02X128623673Y-128994532I-375006J0D01*
G01*
X130923695Y-128994532D02*
G75*
G02X131673705Y-128994532I375005J0D01*
G01*
X104072130Y-88314528D02*
G75*
G02X105702130Y-88314528I815000J0D01*
G01*
X131379232Y-61086599D02*
G75*
G02X133479232Y-61086599I1050000J0D01*
G01*
X181189200Y-64454527D02*
G75*
G02X182579200Y-64454527I695000J0D01*
G01*
X133479233Y-61086599D02*
G75*
G02X131379231Y-61086599I-1050001J0D01*
G01*
X104072130Y-121504530D02*
G75*
G02X105702130Y-121504530I815000J0D01*
G01*
X103452129Y-87174529D02*
G75*
G02X103452129Y-85224529I0J975000D01*
G01*
X188244200Y-54044528D02*
G75*
G02X189764202Y-54044528I760001J0D01*
G01*
X190199200Y-64454527D02*
G75*
G02X188809200Y-64454527I-695000J0D01*
G01*
X191469200Y-66994527D02*
G75*
G02X190079200Y-66994527I-695000J0D01*
G01*
X105702130Y-88314528D02*
G75*
G02X104072130Y-88314528I-815000J0D01*
G01*
X190784200Y-54044528D02*
G75*
G02X192304202Y-54044528I760001J0D01*
G01*
X190079200Y-66994527D02*
G75*
G02X191469200Y-66994527I695000J0D01*
G01*
X181914200Y-54044528D02*
G75*
G02X180394198Y-54044528I-760001J0D01*
G01*
X185119200Y-64454527D02*
G75*
G02X183729200Y-64454527I-695000J0D01*
G01*
X60310135Y-146986529D02*
G75*
G02X65310125Y-146986529I2499995J0D01*
G01*
X135729200Y-61154526D02*
G75*
G02X133629198Y-61154526I-1050001J0D01*
G01*
X186389200Y-66994527D02*
G75*
G02X184999200Y-66994527I-695000J0D01*
G01*
X133629199Y-61154526D02*
G75*
G02X135729199Y-61154526I1050000J0D01*
G01*
X194579202Y-61154526D02*
G75*
G02X192479200Y-61154526I-1050001J0D01*
G01*
X188929200Y-66994527D02*
G75*
G02X187539200Y-66994527I-695000J0D01*
G01*
X92757403Y-145134000D02*
G75*
G02X91106403Y-145134000I-825500J0D01*
G01*
X186269200Y-64454527D02*
G75*
G02X187659200Y-64454527I695000J0D01*
G01*
X84716500Y-145515000D02*
G75*
G02X83065500Y-145515000I-825500J0D01*
G01*
X83065500Y-148055000D02*
G75*
G02X84716500Y-148055000I825500J0D01*
G01*
X128623673Y-128994532D02*
G75*
G02X129373685Y-128994532I375006J0D01*
G01*
X108837827Y-148394532D02*
G75*
G02X109587837Y-148394532I375005J0D01*
G01*
X111887858Y-148394532D02*
G75*
G02X111137846Y-148394532I-375006J0D01*
G01*
X131673706Y-128994532D02*
G75*
G02X130923694Y-128994532I-375006J0D01*
G01*
X65310125Y-146986529D02*
G75*
G02X60310135Y-146986529I-2499995J0D01*
G01*
X103452129Y-124594530D02*
G75*
G02X103452129Y-122644530I0J975000D01*
G01*
X104802129Y-122644531D02*
G75*
G02X104802129Y-124594529I0J-974999D01*
G01*
X189764202Y-54044528D02*
G75*
G02X188244200Y-54044528I-760001J0D01*
G01*
X182579200Y-64454527D02*
G75*
G02X181189200Y-64454527I-695000J0D01*
G01*
X187659200Y-64454527D02*
G75*
G02X186269200Y-64454527I-695000J0D01*
G01*
X180394198Y-54044528D02*
G75*
G02X181914200Y-54044528I760001J0D01*
G01*
X111137846Y-148394532D02*
G75*
G02X111887858Y-148394532I375006J0D01*
G01*
X180039200Y-64454527D02*
G75*
G02X178649200Y-64454527I-695000J0D01*
G01*
X104802129Y-85224530D02*
G75*
G02X104802129Y-87174528I0J-974999D01*
G01*
X192304202Y-54044528D02*
G75*
G02X190784200Y-54044528I-760001J0D01*
G01*
X178649200Y-64454527D02*
G75*
G02X180039200Y-64454527I695000J0D01*
G01*
X115729230Y-61086599D02*
G75*
G02X117829230Y-61086599I1050000J0D01*
G01*
X91106403Y-145134000D02*
G75*
G02X92757403Y-145134000I825500J0D01*
G01*
X192479201Y-61154526D02*
G75*
G02X194579201Y-61154526I1050000J0D01*
G01*
X80525500Y-145515000D02*
G75*
G02X82176500Y-145515000I825500J0D01*
G01*
X88145500Y-148055000D02*
G75*
G02X89796500Y-148055000I825500J0D01*
G01*
X80525500Y-148055000D02*
G75*
G02X82176500Y-148055000I825500J0D01*
G01*
X105702130Y-121504530D02*
G75*
G02X104072130Y-121504530I-815000J0D01*
G01*
X117829231Y-61086599D02*
G75*
G02X115729229Y-61086599I-1050001J0D01*
G01*
X183729200Y-64454527D02*
G75*
G02X185119200Y-64454527I695000J0D01*
G01*
X184999200Y-66994527D02*
G75*
G02X186389200Y-66994527I695000J0D01*
G01*
X187539200Y-66994527D02*
G75*
G02X188929200Y-66994527I695000J0D01*
G01*
X83065500Y-145515000D02*
G75*
G02X84716500Y-145515000I825500J0D01*
G01*
X87256500Y-145515000D02*
G75*
G02X85605500Y-145515000I-825500J0D01*
G01*
X85605500Y-145515000D02*
G75*
G02X87256500Y-145515000I825500J0D01*
G01*
X82176500Y-148055000D02*
G75*
G02X80525500Y-148055000I-825500J0D01*
G01*
X82176500Y-145515000D02*
G75*
G02X80525500Y-145515000I-825500J0D01*
G01*
X84716500Y-148055000D02*
G75*
G02X83065500Y-148055000I-825500J0D01*
G01*
X87256500Y-148055000D02*
G75*
G02X85605500Y-148055000I-825500J0D01*
G01*
X85605500Y-148055000D02*
G75*
G02X87256500Y-148055000I825500J0D01*
G01*
X188809200Y-64454527D02*
G75*
G02X190199200Y-64454527I695000J0D01*
G01*
X89796500Y-148055000D02*
G75*
G02X88145500Y-148055000I-825500J0D01*
G01*
X109587838Y-148394532D02*
G75*
G02X108837826Y-148394532I-375006J0D01*
G01*
X204411465Y-61648998D02*
X204411465Y-60448998D01*
X116654231Y-68646599D02*
X116654231Y-47306601D01*
X116654231Y-47306601D02*
X132554230Y-47306601D01*
X99630028Y-60188940D02*
X99630028Y-59668009D01*
X199211465Y-52298999D02*
X197211464Y-52298999D01*
X204011466Y-51098999D02*
X206011467Y-51098999D01*
X198811466Y-55649000D02*
X197211466Y-55649000D01*
X206011467Y-51098999D02*
X206011467Y-52298999D01*
X82113028Y-52115449D02*
X82113028Y-50215529D01*
X206011467Y-60448998D02*
X206011467Y-61648998D01*
X423615000Y-204046000D02*
X-14154000Y-204046000D01*
X423615000Y73449000D02*
X423615000Y-204046000D01*
X-14154000Y73449000D02*
X423615000Y73449000D01*
X198811466Y-54448998D02*
X198811466Y-55649000D01*
X206011467Y-61648998D02*
X204411465Y-61648998D01*
X81635508Y-50215529D02*
X81635508Y-52115449D01*
X177130326Y-68904529D02*
X165048074Y-68904529D01*
X-14154000Y-204046000D02*
X-14154000Y73449000D01*
X82113028Y-50215529D02*
X84012948Y-50215529D01*
X198311464Y-61548999D02*
X204411465Y-61548999D01*
X59802130Y-49544529D02*
X59802130Y-149994529D01*
X59802130Y-149994529D02*
X207802131Y-149994529D01*
X207802131Y-149994529D02*
X59802130Y-149994529D01*
X204011466Y-52298999D02*
X204011466Y-51098999D01*
X79735588Y-50215529D02*
X81635508Y-50215529D01*
X197211466Y-55649000D02*
X197211466Y-54448998D01*
X59802130Y-49544529D02*
X65372766Y-49544529D01*
X82958848Y-53136529D02*
X83390648Y-53136529D01*
X197211466Y-59848999D02*
X198811466Y-59848999D01*
X198811466Y-59848999D02*
X198811466Y-61049002D01*
X199211465Y-51098999D02*
X199211465Y-52298999D01*
X59802130Y-149994529D02*
X59802130Y-49544529D01*
X206011467Y-52298999D02*
X204011466Y-52298999D01*
X95172130Y-49544527D02*
X95172130Y-59731712D01*
X204411465Y-58199000D02*
X206011467Y-58199000D01*
X82958848Y-54040769D02*
X80789688Y-54040769D01*
X79735588Y-52115449D02*
X79735588Y-50215529D01*
X59802130Y-49544529D02*
X207802131Y-49544529D01*
X207802131Y-149994529D02*
X207802131Y-49544529D01*
X81635508Y-52115449D02*
X79735588Y-52115449D01*
X197211466Y-61049002D02*
X197211466Y-59848999D01*
X207802131Y-49544529D02*
X207802131Y-65632000D01*
X198311464Y-47548999D02*
X204911466Y-47548999D01*
X204911466Y-47548999D02*
X204911466Y-51098999D01*
X198311464Y-47548999D02*
X198311464Y-51098999D01*
X197211464Y-51098999D02*
X199211465Y-51098999D01*
X197211464Y-52298999D02*
X197211464Y-51098999D01*
X204411465Y-60448998D02*
X206011467Y-60448998D01*
X114666828Y-59706444D02*
X114666828Y-60188940D01*
X206011467Y-58199000D02*
X206011467Y-59398998D01*
X132554230Y-47306601D02*
X132554230Y-68646599D01*
X84012948Y-50215529D02*
X84012948Y-52115449D01*
X206011467Y-59398998D02*
X204411465Y-59398998D01*
X83390648Y-54914529D02*
X82958848Y-54914529D01*
X114666828Y-60188940D02*
X99630028Y-60188940D01*
X204411465Y-59398998D02*
X204411465Y-58199000D01*
X83390648Y-53136529D02*
X83390648Y-54914529D01*
X197211466Y-54448998D02*
X198811466Y-54448998D01*
X132554230Y-68646599D02*
X116654231Y-68646599D01*
X198811466Y-61049002D02*
X197211466Y-61049002D01*
X84012948Y-52115449D02*
X82113028Y-52115449D01*
X63017230Y-147486529D02*
X62603030Y-147486529D01*
X62560130Y-146486529D02*
X63060130Y-146486529D01*
X62310130Y-146779429D02*
X62603030Y-146486529D01*
X63060130Y-147486529D02*
X62560130Y-147486529D01*
X62560130Y-147486529D02*
X62310130Y-146986529D01*
X62310130Y-147193629D02*
X62310130Y-146779429D01*
X63310130Y-146486529D02*
X63310130Y-147486529D01*
X63310130Y-146861529D02*
X63310130Y-147111529D01*
X62310130Y-146986529D02*
X62560130Y-146486529D01*
X63310130Y-147486529D02*
X62310130Y-147486529D01*
X63060130Y-147486529D02*
X62560130Y-147486529D01*
X63310130Y-146986529D02*
G75*
G03X63310130Y-146986529I-500000J0D01*
G01*
X63226130Y-147361529D02*
X63060130Y-147486529D01*
X63310130Y-147111529D02*
X63226130Y-147361529D01*
X63226130Y-146611529D02*
X63310130Y-146861529D01*
X63310130Y-147193629D02*
X63017230Y-147486529D01*
X63310130Y-146779429D02*
X63310130Y-147193629D01*
X63017230Y-146486529D02*
X63310130Y-146779429D01*
X63060130Y-146486529D02*
X63226130Y-146611529D01*
X62394130Y-146611529D02*
X62560130Y-146486529D01*
X62603030Y-147486529D02*
X62310130Y-147193629D01*
X62310130Y-147486529D02*
X62310130Y-146486529D01*
X62603030Y-146486529D02*
X63017230Y-146486529D01*
X63310130Y-146986529D02*
X63060130Y-147486529D01*
X62310130Y-146486529D02*
X63310130Y-146486529D01*
X62310130Y-146861529D02*
X62394130Y-146611529D01*
X62560130Y-146486529D02*
X63060130Y-146486529D01*
X63060130Y-146486529D02*
X63310130Y-146986529D01*
X62310130Y-147111529D02*
X62310130Y-146861529D01*
X67903998Y-128120001D02*
X67903998Y-128620000D01*
X66604001Y-128620000D02*
X66604001Y-128120001D01*
X67825500Y-83920000D02*
G75*
G02X66174500Y-83920000I-825500J0D01*
G01*
X67825500Y-78840000D02*
G75*
G02X66174500Y-78840000I-825500J0D01*
G01*
X63634500Y-78840000D02*
G75*
G02X65285500Y-78840000I825500J0D01*
G01*
X65504003Y-128120001D02*
X64204006Y-128120001D01*
X64204006Y-128120001D02*
X64204006Y-127620002D01*
X67825500Y-71220000D02*
G75*
G02X66174500Y-71220000I-825500J0D01*
G01*
X65285500Y-71220000D02*
G75*
G02X63634500Y-71220000I-825500J0D01*
G01*
X65285500Y-76300000D02*
G75*
G02X63634500Y-76300000I-825500J0D01*
G01*
X67825500Y-76300000D02*
G75*
G02X66174500Y-76300000I-825500J0D01*
G01*
X63634500Y-76300000D02*
G75*
G02X65285500Y-76300000I825500J0D01*
G01*
X66174500Y-83920000D02*
G75*
G02X67825500Y-83920000I825500J0D01*
G01*
X63634500Y-71220000D02*
G75*
G02X65285500Y-71220000I825500J0D01*
G01*
X67903998Y-109120013D02*
X67903998Y-109620012D01*
X74615999Y-139814999D02*
X74116000Y-139814999D01*
X74615999Y-137415004D02*
X74615999Y-136115006D01*
X73540500Y-147293000D02*
G75*
G02X71889500Y-147293000I-825500J0D01*
G01*
X64204006Y-108619989D02*
X65504003Y-108619989D01*
X64204006Y-127620002D02*
X65504003Y-127620002D01*
X74116000Y-138515002D02*
X74615999Y-138515002D01*
X65285500Y-73760000D02*
G75*
G02X63634500Y-73760000I-825500J0D01*
G01*
X66604001Y-109620012D02*
X66604001Y-109120013D01*
X71889500Y-147293000D02*
G75*
G02X73540500Y-147293000I825500J0D01*
G01*
X95257500Y-144308500D02*
X95257500Y-145959500D01*
X74615999Y-138515002D02*
X74615999Y-139814999D01*
X74116000Y-139814999D02*
X74116000Y-138515002D01*
X93115988Y-138515002D02*
X93615987Y-138515002D01*
X74429500Y-147293000D02*
G75*
G02X76080500Y-147293000I825500J0D01*
G01*
X93615987Y-138515002D02*
X93615987Y-139814999D01*
X66174500Y-76300000D02*
G75*
G02X67825500Y-76300000I825500J0D01*
G01*
X95257500Y-145959500D02*
X93606500Y-145959500D01*
X93615987Y-139814999D02*
X93115988Y-139814999D01*
X93115988Y-139814999D02*
X93115988Y-138515002D01*
X64204006Y-109119988D02*
X64204006Y-108619989D01*
X66604001Y-128120001D02*
X67903998Y-128120001D01*
X65285500Y-78840000D02*
G75*
G02X63634500Y-78840000I-825500J0D01*
G01*
X93615987Y-136115006D02*
X94116011Y-136115006D01*
X94116011Y-136115006D02*
X94116011Y-137415004D01*
X94116011Y-137415004D02*
X93615987Y-137415004D01*
X76080500Y-147293000D02*
G75*
G02X74429500Y-147293000I-825500J0D01*
G01*
X65504003Y-127620002D02*
X65504003Y-128120001D01*
X93615987Y-137415004D02*
X93615987Y-136115006D01*
X93606500Y-144308500D02*
X95257500Y-144308500D01*
X71000500Y-146467500D02*
X69315007Y-146467500D01*
X71000500Y-148118500D02*
X71000500Y-146467500D01*
X67825500Y-73760000D02*
G75*
G02X66174500Y-73760000I-825500J0D01*
G01*
X93606500Y-145959500D02*
X93606500Y-144308500D01*
X88145500Y-144689500D02*
X89796500Y-144689500D01*
X89796500Y-144689500D02*
X89796500Y-146340500D01*
X89796500Y-146340500D02*
X88145500Y-146340500D01*
X63634500Y-73760000D02*
G75*
G02X65285500Y-73760000I825500J0D01*
G01*
X69315007Y-146467500D02*
X69315007Y-148118500D01*
X88145500Y-146340500D02*
X88145500Y-144689500D01*
X66604001Y-109120013D02*
X67903998Y-109120013D01*
X67903998Y-128620000D02*
X66604001Y-128620000D01*
X69315007Y-148118500D02*
X71000500Y-148118500D01*
X65504003Y-108619989D02*
X65504003Y-109119988D01*
X66174500Y-73760000D02*
G75*
G02X67825500Y-73760000I825500J0D01*
G01*
X67903998Y-109620012D02*
X66604001Y-109620012D01*
X66174500Y-71220000D02*
G75*
G02X67825500Y-71220000I825500J0D01*
G01*
X66174500Y-78840000D02*
G75*
G02X67825500Y-78840000I825500J0D01*
G01*
X65504003Y-109119988D02*
X64204006Y-109119988D01*
X130474229Y-53976601D02*
G75*
G02X131994231Y-53976601I760001J0D01*
G01*
X119754230Y-53976601D02*
G75*
G02X121274232Y-53976601I760001J0D01*
G01*
X123844233Y-64386600D02*
G75*
G02X125364229Y-64386600I759998J0D01*
G01*
X178324202Y-55824527D02*
G75*
G02X176804200Y-55824527I-760001J0D01*
G01*
X177854198Y-54044528D02*
G75*
G02X179374200Y-54044528I760001J0D01*
G01*
X121274232Y-53976601D02*
G75*
G02X119754230Y-53976601I-760001J0D01*
G01*
X167934200Y-54044528D02*
G75*
G02X166414198Y-54044528I-760001J0D01*
G01*
X161804202Y-55824527D02*
G75*
G02X160284200Y-55824527I-760001J0D01*
G01*
X122574233Y-66926600D02*
G75*
G02X124094229Y-66926600I759998J0D01*
G01*
X151184201Y-68444527D02*
G75*
G02X149084199Y-68444527I-1050001J0D01*
G01*
X165154201Y-68444527D02*
G75*
G02X163054199Y-68444527I-1050001J0D01*
G01*
X130194233Y-66926600D02*
G75*
G02X131714229Y-66926600I759998J0D01*
G01*
X113698438Y-51688983D02*
G75*
G02X115198440Y-51688983I750001J0D01*
G01*
X163054200Y-68444527D02*
G75*
G02X165154200Y-68444527I1050000J0D01*
G01*
X126634230Y-66926600D02*
G75*
G02X125114232Y-66926600I-759999J0D01*
G01*
X120284230Y-64386600D02*
G75*
G02X118764232Y-64386600I-759999J0D01*
G01*
X147824202Y-54044528D02*
G75*
G02X146304200Y-54044528I-760001J0D01*
G01*
X162824200Y-55824527D02*
G75*
G02X164344202Y-55824527I760001J0D01*
G01*
X127904230Y-64386600D02*
G75*
G02X126384232Y-64386600I-759999J0D01*
G01*
X126384233Y-64386600D02*
G75*
G02X127904229Y-64386600I759998J0D01*
G01*
X129174230Y-66926600D02*
G75*
G02X127654232Y-66926600I-759999J0D01*
G01*
X179124201Y-68444527D02*
G75*
G02X177024199Y-68444527I-1050001J0D01*
G01*
X160284200Y-55824527D02*
G75*
G02X161804202Y-55824527I760001J0D01*
G01*
X120034233Y-66926600D02*
G75*
G02X121554229Y-66926600I759998J0D01*
G01*
X136739200Y-64454527D02*
G75*
G02X138129200Y-64454527I695000J0D01*
G01*
X165394200Y-54044528D02*
G75*
G02X163874198Y-54044528I-760001J0D01*
G01*
X166414198Y-54044528D02*
G75*
G02X167934200Y-54044528I760001J0D01*
G01*
X148844200Y-54044528D02*
G75*
G02X150364202Y-54044528I760001J0D01*
G01*
X152434198Y-55824527D02*
G75*
G02X153954200Y-55824527I760001J0D01*
G01*
X164344202Y-55824527D02*
G75*
G02X162824200Y-55824527I-760001J0D01*
G01*
X137424200Y-54044528D02*
G75*
G02X135904198Y-54044528I-760001J0D01*
G01*
X139964200Y-54044528D02*
G75*
G02X138444198Y-54044528I-760001J0D01*
G01*
X124094230Y-66926600D02*
G75*
G02X122574232Y-66926600I-759999J0D01*
G01*
X125364230Y-64386600D02*
G75*
G02X123844232Y-64386600I-759999J0D01*
G01*
X121554230Y-66926600D02*
G75*
G02X120034232Y-66926600I-759999J0D01*
G01*
X125114233Y-66926600D02*
G75*
G02X126634229Y-66926600I759998J0D01*
G01*
X179374200Y-54044528D02*
G75*
G02X177854198Y-54044528I-760001J0D01*
G01*
X138444198Y-54044528D02*
G75*
G02X139964200Y-54044528I760001J0D01*
G01*
X122824230Y-64386600D02*
G75*
G02X121304232Y-64386600I-759999J0D01*
G01*
X117214230Y-53976601D02*
G75*
G02X118734232Y-53976601I760001J0D01*
G01*
X131714230Y-66926600D02*
G75*
G02X130194232Y-66926600I-759999J0D01*
G01*
X121304233Y-64386600D02*
G75*
G02X122824229Y-64386600I759998J0D01*
G01*
X128924233Y-64386600D02*
G75*
G02X130444229Y-64386600I759998J0D01*
G01*
X127654233Y-66926600D02*
G75*
G02X129174229Y-66926600I759998J0D01*
G01*
X129454231Y-53976601D02*
G75*
G02X127934229Y-53976601I-760001J0D01*
G01*
X127934229Y-53976601D02*
G75*
G02X129454231Y-53976601I760001J0D01*
G01*
X175784202Y-55824527D02*
G75*
G02X174264200Y-55824527I-760001J0D01*
G01*
X115198440Y-52488880D02*
G75*
G02X113698438Y-52488880I-750001J0D01*
G01*
X118734232Y-53976601D02*
G75*
G02X117214230Y-53976601I-760001J0D01*
G01*
X130444230Y-64386600D02*
G75*
G02X128924232Y-64386600I-759999J0D01*
G01*
X118764233Y-64386600D02*
G75*
G02X120284229Y-64386600I759998J0D01*
G01*
X177024200Y-68444527D02*
G75*
G02X179124200Y-68444527I1050000J0D01*
G01*
X163874198Y-54044528D02*
G75*
G02X165394200Y-54044528I760001J0D01*
G01*
X150364202Y-54044528D02*
G75*
G02X148844200Y-54044528I-760001J0D01*
G01*
X149894198Y-55824527D02*
G75*
G02X151414200Y-55824527I760001J0D01*
G01*
X135904198Y-54044528D02*
G75*
G02X137424200Y-54044528I760001J0D01*
G01*
X151414200Y-55824527D02*
G75*
G02X149894198Y-55824527I-760001J0D01*
G01*
X153954200Y-55824527D02*
G75*
G02X152434198Y-55824527I-760001J0D01*
G01*
X174264200Y-55824527D02*
G75*
G02X175784202Y-55824527I760001J0D01*
G01*
X146304200Y-54044528D02*
G75*
G02X147824202Y-54044528I760001J0D01*
G01*
X149084200Y-68444527D02*
G75*
G02X151184200Y-68444527I1050000J0D01*
G01*
X176804200Y-55824527D02*
G75*
G02X178324202Y-55824527I760001J0D01*
G01*
X131994231Y-53976601D02*
G75*
G02X130474229Y-53976601I-760001J0D01*
G01*
X97352131Y-145869528D02*
X97352131Y-145169530D01*
X97802130Y-140544530D02*
X97802130Y-147994528D01*
X97802130Y-147994528D02*
X104652129Y-147994528D01*
X104652129Y-140544530D02*
X97802130Y-140544530D01*
X104652129Y-147994528D02*
X104652129Y-140544530D01*
X67856886Y-54040769D02*
X65372766Y-54040769D01*
X65302124Y-63044530D02*
G75*
G02X60302134Y-63044530I-2499995J0D01*
G01*
X97352131Y-143369528D02*
X97352131Y-142669530D01*
X64302131Y-63044530D02*
G75*
G02X61302127Y-63044530I-1500002J0D01*
G01*
X206294131Y-146986529D02*
G75*
G02X203294131Y-146986529I-1500000J0D01*
G01*
X97802130Y-145869528D02*
X97352131Y-145869528D01*
X203803001Y-68426000D02*
G75*
G02X206802999Y-68426000I1499999J0D01*
G01*
X65596129Y-60250530D02*
X65596129Y-65838530D01*
X202000131Y-144192529D02*
X207802131Y-144192529D01*
X95172130Y-61837339D02*
X95172130Y-66731714D01*
X202000131Y-149994529D02*
X202000131Y-144192529D01*
X95172130Y-49544529D02*
X89472132Y-49544529D01*
X89472132Y-59731712D02*
X89472132Y-49544527D01*
X77873768Y-48391809D02*
X85874768Y-48391809D01*
X85874768Y-54040769D02*
X83390648Y-54040769D01*
X97802130Y-143369528D02*
X97352131Y-143369528D01*
X97802130Y-145169530D02*
X97352131Y-145169530D01*
X94362584Y-68394527D02*
X90281675Y-68394527D01*
X89472132Y-66731714D02*
X89472132Y-61837339D01*
X80357888Y-54040769D02*
X77873768Y-54040769D01*
X203294131Y-146986529D02*
G75*
G02X206294131Y-146986529I1500000J0D01*
G01*
X206803000Y-68426000D02*
G75*
G02X203803000Y-68426000I-1500000J0D01*
G01*
X77873768Y-54040769D02*
X77873768Y-48391809D01*
X85874768Y-48391809D02*
X85874768Y-54040769D01*
X61302127Y-63044530D02*
G75*
G02X64302131Y-63044530I1500002J0D01*
G01*
X60008129Y-60250530D02*
X65596129Y-60250530D01*
X65596129Y-65838530D02*
X60008129Y-65838530D01*
X64310130Y-146986529D02*
G75*
G02X61310130Y-146986529I-1500000J0D01*
G01*
X60302134Y-63044530D02*
G75*
G02X65302124Y-63044530I2499995J0D01*
G01*
X60008129Y-65838530D02*
X60008129Y-60250530D01*
X61310130Y-146986529D02*
G75*
G02X64310130Y-146986529I1500000J0D01*
G01*
X97802130Y-142669530D02*
X97352131Y-142669530D01*
X100687131Y-102184528D02*
X100687131Y-101284527D01*
X101187130Y-102554527D02*
X103587130Y-102554527D01*
X74615999Y-136115006D02*
X75115998Y-136115006D01*
X103087131Y-112714527D02*
X103087131Y-113614528D01*
X100687131Y-91124527D02*
X103087131Y-91124527D01*
X103087131Y-91124527D02*
X103087131Y-92024528D01*
X103087131Y-92024528D02*
X100687131Y-92024528D01*
X101187130Y-92394527D02*
X103587130Y-92394527D01*
X101187130Y-93294528D02*
X101187130Y-92394527D01*
X103087131Y-102184528D02*
X100687131Y-102184528D01*
X103587130Y-103454528D02*
X101187130Y-103454528D01*
X103087131Y-104724528D02*
X100687131Y-104724528D01*
X103087131Y-106364527D02*
X103087131Y-107264528D01*
X100687131Y-92024528D02*
X100687131Y-91124527D01*
X103587130Y-93294528D02*
X101187130Y-93294528D01*
X103587130Y-102554527D02*
X103587130Y-103454528D01*
X100687131Y-103824527D02*
X103087131Y-103824527D01*
X100687131Y-107264528D02*
X100687131Y-106364527D01*
X103087131Y-107264528D02*
X100687131Y-107264528D01*
X100687131Y-112714527D02*
X103087131Y-112714527D01*
X113698438Y-57188997D02*
G75*
G02X115198440Y-57188997I750001J0D01*
G01*
X103087131Y-93664527D02*
X103087131Y-94564528D01*
X115198440Y-58988892D02*
G75*
G02X113698438Y-58988892I-750001J0D01*
G01*
X96276131Y-60784527D02*
G75*
G02X94168129Y-60784527I-1054001J0D01*
G01*
X94168129Y-60784527D02*
G75*
G02X96276131Y-60784527I1054001J0D01*
G01*
X96276131Y-67784528D02*
G75*
G02X94168129Y-67784528I-1054001J0D01*
G01*
X94168129Y-67784528D02*
G75*
G02X96276131Y-67784528I1054001J0D01*
G01*
X100687131Y-93664527D02*
X103087131Y-93664527D01*
X93036130Y-61284529D02*
G75*
G02X91608132Y-61284529I-713999J0D01*
G01*
X91608132Y-63284527D02*
G75*
G02X93036130Y-63284527I713999J0D01*
G01*
X101187130Y-103454528D02*
X101187130Y-102554527D01*
X90476131Y-67784528D02*
G75*
G02X88368133Y-67784528I-1053999J0D01*
G01*
X88368134Y-67784528D02*
G75*
G02X90476130Y-67784528I1053998J0D01*
G01*
X90476131Y-60784527D02*
G75*
G02X88368133Y-60784527I-1053999J0D01*
G01*
X103087131Y-103824527D02*
X103087131Y-104724528D01*
X88368134Y-60784527D02*
G75*
G02X90476130Y-60784527I1053998J0D01*
G01*
X91608132Y-61284529D02*
G75*
G02X93036130Y-61284529I713999J0D01*
G01*
X93036130Y-63284527D02*
G75*
G02X91608132Y-63284527I-713999J0D01*
G01*
X93036130Y-67284527D02*
G75*
G02X91608132Y-67284527I-713999J0D01*
G01*
X100687131Y-94564528D02*
X100687131Y-93664527D01*
X91608132Y-65284528D02*
G75*
G02X93036130Y-65284528I713999J0D01*
G01*
X79519688Y-53314329D02*
G75*
G02X80230888Y-53314329I355600J0D01*
G01*
X84178048Y-50619389D02*
G75*
G02X85270248Y-50619389I546100J0D01*
G01*
X100687131Y-104724528D02*
X100687131Y-103824527D01*
X103087131Y-88584527D02*
X103087131Y-89484528D01*
X103587130Y-92394527D02*
X103587130Y-93294528D01*
X103087131Y-89484528D02*
X100687131Y-89484528D01*
X100687131Y-89484528D02*
X100687131Y-88584527D01*
X103087131Y-94564528D02*
X100687131Y-94564528D01*
X100687131Y-101284527D02*
X103087131Y-101284527D01*
X100687131Y-106364527D02*
X103087131Y-106364527D01*
X75115998Y-136115006D02*
X75115998Y-137415004D01*
X83517648Y-53314329D02*
G75*
G02X84228848Y-53314329I355600J0D01*
G01*
X103087131Y-113614528D02*
X100687131Y-113614528D01*
X93036130Y-65284528D02*
G75*
G02X91608132Y-65284528I-713999J0D01*
G01*
X84228848Y-53314329D02*
G75*
G02X83517648Y-53314329I-355600J0D01*
G01*
X80230888Y-53314329D02*
G75*
G02X79519688Y-53314329I-355600J0D01*
G01*
X75115998Y-137415004D02*
X74615999Y-137415004D01*
X91608132Y-67284527D02*
G75*
G02X93036130Y-67284527I713999J0D01*
G01*
X85270248Y-51711589D02*
G75*
G02X84178048Y-51711589I-546100J0D01*
G01*
X100687131Y-88584527D02*
X103087131Y-88584527D01*
X100687131Y-113614528D02*
X100687131Y-112714527D01*
X103087131Y-101284527D02*
X103087131Y-102184528D01*
X162139200Y-66994527D02*
G75*
G02X163529200Y-66994527I695000J0D01*
G01*
X141939200Y-66994527D02*
G75*
G02X140549200Y-66994527I-695000J0D01*
G01*
X148169200Y-66994527D02*
G75*
G02X149559200Y-66994527I695000J0D01*
G01*
X146899200Y-64454527D02*
G75*
G02X148289200Y-64454527I695000J0D01*
G01*
X139279200Y-64454527D02*
G75*
G02X140669200Y-64454527I695000J0D01*
G01*
X160869200Y-64454527D02*
G75*
G02X162259200Y-64454527I695000J0D01*
G01*
X158329200Y-64454527D02*
G75*
G02X159719200Y-64454527I695000J0D01*
G01*
X171029200Y-66994527D02*
G75*
G02X172419200Y-66994527I695000J0D01*
G01*
X153369200Y-66994527D02*
G75*
G02X151979200Y-66994527I-695000J0D01*
G01*
X140669200Y-64454527D02*
G75*
G02X139279200Y-64454527I-695000J0D01*
G01*
X162259200Y-64454527D02*
G75*
G02X160869200Y-64454527I-695000J0D01*
G01*
X149559200Y-66994527D02*
G75*
G02X148169200Y-66994527I-695000J0D01*
G01*
X182459200Y-66994527D02*
G75*
G02X183849200Y-66994527I695000J0D01*
G01*
X141819200Y-64454527D02*
G75*
G02X143209200Y-64454527I695000J0D01*
G01*
X173689200Y-64454527D02*
G75*
G02X172299200Y-64454527I-695000J0D01*
G01*
X160989200Y-66994527D02*
G75*
G02X159599200Y-66994527I-695000J0D01*
G01*
X183849200Y-66994527D02*
G75*
G02X182459200Y-66994527I-695000J0D01*
G01*
X164679200Y-64454527D02*
G75*
G02X166069200Y-64454527I695000J0D01*
G01*
X151979200Y-66994527D02*
G75*
G02X153369200Y-66994527I695000J0D01*
G01*
X158449200Y-66994527D02*
G75*
G02X157059200Y-66994527I-695000J0D01*
G01*
X152099200Y-64454527D02*
G75*
G02X150709200Y-64454527I-695000J0D01*
G01*
X144479200Y-66994527D02*
G75*
G02X143089200Y-66994527I-695000J0D01*
G01*
X150709200Y-64454527D02*
G75*
G02X152099200Y-64454527I695000J0D01*
G01*
X138129200Y-64454527D02*
G75*
G02X136739200Y-64454527I-695000J0D01*
G01*
X181309200Y-66994527D02*
G75*
G02X179919200Y-66994527I-695000J0D01*
G01*
X148289200Y-64454527D02*
G75*
G02X146899200Y-64454527I-695000J0D01*
G01*
X143089200Y-66994527D02*
G75*
G02X144479200Y-66994527I695000J0D01*
G01*
X154639200Y-64454527D02*
G75*
G02X153249200Y-64454527I-695000J0D01*
G01*
X174959200Y-66994527D02*
G75*
G02X173569200Y-66994527I-695000J0D01*
G01*
X179919200Y-66994527D02*
G75*
G02X181309200Y-66994527I695000J0D01*
G01*
X167339200Y-66994527D02*
G75*
G02X165949200Y-66994527I-695000J0D01*
G01*
X165949200Y-66994527D02*
G75*
G02X167339200Y-66994527I695000J0D01*
G01*
X169879200Y-66994527D02*
G75*
G02X168489200Y-66994527I-695000J0D01*
G01*
X173569200Y-66994527D02*
G75*
G02X174959200Y-66994527I695000J0D01*
G01*
X176109200Y-66994527D02*
G75*
G02X177499200Y-66994527I695000J0D01*
G01*
X157179200Y-64454527D02*
G75*
G02X155789200Y-64454527I-695000J0D01*
G01*
X144359200Y-64454527D02*
G75*
G02X145749200Y-64454527I695000J0D01*
G01*
X157059200Y-66994527D02*
G75*
G02X158449200Y-66994527I695000J0D01*
G01*
X140549200Y-66994527D02*
G75*
G02X141939200Y-66994527I695000J0D01*
G01*
X155789200Y-64454527D02*
G75*
G02X157179200Y-64454527I695000J0D01*
G01*
X159599200Y-66994527D02*
G75*
G02X160989200Y-66994527I695000J0D01*
G01*
X145749200Y-64454527D02*
G75*
G02X144359200Y-64454527I-695000J0D01*
G01*
X145629200Y-66994527D02*
G75*
G02X147019200Y-66994527I695000J0D01*
G01*
X169759200Y-64454527D02*
G75*
G02X171149200Y-64454527I695000J0D01*
G01*
X171149200Y-64454527D02*
G75*
G02X169759200Y-64454527I-695000J0D01*
G01*
X168609200Y-64454527D02*
G75*
G02X167219200Y-64454527I-695000J0D01*
G01*
X167219200Y-64454527D02*
G75*
G02X168609200Y-64454527I695000J0D01*
G01*
X163529200Y-66994527D02*
G75*
G02X162139200Y-66994527I-695000J0D01*
G01*
X159719200Y-64454527D02*
G75*
G02X158329200Y-64454527I-695000J0D01*
G01*
X138009200Y-66994527D02*
G75*
G02X139399200Y-66994527I695000J0D01*
G01*
X147019200Y-66994527D02*
G75*
G02X145629200Y-66994527I-695000J0D01*
G01*
X143209200Y-64454527D02*
G75*
G02X141819200Y-64454527I-695000J0D01*
G01*
X153249200Y-64454527D02*
G75*
G02X154639200Y-64454527I695000J0D01*
G01*
X166069200Y-64454527D02*
G75*
G02X164679200Y-64454527I-695000J0D01*
G01*
X139399200Y-66994527D02*
G75*
G02X138009200Y-66994527I-695000J0D01*
G01*
X174839200Y-64454527D02*
G75*
G02X176229200Y-64454527I695000J0D01*
G01*
X168489200Y-66994527D02*
G75*
G02X169879200Y-66994527I695000J0D01*
G01*
X172419200Y-66994527D02*
G75*
G02X171029200Y-66994527I-695000J0D01*
G01*
X177499200Y-66994527D02*
G75*
G02X176109200Y-66994527I-695000J0D01*
G01*
X176229200Y-64454527D02*
G75*
G02X174839200Y-64454527I-695000J0D01*
G01*
X154519200Y-66994527D02*
G75*
G02X155909200Y-66994527I695000J0D01*
G01*
X172299200Y-64454527D02*
G75*
G02X173689200Y-64454527I695000J0D01*
G01*
X155909200Y-66994527D02*
G75*
G02X154519200Y-66994527I-695000J0D01*
G01*
X114666828Y-48377940D02*
X114666828Y-50971430D01*
X193654199Y-68904529D02*
X179018074Y-68904529D01*
X115198489Y-57188997D02*
X115198489Y-58988892D01*
X100698467Y-57188997D02*
X100698467Y-58988892D01*
X198311464Y-55649000D02*
X198311464Y-59848999D01*
X163160326Y-68904529D02*
X151078074Y-68904529D01*
X134554200Y-68904529D02*
X134554200Y-47304526D01*
X204911466Y-59398998D02*
X204911466Y-60448998D01*
X63634500Y-101700000D02*
G75*
G02X65285500Y-101700000I825500J0D01*
G01*
X67825500Y-101700000D02*
G75*
G02X66174500Y-101700000I-825500J0D01*
G01*
X115198489Y-51688983D02*
X115198489Y-52488880D01*
X99198368Y-51688983D02*
X99198368Y-52488880D01*
X100698418Y-52488880D02*
G75*
G02X99198416Y-52488880I-750001J0D01*
G01*
X114666828Y-53206430D02*
X114666828Y-56471445D01*
X99630028Y-48377940D02*
X114666828Y-48377940D01*
X204911466Y-52298999D02*
X204911466Y-58199000D01*
X66174500Y-101700000D02*
G75*
G02X67825500Y-101700000I825500J0D01*
G01*
X198311464Y-52298999D02*
X198311464Y-54448998D01*
X113698390Y-51688983D02*
X113698390Y-52488880D01*
X100698467Y-51688983D02*
X100698467Y-52488880D01*
X99198416Y-51688983D02*
G75*
G02X100698418Y-51688983I750001J0D01*
G01*
X99198368Y-57188997D02*
X99198368Y-58988892D01*
X100698418Y-58988892D02*
G75*
G02X99198416Y-58988892I-750001J0D01*
G01*
X99630028Y-56509880D02*
X99630028Y-53167997D01*
X149190326Y-68904529D02*
X134554200Y-68904529D01*
X134554200Y-47304526D02*
X193654199Y-47304526D01*
X113698390Y-57188997D02*
X113698390Y-58988892D01*
X99198416Y-57188997D02*
G75*
G02X100698418Y-57188997I750001J0D01*
G01*
X193654199Y-47304526D02*
X193654199Y-68904529D01*
X99630028Y-51009863D02*
X99630028Y-48377940D01*
X198311464Y-61049002D02*
X198311464Y-61548999D01*
X73373766Y-48391809D02*
X73373766Y-54040769D01*
X73373766Y-54040769D02*
X70889646Y-54040769D01*
X68288686Y-53136529D02*
X68288686Y-54914529D01*
X71677046Y-50619389D02*
X71677046Y-51711589D01*
X68288686Y-54914529D02*
X67856886Y-54914529D01*
X67069486Y-51711589D02*
G75*
G02X65977286Y-51711589I-546100J0D01*
G01*
X71677046Y-50619389D02*
G75*
G02X72769246Y-50619389I546100J0D01*
G01*
X67729886Y-53314329D02*
G75*
G02X67018686Y-53314329I-355600J0D01*
G01*
X67856886Y-53136529D02*
X68288686Y-53136529D01*
X65977286Y-50619389D02*
G75*
G02X67069486Y-50619389I546100J0D01*
G01*
X65977286Y-50619389D02*
X65977286Y-51711589D01*
X72769246Y-51711589D02*
G75*
G02X71677046Y-51711589I-546100J0D01*
G01*
X67069486Y-50619389D02*
X67069486Y-51711589D01*
X72769246Y-50619389D02*
X72769246Y-51711589D01*
X67018686Y-53314329D02*
G75*
G02X67729886Y-53314329I355600J0D01*
G01*
X71727846Y-53314329D02*
G75*
G02X71016646Y-53314329I-355600J0D01*
G01*
X71016646Y-53314329D02*
G75*
G02X71727846Y-53314329I355600J0D01*
G01*
X65372766Y-54040769D02*
X65372766Y-48391809D01*
X65372766Y-48391809D02*
X73373766Y-48391809D01*
X93115988Y-138965001D02*
X74615999Y-138965001D01*
X70466007Y-138965001D02*
X70466007Y-136965005D01*
X67054000Y-104969996D02*
X65054004Y-104969996D01*
X193654199Y-49544529D02*
X198311464Y-49544529D01*
X132554230Y-49544529D02*
X134554200Y-49544529D01*
X73373766Y-49544529D02*
X77873768Y-49544529D01*
X85270248Y-50619389D02*
X85270248Y-51711589D01*
X65054004Y-132269993D02*
X67054000Y-132269993D01*
X75115998Y-136965005D02*
X93616012Y-136965005D01*
X84178048Y-50619389D02*
X84178048Y-51711589D01*
X103452129Y-85224527D02*
X104802129Y-85224527D01*
X79570488Y-50619389D02*
X79570488Y-51711589D01*
X79570488Y-51711589D02*
G75*
G02X78478288Y-51711589I-546100J0D01*
G01*
X104802129Y-122644528D02*
X103452129Y-122644528D01*
X104802129Y-124594529D02*
X103452129Y-124594529D01*
X74116000Y-138965001D02*
X70466007Y-138965001D01*
X65054004Y-104969996D02*
X65054004Y-108619989D01*
X204911466Y-49544529D02*
X207802131Y-49544529D01*
X65054004Y-109119988D02*
X65054004Y-127620002D01*
X207802131Y-68360278D02*
X207802131Y-68491720D01*
X85874768Y-49544529D02*
X89472132Y-49544529D01*
X207802131Y-71220000D02*
X207802131Y-149994529D01*
X114641428Y-49544529D02*
X116654231Y-49544529D01*
X104802129Y-87174530D02*
X103452129Y-87174530D01*
X70466007Y-136965005D02*
X74615999Y-136965005D01*
X65054004Y-128120001D02*
X65054004Y-132269993D01*
X67054000Y-132269993D02*
X67054000Y-128620000D01*
X95172130Y-49544529D02*
X99630028Y-49544529D01*
X78478288Y-50619389D02*
X78478288Y-51711589D01*
X67054000Y-109120013D02*
X67054000Y-104969996D01*
X78478288Y-50619389D02*
G75*
G02X79570488Y-50619389I546100J0D01*
G01*
X70889646Y-54914529D02*
X70457846Y-54914529D01*
X70457846Y-54914529D02*
X70457846Y-53136529D01*
X69612026Y-50215529D02*
X71511946Y-50215529D01*
X71511946Y-50215529D02*
X71511946Y-52115449D01*
X69612026Y-52115449D02*
X69612026Y-50215529D01*
X63310130Y-146986529D02*
X62810130Y-147486529D01*
X63310130Y-147486529D02*
X62310130Y-147486529D01*
X67234586Y-50215529D02*
X69134506Y-50215529D01*
X69134506Y-50215529D02*
X69134506Y-52115449D01*
X67234586Y-52115449D02*
X67234586Y-50215529D01*
X70457846Y-54040769D02*
X68288686Y-54040769D01*
X62810130Y-146486529D02*
X63310130Y-147486529D01*
X62310130Y-146986529D02*
X62810130Y-146486529D01*
X62810130Y-146486529D02*
X62810130Y-147486529D01*
X62310130Y-147486529D02*
X62810130Y-146486529D01*
X62310130Y-146986529D02*
X63310130Y-146986529D01*
X62560130Y-147486529D02*
X62394130Y-147361529D01*
X62810130Y-147486529D02*
X62310130Y-146986529D01*
X69134506Y-52115449D02*
X67234586Y-52115449D01*
X62394130Y-147361529D02*
X62310130Y-147111529D01*
X67856886Y-54914529D02*
X67856886Y-53136529D01*
X70457846Y-53136529D02*
X70889646Y-53136529D01*
X71511946Y-52115449D02*
X69612026Y-52115449D01*
X70889646Y-53136529D02*
X70889646Y-54914529D01*
X62810130Y-146486529D02*
X63310130Y-146986529D01*
X66174500Y-99160000D02*
G75*
G02X67825500Y-99160000I825500J0D01*
G01*
X65285500Y-94080000D02*
G75*
G02X63634500Y-94080000I-825500J0D01*
G01*
X63634500Y-99160000D02*
G75*
G02X65285500Y-99160000I825500J0D01*
G01*
X63634500Y-96620000D02*
G75*
G02X65285500Y-96620000I825500J0D01*
G01*
X67825500Y-94080000D02*
G75*
G02X66174500Y-94080000I-825500J0D01*
G01*
X65285500Y-99160000D02*
G75*
G02X63634500Y-99160000I-825500J0D01*
G01*
X67825500Y-89000000D02*
G75*
G02X66174500Y-89000000I-825500J0D01*
G01*
X67825500Y-91540000D02*
G75*
G02X66174500Y-91540000I-825500J0D01*
G01*
X66174500Y-86460000D02*
G75*
G02X67825500Y-86460000I825500J0D01*
G01*
X66174500Y-94080000D02*
G75*
G02X67825500Y-94080000I825500J0D01*
G01*
X65285500Y-83920000D02*
G75*
G02X63634500Y-83920000I-825500J0D01*
G01*
X63634500Y-83920000D02*
G75*
G02X65285500Y-83920000I825500J0D01*
G01*
X63634500Y-91540000D02*
G75*
G02X65285500Y-91540000I825500J0D01*
G01*
X65285500Y-101700000D02*
G75*
G02X63634500Y-101700000I-825500J0D01*
G01*
X63634500Y-81380000D02*
G75*
G02X65285500Y-81380000I825500J0D01*
G01*
X66174500Y-81380000D02*
G75*
G02X67825500Y-81380000I825500J0D01*
G01*
X65285500Y-89000000D02*
G75*
G02X63634500Y-89000000I-825500J0D01*
G01*
X67825500Y-96620000D02*
G75*
G02X66174500Y-96620000I-825500J0D01*
G01*
X63634500Y-89000000D02*
G75*
G02X65285500Y-89000000I825500J0D01*
G01*
X66174500Y-96620000D02*
G75*
G02X67825500Y-96620000I825500J0D01*
G01*
X66174500Y-91540000D02*
G75*
G02X67825500Y-91540000I825500J0D01*
G01*
X65285500Y-86460000D02*
G75*
G02X63634500Y-86460000I-825500J0D01*
G01*
X63634500Y-86460000D02*
G75*
G02X65285500Y-86460000I825500J0D01*
G01*
X67825500Y-99160000D02*
G75*
G02X66174500Y-99160000I-825500J0D01*
G01*
X65285500Y-96620000D02*
G75*
G02X63634500Y-96620000I-825500J0D01*
G01*
X67825500Y-86460000D02*
G75*
G02X66174500Y-86460000I-825500J0D01*
G01*
X65285500Y-91540000D02*
G75*
G02X63634500Y-91540000I-825500J0D01*
G01*
X65285500Y-81380000D02*
G75*
G02X63634500Y-81380000I-825500J0D01*
G01*
X67825500Y-81380000D02*
G75*
G02X66174500Y-81380000I-825500J0D01*
G01*
X63634500Y-94080000D02*
G75*
G02X65285500Y-94080000I825500J0D01*
G01*
X66174500Y-89000000D02*
G75*
G02X67825500Y-89000000I825500J0D01*
G01*
M02*
